{
    "invention-01" : {
        "header": {
          "keySignatures": [],
          "meta": [],
          "name": "Invention 1 in C Major",
          "ppq": 240,
          "tempos": [
            {
              "bpm": 86.00005160003096,
              "ticks": 0
            }
          ],
          "timeSignatures": [
            {
              "ticks": 0,
              "timeSignature": [
                4,
                4
              ],
              "measures": 0
            }
          ]
        },
        "tracks": [
          {
            "channel": 0,
            "controlChanges": {},
            "pitchBends": [],
            "instrument": {
              "family": "piano",
              "number": 0,
              "name": "acoustic grand piano"
            },
            "name": "",
            "notes": [
              {
                "duration": 0.1744185,
                "durationTicks": 60,
                "midi": 60,
                "name": "C4",
                "ticks": 60,
                "time": 0.1744185,
                "velocity": 0.5039370078740157
              },
              {
                "duration": 0.17441849999999998,
                "durationTicks": 60,
                "midi": 62,
                "name": "D4",
                "ticks": 120,
                "time": 0.348837,
                "velocity": 0.5039370078740157
              },
              {
                "duration": 0.17441850000000003,
                "durationTicks": 60,
                "midi": 64,
                "name": "E4",
                "ticks": 180,
                "time": 0.5232555,
                "velocity": 0.5039370078740157
              },
              {
                "duration": 0.17441850000000003,
                "durationTicks": 60,
                "midi": 65,
                "name": "F4",
                "ticks": 240,
                "time": 0.697674,
                "velocity": 0.5039370078740157
              },
              {
                "duration": 0.17441849999999992,
                "durationTicks": 60,
                "midi": 62,
                "name": "D4",
                "ticks": 300,
                "time": 0.8720925,
                "velocity": 0.5039370078740157
              },
              {
                "duration": 0.17441850000000003,
                "durationTicks": 60,
                "midi": 64,
                "name": "E4",
                "ticks": 360,
                "time": 1.046511,
                "velocity": 0.5039370078740157
              },
              {
                "duration": 0.17441850000000003,
                "durationTicks": 60,
                "midi": 60,
                "name": "C4",
                "ticks": 420,
                "time": 1.2209295,
                "velocity": 0.5039370078740157
              },
              {
                "duration": 0.34883700000000006,
                "durationTicks": 120,
                "midi": 67,
                "name": "G4",
                "ticks": 480,
                "time": 1.395348,
                "velocity": 0.5039370078740157
              },
              {
                "duration": 0.34883699999999984,
                "durationTicks": 120,
                "midi": 72,
                "name": "C5",
                "ticks": 600,
                "time": 1.744185,
                "velocity": 0.5039370078740157
              },
              {
                "duration": 0.0872092499999999,
                "durationTicks": 30,
                "midi": 71,
                "name": "B4",
                "ticks": 720,
                "time": 2.093022,
                "velocity": 0.5039370078740157
              },
              {
                "duration": 0.08720925000000035,
                "durationTicks": 30,
                "midi": 69,
                "name": "A4",
                "ticks": 750,
                "time": 2.18023125,
                "velocity": 0.4409448818897638
              },
              {
                "duration": 0.1744184999999998,
                "durationTicks": 60,
                "midi": 71,
                "name": "B4",
                "ticks": 780,
                "time": 2.2674405,
                "velocity": 0.5039370078740157
              },
              {
                "duration": 0.34883700000000006,
                "durationTicks": 120,
                "midi": 72,
                "name": "C5",
                "ticks": 840,
                "time": 2.441859,
                "velocity": 0.5039370078740157
              },
              {
                "duration": 0.1744184999999998,
                "durationTicks": 60,
                "midi": 74,
                "name": "D5",
                "ticks": 960,
                "time": 2.790696,
                "velocity": 0.5039370078740157
              },
              {
                "duration": 0.17441850000000025,
                "durationTicks": 60,
                "midi": 67,
                "name": "G4",
                "ticks": 1020,
                "time": 2.9651145,
                "velocity": 0.5039370078740157
              },
              {
                "duration": 0.1744184999999998,
                "durationTicks": 60,
                "midi": 69,
                "name": "A4",
                "ticks": 1080,
                "time": 3.139533,
                "velocity": 0.5039370078740157
              },
              {
                "duration": 0.17441850000000025,
                "durationTicks": 60,
                "midi": 71,
                "name": "B4",
                "ticks": 1140,
                "time": 3.3139515,
                "velocity": 0.5039370078740157
              },
              {
                "duration": 0.1744184999999998,
                "durationTicks": 60,
                "midi": 72,
                "name": "C5",
                "ticks": 1200,
                "time": 3.48837,
                "velocity": 0.5039370078740157
              },
              {
                "duration": 0.17441850000000025,
                "durationTicks": 60,
                "midi": 69,
                "name": "A4",
                "ticks": 1260,
                "time": 3.6627885,
                "velocity": 0.5039370078740157
              },
              {
                "duration": 0.1744184999999998,
                "durationTicks": 60,
                "midi": 71,
                "name": "B4",
                "ticks": 1320,
                "time": 3.8372070000000003,
                "velocity": 0.5039370078740157
              },
              {
                "duration": 0.1744184999999998,
                "durationTicks": 60,
                "midi": 67,
                "name": "G4",
                "ticks": 1380,
                "time": 4.0116255,
                "velocity": 0.5039370078740157
              },
              {
                "duration": 0.3488370000000005,
                "durationTicks": 120,
                "midi": 74,
                "name": "D5",
                "ticks": 1440,
                "time": 4.186044,
                "velocity": 0.5039370078740157
              },
              {
                "duration": 0.3488369999999996,
                "durationTicks": 120,
                "midi": 79,
                "name": "G5",
                "ticks": 1560,
                "time": 4.534881,
                "velocity": 0.5039370078740157
              },
              {
                "duration": 0.0872092499999999,
                "durationTicks": 30,
                "midi": 77,
                "name": "F5",
                "ticks": 1680,
                "time": 4.883718,
                "velocity": 0.5039370078740157
              },
              {
                "duration": 0.0872092499999999,
                "durationTicks": 30,
                "midi": 76,
                "name": "E5",
                "ticks": 1710,
                "time": 4.97092725,
                "velocity": 0.4409448818897638
              },
              {
                "duration": 0.1744185000000007,
                "durationTicks": 60,
                "midi": 77,
                "name": "F5",
                "ticks": 1740,
                "time": 5.0581365,
                "velocity": 0.5039370078740157
              },
              {
                "duration": 0.3488369999999996,
                "durationTicks": 120,
                "midi": 79,
                "name": "G5",
                "ticks": 1800,
                "time": 5.2325550000000005,
                "velocity": 0.5039370078740157
              },
              {
                "duration": 0.1744184999999998,
                "durationTicks": 60,
                "midi": 76,
                "name": "E5",
                "ticks": 1920,
                "time": 5.581392,
                "velocity": 0.5039370078740157
              },
              {
                "duration": 0.1744184999999998,
                "durationTicks": 60,
                "midi": 81,
                "name": "A5",
                "ticks": 1980,
                "time": 5.7558105,
                "velocity": 0.5039370078740157
              },
              {
                "duration": 0.1744185000000007,
                "durationTicks": 60,
                "midi": 79,
                "name": "G5",
                "ticks": 2040,
                "time": 5.930229,
                "velocity": 0.5039370078740157
              },
              {
                "duration": 0.1744184999999998,
                "durationTicks": 60,
                "midi": 77,
                "name": "F5",
                "ticks": 2100,
                "time": 6.1046475000000004,
                "velocity": 0.5039370078740157
              },
              {
                "duration": 0.1744184999999998,
                "durationTicks": 60,
                "midi": 76,
                "name": "E5",
                "ticks": 2160,
                "time": 6.279066,
                "velocity": 0.5039370078740157
              },
              {
                "duration": 0.1744184999999998,
                "durationTicks": 60,
                "midi": 79,
                "name": "G5",
                "ticks": 2220,
                "time": 6.4534845,
                "velocity": 0.5039370078740157
              },
              {
                "duration": 0.1744185000000007,
                "durationTicks": 60,
                "midi": 77,
                "name": "F5",
                "ticks": 2280,
                "time": 6.627903,
                "velocity": 0.5039370078740157
              },
              {
                "duration": 0.1744184999999998,
                "durationTicks": 60,
                "midi": 81,
                "name": "A5",
                "ticks": 2340,
                "time": 6.802321500000001,
                "velocity": 0.5039370078740157
              },
              {
                "duration": 0.1744184999999998,
                "durationTicks": 60,
                "midi": 79,
                "name": "G5",
                "ticks": 2400,
                "time": 6.97674,
                "velocity": 0.5039370078740157
              },
              {
                "duration": 0.1744184999999998,
                "durationTicks": 60,
                "midi": 77,
                "name": "F5",
                "ticks": 2460,
                "time": 7.1511585,
                "velocity": 0.5039370078740157
              },
              {
                "duration": 0.1744184999999998,
                "durationTicks": 60,
                "midi": 76,
                "name": "E5",
                "ticks": 2520,
                "time": 7.325577,
                "velocity": 0.5039370078740157
              },
              {
                "duration": 0.1744185000000007,
                "durationTicks": 60,
                "midi": 74,
                "name": "D5",
                "ticks": 2580,
                "time": 7.4999955,
                "velocity": 0.5039370078740157
              },
              {
                "duration": 0.1744184999999998,
                "durationTicks": 60,
                "midi": 72,
                "name": "C5",
                "ticks": 2640,
                "time": 7.6744140000000005,
                "velocity": 0.5039370078740157
              },
              {
                "duration": 0.1744184999999998,
                "durationTicks": 60,
                "midi": 76,
                "name": "E5",
                "ticks": 2700,
                "time": 7.8488325,
                "velocity": 0.5039370078740157
              },
              {
                "duration": 0.1744184999999998,
                "durationTicks": 60,
                "midi": 74,
                "name": "D5",
                "ticks": 2760,
                "time": 8.023251,
                "velocity": 0.5039370078740157
              },
              {
                "duration": 0.1744184999999998,
                "durationTicks": 60,
                "midi": 77,
                "name": "F5",
                "ticks": 2820,
                "time": 8.1976695,
                "velocity": 0.5039370078740157
              },
              {
                "duration": 0.1744184999999998,
                "durationTicks": 60,
                "midi": 76,
                "name": "E5",
                "ticks": 2880,
                "time": 8.372088,
                "velocity": 0.5039370078740157
              },
              {
                "duration": 0.1744184999999998,
                "durationTicks": 60,
                "midi": 74,
                "name": "D5",
                "ticks": 2940,
                "time": 8.5465065,
                "velocity": 0.5039370078740157
              },
              {
                "duration": 0.1744185000000016,
                "durationTicks": 60,
                "midi": 72,
                "name": "C5",
                "ticks": 3000,
                "time": 8.720925,
                "velocity": 0.5039370078740157
              },
              {
                "duration": 0.1744184999999998,
                "durationTicks": 60,
                "midi": 71,
                "name": "B4",
                "ticks": 3060,
                "time": 8.895343500000001,
                "velocity": 0.5039370078740157
              },
              {
                "duration": 0.1744184999999998,
                "durationTicks": 60,
                "midi": 69,
                "name": "A4",
                "ticks": 3120,
                "time": 9.069762,
                "velocity": 0.5039370078740157
              },
              {
                "duration": 0.1744184999999998,
                "durationTicks": 60,
                "midi": 72,
                "name": "C5",
                "ticks": 3180,
                "time": 9.2441805,
                "velocity": 0.5039370078740157
              },
              {
                "duration": 0.1744184999999998,
                "durationTicks": 60,
                "midi": 71,
                "name": "B4",
                "ticks": 3240,
                "time": 9.418599,
                "velocity": 0.5039370078740157
              },
              {
                "duration": 0.1744184999999998,
                "durationTicks": 60,
                "midi": 74,
                "name": "D5",
                "ticks": 3300,
                "time": 9.5930175,
                "velocity": 0.5039370078740157
              },
              {
                "duration": 0.1744184999999998,
                "durationTicks": 60,
                "midi": 72,
                "name": "C5",
                "ticks": 3360,
                "time": 9.767436,
                "velocity": 0.5039370078740157
              },
              {
                "duration": 0.1744184999999998,
                "durationTicks": 60,
                "midi": 71,
                "name": "B4",
                "ticks": 3420,
                "time": 9.9418545,
                "velocity": 0.5039370078740157
              },
              {
                "duration": 0.1744184999999998,
                "durationTicks": 60,
                "midi": 69,
                "name": "A4",
                "ticks": 3480,
                "time": 10.116273,
                "velocity": 0.5039370078740157
              },
              {
                "duration": 0.1744185000000016,
                "durationTicks": 60,
                "midi": 67,
                "name": "G4",
                "ticks": 3540,
                "time": 10.2906915,
                "velocity": 0.5039370078740157
              },
              {
                "duration": 0.1744184999999998,
                "durationTicks": 60,
                "midi": 66,
                "name": "F#4",
                "ticks": 3600,
                "time": 10.465110000000001,
                "velocity": 0.5039370078740157
              },
              {
                "duration": 0.1744184999999998,
                "durationTicks": 60,
                "midi": 69,
                "name": "A4",
                "ticks": 3660,
                "time": 10.6395285,
                "velocity": 0.5039370078740157
              },
              {
                "duration": 0.1744184999999998,
                "durationTicks": 60,
                "midi": 67,
                "name": "G4",
                "ticks": 3720,
                "time": 10.813947,
                "velocity": 0.5039370078740157
              },
              {
                "duration": 0.1744184999999998,
                "durationTicks": 60,
                "midi": 71,
                "name": "B4",
                "ticks": 3780,
                "time": 10.9883655,
                "velocity": 0.5039370078740157
              },
              {
                "duration": 0.3488369999999996,
                "durationTicks": 120,
                "midi": 69,
                "name": "A4",
                "ticks": 3840,
                "time": 11.162784,
                "velocity": 0.5039370078740157
              },
              {
                "duration": 0.3488369999999996,
                "durationTicks": 120,
                "midi": 62,
                "name": "D4",
                "ticks": 3960,
                "time": 11.511621,
                "velocity": 0.5039370078740157
              },
              {
                "duration": 0.0872092500000008,
                "durationTicks": 30,
                "midi": 72,
                "name": "C5",
                "ticks": 4080,
                "time": 11.860458,
                "velocity": 0.5039370078740157
              },
              {
                "duration": 0.0872092500000008,
                "durationTicks": 30,
                "midi": 71,
                "name": "B4",
                "ticks": 4110,
                "time": 11.94766725,
                "velocity": 0.4409448818897638
              },
              {
                "duration": 0.3488369999999996,
                "durationTicks": 120,
                "midi": 72,
                "name": "C5",
                "ticks": 4140,
                "time": 12.034876500000001,
                "velocity": 0.5039370078740157
              },
              {
                "duration": 0.1744184999999998,
                "durationTicks": 60,
                "midi": 74,
                "name": "D5",
                "ticks": 4260,
                "time": 12.3837135,
                "velocity": 0.5039370078740157
              },
              {
                "duration": 0.1744184999999998,
                "durationTicks": 60,
                "midi": 71,
                "name": "B4",
                "ticks": 4320,
                "time": 12.558132,
                "velocity": 0.5039370078740157
              },
              {
                "duration": 0.1744184999999998,
                "durationTicks": 60,
                "midi": 69,
                "name": "A4",
                "ticks": 4380,
                "time": 12.7325505,
                "velocity": 0.5039370078740157
              },
              {
                "duration": 0.1744184999999998,
                "durationTicks": 60,
                "midi": 67,
                "name": "G4",
                "ticks": 4440,
                "time": 12.906969,
                "velocity": 0.5039370078740157
              },
              {
                "duration": 0.1744184999999998,
                "durationTicks": 60,
                "midi": 66,
                "name": "F#4",
                "ticks": 4500,
                "time": 13.0813875,
                "velocity": 0.5039370078740157
              },
              {
                "duration": 0.1744184999999998,
                "durationTicks": 60,
                "midi": 64,
                "name": "E4",
                "ticks": 4560,
                "time": 13.255806,
                "velocity": 0.5039370078740157
              },
              {
                "duration": 0.1744185000000016,
                "durationTicks": 60,
                "midi": 67,
                "name": "G4",
                "ticks": 4620,
                "time": 13.4302245,
                "velocity": 0.5039370078740157
              },
              {
                "duration": 0.1744184999999998,
                "durationTicks": 60,
                "midi": 66,
                "name": "F#4",
                "ticks": 4680,
                "time": 13.604643000000001,
                "velocity": 0.5039370078740157
              },
              {
                "duration": 0.1744184999999998,
                "durationTicks": 60,
                "midi": 69,
                "name": "A4",
                "ticks": 4740,
                "time": 13.779061500000001,
                "velocity": 0.5039370078740157
              },
              {
                "duration": 0.1744184999999998,
                "durationTicks": 60,
                "midi": 67,
                "name": "G4",
                "ticks": 4800,
                "time": 13.95348,
                "velocity": 0.5039370078740157
              },
              {
                "duration": 0.1744184999999998,
                "durationTicks": 60,
                "midi": 71,
                "name": "B4",
                "ticks": 4860,
                "time": 14.1278985,
                "velocity": 0.5039370078740157
              },
              {
                "duration": 0.1744184999999998,
                "durationTicks": 60,
                "midi": 69,
                "name": "A4",
                "ticks": 4920,
                "time": 14.302317,
                "velocity": 0.5039370078740157
              },
              {
                "duration": 0.1744184999999998,
                "durationTicks": 60,
                "midi": 72,
                "name": "C5",
                "ticks": 4980,
                "time": 14.4767355,
                "velocity": 0.5039370078740157
              },
              {
                "duration": 0.1744184999999998,
                "durationTicks": 60,
                "midi": 71,
                "name": "B4",
                "ticks": 5040,
                "time": 14.651154,
                "velocity": 0.5039370078740157
              },
              {
                "duration": 0.1744184999999998,
                "durationTicks": 60,
                "midi": 74,
                "name": "D5",
                "ticks": 5100,
                "time": 14.8255725,
                "velocity": 0.5039370078740157
              },
              {
                "duration": 0.1744185000000016,
                "durationTicks": 60,
                "midi": 72,
                "name": "C5",
                "ticks": 5160,
                "time": 14.999991,
                "velocity": 0.5039370078740157
              },
              {
                "duration": 0.1744184999999998,
                "durationTicks": 60,
                "midi": 76,
                "name": "E5",
                "ticks": 5220,
                "time": 15.174409500000001,
                "velocity": 0.5039370078740157
              },
              {
                "duration": 0.1744184999999998,
                "durationTicks": 60,
                "midi": 74,
                "name": "D5",
                "ticks": 5280,
                "time": 15.348828000000001,
                "velocity": 0.5039370078740157
              },
              {
                "duration": 0.08720924999999902,
                "durationTicks": 30,
                "midi": 71,
                "name": "B4",
                "ticks": 5340,
                "time": 15.5232465,
                "velocity": 0.5039370078740157
              },
              {
                "duration": 0.0872092500000008,
                "durationTicks": 30,
                "midi": 72,
                "name": "C5",
                "ticks": 5370,
                "time": 15.61045575,
                "velocity": 0.4409448818897638
              },
              {
                "duration": 0.1744184999999998,
                "durationTicks": 60,
                "midi": 74,
                "name": "D5",
                "ticks": 5400,
                "time": 15.697665,
                "velocity": 0.5039370078740157
              },
              {
                "duration": 0.1744184999999998,
                "durationTicks": 60,
                "midi": 79,
                "name": "G5",
                "ticks": 5460,
                "time": 15.8720835,
                "velocity": 0.5039370078740157
              },
              {
                "duration": 0.0872092500000008,
                "durationTicks": 30,
                "midi": 71,
                "name": "B4",
                "ticks": 5520,
                "time": 16.046502,
                "velocity": 0.5039370078740157
              },
              {
                "duration": 0.0872092500000008,
                "durationTicks": 30,
                "midi": 72,
                "name": "C5",
                "ticks": 5550,
                "time": 16.13371125,
                "velocity": 0.4409448818897638
              },
              {
                "duration": 0.17441849999999803,
                "durationTicks": 60,
                "midi": 71,
                "name": "B4",
                "ticks": 5580,
                "time": 16.220920500000002,
                "velocity": 0.5039370078740157
              },
              {
                "duration": 0.1744185000000016,
                "durationTicks": 60,
                "midi": 69,
                "name": "A4",
                "ticks": 5640,
                "time": 16.395339,
                "velocity": 0.5039370078740157
              },
              {
                "duration": 0.17441849999999803,
                "durationTicks": 60,
                "midi": 67,
                "name": "G4",
                "ticks": 5700,
                "time": 16.5697575,
                "velocity": 0.5039370078740157
              },
              {
                "duration": 0.3488369999999996,
                "durationTicks": 120,
                "midi": 67,
                "name": "G4",
                "ticks": 5760,
                "time": 16.744176,
                "velocity": 0.5039370078740157
              },
              {
                "duration": 0.1744185000000016,
                "durationTicks": 60,
                "midi": 67,
                "name": "G4",
                "ticks": 6300,
                "time": 18.3139425,
                "velocity": 0.5039370078740157
              },
              {
                "duration": 0.17441849999999803,
                "durationTicks": 60,
                "midi": 69,
                "name": "A4",
                "ticks": 6360,
                "time": 18.488361,
                "velocity": 0.5039370078740157
              },
              {
                "duration": 0.1744185000000016,
                "durationTicks": 60,
                "midi": 71,
                "name": "B4",
                "ticks": 6420,
                "time": 18.6627795,
                "velocity": 0.5039370078740157
              },
              {
                "duration": 0.17441849999999803,
                "durationTicks": 60,
                "midi": 72,
                "name": "C5",
                "ticks": 6480,
                "time": 18.837198,
                "velocity": 0.5039370078740157
              },
              {
                "duration": 0.1744185000000016,
                "durationTicks": 60,
                "midi": 69,
                "name": "A4",
                "ticks": 6540,
                "time": 19.0116165,
                "velocity": 0.5039370078740157
              },
              {
                "duration": 0.1744185000000016,
                "durationTicks": 60,
                "midi": 71,
                "name": "B4",
                "ticks": 6600,
                "time": 19.186035,
                "velocity": 0.5039370078740157
              },
              {
                "duration": 0.17441849999999803,
                "durationTicks": 60,
                "midi": 67,
                "name": "G4",
                "ticks": 6660,
                "time": 19.360453500000002,
                "velocity": 0.5039370078740157
              },
              {
                "duration": 0.3488369999999996,
                "durationTicks": 120,
                "midi": 66,
                "name": "F#4",
                "ticks": 6720,
                "time": 19.534872,
                "velocity": 0.5039370078740157
              },
              {
                "duration": 0.1744185000000016,
                "durationTicks": 60,
                "midi": 69,
                "name": "A4",
                "ticks": 7260,
                "time": 21.1046385,
                "velocity": 0.5039370078740157
              },
              {
                "duration": 0.17441849999999803,
                "durationTicks": 60,
                "midi": 71,
                "name": "B4",
                "ticks": 7320,
                "time": 21.279057,
                "velocity": 0.5039370078740157
              },
              {
                "duration": 0.1744185000000016,
                "durationTicks": 60,
                "midi": 72,
                "name": "C5",
                "ticks": 7380,
                "time": 21.4534755,
                "velocity": 0.5039370078740157
              },
              {
                "duration": 0.17441849999999803,
                "durationTicks": 60,
                "midi": 74,
                "name": "D5",
                "ticks": 7440,
                "time": 21.627894,
                "velocity": 0.5039370078740157
              },
              {
                "duration": 0.1744185000000016,
                "durationTicks": 60,
                "midi": 71,
                "name": "B4",
                "ticks": 7500,
                "time": 21.8023125,
                "velocity": 0.5039370078740157
              },
              {
                "duration": 0.17441849999999803,
                "durationTicks": 60,
                "midi": 72,
                "name": "C5",
                "ticks": 7560,
                "time": 21.976731,
                "velocity": 0.5039370078740157
              },
              {
                "duration": 0.1744185000000016,
                "durationTicks": 60,
                "midi": 69,
                "name": "A4",
                "ticks": 7620,
                "time": 22.1511495,
                "velocity": 0.5039370078740157
              },
              {
                "duration": 0.3488369999999996,
                "durationTicks": 120,
                "midi": 71,
                "name": "B4",
                "ticks": 7680,
                "time": 22.325568,
                "velocity": 0.5039370078740157
              },
              {
                "duration": 0.1744185000000016,
                "durationTicks": 60,
                "midi": 74,
                "name": "D5",
                "ticks": 8220,
                "time": 23.8953345,
                "velocity": 0.5039370078740157
              },
              {
                "duration": 0.17441849999999803,
                "durationTicks": 60,
                "midi": 72,
                "name": "C5",
                "ticks": 8280,
                "time": 24.069753000000002,
                "velocity": 0.5039370078740157
              },
              {
                "duration": 0.1744185000000016,
                "durationTicks": 60,
                "midi": 71,
                "name": "B4",
                "ticks": 8340,
                "time": 24.2441715,
                "velocity": 0.5039370078740157
              },
              {
                "duration": 0.17441849999999803,
                "durationTicks": 60,
                "midi": 69,
                "name": "A4",
                "ticks": 8400,
                "time": 24.418590000000002,
                "velocity": 0.5039370078740157
              },
              {
                "duration": 0.1744185000000016,
                "durationTicks": 60,
                "midi": 72,
                "name": "C5",
                "ticks": 8460,
                "time": 24.5930085,
                "velocity": 0.5039370078740157
              },
              {
                "duration": 0.17441849999999803,
                "durationTicks": 60,
                "midi": 71,
                "name": "B4",
                "ticks": 8520,
                "time": 24.767427,
                "velocity": 0.5039370078740157
              },
              {
                "duration": 0.1744185000000016,
                "durationTicks": 60,
                "midi": 74,
                "name": "D5",
                "ticks": 8580,
                "time": 24.9418455,
                "velocity": 0.5039370078740157
              },
              {
                "duration": 0.3488369999999996,
                "durationTicks": 120,
                "midi": 72,
                "name": "C5",
                "ticks": 8640,
                "time": 25.116264,
                "velocity": 0.5039370078740157
              },
              {
                "duration": 0.17441849999999803,
                "durationTicks": 60,
                "midi": 76,
                "name": "E5",
                "ticks": 9180,
                "time": 26.6860305,
                "velocity": 0.5039370078740157
              },
              {
                "duration": 0.1744185000000016,
                "durationTicks": 60,
                "midi": 74,
                "name": "D5",
                "ticks": 9240,
                "time": 26.860449,
                "velocity": 0.5039370078740157
              },
              {
                "duration": 0.1744185000000016,
                "durationTicks": 60,
                "midi": 72,
                "name": "C5",
                "ticks": 9300,
                "time": 27.0348675,
                "velocity": 0.5039370078740157
              },
              {
                "duration": 0.17441849999999803,
                "durationTicks": 60,
                "midi": 71,
                "name": "B4",
                "ticks": 9360,
                "time": 27.209286000000002,
                "velocity": 0.5039370078740157
              },
              {
                "duration": 0.1744185000000016,
                "durationTicks": 60,
                "midi": 74,
                "name": "D5",
                "ticks": 9420,
                "time": 27.3837045,
                "velocity": 0.5039370078740157
              },
              {
                "duration": 0.17441849999999803,
                "durationTicks": 60,
                "midi": 73,
                "name": "C#5",
                "ticks": 9480,
                "time": 27.558123000000002,
                "velocity": 0.5039370078740157
              },
              {
                "duration": 0.1744185000000016,
                "durationTicks": 60,
                "midi": 76,
                "name": "E5",
                "ticks": 9540,
                "time": 27.7325415,
                "velocity": 0.5039370078740157
              },
              {
                "duration": 0.3488369999999996,
                "durationTicks": 120,
                "midi": 74,
                "name": "D5",
                "ticks": 9600,
                "time": 27.90696,
                "velocity": 0.5039370078740157
              },
              {
                "duration": 0.3488369999999996,
                "durationTicks": 120,
                "midi": 73,
                "name": "C#5",
                "ticks": 9720,
                "time": 28.255797,
                "velocity": 0.5039370078740157
              },
              {
                "duration": 0.3488369999999996,
                "durationTicks": 120,
                "midi": 74,
                "name": "D5",
                "ticks": 9840,
                "time": 28.604634,
                "velocity": 0.5039370078740157
              },
              {
                "duration": 0.3488369999999996,
                "durationTicks": 120,
                "midi": 76,
                "name": "E5",
                "ticks": 9960,
                "time": 28.953471,
                "velocity": 0.5039370078740157
              },
              {
                "duration": 0.3488369999999996,
                "durationTicks": 120,
                "midi": 77,
                "name": "F5",
                "ticks": 10080,
                "time": 29.302308,
                "velocity": 0.5039370078740157
              },
              {
                "duration": 0.3488369999999996,
                "durationTicks": 120,
                "midi": 69,
                "name": "A4",
                "ticks": 10200,
                "time": 29.651145,
                "velocity": 0.5039370078740157
              },
              {
                "duration": 0.3488370000000032,
                "durationTicks": 120,
                "midi": 71,
                "name": "B4",
                "ticks": 10320,
                "time": 29.999982,
                "velocity": 0.5039370078740157
              },
              {
                "duration": 0.3488369999999996,
                "durationTicks": 120,
                "midi": 73,
                "name": "C#5",
                "ticks": 10440,
                "time": 30.348819000000002,
                "velocity": 0.5039370078740157
              },
              {
                "duration": 0.3488369999999996,
                "durationTicks": 120,
                "midi": 74,
                "name": "D5",
                "ticks": 10560,
                "time": 30.697656000000002,
                "velocity": 0.5039370078740157
              },
              {
                "duration": 0.3488369999999996,
                "durationTicks": 120,
                "midi": 66,
                "name": "F#4",
                "ticks": 10680,
                "time": 31.046493,
                "velocity": 0.5039370078740157
              },
              {
                "duration": 0.3488369999999996,
                "durationTicks": 120,
                "midi": 68,
                "name": "G#4",
                "ticks": 10800,
                "time": 31.39533,
                "velocity": 0.5039370078740157
              },
              {
                "duration": 0.3488369999999996,
                "durationTicks": 120,
                "midi": 69,
                "name": "A4",
                "ticks": 10920,
                "time": 31.744167,
                "velocity": 0.5039370078740157
              },
              {
                "duration": 0.3488370000000032,
                "durationTicks": 120,
                "midi": 71,
                "name": "B4",
                "ticks": 11040,
                "time": 32.093004,
                "velocity": 0.5039370078740157
              },
              {
                "duration": 0.34883699999999607,
                "durationTicks": 120,
                "midi": 72,
                "name": "C5",
                "ticks": 11160,
                "time": 32.441841000000004,
                "velocity": 0.5039370078740157
              },
              {
                "duration": 0.6976739999999992,
                "durationTicks": 240,
                "midi": 74,
                "name": "D5",
                "ticks": 11280,
                "time": 32.790678,
                "velocity": 0.5039370078740157
              },
              {
                "duration": 0.1744185000000016,
                "durationTicks": 60,
                "midi": 64,
                "name": "E4",
                "ticks": 11580,
                "time": 33.6627705,
                "velocity": 0.5039370078740157
              },
              {
                "duration": 0.1744185000000016,
                "durationTicks": 60,
                "midi": 66,
                "name": "F#4",
                "ticks": 11640,
                "time": 33.837189,
                "velocity": 0.5039370078740157
              },
              {
                "duration": 0.17441849999999448,
                "durationTicks": 60,
                "midi": 68,
                "name": "G#4",
                "ticks": 11700,
                "time": 34.011607500000004,
                "velocity": 0.5039370078740157
              },
              {
                "duration": 0.1744185000000016,
                "durationTicks": 60,
                "midi": 69,
                "name": "A4",
                "ticks": 11760,
                "time": 34.186026,
                "velocity": 0.5039370078740157
              },
              {
                "duration": 0.1744185000000016,
                "durationTicks": 60,
                "midi": 66,
                "name": "F#4",
                "ticks": 11820,
                "time": 34.3604445,
                "velocity": 0.5039370078740157
              },
              {
                "duration": 0.1744185000000016,
                "durationTicks": 60,
                "midi": 68,
                "name": "G#4",
                "ticks": 11880,
                "time": 34.534863,
                "velocity": 0.5039370078740157
              },
              {
                "duration": 0.17441849999999448,
                "durationTicks": 60,
                "midi": 64,
                "name": "E4",
                "ticks": 11940,
                "time": 34.7092815,
                "velocity": 0.5039370078740157
              },
              {
                "duration": 0.1744185000000016,
                "durationTicks": 60,
                "midi": 76,
                "name": "E5",
                "ticks": 12000,
                "time": 34.8837,
                "velocity": 0.5039370078740157
              },
              {
                "duration": 0.1744185000000016,
                "durationTicks": 60,
                "midi": 74,
                "name": "D5",
                "ticks": 12060,
                "time": 35.0581185,
                "velocity": 0.5039370078740157
              },
              {
                "duration": 0.1744185000000016,
                "durationTicks": 60,
                "midi": 72,
                "name": "C5",
                "ticks": 12120,
                "time": 35.232537,
                "velocity": 0.5039370078740157
              },
              {
                "duration": 0.1744185000000016,
                "durationTicks": 60,
                "midi": 76,
                "name": "E5",
                "ticks": 12180,
                "time": 35.4069555,
                "velocity": 0.5039370078740157
              },
              {
                "duration": 0.17441849999999448,
                "durationTicks": 60,
                "midi": 74,
                "name": "D5",
                "ticks": 12240,
                "time": 35.581374000000004,
                "velocity": 0.5039370078740157
              },
              {
                "duration": 0.1744185000000016,
                "durationTicks": 60,
                "midi": 72,
                "name": "C5",
                "ticks": 12300,
                "time": 35.7557925,
                "velocity": 0.5039370078740157
              },
              {
                "duration": 0.1744185000000016,
                "durationTicks": 60,
                "midi": 71,
                "name": "B4",
                "ticks": 12360,
                "time": 35.930211,
                "velocity": 0.5039370078740157
              },
              {
                "duration": 0.1744185000000016,
                "durationTicks": 60,
                "midi": 74,
                "name": "D5",
                "ticks": 12420,
                "time": 36.1046295,
                "velocity": 0.5039370078740157
              },
              {
                "duration": 0.17441849999999448,
                "durationTicks": 60,
                "midi": 72,
                "name": "C5",
                "ticks": 12480,
                "time": 36.279048,
                "velocity": 0.5039370078740157
              },
              {
                "duration": 0.1744185000000016,
                "durationTicks": 60,
                "midi": 81,
                "name": "A5",
                "ticks": 12540,
                "time": 36.4534665,
                "velocity": 0.5039370078740157
              },
              {
                "duration": 0.1744185000000016,
                "durationTicks": 60,
                "midi": 80,
                "name": "G#5",
                "ticks": 12600,
                "time": 36.627885,
                "velocity": 0.5039370078740157
              },
              {
                "duration": 0.1744185000000016,
                "durationTicks": 60,
                "midi": 83,
                "name": "B5",
                "ticks": 12660,
                "time": 36.8023035,
                "velocity": 0.5039370078740157
              },
              {
                "duration": 0.1744185000000016,
                "durationTicks": 60,
                "midi": 81,
                "name": "A5",
                "ticks": 12720,
                "time": 36.976722,
                "velocity": 0.5039370078740157
              },
              {
                "duration": 0.17441849999999448,
                "durationTicks": 60,
                "midi": 76,
                "name": "E5",
                "ticks": 12780,
                "time": 37.151140500000004,
                "velocity": 0.5039370078740157
              },
              {
                "duration": 0.1744185000000016,
                "durationTicks": 60,
                "midi": 77,
                "name": "F5",
                "ticks": 12840,
                "time": 37.325559,
                "velocity": 0.5039370078740157
              },
              {
                "duration": 0.1744185000000016,
                "durationTicks": 60,
                "midi": 74,
                "name": "D5",
                "ticks": 12900,
                "time": 37.4999775,
                "velocity": 0.5039370078740157
              },
              {
                "duration": 0.1744185000000016,
                "durationTicks": 60,
                "midi": 68,
                "name": "G#4",
                "ticks": 12960,
                "time": 37.674396,
                "velocity": 0.5039370078740157
              },
              {
                "duration": 0.17441849999999448,
                "durationTicks": 60,
                "midi": 77,
                "name": "F5",
                "ticks": 13020,
                "time": 37.8488145,
                "velocity": 0.5039370078740157
              },
              {
                "duration": 0.1744185000000016,
                "durationTicks": 60,
                "midi": 76,
                "name": "E5",
                "ticks": 13080,
                "time": 38.023233,
                "velocity": 0.5039370078740157
              },
              {
                "duration": 0.1744185000000016,
                "durationTicks": 60,
                "midi": 74,
                "name": "D5",
                "ticks": 13140,
                "time": 38.1976515,
                "velocity": 0.5039370078740157
              },
              {
                "duration": 0.0872092500000008,
                "durationTicks": 30,
                "midi": 72,
                "name": "C5",
                "ticks": 13200,
                "time": 38.37207,
                "velocity": 0.5039370078740157
              },
              {
                "duration": 0.0872092500000008,
                "durationTicks": 30,
                "midi": 74,
                "name": "D5",
                "ticks": 13230,
                "time": 38.45927925,
                "velocity": 0.5039370078740157
              },
              {
                "duration": 0.1744185000000016,
                "durationTicks": 60,
                "midi": 72,
                "name": "C5",
                "ticks": 13260,
                "time": 38.5464885,
                "velocity": 0.5039370078740157
              },
              {
                "duration": 0.17441849999999448,
                "durationTicks": 60,
                "midi": 71,
                "name": "B4",
                "ticks": 13320,
                "time": 38.720907000000004,
                "velocity": 0.5039370078740157
              },
              {
                "duration": 0.1744185000000016,
                "durationTicks": 60,
                "midi": 69,
                "name": "A4",
                "ticks": 13380,
                "time": 38.8953255,
                "velocity": 0.5039370078740157
              },
              {
                "duration": 0.1744185000000016,
                "durationTicks": 60,
                "midi": 69,
                "name": "A4",
                "ticks": 13440,
                "time": 39.069744,
                "velocity": 0.5039370078740157
              },
              {
                "duration": 0.1744185000000016,
                "durationTicks": 60,
                "midi": 81,
                "name": "A5",
                "ticks": 13500,
                "time": 39.2441625,
                "velocity": 0.5039370078740157
              },
              {
                "duration": 0.17441849999999448,
                "durationTicks": 60,
                "midi": 79,
                "name": "G5",
                "ticks": 13560,
                "time": 39.418581,
                "velocity": 0.5039370078740157
              },
              {
                "duration": 0.1744185000000016,
                "durationTicks": 60,
                "midi": 77,
                "name": "F5",
                "ticks": 13620,
                "time": 39.5929995,
                "velocity": 0.5039370078740157
              },
              {
                "duration": 0.1744185000000016,
                "durationTicks": 60,
                "midi": 76,
                "name": "E5",
                "ticks": 13680,
                "time": 39.767418,
                "velocity": 0.5039370078740157
              },
              {
                "duration": 0.1744185000000016,
                "durationTicks": 60,
                "midi": 79,
                "name": "G5",
                "ticks": 13740,
                "time": 39.9418365,
                "velocity": 0.5039370078740157
              },
              {
                "duration": 0.1744185000000016,
                "durationTicks": 60,
                "midi": 77,
                "name": "F5",
                "ticks": 13800,
                "time": 40.116255,
                "velocity": 0.5039370078740157
              },
              {
                "duration": 0.17441849999999448,
                "durationTicks": 60,
                "midi": 81,
                "name": "A5",
                "ticks": 13860,
                "time": 40.290673500000004,
                "velocity": 0.5039370078740157
              },
              {
                "duration": 1.5406967500000022,
                "durationTicks": 530,
                "midi": 79,
                "name": "G5",
                "ticks": 13920,
                "time": 40.465092,
                "velocity": 0.5039370078740157
              },
              {
                "duration": 0.1744185000000016,
                "durationTicks": 60,
                "midi": 76,
                "name": "E5",
                "ticks": 14460,
                "time": 42.0348585,
                "velocity": 0.5039370078740157
              },
              {
                "duration": 0.1744185000000016,
                "durationTicks": 60,
                "midi": 77,
                "name": "F5",
                "ticks": 14520,
                "time": 42.209277,
                "velocity": 0.5039370078740157
              },
              {
                "duration": 0.1744185000000016,
                "durationTicks": 60,
                "midi": 79,
                "name": "G5",
                "ticks": 14580,
                "time": 42.3836955,
                "velocity": 0.5039370078740157
              },
              {
                "duration": 0.17441849999999448,
                "durationTicks": 60,
                "midi": 81,
                "name": "A5",
                "ticks": 14640,
                "time": 42.558114,
                "velocity": 0.5039370078740157
              },
              {
                "duration": 0.1744185000000016,
                "durationTicks": 60,
                "midi": 77,
                "name": "F5",
                "ticks": 14700,
                "time": 42.7325325,
                "velocity": 0.5039370078740157
              },
              {
                "duration": 0.1744185000000016,
                "durationTicks": 60,
                "midi": 79,
                "name": "G5",
                "ticks": 14760,
                "time": 42.906951,
                "velocity": 0.5039370078740157
              },
              {
                "duration": 0.1744185000000016,
                "durationTicks": 60,
                "midi": 76,
                "name": "E5",
                "ticks": 14820,
                "time": 43.0813695,
                "velocity": 0.5039370078740157
              },
              {
                "duration": 1.3953479999999985,
                "durationTicks": 480,
                "midi": 77,
                "name": "F5",
                "ticks": 14880,
                "time": 43.255788,
                "velocity": 0.5039370078740157
              },
              {
                "duration": 0.1744185000000016,
                "durationTicks": 60,
                "midi": 79,
                "name": "G5",
                "ticks": 15420,
                "time": 44.8255545,
                "velocity": 0.5039370078740157
              },
              {
                "duration": 0.17441849999999448,
                "durationTicks": 60,
                "midi": 77,
                "name": "F5",
                "ticks": 15480,
                "time": 44.999973000000004,
                "velocity": 0.5039370078740157
              },
              {
                "duration": 0.1744185000000016,
                "durationTicks": 60,
                "midi": 76,
                "name": "E5",
                "ticks": 15540,
                "time": 45.1743915,
                "velocity": 0.5039370078740157
              },
              {
                "duration": 0.1744185000000016,
                "durationTicks": 60,
                "midi": 74,
                "name": "D5",
                "ticks": 15600,
                "time": 45.34881,
                "velocity": 0.5039370078740157
              },
              {
                "duration": 0.1744185000000016,
                "durationTicks": 60,
                "midi": 77,
                "name": "F5",
                "ticks": 15660,
                "time": 45.5232285,
                "velocity": 0.5039370078740157
              },
              {
                "duration": 0.17441849999999448,
                "durationTicks": 60,
                "midi": 76,
                "name": "E5",
                "ticks": 15720,
                "time": 45.697647,
                "velocity": 0.5039370078740157
              },
              {
                "duration": 0.1744185000000016,
                "durationTicks": 60,
                "midi": 79,
                "name": "G5",
                "ticks": 15780,
                "time": 45.8720655,
                "velocity": 0.5039370078740157
              },
              {
                "duration": 1.540696749999995,
                "durationTicks": 530,
                "midi": 77,
                "name": "F5",
                "ticks": 15840,
                "time": 46.046484,
                "velocity": 0.5039370078740157
              },
              {
                "duration": 0.1744185000000016,
                "durationTicks": 60,
                "midi": 74,
                "name": "D5",
                "ticks": 16380,
                "time": 47.6162505,
                "velocity": 0.5039370078740157
              },
              {
                "duration": 0.1744185000000016,
                "durationTicks": 60,
                "midi": 76,
                "name": "E5",
                "ticks": 16440,
                "time": 47.790669,
                "velocity": 0.5039370078740157
              },
              {
                "duration": 0.1744185000000016,
                "durationTicks": 60,
                "midi": 77,
                "name": "F5",
                "ticks": 16500,
                "time": 47.9650875,
                "velocity": 0.5039370078740157
              },
              {
                "duration": 0.17441849999999448,
                "durationTicks": 60,
                "midi": 79,
                "name": "G5",
                "ticks": 16560,
                "time": 48.139506000000004,
                "velocity": 0.5039370078740157
              },
              {
                "duration": 0.1744185000000016,
                "durationTicks": 60,
                "midi": 76,
                "name": "E5",
                "ticks": 16620,
                "time": 48.3139245,
                "velocity": 0.5039370078740157
              },
              {
                "duration": 0.1744185000000016,
                "durationTicks": 60,
                "midi": 77,
                "name": "F5",
                "ticks": 16680,
                "time": 48.488343,
                "velocity": 0.5039370078740157
              },
              {
                "duration": 0.1744185000000016,
                "durationTicks": 60,
                "midi": 74,
                "name": "D5",
                "ticks": 16740,
                "time": 48.6627615,
                "velocity": 0.5039370078740157
              },
              {
                "duration": 1.540696749999995,
                "durationTicks": 530,
                "midi": 76,
                "name": "E5",
                "ticks": 16800,
                "time": 48.837180000000004,
                "velocity": 0.5039370078740157
              },
              {
                "duration": 0.17441849999999448,
                "durationTicks": 60,
                "midi": 72,
                "name": "C5",
                "ticks": 17340,
                "time": 50.406946500000004,
                "velocity": 0.5039370078740157
              },
              {
                "duration": 0.1744185000000016,
                "durationTicks": 60,
                "midi": 74,
                "name": "D5",
                "ticks": 17400,
                "time": 50.581365,
                "velocity": 0.5039370078740157
              },
              {
                "duration": 0.1744185000000016,
                "durationTicks": 60,
                "midi": 76,
                "name": "E5",
                "ticks": 17460,
                "time": 50.7557835,
                "velocity": 0.5039370078740157
              },
              {
                "duration": 0.1744185000000016,
                "durationTicks": 60,
                "midi": 77,
                "name": "F5",
                "ticks": 17520,
                "time": 50.930202,
                "velocity": 0.5039370078740157
              },
              {
                "duration": 0.1744185000000016,
                "durationTicks": 60,
                "midi": 74,
                "name": "D5",
                "ticks": 17580,
                "time": 51.1046205,
                "velocity": 0.5039370078740157
              },
              {
                "duration": 0.17441849999999448,
                "durationTicks": 60,
                "midi": 76,
                "name": "E5",
                "ticks": 17640,
                "time": 51.279039000000004,
                "velocity": 0.5039370078740157
              },
              {
                "duration": 0.1744185000000016,
                "durationTicks": 60,
                "midi": 72,
                "name": "C5",
                "ticks": 17700,
                "time": 51.4534575,
                "velocity": 0.5039370078740157
              },
              {
                "duration": 0.1744185000000016,
                "durationTicks": 60,
                "midi": 74,
                "name": "D5",
                "ticks": 17760,
                "time": 51.627876,
                "velocity": 0.5039370078740157
              },
              {
                "duration": 0.1744185000000016,
                "durationTicks": 60,
                "midi": 76,
                "name": "E5",
                "ticks": 17820,
                "time": 51.8022945,
                "velocity": 0.5039370078740157
              },
              {
                "duration": 0.17441849999999448,
                "durationTicks": 60,
                "midi": 77,
                "name": "F5",
                "ticks": 17880,
                "time": 51.976713000000004,
                "velocity": 0.5039370078740157
              },
              {
                "duration": 0.1744185000000016,
                "durationTicks": 60,
                "midi": 79,
                "name": "G5",
                "ticks": 17940,
                "time": 52.1511315,
                "velocity": 0.5039370078740157
              },
              {
                "duration": 0.1744185000000016,
                "durationTicks": 60,
                "midi": 81,
                "name": "A5",
                "ticks": 18000,
                "time": 52.32555,
                "velocity": 0.5039370078740157
              },
              {
                "duration": 0.1744185000000016,
                "durationTicks": 60,
                "midi": 77,
                "name": "F5",
                "ticks": 18060,
                "time": 52.4999685,
                "velocity": 0.5039370078740157
              },
              {
                "duration": 0.1744185000000016,
                "durationTicks": 60,
                "midi": 79,
                "name": "G5",
                "ticks": 18120,
                "time": 52.674387,
                "velocity": 0.5039370078740157
              },
              {
                "duration": 0.17441849999999448,
                "durationTicks": 60,
                "midi": 76,
                "name": "E5",
                "ticks": 18180,
                "time": 52.848805500000005,
                "velocity": 0.5039370078740157
              },
              {
                "duration": 0.1744185000000016,
                "durationTicks": 60,
                "midi": 77,
                "name": "F5",
                "ticks": 18240,
                "time": 53.023224,
                "velocity": 0.5039370078740157
              },
              {
                "duration": 0.1744185000000016,
                "durationTicks": 60,
                "midi": 79,
                "name": "G5",
                "ticks": 18300,
                "time": 53.1976425,
                "velocity": 0.5039370078740157
              },
              {
                "duration": 0.1744185000000016,
                "durationTicks": 60,
                "midi": 81,
                "name": "A5",
                "ticks": 18360,
                "time": 53.372061,
                "velocity": 0.5039370078740157
              },
              {
                "duration": 0.17441849999999448,
                "durationTicks": 60,
                "midi": 83,
                "name": "B5",
                "ticks": 18420,
                "time": 53.546479500000004,
                "velocity": 0.5039370078740157
              },
              {
                "duration": 0.1744185000000016,
                "durationTicks": 60,
                "midi": 84,
                "name": "C6",
                "ticks": 18480,
                "time": 53.720898,
                "velocity": 0.5039370078740157
              },
              {
                "duration": 0.1744185000000016,
                "durationTicks": 60,
                "midi": 81,
                "name": "A5",
                "ticks": 18540,
                "time": 53.8953165,
                "velocity": 0.5039370078740157
              },
              {
                "duration": 0.1744185000000016,
                "durationTicks": 60,
                "midi": 83,
                "name": "B5",
                "ticks": 18600,
                "time": 54.069735,
                "velocity": 0.5039370078740157
              },
              {
                "duration": 0.1744185000000016,
                "durationTicks": 60,
                "midi": 79,
                "name": "G5",
                "ticks": 18660,
                "time": 54.2441535,
                "velocity": 0.5039370078740157
              },
              {
                "duration": 0.34883699999999607,
                "durationTicks": 120,
                "midi": 84,
                "name": "C6",
                "ticks": 18720,
                "time": 54.418572000000005,
                "velocity": 0.5039370078740157
              },
              {
                "duration": 0.3488370000000032,
                "durationTicks": 120,
                "midi": 79,
                "name": "G5",
                "ticks": 18840,
                "time": 54.767409,
                "velocity": 0.5039370078740157
              },
              {
                "duration": 0.0872092500000008,
                "durationTicks": 30,
                "midi": 76,
                "name": "E5",
                "ticks": 18960,
                "time": 55.116246000000004,
                "velocity": 0.5039370078740157
              },
              {
                "duration": 0.08720924999999369,
                "durationTicks": 30,
                "midi": 77,
                "name": "F5",
                "ticks": 18990,
                "time": 55.203455250000005,
                "velocity": 0.4409448818897638
              },
              {
                "duration": 0.1744185000000016,
                "durationTicks": 60,
                "midi": 76,
                "name": "E5",
                "ticks": 19020,
                "time": 55.2906645,
                "velocity": 0.5039370078740157
              },
              {
                "duration": 0.1744185000000016,
                "durationTicks": 60,
                "midi": 74,
                "name": "D5",
                "ticks": 19080,
                "time": 55.465083,
                "velocity": 0.5039370078740157
              },
              {
                "duration": 0.1744185000000016,
                "durationTicks": 60,
                "midi": 72,
                "name": "C5",
                "ticks": 19140,
                "time": 55.6395015,
                "velocity": 0.5039370078740157
              },
              {
                "duration": 0.1744185000000016,
                "durationTicks": 60,
                "midi": 72,
                "name": "C5",
                "ticks": 19200,
                "time": 55.81392,
                "velocity": 0.5039370078740157
              },
              {
                "duration": 0.17441849999999448,
                "durationTicks": 60,
                "midi": 70,
                "name": "A#4",
                "ticks": 19260,
                "time": 55.988338500000005,
                "velocity": 0.5039370078740157
              },
              {
                "duration": 0.1744185000000016,
                "durationTicks": 60,
                "midi": 69,
                "name": "A4",
                "ticks": 19320,
                "time": 56.162757,
                "velocity": 0.5039370078740157
              },
              {
                "duration": 0.1744185000000016,
                "durationTicks": 60,
                "midi": 67,
                "name": "G4",
                "ticks": 19380,
                "time": 56.3371755,
                "velocity": 0.5039370078740157
              },
              {
                "duration": 0.1744185000000016,
                "durationTicks": 60,
                "midi": 65,
                "name": "F4",
                "ticks": 19440,
                "time": 56.511594,
                "velocity": 0.5039370078740157
              },
              {
                "duration": 0.17441849999999448,
                "durationTicks": 60,
                "midi": 69,
                "name": "A4",
                "ticks": 19500,
                "time": 56.686012500000004,
                "velocity": 0.5039370078740157
              },
              {
                "duration": 0.1744185000000016,
                "durationTicks": 60,
                "midi": 67,
                "name": "G4",
                "ticks": 19560,
                "time": 56.860431,
                "velocity": 0.5039370078740157
              },
              {
                "duration": 0.1744185000000016,
                "durationTicks": 60,
                "midi": 70,
                "name": "A#4",
                "ticks": 19620,
                "time": 57.0348495,
                "velocity": 0.5039370078740157
              },
              {
                "duration": 0.1744185000000016,
                "durationTicks": 60,
                "midi": 69,
                "name": "A4",
                "ticks": 19680,
                "time": 57.209268,
                "velocity": 0.5039370078740157
              },
              {
                "duration": 0.1744185000000016,
                "durationTicks": 60,
                "midi": 71,
                "name": "B4",
                "ticks": 19740,
                "time": 57.3836865,
                "velocity": 0.5039370078740157
              },
              {
                "duration": 0.17441849999999448,
                "durationTicks": 60,
                "midi": 72,
                "name": "C5",
                "ticks": 19800,
                "time": 57.558105000000005,
                "velocity": 0.5039370078740157
              },
              {
                "duration": 0.1744185000000016,
                "durationTicks": 60,
                "midi": 64,
                "name": "E4",
                "ticks": 19860,
                "time": 57.7325235,
                "velocity": 0.5039370078740157
              },
              {
                "duration": 0.1744185000000016,
                "durationTicks": 60,
                "midi": 62,
                "name": "D4",
                "ticks": 19920,
                "time": 57.906942,
                "velocity": 0.5039370078740157
              },
              {
                "duration": 0.1744185000000016,
                "durationTicks": 60,
                "midi": 72,
                "name": "C5",
                "ticks": 19980,
                "time": 58.0813605,
                "velocity": 0.5039370078740157
              },
              {
                "duration": 0.17441849999999448,
                "durationTicks": 60,
                "midi": 65,
                "name": "F4",
                "ticks": 20040,
                "time": 58.255779000000004,
                "velocity": 0.5039370078740157
              },
              {
                "duration": 0.1744185000000016,
                "durationTicks": 60,
                "midi": 71,
                "name": "B4",
                "ticks": 20100,
                "time": 58.4301975,
                "velocity": 0.5039370078740157
              },
              {
                "duration": 2.790696000000004,
                "durationTicks": 960,
                "midi": 67,
                "name": "G4",
                "ticks": 20160,
                "time": 58.604616,
                "velocity": 0.5039370078740157
              },
              {
                "duration": 2.790696000000004,
                "durationTicks": 960,
                "midi": 72,
                "name": "C5",
                "ticks": 20160,
                "time": 58.604616,
                "velocity": 0.5039370078740157
              },
              {
                "duration": 2.790696000000004,
                "durationTicks": 960,
                "midi": 64,
                "name": "E4",
                "ticks": 20160,
                "time": 58.604616,
                "velocity": 0.5039370078740157
              }
            ],
            "endOfTrackTicks": 21120
          },
          {
            "channel": 1,
            "controlChanges": {},
            "pitchBends": [],
            "instrument": {
              "family": "piano",
              "number": 0,
              "name": "acoustic grand piano"
            },
            "name": "",
            "notes": [
              {
                "duration": 0.17441850000000003,
                "durationTicks": 60,
                "midi": 48,
                "name": "C3",
                "ticks": 540,
                "time": 1.5697665,
                "velocity": 0.5039370078740157
              },
              {
                "duration": 0.17441850000000003,
                "durationTicks": 60,
                "midi": 50,
                "name": "D3",
                "ticks": 600,
                "time": 1.744185,
                "velocity": 0.5039370078740157
              },
              {
                "duration": 0.1744184999999998,
                "durationTicks": 60,
                "midi": 52,
                "name": "E3",
                "ticks": 660,
                "time": 1.9186035000000001,
                "velocity": 0.5039370078740157
              },
              {
                "duration": 0.17441850000000025,
                "durationTicks": 60,
                "midi": 53,
                "name": "F3",
                "ticks": 720,
                "time": 2.093022,
                "velocity": 0.5039370078740157
              },
              {
                "duration": 0.1744184999999998,
                "durationTicks": 60,
                "midi": 50,
                "name": "D3",
                "ticks": 780,
                "time": 2.2674405,
                "velocity": 0.5039370078740157
              },
              {
                "duration": 0.17441850000000025,
                "durationTicks": 60,
                "midi": 52,
                "name": "E3",
                "ticks": 840,
                "time": 2.441859,
                "velocity": 0.5039370078740157
              },
              {
                "duration": 0.1744184999999998,
                "durationTicks": 60,
                "midi": 48,
                "name": "C3",
                "ticks": 900,
                "time": 2.6162775000000003,
                "velocity": 0.5039370078740157
              },
              {
                "duration": 0.34883700000000006,
                "durationTicks": 120,
                "midi": 55,
                "name": "G3",
                "ticks": 960,
                "time": 2.790696,
                "velocity": 0.5039370078740157
              },
              {
                "duration": 0.34883700000000006,
                "durationTicks": 120,
                "midi": 43,
                "name": "G2",
                "ticks": 1080,
                "time": 3.139533,
                "velocity": 0.5039370078740157
              },
              {
                "duration": 0.1744185000000007,
                "durationTicks": 60,
                "midi": 55,
                "name": "G3",
                "ticks": 1500,
                "time": 4.3604625,
                "velocity": 0.5039370078740157
              },
              {
                "duration": 0.1744184999999998,
                "durationTicks": 60,
                "midi": 57,
                "name": "A3",
                "ticks": 1560,
                "time": 4.534881,
                "velocity": 0.5039370078740157
              },
              {
                "duration": 0.1744184999999998,
                "durationTicks": 60,
                "midi": 59,
                "name": "B3",
                "ticks": 1620,
                "time": 4.7092995,
                "velocity": 0.5039370078740157
              },
              {
                "duration": 0.1744184999999998,
                "durationTicks": 60,
                "midi": 60,
                "name": "C4",
                "ticks": 1680,
                "time": 4.883718,
                "velocity": 0.5039370078740157
              },
              {
                "duration": 0.1744185000000007,
                "durationTicks": 60,
                "midi": 57,
                "name": "A3",
                "ticks": 1740,
                "time": 5.0581365,
                "velocity": 0.5039370078740157
              },
              {
                "duration": 0.1744184999999998,
                "durationTicks": 60,
                "midi": 59,
                "name": "B3",
                "ticks": 1800,
                "time": 5.2325550000000005,
                "velocity": 0.5039370078740157
              },
              {
                "duration": 0.1744184999999998,
                "durationTicks": 60,
                "midi": 55,
                "name": "G3",
                "ticks": 1860,
                "time": 5.4069735,
                "velocity": 0.5039370078740157
              },
              {
                "duration": 0.3488369999999996,
                "durationTicks": 120,
                "midi": 60,
                "name": "C4",
                "ticks": 1920,
                "time": 5.581392,
                "velocity": 0.5039370078740157
              },
              {
                "duration": 0.3488370000000005,
                "durationTicks": 120,
                "midi": 59,
                "name": "B3",
                "ticks": 2040,
                "time": 5.930229,
                "velocity": 0.5039370078740157
              },
              {
                "duration": 0.3488369999999996,
                "durationTicks": 120,
                "midi": 60,
                "name": "C4",
                "ticks": 2160,
                "time": 6.279066,
                "velocity": 0.5039370078740157
              },
              {
                "duration": 0.3488370000000005,
                "durationTicks": 120,
                "midi": 62,
                "name": "D4",
                "ticks": 2280,
                "time": 6.627903,
                "velocity": 0.5039370078740157
              },
              {
                "duration": 0.3488369999999996,
                "durationTicks": 120,
                "midi": 64,
                "name": "E4",
                "ticks": 2400,
                "time": 6.97674,
                "velocity": 0.5039370078740157
              },
              {
                "duration": 0.3488370000000005,
                "durationTicks": 120,
                "midi": 55,
                "name": "G3",
                "ticks": 2520,
                "time": 7.325577,
                "velocity": 0.5039370078740157
              },
              {
                "duration": 0.3488369999999996,
                "durationTicks": 120,
                "midi": 57,
                "name": "A3",
                "ticks": 2640,
                "time": 7.6744140000000005,
                "velocity": 0.5039370078740157
              },
              {
                "duration": 0.3488369999999996,
                "durationTicks": 120,
                "midi": 59,
                "name": "B3",
                "ticks": 2760,
                "time": 8.023251,
                "velocity": 0.5039370078740157
              },
              {
                "duration": 0.3488369999999996,
                "durationTicks": 120,
                "midi": 60,
                "name": "C4",
                "ticks": 2880,
                "time": 8.372088,
                "velocity": 0.5039370078740157
              },
              {
                "duration": 0.3488370000000014,
                "durationTicks": 120,
                "midi": 52,
                "name": "E3",
                "ticks": 3000,
                "time": 8.720925,
                "velocity": 0.5039370078740157
              },
              {
                "duration": 0.3488369999999996,
                "durationTicks": 120,
                "midi": 54,
                "name": "F#3",
                "ticks": 3120,
                "time": 9.069762,
                "velocity": 0.5039370078740157
              },
              {
                "duration": 0.3488369999999996,
                "durationTicks": 120,
                "midi": 55,
                "name": "G3",
                "ticks": 3240,
                "time": 9.418599,
                "velocity": 0.5039370078740157
              },
              {
                "duration": 0.3488369999999996,
                "durationTicks": 120,
                "midi": 57,
                "name": "A3",
                "ticks": 3360,
                "time": 9.767436,
                "velocity": 0.5039370078740157
              },
              {
                "duration": 0.3488370000000014,
                "durationTicks": 120,
                "midi": 59,
                "name": "B3",
                "ticks": 3480,
                "time": 10.116273,
                "velocity": 0.5039370078740157
              },
              {
                "duration": 0.8430227499999976,
                "durationTicks": 290,
                "midi": 60,
                "name": "C4",
                "ticks": 3600,
                "time": 10.465110000000001,
                "velocity": 0.5039370078740157
              },
              {
                "duration": 0.1744184999999998,
                "durationTicks": 60,
                "midi": 50,
                "name": "D3",
                "ticks": 3900,
                "time": 11.3372025,
                "velocity": 0.5039370078740157
              },
              {
                "duration": 0.1744184999999998,
                "durationTicks": 60,
                "midi": 52,
                "name": "E3",
                "ticks": 3960,
                "time": 11.511621,
                "velocity": 0.5039370078740157
              },
              {
                "duration": 0.1744184999999998,
                "durationTicks": 60,
                "midi": 54,
                "name": "F#3",
                "ticks": 4020,
                "time": 11.6860395,
                "velocity": 0.5039370078740157
              },
              {
                "duration": 0.1744185000000016,
                "durationTicks": 60,
                "midi": 55,
                "name": "G3",
                "ticks": 4080,
                "time": 11.860458,
                "velocity": 0.5039370078740157
              },
              {
                "duration": 0.1744184999999998,
                "durationTicks": 60,
                "midi": 52,
                "name": "E3",
                "ticks": 4140,
                "time": 12.034876500000001,
                "velocity": 0.5039370078740157
              },
              {
                "duration": 0.1744184999999998,
                "durationTicks": 60,
                "midi": 54,
                "name": "F#3",
                "ticks": 4200,
                "time": 12.209295000000001,
                "velocity": 0.5039370078740157
              },
              {
                "duration": 0.1744184999999998,
                "durationTicks": 60,
                "midi": 50,
                "name": "D3",
                "ticks": 4260,
                "time": 12.3837135,
                "velocity": 0.5039370078740157
              },
              {
                "duration": 0.3488369999999996,
                "durationTicks": 120,
                "midi": 55,
                "name": "G3",
                "ticks": 4320,
                "time": 12.558132,
                "velocity": 0.5039370078740157
              },
              {
                "duration": 0.3488369999999996,
                "durationTicks": 120,
                "midi": 47,
                "name": "B2",
                "ticks": 4440,
                "time": 12.906969,
                "velocity": 0.5039370078740157
              },
              {
                "duration": 0.3488370000000014,
                "durationTicks": 120,
                "midi": 48,
                "name": "C3",
                "ticks": 4560,
                "time": 13.255806,
                "velocity": 0.5039370078740157
              },
              {
                "duration": 0.3488369999999996,
                "durationTicks": 120,
                "midi": 50,
                "name": "D3",
                "ticks": 4680,
                "time": 13.604643000000001,
                "velocity": 0.5039370078740157
              },
              {
                "duration": 0.3488369999999996,
                "durationTicks": 120,
                "midi": 52,
                "name": "E3",
                "ticks": 4800,
                "time": 13.95348,
                "velocity": 0.5039370078740157
              },
              {
                "duration": 0.3488369999999996,
                "durationTicks": 120,
                "midi": 54,
                "name": "F#3",
                "ticks": 4920,
                "time": 14.302317,
                "velocity": 0.5039370078740157
              },
              {
                "duration": 0.3488369999999996,
                "durationTicks": 120,
                "midi": 55,
                "name": "G3",
                "ticks": 5040,
                "time": 14.651154,
                "velocity": 0.5039370078740157
              },
              {
                "duration": 0.3488370000000014,
                "durationTicks": 120,
                "midi": 52,
                "name": "E3",
                "ticks": 5160,
                "time": 14.999991,
                "velocity": 0.5039370078740157
              },
              {
                "duration": 0.5232554999999994,
                "durationTicks": 180,
                "midi": 47,
                "name": "B2",
                "ticks": 5280,
                "time": 15.348828000000001,
                "velocity": 0.5039370078740157
              },
              {
                "duration": 0.1744184999999998,
                "durationTicks": 60,
                "midi": 48,
                "name": "C3",
                "ticks": 5460,
                "time": 15.8720835,
                "velocity": 0.5039370078740157
              },
              {
                "duration": 0.3488369999999996,
                "durationTicks": 120,
                "midi": 50,
                "name": "D3",
                "ticks": 5520,
                "time": 16.046502,
                "velocity": 0.5039370078740157
              },
              {
                "duration": 0.3488369999999996,
                "durationTicks": 120,
                "midi": 38,
                "name": "D2",
                "ticks": 5640,
                "time": 16.395339,
                "velocity": 0.5039370078740157
              },
              {
                "duration": 0.17441849999999803,
                "durationTicks": 60,
                "midi": 43,
                "name": "G2",
                "ticks": 5820,
                "time": 16.9185945,
                "velocity": 0.5039370078740157
              },
              {
                "duration": 0.1744185000000016,
                "durationTicks": 60,
                "midi": 45,
                "name": "A2",
                "ticks": 5880,
                "time": 17.093013,
                "velocity": 0.5039370078740157
              },
              {
                "duration": 0.17441849999999803,
                "durationTicks": 60,
                "midi": 47,
                "name": "B2",
                "ticks": 5940,
                "time": 17.2674315,
                "velocity": 0.5039370078740157
              },
              {
                "duration": 0.1744185000000016,
                "durationTicks": 60,
                "midi": 48,
                "name": "C3",
                "ticks": 6000,
                "time": 17.44185,
                "velocity": 0.5039370078740157
              },
              {
                "duration": 0.1744185000000016,
                "durationTicks": 60,
                "midi": 45,
                "name": "A2",
                "ticks": 6060,
                "time": 17.6162685,
                "velocity": 0.5039370078740157
              },
              {
                "duration": 0.17441849999999803,
                "durationTicks": 60,
                "midi": 47,
                "name": "B2",
                "ticks": 6120,
                "time": 17.790687000000002,
                "velocity": 0.5039370078740157
              },
              {
                "duration": 0.1744185000000016,
                "durationTicks": 60,
                "midi": 43,
                "name": "G2",
                "ticks": 6180,
                "time": 17.9651055,
                "velocity": 0.5039370078740157
              },
              {
                "duration": 0.3488369999999996,
                "durationTicks": 120,
                "midi": 50,
                "name": "D3",
                "ticks": 6240,
                "time": 18.139524,
                "velocity": 0.5039370078740157
              },
              {
                "duration": 0.3488369999999996,
                "durationTicks": 120,
                "midi": 55,
                "name": "G3",
                "ticks": 6360,
                "time": 18.488361,
                "velocity": 0.5039370078740157
              },
              {
                "duration": 0.3488369999999996,
                "durationTicks": 120,
                "midi": 54,
                "name": "F#3",
                "ticks": 6480,
                "time": 18.837198,
                "velocity": 0.5039370078740157
              },
              {
                "duration": 0.3488369999999996,
                "durationTicks": 120,
                "midi": 55,
                "name": "G3",
                "ticks": 6600,
                "time": 19.186035,
                "velocity": 0.5039370078740157
              },
              {
                "duration": 0.1744185000000016,
                "durationTicks": 60,
                "midi": 57,
                "name": "A3",
                "ticks": 6720,
                "time": 19.534872,
                "velocity": 0.5039370078740157
              },
              {
                "duration": 0.17441849999999803,
                "durationTicks": 60,
                "midi": 50,
                "name": "D3",
                "ticks": 6780,
                "time": 19.7092905,
                "velocity": 0.5039370078740157
              },
              {
                "duration": 0.1744185000000016,
                "durationTicks": 60,
                "midi": 52,
                "name": "E3",
                "ticks": 6840,
                "time": 19.883709,
                "velocity": 0.5039370078740157
              },
              {
                "duration": 0.17441849999999803,
                "durationTicks": 60,
                "midi": 54,
                "name": "F#3",
                "ticks": 6900,
                "time": 20.0581275,
                "velocity": 0.5039370078740157
              },
              {
                "duration": 0.1744185000000016,
                "durationTicks": 60,
                "midi": 55,
                "name": "G3",
                "ticks": 6960,
                "time": 20.232546,
                "velocity": 0.5039370078740157
              },
              {
                "duration": 0.17441849999999803,
                "durationTicks": 60,
                "midi": 52,
                "name": "E3",
                "ticks": 7020,
                "time": 20.4069645,
                "velocity": 0.5039370078740157
              },
              {
                "duration": 0.1744185000000016,
                "durationTicks": 60,
                "midi": 54,
                "name": "F#3",
                "ticks": 7080,
                "time": 20.581383,
                "velocity": 0.5039370078740157
              },
              {
                "duration": 0.1744185000000016,
                "durationTicks": 60,
                "midi": 50,
                "name": "D3",
                "ticks": 7140,
                "time": 20.7558015,
                "velocity": 0.5039370078740157
              },
              {
                "duration": 0.3488369999999996,
                "durationTicks": 120,
                "midi": 57,
                "name": "A3",
                "ticks": 7200,
                "time": 20.930220000000002,
                "velocity": 0.5039370078740157
              },
              {
                "duration": 0.3488369999999996,
                "durationTicks": 120,
                "midi": 62,
                "name": "D4",
                "ticks": 7320,
                "time": 21.279057,
                "velocity": 0.5039370078740157
              },
              {
                "duration": 0.3488369999999996,
                "durationTicks": 120,
                "midi": 60,
                "name": "C4",
                "ticks": 7440,
                "time": 21.627894,
                "velocity": 0.5039370078740157
              },
              {
                "duration": 0.3488369999999996,
                "durationTicks": 120,
                "midi": 62,
                "name": "D4",
                "ticks": 7560,
                "time": 21.976731,
                "velocity": 0.5039370078740157
              },
              {
                "duration": 0.1744185000000016,
                "durationTicks": 60,
                "midi": 55,
                "name": "G3",
                "ticks": 7680,
                "time": 22.325568,
                "velocity": 0.5039370078740157
              },
              {
                "duration": 0.17441849999999803,
                "durationTicks": 60,
                "midi": 67,
                "name": "G4",
                "ticks": 7740,
                "time": 22.499986500000002,
                "velocity": 0.5039370078740157
              },
              {
                "duration": 0.1744185000000016,
                "durationTicks": 60,
                "midi": 65,
                "name": "F4",
                "ticks": 7800,
                "time": 22.674405,
                "velocity": 0.5039370078740157
              },
              {
                "duration": 0.17441849999999803,
                "durationTicks": 60,
                "midi": 64,
                "name": "E4",
                "ticks": 7860,
                "time": 22.8488235,
                "velocity": 0.5039370078740157
              },
              {
                "duration": 0.1744185000000016,
                "durationTicks": 60,
                "midi": 62,
                "name": "D4",
                "ticks": 7920,
                "time": 23.023242,
                "velocity": 0.5039370078740157
              },
              {
                "duration": 0.17441849999999803,
                "durationTicks": 60,
                "midi": 65,
                "name": "F4",
                "ticks": 7980,
                "time": 23.1976605,
                "velocity": 0.5039370078740157
              },
              {
                "duration": 0.1744185000000016,
                "durationTicks": 60,
                "midi": 64,
                "name": "E4",
                "ticks": 8040,
                "time": 23.372079,
                "velocity": 0.5039370078740157
              },
              {
                "duration": 0.17441849999999803,
                "durationTicks": 60,
                "midi": 67,
                "name": "G4",
                "ticks": 8100,
                "time": 23.5464975,
                "velocity": 0.5039370078740157
              },
              {
                "duration": 0.3488370000000032,
                "durationTicks": 120,
                "midi": 65,
                "name": "F4",
                "ticks": 8160,
                "time": 23.720916,
                "velocity": 0.5039370078740157
              },
              {
                "duration": 0.3488369999999996,
                "durationTicks": 120,
                "midi": 64,
                "name": "E4",
                "ticks": 8280,
                "time": 24.069753000000002,
                "velocity": 0.5039370078740157
              },
              {
                "duration": 0.3488369999999996,
                "durationTicks": 120,
                "midi": 65,
                "name": "F4",
                "ticks": 8400,
                "time": 24.418590000000002,
                "velocity": 0.5039370078740157
              },
              {
                "duration": 0.3488369999999996,
                "durationTicks": 120,
                "midi": 62,
                "name": "D4",
                "ticks": 8520,
                "time": 24.767427,
                "velocity": 0.5039370078740157
              },
              {
                "duration": 0.17441849999999803,
                "durationTicks": 60,
                "midi": 64,
                "name": "E4",
                "ticks": 8640,
                "time": 25.116264,
                "velocity": 0.5039370078740157
              },
              {
                "duration": 0.1744185000000016,
                "durationTicks": 60,
                "midi": 69,
                "name": "A4",
                "ticks": 8700,
                "time": 25.2906825,
                "velocity": 0.5039370078740157
              },
              {
                "duration": 0.1744185000000016,
                "durationTicks": 60,
                "midi": 67,
                "name": "G4",
                "ticks": 8760,
                "time": 25.465101,
                "velocity": 0.5039370078740157
              },
              {
                "duration": 0.17441849999999803,
                "durationTicks": 60,
                "midi": 65,
                "name": "F4",
                "ticks": 8820,
                "time": 25.639519500000002,
                "velocity": 0.5039370078740157
              },
              {
                "duration": 0.1744185000000016,
                "durationTicks": 60,
                "midi": 64,
                "name": "E4",
                "ticks": 8880,
                "time": 25.813938,
                "velocity": 0.5039370078740157
              },
              {
                "duration": 0.17441849999999803,
                "durationTicks": 60,
                "midi": 67,
                "name": "G4",
                "ticks": 8940,
                "time": 25.988356500000002,
                "velocity": 0.5039370078740157
              },
              {
                "duration": 0.1744185000000016,
                "durationTicks": 60,
                "midi": 65,
                "name": "F4",
                "ticks": 9000,
                "time": 26.162775,
                "velocity": 0.5039370078740157
              },
              {
                "duration": 0.17441849999999803,
                "durationTicks": 60,
                "midi": 69,
                "name": "A4",
                "ticks": 9060,
                "time": 26.3371935,
                "velocity": 0.5039370078740157
              },
              {
                "duration": 0.3488369999999996,
                "durationTicks": 120,
                "midi": 67,
                "name": "G4",
                "ticks": 9120,
                "time": 26.511612,
                "velocity": 0.5039370078740157
              },
              {
                "duration": 0.3488370000000032,
                "durationTicks": 120,
                "midi": 65,
                "name": "F4",
                "ticks": 9240,
                "time": 26.860449,
                "velocity": 0.5039370078740157
              },
              {
                "duration": 0.3488369999999996,
                "durationTicks": 120,
                "midi": 67,
                "name": "G4",
                "ticks": 9360,
                "time": 27.209286000000002,
                "velocity": 0.5039370078740157
              },
              {
                "duration": 0.3488369999999996,
                "durationTicks": 120,
                "midi": 64,
                "name": "E4",
                "ticks": 9480,
                "time": 27.558123000000002,
                "velocity": 0.5039370078740157
              },
              {
                "duration": 0.17441849999999803,
                "durationTicks": 60,
                "midi": 65,
                "name": "F4",
                "ticks": 9600,
                "time": 27.90696,
                "velocity": 0.5039370078740157
              },
              {
                "duration": 0.1744185000000016,
                "durationTicks": 60,
                "midi": 70,
                "name": "A#4",
                "ticks": 9660,
                "time": 28.0813785,
                "velocity": 0.5039370078740157
              },
              {
                "duration": 0.17441849999999803,
                "durationTicks": 60,
                "midi": 69,
                "name": "A4",
                "ticks": 9720,
                "time": 28.255797,
                "velocity": 0.5039370078740157
              },
              {
                "duration": 0.1744185000000016,
                "durationTicks": 60,
                "midi": 67,
                "name": "G4",
                "ticks": 9780,
                "time": 28.4302155,
                "velocity": 0.5039370078740157
              },
              {
                "duration": 0.1744185000000016,
                "durationTicks": 60,
                "midi": 65,
                "name": "F4",
                "ticks": 9840,
                "time": 28.604634,
                "velocity": 0.5039370078740157
              },
              {
                "duration": 0.17441849999999803,
                "durationTicks": 60,
                "midi": 69,
                "name": "A4",
                "ticks": 9900,
                "time": 28.779052500000002,
                "velocity": 0.5039370078740157
              },
              {
                "duration": 0.1744185000000016,
                "durationTicks": 60,
                "midi": 67,
                "name": "G4",
                "ticks": 9960,
                "time": 28.953471,
                "velocity": 0.5039370078740157
              },
              {
                "duration": 0.17441849999999803,
                "durationTicks": 60,
                "midi": 70,
                "name": "A#4",
                "ticks": 10020,
                "time": 29.127889500000002,
                "velocity": 0.5039370078740157
              },
              {
                "duration": 0.1744185000000016,
                "durationTicks": 60,
                "midi": 69,
                "name": "A4",
                "ticks": 10080,
                "time": 29.302308,
                "velocity": 0.5039370078740157
              },
              {
                "duration": 0.17441849999999803,
                "durationTicks": 60,
                "midi": 67,
                "name": "G4",
                "ticks": 10140,
                "time": 29.4767265,
                "velocity": 0.5039370078740157
              },
              {
                "duration": 0.1744185000000016,
                "durationTicks": 60,
                "midi": 65,
                "name": "F4",
                "ticks": 10200,
                "time": 29.651145,
                "velocity": 0.5039370078740157
              },
              {
                "duration": 0.17441849999999803,
                "durationTicks": 60,
                "midi": 64,
                "name": "E4",
                "ticks": 10260,
                "time": 29.8255635,
                "velocity": 0.5039370078740157
              },
              {
                "duration": 0.1744185000000016,
                "durationTicks": 60,
                "midi": 62,
                "name": "D4",
                "ticks": 10320,
                "time": 29.999982,
                "velocity": 0.5039370078740157
              },
              {
                "duration": 0.1744185000000016,
                "durationTicks": 60,
                "midi": 65,
                "name": "F4",
                "ticks": 10380,
                "time": 30.1744005,
                "velocity": 0.5039370078740157
              },
              {
                "duration": 0.17441849999999803,
                "durationTicks": 60,
                "midi": 64,
                "name": "E4",
                "ticks": 10440,
                "time": 30.348819000000002,
                "velocity": 0.5039370078740157
              },
              {
                "duration": 0.1744185000000016,
                "durationTicks": 60,
                "midi": 67,
                "name": "G4",
                "ticks": 10500,
                "time": 30.5232375,
                "velocity": 0.5039370078740157
              },
              {
                "duration": 0.17441849999999803,
                "durationTicks": 60,
                "midi": 65,
                "name": "F4",
                "ticks": 10560,
                "time": 30.697656000000002,
                "velocity": 0.5039370078740157
              },
              {
                "duration": 0.1744185000000016,
                "durationTicks": 60,
                "midi": 64,
                "name": "E4",
                "ticks": 10620,
                "time": 30.8720745,
                "velocity": 0.5039370078740157
              },
              {
                "duration": 0.17441849999999803,
                "durationTicks": 60,
                "midi": 62,
                "name": "D4",
                "ticks": 10680,
                "time": 31.046493,
                "velocity": 0.5039370078740157
              },
              {
                "duration": 0.1744185000000016,
                "durationTicks": 60,
                "midi": 60,
                "name": "C4",
                "ticks": 10740,
                "time": 31.2209115,
                "velocity": 0.5039370078740157
              },
              {
                "duration": 0.17441849999999803,
                "durationTicks": 60,
                "midi": 59,
                "name": "B3",
                "ticks": 10800,
                "time": 31.39533,
                "velocity": 0.5039370078740157
              },
              {
                "duration": 0.1744185000000016,
                "durationTicks": 60,
                "midi": 62,
                "name": "D4",
                "ticks": 10860,
                "time": 31.5697485,
                "velocity": 0.5039370078740157
              },
              {
                "duration": 0.1744185000000016,
                "durationTicks": 60,
                "midi": 60,
                "name": "C4",
                "ticks": 10920,
                "time": 31.744167,
                "velocity": 0.5039370078740157
              },
              {
                "duration": 0.17441849999999803,
                "durationTicks": 60,
                "midi": 64,
                "name": "E4",
                "ticks": 10980,
                "time": 31.918585500000002,
                "velocity": 0.5039370078740157
              },
              {
                "duration": 0.1744185000000016,
                "durationTicks": 60,
                "midi": 62,
                "name": "D4",
                "ticks": 11040,
                "time": 32.093004,
                "velocity": 0.5039370078740157
              },
              {
                "duration": 0.1744185000000016,
                "durationTicks": 60,
                "midi": 60,
                "name": "C4",
                "ticks": 11100,
                "time": 32.2674225,
                "velocity": 0.5039370078740157
              },
              {
                "duration": 0.17441849999999448,
                "durationTicks": 60,
                "midi": 59,
                "name": "B3",
                "ticks": 11160,
                "time": 32.441841000000004,
                "velocity": 0.5039370078740157
              },
              {
                "duration": 0.1744185000000016,
                "durationTicks": 60,
                "midi": 57,
                "name": "A3",
                "ticks": 11220,
                "time": 32.6162595,
                "velocity": 0.5039370078740157
              },
              {
                "duration": 0.1744185000000016,
                "durationTicks": 60,
                "midi": 56,
                "name": "G#3",
                "ticks": 11280,
                "time": 32.790678,
                "velocity": 0.5039370078740157
              },
              {
                "duration": 0.1744185000000016,
                "durationTicks": 60,
                "midi": 59,
                "name": "B3",
                "ticks": 11340,
                "time": 32.9650965,
                "velocity": 0.5039370078740157
              },
              {
                "duration": 0.17441849999999448,
                "durationTicks": 60,
                "midi": 57,
                "name": "A3",
                "ticks": 11400,
                "time": 33.139515,
                "velocity": 0.5039370078740157
              },
              {
                "duration": 0.1744185000000016,
                "durationTicks": 60,
                "midi": 60,
                "name": "C4",
                "ticks": 11460,
                "time": 33.3139335,
                "velocity": 0.5039370078740157
              },
              {
                "duration": 0.3488370000000032,
                "durationTicks": 120,
                "midi": 59,
                "name": "B3",
                "ticks": 11520,
                "time": 33.488352,
                "velocity": 0.5039370078740157
              },
              {
                "duration": 0.34883699999999607,
                "durationTicks": 120,
                "midi": 52,
                "name": "E3",
                "ticks": 11640,
                "time": 33.837189,
                "velocity": 0.5039370078740157
              },
              {
                "duration": 0.0872092500000008,
                "durationTicks": 30,
                "midi": 62,
                "name": "D4",
                "ticks": 11760,
                "time": 34.186026,
                "velocity": 0.5039370078740157
              },
              {
                "duration": 0.0872092500000008,
                "durationTicks": 30,
                "midi": 60,
                "name": "C4",
                "ticks": 11790,
                "time": 34.27323525,
                "velocity": 0.5039370078740157
              },
              {
                "duration": 0.3488370000000032,
                "durationTicks": 120,
                "midi": 62,
                "name": "D4",
                "ticks": 11820,
                "time": 34.3604445,
                "velocity": 0.5039370078740157
              },
              {
                "duration": 0.1744185000000016,
                "durationTicks": 60,
                "midi": 60,
                "name": "C4",
                "ticks": 12000,
                "time": 34.8837,
                "velocity": 0.5039370078740157
              },
              {
                "duration": 0.1744185000000016,
                "durationTicks": 60,
                "midi": 59,
                "name": "B3",
                "ticks": 12060,
                "time": 35.0581185,
                "velocity": 0.5039370078740157
              },
              {
                "duration": 0.1744185000000016,
                "durationTicks": 60,
                "midi": 57,
                "name": "A3",
                "ticks": 12120,
                "time": 35.232537,
                "velocity": 0.5039370078740157
              },
              {
                "duration": 0.1744185000000016,
                "durationTicks": 60,
                "midi": 55,
                "name": "G3",
                "ticks": 12180,
                "time": 35.4069555,
                "velocity": 0.5039370078740157
              },
              {
                "duration": 0.17441849999999448,
                "durationTicks": 60,
                "midi": 54,
                "name": "F#3",
                "ticks": 12240,
                "time": 35.581374000000004,
                "velocity": 0.5039370078740157
              },
              {
                "duration": 0.1744185000000016,
                "durationTicks": 60,
                "midi": 57,
                "name": "A3",
                "ticks": 12300,
                "time": 35.7557925,
                "velocity": 0.5039370078740157
              },
              {
                "duration": 0.1744185000000016,
                "durationTicks": 60,
                "midi": 56,
                "name": "G#3",
                "ticks": 12360,
                "time": 35.930211,
                "velocity": 0.5039370078740157
              },
              {
                "duration": 0.1744185000000016,
                "durationTicks": 60,
                "midi": 59,
                "name": "B3",
                "ticks": 12420,
                "time": 36.1046295,
                "velocity": 0.5039370078740157
              },
              {
                "duration": 0.17441849999999448,
                "durationTicks": 60,
                "midi": 57,
                "name": "A3",
                "ticks": 12480,
                "time": 36.279048,
                "velocity": 0.5039370078740157
              },
              {
                "duration": 0.1744185000000016,
                "durationTicks": 60,
                "midi": 60,
                "name": "C4",
                "ticks": 12540,
                "time": 36.4534665,
                "velocity": 0.5039370078740157
              },
              {
                "duration": 0.1744185000000016,
                "durationTicks": 60,
                "midi": 59,
                "name": "B3",
                "ticks": 12600,
                "time": 36.627885,
                "velocity": 0.5039370078740157
              },
              {
                "duration": 0.1744185000000016,
                "durationTicks": 60,
                "midi": 62,
                "name": "D4",
                "ticks": 12660,
                "time": 36.8023035,
                "velocity": 0.5039370078740157
              },
              {
                "duration": 0.1744185000000016,
                "durationTicks": 60,
                "midi": 60,
                "name": "C4",
                "ticks": 12720,
                "time": 36.976722,
                "velocity": 0.5039370078740157
              },
              {
                "duration": 0.17441849999999448,
                "durationTicks": 60,
                "midi": 64,
                "name": "E4",
                "ticks": 12780,
                "time": 37.151140500000004,
                "velocity": 0.5039370078740157
              },
              {
                "duration": 0.1744185000000016,
                "durationTicks": 60,
                "midi": 62,
                "name": "D4",
                "ticks": 12840,
                "time": 37.325559,
                "velocity": 0.5039370078740157
              },
              {
                "duration": 0.1744185000000016,
                "durationTicks": 60,
                "midi": 65,
                "name": "F4",
                "ticks": 12900,
                "time": 37.4999775,
                "velocity": 0.5039370078740157
              },
              {
                "duration": 0.34883699999999607,
                "durationTicks": 120,
                "midi": 64,
                "name": "E4",
                "ticks": 12960,
                "time": 37.674396,
                "velocity": 0.5039370078740157
              },
              {
                "duration": 0.3488370000000032,
                "durationTicks": 120,
                "midi": 57,
                "name": "A3",
                "ticks": 13080,
                "time": 38.023233,
                "velocity": 0.5039370078740157
              },
              {
                "duration": 0.3488370000000032,
                "durationTicks": 120,
                "midi": 64,
                "name": "E4",
                "ticks": 13200,
                "time": 38.37207,
                "velocity": 0.5039370078740157
              },
              {
                "duration": 0.34883699999999607,
                "durationTicks": 120,
                "midi": 52,
                "name": "E3",
                "ticks": 13320,
                "time": 38.720907000000004,
                "velocity": 0.5039370078740157
              },
              {
                "duration": 0.3488370000000032,
                "durationTicks": 120,
                "midi": 57,
                "name": "A3",
                "ticks": 13440,
                "time": 39.069744,
                "velocity": 0.5039370078740157
              },
              {
                "duration": 0.34883699999999607,
                "durationTicks": 120,
                "midi": 45,
                "name": "A2",
                "ticks": 13560,
                "time": 39.418581,
                "velocity": 0.5039370078740157
              },
              {
                "duration": 0.1744185000000016,
                "durationTicks": 60,
                "midi": 64,
                "name": "E4",
                "ticks": 13980,
                "time": 40.6395105,
                "velocity": 0.5039370078740157
              },
              {
                "duration": 0.1744185000000016,
                "durationTicks": 60,
                "midi": 62,
                "name": "D4",
                "ticks": 14040,
                "time": 40.813929,
                "velocity": 0.5039370078740157
              },
              {
                "duration": 0.17441849999999448,
                "durationTicks": 60,
                "midi": 60,
                "name": "C4",
                "ticks": 14100,
                "time": 40.9883475,
                "velocity": 0.5039370078740157
              },
              {
                "duration": 0.1744185000000016,
                "durationTicks": 60,
                "midi": 59,
                "name": "B3",
                "ticks": 14160,
                "time": 41.162766,
                "velocity": 0.5039370078740157
              },
              {
                "duration": 0.1744185000000016,
                "durationTicks": 60,
                "midi": 62,
                "name": "D4",
                "ticks": 14220,
                "time": 41.3371845,
                "velocity": 0.5039370078740157
              },
              {
                "duration": 0.1744185000000016,
                "durationTicks": 60,
                "midi": 61,
                "name": "C#4",
                "ticks": 14280,
                "time": 41.511603,
                "velocity": 0.5039370078740157
              },
              {
                "duration": 0.1744185000000016,
                "durationTicks": 60,
                "midi": 64,
                "name": "E4",
                "ticks": 14340,
                "time": 41.6860215,
                "velocity": 0.5039370078740157
              },
              {
                "duration": 1.540696749999995,
                "durationTicks": 530,
                "midi": 62,
                "name": "D4",
                "ticks": 14400,
                "time": 41.860440000000004,
                "velocity": 0.5039370078740157
              },
              {
                "duration": 0.17441849999999448,
                "durationTicks": 60,
                "midi": 57,
                "name": "A3",
                "ticks": 14940,
                "time": 43.430206500000004,
                "velocity": 0.5039370078740157
              },
              {
                "duration": 0.1744185000000016,
                "durationTicks": 60,
                "midi": 59,
                "name": "B3",
                "ticks": 15000,
                "time": 43.604625,
                "velocity": 0.5039370078740157
              },
              {
                "duration": 0.1744185000000016,
                "durationTicks": 60,
                "midi": 60,
                "name": "C4",
                "ticks": 15060,
                "time": 43.7790435,
                "velocity": 0.5039370078740157
              },
              {
                "duration": 0.1744185000000016,
                "durationTicks": 60,
                "midi": 62,
                "name": "D4",
                "ticks": 15120,
                "time": 43.953462,
                "velocity": 0.5039370078740157
              },
              {
                "duration": 0.17441849999999448,
                "durationTicks": 60,
                "midi": 59,
                "name": "B3",
                "ticks": 15180,
                "time": 44.1278805,
                "velocity": 0.5039370078740157
              },
              {
                "duration": 0.1744185000000016,
                "durationTicks": 60,
                "midi": 60,
                "name": "C4",
                "ticks": 15240,
                "time": 44.302299,
                "velocity": 0.5039370078740157
              },
              {
                "duration": 0.1744185000000016,
                "durationTicks": 60,
                "midi": 57,
                "name": "A3",
                "ticks": 15300,
                "time": 44.4767175,
                "velocity": 0.5039370078740157
              },
              {
                "duration": 1.540696749999995,
                "durationTicks": 530,
                "midi": 59,
                "name": "B3",
                "ticks": 15360,
                "time": 44.651136,
                "velocity": 0.5039370078740157
              },
              {
                "duration": 0.1744185000000016,
                "durationTicks": 60,
                "midi": 62,
                "name": "D4",
                "ticks": 15900,
                "time": 46.2209025,
                "velocity": 0.5039370078740157
              },
              {
                "duration": 0.1744185000000016,
                "durationTicks": 60,
                "midi": 60,
                "name": "C4",
                "ticks": 15960,
                "time": 46.395321,
                "velocity": 0.5039370078740157
              },
              {
                "duration": 0.17441849999999448,
                "durationTicks": 60,
                "midi": 59,
                "name": "B3",
                "ticks": 16020,
                "time": 46.569739500000004,
                "velocity": 0.5039370078740157
              },
              {
                "duration": 0.1744185000000016,
                "durationTicks": 60,
                "midi": 57,
                "name": "A3",
                "ticks": 16080,
                "time": 46.744158,
                "velocity": 0.5039370078740157
              },
              {
                "duration": 0.1744185000000016,
                "durationTicks": 60,
                "midi": 60,
                "name": "C4",
                "ticks": 16140,
                "time": 46.9185765,
                "velocity": 0.5039370078740157
              },
              {
                "duration": 0.1744185000000016,
                "durationTicks": 60,
                "midi": 59,
                "name": "B3",
                "ticks": 16200,
                "time": 47.092995,
                "velocity": 0.5039370078740157
              },
              {
                "duration": 0.17441849999999448,
                "durationTicks": 60,
                "midi": 62,
                "name": "D4",
                "ticks": 16260,
                "time": 47.2674135,
                "velocity": 0.5039370078740157
              },
              {
                "duration": 1.5406967500000022,
                "durationTicks": 530,
                "midi": 60,
                "name": "C4",
                "ticks": 16320,
                "time": 47.441832,
                "velocity": 0.5039370078740157
              },
              {
                "duration": 0.1744185000000016,
                "durationTicks": 60,
                "midi": 55,
                "name": "G3",
                "ticks": 16860,
                "time": 49.0115985,
                "velocity": 0.5039370078740157
              },
              {
                "duration": 0.1744185000000016,
                "durationTicks": 60,
                "midi": 57,
                "name": "A3",
                "ticks": 16920,
                "time": 49.186017,
                "velocity": 0.5039370078740157
              },
              {
                "duration": 0.1744185000000016,
                "durationTicks": 60,
                "midi": 58,
                "name": "A#3",
                "ticks": 16980,
                "time": 49.3604355,
                "velocity": 0.5039370078740157
              },
              {
                "duration": 0.1744185000000016,
                "durationTicks": 60,
                "midi": 60,
                "name": "C4",
                "ticks": 17040,
                "time": 49.534854,
                "velocity": 0.5039370078740157
              },
              {
                "duration": 0.17441849999999448,
                "durationTicks": 60,
                "midi": 57,
                "name": "A3",
                "ticks": 17100,
                "time": 49.709272500000004,
                "velocity": 0.5039370078740157
              },
              {
                "duration": 0.1744185000000016,
                "durationTicks": 60,
                "midi": 58,
                "name": "A#3",
                "ticks": 17160,
                "time": 49.883691,
                "velocity": 0.5039370078740157
              },
              {
                "duration": 0.1744185000000016,
                "durationTicks": 60,
                "midi": 55,
                "name": "G3",
                "ticks": 17220,
                "time": 50.0581095,
                "velocity": 0.5039370078740157
              },
              {
                "duration": 0.34883699999999607,
                "durationTicks": 120,
                "midi": 57,
                "name": "A3",
                "ticks": 17280,
                "time": 50.232528,
                "velocity": 0.5039370078740157
              },
              {
                "duration": 0.3488370000000032,
                "durationTicks": 120,
                "midi": 58,
                "name": "A#3",
                "ticks": 17400,
                "time": 50.581365,
                "velocity": 0.5039370078740157
              },
              {
                "duration": 0.3488370000000032,
                "durationTicks": 120,
                "midi": 57,
                "name": "A3",
                "ticks": 17520,
                "time": 50.930202,
                "velocity": 0.5039370078740157
              },
              {
                "duration": 0.34883699999999607,
                "durationTicks": 120,
                "midi": 55,
                "name": "G3",
                "ticks": 17640,
                "time": 51.279039000000004,
                "velocity": 0.5039370078740157
              },
              {
                "duration": 0.3488370000000032,
                "durationTicks": 120,
                "midi": 53,
                "name": "F3",
                "ticks": 17760,
                "time": 51.627876,
                "velocity": 0.5039370078740157
              },
              {
                "duration": 0.34883699999999607,
                "durationTicks": 120,
                "midi": 62,
                "name": "D4",
                "ticks": 17880,
                "time": 51.976713000000004,
                "velocity": 0.5039370078740157
              },
              {
                "duration": 0.3488370000000032,
                "durationTicks": 120,
                "midi": 60,
                "name": "C4",
                "ticks": 18000,
                "time": 52.32555,
                "velocity": 0.5039370078740157
              },
              {
                "duration": 0.34883699999999607,
                "durationTicks": 120,
                "midi": 58,
                "name": "A#3",
                "ticks": 18120,
                "time": 52.674387,
                "velocity": 0.5039370078740157
              },
              {
                "duration": 0.3488370000000032,
                "durationTicks": 120,
                "midi": 57,
                "name": "A3",
                "ticks": 18240,
                "time": 53.023224,
                "velocity": 0.5039370078740157
              },
              {
                "duration": 0.34883699999999607,
                "durationTicks": 120,
                "midi": 65,
                "name": "F4",
                "ticks": 18360,
                "time": 53.372061,
                "velocity": 0.5039370078740157
              },
              {
                "duration": 0.3488370000000032,
                "durationTicks": 120,
                "midi": 64,
                "name": "E4",
                "ticks": 18480,
                "time": 53.720898,
                "velocity": 0.5039370078740157
              },
              {
                "duration": 0.3488370000000032,
                "durationTicks": 120,
                "midi": 62,
                "name": "D4",
                "ticks": 18600,
                "time": 54.069735,
                "velocity": 0.5039370078740157
              },
              {
                "duration": 0.17441849999999448,
                "durationTicks": 60,
                "midi": 64,
                "name": "E4",
                "ticks": 18720,
                "time": 54.418572000000005,
                "velocity": 0.5039370078740157
              },
              {
                "duration": 0.1744185000000016,
                "durationTicks": 60,
                "midi": 50,
                "name": "D3",
                "ticks": 18780,
                "time": 54.5929905,
                "velocity": 0.5039370078740157
              },
              {
                "duration": 0.1744185000000016,
                "durationTicks": 60,
                "midi": 52,
                "name": "E3",
                "ticks": 18840,
                "time": 54.767409,
                "velocity": 0.5039370078740157
              },
              {
                "duration": 0.1744185000000016,
                "durationTicks": 60,
                "midi": 53,
                "name": "F3",
                "ticks": 18900,
                "time": 54.9418275,
                "velocity": 0.5039370078740157
              },
              {
                "duration": 0.17441849999999448,
                "durationTicks": 60,
                "midi": 55,
                "name": "G3",
                "ticks": 18960,
                "time": 55.116246000000004,
                "velocity": 0.5039370078740157
              },
              {
                "duration": 0.1744185000000016,
                "durationTicks": 60,
                "midi": 52,
                "name": "E3",
                "ticks": 19020,
                "time": 55.2906645,
                "velocity": 0.5039370078740157
              },
              {
                "duration": 0.1744185000000016,
                "durationTicks": 60,
                "midi": 53,
                "name": "F3",
                "ticks": 19080,
                "time": 55.465083,
                "velocity": 0.5039370078740157
              },
              {
                "duration": 0.1744185000000016,
                "durationTicks": 60,
                "midi": 50,
                "name": "D3",
                "ticks": 19140,
                "time": 55.6395015,
                "velocity": 0.5039370078740157
              },
              {
                "duration": 0.34883699999999607,
                "durationTicks": 120,
                "midi": 52,
                "name": "E3",
                "ticks": 19200,
                "time": 55.81392,
                "velocity": 0.5039370078740157
              },
              {
                "duration": 0.3488370000000032,
                "durationTicks": 120,
                "midi": 48,
                "name": "C3",
                "ticks": 19320,
                "time": 56.162757,
                "velocity": 0.5039370078740157
              },
              {
                "duration": 0.34883699999999607,
                "durationTicks": 120,
                "midi": 50,
                "name": "D3",
                "ticks": 19440,
                "time": 56.511594,
                "velocity": 0.5039370078740157
              },
              {
                "duration": 0.3488370000000032,
                "durationTicks": 120,
                "midi": 52,
                "name": "E3",
                "ticks": 19560,
                "time": 56.860431,
                "velocity": 0.5039370078740157
              },
              {
                "duration": 0.1744185000000016,
                "durationTicks": 60,
                "midi": 53,
                "name": "F3",
                "ticks": 19680,
                "time": 57.209268,
                "velocity": 0.5039370078740157
              },
              {
                "duration": 0.1744185000000016,
                "durationTicks": 60,
                "midi": 50,
                "name": "D3",
                "ticks": 19740,
                "time": 57.3836865,
                "velocity": 0.5039370078740157
              },
              {
                "duration": 0.17441849999999448,
                "durationTicks": 60,
                "midi": 52,
                "name": "E3",
                "ticks": 19800,
                "time": 57.558105000000005,
                "velocity": 0.5039370078740157
              },
              {
                "duration": 0.1744185000000016,
                "durationTicks": 60,
                "midi": 53,
                "name": "F3",
                "ticks": 19860,
                "time": 57.7325235,
                "velocity": 0.5039370078740157
              },
              {
                "duration": 0.3488370000000032,
                "durationTicks": 120,
                "midi": 55,
                "name": "G3",
                "ticks": 19920,
                "time": 57.906942,
                "velocity": 0.5039370078740157
              },
              {
                "duration": 0.34883699999999607,
                "durationTicks": 120,
                "midi": 43,
                "name": "G2",
                "ticks": 20040,
                "time": 58.255779000000004,
                "velocity": 0.5039370078740157
              },
              {
                "duration": 2.790696000000004,
                "durationTicks": 960,
                "midi": 36,
                "name": "C2",
                "ticks": 20160,
                "time": 58.604616,
                "velocity": 0.5039370078740157
              },
              {
                "duration": 2.790696000000004,
                "durationTicks": 960,
                "midi": 48,
                "name": "C3",
                "ticks": 20160,
                "time": 58.604616,
                "velocity": 0.5039370078740157
              }
            ],
            "endOfTrackTicks": 21120
          }
        ]
    },

    "invention-02" : {
        "header": {
          "keySignatures": [],
          "meta": [],
          "name": "Invention 2 in C Minor",
          "ppq": 240,
          "tempos": [
            {
              "bpm": 91.99998773333498,
              "ticks": 0
            }
          ],
          "timeSignatures": [
            {
              "ticks": 0,
              "timeSignature": [
                4,
                4
              ],
              "measures": 0
            }
          ]
        },
        "tracks": [
          {
            "channel": 0,
            "controlChanges": {},
            "pitchBends": [],
            "instrument": {
              "family": "piano",
              "number": 0,
              "name": "acoustic grand piano"
            },
            "name": "",
            "notes": [
              {
                "duration": 0.16304349999999995,
                "durationTicks": 60,
                "midi": 72,
                "name": "C5",
                "ticks": 120,
                "time": 0.32608699999999996,
                "velocity": 0.5039370078740157
              },
              {
                "duration": 0.1630435,
                "durationTicks": 60,
                "midi": 71,
                "name": "B4",
                "ticks": 180,
                "time": 0.4891304999999999,
                "velocity": 0.5039370078740157
              },
              {
                "duration": 0.1630435,
                "durationTicks": 60,
                "midi": 72,
                "name": "C5",
                "ticks": 240,
                "time": 0.6521739999999999,
                "velocity": 0.5039370078740157
              },
              {
                "duration": 0.1630434999999999,
                "durationTicks": 60,
                "midi": 74,
                "name": "D5",
                "ticks": 300,
                "time": 0.8152174999999999,
                "velocity": 0.5039370078740157
              },
              {
                "duration": 0.16304350000000012,
                "durationTicks": 60,
                "midi": 75,
                "name": "D#5",
                "ticks": 360,
                "time": 0.9782609999999998,
                "velocity": 0.5039370078740157
              },
              {
                "duration": 0.1630434999999999,
                "durationTicks": 60,
                "midi": 67,
                "name": "G4",
                "ticks": 420,
                "time": 1.1413045,
                "velocity": 0.5039370078740157
              },
              {
                "duration": 0.1630434999999999,
                "durationTicks": 60,
                "midi": 68,
                "name": "G#4",
                "ticks": 480,
                "time": 1.3043479999999998,
                "velocity": 0.5039370078740157
              },
              {
                "duration": 0.16304350000000012,
                "durationTicks": 60,
                "midi": 70,
                "name": "A#4",
                "ticks": 540,
                "time": 1.4673914999999997,
                "velocity": 0.5039370078740157
              },
              {
                "duration": 0.1630434999999999,
                "durationTicks": 60,
                "midi": 68,
                "name": "G#4",
                "ticks": 600,
                "time": 1.6304349999999999,
                "velocity": 0.5039370078740157
              },
              {
                "duration": 0.1630434999999999,
                "durationTicks": 60,
                "midi": 65,
                "name": "F4",
                "ticks": 660,
                "time": 1.7934784999999998,
                "velocity": 0.5039370078740157
              },
              {
                "duration": 0.16304350000000012,
                "durationTicks": 60,
                "midi": 77,
                "name": "F5",
                "ticks": 720,
                "time": 1.9565219999999997,
                "velocity": 0.5039370078740157
              },
              {
                "duration": 0.16304350000000012,
                "durationTicks": 60,
                "midi": 75,
                "name": "D#5",
                "ticks": 780,
                "time": 2.1195654999999998,
                "velocity": 0.5039370078740157
              },
              {
                "duration": 0.16304349999999967,
                "durationTicks": 60,
                "midi": 74,
                "name": "D5",
                "ticks": 840,
                "time": 2.282609,
                "velocity": 0.5039370078740157
              },
              {
                "duration": 0.16304350000000012,
                "durationTicks": 60,
                "midi": 72,
                "name": "C5",
                "ticks": 900,
                "time": 2.4456524999999996,
                "velocity": 0.5039370078740157
              },
              {
                "duration": 0.16304350000000012,
                "durationTicks": 60,
                "midi": 71,
                "name": "B4",
                "ticks": 960,
                "time": 2.6086959999999997,
                "velocity": 0.5039370078740157
              },
              {
                "duration": 0.16304349999999967,
                "durationTicks": 60,
                "midi": 80,
                "name": "G#5",
                "ticks": 1020,
                "time": 2.7717395,
                "velocity": 0.5039370078740157
              },
              {
                "duration": 0.16304350000000012,
                "durationTicks": 60,
                "midi": 79,
                "name": "G5",
                "ticks": 1080,
                "time": 2.9347829999999995,
                "velocity": 0.5039370078740157
              },
              {
                "duration": 0.16304350000000012,
                "durationTicks": 60,
                "midi": 77,
                "name": "F5",
                "ticks": 1140,
                "time": 3.0978264999999996,
                "velocity": 0.5039370078740157
              },
              {
                "duration": 0.16304349999999967,
                "durationTicks": 60,
                "midi": 75,
                "name": "D#5",
                "ticks": 1200,
                "time": 3.2608699999999997,
                "velocity": 0.5039370078740157
              },
              {
                "duration": 0.16304350000000012,
                "durationTicks": 60,
                "midi": 74,
                "name": "D5",
                "ticks": 1260,
                "time": 3.4239134999999994,
                "velocity": 0.5039370078740157
              },
              {
                "duration": 0.16304350000000012,
                "durationTicks": 60,
                "midi": 72,
                "name": "C5",
                "ticks": 1320,
                "time": 3.5869569999999995,
                "velocity": 0.5039370078740157
              },
              {
                "duration": 0.16304349999999967,
                "durationTicks": 60,
                "midi": 71,
                "name": "B4",
                "ticks": 1380,
                "time": 3.7500004999999996,
                "velocity": 0.5039370078740157
              },
              {
                "duration": 0.16304350000000056,
                "durationTicks": 60,
                "midi": 72,
                "name": "C5",
                "ticks": 1440,
                "time": 3.9130439999999993,
                "velocity": 0.5039370078740157
              },
              {
                "duration": 0.16304349999999967,
                "durationTicks": 60,
                "midi": 74,
                "name": "D5",
                "ticks": 1500,
                "time": 4.0760875,
                "velocity": 0.5039370078740157
              },
              {
                "duration": 0.16304349999999967,
                "durationTicks": 60,
                "midi": 72,
                "name": "C5",
                "ticks": 1560,
                "time": 4.2391309999999995,
                "velocity": 0.5039370078740157
              },
              {
                "duration": 0.16304350000000056,
                "durationTicks": 60,
                "midi": 74,
                "name": "D5",
                "ticks": 1620,
                "time": 4.402174499999999,
                "velocity": 0.5039370078740157
              },
              {
                "duration": 0.0896739249999996,
                "durationTicks": 33,
                "midi": 75,
                "name": "D#5",
                "ticks": 1680,
                "time": 4.565218,
                "velocity": 0.3779527559055118
              },
              {
                "duration": 0.08967392500000049,
                "durationTicks": 33,
                "midi": 74,
                "name": "D5",
                "ticks": 1710,
                "time": 4.646739749999999,
                "velocity": 0.3858267716535433
              },
              {
                "duration": 0.08967392500000049,
                "durationTicks": 33,
                "midi": 75,
                "name": "D#5",
                "ticks": 1740,
                "time": 4.7282614999999995,
                "velocity": 0.4015748031496063
              },
              {
                "duration": 0.0896739249999996,
                "durationTicks": 33,
                "midi": 74,
                "name": "D5",
                "ticks": 1770,
                "time": 4.80978325,
                "velocity": 0.41732283464566927
              },
              {
                "duration": 0.08967392500000049,
                "durationTicks": 33,
                "midi": 75,
                "name": "D#5",
                "ticks": 1800,
                "time": 4.891304999999999,
                "velocity": 0.4251968503937008
              },
              {
                "duration": 0.08967392500000049,
                "durationTicks": 33,
                "midi": 74,
                "name": "D5",
                "ticks": 1830,
                "time": 4.972826749999999,
                "velocity": 0.4409448818897638
              },
              {
                "duration": 0.0896739249999996,
                "durationTicks": 33,
                "midi": 72,
                "name": "C5",
                "ticks": 1860,
                "time": 5.0543485,
                "velocity": 0.44881889763779526
              },
              {
                "duration": 0.0896739249999996,
                "durationTicks": 33,
                "midi": 74,
                "name": "D5",
                "ticks": 1890,
                "time": 5.135870249999999,
                "velocity": 0.4645669291338583
              },
              {
                "duration": 0.16304349999999967,
                "durationTicks": 60,
                "midi": 75,
                "name": "D#5",
                "ticks": 1920,
                "time": 5.217391999999999,
                "velocity": 0.5039370078740157
              },
              {
                "duration": 0.16304350000000056,
                "durationTicks": 60,
                "midi": 74,
                "name": "D5",
                "ticks": 1980,
                "time": 5.380435499999999,
                "velocity": 0.5039370078740157
              },
              {
                "duration": 0.16304349999999967,
                "durationTicks": 60,
                "midi": 72,
                "name": "C5",
                "ticks": 2040,
                "time": 5.543479,
                "velocity": 0.5039370078740157
              },
              {
                "duration": 0.16304349999999967,
                "durationTicks": 60,
                "midi": 74,
                "name": "D5",
                "ticks": 2100,
                "time": 5.706522499999999,
                "velocity": 0.5039370078740157
              },
              {
                "duration": 0.16304350000000056,
                "durationTicks": 60,
                "midi": 75,
                "name": "D#5",
                "ticks": 2160,
                "time": 5.869565999999999,
                "velocity": 0.5039370078740157
              },
              {
                "duration": 0.16304349999999967,
                "durationTicks": 60,
                "midi": 77,
                "name": "F5",
                "ticks": 2220,
                "time": 6.0326094999999995,
                "velocity": 0.5039370078740157
              },
              {
                "duration": 0.2717391666666664,
                "durationTicks": 100,
                "midi": 79,
                "name": "G5",
                "ticks": 2280,
                "time": 6.195652999999999,
                "velocity": 0.5039370078740157
              },
              {
                "duration": 0.05434783333333382,
                "durationTicks": 20,
                "midi": 79,
                "name": "G5",
                "ticks": 2400,
                "time": 6.521739999999999,
                "velocity": 0.5039370078740157
              },
              {
                "duration": 0.05434783333333204,
                "durationTicks": 20,
                "midi": 80,
                "name": "G#5",
                "ticks": 2420,
                "time": 6.576087833333333,
                "velocity": 0.4409448818897638
              },
              {
                "duration": 0.24456524999999996,
                "durationTicks": 90,
                "midi": 79,
                "name": "G5",
                "ticks": 2440,
                "time": 6.630435666666665,
                "velocity": 0.5039370078740157
              },
              {
                "duration": 0.32608700000000024,
                "durationTicks": 120,
                "midi": 77,
                "name": "F5",
                "ticks": 2530,
                "time": 6.875000916666665,
                "velocity": 0.5039370078740157
              },
              {
                "duration": 0.2717391666666664,
                "durationTicks": 100,
                "midi": 77,
                "name": "F5",
                "ticks": 2760,
                "time": 7.500000999999999,
                "velocity": 0.5039370078740157
              },
              {
                "duration": 0.05434783333333382,
                "durationTicks": 20,
                "midi": 77,
                "name": "F5",
                "ticks": 2880,
                "time": 7.826087999999999,
                "velocity": 0.5039370078740157
              },
              {
                "duration": 0.05434783333333293,
                "durationTicks": 20,
                "midi": 78,
                "name": "F#5",
                "ticks": 2900,
                "time": 7.880435833333332,
                "velocity": 0.4409448818897638
              },
              {
                "duration": 0.24456524999999996,
                "durationTicks": 90,
                "midi": 77,
                "name": "F5",
                "ticks": 2920,
                "time": 7.934783666666665,
                "velocity": 0.5039370078740157
              },
              {
                "duration": 0.32608699999999935,
                "durationTicks": 120,
                "midi": 75,
                "name": "D#5",
                "ticks": 3010,
                "time": 8.179348916666665,
                "velocity": 0.5039370078740157
              },
              {
                "duration": 0.3260870000000011,
                "durationTicks": 120,
                "midi": 74,
                "name": "D5",
                "ticks": 3240,
                "time": 8.804348999999998,
                "velocity": 0.5039370078740157
              },
              {
                "duration": 0.32608699999999935,
                "durationTicks": 120,
                "midi": 75,
                "name": "D#5",
                "ticks": 3360,
                "time": 9.130436,
                "velocity": 0.5039370078740157
              },
              {
                "duration": 0.4891304999999999,
                "durationTicks": 180,
                "midi": 68,
                "name": "G#4",
                "ticks": 3480,
                "time": 9.456522999999999,
                "velocity": 0.5039370078740157
              },
              {
                "duration": 0.16304350000000056,
                "durationTicks": 60,
                "midi": 65,
                "name": "F4",
                "ticks": 3660,
                "time": 9.945653499999999,
                "velocity": 0.5039370078740157
              },
              {
                "duration": 0.1630434999999988,
                "durationTicks": 60,
                "midi": 70,
                "name": "A#4",
                "ticks": 3720,
                "time": 10.108697,
                "velocity": 0.5039370078740157
              },
              {
                "duration": 0.16304350000000056,
                "durationTicks": 60,
                "midi": 65,
                "name": "F4",
                "ticks": 3780,
                "time": 10.271740499999998,
                "velocity": 0.5039370078740157
              },
              {
                "duration": 0.32608699999999935,
                "durationTicks": 120,
                "midi": 67,
                "name": "G4",
                "ticks": 3840,
                "time": 10.434783999999999,
                "velocity": 0.5039370078740157
              },
              {
                "duration": 0.4891304999999999,
                "durationTicks": 180,
                "midi": 75,
                "name": "D#5",
                "ticks": 3960,
                "time": 10.760870999999998,
                "velocity": 0.5039370078740157
              },
              {
                "duration": 0.16304350000000056,
                "durationTicks": 60,
                "midi": 74,
                "name": "D5",
                "ticks": 4140,
                "time": 11.250001499999998,
                "velocity": 0.5039370078740157
              },
              {
                "duration": 0.16304350000000056,
                "durationTicks": 60,
                "midi": 75,
                "name": "D#5",
                "ticks": 4200,
                "time": 11.413044999999999,
                "velocity": 0.5039370078740157
              },
              {
                "duration": 0.1630434999999988,
                "durationTicks": 60,
                "midi": 70,
                "name": "A#4",
                "ticks": 4260,
                "time": 11.5760885,
                "velocity": 0.5039370078740157
              },
              {
                "duration": 0.16304350000000056,
                "durationTicks": 60,
                "midi": 72,
                "name": "C5",
                "ticks": 4320,
                "time": 11.739131999999998,
                "velocity": 0.5039370078740157
              },
              {
                "duration": 0.16304350000000056,
                "durationTicks": 60,
                "midi": 75,
                "name": "D#5",
                "ticks": 4380,
                "time": 11.902175499999998,
                "velocity": 0.5039370078740157
              },
              {
                "duration": 0.1630434999999988,
                "durationTicks": 60,
                "midi": 80,
                "name": "G#5",
                "ticks": 4440,
                "time": 12.065218999999999,
                "velocity": 0.5039370078740157
              },
              {
                "duration": 0.16304350000000056,
                "durationTicks": 60,
                "midi": 79,
                "name": "G5",
                "ticks": 4500,
                "time": 12.228262499999998,
                "velocity": 0.5039370078740157
              },
              {
                "duration": 0.16304350000000056,
                "durationTicks": 60,
                "midi": 77,
                "name": "F5",
                "ticks": 4560,
                "time": 12.391305999999998,
                "velocity": 0.5039370078740157
              },
              {
                "duration": 0.1630434999999988,
                "durationTicks": 60,
                "midi": 75,
                "name": "D#5",
                "ticks": 4620,
                "time": 12.554349499999999,
                "velocity": 0.5039370078740157
              },
              {
                "duration": 0.16304350000000056,
                "durationTicks": 60,
                "midi": 74,
                "name": "D5",
                "ticks": 4680,
                "time": 12.717392999999998,
                "velocity": 0.5039370078740157
              },
              {
                "duration": 0.16304350000000056,
                "durationTicks": 60,
                "midi": 72,
                "name": "C5",
                "ticks": 4740,
                "time": 12.880436499999998,
                "velocity": 0.5039370078740157
              },
              {
                "duration": 0.1630434999999988,
                "durationTicks": 60,
                "midi": 70,
                "name": "A#4",
                "ticks": 4800,
                "time": 13.043479999999999,
                "velocity": 0.5039370078740157
              },
              {
                "duration": 0.16304350000000056,
                "durationTicks": 60,
                "midi": 74,
                "name": "D5",
                "ticks": 4860,
                "time": 13.206523499999998,
                "velocity": 0.5039370078740157
              },
              {
                "duration": 0.16304350000000056,
                "durationTicks": 60,
                "midi": 79,
                "name": "G5",
                "ticks": 4920,
                "time": 13.369566999999998,
                "velocity": 0.5039370078740157
              },
              {
                "duration": 0.1630434999999988,
                "durationTicks": 60,
                "midi": 77,
                "name": "F5",
                "ticks": 4980,
                "time": 13.532610499999999,
                "velocity": 0.5039370078740157
              },
              {
                "duration": 0.16304350000000056,
                "durationTicks": 60,
                "midi": 75,
                "name": "D#5",
                "ticks": 5040,
                "time": 13.695653999999998,
                "velocity": 0.5039370078740157
              },
              {
                "duration": 0.16304350000000056,
                "durationTicks": 60,
                "midi": 74,
                "name": "D5",
                "ticks": 5100,
                "time": 13.858697499999998,
                "velocity": 0.5039370078740157
              },
              {
                "duration": 0.1630434999999988,
                "durationTicks": 60,
                "midi": 72,
                "name": "C5",
                "ticks": 5160,
                "time": 14.021740999999999,
                "velocity": 0.5039370078740157
              },
              {
                "duration": 0.16304350000000056,
                "durationTicks": 60,
                "midi": 70,
                "name": "A#4",
                "ticks": 5220,
                "time": 14.184784499999997,
                "velocity": 0.5039370078740157
              },
              {
                "duration": 0.16304350000000056,
                "durationTicks": 60,
                "midi": 68,
                "name": "G#4",
                "ticks": 5280,
                "time": 14.347827999999998,
                "velocity": 0.5039370078740157
              },
              {
                "duration": 0.1630434999999988,
                "durationTicks": 60,
                "midi": 72,
                "name": "C5",
                "ticks": 5340,
                "time": 14.510871499999999,
                "velocity": 0.5039370078740157
              },
              {
                "duration": 0.16304350000000056,
                "durationTicks": 60,
                "midi": 77,
                "name": "F5",
                "ticks": 5400,
                "time": 14.673914999999997,
                "velocity": 0.5039370078740157
              },
              {
                "duration": 0.16304350000000056,
                "durationTicks": 60,
                "midi": 72,
                "name": "C5",
                "ticks": 5460,
                "time": 14.836958499999998,
                "velocity": 0.5039370078740157
              },
              {
                "duration": 0.4891304999999999,
                "durationTicks": 180,
                "midi": 74,
                "name": "D5",
                "ticks": 5520,
                "time": 15.000001999999999,
                "velocity": 0.5039370078740157
              },
              {
                "duration": 0.1630434999999988,
                "durationTicks": 60,
                "midi": 74,
                "name": "D5",
                "ticks": 5700,
                "time": 15.489132499999998,
                "velocity": 0.5039370078740157
              },
              {
                "duration": 0.16304350000000056,
                "durationTicks": 60,
                "midi": 75,
                "name": "D#5",
                "ticks": 5760,
                "time": 15.652175999999997,
                "velocity": 0.5039370078740157
              },
              {
                "duration": 0.16304350000000056,
                "durationTicks": 60,
                "midi": 70,
                "name": "A#4",
                "ticks": 5820,
                "time": 15.815219499999998,
                "velocity": 0.5039370078740157
              },
              {
                "duration": 0.16304350000000056,
                "durationTicks": 60,
                "midi": 72,
                "name": "C5",
                "ticks": 5880,
                "time": 15.978262999999998,
                "velocity": 0.5039370078740157
              },
              {
                "duration": 0.16304350000000056,
                "durationTicks": 60,
                "midi": 70,
                "name": "A#4",
                "ticks": 5940,
                "time": 16.1413065,
                "velocity": 0.5039370078740157
              },
              {
                "duration": 0.7880435833333301,
                "durationTicks": 290,
                "midi": 79,
                "name": "G5",
                "ticks": 6000,
                "time": 16.30435,
                "velocity": 0.5039370078740157
              },
              {
                "duration": 0.16304350000000056,
                "durationTicks": 60,
                "midi": 70,
                "name": "A#4",
                "ticks": 6300,
                "time": 17.1195675,
                "velocity": 0.5039370078740157
              },
              {
                "duration": 0.163043499999997,
                "durationTicks": 60,
                "midi": 72,
                "name": "C5",
                "ticks": 6360,
                "time": 17.282611,
                "velocity": 0.5039370078740157
              },
              {
                "duration": 0.16304350000000056,
                "durationTicks": 60,
                "midi": 70,
                "name": "A#4",
                "ticks": 6420,
                "time": 17.445654499999996,
                "velocity": 0.5039370078740157
              },
              {
                "duration": 0.7880435833333337,
                "durationTicks": 290,
                "midi": 80,
                "name": "G#5",
                "ticks": 6480,
                "time": 17.608697999999997,
                "velocity": 0.5039370078740157
              },
              {
                "duration": 0.16304350000000056,
                "durationTicks": 60,
                "midi": 70,
                "name": "A#4",
                "ticks": 6780,
                "time": 18.423915499999996,
                "velocity": 0.5039370078740157
              },
              {
                "duration": 0.16304350000000056,
                "durationTicks": 60,
                "midi": 75,
                "name": "D#5",
                "ticks": 6840,
                "time": 18.586958999999997,
                "velocity": 0.5039370078740157
              },
              {
                "duration": 0.16304350000000056,
                "durationTicks": 60,
                "midi": 74,
                "name": "D5",
                "ticks": 6900,
                "time": 18.750002499999997,
                "velocity": 0.5039370078740157
              },
              {
                "duration": 0.16304350000000056,
                "durationTicks": 60,
                "midi": 79,
                "name": "G5",
                "ticks": 6960,
                "time": 18.913045999999998,
                "velocity": 0.5039370078740157
              },
              {
                "duration": 0.16304350000000056,
                "durationTicks": 60,
                "midi": 77,
                "name": "F5",
                "ticks": 7020,
                "time": 19.0760895,
                "velocity": 0.5039370078740157
              },
              {
                "duration": 0.163043499999997,
                "durationTicks": 60,
                "midi": 80,
                "name": "G#5",
                "ticks": 7080,
                "time": 19.239133,
                "velocity": 0.5039370078740157
              },
              {
                "duration": 0.16304350000000056,
                "durationTicks": 60,
                "midi": 79,
                "name": "G5",
                "ticks": 7140,
                "time": 19.402176499999996,
                "velocity": 0.5039370078740157
              },
              {
                "duration": 0.16304350000000056,
                "durationTicks": 60,
                "midi": 84,
                "name": "C6",
                "ticks": 7200,
                "time": 19.565219999999997,
                "velocity": 0.5039370078740157
              },
              {
                "duration": 0.16304350000000056,
                "durationTicks": 60,
                "midi": 82,
                "name": "A#5",
                "ticks": 7260,
                "time": 19.728263499999997,
                "velocity": 0.5039370078740157
              },
              {
                "duration": 0.16304350000000056,
                "durationTicks": 60,
                "midi": 80,
                "name": "G#5",
                "ticks": 7320,
                "time": 19.891306999999998,
                "velocity": 0.5039370078740157
              },
              {
                "duration": 0.16304350000000056,
                "durationTicks": 60,
                "midi": 79,
                "name": "G5",
                "ticks": 7380,
                "time": 20.054350499999998,
                "velocity": 0.5039370078740157
              },
              {
                "duration": 0.163043499999997,
                "durationTicks": 60,
                "midi": 77,
                "name": "F5",
                "ticks": 7440,
                "time": 20.217394,
                "velocity": 0.5039370078740157
              },
              {
                "duration": 0.16304350000000056,
                "durationTicks": 60,
                "midi": 82,
                "name": "A#5",
                "ticks": 7500,
                "time": 20.380437499999996,
                "velocity": 0.5039370078740157
              },
              {
                "duration": 0.16304350000000056,
                "durationTicks": 60,
                "midi": 80,
                "name": "G#5",
                "ticks": 7560,
                "time": 20.543480999999996,
                "velocity": 0.5039370078740157
              },
              {
                "duration": 0.16304350000000056,
                "durationTicks": 60,
                "midi": 82,
                "name": "A#5",
                "ticks": 7620,
                "time": 20.706524499999997,
                "velocity": 0.5039370078740157
              },
              {
                "duration": 0.16304350000000056,
                "durationTicks": 60,
                "midi": 79,
                "name": "G5",
                "ticks": 7680,
                "time": 20.869567999999997,
                "velocity": 0.5039370078740157
              },
              {
                "duration": 0.16304350000000056,
                "durationTicks": 60,
                "midi": 82,
                "name": "A#5",
                "ticks": 7740,
                "time": 21.032611499999998,
                "velocity": 0.5039370078740157
              },
              {
                "duration": 0.16304350000000056,
                "durationTicks": 60,
                "midi": 80,
                "name": "G#5",
                "ticks": 7800,
                "time": 21.195655,
                "velocity": 0.5039370078740157
              },
              {
                "duration": 0.163043499999997,
                "durationTicks": 60,
                "midi": 82,
                "name": "A#5",
                "ticks": 7860,
                "time": 21.3586985,
                "velocity": 0.5039370078740157
              },
              {
                "duration": 0.16304350000000056,
                "durationTicks": 60,
                "midi": 75,
                "name": "D#5",
                "ticks": 7920,
                "time": 21.521741999999996,
                "velocity": 0.5039370078740157
              },
              {
                "duration": 0.16304350000000056,
                "durationTicks": 60,
                "midi": 79,
                "name": "G5",
                "ticks": 7980,
                "time": 21.684785499999997,
                "velocity": 0.5039370078740157
              },
              {
                "duration": 0.16304350000000056,
                "durationTicks": 60,
                "midi": 77,
                "name": "F5",
                "ticks": 8040,
                "time": 21.847828999999997,
                "velocity": 0.5039370078740157
              },
              {
                "duration": 0.16304350000000056,
                "durationTicks": 60,
                "midi": 79,
                "name": "G5",
                "ticks": 8100,
                "time": 22.010872499999998,
                "velocity": 0.5039370078740157
              },
              {
                "duration": 0.16304350000000056,
                "durationTicks": 60,
                "midi": 72,
                "name": "C5",
                "ticks": 8160,
                "time": 22.173916,
                "velocity": 0.5039370078740157
              },
              {
                "duration": 0.163043499999997,
                "durationTicks": 60,
                "midi": 74,
                "name": "D5",
                "ticks": 8220,
                "time": 22.3369595,
                "velocity": 0.5039370078740157
              },
              {
                "duration": 0.16304350000000056,
                "durationTicks": 60,
                "midi": 75,
                "name": "D#5",
                "ticks": 8280,
                "time": 22.500002999999996,
                "velocity": 0.5039370078740157
              },
              {
                "duration": 0.16304350000000056,
                "durationTicks": 60,
                "midi": 77,
                "name": "F5",
                "ticks": 8340,
                "time": 22.663046499999997,
                "velocity": 0.5039370078740157
              },
              {
                "duration": 0.16304350000000056,
                "durationTicks": 60,
                "midi": 74,
                "name": "D5",
                "ticks": 8400,
                "time": 22.826089999999997,
                "velocity": 0.5039370078740157
              },
              {
                "duration": 0.16304350000000056,
                "durationTicks": 60,
                "midi": 75,
                "name": "D#5",
                "ticks": 8460,
                "time": 22.989133499999998,
                "velocity": 0.5039370078740157
              },
              {
                "duration": 0.16304350000000056,
                "durationTicks": 60,
                "midi": 77,
                "name": "F5",
                "ticks": 8520,
                "time": 23.152177,
                "velocity": 0.5039370078740157
              },
              {
                "duration": 0.163043499999997,
                "durationTicks": 60,
                "midi": 79,
                "name": "G5",
                "ticks": 8580,
                "time": 23.3152205,
                "velocity": 0.5039370078740157
              },
              {
                "duration": 0.16304350000000056,
                "durationTicks": 60,
                "midi": 75,
                "name": "D#5",
                "ticks": 8640,
                "time": 23.478263999999996,
                "velocity": 0.5039370078740157
              },
              {
                "duration": 0.16304350000000056,
                "durationTicks": 60,
                "midi": 77,
                "name": "F5",
                "ticks": 8700,
                "time": 23.641307499999996,
                "velocity": 0.5039370078740157
              },
              {
                "duration": 0.16304350000000056,
                "durationTicks": 60,
                "midi": 79,
                "name": "G5",
                "ticks": 8760,
                "time": 23.804350999999997,
                "velocity": 0.5039370078740157
              },
              {
                "duration": 0.16304350000000056,
                "durationTicks": 60,
                "midi": 80,
                "name": "G#5",
                "ticks": 8820,
                "time": 23.967394499999997,
                "velocity": 0.5039370078740157
              },
              {
                "duration": 0.16304350000000056,
                "durationTicks": 60,
                "midi": 82,
                "name": "A#5",
                "ticks": 8880,
                "time": 24.130437999999998,
                "velocity": 0.5039370078740157
              },
              {
                "duration": 0.163043499999997,
                "durationTicks": 60,
                "midi": 80,
                "name": "G#5",
                "ticks": 8940,
                "time": 24.2934815,
                "velocity": 0.5039370078740157
              },
              {
                "duration": 0.16304350000000056,
                "durationTicks": 60,
                "midi": 84,
                "name": "C6",
                "ticks": 9000,
                "time": 24.456524999999996,
                "velocity": 0.5039370078740157
              },
              {
                "duration": 0.16304350000000056,
                "durationTicks": 60,
                "midi": 82,
                "name": "A#5",
                "ticks": 9060,
                "time": 24.619568499999996,
                "velocity": 0.5039370078740157
              },
              {
                "duration": 0.16304350000000056,
                "durationTicks": 60,
                "midi": 80,
                "name": "G#5",
                "ticks": 9120,
                "time": 24.782611999999997,
                "velocity": 0.5039370078740157
              },
              {
                "duration": 0.16304350000000056,
                "durationTicks": 60,
                "midi": 79,
                "name": "G5",
                "ticks": 9180,
                "time": 24.945655499999997,
                "velocity": 0.5039370078740157
              },
              {
                "duration": 0.16304350000000056,
                "durationTicks": 60,
                "midi": 77,
                "name": "F5",
                "ticks": 9240,
                "time": 25.108698999999998,
                "velocity": 0.5039370078740157
              },
              {
                "duration": 0.163043499999997,
                "durationTicks": 60,
                "midi": 80,
                "name": "G#5",
                "ticks": 9300,
                "time": 25.2717425,
                "velocity": 0.5039370078740157
              },
              {
                "duration": 0.7880435833333372,
                "durationTicks": 290,
                "midi": 74,
                "name": "D5",
                "ticks": 9360,
                "time": 25.434785999999995,
                "velocity": 0.5039370078740157
              },
              {
                "duration": 0.163043499999997,
                "durationTicks": 60,
                "midi": 74,
                "name": "D5",
                "ticks": 9660,
                "time": 26.2500035,
                "velocity": 0.5039370078740157
              },
              {
                "duration": 0.16304350000000056,
                "durationTicks": 60,
                "midi": 79,
                "name": "G5",
                "ticks": 9720,
                "time": 26.413046999999995,
                "velocity": 0.5039370078740157
              },
              {
                "duration": 0.16304350000000056,
                "durationTicks": 60,
                "midi": 74,
                "name": "D5",
                "ticks": 9780,
                "time": 26.576090499999996,
                "velocity": 0.5039370078740157
              },
              {
                "duration": 0.16304350000000056,
                "durationTicks": 60,
                "midi": 75,
                "name": "D#5",
                "ticks": 9840,
                "time": 26.739133999999996,
                "velocity": 0.5039370078740157
              },
              {
                "duration": 0.16304350000000056,
                "durationTicks": 60,
                "midi": 72,
                "name": "C5",
                "ticks": 9900,
                "time": 26.902177499999997,
                "velocity": 0.5039370078740157
              },
              {
                "duration": 0.16304350000000056,
                "durationTicks": 60,
                "midi": 74,
                "name": "D5",
                "ticks": 9960,
                "time": 27.065220999999998,
                "velocity": 0.5039370078740157
              },
              {
                "duration": 0.163043499999997,
                "durationTicks": 60,
                "midi": 70,
                "name": "A#4",
                "ticks": 10020,
                "time": 27.228264499999998,
                "velocity": 0.5039370078740157
              },
              {
                "duration": 0.7880435833333372,
                "durationTicks": 290,
                "midi": 72,
                "name": "C5",
                "ticks": 10080,
                "time": 27.391307999999995,
                "velocity": 0.5039370078740157
              },
              {
                "duration": 0.163043499999997,
                "durationTicks": 60,
                "midi": 79,
                "name": "G5",
                "ticks": 10380,
                "time": 28.206525499999998,
                "velocity": 0.5039370078740157
              },
              {
                "duration": 0.16304350000000056,
                "durationTicks": 60,
                "midi": 78,
                "name": "F#5",
                "ticks": 10440,
                "time": 28.369568999999995,
                "velocity": 0.5039370078740157
              },
              {
                "duration": 0.16304350000000056,
                "durationTicks": 60,
                "midi": 81,
                "name": "A5",
                "ticks": 10500,
                "time": 28.532612499999995,
                "velocity": 0.5039370078740157
              },
              {
                "duration": 0.16304350000000056,
                "durationTicks": 60,
                "midi": 72,
                "name": "C5",
                "ticks": 10560,
                "time": 28.695655999999996,
                "velocity": 0.5039370078740157
              },
              {
                "duration": 0.16304350000000056,
                "durationTicks": 60,
                "midi": 70,
                "name": "A#4",
                "ticks": 10620,
                "time": 28.858699499999997,
                "velocity": 0.5039370078740157
              },
              {
                "duration": 0.48913049999999814,
                "durationTicks": 180,
                "midi": 72,
                "name": "C5",
                "ticks": 10680,
                "time": 29.021742999999997,
                "velocity": 0.5039370078740157
              },
              {
                "duration": 0.16304350000000056,
                "durationTicks": 60,
                "midi": 78,
                "name": "F#5",
                "ticks": 10860,
                "time": 29.510873499999995,
                "velocity": 0.5039370078740157
              },
              {
                "duration": 0.16304350000000056,
                "durationTicks": 60,
                "midi": 76,
                "name": "E5",
                "ticks": 10920,
                "time": 29.673916999999996,
                "velocity": 0.5039370078740157
              },
              {
                "duration": 0.16304350000000056,
                "durationTicks": 60,
                "midi": 74,
                "name": "D5",
                "ticks": 10980,
                "time": 29.836960499999996,
                "velocity": 0.5039370078740157
              },
              {
                "duration": 0.48913049999999814,
                "durationTicks": 180,
                "midi": 82,
                "name": "A#5",
                "ticks": 11040,
                "time": 30.000003999999997,
                "velocity": 0.5039370078740157
              },
              {
                "duration": 0.16304350000000056,
                "durationTicks": 60,
                "midi": 76,
                "name": "E5",
                "ticks": 11220,
                "time": 30.489134499999995,
                "velocity": 0.5039370078740157
              },
              {
                "duration": 0.4891305000000017,
                "durationTicks": 180,
                "midi": 78,
                "name": "F#5",
                "ticks": 11280,
                "time": 30.652177999999996,
                "velocity": 0.5039370078740157
              },
              {
                "duration": 0.135869583333335,
                "durationTicks": 50,
                "midi": 79,
                "name": "G5",
                "ticks": 11460,
                "time": 31.141308499999997,
                "velocity": 0.5039370078740157
              },
              {
                "duration": 0.3260870000000011,
                "durationTicks": 120,
                "midi": 79,
                "name": "G5",
                "ticks": 11520,
                "time": 31.304351999999994,
                "velocity": 0.5039370078740157
              },
              {
                "duration": 0.16304350000000056,
                "durationTicks": 60,
                "midi": 67,
                "name": "G4",
                "ticks": 11640,
                "time": 31.630438999999996,
                "velocity": 0.5039370078740157
              },
              {
                "duration": 0.16304350000000056,
                "durationTicks": 60,
                "midi": 66,
                "name": "F#4",
                "ticks": 11700,
                "time": 31.793482499999996,
                "velocity": 0.5039370078740157
              },
              {
                "duration": 0.16304350000000056,
                "durationTicks": 60,
                "midi": 67,
                "name": "G4",
                "ticks": 11760,
                "time": 31.956525999999997,
                "velocity": 0.5039370078740157
              },
              {
                "duration": 0.16304350000000056,
                "durationTicks": 60,
                "midi": 69,
                "name": "A4",
                "ticks": 11820,
                "time": 32.1195695,
                "velocity": 0.5039370078740157
              },
              {
                "duration": 0.16304350000000056,
                "durationTicks": 60,
                "midi": 70,
                "name": "A#4",
                "ticks": 11880,
                "time": 32.282613,
                "velocity": 0.5039370078740157
              },
              {
                "duration": 0.16304350000000056,
                "durationTicks": 60,
                "midi": 62,
                "name": "D4",
                "ticks": 11940,
                "time": 32.4456565,
                "velocity": 0.5039370078740157
              },
              {
                "duration": 0.16304350000000056,
                "durationTicks": 60,
                "midi": 63,
                "name": "D#4",
                "ticks": 12000,
                "time": 32.6087,
                "velocity": 0.5039370078740157
              },
              {
                "duration": 0.16304349999999346,
                "durationTicks": 60,
                "midi": 65,
                "name": "F4",
                "ticks": 12060,
                "time": 32.7717435,
                "velocity": 0.5039370078740157
              },
              {
                "duration": 0.16304350000000056,
                "durationTicks": 60,
                "midi": 63,
                "name": "D#4",
                "ticks": 12120,
                "time": 32.93478699999999,
                "velocity": 0.5039370078740157
              },
              {
                "duration": 0.16304350000000056,
                "durationTicks": 60,
                "midi": 60,
                "name": "C4",
                "ticks": 12180,
                "time": 33.09783049999999,
                "velocity": 0.5039370078740157
              },
              {
                "duration": 0.16304350000000056,
                "durationTicks": 60,
                "midi": 72,
                "name": "C5",
                "ticks": 12240,
                "time": 33.260873999999994,
                "velocity": 0.5039370078740157
              },
              {
                "duration": 0.16304350000000056,
                "durationTicks": 60,
                "midi": 70,
                "name": "A#4",
                "ticks": 12300,
                "time": 33.423917499999995,
                "velocity": 0.5039370078740157
              },
              {
                "duration": 0.16304350000000056,
                "durationTicks": 60,
                "midi": 69,
                "name": "A4",
                "ticks": 12360,
                "time": 33.586960999999995,
                "velocity": 0.5039370078740157
              },
              {
                "duration": 0.16304350000000056,
                "durationTicks": 60,
                "midi": 67,
                "name": "G4",
                "ticks": 12420,
                "time": 33.750004499999996,
                "velocity": 0.5039370078740157
              },
              {
                "duration": 0.16304350000000056,
                "durationTicks": 60,
                "midi": 66,
                "name": "F#4",
                "ticks": 12480,
                "time": 33.913047999999996,
                "velocity": 0.5039370078740157
              },
              {
                "duration": 0.16304350000000056,
                "durationTicks": 60,
                "midi": 75,
                "name": "D#5",
                "ticks": 12540,
                "time": 34.0760915,
                "velocity": 0.5039370078740157
              },
              {
                "duration": 0.16304350000000056,
                "durationTicks": 60,
                "midi": 74,
                "name": "D5",
                "ticks": 12600,
                "time": 34.239135,
                "velocity": 0.5039370078740157
              },
              {
                "duration": 0.16304350000000056,
                "durationTicks": 60,
                "midi": 72,
                "name": "C5",
                "ticks": 12660,
                "time": 34.4021785,
                "velocity": 0.5039370078740157
              },
              {
                "duration": 0.16304350000000056,
                "durationTicks": 60,
                "midi": 70,
                "name": "A#4",
                "ticks": 12720,
                "time": 34.565222,
                "velocity": 0.5039370078740157
              },
              {
                "duration": 0.16304349999999346,
                "durationTicks": 60,
                "midi": 69,
                "name": "A4",
                "ticks": 12780,
                "time": 34.7282655,
                "velocity": 0.5039370078740157
              },
              {
                "duration": 0.16304350000000056,
                "durationTicks": 60,
                "midi": 67,
                "name": "G4",
                "ticks": 12840,
                "time": 34.89130899999999,
                "velocity": 0.5039370078740157
              },
              {
                "duration": 0.16304350000000056,
                "durationTicks": 60,
                "midi": 66,
                "name": "F#4",
                "ticks": 12900,
                "time": 35.05435249999999,
                "velocity": 0.5039370078740157
              },
              {
                "duration": 0.16304350000000056,
                "durationTicks": 60,
                "midi": 67,
                "name": "G4",
                "ticks": 12960,
                "time": 35.217395999999994,
                "velocity": 0.5039370078740157
              },
              {
                "duration": 0.16304350000000056,
                "durationTicks": 60,
                "midi": 69,
                "name": "A4",
                "ticks": 13020,
                "time": 35.380439499999994,
                "velocity": 0.5039370078740157
              },
              {
                "duration": 0.16304350000000056,
                "durationTicks": 60,
                "midi": 67,
                "name": "G4",
                "ticks": 13080,
                "time": 35.543482999999995,
                "velocity": 0.5039370078740157
              },
              {
                "duration": 0.16304350000000056,
                "durationTicks": 60,
                "midi": 69,
                "name": "A4",
                "ticks": 13140,
                "time": 35.706526499999995,
                "velocity": 0.5039370078740157
              },
              {
                "duration": 0.0896739249999996,
                "durationTicks": 33,
                "midi": 70,
                "name": "A#4",
                "ticks": 13200,
                "time": 35.869569999999996,
                "velocity": 0.3779527559055118
              },
              {
                "duration": 0.0896739249999996,
                "durationTicks": 33,
                "midi": 69,
                "name": "A4",
                "ticks": 13230,
                "time": 35.951091749999996,
                "velocity": 0.3937007874015748
              },
              {
                "duration": 0.0896739249999996,
                "durationTicks": 33,
                "midi": 70,
                "name": "A#4",
                "ticks": 13260,
                "time": 36.0326135,
                "velocity": 0.4015748031496063
              },
              {
                "duration": 0.0896739249999996,
                "durationTicks": 33,
                "midi": 69,
                "name": "A4",
                "ticks": 13290,
                "time": 36.11413525,
                "velocity": 0.41732283464566927
              },
              {
                "duration": 0.0896739249999996,
                "durationTicks": 33,
                "midi": 70,
                "name": "A#4",
                "ticks": 13320,
                "time": 36.195657,
                "velocity": 0.4251968503937008
              },
              {
                "duration": 0.0896739249999996,
                "durationTicks": 33,
                "midi": 69,
                "name": "A4",
                "ticks": 13350,
                "time": 36.27717875,
                "velocity": 0.4409448818897638
              },
              {
                "duration": 0.0896739249999996,
                "durationTicks": 33,
                "midi": 67,
                "name": "G4",
                "ticks": 13380,
                "time": 36.3587005,
                "velocity": 0.4566929133858268
              },
              {
                "duration": 0.0896739249999996,
                "durationTicks": 33,
                "midi": 69,
                "name": "A4",
                "ticks": 13410,
                "time": 36.44022225,
                "velocity": 0.4645669291338583
              },
              {
                "duration": 0.16304350000000056,
                "durationTicks": 60,
                "midi": 70,
                "name": "A#4",
                "ticks": 13440,
                "time": 36.521744,
                "velocity": 0.5039370078740157
              },
              {
                "duration": 0.16304349999999346,
                "durationTicks": 60,
                "midi": 69,
                "name": "A4",
                "ticks": 13500,
                "time": 36.6847875,
                "velocity": 0.5039370078740157
              },
              {
                "duration": 0.16304350000000056,
                "durationTicks": 60,
                "midi": 67,
                "name": "G4",
                "ticks": 13560,
                "time": 36.84783099999999,
                "velocity": 0.5039370078740157
              },
              {
                "duration": 0.16304350000000056,
                "durationTicks": 60,
                "midi": 69,
                "name": "A4",
                "ticks": 13620,
                "time": 37.01087449999999,
                "velocity": 0.5039370078740157
              },
              {
                "duration": 0.16304350000000056,
                "durationTicks": 60,
                "midi": 70,
                "name": "A#4",
                "ticks": 13680,
                "time": 37.17391799999999,
                "velocity": 0.5039370078740157
              },
              {
                "duration": 0.16304350000000056,
                "durationTicks": 60,
                "midi": 72,
                "name": "C5",
                "ticks": 13740,
                "time": 37.336961499999994,
                "velocity": 0.5039370078740157
              },
              {
                "duration": 0.27173916666666287,
                "durationTicks": 100,
                "midi": 74,
                "name": "D5",
                "ticks": 13800,
                "time": 37.500004999999994,
                "velocity": 0.5039370078740157
              },
              {
                "duration": 0.05434783333333115,
                "durationTicks": 20,
                "midi": 74,
                "name": "D5",
                "ticks": 13920,
                "time": 37.826091999999996,
                "velocity": 0.5039370078740157
              },
              {
                "duration": 0.05434783333333115,
                "durationTicks": 20,
                "midi": 75,
                "name": "D#5",
                "ticks": 13940,
                "time": 37.88043983333333,
                "velocity": 0.4409448818897638
              },
              {
                "duration": 0.24456525000000084,
                "durationTicks": 90,
                "midi": 74,
                "name": "D5",
                "ticks": 13960,
                "time": 37.93478766666666,
                "velocity": 0.5039370078740157
              },
              {
                "duration": 0.3260870000000011,
                "durationTicks": 120,
                "midi": 72,
                "name": "C5",
                "ticks": 14050,
                "time": 38.17935291666666,
                "velocity": 0.5039370078740157
              },
              {
                "duration": 0.27173916666667,
                "durationTicks": 100,
                "midi": 72,
                "name": "C5",
                "ticks": 14280,
                "time": 38.80435299999999,
                "velocity": 0.5039370078740157
              },
              {
                "duration": 0.05434783333333826,
                "durationTicks": 20,
                "midi": 72,
                "name": "C5",
                "ticks": 14400,
                "time": 39.13043999999999,
                "velocity": 0.5039370078740157
              },
              {
                "duration": 0.05434783333333115,
                "durationTicks": 20,
                "midi": 74,
                "name": "D5",
                "ticks": 14420,
                "time": 39.18478783333333,
                "velocity": 0.4409448818897638
              },
              {
                "duration": 0.24456525000000084,
                "durationTicks": 90,
                "midi": 72,
                "name": "C5",
                "ticks": 14440,
                "time": 39.23913566666666,
                "velocity": 0.5039370078740157
              },
              {
                "duration": 0.326086999999994,
                "durationTicks": 120,
                "midi": 70,
                "name": "A#4",
                "ticks": 14530,
                "time": 39.48370091666666,
                "velocity": 0.5039370078740157
              },
              {
                "duration": 0.3260870000000011,
                "durationTicks": 120,
                "midi": 69,
                "name": "A4",
                "ticks": 14760,
                "time": 40.108700999999996,
                "velocity": 0.5039370078740157
              },
              {
                "duration": 0.326086999999994,
                "durationTicks": 120,
                "midi": 70,
                "name": "A#4",
                "ticks": 14880,
                "time": 40.434788,
                "velocity": 0.5039370078740157
              },
              {
                "duration": 0.4891305000000017,
                "durationTicks": 180,
                "midi": 63,
                "name": "D#4",
                "ticks": 15000,
                "time": 40.76087499999999,
                "velocity": 0.5039370078740157
              },
              {
                "duration": 0.16304350000000056,
                "durationTicks": 60,
                "midi": 60,
                "name": "C4",
                "ticks": 15180,
                "time": 41.25000549999999,
                "velocity": 0.5039370078740157
              },
              {
                "duration": 0.16304350000000056,
                "durationTicks": 60,
                "midi": 65,
                "name": "F4",
                "ticks": 15240,
                "time": 41.413048999999994,
                "velocity": 0.5039370078740157
              },
              {
                "duration": 0.16304350000000056,
                "durationTicks": 60,
                "midi": 60,
                "name": "C4",
                "ticks": 15300,
                "time": 41.576092499999994,
                "velocity": 0.5039370078740157
              },
              {
                "duration": 0.3260870000000011,
                "durationTicks": 120,
                "midi": 62,
                "name": "D4",
                "ticks": 15360,
                "time": 41.739135999999995,
                "velocity": 0.5039370078740157
              },
              {
                "duration": 0.4891305000000017,
                "durationTicks": 180,
                "midi": 70,
                "name": "A#4",
                "ticks": 15480,
                "time": 42.065222999999996,
                "velocity": 0.5039370078740157
              },
              {
                "duration": 0.16304350000000056,
                "durationTicks": 60,
                "midi": 69,
                "name": "A4",
                "ticks": 15660,
                "time": 42.5543535,
                "velocity": 0.5039370078740157
              },
              {
                "duration": 0.16304349999999346,
                "durationTicks": 60,
                "midi": 70,
                "name": "A#4",
                "ticks": 15720,
                "time": 42.717397,
                "velocity": 0.5039370078740157
              },
              {
                "duration": 0.16304350000000056,
                "durationTicks": 60,
                "midi": 65,
                "name": "F4",
                "ticks": 15780,
                "time": 42.88044049999999,
                "velocity": 0.5039370078740157
              },
              {
                "duration": 0.16304350000000056,
                "durationTicks": 60,
                "midi": 67,
                "name": "G4",
                "ticks": 15840,
                "time": 43.04348399999999,
                "velocity": 0.5039370078740157
              },
              {
                "duration": 0.16304350000000056,
                "durationTicks": 60,
                "midi": 70,
                "name": "A#4",
                "ticks": 15900,
                "time": 43.20652749999999,
                "velocity": 0.5039370078740157
              },
              {
                "duration": 0.16304350000000056,
                "durationTicks": 60,
                "midi": 75,
                "name": "D#5",
                "ticks": 15960,
                "time": 43.36957099999999,
                "velocity": 0.5039370078740157
              },
              {
                "duration": 0.16304350000000056,
                "durationTicks": 60,
                "midi": 74,
                "name": "D5",
                "ticks": 16020,
                "time": 43.532614499999994,
                "velocity": 0.5039370078740157
              },
              {
                "duration": 0.16304350000000056,
                "durationTicks": 60,
                "midi": 72,
                "name": "C5",
                "ticks": 16080,
                "time": 43.695657999999995,
                "velocity": 0.5039370078740157
              },
              {
                "duration": 0.16304350000000056,
                "durationTicks": 60,
                "midi": 70,
                "name": "A#4",
                "ticks": 16140,
                "time": 43.858701499999995,
                "velocity": 0.5039370078740157
              },
              {
                "duration": 0.16304350000000056,
                "durationTicks": 60,
                "midi": 69,
                "name": "A4",
                "ticks": 16200,
                "time": 44.021744999999996,
                "velocity": 0.5039370078740157
              },
              {
                "duration": 0.16304350000000056,
                "durationTicks": 60,
                "midi": 67,
                "name": "G4",
                "ticks": 16260,
                "time": 44.184788499999996,
                "velocity": 0.5039370078740157
              },
              {
                "duration": 0.16304350000000056,
                "durationTicks": 60,
                "midi": 65,
                "name": "F4",
                "ticks": 16320,
                "time": 44.347832,
                "velocity": 0.5039370078740157
              },
              {
                "duration": 0.16304350000000056,
                "durationTicks": 60,
                "midi": 69,
                "name": "A4",
                "ticks": 16380,
                "time": 44.5108755,
                "velocity": 0.5039370078740157
              },
              {
                "duration": 0.16304349999999346,
                "durationTicks": 60,
                "midi": 74,
                "name": "D5",
                "ticks": 16440,
                "time": 44.673919,
                "velocity": 0.5039370078740157
              },
              {
                "duration": 0.16304350000000056,
                "durationTicks": 60,
                "midi": 72,
                "name": "C5",
                "ticks": 16500,
                "time": 44.83696249999999,
                "velocity": 0.5039370078740157
              },
              {
                "duration": 0.16304350000000056,
                "durationTicks": 60,
                "midi": 70,
                "name": "A#4",
                "ticks": 16560,
                "time": 45.00000599999999,
                "velocity": 0.5039370078740157
              },
              {
                "duration": 0.16304350000000056,
                "durationTicks": 60,
                "midi": 69,
                "name": "A4",
                "ticks": 16620,
                "time": 45.16304949999999,
                "velocity": 0.5039370078740157
              },
              {
                "duration": 0.16304350000000056,
                "durationTicks": 60,
                "midi": 67,
                "name": "G4",
                "ticks": 16680,
                "time": 45.32609299999999,
                "velocity": 0.5039370078740157
              },
              {
                "duration": 0.16304350000000056,
                "durationTicks": 60,
                "midi": 65,
                "name": "F4",
                "ticks": 16740,
                "time": 45.489136499999994,
                "velocity": 0.5039370078740157
              },
              {
                "duration": 0.16304350000000056,
                "durationTicks": 60,
                "midi": 63,
                "name": "D#4",
                "ticks": 16800,
                "time": 45.652179999999994,
                "velocity": 0.5039370078740157
              },
              {
                "duration": 0.16304350000000056,
                "durationTicks": 60,
                "midi": 67,
                "name": "G4",
                "ticks": 16860,
                "time": 45.815223499999995,
                "velocity": 0.5039370078740157
              },
              {
                "duration": 0.16304350000000056,
                "durationTicks": 60,
                "midi": 72,
                "name": "C5",
                "ticks": 16920,
                "time": 45.978266999999995,
                "velocity": 0.5039370078740157
              },
              {
                "duration": 0.16304350000000056,
                "durationTicks": 60,
                "midi": 67,
                "name": "G4",
                "ticks": 16980,
                "time": 46.141310499999996,
                "velocity": 0.5039370078740157
              },
              {
                "duration": 0.4891304999999946,
                "durationTicks": 180,
                "midi": 69,
                "name": "A4",
                "ticks": 17040,
                "time": 46.304354,
                "velocity": 0.5039370078740157
              },
              {
                "duration": 0.16304350000000056,
                "durationTicks": 60,
                "midi": 69,
                "name": "A4",
                "ticks": 17220,
                "time": 46.79348449999999,
                "velocity": 0.5039370078740157
              },
              {
                "duration": 0.16304350000000056,
                "durationTicks": 60,
                "midi": 70,
                "name": "A#4",
                "ticks": 17280,
                "time": 46.95652799999999,
                "velocity": 0.5039370078740157
              },
              {
                "duration": 0.16304350000000056,
                "durationTicks": 60,
                "midi": 65,
                "name": "F4",
                "ticks": 17340,
                "time": 47.11957149999999,
                "velocity": 0.5039370078740157
              },
              {
                "duration": 0.16304350000000056,
                "durationTicks": 60,
                "midi": 67,
                "name": "G4",
                "ticks": 17400,
                "time": 47.28261499999999,
                "velocity": 0.5039370078740157
              },
              {
                "duration": 0.16304350000000056,
                "durationTicks": 60,
                "midi": 65,
                "name": "F4",
                "ticks": 17460,
                "time": 47.44565849999999,
                "velocity": 0.5039370078740157
              },
              {
                "duration": 0.7880435833333337,
                "durationTicks": 290,
                "midi": 74,
                "name": "D5",
                "ticks": 17520,
                "time": 47.608701999999994,
                "velocity": 0.5039370078740157
              },
              {
                "duration": 0.16304350000000056,
                "durationTicks": 60,
                "midi": 65,
                "name": "F4",
                "ticks": 17820,
                "time": 48.4239195,
                "velocity": 0.5039370078740157
              },
              {
                "duration": 0.16304349999999346,
                "durationTicks": 60,
                "midi": 67,
                "name": "G4",
                "ticks": 17880,
                "time": 48.586963,
                "velocity": 0.5039370078740157
              },
              {
                "duration": 0.16304350000000056,
                "durationTicks": 60,
                "midi": 65,
                "name": "F4",
                "ticks": 17940,
                "time": 48.75000649999999,
                "velocity": 0.5039370078740157
              },
              {
                "duration": 0.7880435833333337,
                "durationTicks": 290,
                "midi": 75,
                "name": "D#5",
                "ticks": 18000,
                "time": 48.91304999999999,
                "velocity": 0.5039370078740157
              },
              {
                "duration": 0.16304350000000056,
                "durationTicks": 60,
                "midi": 65,
                "name": "F4",
                "ticks": 18300,
                "time": 49.728267499999994,
                "velocity": 0.5039370078740157
              },
              {
                "duration": 0.16304350000000056,
                "durationTicks": 60,
                "midi": 70,
                "name": "A#4",
                "ticks": 18360,
                "time": 49.891310999999995,
                "velocity": 0.5039370078740157
              },
              {
                "duration": 0.16304350000000056,
                "durationTicks": 60,
                "midi": 69,
                "name": "A4",
                "ticks": 18420,
                "time": 50.054354499999995,
                "velocity": 0.5039370078740157
              },
              {
                "duration": 0.16304350000000056,
                "durationTicks": 60,
                "midi": 74,
                "name": "D5",
                "ticks": 18480,
                "time": 50.217397999999996,
                "velocity": 0.5039370078740157
              },
              {
                "duration": 0.16304350000000056,
                "durationTicks": 60,
                "midi": 72,
                "name": "C5",
                "ticks": 18540,
                "time": 50.380441499999996,
                "velocity": 0.5039370078740157
              },
              {
                "duration": 0.16304349999999346,
                "durationTicks": 60,
                "midi": 75,
                "name": "D#5",
                "ticks": 18600,
                "time": 50.543485,
                "velocity": 0.5039370078740157
              },
              {
                "duration": 0.16304350000000056,
                "durationTicks": 60,
                "midi": 74,
                "name": "D5",
                "ticks": 18660,
                "time": 50.70652849999999,
                "velocity": 0.5039370078740157
              },
              {
                "duration": 0.16304350000000056,
                "durationTicks": 60,
                "midi": 79,
                "name": "G5",
                "ticks": 18720,
                "time": 50.86957199999999,
                "velocity": 0.5039370078740157
              },
              {
                "duration": 0.16304350000000056,
                "durationTicks": 60,
                "midi": 77,
                "name": "F5",
                "ticks": 18780,
                "time": 51.03261549999999,
                "velocity": 0.5039370078740157
              },
              {
                "duration": 0.16304350000000056,
                "durationTicks": 60,
                "midi": 75,
                "name": "D#5",
                "ticks": 18840,
                "time": 51.19565899999999,
                "velocity": 0.5039370078740157
              },
              {
                "duration": 0.16304350000000056,
                "durationTicks": 60,
                "midi": 74,
                "name": "D5",
                "ticks": 18900,
                "time": 51.35870249999999,
                "velocity": 0.5039370078740157
              },
              {
                "duration": 0.16304350000000056,
                "durationTicks": 60,
                "midi": 72,
                "name": "C5",
                "ticks": 18960,
                "time": 51.52174599999999,
                "velocity": 0.5039370078740157
              },
              {
                "duration": 0.16304350000000056,
                "durationTicks": 60,
                "midi": 77,
                "name": "F5",
                "ticks": 19020,
                "time": 51.684789499999994,
                "velocity": 0.5039370078740157
              },
              {
                "duration": 0.16304350000000056,
                "durationTicks": 60,
                "midi": 75,
                "name": "D#5",
                "ticks": 19080,
                "time": 51.847832999999994,
                "velocity": 0.5039370078740157
              },
              {
                "duration": 0.16304350000000056,
                "durationTicks": 60,
                "midi": 77,
                "name": "F5",
                "ticks": 19140,
                "time": 52.010876499999995,
                "velocity": 0.5039370078740157
              },
              {
                "duration": 0.16304350000000056,
                "durationTicks": 60,
                "midi": 74,
                "name": "D5",
                "ticks": 19200,
                "time": 52.173919999999995,
                "velocity": 0.5039370078740157
              },
              {
                "duration": 0.16304350000000056,
                "durationTicks": 60,
                "midi": 72,
                "name": "C5",
                "ticks": 19260,
                "time": 52.336963499999996,
                "velocity": 0.5039370078740157
              },
              {
                "duration": 0.16304350000000056,
                "durationTicks": 60,
                "midi": 70,
                "name": "A#4",
                "ticks": 19320,
                "time": 52.500007,
                "velocity": 0.5039370078740157
              },
              {
                "duration": 0.16304349999999346,
                "durationTicks": 60,
                "midi": 69,
                "name": "A4",
                "ticks": 19380,
                "time": 52.6630505,
                "velocity": 0.5039370078740157
              },
              {
                "duration": 0.16304350000000056,
                "durationTicks": 60,
                "midi": 74,
                "name": "D5",
                "ticks": 19440,
                "time": 52.82609399999999,
                "velocity": 0.5039370078740157
              },
              {
                "duration": 0.16304350000000056,
                "durationTicks": 60,
                "midi": 72,
                "name": "C5",
                "ticks": 19500,
                "time": 52.98913749999999,
                "velocity": 0.5039370078740157
              },
              {
                "duration": 0.16304350000000056,
                "durationTicks": 60,
                "midi": 75,
                "name": "D#5",
                "ticks": 19560,
                "time": 53.15218099999999,
                "velocity": 0.5039370078740157
              },
              {
                "duration": 0.16304350000000056,
                "durationTicks": 60,
                "midi": 74,
                "name": "D5",
                "ticks": 19620,
                "time": 53.31522449999999,
                "velocity": 0.5039370078740157
              },
              {
                "duration": 0.16304350000000056,
                "durationTicks": 60,
                "midi": 72,
                "name": "C5",
                "ticks": 19680,
                "time": 53.47826799999999,
                "velocity": 0.5039370078740157
              },
              {
                "duration": 0.16304350000000056,
                "durationTicks": 60,
                "midi": 70,
                "name": "A#4",
                "ticks": 19740,
                "time": 53.64131149999999,
                "velocity": 0.5039370078740157
              },
              {
                "duration": 0.16304350000000056,
                "durationTicks": 60,
                "midi": 69,
                "name": "A4",
                "ticks": 19800,
                "time": 53.804354999999994,
                "velocity": 0.5039370078740157
              },
              {
                "duration": 0.16304350000000056,
                "durationTicks": 60,
                "midi": 72,
                "name": "C5",
                "ticks": 19860,
                "time": 53.967398499999994,
                "velocity": 0.5039370078740157
              },
              {
                "duration": 0.7880435833333266,
                "durationTicks": 290,
                "midi": 77,
                "name": "F5",
                "ticks": 19920,
                "time": 54.130441999999995,
                "velocity": 0.5039370078740157
              },
              {
                "duration": 0.16304350000000056,
                "durationTicks": 60,
                "midi": 67,
                "name": "G4",
                "ticks": 20220,
                "time": 54.94565949999999,
                "velocity": 0.5039370078740157
              },
              {
                "duration": 0.16304350000000056,
                "durationTicks": 60,
                "midi": 72,
                "name": "C5",
                "ticks": 20280,
                "time": 55.10870299999999,
                "velocity": 0.5039370078740157
              },
              {
                "duration": 0.16304350000000056,
                "durationTicks": 60,
                "midi": 71,
                "name": "B4",
                "ticks": 20340,
                "time": 55.27174649999999,
                "velocity": 0.5039370078740157
              },
              {
                "duration": 0.16304350000000056,
                "durationTicks": 60,
                "midi": 75,
                "name": "D#5",
                "ticks": 20400,
                "time": 55.43478999999999,
                "velocity": 0.5039370078740157
              },
              {
                "duration": 0.16304350000000056,
                "durationTicks": 60,
                "midi": 74,
                "name": "D5",
                "ticks": 20460,
                "time": 55.59783349999999,
                "velocity": 0.5039370078740157
              },
              {
                "duration": 0.16304350000000056,
                "durationTicks": 60,
                "midi": 77,
                "name": "F5",
                "ticks": 20520,
                "time": 55.760876999999994,
                "velocity": 0.5039370078740157
              },
              {
                "duration": 0.16304350000000056,
                "durationTicks": 60,
                "midi": 75,
                "name": "D#5",
                "ticks": 20580,
                "time": 55.923920499999994,
                "velocity": 0.5039370078740157
              },
              {
                "duration": 0.16304350000000056,
                "durationTicks": 60,
                "midi": 80,
                "name": "G#5",
                "ticks": 20640,
                "time": 56.086963999999995,
                "velocity": 0.5039370078740157
              },
              {
                "duration": 0.16304350000000056,
                "durationTicks": 60,
                "midi": 79,
                "name": "G5",
                "ticks": 20700,
                "time": 56.250007499999995,
                "velocity": 0.5039370078740157
              },
              {
                "duration": 0.16304350000000056,
                "durationTicks": 60,
                "midi": 77,
                "name": "F5",
                "ticks": 20760,
                "time": 56.413050999999996,
                "velocity": 0.5039370078740157
              },
              {
                "duration": 0.16304349999999346,
                "durationTicks": 60,
                "midi": 75,
                "name": "D#5",
                "ticks": 20820,
                "time": 56.576094499999996,
                "velocity": 0.5039370078740157
              },
              {
                "duration": 0.16304350000000056,
                "durationTicks": 60,
                "midi": 74,
                "name": "D5",
                "ticks": 20880,
                "time": 56.73913799999999,
                "velocity": 0.5039370078740157
              },
              {
                "duration": 0.16304350000000056,
                "durationTicks": 60,
                "midi": 79,
                "name": "G5",
                "ticks": 20940,
                "time": 56.90218149999999,
                "velocity": 0.5039370078740157
              },
              {
                "duration": 0.16304350000000056,
                "durationTicks": 60,
                "midi": 77,
                "name": "F5",
                "ticks": 21000,
                "time": 57.06522499999999,
                "velocity": 0.5039370078740157
              },
              {
                "duration": 0.16304350000000056,
                "durationTicks": 60,
                "midi": 79,
                "name": "G5",
                "ticks": 21060,
                "time": 57.22826849999999,
                "velocity": 0.5039370078740157
              },
              {
                "duration": 0.16304350000000056,
                "durationTicks": 60,
                "midi": 75,
                "name": "D#5",
                "ticks": 21120,
                "time": 57.39131199999999,
                "velocity": 0.5039370078740157
              },
              {
                "duration": 0.16304350000000056,
                "durationTicks": 60,
                "midi": 74,
                "name": "D5",
                "ticks": 21180,
                "time": 57.55435549999999,
                "velocity": 0.5039370078740157
              },
              {
                "duration": 0.16304350000000056,
                "durationTicks": 60,
                "midi": 72,
                "name": "C5",
                "ticks": 21240,
                "time": 57.71739899999999,
                "velocity": 0.5039370078740157
              },
              {
                "duration": 0.16304350000000056,
                "durationTicks": 60,
                "midi": 71,
                "name": "B4",
                "ticks": 21300,
                "time": 57.880442499999994,
                "velocity": 0.5039370078740157
              },
              {
                "duration": 0.16304350000000056,
                "durationTicks": 60,
                "midi": 72,
                "name": "C5",
                "ticks": 21360,
                "time": 58.043485999999994,
                "velocity": 0.5039370078740157
              },
              {
                "duration": 0.16304350000000056,
                "durationTicks": 60,
                "midi": 74,
                "name": "D5",
                "ticks": 21420,
                "time": 58.206529499999995,
                "velocity": 0.5039370078740157
              },
              {
                "duration": 0.16304350000000056,
                "durationTicks": 60,
                "midi": 75,
                "name": "D#5",
                "ticks": 21480,
                "time": 58.369572999999995,
                "velocity": 0.5039370078740157
              },
              {
                "duration": 0.16304349999999346,
                "durationTicks": 60,
                "midi": 67,
                "name": "G4",
                "ticks": 21540,
                "time": 58.532616499999996,
                "velocity": 0.5039370078740157
              },
              {
                "duration": 0.16304350000000056,
                "durationTicks": 60,
                "midi": 68,
                "name": "G#4",
                "ticks": 21600,
                "time": 58.69565999999999,
                "velocity": 0.5039370078740157
              },
              {
                "duration": 0.16304350000000056,
                "durationTicks": 60,
                "midi": 70,
                "name": "A#4",
                "ticks": 21660,
                "time": 58.85870349999999,
                "velocity": 0.5039370078740157
              },
              {
                "duration": 0.16304350000000056,
                "durationTicks": 60,
                "midi": 68,
                "name": "G#4",
                "ticks": 21720,
                "time": 59.02174699999999,
                "velocity": 0.5039370078740157
              },
              {
                "duration": 0.16304350000000056,
                "durationTicks": 60,
                "midi": 65,
                "name": "F4",
                "ticks": 21780,
                "time": 59.18479049999999,
                "velocity": 0.5039370078740157
              },
              {
                "duration": 0.16304350000000056,
                "durationTicks": 60,
                "midi": 77,
                "name": "F5",
                "ticks": 21840,
                "time": 59.34783399999999,
                "velocity": 0.5039370078740157
              },
              {
                "duration": 0.16304350000000056,
                "durationTicks": 60,
                "midi": 75,
                "name": "D#5",
                "ticks": 21900,
                "time": 59.51087749999999,
                "velocity": 0.5039370078740157
              },
              {
                "duration": 0.16304350000000056,
                "durationTicks": 60,
                "midi": 74,
                "name": "D5",
                "ticks": 21960,
                "time": 59.67392099999999,
                "velocity": 0.5039370078740157
              },
              {
                "duration": 0.16304350000000056,
                "durationTicks": 60,
                "midi": 72,
                "name": "C5",
                "ticks": 22020,
                "time": 59.83696449999999,
                "velocity": 0.5039370078740157
              },
              {
                "duration": 0.16304350000000056,
                "durationTicks": 60,
                "midi": 71,
                "name": "B4",
                "ticks": 22080,
                "time": 60.000007999999994,
                "velocity": 0.5039370078740157
              },
              {
                "duration": 0.16304350000000056,
                "durationTicks": 60,
                "midi": 80,
                "name": "G#5",
                "ticks": 22140,
                "time": 60.163051499999995,
                "velocity": 0.5039370078740157
              },
              {
                "duration": 0.16304350000000056,
                "durationTicks": 60,
                "midi": 79,
                "name": "G5",
                "ticks": 22200,
                "time": 60.326094999999995,
                "velocity": 0.5039370078740157
              },
              {
                "duration": 0.16304349999999346,
                "durationTicks": 60,
                "midi": 77,
                "name": "F5",
                "ticks": 22260,
                "time": 60.489138499999996,
                "velocity": 0.5039370078740157
              },
              {
                "duration": 0.16304350000000056,
                "durationTicks": 60,
                "midi": 75,
                "name": "D#5",
                "ticks": 22320,
                "time": 60.65218199999999,
                "velocity": 0.5039370078740157
              },
              {
                "duration": 0.16304350000000056,
                "durationTicks": 60,
                "midi": 74,
                "name": "D5",
                "ticks": 22380,
                "time": 60.81522549999999,
                "velocity": 0.5039370078740157
              },
              {
                "duration": 0.16304350000000056,
                "durationTicks": 60,
                "midi": 72,
                "name": "C5",
                "ticks": 22440,
                "time": 60.97826899999999,
                "velocity": 0.5039370078740157
              },
              {
                "duration": 0.16304350000000056,
                "durationTicks": 60,
                "midi": 71,
                "name": "B4",
                "ticks": 22500,
                "time": 61.14131249999999,
                "velocity": 0.5039370078740157
              },
              {
                "duration": 0.16304350000000056,
                "durationTicks": 60,
                "midi": 72,
                "name": "C5",
                "ticks": 22560,
                "time": 61.30435599999999,
                "velocity": 0.5039370078740157
              },
              {
                "duration": 0.16304350000000056,
                "durationTicks": 60,
                "midi": 74,
                "name": "D5",
                "ticks": 22620,
                "time": 61.46739949999999,
                "velocity": 0.5039370078740157
              },
              {
                "duration": 0.16304350000000056,
                "durationTicks": 60,
                "midi": 72,
                "name": "C5",
                "ticks": 22680,
                "time": 61.63044299999999,
                "velocity": 0.5039370078740157
              },
              {
                "duration": 0.16304350000000056,
                "durationTicks": 60,
                "midi": 74,
                "name": "D5",
                "ticks": 22740,
                "time": 61.79348649999999,
                "velocity": 0.5039370078740157
              },
              {
                "duration": 0.0896739249999996,
                "durationTicks": 33,
                "midi": 75,
                "name": "D#5",
                "ticks": 22800,
                "time": 61.956529999999994,
                "velocity": 0.3858267716535433
              },
              {
                "duration": 0.0896739249999996,
                "durationTicks": 33,
                "midi": 74,
                "name": "D5",
                "ticks": 22830,
                "time": 62.038051749999994,
                "velocity": 0.3937007874015748
              },
              {
                "duration": 0.0896739249999996,
                "durationTicks": 33,
                "midi": 75,
                "name": "D#5",
                "ticks": 22860,
                "time": 62.119573499999994,
                "velocity": 0.4094488188976378
              },
              {
                "duration": 0.0896739249999996,
                "durationTicks": 33,
                "midi": 74,
                "name": "D5",
                "ticks": 22890,
                "time": 62.201095249999995,
                "velocity": 0.41732283464566927
              },
              {
                "duration": 0.0896739249999996,
                "durationTicks": 33,
                "midi": 75,
                "name": "D#5",
                "ticks": 22920,
                "time": 62.282616999999995,
                "velocity": 0.4330708661417323
              },
              {
                "duration": 0.0896739249999996,
                "durationTicks": 33,
                "midi": 74,
                "name": "D5",
                "ticks": 22950,
                "time": 62.364138749999995,
                "velocity": 0.4409448818897638
              },
              {
                "duration": 0.0896739249999996,
                "durationTicks": 33,
                "midi": 72,
                "name": "C5",
                "ticks": 22980,
                "time": 62.445660499999995,
                "velocity": 0.4566929133858268
              },
              {
                "duration": 0.0896739249999996,
                "durationTicks": 33,
                "midi": 74,
                "name": "D5",
                "ticks": 23010,
                "time": 62.527182249999996,
                "velocity": 0.4645669291338583
              },
              {
                "duration": 0.16304350000000056,
                "durationTicks": 60,
                "midi": 75,
                "name": "D#5",
                "ticks": 23040,
                "time": 62.60870399999999,
                "velocity": 0.5039370078740157
              },
              {
                "duration": 0.16304350000000056,
                "durationTicks": 60,
                "midi": 74,
                "name": "D5",
                "ticks": 23100,
                "time": 62.77174749999999,
                "velocity": 0.5039370078740157
              },
              {
                "duration": 0.16304350000000056,
                "durationTicks": 60,
                "midi": 72,
                "name": "C5",
                "ticks": 23160,
                "time": 62.93479099999999,
                "velocity": 0.5039370078740157
              },
              {
                "duration": 0.16304350000000056,
                "durationTicks": 60,
                "midi": 74,
                "name": "D5",
                "ticks": 23220,
                "time": 63.09783449999999,
                "velocity": 0.5039370078740157
              },
              {
                "duration": 0.16304350000000056,
                "durationTicks": 60,
                "midi": 75,
                "name": "D#5",
                "ticks": 23280,
                "time": 63.26087799999999,
                "velocity": 0.5039370078740157
              },
              {
                "duration": 0.16304350000000056,
                "durationTicks": 60,
                "midi": 77,
                "name": "F5",
                "ticks": 23340,
                "time": 63.42392149999999,
                "velocity": 0.5039370078740157
              },
              {
                "duration": 0.27173916666667,
                "durationTicks": 100,
                "midi": 79,
                "name": "G5",
                "ticks": 23400,
                "time": 63.58696499999999,
                "velocity": 0.5039370078740157
              },
              {
                "duration": 0.05434783333333115,
                "durationTicks": 20,
                "midi": 79,
                "name": "G5",
                "ticks": 23520,
                "time": 63.91305199999999,
                "velocity": 0.5039370078740157
              },
              {
                "duration": 0.05434783333333115,
                "durationTicks": 20,
                "midi": 80,
                "name": "G#5",
                "ticks": 23540,
                "time": 63.967399833333324,
                "velocity": 0.4409448818897638
              },
              {
                "duration": 0.24456525000000795,
                "durationTicks": 90,
                "midi": 79,
                "name": "G5",
                "ticks": 23560,
                "time": 64.02174766666666,
                "velocity": 0.5039370078740157
              },
              {
                "duration": 0.3260870000000011,
                "durationTicks": 120,
                "midi": 77,
                "name": "F5",
                "ticks": 23650,
                "time": 64.26631291666666,
                "velocity": 0.5039370078740157
              },
              {
                "duration": 0.27173916666666287,
                "durationTicks": 100,
                "midi": 77,
                "name": "F5",
                "ticks": 23880,
                "time": 64.891313,
                "velocity": 0.5039370078740157
              },
              {
                "duration": 0.05434783333332405,
                "durationTicks": 20,
                "midi": 77,
                "name": "F5",
                "ticks": 24000,
                "time": 65.2174,
                "velocity": 0.5039370078740157
              },
              {
                "duration": 0.05434783333333826,
                "durationTicks": 20,
                "midi": 79,
                "name": "G5",
                "ticks": 24020,
                "time": 65.27174783333332,
                "velocity": 0.4409448818897638
              },
              {
                "duration": 0.24456525000000795,
                "durationTicks": 90,
                "midi": 77,
                "name": "F5",
                "ticks": 24040,
                "time": 65.32609566666666,
                "velocity": 0.5039370078740157
              },
              {
                "duration": 0.16304349999998635,
                "durationTicks": 60,
                "midi": 75,
                "name": "D#5",
                "ticks": 24120,
                "time": 65.543487,
                "velocity": 0.5039370078740157
              },
              {
                "duration": 0.16304350000000056,
                "durationTicks": 60,
                "midi": 74,
                "name": "D5",
                "ticks": 24180,
                "time": 65.70653049999999,
                "velocity": 0.5039370078740157
              },
              {
                "duration": 0.16304350000000056,
                "durationTicks": 60,
                "midi": 79,
                "name": "G5",
                "ticks": 24240,
                "time": 65.86957399999999,
                "velocity": 0.5039370078740157
              },
              {
                "duration": 0.16304350000000056,
                "durationTicks": 60,
                "midi": 77,
                "name": "F5",
                "ticks": 24300,
                "time": 66.03261749999999,
                "velocity": 0.5039370078740157
              },
              {
                "duration": 0.16304350000000056,
                "durationTicks": 60,
                "midi": 80,
                "name": "G#5",
                "ticks": 24360,
                "time": 66.19566099999999,
                "velocity": 0.5039370078740157
              },
              {
                "duration": 0.13586958333333143,
                "durationTicks": 50,
                "midi": 79,
                "name": "G5",
                "ticks": 24420,
                "time": 66.35870449999999,
                "velocity": 0.5039370078740157
              },
              {
                "duration": 0.4891305000000017,
                "durationTicks": 180,
                "midi": 79,
                "name": "G5",
                "ticks": 24480,
                "time": 66.52174799999999,
                "velocity": 0.5039370078740157
              },
              {
                "duration": 0.16304350000000056,
                "durationTicks": 60,
                "midi": 80,
                "name": "G#5",
                "ticks": 24660,
                "time": 67.01087849999999,
                "velocity": 0.5039370078740157
              },
              {
                "duration": 0.05434783333333826,
                "durationTicks": 20,
                "midi": 74,
                "name": "D5",
                "ticks": 24720,
                "time": 67.17392199999999,
                "velocity": 0.5039370078740157
              },
              {
                "duration": 0.0597826166666664,
                "durationTicks": 22,
                "midi": 75,
                "name": "D#5",
                "ticks": 24740,
                "time": 67.22826983333333,
                "velocity": 0.3779527559055118
              },
              {
                "duration": 0.0597826166666664,
                "durationTicks": 22,
                "midi": 74,
                "name": "D5",
                "ticks": 24760,
                "time": 67.28261766666667,
                "velocity": 0.3937007874015748
              },
              {
                "duration": 0.0597826166666664,
                "durationTicks": 22,
                "midi": 75,
                "name": "D#5",
                "ticks": 24780,
                "time": 67.33696549999999,
                "velocity": 0.4094488188976378
              },
              {
                "duration": 0.05978261666668061,
                "durationTicks": 22,
                "midi": 74,
                "name": "D5",
                "ticks": 24800,
                "time": 67.39131333333331,
                "velocity": 0.4251968503937008
              },
              {
                "duration": 0.0597826166666664,
                "durationTicks": 22,
                "midi": 75,
                "name": "D#5",
                "ticks": 24820,
                "time": 67.44566116666667,
                "velocity": 0.4409448818897638
              },
              {
                "duration": 0.1793478499999992,
                "durationTicks": 66,
                "midi": 74,
                "name": "D5",
                "ticks": 24840,
                "time": 67.50000899999999,
                "velocity": 0.4566929133858268
              },
              {
                "duration": 0.16304350000000056,
                "durationTicks": 60,
                "midi": 72,
                "name": "C5",
                "ticks": 24900,
                "time": 67.66305249999999,
                "velocity": 0.5039370078740157
              },
              {
                "duration": 2.608695999999995,
                "durationTicks": 960,
                "midi": 72,
                "name": "C5",
                "ticks": 24960,
                "time": 67.82609599999999,
                "velocity": 0.5039370078740157
              }
            ],
            "endOfTrackTicks": 25920
          },
          {
            "channel": 1,
            "controlChanges": {},
            "pitchBends": [],
            "instrument": {
              "family": "piano",
              "number": 0,
              "name": "acoustic grand piano"
            },
            "name": "",
            "notes": [
              {
                "duration": 0.16304349999999967,
                "durationTicks": 60,
                "midi": 60,
                "name": "C4",
                "ticks": 2040,
                "time": 5.543479,
                "velocity": 0.5039370078740157
              },
              {
                "duration": 0.16304349999999967,
                "durationTicks": 60,
                "midi": 59,
                "name": "B3",
                "ticks": 2100,
                "time": 5.706522499999999,
                "velocity": 0.5039370078740157
              },
              {
                "duration": 0.16304350000000056,
                "durationTicks": 60,
                "midi": 60,
                "name": "C4",
                "ticks": 2160,
                "time": 5.869565999999999,
                "velocity": 0.5039370078740157
              },
              {
                "duration": 0.16304349999999967,
                "durationTicks": 60,
                "midi": 62,
                "name": "D4",
                "ticks": 2220,
                "time": 6.0326094999999995,
                "velocity": 0.5039370078740157
              },
              {
                "duration": 0.16304349999999967,
                "durationTicks": 60,
                "midi": 63,
                "name": "D#4",
                "ticks": 2280,
                "time": 6.195652999999999,
                "velocity": 0.5039370078740157
              },
              {
                "duration": 0.16304350000000056,
                "durationTicks": 60,
                "midi": 55,
                "name": "G3",
                "ticks": 2340,
                "time": 6.358696499999999,
                "velocity": 0.5039370078740157
              },
              {
                "duration": 0.16304349999999967,
                "durationTicks": 60,
                "midi": 56,
                "name": "G#3",
                "ticks": 2400,
                "time": 6.521739999999999,
                "velocity": 0.5039370078740157
              },
              {
                "duration": 0.16304349999999967,
                "durationTicks": 60,
                "midi": 58,
                "name": "A#3",
                "ticks": 2460,
                "time": 6.684783499999999,
                "velocity": 0.5039370078740157
              },
              {
                "duration": 0.16304350000000056,
                "durationTicks": 60,
                "midi": 56,
                "name": "G#3",
                "ticks": 2520,
                "time": 6.847826999999999,
                "velocity": 0.5039370078740157
              },
              {
                "duration": 0.16304349999999967,
                "durationTicks": 60,
                "midi": 53,
                "name": "F3",
                "ticks": 2580,
                "time": 7.010870499999999,
                "velocity": 0.5039370078740157
              },
              {
                "duration": 0.16304349999999967,
                "durationTicks": 60,
                "midi": 65,
                "name": "F4",
                "ticks": 2640,
                "time": 7.173913999999999,
                "velocity": 0.5039370078740157
              },
              {
                "duration": 0.16304350000000056,
                "durationTicks": 60,
                "midi": 63,
                "name": "D#4",
                "ticks": 2700,
                "time": 7.336957499999999,
                "velocity": 0.5039370078740157
              },
              {
                "duration": 0.16304349999999967,
                "durationTicks": 60,
                "midi": 62,
                "name": "D4",
                "ticks": 2760,
                "time": 7.500000999999999,
                "velocity": 0.5039370078740157
              },
              {
                "duration": 0.16304349999999967,
                "durationTicks": 60,
                "midi": 60,
                "name": "C4",
                "ticks": 2820,
                "time": 7.663044499999999,
                "velocity": 0.5039370078740157
              },
              {
                "duration": 0.16304350000000056,
                "durationTicks": 60,
                "midi": 59,
                "name": "B3",
                "ticks": 2880,
                "time": 7.826087999999999,
                "velocity": 0.5039370078740157
              },
              {
                "duration": 0.16304350000000056,
                "durationTicks": 60,
                "midi": 68,
                "name": "G#4",
                "ticks": 2940,
                "time": 7.989131499999999,
                "velocity": 0.5039370078740157
              },
              {
                "duration": 0.1630434999999988,
                "durationTicks": 60,
                "midi": 67,
                "name": "G4",
                "ticks": 3000,
                "time": 8.152175,
                "velocity": 0.5039370078740157
              },
              {
                "duration": 0.16304350000000056,
                "durationTicks": 60,
                "midi": 65,
                "name": "F4",
                "ticks": 3060,
                "time": 8.315218499999999,
                "velocity": 0.5039370078740157
              },
              {
                "duration": 0.16304350000000056,
                "durationTicks": 60,
                "midi": 63,
                "name": "D#4",
                "ticks": 3120,
                "time": 8.478261999999999,
                "velocity": 0.5039370078740157
              },
              {
                "duration": 0.1630434999999988,
                "durationTicks": 60,
                "midi": 62,
                "name": "D4",
                "ticks": 3180,
                "time": 8.6413055,
                "velocity": 0.5039370078740157
              },
              {
                "duration": 0.16304350000000056,
                "durationTicks": 60,
                "midi": 60,
                "name": "C4",
                "ticks": 3240,
                "time": 8.804348999999998,
                "velocity": 0.5039370078740157
              },
              {
                "duration": 0.16304350000000056,
                "durationTicks": 60,
                "midi": 59,
                "name": "B3",
                "ticks": 3300,
                "time": 8.967392499999999,
                "velocity": 0.5039370078740157
              },
              {
                "duration": 0.1630434999999988,
                "durationTicks": 60,
                "midi": 60,
                "name": "C4",
                "ticks": 3360,
                "time": 9.130436,
                "velocity": 0.5039370078740157
              },
              {
                "duration": 0.16304350000000056,
                "durationTicks": 60,
                "midi": 62,
                "name": "D4",
                "ticks": 3420,
                "time": 9.293479499999998,
                "velocity": 0.5039370078740157
              },
              {
                "duration": 0.16304350000000056,
                "durationTicks": 60,
                "midi": 60,
                "name": "C4",
                "ticks": 3480,
                "time": 9.456522999999999,
                "velocity": 0.5039370078740157
              },
              {
                "duration": 0.1630434999999988,
                "durationTicks": 60,
                "midi": 62,
                "name": "D4",
                "ticks": 3540,
                "time": 9.6195665,
                "velocity": 0.5039370078740157
              },
              {
                "duration": 0.0896739249999996,
                "durationTicks": 33,
                "midi": 63,
                "name": "D#4",
                "ticks": 3600,
                "time": 9.782609999999998,
                "velocity": 0.3858267716535433
              },
              {
                "duration": 0.0896739249999996,
                "durationTicks": 33,
                "midi": 62,
                "name": "D4",
                "ticks": 3630,
                "time": 9.864131749999999,
                "velocity": 0.3937007874015748
              },
              {
                "duration": 0.0896739249999996,
                "durationTicks": 33,
                "midi": 63,
                "name": "D#4",
                "ticks": 3660,
                "time": 9.945653499999999,
                "velocity": 0.4094488188976378
              },
              {
                "duration": 0.0896739249999996,
                "durationTicks": 33,
                "midi": 62,
                "name": "D4",
                "ticks": 3690,
                "time": 10.027175249999999,
                "velocity": 0.41732283464566927
              },
              {
                "duration": 0.0896739249999996,
                "durationTicks": 33,
                "midi": 63,
                "name": "D#4",
                "ticks": 3720,
                "time": 10.108697,
                "velocity": 0.4330708661417323
              },
              {
                "duration": 0.0896739249999996,
                "durationTicks": 33,
                "midi": 62,
                "name": "D4",
                "ticks": 3750,
                "time": 10.190218749999998,
                "velocity": 0.4409448818897638
              },
              {
                "duration": 0.0896739249999996,
                "durationTicks": 33,
                "midi": 60,
                "name": "C4",
                "ticks": 3780,
                "time": 10.271740499999998,
                "velocity": 0.4566929133858268
              },
              {
                "duration": 0.0896739249999996,
                "durationTicks": 33,
                "midi": 62,
                "name": "D4",
                "ticks": 3810,
                "time": 10.353262249999998,
                "velocity": 0.4645669291338583
              },
              {
                "duration": 0.16304350000000056,
                "durationTicks": 60,
                "midi": 63,
                "name": "D#4",
                "ticks": 3840,
                "time": 10.434783999999999,
                "velocity": 0.5039370078740157
              },
              {
                "duration": 0.1630434999999988,
                "durationTicks": 60,
                "midi": 62,
                "name": "D4",
                "ticks": 3900,
                "time": 10.5978275,
                "velocity": 0.5039370078740157
              },
              {
                "duration": 0.16304350000000056,
                "durationTicks": 60,
                "midi": 60,
                "name": "C4",
                "ticks": 3960,
                "time": 10.760870999999998,
                "velocity": 0.5039370078740157
              },
              {
                "duration": 0.16304350000000056,
                "durationTicks": 60,
                "midi": 62,
                "name": "D4",
                "ticks": 4020,
                "time": 10.923914499999999,
                "velocity": 0.5039370078740157
              },
              {
                "duration": 0.1630434999999988,
                "durationTicks": 60,
                "midi": 63,
                "name": "D#4",
                "ticks": 4080,
                "time": 11.086958,
                "velocity": 0.5039370078740157
              },
              {
                "duration": 0.16304350000000056,
                "durationTicks": 60,
                "midi": 65,
                "name": "F4",
                "ticks": 4140,
                "time": 11.250001499999998,
                "velocity": 0.5039370078740157
              },
              {
                "duration": 0.2717391666666682,
                "durationTicks": 100,
                "midi": 67,
                "name": "G4",
                "ticks": 4200,
                "time": 11.413044999999999,
                "velocity": 0.5039370078740157
              },
              {
                "duration": 0.05434783333333293,
                "durationTicks": 20,
                "midi": 67,
                "name": "G4",
                "ticks": 4320,
                "time": 11.739131999999998,
                "velocity": 0.5039370078740157
              },
              {
                "duration": 0.054347833333334705,
                "durationTicks": 20,
                "midi": 68,
                "name": "G#4",
                "ticks": 4340,
                "time": 11.79347983333333,
                "velocity": 0.4409448818897638
              },
              {
                "duration": 0.24456525000000084,
                "durationTicks": 90,
                "midi": 67,
                "name": "G4",
                "ticks": 4360,
                "time": 11.847827666666666,
                "velocity": 0.5039370078740157
              },
              {
                "duration": 0.32608699999999935,
                "durationTicks": 120,
                "midi": 65,
                "name": "F4",
                "ticks": 4450,
                "time": 12.092392916666666,
                "velocity": 0.5039370078740157
              },
              {
                "duration": 0.2717391666666682,
                "durationTicks": 100,
                "midi": 65,
                "name": "F4",
                "ticks": 4680,
                "time": 12.717392999999998,
                "velocity": 0.5039370078740157
              },
              {
                "duration": 0.05434783333333293,
                "durationTicks": 20,
                "midi": 65,
                "name": "F4",
                "ticks": 4800,
                "time": 13.043479999999999,
                "velocity": 0.5039370078740157
              },
              {
                "duration": 0.054347833333334705,
                "durationTicks": 20,
                "midi": 67,
                "name": "G4",
                "ticks": 4820,
                "time": 13.097827833333332,
                "velocity": 0.4409448818897638
              },
              {
                "duration": 0.24456524999999907,
                "durationTicks": 90,
                "midi": 65,
                "name": "F4",
                "ticks": 4840,
                "time": 13.152175666666666,
                "velocity": 0.5039370078740157
              },
              {
                "duration": 0.32608699999999935,
                "durationTicks": 120,
                "midi": 63,
                "name": "D#4",
                "ticks": 4930,
                "time": 13.396740916666666,
                "velocity": 0.5039370078740157
              },
              {
                "duration": 0.32608699999999935,
                "durationTicks": 120,
                "midi": 62,
                "name": "D4",
                "ticks": 5160,
                "time": 14.021740999999999,
                "velocity": 0.5039370078740157
              },
              {
                "duration": 0.32608699999999935,
                "durationTicks": 120,
                "midi": 63,
                "name": "D#4",
                "ticks": 5280,
                "time": 14.347827999999998,
                "velocity": 0.5039370078740157
              },
              {
                "duration": 0.4891304999999999,
                "durationTicks": 180,
                "midi": 56,
                "name": "G#3",
                "ticks": 5400,
                "time": 14.673914999999997,
                "velocity": 0.5039370078740157
              },
              {
                "duration": 0.16304350000000056,
                "durationTicks": 60,
                "midi": 53,
                "name": "F3",
                "ticks": 5580,
                "time": 15.163045499999997,
                "velocity": 0.5039370078740157
              },
              {
                "duration": 0.16304350000000056,
                "durationTicks": 60,
                "midi": 58,
                "name": "A#3",
                "ticks": 5640,
                "time": 15.326088999999998,
                "velocity": 0.5039370078740157
              },
              {
                "duration": 0.1630434999999988,
                "durationTicks": 60,
                "midi": 53,
                "name": "F3",
                "ticks": 5700,
                "time": 15.489132499999998,
                "velocity": 0.5039370078740157
              },
              {
                "duration": 0.3260870000000011,
                "durationTicks": 120,
                "midi": 55,
                "name": "G3",
                "ticks": 5760,
                "time": 15.652175999999997,
                "velocity": 0.5039370078740157
              },
              {
                "duration": 0.48913049999999814,
                "durationTicks": 180,
                "midi": 63,
                "name": "D#4",
                "ticks": 5880,
                "time": 15.978262999999998,
                "velocity": 0.5039370078740157
              },
              {
                "duration": 0.16304350000000056,
                "durationTicks": 60,
                "midi": 62,
                "name": "D4",
                "ticks": 6060,
                "time": 16.467393499999996,
                "velocity": 0.5039370078740157
              },
              {
                "duration": 0.16304350000000056,
                "durationTicks": 60,
                "midi": 63,
                "name": "D#4",
                "ticks": 6120,
                "time": 16.630436999999997,
                "velocity": 0.5039370078740157
              },
              {
                "duration": 0.16304350000000056,
                "durationTicks": 60,
                "midi": 58,
                "name": "A#3",
                "ticks": 6180,
                "time": 16.793480499999998,
                "velocity": 0.5039370078740157
              },
              {
                "duration": 0.16304350000000056,
                "durationTicks": 60,
                "midi": 60,
                "name": "C4",
                "ticks": 6240,
                "time": 16.956523999999998,
                "velocity": 0.5039370078740157
              },
              {
                "duration": 0.16304350000000056,
                "durationTicks": 60,
                "midi": 63,
                "name": "D#4",
                "ticks": 6300,
                "time": 17.1195675,
                "velocity": 0.5039370078740157
              },
              {
                "duration": 0.163043499999997,
                "durationTicks": 60,
                "midi": 68,
                "name": "G#4",
                "ticks": 6360,
                "time": 17.282611,
                "velocity": 0.5039370078740157
              },
              {
                "duration": 0.16304350000000056,
                "durationTicks": 60,
                "midi": 67,
                "name": "G4",
                "ticks": 6420,
                "time": 17.445654499999996,
                "velocity": 0.5039370078740157
              },
              {
                "duration": 0.16304350000000056,
                "durationTicks": 60,
                "midi": 65,
                "name": "F4",
                "ticks": 6480,
                "time": 17.608697999999997,
                "velocity": 0.5039370078740157
              },
              {
                "duration": 0.16304350000000056,
                "durationTicks": 60,
                "midi": 63,
                "name": "D#4",
                "ticks": 6540,
                "time": 17.771741499999997,
                "velocity": 0.5039370078740157
              },
              {
                "duration": 0.16304350000000056,
                "durationTicks": 60,
                "midi": 62,
                "name": "D4",
                "ticks": 6600,
                "time": 17.934784999999998,
                "velocity": 0.5039370078740157
              },
              {
                "duration": 0.16304350000000056,
                "durationTicks": 60,
                "midi": 60,
                "name": "C4",
                "ticks": 6660,
                "time": 18.0978285,
                "velocity": 0.5039370078740157
              },
              {
                "duration": 0.163043499999997,
                "durationTicks": 60,
                "midi": 58,
                "name": "A#3",
                "ticks": 6720,
                "time": 18.260872,
                "velocity": 0.5039370078740157
              },
              {
                "duration": 0.16304350000000056,
                "durationTicks": 60,
                "midi": 62,
                "name": "D4",
                "ticks": 6780,
                "time": 18.423915499999996,
                "velocity": 0.5039370078740157
              },
              {
                "duration": 0.16304350000000056,
                "durationTicks": 60,
                "midi": 67,
                "name": "G4",
                "ticks": 6840,
                "time": 18.586958999999997,
                "velocity": 0.5039370078740157
              },
              {
                "duration": 0.16304350000000056,
                "durationTicks": 60,
                "midi": 65,
                "name": "F4",
                "ticks": 6900,
                "time": 18.750002499999997,
                "velocity": 0.5039370078740157
              },
              {
                "duration": 0.16304350000000056,
                "durationTicks": 60,
                "midi": 63,
                "name": "D#4",
                "ticks": 6960,
                "time": 18.913045999999998,
                "velocity": 0.5039370078740157
              },
              {
                "duration": 0.16304350000000056,
                "durationTicks": 60,
                "midi": 62,
                "name": "D4",
                "ticks": 7020,
                "time": 19.0760895,
                "velocity": 0.5039370078740157
              },
              {
                "duration": 0.163043499999997,
                "durationTicks": 60,
                "midi": 60,
                "name": "C4",
                "ticks": 7080,
                "time": 19.239133,
                "velocity": 0.5039370078740157
              },
              {
                "duration": 0.16304350000000056,
                "durationTicks": 60,
                "midi": 58,
                "name": "A#3",
                "ticks": 7140,
                "time": 19.402176499999996,
                "velocity": 0.5039370078740157
              },
              {
                "duration": 0.16304350000000056,
                "durationTicks": 60,
                "midi": 56,
                "name": "G#3",
                "ticks": 7200,
                "time": 19.565219999999997,
                "velocity": 0.5039370078740157
              },
              {
                "duration": 0.16304350000000056,
                "durationTicks": 60,
                "midi": 60,
                "name": "C4",
                "ticks": 7260,
                "time": 19.728263499999997,
                "velocity": 0.5039370078740157
              },
              {
                "duration": 0.16304350000000056,
                "durationTicks": 60,
                "midi": 65,
                "name": "F4",
                "ticks": 7320,
                "time": 19.891306999999998,
                "velocity": 0.5039370078740157
              },
              {
                "duration": 0.16304350000000056,
                "durationTicks": 60,
                "midi": 63,
                "name": "D#4",
                "ticks": 7380,
                "time": 20.054350499999998,
                "velocity": 0.5039370078740157
              },
              {
                "duration": 0.08152175000000028,
                "durationTicks": 30,
                "midi": 62,
                "name": "D4",
                "ticks": 7440,
                "time": 20.217394,
                "velocity": 0.5039370078740157
              },
              {
                "duration": 0.08152174999999673,
                "durationTicks": 30,
                "midi": 63,
                "name": "D#4",
                "ticks": 7470,
                "time": 20.29891575,
                "velocity": 0.4409448818897638
              },
              {
                "duration": 0.29891308333333555,
                "durationTicks": 110,
                "midi": 62,
                "name": "D4",
                "ticks": 7500,
                "time": 20.380437499999996,
                "velocity": 0.5039370078740157
              },
              {
                "duration": 0.16304350000000056,
                "durationTicks": 60,
                "midi": 62,
                "name": "D4",
                "ticks": 7620,
                "time": 20.706524499999997,
                "velocity": 0.5039370078740157
              },
              {
                "duration": 0.16304350000000056,
                "durationTicks": 60,
                "midi": 63,
                "name": "D#4",
                "ticks": 7680,
                "time": 20.869567999999997,
                "velocity": 0.5039370078740157
              },
              {
                "duration": 0.16304350000000056,
                "durationTicks": 60,
                "midi": 58,
                "name": "A#3",
                "ticks": 7740,
                "time": 21.032611499999998,
                "velocity": 0.5039370078740157
              },
              {
                "duration": 0.16304350000000056,
                "durationTicks": 60,
                "midi": 60,
                "name": "C4",
                "ticks": 7800,
                "time": 21.195655,
                "velocity": 0.5039370078740157
              },
              {
                "duration": 0.163043499999997,
                "durationTicks": 60,
                "midi": 58,
                "name": "A#3",
                "ticks": 7860,
                "time": 21.3586985,
                "velocity": 0.5039370078740157
              },
              {
                "duration": 0.7880435833333372,
                "durationTicks": 290,
                "midi": 67,
                "name": "G4",
                "ticks": 7920,
                "time": 21.521741999999996,
                "velocity": 0.5039370078740157
              },
              {
                "duration": 0.163043499999997,
                "durationTicks": 60,
                "midi": 58,
                "name": "A#3",
                "ticks": 8220,
                "time": 22.3369595,
                "velocity": 0.5039370078740157
              },
              {
                "duration": 0.16304350000000056,
                "durationTicks": 60,
                "midi": 60,
                "name": "C4",
                "ticks": 8280,
                "time": 22.500002999999996,
                "velocity": 0.5039370078740157
              },
              {
                "duration": 0.16304350000000056,
                "durationTicks": 60,
                "midi": 58,
                "name": "A#3",
                "ticks": 8340,
                "time": 22.663046499999997,
                "velocity": 0.5039370078740157
              },
              {
                "duration": 0.7880435833333337,
                "durationTicks": 290,
                "midi": 68,
                "name": "G#4",
                "ticks": 8400,
                "time": 22.826089999999997,
                "velocity": 0.5039370078740157
              },
              {
                "duration": 0.16304350000000056,
                "durationTicks": 60,
                "midi": 58,
                "name": "A#3",
                "ticks": 8700,
                "time": 23.641307499999996,
                "velocity": 0.5039370078740157
              },
              {
                "duration": 0.16304350000000056,
                "durationTicks": 60,
                "midi": 63,
                "name": "D#4",
                "ticks": 8760,
                "time": 23.804350999999997,
                "velocity": 0.5039370078740157
              },
              {
                "duration": 0.16304350000000056,
                "durationTicks": 60,
                "midi": 62,
                "name": "D4",
                "ticks": 8820,
                "time": 23.967394499999997,
                "velocity": 0.5039370078740157
              },
              {
                "duration": 0.16304350000000056,
                "durationTicks": 60,
                "midi": 67,
                "name": "G4",
                "ticks": 8880,
                "time": 24.130437999999998,
                "velocity": 0.5039370078740157
              },
              {
                "duration": 0.163043499999997,
                "durationTicks": 60,
                "midi": 65,
                "name": "F4",
                "ticks": 8940,
                "time": 24.2934815,
                "velocity": 0.5039370078740157
              },
              {
                "duration": 0.16304350000000056,
                "durationTicks": 60,
                "midi": 68,
                "name": "G#4",
                "ticks": 9000,
                "time": 24.456524999999996,
                "velocity": 0.5039370078740157
              },
              {
                "duration": 0.16304350000000056,
                "durationTicks": 60,
                "midi": 67,
                "name": "G4",
                "ticks": 9060,
                "time": 24.619568499999996,
                "velocity": 0.5039370078740157
              },
              {
                "duration": 0.16304350000000056,
                "durationTicks": 60,
                "midi": 72,
                "name": "C5",
                "ticks": 9120,
                "time": 24.782611999999997,
                "velocity": 0.5039370078740157
              },
              {
                "duration": 0.16304350000000056,
                "durationTicks": 60,
                "midi": 70,
                "name": "A#4",
                "ticks": 9180,
                "time": 24.945655499999997,
                "velocity": 0.5039370078740157
              },
              {
                "duration": 0.16304350000000056,
                "durationTicks": 60,
                "midi": 68,
                "name": "G#4",
                "ticks": 9240,
                "time": 25.108698999999998,
                "velocity": 0.5039370078740157
              },
              {
                "duration": 0.163043499999997,
                "durationTicks": 60,
                "midi": 67,
                "name": "G4",
                "ticks": 9300,
                "time": 25.2717425,
                "velocity": 0.5039370078740157
              },
              {
                "duration": 0.16304350000000056,
                "durationTicks": 60,
                "midi": 65,
                "name": "F4",
                "ticks": 9360,
                "time": 25.434785999999995,
                "velocity": 0.5039370078740157
              },
              {
                "duration": 0.16304350000000056,
                "durationTicks": 60,
                "midi": 70,
                "name": "A#4",
                "ticks": 9420,
                "time": 25.597829499999996,
                "velocity": 0.5039370078740157
              },
              {
                "duration": 0.16304350000000056,
                "durationTicks": 60,
                "midi": 68,
                "name": "G#4",
                "ticks": 9480,
                "time": 25.760872999999997,
                "velocity": 0.5039370078740157
              },
              {
                "duration": 0.16304350000000056,
                "durationTicks": 60,
                "midi": 70,
                "name": "A#4",
                "ticks": 9540,
                "time": 25.923916499999997,
                "velocity": 0.5039370078740157
              },
              {
                "duration": 0.3260869999999976,
                "durationTicks": 120,
                "midi": 67,
                "name": "G4",
                "ticks": 9600,
                "time": 26.086959999999998,
                "velocity": 0.5039370078740157
              },
              {
                "duration": 0.16304350000000056,
                "durationTicks": 60,
                "midi": 51,
                "name": "D#3",
                "ticks": 9720,
                "time": 26.413046999999995,
                "velocity": 0.5039370078740157
              },
              {
                "duration": 0.16304350000000056,
                "durationTicks": 60,
                "midi": 53,
                "name": "F3",
                "ticks": 9780,
                "time": 26.576090499999996,
                "velocity": 0.5039370078740157
              },
              {
                "duration": 0.16304350000000056,
                "durationTicks": 60,
                "midi": 55,
                "name": "G3",
                "ticks": 9840,
                "time": 26.739133999999996,
                "velocity": 0.5039370078740157
              },
              {
                "duration": 0.16304350000000056,
                "durationTicks": 60,
                "midi": 57,
                "name": "A3",
                "ticks": 9900,
                "time": 26.902177499999997,
                "velocity": 0.5039370078740157
              },
              {
                "duration": 0.16304350000000056,
                "durationTicks": 60,
                "midi": 58,
                "name": "A#3",
                "ticks": 9960,
                "time": 27.065220999999998,
                "velocity": 0.5039370078740157
              },
              {
                "duration": 0.163043499999997,
                "durationTicks": 60,
                "midi": 50,
                "name": "D3",
                "ticks": 10020,
                "time": 27.228264499999998,
                "velocity": 0.5039370078740157
              },
              {
                "duration": 0.16304350000000056,
                "durationTicks": 60,
                "midi": 51,
                "name": "D#3",
                "ticks": 10080,
                "time": 27.391307999999995,
                "velocity": 0.5039370078740157
              },
              {
                "duration": 0.16304350000000056,
                "durationTicks": 60,
                "midi": 53,
                "name": "F3",
                "ticks": 10140,
                "time": 27.554351499999996,
                "velocity": 0.5039370078740157
              },
              {
                "duration": 0.16304350000000056,
                "durationTicks": 60,
                "midi": 51,
                "name": "D#3",
                "ticks": 10200,
                "time": 27.717394999999996,
                "velocity": 0.5039370078740157
              },
              {
                "duration": 0.16304350000000056,
                "durationTicks": 60,
                "midi": 48,
                "name": "C3",
                "ticks": 10260,
                "time": 27.880438499999997,
                "velocity": 0.5039370078740157
              },
              {
                "duration": 0.16304350000000056,
                "durationTicks": 60,
                "midi": 60,
                "name": "C4",
                "ticks": 10320,
                "time": 28.043481999999997,
                "velocity": 0.5039370078740157
              },
              {
                "duration": 0.163043499999997,
                "durationTicks": 60,
                "midi": 58,
                "name": "A#3",
                "ticks": 10380,
                "time": 28.206525499999998,
                "velocity": 0.5039370078740157
              },
              {
                "duration": 0.16304350000000056,
                "durationTicks": 60,
                "midi": 57,
                "name": "A3",
                "ticks": 10440,
                "time": 28.369568999999995,
                "velocity": 0.5039370078740157
              },
              {
                "duration": 0.16304350000000056,
                "durationTicks": 60,
                "midi": 55,
                "name": "G3",
                "ticks": 10500,
                "time": 28.532612499999995,
                "velocity": 0.5039370078740157
              },
              {
                "duration": 0.16304350000000056,
                "durationTicks": 60,
                "midi": 54,
                "name": "F#3",
                "ticks": 10560,
                "time": 28.695655999999996,
                "velocity": 0.5039370078740157
              },
              {
                "duration": 0.16304350000000056,
                "durationTicks": 60,
                "midi": 63,
                "name": "D#4",
                "ticks": 10620,
                "time": 28.858699499999997,
                "velocity": 0.5039370078740157
              },
              {
                "duration": 0.16304350000000056,
                "durationTicks": 60,
                "midi": 62,
                "name": "D4",
                "ticks": 10680,
                "time": 29.021742999999997,
                "velocity": 0.5039370078740157
              },
              {
                "duration": 0.163043499999997,
                "durationTicks": 60,
                "midi": 60,
                "name": "C4",
                "ticks": 10740,
                "time": 29.184786499999998,
                "velocity": 0.5039370078740157
              },
              {
                "duration": 0.16304350000000056,
                "durationTicks": 60,
                "midi": 58,
                "name": "A#3",
                "ticks": 10800,
                "time": 29.347829999999995,
                "velocity": 0.5039370078740157
              },
              {
                "duration": 0.16304350000000056,
                "durationTicks": 60,
                "midi": 57,
                "name": "A3",
                "ticks": 10860,
                "time": 29.510873499999995,
                "velocity": 0.5039370078740157
              },
              {
                "duration": 0.16304350000000056,
                "durationTicks": 60,
                "midi": 55,
                "name": "G3",
                "ticks": 10920,
                "time": 29.673916999999996,
                "velocity": 0.5039370078740157
              },
              {
                "duration": 0.16304350000000056,
                "durationTicks": 60,
                "midi": 54,
                "name": "F#3",
                "ticks": 10980,
                "time": 29.836960499999996,
                "velocity": 0.5039370078740157
              },
              {
                "duration": 0.16304350000000056,
                "durationTicks": 60,
                "midi": 55,
                "name": "G3",
                "ticks": 11040,
                "time": 30.000003999999997,
                "velocity": 0.5039370078740157
              },
              {
                "duration": 0.163043499999997,
                "durationTicks": 60,
                "midi": 57,
                "name": "A3",
                "ticks": 11100,
                "time": 30.163047499999998,
                "velocity": 0.5039370078740157
              },
              {
                "duration": 0.16304350000000056,
                "durationTicks": 60,
                "midi": 55,
                "name": "G3",
                "ticks": 11160,
                "time": 30.326090999999995,
                "velocity": 0.5039370078740157
              },
              {
                "duration": 0.16304350000000056,
                "durationTicks": 60,
                "midi": 57,
                "name": "A3",
                "ticks": 11220,
                "time": 30.489134499999995,
                "velocity": 0.5039370078740157
              },
              {
                "duration": 0.08967392500000315,
                "durationTicks": 33,
                "midi": 58,
                "name": "A#3",
                "ticks": 11280,
                "time": 30.652177999999996,
                "velocity": 0.3779527559055118
              },
              {
                "duration": 0.08967392500000315,
                "durationTicks": 33,
                "midi": 57,
                "name": "A3",
                "ticks": 11310,
                "time": 30.733699749999996,
                "velocity": 0.3937007874015748
              },
              {
                "duration": 0.08967392500000315,
                "durationTicks": 33,
                "midi": 58,
                "name": "A#3",
                "ticks": 11340,
                "time": 30.815221499999996,
                "velocity": 0.4015748031496063
              },
              {
                "duration": 0.08967392500000315,
                "durationTicks": 33,
                "midi": 57,
                "name": "A3",
                "ticks": 11370,
                "time": 30.896743249999997,
                "velocity": 0.41732283464566927
              },
              {
                "duration": 0.0896739249999996,
                "durationTicks": 33,
                "midi": 58,
                "name": "A#3",
                "ticks": 11400,
                "time": 30.978264999999997,
                "velocity": 0.4330708661417323
              },
              {
                "duration": 0.0896739249999996,
                "durationTicks": 33,
                "midi": 57,
                "name": "A3",
                "ticks": 11430,
                "time": 31.059786749999997,
                "velocity": 0.4409448818897638
              },
              {
                "duration": 0.0896739249999996,
                "durationTicks": 33,
                "midi": 55,
                "name": "G3",
                "ticks": 11460,
                "time": 31.141308499999997,
                "velocity": 0.4566929133858268
              },
              {
                "duration": 0.0896739249999996,
                "durationTicks": 33,
                "midi": 57,
                "name": "A3",
                "ticks": 11490,
                "time": 31.222830249999998,
                "velocity": 0.4645669291338583
              },
              {
                "duration": 0.16304350000000056,
                "durationTicks": 60,
                "midi": 58,
                "name": "A#3",
                "ticks": 11520,
                "time": 31.304351999999994,
                "velocity": 0.5039370078740157
              },
              {
                "duration": 0.16304350000000056,
                "durationTicks": 60,
                "midi": 57,
                "name": "A3",
                "ticks": 11580,
                "time": 31.467395499999995,
                "velocity": 0.5039370078740157
              },
              {
                "duration": 0.16304350000000056,
                "durationTicks": 60,
                "midi": 55,
                "name": "G3",
                "ticks": 11640,
                "time": 31.630438999999996,
                "velocity": 0.5039370078740157
              },
              {
                "duration": 0.16304350000000056,
                "durationTicks": 60,
                "midi": 57,
                "name": "A3",
                "ticks": 11700,
                "time": 31.793482499999996,
                "velocity": 0.5039370078740157
              },
              {
                "duration": 0.16304350000000056,
                "durationTicks": 60,
                "midi": 58,
                "name": "A#3",
                "ticks": 11760,
                "time": 31.956525999999997,
                "velocity": 0.5039370078740157
              },
              {
                "duration": 0.16304350000000056,
                "durationTicks": 60,
                "midi": 60,
                "name": "C4",
                "ticks": 11820,
                "time": 32.1195695,
                "velocity": 0.5039370078740157
              },
              {
                "duration": 0.3260870000000011,
                "durationTicks": 120,
                "midi": 62,
                "name": "D4",
                "ticks": 11880,
                "time": 32.282613,
                "velocity": 0.5039370078740157
              },
              {
                "duration": 0.326086999999994,
                "durationTicks": 120,
                "midi": 62,
                "name": "D4",
                "ticks": 12000,
                "time": 32.6087,
                "velocity": 0.5039370078740157
              },
              {
                "duration": 0.3260870000000011,
                "durationTicks": 120,
                "midi": 60,
                "name": "C4",
                "ticks": 12120,
                "time": 32.93478699999999,
                "velocity": 0.5039370078740157
              },
              {
                "duration": 0.27173916666666287,
                "durationTicks": 100,
                "midi": 60,
                "name": "C4",
                "ticks": 12360,
                "time": 33.586960999999995,
                "velocity": 0.5039370078740157
              },
              {
                "duration": 0.05434783333333115,
                "durationTicks": 20,
                "midi": 60,
                "name": "C4",
                "ticks": 12480,
                "time": 33.913047999999996,
                "velocity": 0.5039370078740157
              },
              {
                "duration": 0.05434783333333115,
                "durationTicks": 20,
                "midi": 62,
                "name": "D4",
                "ticks": 12500,
                "time": 33.96739583333333,
                "velocity": 0.4409448818897638
              },
              {
                "duration": 0.24456525000000084,
                "durationTicks": 90,
                "midi": 60,
                "name": "C4",
                "ticks": 12520,
                "time": 34.02174366666666,
                "velocity": 0.5039370078740157
              },
              {
                "duration": 0.3260870000000011,
                "durationTicks": 120,
                "midi": 58,
                "name": "A#3",
                "ticks": 12610,
                "time": 34.26630891666666,
                "velocity": 0.5039370078740157
              },
              {
                "duration": 0.3260870000000011,
                "durationTicks": 120,
                "midi": 57,
                "name": "A3",
                "ticks": 12840,
                "time": 34.89130899999999,
                "velocity": 0.5039370078740157
              },
              {
                "duration": 0.3260870000000011,
                "durationTicks": 120,
                "midi": 58,
                "name": "A#3",
                "ticks": 12960,
                "time": 35.217395999999994,
                "velocity": 0.5039370078740157
              },
              {
                "duration": 0.4891305000000017,
                "durationTicks": 180,
                "midi": 51,
                "name": "D#3",
                "ticks": 13080,
                "time": 35.543482999999995,
                "velocity": 0.5039370078740157
              },
              {
                "duration": 0.16304350000000056,
                "durationTicks": 60,
                "midi": 48,
                "name": "C3",
                "ticks": 13260,
                "time": 36.0326135,
                "velocity": 0.5039370078740157
              },
              {
                "duration": 0.16304350000000056,
                "durationTicks": 60,
                "midi": 53,
                "name": "F3",
                "ticks": 13320,
                "time": 36.195657,
                "velocity": 0.5039370078740157
              },
              {
                "duration": 0.16304350000000056,
                "durationTicks": 60,
                "midi": 48,
                "name": "C3",
                "ticks": 13380,
                "time": 36.3587005,
                "velocity": 0.5039370078740157
              },
              {
                "duration": 0.326086999999994,
                "durationTicks": 120,
                "midi": 50,
                "name": "D3",
                "ticks": 13440,
                "time": 36.521744,
                "velocity": 0.5039370078740157
              },
              {
                "duration": 0.4891305000000017,
                "durationTicks": 180,
                "midi": 58,
                "name": "A#3",
                "ticks": 13560,
                "time": 36.84783099999999,
                "velocity": 0.5039370078740157
              },
              {
                "duration": 0.16304350000000056,
                "durationTicks": 60,
                "midi": 57,
                "name": "A3",
                "ticks": 13740,
                "time": 37.336961499999994,
                "velocity": 0.5039370078740157
              },
              {
                "duration": 0.16304350000000056,
                "durationTicks": 60,
                "midi": 58,
                "name": "A#3",
                "ticks": 13800,
                "time": 37.500004999999994,
                "velocity": 0.5039370078740157
              },
              {
                "duration": 0.16304350000000056,
                "durationTicks": 60,
                "midi": 53,
                "name": "F3",
                "ticks": 13860,
                "time": 37.663048499999995,
                "velocity": 0.5039370078740157
              },
              {
                "duration": 0.16304350000000056,
                "durationTicks": 60,
                "midi": 55,
                "name": "G3",
                "ticks": 13920,
                "time": 37.826091999999996,
                "velocity": 0.5039370078740157
              },
              {
                "duration": 0.16304350000000056,
                "durationTicks": 60,
                "midi": 58,
                "name": "A#3",
                "ticks": 13980,
                "time": 37.989135499999996,
                "velocity": 0.5039370078740157
              },
              {
                "duration": 0.16304350000000056,
                "durationTicks": 60,
                "midi": 63,
                "name": "D#4",
                "ticks": 14040,
                "time": 38.152179,
                "velocity": 0.5039370078740157
              },
              {
                "duration": 0.16304350000000056,
                "durationTicks": 60,
                "midi": 62,
                "name": "D4",
                "ticks": 14100,
                "time": 38.3152225,
                "velocity": 0.5039370078740157
              },
              {
                "duration": 0.16304350000000056,
                "durationTicks": 60,
                "midi": 60,
                "name": "C4",
                "ticks": 14160,
                "time": 38.478266,
                "velocity": 0.5039370078740157
              },
              {
                "duration": 0.16304349999999346,
                "durationTicks": 60,
                "midi": 58,
                "name": "A#3",
                "ticks": 14220,
                "time": 38.6413095,
                "velocity": 0.5039370078740157
              },
              {
                "duration": 0.16304350000000056,
                "durationTicks": 60,
                "midi": 57,
                "name": "A3",
                "ticks": 14280,
                "time": 38.80435299999999,
                "velocity": 0.5039370078740157
              },
              {
                "duration": 0.16304350000000056,
                "durationTicks": 60,
                "midi": 55,
                "name": "G3",
                "ticks": 14340,
                "time": 38.96739649999999,
                "velocity": 0.5039370078740157
              },
              {
                "duration": 0.16304350000000056,
                "durationTicks": 60,
                "midi": 53,
                "name": "F3",
                "ticks": 14400,
                "time": 39.13043999999999,
                "velocity": 0.5039370078740157
              },
              {
                "duration": 0.16304350000000056,
                "durationTicks": 60,
                "midi": 57,
                "name": "A3",
                "ticks": 14460,
                "time": 39.293483499999994,
                "velocity": 0.5039370078740157
              },
              {
                "duration": 0.16304350000000056,
                "durationTicks": 60,
                "midi": 62,
                "name": "D4",
                "ticks": 14520,
                "time": 39.456526999999994,
                "velocity": 0.5039370078740157
              },
              {
                "duration": 0.16304350000000056,
                "durationTicks": 60,
                "midi": 60,
                "name": "C4",
                "ticks": 14580,
                "time": 39.619570499999995,
                "velocity": 0.5039370078740157
              },
              {
                "duration": 0.16304350000000056,
                "durationTicks": 60,
                "midi": 58,
                "name": "A#3",
                "ticks": 14640,
                "time": 39.782613999999995,
                "velocity": 0.5039370078740157
              },
              {
                "duration": 0.16304350000000056,
                "durationTicks": 60,
                "midi": 57,
                "name": "A3",
                "ticks": 14700,
                "time": 39.945657499999996,
                "velocity": 0.5039370078740157
              },
              {
                "duration": 0.16304350000000056,
                "durationTicks": 60,
                "midi": 55,
                "name": "G3",
                "ticks": 14760,
                "time": 40.108700999999996,
                "velocity": 0.5039370078740157
              },
              {
                "duration": 0.16304350000000056,
                "durationTicks": 60,
                "midi": 53,
                "name": "F3",
                "ticks": 14820,
                "time": 40.2717445,
                "velocity": 0.5039370078740157
              },
              {
                "duration": 0.16304350000000056,
                "durationTicks": 60,
                "midi": 51,
                "name": "D#3",
                "ticks": 14880,
                "time": 40.434788,
                "velocity": 0.5039370078740157
              },
              {
                "duration": 0.16304349999999346,
                "durationTicks": 60,
                "midi": 55,
                "name": "G3",
                "ticks": 14940,
                "time": 40.5978315,
                "velocity": 0.5039370078740157
              },
              {
                "duration": 0.16304350000000056,
                "durationTicks": 60,
                "midi": 60,
                "name": "C4",
                "ticks": 15000,
                "time": 40.76087499999999,
                "velocity": 0.5039370078740157
              },
              {
                "duration": 0.16304350000000056,
                "durationTicks": 60,
                "midi": 55,
                "name": "G3",
                "ticks": 15060,
                "time": 40.92391849999999,
                "velocity": 0.5039370078740157
              },
              {
                "duration": 0.08152175000000028,
                "durationTicks": 30,
                "midi": 57,
                "name": "A3",
                "ticks": 15120,
                "time": 41.08696199999999,
                "velocity": 0.5039370078740157
              },
              {
                "duration": 0.08152175000000028,
                "durationTicks": 30,
                "midi": 58,
                "name": "A#3",
                "ticks": 15150,
                "time": 41.16848374999999,
                "velocity": 0.5039370078740157
              },
              {
                "duration": 0.3260870000000011,
                "durationTicks": 120,
                "midi": 57,
                "name": "A3",
                "ticks": 15180,
                "time": 41.25000549999999,
                "velocity": 0.5039370078740157
              },
              {
                "duration": 0.16304350000000056,
                "durationTicks": 60,
                "midi": 57,
                "name": "A3",
                "ticks": 15300,
                "time": 41.576092499999994,
                "velocity": 0.5039370078740157
              },
              {
                "duration": 0.16304350000000056,
                "durationTicks": 60,
                "midi": 58,
                "name": "A#3",
                "ticks": 15360,
                "time": 41.739135999999995,
                "velocity": 0.5039370078740157
              },
              {
                "duration": 0.16304350000000056,
                "durationTicks": 60,
                "midi": 53,
                "name": "F3",
                "ticks": 15420,
                "time": 41.902179499999995,
                "velocity": 0.5039370078740157
              },
              {
                "duration": 0.16304350000000056,
                "durationTicks": 60,
                "midi": 55,
                "name": "G3",
                "ticks": 15480,
                "time": 42.065222999999996,
                "velocity": 0.5039370078740157
              },
              {
                "duration": 0.16304350000000056,
                "durationTicks": 60,
                "midi": 53,
                "name": "F3",
                "ticks": 15540,
                "time": 42.2282665,
                "velocity": 0.5039370078740157
              },
              {
                "duration": 0.7880435833333266,
                "durationTicks": 290,
                "midi": 62,
                "name": "D4",
                "ticks": 15600,
                "time": 42.39131,
                "velocity": 0.5039370078740157
              },
              {
                "duration": 0.16304350000000056,
                "durationTicks": 60,
                "midi": 53,
                "name": "F3",
                "ticks": 15900,
                "time": 43.20652749999999,
                "velocity": 0.5039370078740157
              },
              {
                "duration": 0.16304350000000056,
                "durationTicks": 60,
                "midi": 55,
                "name": "G3",
                "ticks": 15960,
                "time": 43.36957099999999,
                "velocity": 0.5039370078740157
              },
              {
                "duration": 0.16304350000000056,
                "durationTicks": 60,
                "midi": 53,
                "name": "F3",
                "ticks": 16020,
                "time": 43.532614499999994,
                "velocity": 0.5039370078740157
              },
              {
                "duration": 0.7880435833333337,
                "durationTicks": 290,
                "midi": 63,
                "name": "D#4",
                "ticks": 16080,
                "time": 43.695657999999995,
                "velocity": 0.5039370078740157
              },
              {
                "duration": 0.16304350000000056,
                "durationTicks": 60,
                "midi": 53,
                "name": "F3",
                "ticks": 16380,
                "time": 44.5108755,
                "velocity": 0.5039370078740157
              },
              {
                "duration": 0.16304349999999346,
                "durationTicks": 60,
                "midi": 58,
                "name": "A#3",
                "ticks": 16440,
                "time": 44.673919,
                "velocity": 0.5039370078740157
              },
              {
                "duration": 0.16304350000000056,
                "durationTicks": 60,
                "midi": 57,
                "name": "A3",
                "ticks": 16500,
                "time": 44.83696249999999,
                "velocity": 0.5039370078740157
              },
              {
                "duration": 0.16304350000000056,
                "durationTicks": 60,
                "midi": 62,
                "name": "D4",
                "ticks": 16560,
                "time": 45.00000599999999,
                "velocity": 0.5039370078740157
              },
              {
                "duration": 0.16304350000000056,
                "durationTicks": 60,
                "midi": 60,
                "name": "C4",
                "ticks": 16620,
                "time": 45.16304949999999,
                "velocity": 0.5039370078740157
              },
              {
                "duration": 0.16304350000000056,
                "durationTicks": 60,
                "midi": 63,
                "name": "D#4",
                "ticks": 16680,
                "time": 45.32609299999999,
                "velocity": 0.5039370078740157
              },
              {
                "duration": 0.16304350000000056,
                "durationTicks": 60,
                "midi": 62,
                "name": "D4",
                "ticks": 16740,
                "time": 45.489136499999994,
                "velocity": 0.5039370078740157
              },
              {
                "duration": 0.16304350000000056,
                "durationTicks": 60,
                "midi": 67,
                "name": "G4",
                "ticks": 16800,
                "time": 45.652179999999994,
                "velocity": 0.5039370078740157
              },
              {
                "duration": 0.16304350000000056,
                "durationTicks": 60,
                "midi": 65,
                "name": "F4",
                "ticks": 16860,
                "time": 45.815223499999995,
                "velocity": 0.5039370078740157
              },
              {
                "duration": 0.16304350000000056,
                "durationTicks": 60,
                "midi": 63,
                "name": "D#4",
                "ticks": 16920,
                "time": 45.978266999999995,
                "velocity": 0.5039370078740157
              },
              {
                "duration": 0.16304350000000056,
                "durationTicks": 60,
                "midi": 62,
                "name": "D4",
                "ticks": 16980,
                "time": 46.141310499999996,
                "velocity": 0.5039370078740157
              },
              {
                "duration": 0.16304350000000056,
                "durationTicks": 60,
                "midi": 60,
                "name": "C4",
                "ticks": 17040,
                "time": 46.304354,
                "velocity": 0.5039370078740157
              },
              {
                "duration": 0.16304350000000056,
                "durationTicks": 60,
                "midi": 65,
                "name": "F4",
                "ticks": 17100,
                "time": 46.4673975,
                "velocity": 0.5039370078740157
              },
              {
                "duration": 0.16304349999999346,
                "durationTicks": 60,
                "midi": 63,
                "name": "D#4",
                "ticks": 17160,
                "time": 46.630441,
                "velocity": 0.5039370078740157
              },
              {
                "duration": 0.16304350000000056,
                "durationTicks": 60,
                "midi": 65,
                "name": "F4",
                "ticks": 17220,
                "time": 46.79348449999999,
                "velocity": 0.5039370078740157
              },
              {
                "duration": 0.16304350000000056,
                "durationTicks": 60,
                "midi": 62,
                "name": "D4",
                "ticks": 17280,
                "time": 46.95652799999999,
                "velocity": 0.5039370078740157
              },
              {
                "duration": 0.16304350000000056,
                "durationTicks": 60,
                "midi": 63,
                "name": "D#4",
                "ticks": 17400,
                "time": 47.28261499999999,
                "velocity": 0.5039370078740157
              },
              {
                "duration": 0.16304350000000056,
                "durationTicks": 60,
                "midi": 58,
                "name": "A#3",
                "ticks": 17520,
                "time": 47.608701999999994,
                "velocity": 0.5039370078740157
              },
              {
                "duration": 0.16304350000000056,
                "durationTicks": 60,
                "midi": 62,
                "name": "D4",
                "ticks": 17580,
                "time": 47.771745499999994,
                "velocity": 0.5039370078740157
              },
              {
                "duration": 0.16304350000000056,
                "durationTicks": 60,
                "midi": 60,
                "name": "C4",
                "ticks": 17640,
                "time": 47.934788999999995,
                "velocity": 0.5039370078740157
              },
              {
                "duration": 0.16304350000000056,
                "durationTicks": 60,
                "midi": 62,
                "name": "D4",
                "ticks": 17700,
                "time": 48.097832499999996,
                "velocity": 0.5039370078740157
              },
              {
                "duration": 0.16304350000000056,
                "durationTicks": 60,
                "midi": 55,
                "name": "G3",
                "ticks": 17760,
                "time": 48.260875999999996,
                "velocity": 0.5039370078740157
              },
              {
                "duration": 0.16304350000000056,
                "durationTicks": 60,
                "midi": 57,
                "name": "A3",
                "ticks": 17820,
                "time": 48.4239195,
                "velocity": 0.5039370078740157
              },
              {
                "duration": 0.16304349999999346,
                "durationTicks": 60,
                "midi": 58,
                "name": "A#3",
                "ticks": 17880,
                "time": 48.586963,
                "velocity": 0.5039370078740157
              },
              {
                "duration": 0.16304350000000056,
                "durationTicks": 60,
                "midi": 60,
                "name": "C4",
                "ticks": 17940,
                "time": 48.75000649999999,
                "velocity": 0.5039370078740157
              },
              {
                "duration": 0.16304350000000056,
                "durationTicks": 60,
                "midi": 57,
                "name": "A3",
                "ticks": 18000,
                "time": 48.91304999999999,
                "velocity": 0.5039370078740157
              },
              {
                "duration": 0.16304350000000056,
                "durationTicks": 60,
                "midi": 58,
                "name": "A#3",
                "ticks": 18060,
                "time": 49.07609349999999,
                "velocity": 0.5039370078740157
              },
              {
                "duration": 0.16304350000000056,
                "durationTicks": 60,
                "midi": 60,
                "name": "C4",
                "ticks": 18120,
                "time": 49.23913699999999,
                "velocity": 0.5039370078740157
              },
              {
                "duration": 0.16304350000000056,
                "durationTicks": 60,
                "midi": 62,
                "name": "D4",
                "ticks": 18180,
                "time": 49.40218049999999,
                "velocity": 0.5039370078740157
              },
              {
                "duration": 0.16304350000000056,
                "durationTicks": 60,
                "midi": 58,
                "name": "A#3",
                "ticks": 18240,
                "time": 49.56522399999999,
                "velocity": 0.5039370078740157
              },
              {
                "duration": 0.16304350000000056,
                "durationTicks": 60,
                "midi": 60,
                "name": "C4",
                "ticks": 18300,
                "time": 49.728267499999994,
                "velocity": 0.5039370078740157
              },
              {
                "duration": 0.16304350000000056,
                "durationTicks": 60,
                "midi": 62,
                "name": "D4",
                "ticks": 18360,
                "time": 49.891310999999995,
                "velocity": 0.5039370078740157
              },
              {
                "duration": 0.16304350000000056,
                "durationTicks": 60,
                "midi": 63,
                "name": "D#4",
                "ticks": 18420,
                "time": 50.054354499999995,
                "velocity": 0.5039370078740157
              },
              {
                "duration": 0.16304350000000056,
                "durationTicks": 60,
                "midi": 65,
                "name": "F4",
                "ticks": 18480,
                "time": 50.217397999999996,
                "velocity": 0.5039370078740157
              },
              {
                "duration": 0.16304350000000056,
                "durationTicks": 60,
                "midi": 63,
                "name": "D#4",
                "ticks": 18540,
                "time": 50.380441499999996,
                "velocity": 0.5039370078740157
              },
              {
                "duration": 0.16304349999999346,
                "durationTicks": 60,
                "midi": 67,
                "name": "G4",
                "ticks": 18600,
                "time": 50.543485,
                "velocity": 0.5039370078740157
              },
              {
                "duration": 0.16304350000000056,
                "durationTicks": 60,
                "midi": 65,
                "name": "F4",
                "ticks": 18660,
                "time": 50.70652849999999,
                "velocity": 0.5039370078740157
              },
              {
                "duration": 0.16304350000000056,
                "durationTicks": 60,
                "midi": 63,
                "name": "D#4",
                "ticks": 18720,
                "time": 50.86957199999999,
                "velocity": 0.5039370078740157
              },
              {
                "duration": 0.16304350000000056,
                "durationTicks": 60,
                "midi": 62,
                "name": "D4",
                "ticks": 18780,
                "time": 51.03261549999999,
                "velocity": 0.5039370078740157
              },
              {
                "duration": 0.16304350000000056,
                "durationTicks": 60,
                "midi": 60,
                "name": "C4",
                "ticks": 18840,
                "time": 51.19565899999999,
                "velocity": 0.5039370078740157
              },
              {
                "duration": 0.16304350000000056,
                "durationTicks": 60,
                "midi": 63,
                "name": "D#4",
                "ticks": 18900,
                "time": 51.35870249999999,
                "velocity": 0.5039370078740157
              },
              {
                "duration": 0.7880435833333337,
                "durationTicks": 290,
                "midi": 57,
                "name": "A3",
                "ticks": 18960,
                "time": 51.52174599999999,
                "velocity": 0.5039370078740157
              },
              {
                "duration": 0.16304350000000056,
                "durationTicks": 60,
                "midi": 50,
                "name": "D3",
                "ticks": 19260,
                "time": 52.336963499999996,
                "velocity": 0.5039370078740157
              },
              {
                "duration": 0.16304350000000056,
                "durationTicks": 60,
                "midi": 55,
                "name": "G3",
                "ticks": 19320,
                "time": 52.500007,
                "velocity": 0.5039370078740157
              },
              {
                "duration": 0.16304349999999346,
                "durationTicks": 60,
                "midi": 54,
                "name": "F#3",
                "ticks": 19380,
                "time": 52.6630505,
                "velocity": 0.5039370078740157
              },
              {
                "duration": 0.16304350000000056,
                "durationTicks": 60,
                "midi": 58,
                "name": "A#3",
                "ticks": 19440,
                "time": 52.82609399999999,
                "velocity": 0.5039370078740157
              },
              {
                "duration": 0.16304350000000056,
                "durationTicks": 60,
                "midi": 57,
                "name": "A3",
                "ticks": 19500,
                "time": 52.98913749999999,
                "velocity": 0.5039370078740157
              },
              {
                "duration": 0.16304350000000056,
                "durationTicks": 60,
                "midi": 60,
                "name": "C4",
                "ticks": 19560,
                "time": 53.15218099999999,
                "velocity": 0.5039370078740157
              },
              {
                "duration": 0.16304350000000056,
                "durationTicks": 60,
                "midi": 58,
                "name": "A#3",
                "ticks": 19620,
                "time": 53.31522449999999,
                "velocity": 0.5039370078740157
              },
              {
                "duration": 0.16304350000000056,
                "durationTicks": 60,
                "midi": 63,
                "name": "D#4",
                "ticks": 19680,
                "time": 53.47826799999999,
                "velocity": 0.5039370078740157
              },
              {
                "duration": 0.16304350000000056,
                "durationTicks": 60,
                "midi": 62,
                "name": "D4",
                "ticks": 19740,
                "time": 53.64131149999999,
                "velocity": 0.5039370078740157
              },
              {
                "duration": 0.16304350000000056,
                "durationTicks": 60,
                "midi": 60,
                "name": "C4",
                "ticks": 19800,
                "time": 53.804354999999994,
                "velocity": 0.5039370078740157
              },
              {
                "duration": 0.16304350000000056,
                "durationTicks": 60,
                "midi": 58,
                "name": "A#3",
                "ticks": 19860,
                "time": 53.967398499999994,
                "velocity": 0.5039370078740157
              },
              {
                "duration": 0.16304350000000056,
                "durationTicks": 60,
                "midi": 57,
                "name": "A3",
                "ticks": 19920,
                "time": 54.130441999999995,
                "velocity": 0.5039370078740157
              },
              {
                "duration": 0.16304350000000056,
                "durationTicks": 60,
                "midi": 62,
                "name": "D4",
                "ticks": 19980,
                "time": 54.293485499999996,
                "velocity": 0.5039370078740157
              },
              {
                "duration": 0.16304350000000056,
                "durationTicks": 60,
                "midi": 60,
                "name": "C4",
                "ticks": 20040,
                "time": 54.456528999999996,
                "velocity": 0.5039370078740157
              },
              {
                "duration": 0.16304349999999346,
                "durationTicks": 60,
                "midi": 62,
                "name": "D4",
                "ticks": 20100,
                "time": 54.6195725,
                "velocity": 0.5039370078740157
              },
              {
                "duration": 0.16304350000000056,
                "durationTicks": 60,
                "midi": 59,
                "name": "B3",
                "ticks": 20160,
                "time": 54.78261599999999,
                "velocity": 0.5039370078740157
              },
              {
                "duration": 0.16304350000000056,
                "durationTicks": 60,
                "midi": 65,
                "name": "F4",
                "ticks": 20220,
                "time": 54.94565949999999,
                "velocity": 0.5039370078740157
              },
              {
                "duration": 0.16304350000000056,
                "durationTicks": 60,
                "midi": 63,
                "name": "D#4",
                "ticks": 20280,
                "time": 55.10870299999999,
                "velocity": 0.5039370078740157
              },
              {
                "duration": 0.16304350000000056,
                "durationTicks": 60,
                "midi": 62,
                "name": "D4",
                "ticks": 20340,
                "time": 55.27174649999999,
                "velocity": 0.5039370078740157
              },
              {
                "duration": 0.16304350000000056,
                "durationTicks": 60,
                "midi": 60,
                "name": "C4",
                "ticks": 20400,
                "time": 55.43478999999999,
                "velocity": 0.5039370078740157
              },
              {
                "duration": 0.16304350000000056,
                "durationTicks": 60,
                "midi": 58,
                "name": "A#3",
                "ticks": 20460,
                "time": 55.59783349999999,
                "velocity": 0.5039370078740157
              },
              {
                "duration": 0.16304350000000056,
                "durationTicks": 60,
                "midi": 56,
                "name": "G#3",
                "ticks": 20520,
                "time": 55.760876999999994,
                "velocity": 0.5039370078740157
              },
              {
                "duration": 0.16304350000000056,
                "durationTicks": 60,
                "midi": 55,
                "name": "G3",
                "ticks": 20580,
                "time": 55.923920499999994,
                "velocity": 0.5039370078740157
              },
              {
                "duration": 0.16304350000000056,
                "durationTicks": 60,
                "midi": 53,
                "name": "F3",
                "ticks": 20640,
                "time": 56.086963999999995,
                "velocity": 0.5039370078740157
              },
              {
                "duration": 0.16304350000000056,
                "durationTicks": 60,
                "midi": 51,
                "name": "D#3",
                "ticks": 20700,
                "time": 56.250007499999995,
                "velocity": 0.5039370078740157
              },
              {
                "duration": 0.16304350000000056,
                "durationTicks": 60,
                "midi": 50,
                "name": "D3",
                "ticks": 20760,
                "time": 56.413050999999996,
                "velocity": 0.5039370078740157
              },
              {
                "duration": 0.16304349999999346,
                "durationTicks": 60,
                "midi": 48,
                "name": "C3",
                "ticks": 20820,
                "time": 56.576094499999996,
                "velocity": 0.5039370078740157
              },
              {
                "duration": 0.3260870000000011,
                "durationTicks": 120,
                "midi": 55,
                "name": "G3",
                "ticks": 20880,
                "time": 56.73913799999999,
                "velocity": 0.5039370078740157
              },
              {
                "duration": 0.3260870000000011,
                "durationTicks": 120,
                "midi": 43,
                "name": "G2",
                "ticks": 21000,
                "time": 57.06522499999999,
                "velocity": 0.5039370078740157
              },
              {
                "duration": 0.4891305000000017,
                "durationTicks": 180,
                "midi": 48,
                "name": "C3",
                "ticks": 21120,
                "time": 57.39131199999999,
                "velocity": 0.5039370078740157
              },
              {
                "duration": 0.16304350000000056,
                "durationTicks": 60,
                "midi": 50,
                "name": "D3",
                "ticks": 21300,
                "time": 57.880442499999994,
                "velocity": 0.5039370078740157
              },
              {
                "duration": 0.16304350000000056,
                "durationTicks": 60,
                "midi": 51,
                "name": "D#3",
                "ticks": 21360,
                "time": 58.043485999999994,
                "velocity": 0.5039370078740157
              },
              {
                "duration": 0.16304350000000056,
                "durationTicks": 60,
                "midi": 53,
                "name": "F3",
                "ticks": 21420,
                "time": 58.206529499999995,
                "velocity": 0.5039370078740157
              },
              {
                "duration": 0.27173916666667,
                "durationTicks": 100,
                "midi": 55,
                "name": "G3",
                "ticks": 21480,
                "time": 58.369572999999995,
                "velocity": 0.5039370078740157
              },
              {
                "duration": 0.05434783333333115,
                "durationTicks": 20,
                "midi": 55,
                "name": "G3",
                "ticks": 21600,
                "time": 58.69565999999999,
                "velocity": 0.5039370078740157
              },
              {
                "duration": 0.05434783333334536,
                "durationTicks": 20,
                "midi": 56,
                "name": "G#3",
                "ticks": 21620,
                "time": 58.75000783333332,
                "velocity": 0.4409448818897638
              },
              {
                "duration": 0.24456524999999374,
                "durationTicks": 90,
                "midi": 55,
                "name": "G3",
                "ticks": 21640,
                "time": 58.804355666666666,
                "velocity": 0.5039370078740157
              },
              {
                "duration": 0.3260870000000011,
                "durationTicks": 120,
                "midi": 53,
                "name": "F3",
                "ticks": 21730,
                "time": 59.04892091666666,
                "velocity": 0.5039370078740157
              },
              {
                "duration": 0.27173916666667,
                "durationTicks": 100,
                "midi": 53,
                "name": "F3",
                "ticks": 21960,
                "time": 59.67392099999999,
                "velocity": 0.5039370078740157
              },
              {
                "duration": 0.05434783333333115,
                "durationTicks": 20,
                "midi": 53,
                "name": "F3",
                "ticks": 22080,
                "time": 60.000007999999994,
                "velocity": 0.5039370078740157
              },
              {
                "duration": 0.05434783333333826,
                "durationTicks": 20,
                "midi": 55,
                "name": "G3",
                "ticks": 22100,
                "time": 60.054355833333325,
                "velocity": 0.4409448818897638
              },
              {
                "duration": 0.24456525000000084,
                "durationTicks": 90,
                "midi": 53,
                "name": "F3",
                "ticks": 22120,
                "time": 60.10870366666666,
                "velocity": 0.5039370078740157
              },
              {
                "duration": 0.4891304999999946,
                "durationTicks": 180,
                "midi": 51,
                "name": "D#3",
                "ticks": 22200,
                "time": 60.326094999999995,
                "velocity": 0.5039370078740157
              },
              {
                "duration": 0.16304350000000056,
                "durationTicks": 60,
                "midi": 53,
                "name": "F3",
                "ticks": 22380,
                "time": 60.81522549999999,
                "velocity": 0.5039370078740157
              },
              {
                "duration": 0.16304350000000056,
                "durationTicks": 60,
                "midi": 51,
                "name": "D#3",
                "ticks": 22440,
                "time": 60.97826899999999,
                "velocity": 0.5039370078740157
              },
              {
                "duration": 0.16304350000000056,
                "durationTicks": 60,
                "midi": 50,
                "name": "D3",
                "ticks": 22500,
                "time": 61.14131249999999,
                "velocity": 0.5039370078740157
              },
              {
                "duration": 0.16304350000000056,
                "durationTicks": 60,
                "midi": 48,
                "name": "C3",
                "ticks": 22560,
                "time": 61.30435599999999,
                "velocity": 0.5039370078740157
              },
              {
                "duration": 0.16304350000000056,
                "durationTicks": 60,
                "midi": 46,
                "name": "A#2",
                "ticks": 22620,
                "time": 61.46739949999999,
                "velocity": 0.5039370078740157
              },
              {
                "duration": 0.16304350000000056,
                "durationTicks": 60,
                "midi": 44,
                "name": "G#2",
                "ticks": 22680,
                "time": 61.63044299999999,
                "velocity": 0.5039370078740157
              },
              {
                "duration": 0.16304350000000056,
                "durationTicks": 60,
                "midi": 43,
                "name": "G2",
                "ticks": 22740,
                "time": 61.79348649999999,
                "velocity": 0.5039370078740157
              },
              {
                "duration": 0.16304350000000056,
                "durationTicks": 60,
                "midi": 41,
                "name": "F2",
                "ticks": 22800,
                "time": 61.956529999999994,
                "velocity": 0.5039370078740157
              },
              {
                "duration": 0.16304350000000056,
                "durationTicks": 60,
                "midi": 39,
                "name": "D#2",
                "ticks": 22860,
                "time": 62.119573499999994,
                "velocity": 0.5039370078740157
              },
              {
                "duration": 0.16304350000000056,
                "durationTicks": 60,
                "midi": 41,
                "name": "F2",
                "ticks": 22920,
                "time": 62.282616999999995,
                "velocity": 0.5039370078740157
              },
              {
                "duration": 0.16304349999999346,
                "durationTicks": 60,
                "midi": 43,
                "name": "G2",
                "ticks": 22980,
                "time": 62.445660499999995,
                "velocity": 0.5039370078740157
              },
              {
                "duration": 0.3260870000000011,
                "durationTicks": 120,
                "midi": 36,
                "name": "C2",
                "ticks": 23040,
                "time": 62.60870399999999,
                "velocity": 0.5039370078740157
              },
              {
                "duration": 0.16304350000000056,
                "durationTicks": 60,
                "midi": 48,
                "name": "C3",
                "ticks": 23160,
                "time": 62.93479099999999,
                "velocity": 0.5039370078740157
              },
              {
                "duration": 0.16304350000000056,
                "durationTicks": 60,
                "midi": 47,
                "name": "B2",
                "ticks": 23220,
                "time": 63.09783449999999,
                "velocity": 0.5039370078740157
              },
              {
                "duration": 0.16304350000000056,
                "durationTicks": 60,
                "midi": 48,
                "name": "C3",
                "ticks": 23280,
                "time": 63.26087799999999,
                "velocity": 0.5039370078740157
              },
              {
                "duration": 0.16304350000000056,
                "durationTicks": 60,
                "midi": 50,
                "name": "D3",
                "ticks": 23340,
                "time": 63.42392149999999,
                "velocity": 0.5039370078740157
              },
              {
                "duration": 0.16304350000000056,
                "durationTicks": 60,
                "midi": 51,
                "name": "D#3",
                "ticks": 23400,
                "time": 63.58696499999999,
                "velocity": 0.5039370078740157
              },
              {
                "duration": 0.16304350000000056,
                "durationTicks": 60,
                "midi": 43,
                "name": "G2",
                "ticks": 23460,
                "time": 63.75000849999999,
                "velocity": 0.5039370078740157
              },
              {
                "duration": 0.16304350000000056,
                "durationTicks": 60,
                "midi": 44,
                "name": "G#2",
                "ticks": 23520,
                "time": 63.91305199999999,
                "velocity": 0.5039370078740157
              },
              {
                "duration": 0.16304350000000056,
                "durationTicks": 60,
                "midi": 46,
                "name": "A#2",
                "ticks": 23580,
                "time": 64.0760955,
                "velocity": 0.5039370078740157
              },
              {
                "duration": 0.16304350000000056,
                "durationTicks": 60,
                "midi": 44,
                "name": "G#2",
                "ticks": 23640,
                "time": 64.239139,
                "velocity": 0.5039370078740157
              },
              {
                "duration": 0.16304350000000056,
                "durationTicks": 60,
                "midi": 41,
                "name": "F2",
                "ticks": 23700,
                "time": 64.4021825,
                "velocity": 0.5039370078740157
              },
              {
                "duration": 0.16304350000000056,
                "durationTicks": 60,
                "midi": 53,
                "name": "F3",
                "ticks": 23760,
                "time": 64.565226,
                "velocity": 0.5039370078740157
              },
              {
                "duration": 0.16304350000000056,
                "durationTicks": 60,
                "midi": 51,
                "name": "D#3",
                "ticks": 23820,
                "time": 64.7282695,
                "velocity": 0.5039370078740157
              },
              {
                "duration": 0.16304350000000056,
                "durationTicks": 60,
                "midi": 50,
                "name": "D3",
                "ticks": 23880,
                "time": 64.891313,
                "velocity": 0.5039370078740157
              },
              {
                "duration": 0.16304350000000056,
                "durationTicks": 60,
                "midi": 48,
                "name": "C3",
                "ticks": 23940,
                "time": 65.0543565,
                "velocity": 0.5039370078740157
              },
              {
                "duration": 0.16304350000000056,
                "durationTicks": 60,
                "midi": 47,
                "name": "B2",
                "ticks": 24000,
                "time": 65.2174,
                "velocity": 0.5039370078740157
              },
              {
                "duration": 0.16304350000000056,
                "durationTicks": 60,
                "midi": 56,
                "name": "G#3",
                "ticks": 24060,
                "time": 65.3804435,
                "velocity": 0.5039370078740157
              },
              {
                "duration": 0.16304349999998635,
                "durationTicks": 60,
                "midi": 55,
                "name": "G3",
                "ticks": 24120,
                "time": 65.543487,
                "velocity": 0.5039370078740157
              },
              {
                "duration": 0.16304350000000056,
                "durationTicks": 60,
                "midi": 53,
                "name": "F3",
                "ticks": 24180,
                "time": 65.70653049999999,
                "velocity": 0.5039370078740157
              },
              {
                "duration": 0.16304350000000056,
                "durationTicks": 60,
                "midi": 51,
                "name": "D#3",
                "ticks": 24240,
                "time": 65.86957399999999,
                "velocity": 0.5039370078740157
              },
              {
                "duration": 0.16304350000000056,
                "durationTicks": 60,
                "midi": 50,
                "name": "D3",
                "ticks": 24300,
                "time": 66.03261749999999,
                "velocity": 0.5039370078740157
              },
              {
                "duration": 0.16304350000000056,
                "durationTicks": 60,
                "midi": 48,
                "name": "C3",
                "ticks": 24360,
                "time": 66.19566099999999,
                "velocity": 0.5039370078740157
              },
              {
                "duration": 0.16304350000000056,
                "durationTicks": 60,
                "midi": 47,
                "name": "B2",
                "ticks": 24420,
                "time": 66.35870449999999,
                "velocity": 0.5039370078740157
              },
              {
                "duration": 0.16304350000000056,
                "durationTicks": 60,
                "midi": 48,
                "name": "C3",
                "ticks": 24480,
                "time": 66.52174799999999,
                "velocity": 0.5039370078740157
              },
              {
                "duration": 0.16304350000000056,
                "durationTicks": 60,
                "midi": 43,
                "name": "G2",
                "ticks": 24540,
                "time": 66.68479149999999,
                "velocity": 0.5039370078740157
              },
              {
                "duration": 0.16304350000000056,
                "durationTicks": 60,
                "midi": 44,
                "name": "G#2",
                "ticks": 24600,
                "time": 66.84783499999999,
                "velocity": 0.5039370078740157
              },
              {
                "duration": 0.16304350000000056,
                "durationTicks": 60,
                "midi": 41,
                "name": "F2",
                "ticks": 24660,
                "time": 67.01087849999999,
                "velocity": 0.5039370078740157
              },
              {
                "duration": 0.3260870000000011,
                "durationTicks": 120,
                "midi": 43,
                "name": "G2",
                "ticks": 24720,
                "time": 67.17392199999999,
                "velocity": 0.5039370078740157
              },
              {
                "duration": 0.3260870000000011,
                "durationTicks": 120,
                "midi": 43,
                "name": "G2",
                "ticks": 24840,
                "time": 67.50000899999999,
                "velocity": 0.5039370078740157
              },
              {
                "duration": 2.608695999999995,
                "durationTicks": 960,
                "midi": 36,
                "name": "C2",
                "ticks": 24960,
                "time": 67.82609599999999,
                "velocity": 0.5039370078740157
              }
            ],
            "endOfTrackTicks": 25920
          }
        ]
    },

    "invention-03" : {
        "header": {
          "keySignatures": [],
          "meta": [],
          "name": "Invention 3 in D Major",
          "ppq": 240,
          "tempos": [
            {
              "bpm": 89.9999550000225,
              "ticks": 0
            }
          ],
          "timeSignatures": [
            {
              "ticks": 0,
              "timeSignature": [
                3,
                8
              ],
              "measures": 0
            }
          ]
        },
        "tracks": [
          {
            "channel": 0,
            "controlChanges": {},
            "pitchBends": [],
            "instrument": {
              "family": "piano",
              "number": 0,
              "name": "acoustic grand piano"
            },
            "name": "",
            "notes": [
              {
                "duration": 0.16666674999999997,
                "durationTicks": 60,
                "midi": 62,
                "name": "D4",
                "ticks": 240,
                "time": 0.666667,
                "velocity": 0.5039370078740157
              },
              {
                "duration": 0.16666675000000009,
                "durationTicks": 60,
                "midi": 64,
                "name": "E4",
                "ticks": 300,
                "time": 0.83333375,
                "velocity": 0.5039370078740157
              },
              {
                "duration": 0.16666674999999986,
                "durationTicks": 60,
                "midi": 66,
                "name": "F#4",
                "ticks": 360,
                "time": 1.0000005,
                "velocity": 0.5039370078740157
              },
              {
                "duration": 0.16666675000000009,
                "durationTicks": 60,
                "midi": 64,
                "name": "E4",
                "ticks": 420,
                "time": 1.16666725,
                "velocity": 0.5039370078740157
              },
              {
                "duration": 0.16666675000000009,
                "durationTicks": 60,
                "midi": 67,
                "name": "G4",
                "ticks": 480,
                "time": 1.333334,
                "velocity": 0.5039370078740157
              },
              {
                "duration": 0.16666674999999986,
                "durationTicks": 60,
                "midi": 66,
                "name": "F#4",
                "ticks": 540,
                "time": 1.50000075,
                "velocity": 0.5039370078740157
              },
              {
                "duration": 0.16666675000000009,
                "durationTicks": 60,
                "midi": 64,
                "name": "E4",
                "ticks": 600,
                "time": 1.6666675,
                "velocity": 0.5039370078740157
              },
              {
                "duration": 0.16666675000000009,
                "durationTicks": 60,
                "midi": 62,
                "name": "D4",
                "ticks": 660,
                "time": 1.83333425,
                "velocity": 0.5039370078740157
              },
              {
                "duration": 0.16666675000000009,
                "durationTicks": 60,
                "midi": 69,
                "name": "A4",
                "ticks": 720,
                "time": 2.000001,
                "velocity": 0.5039370078740157
              },
              {
                "duration": 0.16666674999999964,
                "durationTicks": 60,
                "midi": 67,
                "name": "G4",
                "ticks": 780,
                "time": 2.1666677500000002,
                "velocity": 0.5039370078740157
              },
              {
                "duration": 0.16666675000000009,
                "durationTicks": 60,
                "midi": 66,
                "name": "F#4",
                "ticks": 840,
                "time": 2.3333345,
                "velocity": 0.5039370078740157
              },
              {
                "duration": 0.16666675000000009,
                "durationTicks": 60,
                "midi": 64,
                "name": "E4",
                "ticks": 900,
                "time": 2.50000125,
                "velocity": 0.5039370078740157
              },
              {
                "duration": 0.16666675000000009,
                "durationTicks": 60,
                "midi": 66,
                "name": "F#4",
                "ticks": 960,
                "time": 2.666668,
                "velocity": 0.5039370078740157
              },
              {
                "duration": 0.16666675000000009,
                "durationTicks": 60,
                "midi": 62,
                "name": "D4",
                "ticks": 1020,
                "time": 2.83333475,
                "velocity": 0.5039370078740157
              },
              {
                "duration": 0.3333334999999997,
                "durationTicks": 120,
                "midi": 69,
                "name": "A4",
                "ticks": 1080,
                "time": 3.0000015,
                "velocity": 0.5039370078740157
              },
              {
                "duration": 0.33333350000000017,
                "durationTicks": 120,
                "midi": 71,
                "name": "B4",
                "ticks": 1200,
                "time": 3.333335,
                "velocity": 0.5039370078740157
              },
              {
                "duration": 0.055555583333333214,
                "durationTicks": 20,
                "midi": 73,
                "name": "C#5",
                "ticks": 1320,
                "time": 3.6666685,
                "velocity": 0.5039370078740157
              },
              {
                "duration": 0.05555558333333366,
                "durationTicks": 20,
                "midi": 71,
                "name": "B4",
                "ticks": 1340,
                "time": 3.7222240833333333,
                "velocity": 0.4409448818897638
              },
              {
                "duration": 0.055555583333333214,
                "durationTicks": 20,
                "midi": 73,
                "name": "C#5",
                "ticks": 1360,
                "time": 3.777779666666667,
                "velocity": 0.5039370078740157
              },
              {
                "duration": 0.16666675000000009,
                "durationTicks": 60,
                "midi": 74,
                "name": "D5",
                "ticks": 1380,
                "time": 3.83333525,
                "velocity": 0.5039370078740157
              },
              {
                "duration": 0.0833333749999996,
                "durationTicks": 30,
                "midi": 73,
                "name": "C#5",
                "ticks": 1440,
                "time": 4.000002,
                "velocity": 0.5039370078740157
              },
              {
                "duration": 0.08333337500000049,
                "durationTicks": 30,
                "midi": 74,
                "name": "D5",
                "ticks": 1470,
                "time": 4.083335375,
                "velocity": 0.4409448818897638
              },
              {
                "duration": 0.16666675000000009,
                "durationTicks": 60,
                "midi": 73,
                "name": "C#5",
                "ticks": 1500,
                "time": 4.16666875,
                "velocity": 0.5039370078740157
              },
              {
                "duration": 0.0833333749999996,
                "durationTicks": 30,
                "midi": 71,
                "name": "B4",
                "ticks": 1560,
                "time": 4.3333355000000005,
                "velocity": 0.4409448818897638
              },
              {
                "duration": 0.20833343750000033,
                "durationTicks": 75,
                "midi": 69,
                "name": "A4",
                "ticks": 1590,
                "time": 4.416668875,
                "velocity": 0.5039370078740157
              },
              {
                "duration": 0.16666675000000009,
                "durationTicks": 60,
                "midi": 73,
                "name": "C#5",
                "ticks": 1680,
                "time": 4.666669,
                "velocity": 0.5039370078740157
              },
              {
                "duration": 0.16666675000000009,
                "durationTicks": 60,
                "midi": 74,
                "name": "D5",
                "ticks": 1740,
                "time": 4.83333575,
                "velocity": 0.5039370078740157
              },
              {
                "duration": 0.16666675000000009,
                "durationTicks": 60,
                "midi": 76,
                "name": "E5",
                "ticks": 1800,
                "time": 5.0000025,
                "velocity": 0.5039370078740157
              },
              {
                "duration": 0.16666675000000009,
                "durationTicks": 60,
                "midi": 73,
                "name": "C#5",
                "ticks": 1860,
                "time": 5.16666925,
                "velocity": 0.5039370078740157
              },
              {
                "duration": 0.16666675000000009,
                "durationTicks": 60,
                "midi": 78,
                "name": "F#5",
                "ticks": 1920,
                "time": 5.333336,
                "velocity": 0.5039370078740157
              },
              {
                "duration": 0.16666675000000009,
                "durationTicks": 60,
                "midi": 74,
                "name": "D5",
                "ticks": 1980,
                "time": 5.50000275,
                "velocity": 0.5039370078740157
              },
              {
                "duration": 0.16666675000000009,
                "durationTicks": 60,
                "midi": 73,
                "name": "C#5",
                "ticks": 2040,
                "time": 5.6666695,
                "velocity": 0.5039370078740157
              },
              {
                "duration": 0.16666675000000009,
                "durationTicks": 60,
                "midi": 71,
                "name": "B4",
                "ticks": 2100,
                "time": 5.83333625,
                "velocity": 0.5039370078740157
              },
              {
                "duration": 0.16666675000000009,
                "durationTicks": 60,
                "midi": 76,
                "name": "E5",
                "ticks": 2160,
                "time": 6.000003,
                "velocity": 0.5039370078740157
              },
              {
                "duration": 0.1666667499999992,
                "durationTicks": 60,
                "midi": 73,
                "name": "C#5",
                "ticks": 2220,
                "time": 6.1666697500000005,
                "velocity": 0.5039370078740157
              },
              {
                "duration": 0.16666675000000009,
                "durationTicks": 60,
                "midi": 74,
                "name": "D5",
                "ticks": 2280,
                "time": 6.3333365,
                "velocity": 0.5039370078740157
              },
              {
                "duration": 0.16666675000000009,
                "durationTicks": 60,
                "midi": 71,
                "name": "B4",
                "ticks": 2340,
                "time": 6.50000325,
                "velocity": 0.5039370078740157
              },
              {
                "duration": 0.16666675000000009,
                "durationTicks": 60,
                "midi": 69,
                "name": "A4",
                "ticks": 2400,
                "time": 6.66667,
                "velocity": 0.5039370078740157
              },
              {
                "duration": 0.16666675000000009,
                "durationTicks": 60,
                "midi": 68,
                "name": "G#4",
                "ticks": 2460,
                "time": 6.83333675,
                "velocity": 0.5039370078740157
              },
              {
                "duration": 0.16666675000000009,
                "durationTicks": 60,
                "midi": 76,
                "name": "E5",
                "ticks": 2520,
                "time": 7.0000035,
                "velocity": 0.5039370078740157
              },
              {
                "duration": 0.16666675000000009,
                "durationTicks": 60,
                "midi": 73,
                "name": "C#5",
                "ticks": 2580,
                "time": 7.16667025,
                "velocity": 0.5039370078740157
              },
              {
                "duration": 0.16666675000000009,
                "durationTicks": 60,
                "midi": 78,
                "name": "F#5",
                "ticks": 2640,
                "time": 7.333337,
                "velocity": 0.5039370078740157
              },
              {
                "duration": 0.16666675000000009,
                "durationTicks": 60,
                "midi": 74,
                "name": "D5",
                "ticks": 2700,
                "time": 7.50000375,
                "velocity": 0.5039370078740157
              },
              {
                "duration": 0.16666675000000009,
                "durationTicks": 60,
                "midi": 73,
                "name": "C#5",
                "ticks": 2760,
                "time": 7.6666705,
                "velocity": 0.5039370078740157
              },
              {
                "duration": 0.16666675000000009,
                "durationTicks": 60,
                "midi": 71,
                "name": "B4",
                "ticks": 2820,
                "time": 7.8333372500000005,
                "velocity": 0.5039370078740157
              },
              {
                "duration": 0.1666667499999992,
                "durationTicks": 60,
                "midi": 76,
                "name": "E5",
                "ticks": 2880,
                "time": 8.000004,
                "velocity": 0.5039370078740157
              },
              {
                "duration": 0.16666675000000097,
                "durationTicks": 60,
                "midi": 73,
                "name": "C#5",
                "ticks": 2940,
                "time": 8.16667075,
                "velocity": 0.5039370078740157
              },
              {
                "duration": 0.1666667499999992,
                "durationTicks": 60,
                "midi": 74,
                "name": "D5",
                "ticks": 3000,
                "time": 8.3333375,
                "velocity": 0.5039370078740157
              },
              {
                "duration": 0.16666675000000097,
                "durationTicks": 60,
                "midi": 71,
                "name": "B4",
                "ticks": 3060,
                "time": 8.50000425,
                "velocity": 0.5039370078740157
              },
              {
                "duration": 0.1666667499999992,
                "durationTicks": 60,
                "midi": 69,
                "name": "A4",
                "ticks": 3120,
                "time": 8.666671000000001,
                "velocity": 0.5039370078740157
              },
              {
                "duration": 0.1666667499999992,
                "durationTicks": 60,
                "midi": 68,
                "name": "G#4",
                "ticks": 3180,
                "time": 8.83333775,
                "velocity": 0.5039370078740157
              },
              {
                "duration": 0.16666675000000097,
                "durationTicks": 60,
                "midi": 73,
                "name": "C#5",
                "ticks": 3240,
                "time": 9.0000045,
                "velocity": 0.5039370078740157
              },
              {
                "duration": 0.1666667499999992,
                "durationTicks": 60,
                "midi": 71,
                "name": "B4",
                "ticks": 3300,
                "time": 9.16667125,
                "velocity": 0.5039370078740157
              },
              {
                "duration": 0.16666675000000097,
                "durationTicks": 60,
                "midi": 74,
                "name": "D5",
                "ticks": 3360,
                "time": 9.333338,
                "velocity": 0.5039370078740157
              },
              {
                "duration": 0.1666667499999992,
                "durationTicks": 60,
                "midi": 73,
                "name": "C#5",
                "ticks": 3420,
                "time": 9.50000475,
                "velocity": 0.5039370078740157
              },
              {
                "duration": 0.16666675000000097,
                "durationTicks": 60,
                "midi": 71,
                "name": "B4",
                "ticks": 3480,
                "time": 9.6666715,
                "velocity": 0.5039370078740157
              },
              {
                "duration": 0.1666667499999992,
                "durationTicks": 60,
                "midi": 69,
                "name": "A4",
                "ticks": 3540,
                "time": 9.83333825,
                "velocity": 0.5039370078740157
              },
              {
                "duration": 0.33333350000000017,
                "durationTicks": 120,
                "midi": 78,
                "name": "F#5",
                "ticks": 3600,
                "time": 10.000005,
                "velocity": 0.5039370078740157
              },
              {
                "duration": 0.33333350000000017,
                "durationTicks": 120,
                "midi": 68,
                "name": "G#4",
                "ticks": 3720,
                "time": 10.3333385,
                "velocity": 0.5039370078740157
              },
              {
                "duration": 0.361111291666667,
                "durationTicks": 130,
                "midi": 69,
                "name": "A4",
                "ticks": 3840,
                "time": 10.666672,
                "velocity": 0.5039370078740157
              },
              {
                "duration": 0.055555583333335434,
                "durationTicks": 20,
                "midi": 71,
                "name": "B4",
                "ticks": 3980,
                "time": 11.055561083333332,
                "velocity": 0.5039370078740157
              },
              {
                "duration": 0.05555558333333188,
                "durationTicks": 20,
                "midi": 69,
                "name": "A4",
                "ticks": 4000,
                "time": 11.111116666666668,
                "velocity": 0.3858267716535433
              },
              {
                "duration": 0.05555558333333366,
                "durationTicks": 20,
                "midi": 68,
                "name": "G#4",
                "ticks": 4020,
                "time": 11.16667225,
                "velocity": 0.4094488188976378
              },
              {
                "duration": 0.05555558333333366,
                "durationTicks": 20,
                "midi": 69,
                "name": "A4",
                "ticks": 4040,
                "time": 11.222227833333333,
                "velocity": 0.4409448818897638
              },
              {
                "duration": 0.027777791666665053,
                "durationTicks": 10,
                "midi": 71,
                "name": "B4",
                "ticks": 4060,
                "time": 11.277783416666667,
                "velocity": 0.5039370078740157
              },
              {
                "duration": 0.5000002499999994,
                "durationTicks": 180,
                "midi": 71,
                "name": "B4",
                "ticks": 4080,
                "time": 11.333339,
                "velocity": 0.5039370078740157
              },
              {
                "duration": 0.16666675000000097,
                "durationTicks": 60,
                "midi": 69,
                "name": "A4",
                "ticks": 4260,
                "time": 11.83333925,
                "velocity": 0.5039370078740157
              },
              {
                "duration": 0.6666669999999986,
                "durationTicks": 240,
                "midi": 69,
                "name": "A4",
                "ticks": 4320,
                "time": 12.000006,
                "velocity": 0.5039370078740157
              },
              {
                "duration": 0.33333350000000017,
                "durationTicks": 120,
                "midi": 76,
                "name": "E5",
                "ticks": 4800,
                "time": 13.33334,
                "velocity": 0.5039370078740157
              },
              {
                "duration": 0.5000002500000011,
                "durationTicks": 180,
                "midi": 81,
                "name": "A5",
                "ticks": 4920,
                "time": 13.6666735,
                "velocity": 0.5039370078740157
              },
              {
                "duration": 0.1666667499999992,
                "durationTicks": 60,
                "midi": 71,
                "name": "B4",
                "ticks": 5100,
                "time": 14.166673750000001,
                "velocity": 0.5039370078740157
              },
              {
                "duration": 0.1666667499999992,
                "durationTicks": 60,
                "midi": 73,
                "name": "C#5",
                "ticks": 5160,
                "time": 14.3333405,
                "velocity": 0.5039370078740157
              },
              {
                "duration": 0.16666675000000097,
                "durationTicks": 60,
                "midi": 75,
                "name": "D#5",
                "ticks": 5220,
                "time": 14.50000725,
                "velocity": 0.5039370078740157
              },
              {
                "duration": 0.1666667499999992,
                "durationTicks": 60,
                "midi": 76,
                "name": "E5",
                "ticks": 5280,
                "time": 14.666674,
                "velocity": 0.5039370078740157
              },
              {
                "duration": 0.16666675000000097,
                "durationTicks": 60,
                "midi": 78,
                "name": "F#5",
                "ticks": 5340,
                "time": 14.83334075,
                "velocity": 0.5039370078740157
              },
              {
                "duration": 0.1666667499999992,
                "durationTicks": 60,
                "midi": 79,
                "name": "G5",
                "ticks": 5400,
                "time": 15.0000075,
                "velocity": 0.5039370078740157
              },
              {
                "duration": 0.16666675000000097,
                "durationTicks": 60,
                "midi": 78,
                "name": "F#5",
                "ticks": 5460,
                "time": 15.16667425,
                "velocity": 0.5039370078740157
              },
              {
                "duration": 0.1666667499999992,
                "durationTicks": 60,
                "midi": 81,
                "name": "A5",
                "ticks": 5520,
                "time": 15.333341,
                "velocity": 0.5039370078740157
              },
              {
                "duration": 0.16666675000000097,
                "durationTicks": 60,
                "midi": 79,
                "name": "G5",
                "ticks": 5580,
                "time": 15.50000775,
                "velocity": 0.5039370078740157
              },
              {
                "duration": 0.1666667499999992,
                "durationTicks": 60,
                "midi": 78,
                "name": "F#5",
                "ticks": 5640,
                "time": 15.666674500000001,
                "velocity": 0.5039370078740157
              },
              {
                "duration": 0.16666675000000097,
                "durationTicks": 60,
                "midi": 76,
                "name": "E5",
                "ticks": 5700,
                "time": 15.83334125,
                "velocity": 0.5039370078740157
              },
              {
                "duration": 0.3333334999999984,
                "durationTicks": 120,
                "midi": 83,
                "name": "B5",
                "ticks": 5760,
                "time": 16.000008,
                "velocity": 0.5039370078740157
              },
              {
                "duration": 0.33333350000000195,
                "durationTicks": 120,
                "midi": 71,
                "name": "B4",
                "ticks": 5880,
                "time": 16.3333415,
                "velocity": 0.5039370078740157
              },
              {
                "duration": 0.3333334999999984,
                "durationTicks": 120,
                "midi": 66,
                "name": "F#4",
                "ticks": 6240,
                "time": 17.333342000000002,
                "velocity": 0.5039370078740157
              },
              {
                "duration": 0.5000002499999994,
                "durationTicks": 180,
                "midi": 71,
                "name": "B4",
                "ticks": 6360,
                "time": 17.6666755,
                "velocity": 0.5039370078740157
              },
              {
                "duration": 0.16666675000000097,
                "durationTicks": 60,
                "midi": 70,
                "name": "A#4",
                "ticks": 6540,
                "time": 18.16667575,
                "velocity": 0.5039370078740157
              },
              {
                "duration": 0.16666675000000097,
                "durationTicks": 60,
                "midi": 71,
                "name": "B4",
                "ticks": 6600,
                "time": 18.3333425,
                "velocity": 0.5039370078740157
              },
              {
                "duration": 0.16666674999999742,
                "durationTicks": 60,
                "midi": 73,
                "name": "C#5",
                "ticks": 6660,
                "time": 18.50000925,
                "velocity": 0.5039370078740157
              },
              {
                "duration": 0.16666675000000097,
                "durationTicks": 60,
                "midi": 74,
                "name": "D5",
                "ticks": 6720,
                "time": 18.666676,
                "velocity": 0.5039370078740157
              },
              {
                "duration": 0.16666675000000097,
                "durationTicks": 60,
                "midi": 76,
                "name": "E5",
                "ticks": 6780,
                "time": 18.83334275,
                "velocity": 0.5039370078740157
              },
              {
                "duration": 0.16666675000000097,
                "durationTicks": 60,
                "midi": 78,
                "name": "F#5",
                "ticks": 6840,
                "time": 19.0000095,
                "velocity": 0.5039370078740157
              },
              {
                "duration": 0.16666674999999742,
                "durationTicks": 60,
                "midi": 76,
                "name": "E5",
                "ticks": 6900,
                "time": 19.166676250000002,
                "velocity": 0.5039370078740157
              },
              {
                "duration": 0.16666675000000097,
                "durationTicks": 60,
                "midi": 79,
                "name": "G5",
                "ticks": 6960,
                "time": 19.333343,
                "velocity": 0.5039370078740157
              },
              {
                "duration": 0.16666675000000097,
                "durationTicks": 60,
                "midi": 78,
                "name": "F#5",
                "ticks": 7020,
                "time": 19.50000975,
                "velocity": 0.5039370078740157
              },
              {
                "duration": 0.16666674999999742,
                "durationTicks": 60,
                "midi": 76,
                "name": "E5",
                "ticks": 7080,
                "time": 19.6666765,
                "velocity": 0.5039370078740157
              },
              {
                "duration": 0.16666675000000097,
                "durationTicks": 60,
                "midi": 74,
                "name": "D5",
                "ticks": 7140,
                "time": 19.83334325,
                "velocity": 0.5039370078740157
              },
              {
                "duration": 0.16666675000000097,
                "durationTicks": 60,
                "midi": 76,
                "name": "E5",
                "ticks": 7200,
                "time": 20.00001,
                "velocity": 0.5039370078740157
              },
              {
                "duration": 0.16666675000000097,
                "durationTicks": 60,
                "midi": 74,
                "name": "D5",
                "ticks": 7260,
                "time": 20.16667675,
                "velocity": 0.5039370078740157
              },
              {
                "duration": 0.16666674999999742,
                "durationTicks": 60,
                "midi": 78,
                "name": "F#5",
                "ticks": 7320,
                "time": 20.3333435,
                "velocity": 0.5039370078740157
              },
              {
                "duration": 0.16666675000000097,
                "durationTicks": 60,
                "midi": 76,
                "name": "E5",
                "ticks": 7380,
                "time": 20.50001025,
                "velocity": 0.5039370078740157
              },
              {
                "duration": 0.16666675000000097,
                "durationTicks": 60,
                "midi": 74,
                "name": "D5",
                "ticks": 7440,
                "time": 20.666677,
                "velocity": 0.5039370078740157
              },
              {
                "duration": 0.16666675000000097,
                "durationTicks": 60,
                "midi": 73,
                "name": "C#5",
                "ticks": 7500,
                "time": 20.83334375,
                "velocity": 0.5039370078740157
              },
              {
                "duration": 0.16666674999999742,
                "durationTicks": 60,
                "midi": 74,
                "name": "D5",
                "ticks": 7560,
                "time": 21.000010500000002,
                "velocity": 0.5039370078740157
              },
              {
                "duration": 0.16666675000000097,
                "durationTicks": 60,
                "midi": 73,
                "name": "C#5",
                "ticks": 7620,
                "time": 21.16667725,
                "velocity": 0.5039370078740157
              },
              {
                "duration": 0.16666675000000097,
                "durationTicks": 60,
                "midi": 76,
                "name": "E5",
                "ticks": 7680,
                "time": 21.333344,
                "velocity": 0.5039370078740157
              },
              {
                "duration": 0.16666674999999742,
                "durationTicks": 60,
                "midi": 74,
                "name": "D5",
                "ticks": 7740,
                "time": 21.50001075,
                "velocity": 0.5039370078740157
              },
              {
                "duration": 0.16666675000000097,
                "durationTicks": 60,
                "midi": 73,
                "name": "C#5",
                "ticks": 7800,
                "time": 21.6666775,
                "velocity": 0.5039370078740157
              },
              {
                "duration": 0.16666675000000097,
                "durationTicks": 60,
                "midi": 71,
                "name": "B4",
                "ticks": 7860,
                "time": 21.83334425,
                "velocity": 0.5039370078740157
              },
              {
                "duration": 0.3333334999999984,
                "durationTicks": 120,
                "midi": 73,
                "name": "C#5",
                "ticks": 7920,
                "time": 22.000011,
                "velocity": 0.5039370078740157
              },
              {
                "duration": 0.08333337500000226,
                "durationTicks": 30,
                "midi": 70,
                "name": "A#4",
                "ticks": 8040,
                "time": 22.3333445,
                "velocity": 0.5039370078740157
              },
              {
                "duration": 0.08333337499999871,
                "durationTicks": 30,
                "midi": 68,
                "name": "G#4",
                "ticks": 8070,
                "time": 22.416677875,
                "velocity": 0.4409448818897638
              },
              {
                "duration": 0.16666675000000097,
                "durationTicks": 60,
                "midi": 70,
                "name": "A#4",
                "ticks": 8100,
                "time": 22.50001125,
                "velocity": 0.5039370078740157
              },
              {
                "duration": 0.5000002499999994,
                "durationTicks": 180,
                "midi": 71,
                "name": "B4",
                "ticks": 8160,
                "time": 22.666678,
                "velocity": 0.5039370078740157
              },
              {
                "duration": 0.13888895833333592,
                "durationTicks": 50,
                "midi": 73,
                "name": "C#5",
                "ticks": 8340,
                "time": 23.16667825,
                "velocity": 0.5039370078740157
              },
              {
                "duration": 0.08333337499999871,
                "durationTicks": 30,
                "midi": 73,
                "name": "C#5",
                "ticks": 8400,
                "time": 23.333345,
                "velocity": 0.5039370078740157
              },
              {
                "duration": 0.08333337499999871,
                "durationTicks": 30,
                "midi": 74,
                "name": "D5",
                "ticks": 8430,
                "time": 23.416678375,
                "velocity": 0.4409448818897638
              },
              {
                "duration": 0.33333350000000195,
                "durationTicks": 120,
                "midi": 73,
                "name": "C#5",
                "ticks": 8460,
                "time": 23.50001175,
                "velocity": 0.5039370078740157
              },
              {
                "duration": 0.3333334999999984,
                "durationTicks": 120,
                "midi": 71,
                "name": "B4",
                "ticks": 8580,
                "time": 23.83334525,
                "velocity": 0.5039370078740157
              },
              {
                "duration": 0.16666675000000097,
                "durationTicks": 60,
                "midi": 66,
                "name": "F#4",
                "ticks": 8700,
                "time": 24.16667875,
                "velocity": 0.5039370078740157
              },
              {
                "duration": 0.16666675000000097,
                "durationTicks": 60,
                "midi": 68,
                "name": "G#4",
                "ticks": 8760,
                "time": 24.3333455,
                "velocity": 0.5039370078740157
              },
              {
                "duration": 0.16666675000000097,
                "durationTicks": 60,
                "midi": 70,
                "name": "A#4",
                "ticks": 8820,
                "time": 24.50001225,
                "velocity": 0.5039370078740157
              },
              {
                "duration": 0.16666674999999742,
                "durationTicks": 60,
                "midi": 71,
                "name": "B4",
                "ticks": 8880,
                "time": 24.666679000000002,
                "velocity": 0.5039370078740157
              },
              {
                "duration": 0.16666675000000097,
                "durationTicks": 60,
                "midi": 73,
                "name": "C#5",
                "ticks": 8940,
                "time": 24.83334575,
                "velocity": 0.5039370078740157
              },
              {
                "duration": 0.16666675000000097,
                "durationTicks": 60,
                "midi": 74,
                "name": "D5",
                "ticks": 9000,
                "time": 25.0000125,
                "velocity": 0.5039370078740157
              },
              {
                "duration": 0.16666674999999742,
                "durationTicks": 60,
                "midi": 73,
                "name": "C#5",
                "ticks": 9060,
                "time": 25.16667925,
                "velocity": 0.5039370078740157
              },
              {
                "duration": 0.16666675000000097,
                "durationTicks": 60,
                "midi": 76,
                "name": "E5",
                "ticks": 9120,
                "time": 25.333346,
                "velocity": 0.5039370078740157
              },
              {
                "duration": 0.16666675000000097,
                "durationTicks": 60,
                "midi": 74,
                "name": "D5",
                "ticks": 9180,
                "time": 25.50001275,
                "velocity": 0.5039370078740157
              },
              {
                "duration": 0.16666675000000097,
                "durationTicks": 60,
                "midi": 73,
                "name": "C#5",
                "ticks": 9240,
                "time": 25.6666795,
                "velocity": 0.5039370078740157
              },
              {
                "duration": 0.16666674999999742,
                "durationTicks": 60,
                "midi": 71,
                "name": "B4",
                "ticks": 9300,
                "time": 25.83334625,
                "velocity": 0.5039370078740157
              },
              {
                "duration": 2.138889958333337,
                "durationTicks": 770,
                "midi": 79,
                "name": "G5",
                "ticks": 9360,
                "time": 26.000013,
                "velocity": 0.5039370078740157
              },
              {
                "duration": 0.16666675000000097,
                "durationTicks": 60,
                "midi": 64,
                "name": "E4",
                "ticks": 10140,
                "time": 28.16668075,
                "velocity": 0.5039370078740157
              },
              {
                "duration": 0.16666674999999742,
                "durationTicks": 60,
                "midi": 66,
                "name": "F#4",
                "ticks": 10200,
                "time": 28.333347500000002,
                "velocity": 0.5039370078740157
              },
              {
                "duration": 0.16666675000000097,
                "durationTicks": 60,
                "midi": 68,
                "name": "G#4",
                "ticks": 10260,
                "time": 28.50001425,
                "velocity": 0.5039370078740157
              },
              {
                "duration": 0.16666675000000097,
                "durationTicks": 60,
                "midi": 69,
                "name": "A4",
                "ticks": 10320,
                "time": 28.666681,
                "velocity": 0.5039370078740157
              },
              {
                "duration": 0.16666674999999742,
                "durationTicks": 60,
                "midi": 71,
                "name": "B4",
                "ticks": 10380,
                "time": 28.83334775,
                "velocity": 0.5039370078740157
              },
              {
                "duration": 0.16666675000000097,
                "durationTicks": 60,
                "midi": 73,
                "name": "C#5",
                "ticks": 10440,
                "time": 29.0000145,
                "velocity": 0.5039370078740157
              },
              {
                "duration": 0.16666675000000097,
                "durationTicks": 60,
                "midi": 71,
                "name": "B4",
                "ticks": 10500,
                "time": 29.16668125,
                "velocity": 0.5039370078740157
              },
              {
                "duration": 0.16666675000000097,
                "durationTicks": 60,
                "midi": 74,
                "name": "D5",
                "ticks": 10560,
                "time": 29.333348,
                "velocity": 0.5039370078740157
              },
              {
                "duration": 0.16666674999999742,
                "durationTicks": 60,
                "midi": 73,
                "name": "C#5",
                "ticks": 10620,
                "time": 29.500014750000002,
                "velocity": 0.5039370078740157
              },
              {
                "duration": 0.16666675000000097,
                "durationTicks": 60,
                "midi": 71,
                "name": "B4",
                "ticks": 10680,
                "time": 29.6666815,
                "velocity": 0.5039370078740157
              },
              {
                "duration": 0.16666675000000097,
                "durationTicks": 60,
                "midi": 69,
                "name": "A4",
                "ticks": 10740,
                "time": 29.83334825,
                "velocity": 0.5039370078740157
              },
              {
                "duration": 2.1388899583333334,
                "durationTicks": 770,
                "midi": 78,
                "name": "F#5",
                "ticks": 10800,
                "time": 30.000015,
                "velocity": 0.5039370078740157
              },
              {
                "duration": 0.16666674999999742,
                "durationTicks": 60,
                "midi": 71,
                "name": "B4",
                "ticks": 11580,
                "time": 32.16668275,
                "velocity": 0.5039370078740157
              },
              {
                "duration": 0.16666675000000453,
                "durationTicks": 60,
                "midi": 76,
                "name": "E5",
                "ticks": 11640,
                "time": 32.3333495,
                "velocity": 0.5039370078740157
              },
              {
                "duration": 0.16666674999999742,
                "durationTicks": 60,
                "midi": 74,
                "name": "D5",
                "ticks": 11700,
                "time": 32.50001625,
                "velocity": 0.5039370078740157
              },
              {
                "duration": 0.16666675000000453,
                "durationTicks": 60,
                "midi": 73,
                "name": "C#5",
                "ticks": 11760,
                "time": 32.666683,
                "velocity": 0.5039370078740157
              },
              {
                "duration": 0.16666674999999742,
                "durationTicks": 60,
                "midi": 71,
                "name": "B4",
                "ticks": 11820,
                "time": 32.833349750000004,
                "velocity": 0.5039370078740157
              },
              {
                "duration": 0.16666674999999742,
                "durationTicks": 60,
                "midi": 73,
                "name": "C#5",
                "ticks": 11880,
                "time": 33.0000165,
                "velocity": 0.5039370078740157
              },
              {
                "duration": 0.16666675000000453,
                "durationTicks": 60,
                "midi": 71,
                "name": "B4",
                "ticks": 11940,
                "time": 33.16668325,
                "velocity": 0.5039370078740157
              },
              {
                "duration": 0.16666674999999742,
                "durationTicks": 60,
                "midi": 74,
                "name": "D5",
                "ticks": 12000,
                "time": 33.33335,
                "velocity": 0.5039370078740157
              },
              {
                "duration": 0.16666674999999742,
                "durationTicks": 60,
                "midi": 73,
                "name": "C#5",
                "ticks": 12060,
                "time": 33.50001675,
                "velocity": 0.5039370078740157
              },
              {
                "duration": 0.16666675000000453,
                "durationTicks": 60,
                "midi": 71,
                "name": "B4",
                "ticks": 12120,
                "time": 33.6666835,
                "velocity": 0.5039370078740157
              },
              {
                "duration": 0.16666674999999742,
                "durationTicks": 60,
                "midi": 69,
                "name": "A4",
                "ticks": 12180,
                "time": 33.83335025,
                "velocity": 0.5039370078740157
              },
              {
                "duration": 0.08333337500000226,
                "durationTicks": 30,
                "midi": 68,
                "name": "G#4",
                "ticks": 12240,
                "time": 34.000017,
                "velocity": 0.5039370078740157
              },
              {
                "duration": 0.08333337499999516,
                "durationTicks": 30,
                "midi": 69,
                "name": "A4",
                "ticks": 12270,
                "time": 34.083350375,
                "velocity": 0.4409448818897638
              },
              {
                "duration": 0.16666675000000453,
                "durationTicks": 60,
                "midi": 68,
                "name": "G#4",
                "ticks": 12300,
                "time": 34.16668375,
                "velocity": 0.5039370078740157
              },
              {
                "duration": 0.33333350000000195,
                "durationTicks": 120,
                "midi": 64,
                "name": "E4",
                "ticks": 12360,
                "time": 34.3333505,
                "velocity": 0.5039370078740157
              },
              {
                "duration": 0.16666674999999742,
                "durationTicks": 60,
                "midi": 69,
                "name": "A4",
                "ticks": 12480,
                "time": 34.666684000000004,
                "velocity": 0.5039370078740157
              },
              {
                "duration": 0.16666674999999742,
                "durationTicks": 60,
                "midi": 71,
                "name": "B4",
                "ticks": 12540,
                "time": 34.83335075,
                "velocity": 0.5039370078740157
              },
              {
                "duration": 0.16666675000000453,
                "durationTicks": 60,
                "midi": 73,
                "name": "C#5",
                "ticks": 12600,
                "time": 35.0000175,
                "velocity": 0.5039370078740157
              },
              {
                "duration": 0.16666674999999742,
                "durationTicks": 60,
                "midi": 71,
                "name": "B4",
                "ticks": 12660,
                "time": 35.16668425,
                "velocity": 0.5039370078740157
              },
              {
                "duration": 0.16666674999999742,
                "durationTicks": 60,
                "midi": 74,
                "name": "D5",
                "ticks": 12720,
                "time": 35.333351,
                "velocity": 0.5039370078740157
              },
              {
                "duration": 0.16666675000000453,
                "durationTicks": 60,
                "midi": 73,
                "name": "C#5",
                "ticks": 12780,
                "time": 35.50001775,
                "velocity": 0.5039370078740157
              },
              {
                "duration": 0.16666674999999742,
                "durationTicks": 60,
                "midi": 71,
                "name": "B4",
                "ticks": 12840,
                "time": 35.6666845,
                "velocity": 0.5039370078740157
              },
              {
                "duration": 0.16666674999999742,
                "durationTicks": 60,
                "midi": 69,
                "name": "A4",
                "ticks": 12900,
                "time": 35.83335125,
                "velocity": 0.5039370078740157
              },
              {
                "duration": 0.5000002500000065,
                "durationTicks": 180,
                "midi": 78,
                "name": "F#5",
                "ticks": 12960,
                "time": 36.000018,
                "velocity": 0.5039370078740157
              },
              {
                "duration": 0.16666674999999742,
                "durationTicks": 60,
                "midi": 68,
                "name": "G#4",
                "ticks": 13140,
                "time": 36.500018250000004,
                "velocity": 0.5039370078740157
              },
              {
                "duration": 0.16666674999999742,
                "durationTicks": 60,
                "midi": 69,
                "name": "A4",
                "ticks": 13200,
                "time": 36.666685,
                "velocity": 0.5039370078740157
              },
              {
                "duration": 0.16666675000000453,
                "durationTicks": 60,
                "midi": 68,
                "name": "G#4",
                "ticks": 13260,
                "time": 36.83335175,
                "velocity": 0.5039370078740157
              },
              {
                "duration": 0.16666674999999742,
                "durationTicks": 60,
                "midi": 69,
                "name": "A4",
                "ticks": 13320,
                "time": 37.0000185,
                "velocity": 0.5039370078740157
              },
              {
                "duration": 0.16666674999999742,
                "durationTicks": 60,
                "midi": 74,
                "name": "D5",
                "ticks": 13380,
                "time": 37.16668525,
                "velocity": 0.5039370078740157
              },
              {
                "duration": 0.5000002499999994,
                "durationTicks": 180,
                "midi": 71,
                "name": "B4",
                "ticks": 13440,
                "time": 37.333352,
                "velocity": 0.5039370078740157
              },
              {
                "duration": 0.13888895833333947,
                "durationTicks": 50,
                "midi": 69,
                "name": "A4",
                "ticks": 13620,
                "time": 37.83335225,
                "velocity": 0.5039370078740157
              },
              {
                "duration": 0.5000002499999994,
                "durationTicks": 180,
                "midi": 69,
                "name": "A4",
                "ticks": 13680,
                "time": 38.000019,
                "velocity": 0.5039370078740157
              },
              {
                "duration": 0.16666674999999742,
                "durationTicks": 60,
                "midi": 73,
                "name": "C#5",
                "ticks": 13860,
                "time": 38.50001925,
                "velocity": 0.5039370078740157
              },
              {
                "duration": 0.16666675000000453,
                "durationTicks": 60,
                "midi": 74,
                "name": "D5",
                "ticks": 13920,
                "time": 38.666686,
                "velocity": 0.5039370078740157
              },
              {
                "duration": 0.16666674999999742,
                "durationTicks": 60,
                "midi": 76,
                "name": "E5",
                "ticks": 13980,
                "time": 38.83335275,
                "velocity": 0.5039370078740157
              },
              {
                "duration": 0.33333350000000195,
                "durationTicks": 120,
                "midi": 66,
                "name": "F#4",
                "ticks": 14040,
                "time": 39.0000195,
                "velocity": 0.5039370078740157
              },
              {
                "duration": 0.33333349999999484,
                "durationTicks": 120,
                "midi": 67,
                "name": "G4",
                "ticks": 14160,
                "time": 39.333353,
                "velocity": 0.5039370078740157
              },
              {
                "duration": 0.08333337500000226,
                "durationTicks": 30,
                "midi": 71,
                "name": "B4",
                "ticks": 14280,
                "time": 39.6666865,
                "velocity": 0.5039370078740157
              },
              {
                "duration": 0.08333337500000226,
                "durationTicks": 30,
                "midi": 69,
                "name": "A4",
                "ticks": 14310,
                "time": 39.750019875,
                "velocity": 0.3779527559055118
              },
              {
                "duration": 0.08333337500000226,
                "durationTicks": 30,
                "midi": 67,
                "name": "G4",
                "ticks": 14340,
                "time": 39.83335325,
                "velocity": 0.4015748031496063
              },
              {
                "duration": 0.08333337499999516,
                "durationTicks": 30,
                "midi": 69,
                "name": "A4",
                "ticks": 14370,
                "time": 39.916686625000004,
                "velocity": 0.4330708661417323
              },
              {
                "duration": 0.33333350000000195,
                "durationTicks": 120,
                "midi": 71,
                "name": "B4",
                "ticks": 14400,
                "time": 40.00002,
                "velocity": 0.5039370078740157
              },
              {
                "duration": 0.08333337500000226,
                "durationTicks": 30,
                "midi": 74,
                "name": "D5",
                "ticks": 14520,
                "time": 40.3333535,
                "velocity": 0.5039370078740157
              },
              {
                "duration": 0.08333337499999516,
                "durationTicks": 30,
                "midi": 73,
                "name": "C#5",
                "ticks": 14550,
                "time": 40.416686875,
                "velocity": 0.3858267716535433
              },
              {
                "duration": 0.08333337500000226,
                "durationTicks": 30,
                "midi": 71,
                "name": "B4",
                "ticks": 14580,
                "time": 40.50002025,
                "velocity": 0.4251968503937008
              },
              {
                "duration": 0.08333337500000226,
                "durationTicks": 30,
                "midi": 73,
                "name": "C#5",
                "ticks": 14610,
                "time": 40.583353625,
                "velocity": 0.4566929133858268
              },
              {
                "duration": 0.5000002499999994,
                "durationTicks": 180,
                "midi": 74,
                "name": "D5",
                "ticks": 14640,
                "time": 40.666687,
                "velocity": 0.5039370078740157
              },
              {
                "duration": 0.16666674999999742,
                "durationTicks": 60,
                "midi": 73,
                "name": "C#5",
                "ticks": 14820,
                "time": 41.16668725,
                "velocity": 0.5039370078740157
              },
              {
                "duration": 0.16666674999999742,
                "durationTicks": 60,
                "midi": 76,
                "name": "E5",
                "ticks": 14880,
                "time": 41.333354,
                "velocity": 0.5039370078740157
              },
              {
                "duration": 0.16666675000000453,
                "durationTicks": 60,
                "midi": 74,
                "name": "D5",
                "ticks": 14940,
                "time": 41.50002075,
                "velocity": 0.5039370078740157
              },
              {
                "duration": 0.16666674999999742,
                "durationTicks": 60,
                "midi": 73,
                "name": "C#5",
                "ticks": 15000,
                "time": 41.6666875,
                "velocity": 0.5039370078740157
              },
              {
                "duration": 0.16666675000000453,
                "durationTicks": 60,
                "midi": 74,
                "name": "D5",
                "ticks": 15060,
                "time": 41.83335425,
                "velocity": 0.5039370078740157
              },
              {
                "duration": 0.16666674999999742,
                "durationTicks": 60,
                "midi": 76,
                "name": "E5",
                "ticks": 15120,
                "time": 42.000021000000004,
                "velocity": 0.5039370078740157
              },
              {
                "duration": 0.16666674999999742,
                "durationTicks": 60,
                "midi": 74,
                "name": "D5",
                "ticks": 15180,
                "time": 42.16668775,
                "velocity": 0.5039370078740157
              },
              {
                "duration": 0.16666675000000453,
                "durationTicks": 60,
                "midi": 73,
                "name": "C#5",
                "ticks": 15240,
                "time": 42.3333545,
                "velocity": 0.5039370078740157
              },
              {
                "duration": 0.16666674999999742,
                "durationTicks": 60,
                "midi": 71,
                "name": "B4",
                "ticks": 15300,
                "time": 42.50002125,
                "velocity": 0.5039370078740157
              },
              {
                "duration": 0.16666674999999742,
                "durationTicks": 60,
                "midi": 69,
                "name": "A4",
                "ticks": 15360,
                "time": 42.666688,
                "velocity": 0.5039370078740157
              },
              {
                "duration": 0.16666675000000453,
                "durationTicks": 60,
                "midi": 67,
                "name": "G4",
                "ticks": 15420,
                "time": 42.83335475,
                "velocity": 0.5039370078740157
              },
              {
                "duration": 0.16666674999999742,
                "durationTicks": 60,
                "midi": 66,
                "name": "F#4",
                "ticks": 15480,
                "time": 43.0000215,
                "velocity": 0.5039370078740157
              },
              {
                "duration": 0.16666674999999742,
                "durationTicks": 60,
                "midi": 64,
                "name": "E4",
                "ticks": 15540,
                "time": 43.16668825,
                "velocity": 0.5039370078740157
              },
              {
                "duration": 0.16666675000000453,
                "durationTicks": 60,
                "midi": 67,
                "name": "G4",
                "ticks": 15600,
                "time": 43.333355,
                "velocity": 0.5039370078740157
              },
              {
                "duration": 0.16666674999999742,
                "durationTicks": 60,
                "midi": 66,
                "name": "F#4",
                "ticks": 15660,
                "time": 43.50002175,
                "velocity": 0.5039370078740157
              },
              {
                "duration": 0.16666675000000453,
                "durationTicks": 60,
                "midi": 64,
                "name": "E4",
                "ticks": 15720,
                "time": 43.6666885,
                "velocity": 0.5039370078740157
              },
              {
                "duration": 0.16666674999999742,
                "durationTicks": 60,
                "midi": 62,
                "name": "D4",
                "ticks": 15780,
                "time": 43.833355250000004,
                "velocity": 0.5039370078740157
              },
              {
                "duration": 0.16666674999999742,
                "durationTicks": 60,
                "midi": 69,
                "name": "A4",
                "ticks": 15840,
                "time": 44.000022,
                "velocity": 0.5039370078740157
              },
              {
                "duration": 0.16666675000000453,
                "durationTicks": 60,
                "midi": 67,
                "name": "G4",
                "ticks": 15900,
                "time": 44.16668875,
                "velocity": 0.5039370078740157
              },
              {
                "duration": 0.16666674999999742,
                "durationTicks": 60,
                "midi": 66,
                "name": "F#4",
                "ticks": 15960,
                "time": 44.3333555,
                "velocity": 0.5039370078740157
              },
              {
                "duration": 0.16666674999999742,
                "durationTicks": 60,
                "midi": 64,
                "name": "E4",
                "ticks": 16020,
                "time": 44.50002225,
                "velocity": 0.5039370078740157
              },
              {
                "duration": 0.16666675000000453,
                "durationTicks": 60,
                "midi": 66,
                "name": "F#4",
                "ticks": 16080,
                "time": 44.666689,
                "velocity": 0.5039370078740157
              },
              {
                "duration": 0.16666674999999742,
                "durationTicks": 60,
                "midi": 62,
                "name": "D4",
                "ticks": 16140,
                "time": 44.83335575,
                "velocity": 0.5039370078740157
              },
              {
                "duration": 0.33333350000000195,
                "durationTicks": 120,
                "midi": 69,
                "name": "A4",
                "ticks": 16200,
                "time": 45.0000225,
                "velocity": 0.5039370078740157
              },
              {
                "duration": 0.33333350000000195,
                "durationTicks": 120,
                "midi": 71,
                "name": "B4",
                "ticks": 16320,
                "time": 45.333356,
                "velocity": 0.5039370078740157
              },
              {
                "duration": 0.055555583333330105,
                "durationTicks": 20,
                "midi": 73,
                "name": "C#5",
                "ticks": 16440,
                "time": 45.666689500000004,
                "velocity": 0.5039370078740157
              },
              {
                "duration": 0.05555558333333721,
                "durationTicks": 20,
                "midi": 71,
                "name": "B4",
                "ticks": 16460,
                "time": 45.722245083333334,
                "velocity": 0.4409448818897638
              },
              {
                "duration": 0.055555583333330105,
                "durationTicks": 20,
                "midi": 73,
                "name": "C#5",
                "ticks": 16480,
                "time": 45.77780066666667,
                "velocity": 0.5039370078740157
              },
              {
                "duration": 0.16666674999999742,
                "durationTicks": 60,
                "midi": 74,
                "name": "D5",
                "ticks": 16500,
                "time": 45.83335625,
                "velocity": 0.5039370078740157
              },
              {
                "duration": 0.08333337500000226,
                "durationTicks": 30,
                "midi": 73,
                "name": "C#5",
                "ticks": 16560,
                "time": 46.000023,
                "velocity": 0.5039370078740157
              },
              {
                "duration": 0.08333337500000226,
                "durationTicks": 30,
                "midi": 74,
                "name": "D5",
                "ticks": 16590,
                "time": 46.083356375,
                "velocity": 0.4409448818897638
              },
              {
                "duration": 0.16666674999999742,
                "durationTicks": 60,
                "midi": 73,
                "name": "C#5",
                "ticks": 16620,
                "time": 46.16668975,
                "velocity": 0.47244094488188976
              },
              {
                "duration": 0.08333337500000226,
                "durationTicks": 30,
                "midi": 71,
                "name": "B4",
                "ticks": 16680,
                "time": 46.3333565,
                "velocity": 0.4409448818897638
              },
              {
                "duration": 0.208333437499995,
                "durationTicks": 75,
                "midi": 69,
                "name": "A4",
                "ticks": 16710,
                "time": 46.416689875,
                "velocity": 0.5039370078740157
              },
              {
                "duration": 0.3055557083333298,
                "durationTicks": 110,
                "midi": 74,
                "name": "D5",
                "ticks": 16800,
                "time": 46.66669,
                "velocity": 0.5039370078740157
              },
              {
                "duration": 0.33333350000000195,
                "durationTicks": 120,
                "midi": 74,
                "name": "D5",
                "ticks": 16920,
                "time": 47.0000235,
                "velocity": 0.5039370078740157
              },
              {
                "duration": 0.33333350000000195,
                "durationTicks": 120,
                "midi": 62,
                "name": "D4",
                "ticks": 17040,
                "time": 47.333357,
                "velocity": 0.5039370078740157
              },
              {
                "duration": 0.3055557083333298,
                "durationTicks": 110,
                "midi": 74,
                "name": "D5",
                "ticks": 17160,
                "time": 47.6666905,
                "velocity": 0.5039370078740157
              },
              {
                "duration": 0.33333349999999484,
                "durationTicks": 120,
                "midi": 74,
                "name": "D5",
                "ticks": 17280,
                "time": 48.000024,
                "velocity": 0.5039370078740157
              },
              {
                "duration": 0.33333350000000195,
                "durationTicks": 120,
                "midi": 62,
                "name": "D4",
                "ticks": 17400,
                "time": 48.3333575,
                "velocity": 0.5039370078740157
              },
              {
                "duration": 0.3055557083333298,
                "durationTicks": 110,
                "midi": 74,
                "name": "D5",
                "ticks": 17520,
                "time": 48.666691,
                "velocity": 0.5039370078740157
              },
              {
                "duration": 0.33333350000000195,
                "durationTicks": 120,
                "midi": 74,
                "name": "D5",
                "ticks": 17640,
                "time": 49.0000245,
                "velocity": 0.5039370078740157
              },
              {
                "duration": 0.33333349999999484,
                "durationTicks": 120,
                "midi": 62,
                "name": "D4",
                "ticks": 17760,
                "time": 49.333358000000004,
                "velocity": 0.5039370078740157
              },
              {
                "duration": 0.3055557083333298,
                "durationTicks": 110,
                "midi": 74,
                "name": "D5",
                "ticks": 17880,
                "time": 49.6666915,
                "velocity": 0.5039370078740157
              },
              {
                "duration": 0.33333350000000195,
                "durationTicks": 120,
                "midi": 74,
                "name": "D5",
                "ticks": 18000,
                "time": 50.000025,
                "velocity": 0.5039370078740157
              },
              {
                "duration": 0.33333349999999484,
                "durationTicks": 120,
                "midi": 62,
                "name": "D4",
                "ticks": 18120,
                "time": 50.3333585,
                "velocity": 0.5039370078740157
              },
              {
                "duration": 0.16666675000000453,
                "durationTicks": 60,
                "midi": 74,
                "name": "D5",
                "ticks": 18240,
                "time": 50.666692,
                "velocity": 0.5039370078740157
              },
              {
                "duration": 0.16666674999999742,
                "durationTicks": 60,
                "midi": 76,
                "name": "E5",
                "ticks": 18300,
                "time": 50.83335875,
                "velocity": 0.5039370078740157
              },
              {
                "duration": 0.16666675000000453,
                "durationTicks": 60,
                "midi": 78,
                "name": "F#5",
                "ticks": 18360,
                "time": 51.0000255,
                "velocity": 0.5039370078740157
              },
              {
                "duration": 0.16666674999999742,
                "durationTicks": 60,
                "midi": 76,
                "name": "E5",
                "ticks": 18420,
                "time": 51.166692250000004,
                "velocity": 0.5039370078740157
              },
              {
                "duration": 0.16666674999999742,
                "durationTicks": 60,
                "midi": 79,
                "name": "G5",
                "ticks": 18480,
                "time": 51.333359,
                "velocity": 0.5039370078740157
              },
              {
                "duration": 0.16666675000000453,
                "durationTicks": 60,
                "midi": 78,
                "name": "F#5",
                "ticks": 18540,
                "time": 51.50002575,
                "velocity": 0.5039370078740157
              },
              {
                "duration": 0.16666674999999742,
                "durationTicks": 60,
                "midi": 76,
                "name": "E5",
                "ticks": 18600,
                "time": 51.6666925,
                "velocity": 0.5039370078740157
              },
              {
                "duration": 0.16666674999999742,
                "durationTicks": 60,
                "midi": 74,
                "name": "D5",
                "ticks": 18660,
                "time": 51.83335925,
                "velocity": 0.5039370078740157
              },
              {
                "duration": 0.33333350000000195,
                "durationTicks": 120,
                "midi": 83,
                "name": "B5",
                "ticks": 18720,
                "time": 52.000026,
                "velocity": 0.5039370078740157
              },
              {
                "duration": 0.33333350000000195,
                "durationTicks": 120,
                "midi": 73,
                "name": "C#5",
                "ticks": 18840,
                "time": 52.3333595,
                "velocity": 0.5039370078740157
              },
              {
                "duration": 0.361111291666667,
                "durationTicks": 130,
                "midi": 74,
                "name": "D5",
                "ticks": 18960,
                "time": 52.666693,
                "velocity": 0.5039370078740157
              },
              {
                "duration": 0.05555558333333721,
                "durationTicks": 20,
                "midi": 76,
                "name": "E5",
                "ticks": 19100,
                "time": 53.055582083333334,
                "velocity": 0.3779527559055118
              },
              {
                "duration": 0.055555583333330105,
                "durationTicks": 20,
                "midi": 74,
                "name": "D5",
                "ticks": 19120,
                "time": 53.11113766666667,
                "velocity": 0.41732283464566927
              },
              {
                "duration": 0.055555583333330105,
                "durationTicks": 20,
                "midi": 73,
                "name": "C#5",
                "ticks": 19140,
                "time": 53.16669325,
                "velocity": 0.44881889763779526
              },
              {
                "duration": 0.05555558333333721,
                "durationTicks": 20,
                "midi": 74,
                "name": "D5",
                "ticks": 19160,
                "time": 53.22224883333333,
                "velocity": 0.5039370078740157
              },
              {
                "duration": 0.041666687500004684,
                "durationTicks": 15,
                "midi": 76,
                "name": "E5",
                "ticks": 19180,
                "time": 53.27780441666667,
                "velocity": 0.5039370078740157
              },
              {
                "duration": 0.5000002499999994,
                "durationTicks": 180,
                "midi": 76,
                "name": "E5",
                "ticks": 19200,
                "time": 53.33336,
                "velocity": 0.5039370078740157
              },
              {
                "duration": 0.13888895833333237,
                "durationTicks": 50,
                "midi": 74,
                "name": "D5",
                "ticks": 19380,
                "time": 53.83336025,
                "velocity": 0.5039370078740157
              },
              {
                "duration": 0.33333349999999484,
                "durationTicks": 120,
                "midi": 74,
                "name": "D5",
                "ticks": 19440,
                "time": 54.000027,
                "velocity": 0.5039370078740157
              },
              {
                "duration": 0.33333350000000195,
                "durationTicks": 120,
                "midi": 62,
                "name": "D4",
                "ticks": 19560,
                "time": 54.3333605,
                "velocity": 0.5039370078740157
              },
              {
                "duration": 0.5000002499999994,
                "durationTicks": 180,
                "midi": 67,
                "name": "G4",
                "ticks": 19680,
                "time": 54.666694,
                "velocity": 0.5039370078740157
              },
              {
                "duration": 0.16666675000000453,
                "durationTicks": 60,
                "midi": 57,
                "name": "A3",
                "ticks": 19860,
                "time": 55.16669425,
                "velocity": 0.5039370078740157
              },
              {
                "duration": 0.16666674999999742,
                "durationTicks": 60,
                "midi": 59,
                "name": "B3",
                "ticks": 19920,
                "time": 55.333361000000004,
                "velocity": 0.5039370078740157
              },
              {
                "duration": 0.16666674999999742,
                "durationTicks": 60,
                "midi": 61,
                "name": "C#4",
                "ticks": 19980,
                "time": 55.50002775,
                "velocity": 0.5039370078740157
              },
              {
                "duration": 0.16666675000000453,
                "durationTicks": 60,
                "midi": 62,
                "name": "D4",
                "ticks": 20040,
                "time": 55.6666945,
                "velocity": 0.5039370078740157
              },
              {
                "duration": 0.16666674999999742,
                "durationTicks": 60,
                "midi": 64,
                "name": "E4",
                "ticks": 20100,
                "time": 55.83336125,
                "velocity": 0.5039370078740157
              },
              {
                "duration": 0.16666674999999742,
                "durationTicks": 60,
                "midi": 66,
                "name": "F#4",
                "ticks": 20160,
                "time": 56.000028,
                "velocity": 0.5039370078740157
              },
              {
                "duration": 0.16666675000000453,
                "durationTicks": 60,
                "midi": 64,
                "name": "E4",
                "ticks": 20220,
                "time": 56.16669475,
                "velocity": 0.5039370078740157
              },
              {
                "duration": 0.16666674999999742,
                "durationTicks": 60,
                "midi": 67,
                "name": "G4",
                "ticks": 20280,
                "time": 56.3333615,
                "velocity": 0.5039370078740157
              },
              {
                "duration": 0.16666675000000453,
                "durationTicks": 60,
                "midi": 66,
                "name": "F#4",
                "ticks": 20340,
                "time": 56.50002825,
                "velocity": 0.5039370078740157
              },
              {
                "duration": 0.16666674999999742,
                "durationTicks": 60,
                "midi": 64,
                "name": "E4",
                "ticks": 20400,
                "time": 56.666695000000004,
                "velocity": 0.5039370078740157
              },
              {
                "duration": 0.16666674999999742,
                "durationTicks": 60,
                "midi": 62,
                "name": "D4",
                "ticks": 20460,
                "time": 56.83336175,
                "velocity": 0.5039370078740157
              },
              {
                "duration": 0.5000002499999994,
                "durationTicks": 180,
                "midi": 71,
                "name": "B4",
                "ticks": 20520,
                "time": 57.0000285,
                "velocity": 0.5039370078740157
              },
              {
                "duration": 0.16666675000000453,
                "durationTicks": 60,
                "midi": 61,
                "name": "C#4",
                "ticks": 20700,
                "time": 57.50002875,
                "velocity": 0.5039370078740157
              },
              {
                "duration": 0.16666674999999742,
                "durationTicks": 60,
                "midi": 62,
                "name": "D4",
                "ticks": 20760,
                "time": 57.6666955,
                "velocity": 0.5039370078740157
              },
              {
                "duration": 0.16666674999999742,
                "durationTicks": 60,
                "midi": 61,
                "name": "C#4",
                "ticks": 20820,
                "time": 57.83336225,
                "velocity": 0.5039370078740157
              },
              {
                "duration": 0.16666675000000453,
                "durationTicks": 60,
                "midi": 62,
                "name": "D4",
                "ticks": 20880,
                "time": 58.000029,
                "velocity": 0.5039370078740157
              },
              {
                "duration": 0.16666674999999742,
                "durationTicks": 60,
                "midi": 67,
                "name": "G4",
                "ticks": 20940,
                "time": 58.16669575,
                "velocity": 0.5039370078740157
              },
              {
                "duration": 0.5000002499999994,
                "durationTicks": 180,
                "midi": 64,
                "name": "E4",
                "ticks": 21000,
                "time": 58.3333625,
                "velocity": 0.5039370078740157
              },
              {
                "duration": 0.13888895833333237,
                "durationTicks": 50,
                "midi": 62,
                "name": "D4",
                "ticks": 21180,
                "time": 58.83336275,
                "velocity": 0.5039370078740157
              },
              {
                "duration": 2.0000009999999975,
                "durationTicks": 720,
                "midi": 62,
                "name": "D4",
                "ticks": 21240,
                "time": 59.000029500000004,
                "velocity": 0.5039370078740157
              }
            ],
            "endOfTrackTicks": 21960
          },
          {
            "channel": 1,
            "controlChanges": {},
            "pitchBends": [],
            "instrument": {
              "family": "piano",
              "number": 0,
              "name": "acoustic grand piano"
            },
            "name": "",
            "notes": [
              {
                "duration": 0.16666675000000009,
                "durationTicks": 60,
                "midi": 50,
                "name": "D3",
                "ticks": 960,
                "time": 2.666668,
                "velocity": 0.5039370078740157
              },
              {
                "duration": 0.16666675000000009,
                "durationTicks": 60,
                "midi": 52,
                "name": "E3",
                "ticks": 1020,
                "time": 2.83333475,
                "velocity": 0.5039370078740157
              },
              {
                "duration": 0.16666674999999964,
                "durationTicks": 60,
                "midi": 54,
                "name": "F#3",
                "ticks": 1080,
                "time": 3.0000015,
                "velocity": 0.5039370078740157
              },
              {
                "duration": 0.16666675000000009,
                "durationTicks": 60,
                "midi": 52,
                "name": "E3",
                "ticks": 1140,
                "time": 3.16666825,
                "velocity": 0.5039370078740157
              },
              {
                "duration": 0.16666675000000009,
                "durationTicks": 60,
                "midi": 55,
                "name": "G3",
                "ticks": 1200,
                "time": 3.333335,
                "velocity": 0.5039370078740157
              },
              {
                "duration": 0.16666675000000009,
                "durationTicks": 60,
                "midi": 54,
                "name": "F#3",
                "ticks": 1260,
                "time": 3.50000175,
                "velocity": 0.5039370078740157
              },
              {
                "duration": 0.16666675000000009,
                "durationTicks": 60,
                "midi": 52,
                "name": "E3",
                "ticks": 1320,
                "time": 3.6666685,
                "velocity": 0.5039370078740157
              },
              {
                "duration": 0.16666675000000009,
                "durationTicks": 60,
                "midi": 50,
                "name": "D3",
                "ticks": 1380,
                "time": 3.83333525,
                "velocity": 0.5039370078740157
              },
              {
                "duration": 0.16666675000000009,
                "durationTicks": 60,
                "midi": 57,
                "name": "A3",
                "ticks": 1440,
                "time": 4.000002,
                "velocity": 0.5039370078740157
              },
              {
                "duration": 0.16666675000000009,
                "durationTicks": 60,
                "midi": 55,
                "name": "G3",
                "ticks": 1500,
                "time": 4.16666875,
                "velocity": 0.5039370078740157
              },
              {
                "duration": 0.1666667499999992,
                "durationTicks": 60,
                "midi": 54,
                "name": "F#3",
                "ticks": 1560,
                "time": 4.3333355000000005,
                "velocity": 0.5039370078740157
              },
              {
                "duration": 0.16666675000000009,
                "durationTicks": 60,
                "midi": 52,
                "name": "E3",
                "ticks": 1620,
                "time": 4.50000225,
                "velocity": 0.5039370078740157
              },
              {
                "duration": 0.16666675000000009,
                "durationTicks": 60,
                "midi": 54,
                "name": "F#3",
                "ticks": 1680,
                "time": 4.666669,
                "velocity": 0.5039370078740157
              },
              {
                "duration": 0.16666675000000009,
                "durationTicks": 60,
                "midi": 50,
                "name": "D3",
                "ticks": 1740,
                "time": 4.83333575,
                "velocity": 0.5039370078740157
              },
              {
                "duration": 0.33333350000000017,
                "durationTicks": 120,
                "midi": 57,
                "name": "A3",
                "ticks": 1800,
                "time": 5.0000025,
                "velocity": 0.5039370078740157
              },
              {
                "duration": 0.33333350000000017,
                "durationTicks": 120,
                "midi": 45,
                "name": "A2",
                "ticks": 1920,
                "time": 5.333336,
                "velocity": 0.5039370078740157
              },
              {
                "duration": 0.30555570833333334,
                "durationTicks": 110,
                "midi": 57,
                "name": "A3",
                "ticks": 2040,
                "time": 5.6666695,
                "velocity": 0.5039370078740157
              },
              {
                "duration": 0.3333334999999993,
                "durationTicks": 120,
                "midi": 57,
                "name": "A3",
                "ticks": 2160,
                "time": 6.000003,
                "velocity": 0.5039370078740157
              },
              {
                "duration": 0.33333350000000017,
                "durationTicks": 120,
                "midi": 45,
                "name": "A2",
                "ticks": 2280,
                "time": 6.3333365,
                "velocity": 0.5039370078740157
              },
              {
                "duration": 0.30555570833333423,
                "durationTicks": 110,
                "midi": 57,
                "name": "A3",
                "ticks": 2400,
                "time": 6.66667,
                "velocity": 0.5039370078740157
              },
              {
                "duration": 0.33333350000000017,
                "durationTicks": 120,
                "midi": 57,
                "name": "A3",
                "ticks": 2520,
                "time": 7.0000035,
                "velocity": 0.5039370078740157
              },
              {
                "duration": 0.33333350000000017,
                "durationTicks": 120,
                "midi": 45,
                "name": "A2",
                "ticks": 2640,
                "time": 7.333337,
                "velocity": 0.5039370078740157
              },
              {
                "duration": 0.30555570833333334,
                "durationTicks": 110,
                "midi": 57,
                "name": "A3",
                "ticks": 2760,
                "time": 7.6666705,
                "velocity": 0.5039370078740157
              },
              {
                "duration": 0.33333350000000017,
                "durationTicks": 120,
                "midi": 57,
                "name": "A3",
                "ticks": 2880,
                "time": 8.000004,
                "velocity": 0.5039370078740157
              },
              {
                "duration": 0.33333350000000017,
                "durationTicks": 120,
                "midi": 45,
                "name": "A2",
                "ticks": 3000,
                "time": 8.3333375,
                "velocity": 0.5039370078740157
              },
              {
                "duration": 0.30555570833333334,
                "durationTicks": 110,
                "midi": 57,
                "name": "A3",
                "ticks": 3120,
                "time": 8.666671000000001,
                "velocity": 0.5039370078740157
              },
              {
                "duration": 0.33333350000000017,
                "durationTicks": 120,
                "midi": 57,
                "name": "A3",
                "ticks": 3240,
                "time": 9.0000045,
                "velocity": 0.5039370078740157
              },
              {
                "duration": 0.33333350000000017,
                "durationTicks": 120,
                "midi": 59,
                "name": "B3",
                "ticks": 3360,
                "time": 9.333338,
                "velocity": 0.5039370078740157
              },
              {
                "duration": 0.33333350000000017,
                "durationTicks": 120,
                "midi": 61,
                "name": "C#4",
                "ticks": 3480,
                "time": 9.6666715,
                "velocity": 0.5039370078740157
              },
              {
                "duration": 0.16666675000000097,
                "durationTicks": 60,
                "midi": 62,
                "name": "D4",
                "ticks": 3600,
                "time": 10.000005,
                "velocity": 0.5039370078740157
              },
              {
                "duration": 0.1666667499999992,
                "durationTicks": 60,
                "midi": 61,
                "name": "C#4",
                "ticks": 3660,
                "time": 10.16667175,
                "velocity": 0.5039370078740157
              },
              {
                "duration": 0.16666675000000097,
                "durationTicks": 60,
                "midi": 64,
                "name": "E4",
                "ticks": 3720,
                "time": 10.3333385,
                "velocity": 0.5039370078740157
              },
              {
                "duration": 0.1666667499999992,
                "durationTicks": 60,
                "midi": 62,
                "name": "D4",
                "ticks": 3780,
                "time": 10.500005250000001,
                "velocity": 0.5039370078740157
              },
              {
                "duration": 0.1666667499999992,
                "durationTicks": 60,
                "midi": 61,
                "name": "C#4",
                "ticks": 3840,
                "time": 10.666672,
                "velocity": 0.5039370078740157
              },
              {
                "duration": 0.16666675000000097,
                "durationTicks": 60,
                "midi": 59,
                "name": "B3",
                "ticks": 3900,
                "time": 10.83333875,
                "velocity": 0.5039370078740157
              },
              {
                "duration": 0.1666667499999992,
                "durationTicks": 60,
                "midi": 61,
                "name": "C#4",
                "ticks": 3960,
                "time": 11.0000055,
                "velocity": 0.5039370078740157
              },
              {
                "duration": 0.16666675000000097,
                "durationTicks": 60,
                "midi": 62,
                "name": "D4",
                "ticks": 4020,
                "time": 11.16667225,
                "velocity": 0.5039370078740157
              },
              {
                "duration": 0.33333350000000017,
                "durationTicks": 120,
                "midi": 64,
                "name": "E4",
                "ticks": 4080,
                "time": 11.333339,
                "velocity": 0.5039370078740157
              },
              {
                "duration": 0.33333350000000017,
                "durationTicks": 120,
                "midi": 52,
                "name": "E3",
                "ticks": 4200,
                "time": 11.6666725,
                "velocity": 0.5039370078740157
              },
              {
                "duration": 0.1666667499999992,
                "durationTicks": 60,
                "midi": 57,
                "name": "A3",
                "ticks": 4320,
                "time": 12.000006,
                "velocity": 0.5039370078740157
              },
              {
                "duration": 0.16666675000000097,
                "durationTicks": 60,
                "midi": 52,
                "name": "E3",
                "ticks": 4380,
                "time": 12.16667275,
                "velocity": 0.5039370078740157
              },
              {
                "duration": 0.1666667499999992,
                "durationTicks": 60,
                "midi": 54,
                "name": "F#3",
                "ticks": 4440,
                "time": 12.333339500000001,
                "velocity": 0.5039370078740157
              },
              {
                "duration": 0.1666667499999992,
                "durationTicks": 60,
                "midi": 56,
                "name": "G#3",
                "ticks": 4500,
                "time": 12.50000625,
                "velocity": 0.5039370078740157
              },
              {
                "duration": 0.16666675000000097,
                "durationTicks": 60,
                "midi": 57,
                "name": "A3",
                "ticks": 4560,
                "time": 12.666673,
                "velocity": 0.5039370078740157
              },
              {
                "duration": 0.1666667499999992,
                "durationTicks": 60,
                "midi": 59,
                "name": "B3",
                "ticks": 4620,
                "time": 12.83333975,
                "velocity": 0.5039370078740157
              },
              {
                "duration": 0.16666675000000097,
                "durationTicks": 60,
                "midi": 61,
                "name": "C#4",
                "ticks": 4680,
                "time": 13.0000065,
                "velocity": 0.5039370078740157
              },
              {
                "duration": 0.1666667499999992,
                "durationTicks": 60,
                "midi": 59,
                "name": "B3",
                "ticks": 4740,
                "time": 13.16667325,
                "velocity": 0.5039370078740157
              },
              {
                "duration": 0.16666675000000097,
                "durationTicks": 60,
                "midi": 62,
                "name": "D4",
                "ticks": 4800,
                "time": 13.33334,
                "velocity": 0.5039370078740157
              },
              {
                "duration": 0.1666667499999992,
                "durationTicks": 60,
                "midi": 61,
                "name": "C#4",
                "ticks": 4860,
                "time": 13.50000675,
                "velocity": 0.5039370078740157
              },
              {
                "duration": 0.16666675000000097,
                "durationTicks": 60,
                "midi": 59,
                "name": "B3",
                "ticks": 4920,
                "time": 13.6666735,
                "velocity": 0.5039370078740157
              },
              {
                "duration": 0.1666667499999992,
                "durationTicks": 60,
                "midi": 57,
                "name": "A3",
                "ticks": 4980,
                "time": 13.833340250000001,
                "velocity": 0.5039370078740157
              },
              {
                "duration": 0.33333350000000017,
                "durationTicks": 120,
                "midi": 64,
                "name": "E4",
                "ticks": 5040,
                "time": 14.000007,
                "velocity": 0.5039370078740157
              },
              {
                "duration": 0.33333350000000017,
                "durationTicks": 120,
                "midi": 52,
                "name": "E3",
                "ticks": 5160,
                "time": 14.3333405,
                "velocity": 0.5039370078740157
              },
              {
                "duration": 0.33333350000000017,
                "durationTicks": 120,
                "midi": 59,
                "name": "B3",
                "ticks": 5520,
                "time": 15.333341,
                "velocity": 0.5039370078740157
              },
              {
                "duration": 0.5000002499999976,
                "durationTicks": 180,
                "midi": 64,
                "name": "E4",
                "ticks": 5640,
                "time": 15.666674500000001,
                "velocity": 0.5039370078740157
              },
              {
                "duration": 0.16666675000000097,
                "durationTicks": 60,
                "midi": 54,
                "name": "F#3",
                "ticks": 5820,
                "time": 16.16667475,
                "velocity": 0.5039370078740157
              },
              {
                "duration": 0.16666675000000097,
                "durationTicks": 60,
                "midi": 56,
                "name": "G#3",
                "ticks": 5880,
                "time": 16.3333415,
                "velocity": 0.5039370078740157
              },
              {
                "duration": 0.16666675000000097,
                "durationTicks": 60,
                "midi": 58,
                "name": "A#3",
                "ticks": 5940,
                "time": 16.50000825,
                "velocity": 0.5039370078740157
              },
              {
                "duration": 0.16666674999999742,
                "durationTicks": 60,
                "midi": 59,
                "name": "B3",
                "ticks": 6000,
                "time": 16.666675,
                "velocity": 0.5039370078740157
              },
              {
                "duration": 0.16666675000000097,
                "durationTicks": 60,
                "midi": 61,
                "name": "C#4",
                "ticks": 6060,
                "time": 16.83334175,
                "velocity": 0.5039370078740157
              },
              {
                "duration": 0.16666675000000097,
                "durationTicks": 60,
                "midi": 62,
                "name": "D4",
                "ticks": 6120,
                "time": 17.0000085,
                "velocity": 0.5039370078740157
              },
              {
                "duration": 0.16666675000000097,
                "durationTicks": 60,
                "midi": 61,
                "name": "C#4",
                "ticks": 6180,
                "time": 17.16667525,
                "velocity": 0.5039370078740157
              },
              {
                "duration": 0.16666674999999742,
                "durationTicks": 60,
                "midi": 64,
                "name": "E4",
                "ticks": 6240,
                "time": 17.333342000000002,
                "velocity": 0.5039370078740157
              },
              {
                "duration": 0.16666675000000097,
                "durationTicks": 60,
                "midi": 62,
                "name": "D4",
                "ticks": 6300,
                "time": 17.50000875,
                "velocity": 0.5039370078740157
              },
              {
                "duration": 0.16666675000000097,
                "durationTicks": 60,
                "midi": 61,
                "name": "C#4",
                "ticks": 6360,
                "time": 17.6666755,
                "velocity": 0.5039370078740157
              },
              {
                "duration": 0.16666674999999742,
                "durationTicks": 60,
                "midi": 59,
                "name": "B3",
                "ticks": 6420,
                "time": 17.83334225,
                "velocity": 0.5039370078740157
              },
              {
                "duration": 0.33333350000000195,
                "durationTicks": 120,
                "midi": 66,
                "name": "F#4",
                "ticks": 6480,
                "time": 18.000009,
                "velocity": 0.5039370078740157
              },
              {
                "duration": 0.3333334999999984,
                "durationTicks": 120,
                "midi": 54,
                "name": "F#3",
                "ticks": 6600,
                "time": 18.3333425,
                "velocity": 0.5039370078740157
              },
              {
                "duration": 0.33333350000000195,
                "durationTicks": 120,
                "midi": 64,
                "name": "E4",
                "ticks": 6720,
                "time": 18.666676,
                "velocity": 0.5039370078740157
              },
              {
                "duration": 0.3333334999999984,
                "durationTicks": 120,
                "midi": 62,
                "name": "D4",
                "ticks": 6840,
                "time": 19.0000095,
                "velocity": 0.5039370078740157
              },
              {
                "duration": 0.16666675000000097,
                "durationTicks": 60,
                "midi": 71,
                "name": "B4",
                "ticks": 6960,
                "time": 19.333343,
                "velocity": 0.5039370078740157
              },
              {
                "duration": 0.16666675000000097,
                "durationTicks": 60,
                "midi": 70,
                "name": "A#4",
                "ticks": 7020,
                "time": 19.50000975,
                "velocity": 0.5039370078740157
              },
              {
                "duration": 0.3333334999999984,
                "durationTicks": 120,
                "midi": 71,
                "name": "B4",
                "ticks": 7080,
                "time": 19.6666765,
                "velocity": 0.5039370078740157
              },
              {
                "duration": 0.33333350000000195,
                "durationTicks": 120,
                "midi": 61,
                "name": "C#4",
                "ticks": 7200,
                "time": 20.00001,
                "velocity": 0.5039370078740157
              },
              {
                "duration": 0.16666674999999742,
                "durationTicks": 60,
                "midi": 70,
                "name": "A#4",
                "ticks": 7320,
                "time": 20.3333435,
                "velocity": 0.5039370078740157
              },
              {
                "duration": 0.16666675000000097,
                "durationTicks": 60,
                "midi": 68,
                "name": "G#4",
                "ticks": 7380,
                "time": 20.50001025,
                "velocity": 0.5039370078740157
              },
              {
                "duration": 0.33333350000000195,
                "durationTicks": 120,
                "midi": 70,
                "name": "A#4",
                "ticks": 7440,
                "time": 20.666677,
                "velocity": 0.5039370078740157
              },
              {
                "duration": 0.16666674999999742,
                "durationTicks": 60,
                "midi": 71,
                "name": "B4",
                "ticks": 7560,
                "time": 21.000010500000002,
                "velocity": 0.5039370078740157
              },
              {
                "duration": 0.16666675000000097,
                "durationTicks": 60,
                "midi": 69,
                "name": "A4",
                "ticks": 7620,
                "time": 21.16667725,
                "velocity": 0.5039370078740157
              },
              {
                "duration": 0.16666675000000097,
                "durationTicks": 60,
                "midi": 67,
                "name": "G4",
                "ticks": 7680,
                "time": 21.333344,
                "velocity": 0.5039370078740157
              },
              {
                "duration": 0.16666674999999742,
                "durationTicks": 60,
                "midi": 66,
                "name": "F#4",
                "ticks": 7740,
                "time": 21.50001075,
                "velocity": 0.5039370078740157
              },
              {
                "duration": 0.16666675000000097,
                "durationTicks": 60,
                "midi": 64,
                "name": "E4",
                "ticks": 7800,
                "time": 21.6666775,
                "velocity": 0.5039370078740157
              },
              {
                "duration": 0.16666675000000097,
                "durationTicks": 60,
                "midi": 62,
                "name": "D4",
                "ticks": 7860,
                "time": 21.83334425,
                "velocity": 0.5039370078740157
              },
              {
                "duration": 0.16666675000000097,
                "durationTicks": 60,
                "midi": 64,
                "name": "E4",
                "ticks": 7920,
                "time": 22.000011,
                "velocity": 0.5039370078740157
              },
              {
                "duration": 0.16666674999999742,
                "durationTicks": 60,
                "midi": 62,
                "name": "D4",
                "ticks": 7980,
                "time": 22.16667775,
                "velocity": 0.5039370078740157
              },
              {
                "duration": 0.16666675000000097,
                "durationTicks": 60,
                "midi": 66,
                "name": "F#4",
                "ticks": 8040,
                "time": 22.3333445,
                "velocity": 0.5039370078740157
              },
              {
                "duration": 0.16666675000000097,
                "durationTicks": 60,
                "midi": 64,
                "name": "E4",
                "ticks": 8100,
                "time": 22.50001125,
                "velocity": 0.5039370078740157
              },
              {
                "duration": 0.16666675000000097,
                "durationTicks": 60,
                "midi": 62,
                "name": "D4",
                "ticks": 8160,
                "time": 22.666678,
                "velocity": 0.5039370078740157
              },
              {
                "duration": 0.16666674999999742,
                "durationTicks": 60,
                "midi": 61,
                "name": "C#4",
                "ticks": 8220,
                "time": 22.833344750000002,
                "velocity": 0.5039370078740157
              },
              {
                "duration": 0.16666675000000097,
                "durationTicks": 60,
                "midi": 62,
                "name": "D4",
                "ticks": 8280,
                "time": 23.0000115,
                "velocity": 0.5039370078740157
              },
              {
                "duration": 0.16666675000000097,
                "durationTicks": 60,
                "midi": 64,
                "name": "E4",
                "ticks": 8340,
                "time": 23.16667825,
                "velocity": 0.5039370078740157
              },
              {
                "duration": 0.3333334999999984,
                "durationTicks": 120,
                "midi": 66,
                "name": "F#4",
                "ticks": 8400,
                "time": 23.333345,
                "velocity": 0.5039370078740157
              },
              {
                "duration": 0.33333350000000195,
                "durationTicks": 120,
                "midi": 54,
                "name": "F#3",
                "ticks": 8520,
                "time": 23.6666785,
                "velocity": 0.5039370078740157
              },
              {
                "duration": 0.3333334999999984,
                "durationTicks": 120,
                "midi": 59,
                "name": "B3",
                "ticks": 8640,
                "time": 24.000012,
                "velocity": 0.5039370078740157
              },
              {
                "duration": 0.33333350000000195,
                "durationTicks": 120,
                "midi": 54,
                "name": "F#3",
                "ticks": 8760,
                "time": 24.3333455,
                "velocity": 0.5039370078740157
              },
              {
                "duration": 0.3333334999999984,
                "durationTicks": 120,
                "midi": 50,
                "name": "D3",
                "ticks": 8880,
                "time": 24.666679000000002,
                "velocity": 0.5039370078740157
              },
              {
                "duration": 0.6666670000000003,
                "durationTicks": 240,
                "midi": 47,
                "name": "B2",
                "ticks": 9000,
                "time": 25.0000125,
                "velocity": 0.5039370078740157
              },
              {
                "duration": 0.16666675000000097,
                "durationTicks": 60,
                "midi": 47,
                "name": "B2",
                "ticks": 9420,
                "time": 26.16667975,
                "velocity": 0.5039370078740157
              },
              {
                "duration": 0.16666675000000097,
                "durationTicks": 60,
                "midi": 49,
                "name": "C#3",
                "ticks": 9480,
                "time": 26.3333465,
                "velocity": 0.5039370078740157
              },
              {
                "duration": 0.16666674999999742,
                "durationTicks": 60,
                "midi": 51,
                "name": "D#3",
                "ticks": 9540,
                "time": 26.500013250000002,
                "velocity": 0.5039370078740157
              },
              {
                "duration": 0.16666675000000097,
                "durationTicks": 60,
                "midi": 52,
                "name": "E3",
                "ticks": 9600,
                "time": 26.66668,
                "velocity": 0.5039370078740157
              },
              {
                "duration": 0.16666675000000097,
                "durationTicks": 60,
                "midi": 54,
                "name": "F#3",
                "ticks": 9660,
                "time": 26.83334675,
                "velocity": 0.5039370078740157
              },
              {
                "duration": 0.16666674999999742,
                "durationTicks": 60,
                "midi": 55,
                "name": "G3",
                "ticks": 9720,
                "time": 27.0000135,
                "velocity": 0.5039370078740157
              },
              {
                "duration": 0.16666675000000097,
                "durationTicks": 60,
                "midi": 54,
                "name": "F#3",
                "ticks": 9780,
                "time": 27.16668025,
                "velocity": 0.5039370078740157
              },
              {
                "duration": 0.16666675000000097,
                "durationTicks": 60,
                "midi": 57,
                "name": "A3",
                "ticks": 9840,
                "time": 27.333347,
                "velocity": 0.5039370078740157
              },
              {
                "duration": 0.16666675000000097,
                "durationTicks": 60,
                "midi": 55,
                "name": "G3",
                "ticks": 9900,
                "time": 27.50001375,
                "velocity": 0.5039370078740157
              },
              {
                "duration": 0.16666674999999742,
                "durationTicks": 60,
                "midi": 54,
                "name": "F#3",
                "ticks": 9960,
                "time": 27.666680500000002,
                "velocity": 0.5039370078740157
              },
              {
                "duration": 0.16666675000000097,
                "durationTicks": 60,
                "midi": 52,
                "name": "E3",
                "ticks": 10020,
                "time": 27.83334725,
                "velocity": 0.5039370078740157
              },
              {
                "duration": 2.1388899583333334,
                "durationTicks": 770,
                "midi": 57,
                "name": "A3",
                "ticks": 10080,
                "time": 28.000014,
                "velocity": 0.5039370078740157
              },
              {
                "duration": 0.16666674999999742,
                "durationTicks": 60,
                "midi": 45,
                "name": "A2",
                "ticks": 10860,
                "time": 30.166681750000002,
                "velocity": 0.5039370078740157
              },
              {
                "duration": 0.16666675000000097,
                "durationTicks": 60,
                "midi": 47,
                "name": "B2",
                "ticks": 10920,
                "time": 30.3333485,
                "velocity": 0.5039370078740157
              },
              {
                "duration": 0.16666675000000097,
                "durationTicks": 60,
                "midi": 49,
                "name": "C#3",
                "ticks": 10980,
                "time": 30.50001525,
                "velocity": 0.5039370078740157
              },
              {
                "duration": 0.16666674999999742,
                "durationTicks": 60,
                "midi": 50,
                "name": "D3",
                "ticks": 11040,
                "time": 30.666682,
                "velocity": 0.5039370078740157
              },
              {
                "duration": 0.16666675000000097,
                "durationTicks": 60,
                "midi": 52,
                "name": "E3",
                "ticks": 11100,
                "time": 30.83334875,
                "velocity": 0.5039370078740157
              },
              {
                "duration": 0.16666675000000097,
                "durationTicks": 60,
                "midi": 54,
                "name": "F#3",
                "ticks": 11160,
                "time": 31.0000155,
                "velocity": 0.5039370078740157
              },
              {
                "duration": 0.16666675000000097,
                "durationTicks": 60,
                "midi": 52,
                "name": "E3",
                "ticks": 11220,
                "time": 31.16668225,
                "velocity": 0.5039370078740157
              },
              {
                "duration": 0.16666674999999742,
                "durationTicks": 60,
                "midi": 55,
                "name": "G3",
                "ticks": 11280,
                "time": 31.333349000000002,
                "velocity": 0.5039370078740157
              },
              {
                "duration": 0.16666675000000097,
                "durationTicks": 60,
                "midi": 54,
                "name": "F#3",
                "ticks": 11340,
                "time": 31.50001575,
                "velocity": 0.5039370078740157
              },
              {
                "duration": 0.16666675000000097,
                "durationTicks": 60,
                "midi": 52,
                "name": "E3",
                "ticks": 11400,
                "time": 31.6666825,
                "velocity": 0.5039370078740157
              },
              {
                "duration": 0.16666675000000097,
                "durationTicks": 60,
                "midi": 50,
                "name": "D3",
                "ticks": 11460,
                "time": 31.83334925,
                "velocity": 0.5039370078740157
              },
              {
                "duration": 0.5000002499999994,
                "durationTicks": 180,
                "midi": 56,
                "name": "G#3",
                "ticks": 11520,
                "time": 32.000016,
                "velocity": 0.5039370078740157
              },
              {
                "duration": 0.16666674999999742,
                "durationTicks": 60,
                "midi": 52,
                "name": "E3",
                "ticks": 11700,
                "time": 32.50001625,
                "velocity": 0.5039370078740157
              },
              {
                "duration": 0.16666675000000453,
                "durationTicks": 60,
                "midi": 54,
                "name": "F#3",
                "ticks": 11760,
                "time": 32.666683,
                "velocity": 0.5039370078740157
              },
              {
                "duration": 0.16666674999999742,
                "durationTicks": 60,
                "midi": 56,
                "name": "G#3",
                "ticks": 11820,
                "time": 32.833349750000004,
                "velocity": 0.5039370078740157
              },
              {
                "duration": 0.16666674999999742,
                "durationTicks": 60,
                "midi": 57,
                "name": "A3",
                "ticks": 11880,
                "time": 33.0000165,
                "velocity": 0.5039370078740157
              },
              {
                "duration": 0.16666675000000453,
                "durationTicks": 60,
                "midi": 56,
                "name": "G#3",
                "ticks": 11940,
                "time": 33.16668325,
                "velocity": 0.5039370078740157
              },
              {
                "duration": 0.16666674999999742,
                "durationTicks": 60,
                "midi": 54,
                "name": "F#3",
                "ticks": 12000,
                "time": 33.33335,
                "velocity": 0.5039370078740157
              },
              {
                "duration": 0.16666674999999742,
                "durationTicks": 60,
                "midi": 52,
                "name": "E3",
                "ticks": 12060,
                "time": 33.50001675,
                "velocity": 0.5039370078740157
              },
              {
                "duration": 0.16666675000000453,
                "durationTicks": 60,
                "midi": 50,
                "name": "D3",
                "ticks": 12120,
                "time": 33.6666835,
                "velocity": 0.5039370078740157
              },
              {
                "duration": 0.16666674999999742,
                "durationTicks": 60,
                "midi": 54,
                "name": "F#3",
                "ticks": 12180,
                "time": 33.83335025,
                "velocity": 0.5039370078740157
              },
              {
                "duration": 0.16666674999999742,
                "durationTicks": 60,
                "midi": 52,
                "name": "E3",
                "ticks": 12240,
                "time": 34.000017,
                "velocity": 0.5039370078740157
              },
              {
                "duration": 0.16666675000000453,
                "durationTicks": 60,
                "midi": 50,
                "name": "D3",
                "ticks": 12300,
                "time": 34.16668375,
                "velocity": 0.5039370078740157
              },
              {
                "duration": 0.16666674999999742,
                "durationTicks": 60,
                "midi": 49,
                "name": "C#3",
                "ticks": 12360,
                "time": 34.3333505,
                "velocity": 0.5039370078740157
              },
              {
                "duration": 0.16666675000000453,
                "durationTicks": 60,
                "midi": 47,
                "name": "B2",
                "ticks": 12420,
                "time": 34.50001725,
                "velocity": 0.5039370078740157
              },
              {
                "duration": 0.16666674999999742,
                "durationTicks": 60,
                "midi": 49,
                "name": "C#3",
                "ticks": 12480,
                "time": 34.666684000000004,
                "velocity": 0.5039370078740157
              },
              {
                "duration": 0.16666674999999742,
                "durationTicks": 60,
                "midi": 45,
                "name": "A2",
                "ticks": 12540,
                "time": 34.83335075,
                "velocity": 0.5039370078740157
              },
              {
                "duration": 0.33333350000000195,
                "durationTicks": 120,
                "midi": 57,
                "name": "A3",
                "ticks": 12600,
                "time": 35.0000175,
                "velocity": 0.5039370078740157
              },
              {
                "duration": 0.33333350000000195,
                "durationTicks": 120,
                "midi": 54,
                "name": "F#3",
                "ticks": 12720,
                "time": 35.333351,
                "velocity": 0.5039370078740157
              },
              {
                "duration": 0.33333349999999484,
                "durationTicks": 120,
                "midi": 49,
                "name": "C#3",
                "ticks": 12840,
                "time": 35.6666845,
                "velocity": 0.5039370078740157
              },
              {
                "duration": 0.16666675000000453,
                "durationTicks": 60,
                "midi": 50,
                "name": "D3",
                "ticks": 12960,
                "time": 36.000018,
                "velocity": 0.5039370078740157
              },
              {
                "duration": 0.16666674999999742,
                "durationTicks": 60,
                "midi": 49,
                "name": "C#3",
                "ticks": 13020,
                "time": 36.16668475,
                "velocity": 0.5039370078740157
              },
              {
                "duration": 0.16666675000000453,
                "durationTicks": 60,
                "midi": 52,
                "name": "E3",
                "ticks": 13080,
                "time": 36.3333515,
                "velocity": 0.5039370078740157
              },
              {
                "duration": 0.16666674999999742,
                "durationTicks": 60,
                "midi": 50,
                "name": "D3",
                "ticks": 13140,
                "time": 36.500018250000004,
                "velocity": 0.5039370078740157
              },
              {
                "duration": 0.16666674999999742,
                "durationTicks": 60,
                "midi": 49,
                "name": "C#3",
                "ticks": 13200,
                "time": 36.666685,
                "velocity": 0.5039370078740157
              },
              {
                "duration": 0.16666675000000453,
                "durationTicks": 60,
                "midi": 47,
                "name": "B2",
                "ticks": 13260,
                "time": 36.83335175,
                "velocity": 0.5039370078740157
              },
              {
                "duration": 0.16666674999999742,
                "durationTicks": 60,
                "midi": 49,
                "name": "C#3",
                "ticks": 13320,
                "time": 37.0000185,
                "velocity": 0.5039370078740157
              },
              {
                "duration": 0.16666674999999742,
                "durationTicks": 60,
                "midi": 50,
                "name": "D3",
                "ticks": 13380,
                "time": 37.16668525,
                "velocity": 0.5039370078740157
              },
              {
                "duration": 0.33333350000000195,
                "durationTicks": 120,
                "midi": 52,
                "name": "E3",
                "ticks": 13440,
                "time": 37.333352,
                "velocity": 0.5039370078740157
              },
              {
                "duration": 0.33333350000000195,
                "durationTicks": 120,
                "midi": 40,
                "name": "E2",
                "ticks": 13560,
                "time": 37.6666855,
                "velocity": 0.5039370078740157
              },
              {
                "duration": 0.16666674999999742,
                "durationTicks": 60,
                "midi": 45,
                "name": "A2",
                "ticks": 13680,
                "time": 38.000019,
                "velocity": 0.5039370078740157
              },
              {
                "duration": 0.16666675000000453,
                "durationTicks": 60,
                "midi": 49,
                "name": "C#3",
                "ticks": 13740,
                "time": 38.16668575,
                "velocity": 0.5039370078740157
              },
              {
                "duration": 0.16666674999999742,
                "durationTicks": 60,
                "midi": 50,
                "name": "D3",
                "ticks": 13800,
                "time": 38.333352500000004,
                "velocity": 0.5039370078740157
              },
              {
                "duration": 0.16666674999999742,
                "durationTicks": 60,
                "midi": 52,
                "name": "E3",
                "ticks": 13860,
                "time": 38.50001925,
                "velocity": 0.5039370078740157
              },
              {
                "duration": 0.16666675000000453,
                "durationTicks": 60,
                "midi": 54,
                "name": "F#3",
                "ticks": 13920,
                "time": 38.666686,
                "velocity": 0.5039370078740157
              },
              {
                "duration": 0.16666674999999742,
                "durationTicks": 60,
                "midi": 55,
                "name": "G3",
                "ticks": 13980,
                "time": 38.83335275,
                "velocity": 0.5039370078740157
              },
              {
                "duration": 0.16666674999999742,
                "durationTicks": 60,
                "midi": 57,
                "name": "A3",
                "ticks": 14040,
                "time": 39.0000195,
                "velocity": 0.5039370078740157
              },
              {
                "duration": 0.16666675000000453,
                "durationTicks": 60,
                "midi": 55,
                "name": "G3",
                "ticks": 14100,
                "time": 39.16668625,
                "velocity": 0.5039370078740157
              },
              {
                "duration": 0.16666674999999742,
                "durationTicks": 60,
                "midi": 59,
                "name": "B3",
                "ticks": 14160,
                "time": 39.333353,
                "velocity": 0.5039370078740157
              },
              {
                "duration": 0.16666674999999742,
                "durationTicks": 60,
                "midi": 57,
                "name": "A3",
                "ticks": 14220,
                "time": 39.50001975,
                "velocity": 0.5039370078740157
              },
              {
                "duration": 0.16666675000000453,
                "durationTicks": 60,
                "midi": 55,
                "name": "G3",
                "ticks": 14280,
                "time": 39.6666865,
                "velocity": 0.5039370078740157
              },
              {
                "duration": 0.16666674999999742,
                "durationTicks": 60,
                "midi": 54,
                "name": "F#3",
                "ticks": 14340,
                "time": 39.83335325,
                "velocity": 0.5039370078740157
              },
              {
                "duration": 0.16666675000000453,
                "durationTicks": 60,
                "midi": 55,
                "name": "G3",
                "ticks": 14400,
                "time": 40.00002,
                "velocity": 0.5039370078740157
              },
              {
                "duration": 0.16666674999999742,
                "durationTicks": 60,
                "midi": 54,
                "name": "F#3",
                "ticks": 14460,
                "time": 40.166686750000004,
                "velocity": 0.5039370078740157
              },
              {
                "duration": 0.16666674999999742,
                "durationTicks": 60,
                "midi": 57,
                "name": "A3",
                "ticks": 14520,
                "time": 40.3333535,
                "velocity": 0.5039370078740157
              },
              {
                "duration": 0.16666675000000453,
                "durationTicks": 60,
                "midi": 55,
                "name": "G3",
                "ticks": 14580,
                "time": 40.50002025,
                "velocity": 0.5039370078740157
              },
              {
                "duration": 0.16666674999999742,
                "durationTicks": 60,
                "midi": 54,
                "name": "F#3",
                "ticks": 14640,
                "time": 40.666687,
                "velocity": 0.5039370078740157
              },
              {
                "duration": 0.16666674999999742,
                "durationTicks": 60,
                "midi": 52,
                "name": "E3",
                "ticks": 14700,
                "time": 40.83335375,
                "velocity": 0.5039370078740157
              },
              {
                "duration": 0.16666675000000453,
                "durationTicks": 60,
                "midi": 54,
                "name": "F#3",
                "ticks": 14760,
                "time": 41.0000205,
                "velocity": 0.5039370078740157
              },
              {
                "duration": 0.16666674999999742,
                "durationTicks": 60,
                "midi": 52,
                "name": "E3",
                "ticks": 14820,
                "time": 41.16668725,
                "velocity": 0.5039370078740157
              },
              {
                "duration": 0.16666674999999742,
                "durationTicks": 60,
                "midi": 55,
                "name": "G3",
                "ticks": 14880,
                "time": 41.333354,
                "velocity": 0.5039370078740157
              },
              {
                "duration": 0.16666675000000453,
                "durationTicks": 60,
                "midi": 54,
                "name": "F#3",
                "ticks": 14940,
                "time": 41.50002075,
                "velocity": 0.5039370078740157
              },
              {
                "duration": 0.16666674999999742,
                "durationTicks": 60,
                "midi": 52,
                "name": "E3",
                "ticks": 15000,
                "time": 41.6666875,
                "velocity": 0.5039370078740157
              },
              {
                "duration": 0.16666675000000453,
                "durationTicks": 60,
                "midi": 50,
                "name": "D3",
                "ticks": 15060,
                "time": 41.83335425,
                "velocity": 0.5039370078740157
              },
              {
                "duration": 0.33333349999999484,
                "durationTicks": 120,
                "midi": 57,
                "name": "A3",
                "ticks": 15120,
                "time": 42.000021000000004,
                "velocity": 0.5039370078740157
              },
              {
                "duration": 0.33333350000000195,
                "durationTicks": 120,
                "midi": 45,
                "name": "A2",
                "ticks": 15240,
                "time": 42.3333545,
                "velocity": 0.5039370078740157
              },
              {
                "duration": 0.16666675000000453,
                "durationTicks": 60,
                "midi": 50,
                "name": "D3",
                "ticks": 16080,
                "time": 44.666689,
                "velocity": 0.5039370078740157
              },
              {
                "duration": 0.16666674999999742,
                "durationTicks": 60,
                "midi": 52,
                "name": "E3",
                "ticks": 16140,
                "time": 44.83335575,
                "velocity": 0.5039370078740157
              },
              {
                "duration": 0.16666674999999742,
                "durationTicks": 60,
                "midi": 54,
                "name": "F#3",
                "ticks": 16200,
                "time": 45.0000225,
                "velocity": 0.5039370078740157
              },
              {
                "duration": 0.16666675000000453,
                "durationTicks": 60,
                "midi": 52,
                "name": "E3",
                "ticks": 16260,
                "time": 45.16668925,
                "velocity": 0.5039370078740157
              },
              {
                "duration": 0.16666674999999742,
                "durationTicks": 60,
                "midi": 55,
                "name": "G3",
                "ticks": 16320,
                "time": 45.333356,
                "velocity": 0.5039370078740157
              },
              {
                "duration": 0.16666675000000453,
                "durationTicks": 60,
                "midi": 54,
                "name": "F#3",
                "ticks": 16380,
                "time": 45.50002275,
                "velocity": 0.5039370078740157
              },
              {
                "duration": 0.16666674999999742,
                "durationTicks": 60,
                "midi": 52,
                "name": "E3",
                "ticks": 16440,
                "time": 45.666689500000004,
                "velocity": 0.5039370078740157
              },
              {
                "duration": 0.16666674999999742,
                "durationTicks": 60,
                "midi": 50,
                "name": "D3",
                "ticks": 16500,
                "time": 45.83335625,
                "velocity": 0.5039370078740157
              },
              {
                "duration": 0.16666675000000453,
                "durationTicks": 60,
                "midi": 57,
                "name": "A3",
                "ticks": 16560,
                "time": 46.000023,
                "velocity": 0.5039370078740157
              },
              {
                "duration": 0.16666674999999742,
                "durationTicks": 60,
                "midi": 55,
                "name": "G3",
                "ticks": 16620,
                "time": 46.16668975,
                "velocity": 0.5039370078740157
              },
              {
                "duration": 0.16666674999999742,
                "durationTicks": 60,
                "midi": 54,
                "name": "F#3",
                "ticks": 16680,
                "time": 46.3333565,
                "velocity": 0.5039370078740157
              },
              {
                "duration": 0.16666675000000453,
                "durationTicks": 60,
                "midi": 52,
                "name": "E3",
                "ticks": 16740,
                "time": 46.50002325,
                "velocity": 0.5039370078740157
              },
              {
                "duration": 0.16666674999999742,
                "durationTicks": 60,
                "midi": 54,
                "name": "F#3",
                "ticks": 16800,
                "time": 46.66669,
                "velocity": 0.5039370078740157
              },
              {
                "duration": 0.16666674999999742,
                "durationTicks": 60,
                "midi": 50,
                "name": "D3",
                "ticks": 16860,
                "time": 46.83335675,
                "velocity": 0.5039370078740157
              },
              {
                "duration": 0.16666675000000453,
                "durationTicks": 60,
                "midi": 57,
                "name": "A3",
                "ticks": 16920,
                "time": 47.0000235,
                "velocity": 0.5039370078740157
              },
              {
                "duration": 0.16666674999999742,
                "durationTicks": 60,
                "midi": 54,
                "name": "F#3",
                "ticks": 16980,
                "time": 47.16669025,
                "velocity": 0.5039370078740157
              },
              {
                "duration": 0.16666675000000453,
                "durationTicks": 60,
                "midi": 59,
                "name": "B3",
                "ticks": 17040,
                "time": 47.333357,
                "velocity": 0.5039370078740157
              },
              {
                "duration": 0.16666674999999742,
                "durationTicks": 60,
                "midi": 55,
                "name": "G3",
                "ticks": 17100,
                "time": 47.500023750000004,
                "velocity": 0.5039370078740157
              },
              {
                "duration": 0.16666674999999742,
                "durationTicks": 60,
                "midi": 54,
                "name": "F#3",
                "ticks": 17160,
                "time": 47.6666905,
                "velocity": 0.5039370078740157
              },
              {
                "duration": 0.16666675000000453,
                "durationTicks": 60,
                "midi": 52,
                "name": "E3",
                "ticks": 17220,
                "time": 47.83335725,
                "velocity": 0.5039370078740157
              },
              {
                "duration": 0.16666674999999742,
                "durationTicks": 60,
                "midi": 57,
                "name": "A3",
                "ticks": 17280,
                "time": 48.000024,
                "velocity": 0.5039370078740157
              },
              {
                "duration": 0.16666674999999742,
                "durationTicks": 60,
                "midi": 54,
                "name": "F#3",
                "ticks": 17340,
                "time": 48.16669075,
                "velocity": 0.5039370078740157
              },
              {
                "duration": 0.16666675000000453,
                "durationTicks": 60,
                "midi": 55,
                "name": "G3",
                "ticks": 17400,
                "time": 48.3333575,
                "velocity": 0.5039370078740157
              },
              {
                "duration": 0.16666674999999742,
                "durationTicks": 60,
                "midi": 52,
                "name": "E3",
                "ticks": 17460,
                "time": 48.50002425,
                "velocity": 0.5039370078740157
              },
              {
                "duration": 0.16666674999999742,
                "durationTicks": 60,
                "midi": 50,
                "name": "D3",
                "ticks": 17520,
                "time": 48.666691,
                "velocity": 0.5039370078740157
              },
              {
                "duration": 0.16666675000000453,
                "durationTicks": 60,
                "midi": 49,
                "name": "C#3",
                "ticks": 17580,
                "time": 48.83335775,
                "velocity": 0.5039370078740157
              },
              {
                "duration": 0.16666674999999742,
                "durationTicks": 60,
                "midi": 57,
                "name": "A3",
                "ticks": 17640,
                "time": 49.0000245,
                "velocity": 0.5039370078740157
              },
              {
                "duration": 0.16666675000000453,
                "durationTicks": 60,
                "midi": 54,
                "name": "F#3",
                "ticks": 17700,
                "time": 49.16669125,
                "velocity": 0.5039370078740157
              },
              {
                "duration": 0.16666674999999742,
                "durationTicks": 60,
                "midi": 59,
                "name": "B3",
                "ticks": 17760,
                "time": 49.333358000000004,
                "velocity": 0.5039370078740157
              },
              {
                "duration": 0.16666674999999742,
                "durationTicks": 60,
                "midi": 55,
                "name": "G3",
                "ticks": 17820,
                "time": 49.50002475,
                "velocity": 0.5039370078740157
              },
              {
                "duration": 0.16666675000000453,
                "durationTicks": 60,
                "midi": 54,
                "name": "F#3",
                "ticks": 17880,
                "time": 49.6666915,
                "velocity": 0.5039370078740157
              },
              {
                "duration": 0.16666674999999742,
                "durationTicks": 60,
                "midi": 52,
                "name": "E3",
                "ticks": 17940,
                "time": 49.83335825,
                "velocity": 0.5039370078740157
              },
              {
                "duration": 0.16666674999999742,
                "durationTicks": 60,
                "midi": 57,
                "name": "A3",
                "ticks": 18000,
                "time": 50.000025,
                "velocity": 0.5039370078740157
              },
              {
                "duration": 0.16666675000000453,
                "durationTicks": 60,
                "midi": 54,
                "name": "F#3",
                "ticks": 18060,
                "time": 50.16669175,
                "velocity": 0.5039370078740157
              },
              {
                "duration": 0.16666674999999742,
                "durationTicks": 60,
                "midi": 55,
                "name": "G3",
                "ticks": 18120,
                "time": 50.3333585,
                "velocity": 0.5039370078740157
              },
              {
                "duration": 0.16666674999999742,
                "durationTicks": 60,
                "midi": 52,
                "name": "E3",
                "ticks": 18180,
                "time": 50.50002525,
                "velocity": 0.5039370078740157
              },
              {
                "duration": 0.16666675000000453,
                "durationTicks": 60,
                "midi": 50,
                "name": "D3",
                "ticks": 18240,
                "time": 50.666692,
                "velocity": 0.5039370078740157
              },
              {
                "duration": 0.16666674999999742,
                "durationTicks": 60,
                "midi": 49,
                "name": "C#3",
                "ticks": 18300,
                "time": 50.83335875,
                "velocity": 0.5039370078740157
              },
              {
                "duration": 0.33333350000000195,
                "durationTicks": 120,
                "midi": 50,
                "name": "D3",
                "ticks": 18360,
                "time": 51.0000255,
                "velocity": 0.5039370078740157
              },
              {
                "duration": 0.33333350000000195,
                "durationTicks": 120,
                "midi": 52,
                "name": "E3",
                "ticks": 18480,
                "time": 51.333359,
                "velocity": 0.5039370078740157
              },
              {
                "duration": 0.33333349999999484,
                "durationTicks": 120,
                "midi": 54,
                "name": "F#3",
                "ticks": 18600,
                "time": 51.6666925,
                "velocity": 0.5039370078740157
              },
              {
                "duration": 0.16666675000000453,
                "durationTicks": 60,
                "midi": 55,
                "name": "G3",
                "ticks": 18720,
                "time": 52.000026,
                "velocity": 0.5039370078740157
              },
              {
                "duration": 0.16666674999999742,
                "durationTicks": 60,
                "midi": 54,
                "name": "F#3",
                "ticks": 18780,
                "time": 52.16669275,
                "velocity": 0.5039370078740157
              },
              {
                "duration": 0.16666674999999742,
                "durationTicks": 60,
                "midi": 57,
                "name": "A3",
                "ticks": 18840,
                "time": 52.3333595,
                "velocity": 0.5039370078740157
              },
              {
                "duration": 0.16666675000000453,
                "durationTicks": 60,
                "midi": 55,
                "name": "G3",
                "ticks": 18900,
                "time": 52.50002625,
                "velocity": 0.5039370078740157
              },
              {
                "duration": 0.16666674999999742,
                "durationTicks": 60,
                "midi": 54,
                "name": "F#3",
                "ticks": 18960,
                "time": 52.666693,
                "velocity": 0.5039370078740157
              },
              {
                "duration": 0.16666675000000453,
                "durationTicks": 60,
                "midi": 52,
                "name": "E3",
                "ticks": 19020,
                "time": 52.83335975,
                "velocity": 0.5039370078740157
              },
              {
                "duration": 0.16666674999999742,
                "durationTicks": 60,
                "midi": 54,
                "name": "F#3",
                "ticks": 19080,
                "time": 53.000026500000004,
                "velocity": 0.5039370078740157
              },
              {
                "duration": 0.16666674999999742,
                "durationTicks": 60,
                "midi": 55,
                "name": "G3",
                "ticks": 19140,
                "time": 53.16669325,
                "velocity": 0.5039370078740157
              },
              {
                "duration": 0.33333350000000195,
                "durationTicks": 120,
                "midi": 57,
                "name": "A3",
                "ticks": 19200,
                "time": 53.33336,
                "velocity": 0.5039370078740157
              },
              {
                "duration": 0.33333350000000195,
                "durationTicks": 120,
                "midi": 45,
                "name": "A2",
                "ticks": 19320,
                "time": 53.6666935,
                "velocity": 0.5039370078740157
              },
              {
                "duration": 0.16666674999999742,
                "durationTicks": 60,
                "midi": 47,
                "name": "B2",
                "ticks": 19440,
                "time": 54.000027,
                "velocity": 0.5039370078740157
              },
              {
                "duration": 0.16666674999999742,
                "durationTicks": 60,
                "midi": 45,
                "name": "A2",
                "ticks": 19500,
                "time": 54.16669375,
                "velocity": 0.5039370078740157
              },
              {
                "duration": 0.16666675000000453,
                "durationTicks": 60,
                "midi": 48,
                "name": "C3",
                "ticks": 19560,
                "time": 54.3333605,
                "velocity": 0.5039370078740157
              },
              {
                "duration": 0.16666674999999742,
                "durationTicks": 60,
                "midi": 47,
                "name": "B2",
                "ticks": 19620,
                "time": 54.50002725,
                "velocity": 0.5039370078740157
              },
              {
                "duration": 0.16666675000000453,
                "durationTicks": 60,
                "midi": 45,
                "name": "A2",
                "ticks": 19680,
                "time": 54.666694,
                "velocity": 0.5039370078740157
              },
              {
                "duration": 0.16666674999999742,
                "durationTicks": 60,
                "midi": 43,
                "name": "G2",
                "ticks": 19740,
                "time": 54.833360750000004,
                "velocity": 0.5039370078740157
              },
              {
                "duration": 1.138889458333331,
                "durationTicks": 410,
                "midi": 50,
                "name": "D3",
                "ticks": 19800,
                "time": 55.0000275,
                "velocity": 0.5039370078740157
              },
              {
                "duration": 0.16666675000000453,
                "durationTicks": 60,
                "midi": 49,
                "name": "C#3",
                "ticks": 20220,
                "time": 56.16669475,
                "velocity": 0.5039370078740157
              },
              {
                "duration": 0.16666674999999742,
                "durationTicks": 60,
                "midi": 47,
                "name": "B2",
                "ticks": 20280,
                "time": 56.3333615,
                "velocity": 0.5039370078740157
              },
              {
                "duration": 0.16666675000000453,
                "durationTicks": 60,
                "midi": 45,
                "name": "A2",
                "ticks": 20340,
                "time": 56.50002825,
                "velocity": 0.5039370078740157
              },
              {
                "duration": 0.16666674999999742,
                "durationTicks": 60,
                "midi": 43,
                "name": "G2",
                "ticks": 20400,
                "time": 56.666695000000004,
                "velocity": 0.5039370078740157
              },
              {
                "duration": 0.16666674999999742,
                "durationTicks": 60,
                "midi": 42,
                "name": "F#2",
                "ticks": 20460,
                "time": 56.83336175,
                "velocity": 0.5039370078740157
              },
              {
                "duration": 0.16666675000000453,
                "durationTicks": 60,
                "midi": 43,
                "name": "G2",
                "ticks": 20520,
                "time": 57.0000285,
                "velocity": 0.5039370078740157
              },
              {
                "duration": 0.16666674999999742,
                "durationTicks": 60,
                "midi": 42,
                "name": "F#2",
                "ticks": 20580,
                "time": 57.166695250000004,
                "velocity": 0.5039370078740157
              },
              {
                "duration": 0.16666674999999742,
                "durationTicks": 60,
                "midi": 45,
                "name": "A2",
                "ticks": 20640,
                "time": 57.333362,
                "velocity": 0.5039370078740157
              },
              {
                "duration": 0.16666675000000453,
                "durationTicks": 60,
                "midi": 43,
                "name": "G2",
                "ticks": 20700,
                "time": 57.50002875,
                "velocity": 0.5039370078740157
              },
              {
                "duration": 0.16666674999999742,
                "durationTicks": 60,
                "midi": 42,
                "name": "F#2",
                "ticks": 20760,
                "time": 57.6666955,
                "velocity": 0.5039370078740157
              },
              {
                "duration": 0.16666674999999742,
                "durationTicks": 60,
                "midi": 40,
                "name": "E2",
                "ticks": 20820,
                "time": 57.83336225,
                "velocity": 0.5039370078740157
              },
              {
                "duration": 0.16666675000000453,
                "durationTicks": 60,
                "midi": 42,
                "name": "F#2",
                "ticks": 20880,
                "time": 58.000029,
                "velocity": 0.5039370078740157
              },
              {
                "duration": 0.16666674999999742,
                "durationTicks": 60,
                "midi": 43,
                "name": "G2",
                "ticks": 20940,
                "time": 58.16669575,
                "velocity": 0.5039370078740157
              },
              {
                "duration": 0.6666670000000039,
                "durationTicks": 240,
                "midi": 45,
                "name": "A2",
                "ticks": 21000,
                "time": 58.3333625,
                "velocity": 0.5039370078740157
              },
              {
                "duration": 2.0000009999999975,
                "durationTicks": 720,
                "midi": 38,
                "name": "D2",
                "ticks": 21240,
                "time": 59.000029500000004,
                "velocity": 0.5039370078740157
              }
            ],
            "endOfTrackTicks": 21960
          }
        ]
    },

    "invention-04" : {
        "header": {
          "keySignatures": [],
          "meta": [],
          "name": "Invention 4 in D Minor",
          "ppq": 240,
          "tempos": [
            {
              "bpm": 98.99993565004183,
              "ticks": 0
            }
          ],
          "timeSignatures": [
            {
              "ticks": 0,
              "timeSignature": [
                3,
                8
              ],
              "measures": 0
            }
          ]
        },
        "tracks": [
          {
            "channel": 0,
            "controlChanges": {},
            "pitchBends": [],
            "instrument": {
              "family": "piano",
              "number": 0,
              "name": "acoustic grand piano"
            },
            "name": "",
            "notes": [
              {
                "duration": 0.15151525,
                "durationTicks": 60,
                "midi": 62,
                "name": "D4",
                "ticks": 0,
                "time": 0,
                "velocity": 0.5039370078740157
              },
              {
                "duration": 0.15151525,
                "durationTicks": 60,
                "midi": 64,
                "name": "E4",
                "ticks": 60,
                "time": 0.15151525,
                "velocity": 0.5039370078740157
              },
              {
                "duration": 0.15151525,
                "durationTicks": 60,
                "midi": 65,
                "name": "F4",
                "ticks": 120,
                "time": 0.3030305,
                "velocity": 0.5039370078740157
              },
              {
                "duration": 0.15151525,
                "durationTicks": 60,
                "midi": 67,
                "name": "G4",
                "ticks": 180,
                "time": 0.45454574999999997,
                "velocity": 0.5039370078740157
              },
              {
                "duration": 0.15151525,
                "durationTicks": 60,
                "midi": 69,
                "name": "A4",
                "ticks": 240,
                "time": 0.606061,
                "velocity": 0.5039370078740157
              },
              {
                "duration": 0.15151525,
                "durationTicks": 60,
                "midi": 70,
                "name": "A#4",
                "ticks": 300,
                "time": 0.75757625,
                "velocity": 0.5039370078740157
              },
              {
                "duration": 0.15151524999999988,
                "durationTicks": 60,
                "midi": 61,
                "name": "C#4",
                "ticks": 360,
                "time": 0.9090914999999999,
                "velocity": 0.5039370078740157
              },
              {
                "duration": 0.1515152500000001,
                "durationTicks": 60,
                "midi": 70,
                "name": "A#4",
                "ticks": 420,
                "time": 1.0606067499999998,
                "velocity": 0.5039370078740157
              },
              {
                "duration": 0.1515152500000001,
                "durationTicks": 60,
                "midi": 69,
                "name": "A4",
                "ticks": 480,
                "time": 1.212122,
                "velocity": 0.5039370078740157
              },
              {
                "duration": 0.15151524999999988,
                "durationTicks": 60,
                "midi": 67,
                "name": "G4",
                "ticks": 540,
                "time": 1.36363725,
                "velocity": 0.5039370078740157
              },
              {
                "duration": 0.15151524999999988,
                "durationTicks": 60,
                "midi": 65,
                "name": "F4",
                "ticks": 600,
                "time": 1.5151525,
                "velocity": 0.5039370078740157
              },
              {
                "duration": 0.1515152500000001,
                "durationTicks": 60,
                "midi": 64,
                "name": "E4",
                "ticks": 660,
                "time": 1.6666677499999998,
                "velocity": 0.5039370078740157
              },
              {
                "duration": 0.30303049999999976,
                "durationTicks": 120,
                "midi": 65,
                "name": "F4",
                "ticks": 720,
                "time": 1.8181829999999999,
                "velocity": 0.5039370078740157
              },
              {
                "duration": 0.3030305000000002,
                "durationTicks": 120,
                "midi": 69,
                "name": "A4",
                "ticks": 840,
                "time": 2.1212134999999996,
                "velocity": 0.5039370078740157
              },
              {
                "duration": 0.3030305000000002,
                "durationTicks": 120,
                "midi": 74,
                "name": "D5",
                "ticks": 960,
                "time": 2.424244,
                "velocity": 0.5039370078740157
              },
              {
                "duration": 0.30303049999999976,
                "durationTicks": 120,
                "midi": 67,
                "name": "G4",
                "ticks": 1080,
                "time": 2.7272745,
                "velocity": 0.5039370078740157
              },
              {
                "duration": 0.30303049999999976,
                "durationTicks": 120,
                "midi": 70,
                "name": "A#4",
                "ticks": 1200,
                "time": 3.030305,
                "velocity": 0.5039370078740157
              },
              {
                "duration": 0.3030305000000002,
                "durationTicks": 120,
                "midi": 76,
                "name": "E5",
                "ticks": 1320,
                "time": 3.3333354999999996,
                "velocity": 0.5039370078740157
              },
              {
                "duration": 0.1515152500000001,
                "durationTicks": 60,
                "midi": 74,
                "name": "D5",
                "ticks": 1440,
                "time": 3.6363659999999998,
                "velocity": 0.5039370078740157
              },
              {
                "duration": 0.1515152500000001,
                "durationTicks": 60,
                "midi": 76,
                "name": "E5",
                "ticks": 1500,
                "time": 3.78788125,
                "velocity": 0.5039370078740157
              },
              {
                "duration": 0.1515152500000001,
                "durationTicks": 60,
                "midi": 77,
                "name": "F5",
                "ticks": 1560,
                "time": 3.9393965,
                "velocity": 0.5039370078740157
              },
              {
                "duration": 0.1515152499999992,
                "durationTicks": 60,
                "midi": 79,
                "name": "G5",
                "ticks": 1620,
                "time": 4.09091175,
                "velocity": 0.5039370078740157
              },
              {
                "duration": 0.1515152500000001,
                "durationTicks": 60,
                "midi": 81,
                "name": "A5",
                "ticks": 1680,
                "time": 4.242426999999999,
                "velocity": 0.5039370078740157
              },
              {
                "duration": 0.1515152500000001,
                "durationTicks": 60,
                "midi": 82,
                "name": "A#5",
                "ticks": 1740,
                "time": 4.393942249999999,
                "velocity": 0.5039370078740157
              },
              {
                "duration": 0.1515152500000001,
                "durationTicks": 60,
                "midi": 73,
                "name": "C#5",
                "ticks": 1800,
                "time": 4.5454574999999995,
                "velocity": 0.5039370078740157
              },
              {
                "duration": 0.1515152500000001,
                "durationTicks": 60,
                "midi": 82,
                "name": "A#5",
                "ticks": 1860,
                "time": 4.69697275,
                "velocity": 0.5039370078740157
              },
              {
                "duration": 0.1515152500000001,
                "durationTicks": 60,
                "midi": 81,
                "name": "A5",
                "ticks": 1920,
                "time": 4.848488,
                "velocity": 0.5039370078740157
              },
              {
                "duration": 0.1515152500000001,
                "durationTicks": 60,
                "midi": 79,
                "name": "G5",
                "ticks": 1980,
                "time": 5.00000325,
                "velocity": 0.5039370078740157
              },
              {
                "duration": 0.1515152500000001,
                "durationTicks": 60,
                "midi": 77,
                "name": "F5",
                "ticks": 2040,
                "time": 5.1515185,
                "velocity": 0.5039370078740157
              },
              {
                "duration": 0.1515152500000001,
                "durationTicks": 60,
                "midi": 76,
                "name": "E5",
                "ticks": 2100,
                "time": 5.30303375,
                "velocity": 0.5039370078740157
              },
              {
                "duration": 0.1515152499999992,
                "durationTicks": 60,
                "midi": 77,
                "name": "F5",
                "ticks": 2160,
                "time": 5.454549,
                "velocity": 0.5039370078740157
              },
              {
                "duration": 0.1515152500000001,
                "durationTicks": 60,
                "midi": 74,
                "name": "D5",
                "ticks": 2220,
                "time": 5.606064249999999,
                "velocity": 0.5039370078740157
              },
              {
                "duration": 0.1515152500000001,
                "durationTicks": 60,
                "midi": 76,
                "name": "E5",
                "ticks": 2280,
                "time": 5.757579499999999,
                "velocity": 0.5039370078740157
              },
              {
                "duration": 0.1515152500000001,
                "durationTicks": 60,
                "midi": 77,
                "name": "F5",
                "ticks": 2340,
                "time": 5.9090947499999995,
                "velocity": 0.5039370078740157
              },
              {
                "duration": 0.1515152500000001,
                "durationTicks": 60,
                "midi": 79,
                "name": "G5",
                "ticks": 2400,
                "time": 6.06061,
                "velocity": 0.5039370078740157
              },
              {
                "duration": 0.1515152500000001,
                "durationTicks": 60,
                "midi": 81,
                "name": "A5",
                "ticks": 2460,
                "time": 6.21212525,
                "velocity": 0.5039370078740157
              },
              {
                "duration": 0.1515152500000001,
                "durationTicks": 60,
                "midi": 70,
                "name": "A#4",
                "ticks": 2520,
                "time": 6.3636405,
                "velocity": 0.5039370078740157
              },
              {
                "duration": 0.1515152499999992,
                "durationTicks": 60,
                "midi": 81,
                "name": "A5",
                "ticks": 2580,
                "time": 6.51515575,
                "velocity": 0.5039370078740157
              },
              {
                "duration": 0.1515152500000001,
                "durationTicks": 60,
                "midi": 79,
                "name": "G5",
                "ticks": 2640,
                "time": 6.666670999999999,
                "velocity": 0.5039370078740157
              },
              {
                "duration": 0.1515152500000001,
                "durationTicks": 60,
                "midi": 77,
                "name": "F5",
                "ticks": 2700,
                "time": 6.818186249999999,
                "velocity": 0.5039370078740157
              },
              {
                "duration": 0.1515152500000001,
                "durationTicks": 60,
                "midi": 76,
                "name": "E5",
                "ticks": 2760,
                "time": 6.969701499999999,
                "velocity": 0.5039370078740157
              },
              {
                "duration": 0.1515152500000001,
                "durationTicks": 60,
                "midi": 74,
                "name": "D5",
                "ticks": 2820,
                "time": 7.121216749999999,
                "velocity": 0.5039370078740157
              },
              {
                "duration": 0.1515152500000001,
                "durationTicks": 60,
                "midi": 76,
                "name": "E5",
                "ticks": 2880,
                "time": 7.2727319999999995,
                "velocity": 0.5039370078740157
              },
              {
                "duration": 0.1515152500000001,
                "durationTicks": 60,
                "midi": 72,
                "name": "C5",
                "ticks": 2940,
                "time": 7.42424725,
                "velocity": 0.5039370078740157
              },
              {
                "duration": 0.1515152500000001,
                "durationTicks": 60,
                "midi": 74,
                "name": "D5",
                "ticks": 3000,
                "time": 7.5757625,
                "velocity": 0.5039370078740157
              },
              {
                "duration": 0.1515152500000001,
                "durationTicks": 60,
                "midi": 76,
                "name": "E5",
                "ticks": 3060,
                "time": 7.72727775,
                "velocity": 0.5039370078740157
              },
              {
                "duration": 0.1515152499999992,
                "durationTicks": 60,
                "midi": 77,
                "name": "F5",
                "ticks": 3120,
                "time": 7.878793,
                "velocity": 0.5039370078740157
              },
              {
                "duration": 0.151515250000001,
                "durationTicks": 60,
                "midi": 79,
                "name": "G5",
                "ticks": 3180,
                "time": 8.03030825,
                "velocity": 0.5039370078740157
              },
              {
                "duration": 0.1515152499999992,
                "durationTicks": 60,
                "midi": 69,
                "name": "A4",
                "ticks": 3240,
                "time": 8.1818235,
                "velocity": 0.5039370078740157
              },
              {
                "duration": 0.1515152499999992,
                "durationTicks": 60,
                "midi": 79,
                "name": "G5",
                "ticks": 3300,
                "time": 8.33333875,
                "velocity": 0.5039370078740157
              },
              {
                "duration": 0.151515250000001,
                "durationTicks": 60,
                "midi": 77,
                "name": "F5",
                "ticks": 3360,
                "time": 8.484853999999999,
                "velocity": 0.5039370078740157
              },
              {
                "duration": 0.1515152499999992,
                "durationTicks": 60,
                "midi": 76,
                "name": "E5",
                "ticks": 3420,
                "time": 8.63636925,
                "velocity": 0.5039370078740157
              },
              {
                "duration": 0.151515250000001,
                "durationTicks": 60,
                "midi": 74,
                "name": "D5",
                "ticks": 3480,
                "time": 8.787884499999999,
                "velocity": 0.5039370078740157
              },
              {
                "duration": 0.1515152499999992,
                "durationTicks": 60,
                "midi": 72,
                "name": "C5",
                "ticks": 3540,
                "time": 8.93939975,
                "velocity": 0.5039370078740157
              },
              {
                "duration": 0.151515250000001,
                "durationTicks": 60,
                "midi": 74,
                "name": "D5",
                "ticks": 3600,
                "time": 9.090914999999999,
                "velocity": 0.5039370078740157
              },
              {
                "duration": 0.1515152499999992,
                "durationTicks": 60,
                "midi": 76,
                "name": "E5",
                "ticks": 3660,
                "time": 9.24243025,
                "velocity": 0.5039370078740157
              },
              {
                "duration": 0.151515250000001,
                "durationTicks": 60,
                "midi": 77,
                "name": "F5",
                "ticks": 3720,
                "time": 9.3939455,
                "velocity": 0.5039370078740157
              },
              {
                "duration": 0.1515152499999992,
                "durationTicks": 60,
                "midi": 74,
                "name": "D5",
                "ticks": 3780,
                "time": 9.54546075,
                "velocity": 0.5039370078740157
              },
              {
                "duration": 0.1515152499999992,
                "durationTicks": 60,
                "midi": 76,
                "name": "E5",
                "ticks": 3840,
                "time": 9.696976,
                "velocity": 0.5039370078740157
              },
              {
                "duration": 0.151515250000001,
                "durationTicks": 60,
                "midi": 77,
                "name": "F5",
                "ticks": 3900,
                "time": 9.848491249999999,
                "velocity": 0.5039370078740157
              },
              {
                "duration": 0.3030305000000002,
                "durationTicks": 120,
                "midi": 67,
                "name": "G4",
                "ticks": 3960,
                "time": 10.0000065,
                "velocity": 0.5039370078740157
              },
              {
                "duration": 0.1515152499999992,
                "durationTicks": 60,
                "midi": 72,
                "name": "C5",
                "ticks": 4320,
                "time": 10.909098,
                "velocity": 0.5039370078740157
              },
              {
                "duration": 0.1515152499999992,
                "durationTicks": 60,
                "midi": 74,
                "name": "D5",
                "ticks": 4380,
                "time": 11.06061325,
                "velocity": 0.5039370078740157
              },
              {
                "duration": 0.151515250000001,
                "durationTicks": 60,
                "midi": 76,
                "name": "E5",
                "ticks": 4440,
                "time": 11.212128499999999,
                "velocity": 0.5039370078740157
              },
              {
                "duration": 0.1515152499999992,
                "durationTicks": 60,
                "midi": 72,
                "name": "C5",
                "ticks": 4500,
                "time": 11.36364375,
                "velocity": 0.5039370078740157
              },
              {
                "duration": 0.151515250000001,
                "durationTicks": 60,
                "midi": 74,
                "name": "D5",
                "ticks": 4560,
                "time": 11.515158999999999,
                "velocity": 0.5039370078740157
              },
              {
                "duration": 0.1515152499999992,
                "durationTicks": 60,
                "midi": 76,
                "name": "E5",
                "ticks": 4620,
                "time": 11.66667425,
                "velocity": 0.5039370078740157
              },
              {
                "duration": 0.3030305000000002,
                "durationTicks": 120,
                "midi": 65,
                "name": "F4",
                "ticks": 4680,
                "time": 11.818189499999999,
                "velocity": 0.5039370078740157
              },
              {
                "duration": 0.6060610000000004,
                "durationTicks": 240,
                "midi": 70,
                "name": "A#4",
                "ticks": 4920,
                "time": 12.4242505,
                "velocity": 0.5039370078740157
              },
              {
                "duration": 0.3030304999999984,
                "durationTicks": 120,
                "midi": 69,
                "name": "A4",
                "ticks": 5160,
                "time": 13.0303115,
                "velocity": 0.5039370078740157
              },
              {
                "duration": 0.3030305000000002,
                "durationTicks": 120,
                "midi": 67,
                "name": "G4",
                "ticks": 5280,
                "time": 13.333341999999998,
                "velocity": 0.5039370078740157
              },
              {
                "duration": 0.151515250000001,
                "durationTicks": 60,
                "midi": 72,
                "name": "C5",
                "ticks": 5400,
                "time": 13.636372499999998,
                "velocity": 0.5039370078740157
              },
              {
                "duration": 0.1515152499999992,
                "durationTicks": 60,
                "midi": 70,
                "name": "A#4",
                "ticks": 5460,
                "time": 13.78788775,
                "velocity": 0.5039370078740157
              },
              {
                "duration": 0.151515250000001,
                "durationTicks": 60,
                "midi": 69,
                "name": "A4",
                "ticks": 5520,
                "time": 13.939402999999999,
                "velocity": 0.5039370078740157
              },
              {
                "duration": 0.1515152499999992,
                "durationTicks": 60,
                "midi": 67,
                "name": "G4",
                "ticks": 5580,
                "time": 14.09091825,
                "velocity": 0.5039370078740157
              },
              {
                "duration": 0.151515250000001,
                "durationTicks": 60,
                "midi": 65,
                "name": "F4",
                "ticks": 5640,
                "time": 14.242433499999999,
                "velocity": 0.5039370078740157
              },
              {
                "duration": 0.1515152499999992,
                "durationTicks": 60,
                "midi": 64,
                "name": "E4",
                "ticks": 5700,
                "time": 14.39394875,
                "velocity": 0.5039370078740157
              },
              {
                "duration": 0.1515152499999992,
                "durationTicks": 60,
                "midi": 65,
                "name": "F4",
                "ticks": 5760,
                "time": 14.545463999999999,
                "velocity": 0.5039370078740157
              },
              {
                "duration": 0.151515250000001,
                "durationTicks": 60,
                "midi": 67,
                "name": "G4",
                "ticks": 5820,
                "time": 14.696979249999998,
                "velocity": 0.5039370078740157
              },
              {
                "duration": 0.0757576249999996,
                "durationTicks": 30,
                "midi": 67,
                "name": "G4",
                "ticks": 5880,
                "time": 14.8484945,
                "velocity": 0.5039370078740157
              },
              {
                "duration": 0.0757576249999996,
                "durationTicks": 30,
                "midi": 69,
                "name": "A4",
                "ticks": 5910,
                "time": 14.924252124999999,
                "velocity": 0.5039370078740157
              },
              {
                "duration": 0.3030305000000002,
                "durationTicks": 120,
                "midi": 67,
                "name": "G4",
                "ticks": 5940,
                "time": 15.000009749999998,
                "velocity": 0.5039370078740157
              },
              {
                "duration": 0.151515250000001,
                "durationTicks": 60,
                "midi": 65,
                "name": "F4",
                "ticks": 6060,
                "time": 15.303040249999999,
                "velocity": 0.5039370078740157
              },
              {
                "duration": 0.3030305000000002,
                "durationTicks": 120,
                "midi": 65,
                "name": "F4",
                "ticks": 6120,
                "time": 15.4545555,
                "velocity": 0.5039370078740157
              },
              {
                "duration": 0.3030304999999984,
                "durationTicks": 120,
                "midi": 72,
                "name": "C5",
                "ticks": 6240,
                "time": 15.757586,
                "velocity": 0.5039370078740157
              },
              {
                "duration": 0.303030500000002,
                "durationTicks": 120,
                "midi": 72,
                "name": "C5",
                "ticks": 6360,
                "time": 16.0606165,
                "velocity": 0.5039370078740157
              },
              {
                "duration": 0.07575762499999783,
                "durationTicks": 30,
                "midi": 72,
                "name": "C5",
                "ticks": 6480,
                "time": 16.363647,
                "velocity": 0.5039370078740157
              },
              {
                "duration": 0.08333338750000152,
                "durationTicks": 33,
                "midi": 74,
                "name": "D5",
                "ticks": 6510,
                "time": 16.439404624999998,
                "velocity": 0.5039370078740157
              },
              {
                "duration": 0.08333338749999797,
                "durationTicks": 33,
                "midi": 72,
                "name": "C5",
                "ticks": 6540,
                "time": 16.51516225,
                "velocity": 0.3779527559055118
              },
              {
                "duration": 0.08333338750000152,
                "durationTicks": 33,
                "midi": 74,
                "name": "D5",
                "ticks": 6570,
                "time": 16.590919874999997,
                "velocity": 0.3779527559055118
              },
              {
                "duration": 0.08333338750000152,
                "durationTicks": 33,
                "midi": 72,
                "name": "C5",
                "ticks": 6600,
                "time": 16.6666775,
                "velocity": 0.3779527559055118
              },
              {
                "duration": 0.08333338749999797,
                "durationTicks": 33,
                "midi": 74,
                "name": "D5",
                "ticks": 6630,
                "time": 16.742435125,
                "velocity": 0.3858267716535433
              },
              {
                "duration": 0.08333338750000152,
                "durationTicks": 33,
                "midi": 72,
                "name": "C5",
                "ticks": 6660,
                "time": 16.818192749999998,
                "velocity": 0.3858267716535433
              },
              {
                "duration": 0.08333338749999797,
                "durationTicks": 33,
                "midi": 74,
                "name": "D5",
                "ticks": 6690,
                "time": 16.893950375,
                "velocity": 0.3858267716535433
              },
              {
                "duration": 0.08333338750000152,
                "durationTicks": 33,
                "midi": 72,
                "name": "C5",
                "ticks": 6720,
                "time": 16.969707999999997,
                "velocity": 0.3937007874015748
              },
              {
                "duration": 0.08333338750000152,
                "durationTicks": 33,
                "midi": 74,
                "name": "D5",
                "ticks": 6750,
                "time": 17.045465625,
                "velocity": 0.3937007874015748
              },
              {
                "duration": 0.08333338749999797,
                "durationTicks": 33,
                "midi": 72,
                "name": "C5",
                "ticks": 6780,
                "time": 17.12122325,
                "velocity": 0.4015748031496063
              },
              {
                "duration": 0.08333338750000152,
                "durationTicks": 33,
                "midi": 74,
                "name": "D5",
                "ticks": 6810,
                "time": 17.196980874999998,
                "velocity": 0.4015748031496063
              },
              {
                "duration": 0.08333338749999797,
                "durationTicks": 33,
                "midi": 72,
                "name": "C5",
                "ticks": 6840,
                "time": 17.2727385,
                "velocity": 0.4015748031496063
              },
              {
                "duration": 0.08333338749999797,
                "durationTicks": 33,
                "midi": 74,
                "name": "D5",
                "ticks": 6870,
                "time": 17.348496125,
                "velocity": 0.4094488188976378
              },
              {
                "duration": 0.08333338750000152,
                "durationTicks": 33,
                "midi": 72,
                "name": "C5",
                "ticks": 6900,
                "time": 17.42425375,
                "velocity": 0.4094488188976378
              },
              {
                "duration": 0.08333338749999797,
                "durationTicks": 33,
                "midi": 74,
                "name": "D5",
                "ticks": 6930,
                "time": 17.500011375,
                "velocity": 0.4094488188976378
              },
              {
                "duration": 0.08333338750000152,
                "durationTicks": 33,
                "midi": 72,
                "name": "C5",
                "ticks": 6960,
                "time": 17.575768999999998,
                "velocity": 0.41732283464566927
              },
              {
                "duration": 0.08333338749999797,
                "durationTicks": 33,
                "midi": 74,
                "name": "D5",
                "ticks": 6990,
                "time": 17.651526625,
                "velocity": 0.41732283464566927
              },
              {
                "duration": 0.08333338749999797,
                "durationTicks": 33,
                "midi": 72,
                "name": "C5",
                "ticks": 7020,
                "time": 17.72728425,
                "velocity": 0.41732283464566927
              },
              {
                "duration": 0.08333338750000152,
                "durationTicks": 33,
                "midi": 74,
                "name": "D5",
                "ticks": 7050,
                "time": 17.803041874999998,
                "velocity": 0.4251968503937008
              },
              {
                "duration": 0.08333338749999797,
                "durationTicks": 33,
                "midi": 72,
                "name": "C5",
                "ticks": 7080,
                "time": 17.8787995,
                "velocity": 0.4251968503937008
              },
              {
                "duration": 0.08333338750000152,
                "durationTicks": 33,
                "midi": 74,
                "name": "D5",
                "ticks": 7110,
                "time": 17.954557124999997,
                "velocity": 0.4251968503937008
              },
              {
                "duration": 0.08333338749999797,
                "durationTicks": 33,
                "midi": 72,
                "name": "C5",
                "ticks": 7140,
                "time": 18.03031475,
                "velocity": 0.4330708661417323
              },
              {
                "duration": 0.08333338749999797,
                "durationTicks": 33,
                "midi": 74,
                "name": "D5",
                "ticks": 7170,
                "time": 18.106072375,
                "velocity": 0.4330708661417323
              },
              {
                "duration": 0.08333338750000152,
                "durationTicks": 33,
                "midi": 72,
                "name": "C5",
                "ticks": 7200,
                "time": 18.181829999999998,
                "velocity": 0.4330708661417323
              },
              {
                "duration": 0.08333338749999797,
                "durationTicks": 33,
                "midi": 74,
                "name": "D5",
                "ticks": 7230,
                "time": 18.257587625,
                "velocity": 0.4409448818897638
              },
              {
                "duration": 0.08333338750000152,
                "durationTicks": 33,
                "midi": 72,
                "name": "C5",
                "ticks": 7260,
                "time": 18.333345249999997,
                "velocity": 0.4409448818897638
              },
              {
                "duration": 0.08333338750000152,
                "durationTicks": 33,
                "midi": 74,
                "name": "D5",
                "ticks": 7290,
                "time": 18.409102875,
                "velocity": 0.44881889763779526
              },
              {
                "duration": 0.08333338749999797,
                "durationTicks": 33,
                "midi": 72,
                "name": "C5",
                "ticks": 7320,
                "time": 18.4848605,
                "velocity": 0.44881889763779526
              },
              {
                "duration": 0.08333338750000152,
                "durationTicks": 33,
                "midi": 74,
                "name": "D5",
                "ticks": 7350,
                "time": 18.560618124999998,
                "velocity": 0.44881889763779526
              },
              {
                "duration": 0.08333338749999797,
                "durationTicks": 33,
                "midi": 72,
                "name": "C5",
                "ticks": 7380,
                "time": 18.63637575,
                "velocity": 0.4566929133858268
              },
              {
                "duration": 0.08333338749999797,
                "durationTicks": 33,
                "midi": 74,
                "name": "D5",
                "ticks": 7410,
                "time": 18.712133375,
                "velocity": 0.4566929133858268
              },
              {
                "duration": 0.08333338750000152,
                "durationTicks": 33,
                "midi": 72,
                "name": "C5",
                "ticks": 7440,
                "time": 18.787891,
                "velocity": 0.4566929133858268
              },
              {
                "duration": 0.08333338749999797,
                "durationTicks": 33,
                "midi": 74,
                "name": "D5",
                "ticks": 7470,
                "time": 18.863648625,
                "velocity": 0.4645669291338583
              },
              {
                "duration": 0.08333338750000152,
                "durationTicks": 33,
                "midi": 72,
                "name": "C5",
                "ticks": 7500,
                "time": 18.939406249999998,
                "velocity": 0.4645669291338583
              },
              {
                "duration": 0.08333338749999797,
                "durationTicks": 33,
                "midi": 74,
                "name": "D5",
                "ticks": 7530,
                "time": 19.015163875,
                "velocity": 0.4645669291338583
              },
              {
                "duration": 0.1515152499999992,
                "durationTicks": 60,
                "midi": 72,
                "name": "C5",
                "ticks": 7560,
                "time": 19.0909215,
                "velocity": 0.5039370078740157
              },
              {
                "duration": 0.1515152499999992,
                "durationTicks": 60,
                "midi": 70,
                "name": "A#4",
                "ticks": 7620,
                "time": 19.24243675,
                "velocity": 0.5039370078740157
              },
              {
                "duration": 0.1515152499999992,
                "durationTicks": 60,
                "midi": 69,
                "name": "A4",
                "ticks": 7680,
                "time": 19.393952,
                "velocity": 0.5039370078740157
              },
              {
                "duration": 0.1515152499999992,
                "durationTicks": 60,
                "midi": 67,
                "name": "G4",
                "ticks": 7740,
                "time": 19.545467249999998,
                "velocity": 0.5039370078740157
              },
              {
                "duration": 0.15151525000000277,
                "durationTicks": 60,
                "midi": 65,
                "name": "F4",
                "ticks": 7800,
                "time": 19.696982499999997,
                "velocity": 0.5039370078740157
              },
              {
                "duration": 0.1515152499999992,
                "durationTicks": 60,
                "midi": 64,
                "name": "E4",
                "ticks": 7860,
                "time": 19.84849775,
                "velocity": 0.5039370078740157
              },
              {
                "duration": 0.1515152499999992,
                "durationTicks": 60,
                "midi": 72,
                "name": "C5",
                "ticks": 7920,
                "time": 20.000013,
                "velocity": 0.5039370078740157
              },
              {
                "duration": 0.1515152499999992,
                "durationTicks": 60,
                "midi": 62,
                "name": "D4",
                "ticks": 7980,
                "time": 20.15152825,
                "velocity": 0.5039370078740157
              },
              {
                "duration": 0.15151525000000277,
                "durationTicks": 60,
                "midi": 64,
                "name": "E4",
                "ticks": 8040,
                "time": 20.303043499999998,
                "velocity": 0.5039370078740157
              },
              {
                "duration": 0.1515152499999992,
                "durationTicks": 60,
                "midi": 66,
                "name": "F#4",
                "ticks": 8100,
                "time": 20.45455875,
                "velocity": 0.5039370078740157
              },
              {
                "duration": 0.1515152499999992,
                "durationTicks": 60,
                "midi": 67,
                "name": "G4",
                "ticks": 8160,
                "time": 20.606074,
                "velocity": 0.5039370078740157
              },
              {
                "duration": 0.1515152499999992,
                "durationTicks": 60,
                "midi": 69,
                "name": "A4",
                "ticks": 8220,
                "time": 20.75758925,
                "velocity": 0.5039370078740157
              },
              {
                "duration": 0.1515152499999992,
                "durationTicks": 60,
                "midi": 70,
                "name": "A#4",
                "ticks": 8280,
                "time": 20.909104499999998,
                "velocity": 0.5039370078740157
              },
              {
                "duration": 0.15151525000000277,
                "durationTicks": 60,
                "midi": 69,
                "name": "A4",
                "ticks": 8340,
                "time": 21.060619749999997,
                "velocity": 0.5039370078740157
              },
              {
                "duration": 0.1515152499999992,
                "durationTicks": 60,
                "midi": 67,
                "name": "G4",
                "ticks": 8400,
                "time": 21.212135,
                "velocity": 0.5039370078740157
              },
              {
                "duration": 0.1515152499999992,
                "durationTicks": 60,
                "midi": 65,
                "name": "F4",
                "ticks": 8460,
                "time": 21.36365025,
                "velocity": 0.5039370078740157
              },
              {
                "duration": 0.1515152499999992,
                "durationTicks": 60,
                "midi": 64,
                "name": "E4",
                "ticks": 8520,
                "time": 21.5151655,
                "velocity": 0.5039370078740157
              },
              {
                "duration": 0.15151525000000277,
                "durationTicks": 60,
                "midi": 62,
                "name": "D4",
                "ticks": 8580,
                "time": 21.666680749999998,
                "velocity": 0.5039370078740157
              },
              {
                "duration": 0.1515152499999992,
                "durationTicks": 60,
                "midi": 70,
                "name": "A#4",
                "ticks": 8640,
                "time": 21.818196,
                "velocity": 0.5039370078740157
              },
              {
                "duration": 0.1515152499999992,
                "durationTicks": 60,
                "midi": 60,
                "name": "C4",
                "ticks": 8700,
                "time": 21.96971125,
                "velocity": 0.5039370078740157
              },
              {
                "duration": 0.1515152499999992,
                "durationTicks": 60,
                "midi": 62,
                "name": "D4",
                "ticks": 8760,
                "time": 22.1212265,
                "velocity": 0.5039370078740157
              },
              {
                "duration": 0.1515152499999992,
                "durationTicks": 60,
                "midi": 64,
                "name": "E4",
                "ticks": 8820,
                "time": 22.272741749999998,
                "velocity": 0.5039370078740157
              },
              {
                "duration": 0.15151525000000277,
                "durationTicks": 60,
                "midi": 65,
                "name": "F4",
                "ticks": 8880,
                "time": 22.424256999999997,
                "velocity": 0.5039370078740157
              },
              {
                "duration": 0.1515152499999992,
                "durationTicks": 60,
                "midi": 67,
                "name": "G4",
                "ticks": 8940,
                "time": 22.57577225,
                "velocity": 0.5039370078740157
              },
              {
                "duration": 0.1515152499999992,
                "durationTicks": 60,
                "midi": 69,
                "name": "A4",
                "ticks": 9000,
                "time": 22.7272875,
                "velocity": 0.5039370078740157
              },
              {
                "duration": 0.1515152499999992,
                "durationTicks": 60,
                "midi": 71,
                "name": "B4",
                "ticks": 9060,
                "time": 22.87880275,
                "velocity": 0.5039370078740157
              },
              {
                "duration": 0.1515152499999992,
                "durationTicks": 60,
                "midi": 72,
                "name": "C5",
                "ticks": 9120,
                "time": 23.030317999999998,
                "velocity": 0.5039370078740157
              },
              {
                "duration": 0.15151525000000277,
                "durationTicks": 60,
                "midi": 74,
                "name": "D5",
                "ticks": 9180,
                "time": 23.181833249999997,
                "velocity": 0.5039370078740157
              },
              {
                "duration": 0.1515152499999992,
                "durationTicks": 60,
                "midi": 76,
                "name": "E5",
                "ticks": 9240,
                "time": 23.3333485,
                "velocity": 0.5039370078740157
              },
              {
                "duration": 0.1515152499999992,
                "durationTicks": 60,
                "midi": 77,
                "name": "F5",
                "ticks": 9300,
                "time": 23.48486375,
                "velocity": 0.5039370078740157
              },
              {
                "duration": 0.1515152499999992,
                "durationTicks": 60,
                "midi": 68,
                "name": "G#4",
                "ticks": 9360,
                "time": 23.636378999999998,
                "velocity": 0.5039370078740157
              },
              {
                "duration": 0.15151525000000277,
                "durationTicks": 60,
                "midi": 77,
                "name": "F5",
                "ticks": 9420,
                "time": 23.787894249999997,
                "velocity": 0.5039370078740157
              },
              {
                "duration": 0.1515152499999992,
                "durationTicks": 60,
                "midi": 76,
                "name": "E5",
                "ticks": 9480,
                "time": 23.9394095,
                "velocity": 0.5039370078740157
              },
              {
                "duration": 0.1515152499999992,
                "durationTicks": 60,
                "midi": 74,
                "name": "D5",
                "ticks": 9540,
                "time": 24.09092475,
                "velocity": 0.5039370078740157
              },
              {
                "duration": 0.1515152499999992,
                "durationTicks": 60,
                "midi": 72,
                "name": "C5",
                "ticks": 9600,
                "time": 24.24244,
                "velocity": 0.5039370078740157
              },
              {
                "duration": 0.1515152499999992,
                "durationTicks": 60,
                "midi": 71,
                "name": "B4",
                "ticks": 9660,
                "time": 24.393955249999998,
                "velocity": 0.5039370078740157
              },
              {
                "duration": 0.15151525000000277,
                "durationTicks": 60,
                "midi": 72,
                "name": "C5",
                "ticks": 9720,
                "time": 24.545470499999997,
                "velocity": 0.5039370078740157
              },
              {
                "duration": 0.1515152499999992,
                "durationTicks": 60,
                "midi": 71,
                "name": "B4",
                "ticks": 9780,
                "time": 24.69698575,
                "velocity": 0.5039370078740157
              },
              {
                "duration": 0.1515152499999992,
                "durationTicks": 60,
                "midi": 74,
                "name": "D5",
                "ticks": 9840,
                "time": 24.848501,
                "velocity": 0.5039370078740157
              },
              {
                "duration": 0.1515152499999992,
                "durationTicks": 60,
                "midi": 72,
                "name": "C5",
                "ticks": 9900,
                "time": 25.000016249999998,
                "velocity": 0.5039370078740157
              },
              {
                "duration": 0.15151525000000277,
                "durationTicks": 60,
                "midi": 71,
                "name": "B4",
                "ticks": 9960,
                "time": 25.151531499999997,
                "velocity": 0.5039370078740157
              },
              {
                "duration": 0.1515152499999992,
                "durationTicks": 60,
                "midi": 69,
                "name": "A4",
                "ticks": 10020,
                "time": 25.30304675,
                "velocity": 0.5039370078740157
              },
              {
                "duration": 0.1515152499999992,
                "durationTicks": 60,
                "midi": 68,
                "name": "G#4",
                "ticks": 10080,
                "time": 25.454562,
                "velocity": 0.5039370078740157
              },
              {
                "duration": 0.1515152499999992,
                "durationTicks": 60,
                "midi": 69,
                "name": "A4",
                "ticks": 10140,
                "time": 25.60607725,
                "velocity": 0.5039370078740157
              },
              {
                "duration": 0.1515152499999992,
                "durationTicks": 60,
                "midi": 68,
                "name": "G#4",
                "ticks": 10200,
                "time": 25.757592499999998,
                "velocity": 0.5039370078740157
              },
              {
                "duration": 0.15151525000000277,
                "durationTicks": 60,
                "midi": 66,
                "name": "F#4",
                "ticks": 10260,
                "time": 25.909107749999997,
                "velocity": 0.5039370078740157
              },
              {
                "duration": 0.1515152499999992,
                "durationTicks": 60,
                "midi": 64,
                "name": "E4",
                "ticks": 10320,
                "time": 26.060623,
                "velocity": 0.5039370078740157
              },
              {
                "duration": 0.1515152499999992,
                "durationTicks": 60,
                "midi": 62,
                "name": "D4",
                "ticks": 10380,
                "time": 26.21213825,
                "velocity": 0.5039370078740157
              },
              {
                "duration": 0.1515152499999992,
                "durationTicks": 60,
                "midi": 60,
                "name": "C4",
                "ticks": 10440,
                "time": 26.363653499999998,
                "velocity": 0.5039370078740157
              },
              {
                "duration": 0.1515152499999992,
                "durationTicks": 60,
                "midi": 62,
                "name": "D4",
                "ticks": 10500,
                "time": 26.515168749999997,
                "velocity": 0.5039370078740157
              },
              {
                "duration": 0.15151525000000277,
                "durationTicks": 60,
                "midi": 64,
                "name": "E4",
                "ticks": 10560,
                "time": 26.666683999999997,
                "velocity": 0.5039370078740157
              },
              {
                "duration": 0.1515152499999992,
                "durationTicks": 60,
                "midi": 66,
                "name": "F#4",
                "ticks": 10620,
                "time": 26.81819925,
                "velocity": 0.5039370078740157
              },
              {
                "duration": 0.1515152499999992,
                "durationTicks": 60,
                "midi": 68,
                "name": "G#4",
                "ticks": 10680,
                "time": 26.9697145,
                "velocity": 0.5039370078740157
              },
              {
                "duration": 0.1515152499999992,
                "durationTicks": 60,
                "midi": 69,
                "name": "A4",
                "ticks": 10740,
                "time": 27.121229749999998,
                "velocity": 0.5039370078740157
              },
              {
                "duration": 0.15151525000000277,
                "durationTicks": 60,
                "midi": 62,
                "name": "D4",
                "ticks": 10800,
                "time": 27.272744999999997,
                "velocity": 0.5039370078740157
              },
              {
                "duration": 0.1515152499999992,
                "durationTicks": 60,
                "midi": 72,
                "name": "C5",
                "ticks": 10860,
                "time": 27.42426025,
                "velocity": 0.5039370078740157
              },
              {
                "duration": 0.1515152499999992,
                "durationTicks": 60,
                "midi": 71,
                "name": "B4",
                "ticks": 10920,
                "time": 27.5757755,
                "velocity": 0.5039370078740157
              },
              {
                "duration": 0.1515152499999992,
                "durationTicks": 60,
                "midi": 69,
                "name": "A4",
                "ticks": 10980,
                "time": 27.727290749999998,
                "velocity": 0.5039370078740157
              },
              {
                "duration": 0.1515152499999992,
                "durationTicks": 60,
                "midi": 68,
                "name": "G#4",
                "ticks": 11040,
                "time": 27.878805999999997,
                "velocity": 0.5039370078740157
              },
              {
                "duration": 0.15151525000000277,
                "durationTicks": 60,
                "midi": 66,
                "name": "F#4",
                "ticks": 11100,
                "time": 28.030321249999997,
                "velocity": 0.5039370078740157
              },
              {
                "duration": 0.1515152499999992,
                "durationTicks": 60,
                "midi": 64,
                "name": "E4",
                "ticks": 11160,
                "time": 28.1818365,
                "velocity": 0.5039370078740157
              },
              {
                "duration": 0.1515152499999992,
                "durationTicks": 60,
                "midi": 66,
                "name": "F#4",
                "ticks": 11220,
                "time": 28.33335175,
                "velocity": 0.5039370078740157
              },
              {
                "duration": 0.1515152499999992,
                "durationTicks": 60,
                "midi": 68,
                "name": "G#4",
                "ticks": 11280,
                "time": 28.484866999999998,
                "velocity": 0.5039370078740157
              },
              {
                "duration": 0.15151525000000277,
                "durationTicks": 60,
                "midi": 69,
                "name": "A4",
                "ticks": 11340,
                "time": 28.636382249999997,
                "velocity": 0.5039370078740157
              },
              {
                "duration": 0.1515152499999992,
                "durationTicks": 60,
                "midi": 71,
                "name": "B4",
                "ticks": 11400,
                "time": 28.7878975,
                "velocity": 0.5039370078740157
              },
              {
                "duration": 0.1515152499999992,
                "durationTicks": 60,
                "midi": 72,
                "name": "C5",
                "ticks": 11460,
                "time": 28.93941275,
                "velocity": 0.5039370078740157
              },
              {
                "duration": 0.1515152499999992,
                "durationTicks": 60,
                "midi": 66,
                "name": "F#4",
                "ticks": 11520,
                "time": 29.090927999999998,
                "velocity": 0.5039370078740157
              },
              {
                "duration": 0.1515152499999992,
                "durationTicks": 60,
                "midi": 76,
                "name": "E5",
                "ticks": 11580,
                "time": 29.242443249999997,
                "velocity": 0.5039370078740157
              },
              {
                "duration": 0.15151525000000277,
                "durationTicks": 60,
                "midi": 74,
                "name": "D5",
                "ticks": 11640,
                "time": 29.393958499999997,
                "velocity": 0.5039370078740157
              },
              {
                "duration": 0.1515152499999992,
                "durationTicks": 60,
                "midi": 72,
                "name": "C5",
                "ticks": 11700,
                "time": 29.54547375,
                "velocity": 0.5039370078740157
              },
              {
                "duration": 0.1515152499999992,
                "durationTicks": 60,
                "midi": 71,
                "name": "B4",
                "ticks": 11760,
                "time": 29.696989,
                "velocity": 0.5039370078740157
              },
              {
                "duration": 0.1515152499999992,
                "durationTicks": 60,
                "midi": 69,
                "name": "A4",
                "ticks": 11820,
                "time": 29.848504249999998,
                "velocity": 0.5039370078740157
              },
              {
                "duration": 0.15151525000000277,
                "durationTicks": 60,
                "midi": 68,
                "name": "G#4",
                "ticks": 11880,
                "time": 30.000019499999997,
                "velocity": 0.5039370078740157
              },
              {
                "duration": 0.1515152499999992,
                "durationTicks": 60,
                "midi": 69,
                "name": "A4",
                "ticks": 11940,
                "time": 30.15153475,
                "velocity": 0.5039370078740157
              },
              {
                "duration": 0.1515152499999992,
                "durationTicks": 60,
                "midi": 71,
                "name": "B4",
                "ticks": 12000,
                "time": 30.30305,
                "velocity": 0.5039370078740157
              },
              {
                "duration": 0.1515152499999992,
                "durationTicks": 60,
                "midi": 72,
                "name": "C5",
                "ticks": 12060,
                "time": 30.454565249999998,
                "velocity": 0.5039370078740157
              },
              {
                "duration": 0.1515152499999992,
                "durationTicks": 60,
                "midi": 74,
                "name": "D5",
                "ticks": 12120,
                "time": 30.606080499999997,
                "velocity": 0.5039370078740157
              },
              {
                "duration": 0.15151525000000277,
                "durationTicks": 60,
                "midi": 76,
                "name": "E5",
                "ticks": 12180,
                "time": 30.757595749999997,
                "velocity": 0.5039370078740157
              },
              {
                "duration": 0.1515152499999992,
                "durationTicks": 60,
                "midi": 69,
                "name": "A4",
                "ticks": 12240,
                "time": 30.909111,
                "velocity": 0.5039370078740157
              },
              {
                "duration": 0.1515152499999992,
                "durationTicks": 60,
                "midi": 77,
                "name": "F5",
                "ticks": 12300,
                "time": 31.06062625,
                "velocity": 0.5039370078740157
              },
              {
                "duration": 0.1515152499999992,
                "durationTicks": 60,
                "midi": 76,
                "name": "E5",
                "ticks": 12360,
                "time": 31.212141499999998,
                "velocity": 0.5039370078740157
              },
              {
                "duration": 0.15151525000000277,
                "durationTicks": 60,
                "midi": 74,
                "name": "D5",
                "ticks": 12420,
                "time": 31.363656749999997,
                "velocity": 0.5039370078740157
              },
              {
                "duration": 0.1515152499999992,
                "durationTicks": 60,
                "midi": 72,
                "name": "C5",
                "ticks": 12480,
                "time": 31.515172,
                "velocity": 0.5039370078740157
              },
              {
                "duration": 0.1515152499999992,
                "durationTicks": 60,
                "midi": 71,
                "name": "B4",
                "ticks": 12540,
                "time": 31.66668725,
                "velocity": 0.5039370078740157
              },
              {
                "duration": 0.1515152499999992,
                "durationTicks": 60,
                "midi": 81,
                "name": "A5",
                "ticks": 12600,
                "time": 31.818202499999998,
                "velocity": 0.5039370078740157
              },
              {
                "duration": 0.1515152499999992,
                "durationTicks": 60,
                "midi": 80,
                "name": "G#5",
                "ticks": 12660,
                "time": 31.969717749999997,
                "velocity": 0.5039370078740157
              },
              {
                "duration": 0.15151525000000277,
                "durationTicks": 60,
                "midi": 78,
                "name": "F#5",
                "ticks": 12720,
                "time": 32.121233,
                "velocity": 0.5039370078740157
              },
              {
                "duration": 0.15151524999999566,
                "durationTicks": 60,
                "midi": 76,
                "name": "E5",
                "ticks": 12780,
                "time": 32.27274825,
                "velocity": 0.5039370078740157
              },
              {
                "duration": 0.4545457500000012,
                "durationTicks": 180,
                "midi": 81,
                "name": "A5",
                "ticks": 12840,
                "time": 32.424263499999995,
                "velocity": 0.5039370078740157
              },
              {
                "duration": 0.15151525000000277,
                "durationTicks": 60,
                "midi": 74,
                "name": "D5",
                "ticks": 13020,
                "time": 32.878809249999996,
                "velocity": 0.5039370078740157
              },
              {
                "duration": 0.07575762500000138,
                "durationTicks": 30,
                "midi": 71,
                "name": "B4",
                "ticks": 13080,
                "time": 33.0303245,
                "velocity": 0.5039370078740157
              },
              {
                "duration": 0.07575762499999428,
                "durationTicks": 30,
                "midi": 72,
                "name": "C5",
                "ticks": 13110,
                "time": 33.106082125,
                "velocity": 0.5039370078740157
              },
              {
                "duration": 0.30303050000000553,
                "durationTicks": 120,
                "midi": 71,
                "name": "B4",
                "ticks": 13140,
                "time": 33.181839749999995,
                "velocity": 0.5039370078740157
              },
              {
                "duration": 0.15151524999999566,
                "durationTicks": 60,
                "midi": 69,
                "name": "A4",
                "ticks": 13260,
                "time": 33.48487025,
                "velocity": 0.5039370078740157
              },
              {
                "duration": 0.4545457500000012,
                "durationTicks": 180,
                "midi": 69,
                "name": "A4",
                "ticks": 13320,
                "time": 33.636385499999996,
                "velocity": 0.5039370078740157
              },
              {
                "duration": 0.15151525000000277,
                "durationTicks": 60,
                "midi": 69,
                "name": "A4",
                "ticks": 13500,
                "time": 34.09093125,
                "velocity": 0.5039370078740157
              },
              {
                "duration": 0.15151524999999566,
                "durationTicks": 60,
                "midi": 70,
                "name": "A#4",
                "ticks": 13560,
                "time": 34.2424465,
                "velocity": 0.5039370078740157
              },
              {
                "duration": 0.15151525000000277,
                "durationTicks": 60,
                "midi": 72,
                "name": "C5",
                "ticks": 13620,
                "time": 34.393961749999995,
                "velocity": 0.5039370078740157
              },
              {
                "duration": 0.3030304999999984,
                "durationTicks": 120,
                "midi": 62,
                "name": "D4",
                "ticks": 13680,
                "time": 34.545477,
                "velocity": 0.5039370078740157
              },
              {
                "duration": 0.3030304999999984,
                "durationTicks": 120,
                "midi": 66,
                "name": "F#4",
                "ticks": 13800,
                "time": 34.8485075,
                "velocity": 0.5039370078740157
              },
              {
                "duration": 0.30303050000000553,
                "durationTicks": 120,
                "midi": 69,
                "name": "A4",
                "ticks": 13920,
                "time": 35.151537999999995,
                "velocity": 0.5039370078740157
              },
              {
                "duration": 0.15151524999999566,
                "durationTicks": 60,
                "midi": 70,
                "name": "A#4",
                "ticks": 14040,
                "time": 35.4545685,
                "velocity": 0.5039370078740157
              },
              {
                "duration": 0.15151525000000277,
                "durationTicks": 60,
                "midi": 67,
                "name": "G4",
                "ticks": 14100,
                "time": 35.606083749999996,
                "velocity": 0.5039370078740157
              },
              {
                "duration": 0.15151524999999566,
                "durationTicks": 60,
                "midi": 69,
                "name": "A4",
                "ticks": 14160,
                "time": 35.757599,
                "velocity": 0.5039370078740157
              },
              {
                "duration": 0.15151525000000277,
                "durationTicks": 60,
                "midi": 70,
                "name": "A#4",
                "ticks": 14220,
                "time": 35.909114249999995,
                "velocity": 0.5039370078740157
              },
              {
                "duration": 0.15151525000000277,
                "durationTicks": 60,
                "midi": 72,
                "name": "C5",
                "ticks": 14280,
                "time": 36.0606295,
                "velocity": 0.5039370078740157
              },
              {
                "duration": 0.15151524999999566,
                "durationTicks": 60,
                "midi": 74,
                "name": "D5",
                "ticks": 14340,
                "time": 36.21214475,
                "velocity": 0.5039370078740157
              },
              {
                "duration": 0.15151525000000277,
                "durationTicks": 60,
                "midi": 64,
                "name": "E4",
                "ticks": 14400,
                "time": 36.363659999999996,
                "velocity": 0.5039370078740157
              },
              {
                "duration": 0.15151524999999566,
                "durationTicks": 60,
                "midi": 74,
                "name": "D5",
                "ticks": 14460,
                "time": 36.51517525,
                "velocity": 0.5039370078740157
              },
              {
                "duration": 0.15151525000000277,
                "durationTicks": 60,
                "midi": 72,
                "name": "C5",
                "ticks": 14520,
                "time": 36.666690499999994,
                "velocity": 0.5039370078740157
              },
              {
                "duration": 0.15151525000000277,
                "durationTicks": 60,
                "midi": 70,
                "name": "A#4",
                "ticks": 14580,
                "time": 36.81820575,
                "velocity": 0.5039370078740157
              },
              {
                "duration": 0.15151524999999566,
                "durationTicks": 60,
                "midi": 69,
                "name": "A4",
                "ticks": 14640,
                "time": 36.969721,
                "velocity": 0.5039370078740157
              },
              {
                "duration": 0.15151525000000277,
                "durationTicks": 60,
                "midi": 67,
                "name": "G4",
                "ticks": 14700,
                "time": 37.121236249999995,
                "velocity": 0.5039370078740157
              },
              {
                "duration": 0.3030304999999984,
                "durationTicks": 120,
                "midi": 69,
                "name": "A4",
                "ticks": 14760,
                "time": 37.2727515,
                "velocity": 0.5039370078740157
              },
              {
                "duration": 0.15151525000000277,
                "durationTicks": 60,
                "midi": 77,
                "name": "F5",
                "ticks": 14880,
                "time": 37.575782,
                "velocity": 0.5039370078740157
              },
              {
                "duration": 0.15151524999999566,
                "durationTicks": 60,
                "midi": 76,
                "name": "E5",
                "ticks": 14940,
                "time": 37.72729725,
                "velocity": 0.5039370078740157
              },
              {
                "duration": 0.30303050000000553,
                "durationTicks": 120,
                "midi": 77,
                "name": "F5",
                "ticks": 15000,
                "time": 37.878812499999995,
                "velocity": 0.5039370078740157
              },
              {
                "duration": 0.3030304999999984,
                "durationTicks": 120,
                "midi": 67,
                "name": "G4",
                "ticks": 15120,
                "time": 38.181843,
                "velocity": 0.5039370078740157
              },
              {
                "duration": 0.3030304999999984,
                "durationTicks": 120,
                "midi": 76,
                "name": "E5",
                "ticks": 15240,
                "time": 38.4848735,
                "velocity": 0.5039370078740157
              },
              {
                "duration": 0.15151525000000277,
                "durationTicks": 60,
                "midi": 74,
                "name": "D5",
                "ticks": 15480,
                "time": 39.090934499999996,
                "velocity": 0.5039370078740157
              },
              {
                "duration": 0.15151524999999566,
                "durationTicks": 60,
                "midi": 76,
                "name": "E5",
                "ticks": 15540,
                "time": 39.24244975,
                "velocity": 0.5039370078740157
              },
              {
                "duration": 0.15151525000000277,
                "durationTicks": 60,
                "midi": 77,
                "name": "F5",
                "ticks": 15600,
                "time": 39.393964999999994,
                "velocity": 0.5039370078740157
              },
              {
                "duration": 0.15151525000000277,
                "durationTicks": 60,
                "midi": 79,
                "name": "G5",
                "ticks": 15660,
                "time": 39.54548025,
                "velocity": 0.5039370078740157
              },
              {
                "duration": 0.15151524999999566,
                "durationTicks": 60,
                "midi": 81,
                "name": "A5",
                "ticks": 15720,
                "time": 39.6969955,
                "velocity": 0.5039370078740157
              },
              {
                "duration": 0.15151525000000277,
                "durationTicks": 60,
                "midi": 82,
                "name": "A#5",
                "ticks": 15780,
                "time": 39.848510749999996,
                "velocity": 0.5039370078740157
              },
              {
                "duration": 0.15151524999999566,
                "durationTicks": 60,
                "midi": 73,
                "name": "C#5",
                "ticks": 15840,
                "time": 40.000026,
                "velocity": 0.5039370078740157
              },
              {
                "duration": 0.15151525000000277,
                "durationTicks": 60,
                "midi": 82,
                "name": "A#5",
                "ticks": 15900,
                "time": 40.151541249999994,
                "velocity": 0.5039370078740157
              },
              {
                "duration": 0.15151525000000277,
                "durationTicks": 60,
                "midi": 81,
                "name": "A5",
                "ticks": 15960,
                "time": 40.3030565,
                "velocity": 0.5039370078740157
              },
              {
                "duration": 0.15151524999999566,
                "durationTicks": 60,
                "midi": 79,
                "name": "G5",
                "ticks": 16020,
                "time": 40.45457175,
                "velocity": 0.5039370078740157
              },
              {
                "duration": 0.15151525000000277,
                "durationTicks": 60,
                "midi": 77,
                "name": "F5",
                "ticks": 16080,
                "time": 40.606086999999995,
                "velocity": 0.5039370078740157
              },
              {
                "duration": 0.15151525000000277,
                "durationTicks": 60,
                "midi": 76,
                "name": "E5",
                "ticks": 16140,
                "time": 40.75760225,
                "velocity": 0.5039370078740157
              },
              {
                "duration": 0.3030304999999984,
                "durationTicks": 120,
                "midi": 77,
                "name": "F5",
                "ticks": 16200,
                "time": 40.9091175,
                "velocity": 0.5039370078740157
              },
              {
                "duration": 0.3030304999999984,
                "durationTicks": 120,
                "midi": 74,
                "name": "D5",
                "ticks": 16320,
                "time": 41.212148,
                "velocity": 0.5039370078740157
              },
              {
                "duration": 0.4545457500000012,
                "durationTicks": 180,
                "midi": 67,
                "name": "G4",
                "ticks": 16440,
                "time": 41.5151785,
                "velocity": 0.5039370078740157
              },
              {
                "duration": 0.15151524999999566,
                "durationTicks": 60,
                "midi": 74,
                "name": "D5",
                "ticks": 16620,
                "time": 41.96972425,
                "velocity": 0.5039370078740157
              },
              {
                "duration": 0.15151525000000277,
                "durationTicks": 60,
                "midi": 73,
                "name": "C#5",
                "ticks": 16680,
                "time": 42.121239499999994,
                "velocity": 0.5039370078740157
              },
              {
                "duration": 0.15151525000000277,
                "durationTicks": 60,
                "midi": 76,
                "name": "E5",
                "ticks": 16740,
                "time": 42.27275475,
                "velocity": 0.5039370078740157
              },
              {
                "duration": 0.15151524999999566,
                "durationTicks": 60,
                "midi": 69,
                "name": "A4",
                "ticks": 16800,
                "time": 42.42427,
                "velocity": 0.5039370078740157
              },
              {
                "duration": 0.15151525000000277,
                "durationTicks": 60,
                "midi": 73,
                "name": "C#5",
                "ticks": 16860,
                "time": 42.575785249999996,
                "velocity": 0.5039370078740157
              },
              {
                "duration": 0.15151524999999566,
                "durationTicks": 60,
                "midi": 74,
                "name": "D5",
                "ticks": 16920,
                "time": 42.7273005,
                "velocity": 0.5039370078740157
              },
              {
                "duration": 0.15151525000000277,
                "durationTicks": 60,
                "midi": 71,
                "name": "B4",
                "ticks": 16980,
                "time": 42.878815749999994,
                "velocity": 0.5039370078740157
              },
              {
                "duration": 0.4545457500000012,
                "durationTicks": 180,
                "midi": 73,
                "name": "C#5",
                "ticks": 17040,
                "time": 43.030331,
                "velocity": 0.5039370078740157
              },
              {
                "duration": 0.15151525000000277,
                "durationTicks": 60,
                "midi": 74,
                "name": "D5",
                "ticks": 17220,
                "time": 43.48487675,
                "velocity": 0.5039370078740157
              },
              {
                "duration": 0.15151524999999566,
                "durationTicks": 60,
                "midi": 74,
                "name": "D5",
                "ticks": 17280,
                "time": 43.636392,
                "velocity": 0.5039370078740157
              },
              {
                "duration": 0.15151525000000277,
                "durationTicks": 60,
                "midi": 72,
                "name": "C5",
                "ticks": 17340,
                "time": 43.787907249999996,
                "velocity": 0.5039370078740157
              },
              {
                "duration": 0.15151524999999566,
                "durationTicks": 60,
                "midi": 70,
                "name": "A#4",
                "ticks": 17400,
                "time": 43.9394225,
                "velocity": 0.5039370078740157
              },
              {
                "duration": 0.15151525000000277,
                "durationTicks": 60,
                "midi": 69,
                "name": "A4",
                "ticks": 17460,
                "time": 44.090937749999995,
                "velocity": 0.5039370078740157
              },
              {
                "duration": 0.15151525000000277,
                "durationTicks": 60,
                "midi": 67,
                "name": "G4",
                "ticks": 17520,
                "time": 44.242453,
                "velocity": 0.5039370078740157
              },
              {
                "duration": 0.15151524999999566,
                "durationTicks": 60,
                "midi": 65,
                "name": "F4",
                "ticks": 17580,
                "time": 44.39396825,
                "velocity": 0.5039370078740157
              },
              {
                "duration": 0.15151525000000277,
                "durationTicks": 60,
                "midi": 70,
                "name": "A#4",
                "ticks": 17640,
                "time": 44.545483499999996,
                "velocity": 0.5039370078740157
              },
              {
                "duration": 0.15151524999999566,
                "durationTicks": 60,
                "midi": 61,
                "name": "C#4",
                "ticks": 17700,
                "time": 44.69699875,
                "velocity": 0.5039370078740157
              },
              {
                "duration": 0.15151525000000277,
                "durationTicks": 60,
                "midi": 62,
                "name": "D4",
                "ticks": 17760,
                "time": 44.848513999999994,
                "velocity": 0.5039370078740157
              },
              {
                "duration": 0.15151525000000277,
                "durationTicks": 60,
                "midi": 64,
                "name": "E4",
                "ticks": 17820,
                "time": 45.00002925,
                "velocity": 0.5039370078740157
              },
              {
                "duration": 0.15151524999999566,
                "durationTicks": 60,
                "midi": 65,
                "name": "F4",
                "ticks": 17880,
                "time": 45.1515445,
                "velocity": 0.5039370078740157
              },
              {
                "duration": 0.15151525000000277,
                "durationTicks": 60,
                "midi": 67,
                "name": "G4",
                "ticks": 17940,
                "time": 45.303059749999996,
                "velocity": 0.5039370078740157
              },
              {
                "duration": 0.15151524999999566,
                "durationTicks": 60,
                "midi": 69,
                "name": "A4",
                "ticks": 18000,
                "time": 45.454575,
                "velocity": 0.5039370078740157
              },
              {
                "duration": 0.15151525000000277,
                "durationTicks": 60,
                "midi": 74,
                "name": "D5",
                "ticks": 18060,
                "time": 45.606090249999994,
                "velocity": 0.5039370078740157
              },
              {
                "duration": 0.3030304999999984,
                "durationTicks": 120,
                "midi": 65,
                "name": "F4",
                "ticks": 18120,
                "time": 45.7576055,
                "velocity": 0.5039370078740157
              },
              {
                "duration": 0.15151525000000277,
                "durationTicks": 60,
                "midi": 64,
                "name": "E4",
                "ticks": 18240,
                "time": 46.060635999999995,
                "velocity": 0.5039370078740157
              },
              {
                "duration": 0.15151524999999566,
                "durationTicks": 60,
                "midi": 62,
                "name": "D4",
                "ticks": 18300,
                "time": 46.21215125,
                "velocity": 0.5039370078740157
              },
              {
                "duration": 1.8181830000000048,
                "durationTicks": 720,
                "midi": 62,
                "name": "D4",
                "ticks": 18360,
                "time": 46.363666499999994,
                "velocity": 0.5039370078740157
              }
            ],
            "endOfTrackTicks": 19080
          },
          {
            "channel": 1,
            "controlChanges": {},
            "pitchBends": [],
            "instrument": {
              "family": "piano",
              "number": 0,
              "name": "acoustic grand piano"
            },
            "name": "",
            "notes": [
              {
                "duration": 0.1515152500000001,
                "durationTicks": 60,
                "midi": 50,
                "name": "D3",
                "ticks": 720,
                "time": 1.8181829999999999,
                "velocity": 0.5039370078740157
              },
              {
                "duration": 0.15151524999999966,
                "durationTicks": 60,
                "midi": 52,
                "name": "E3",
                "ticks": 780,
                "time": 1.96969825,
                "velocity": 0.5039370078740157
              },
              {
                "duration": 0.1515152500000001,
                "durationTicks": 60,
                "midi": 53,
                "name": "F3",
                "ticks": 840,
                "time": 2.1212134999999996,
                "velocity": 0.5039370078740157
              },
              {
                "duration": 0.1515152500000001,
                "durationTicks": 60,
                "midi": 55,
                "name": "G3",
                "ticks": 900,
                "time": 2.2727287499999997,
                "velocity": 0.5039370078740157
              },
              {
                "duration": 0.1515152500000001,
                "durationTicks": 60,
                "midi": 57,
                "name": "A3",
                "ticks": 960,
                "time": 2.424244,
                "velocity": 0.5039370078740157
              },
              {
                "duration": 0.1515152500000001,
                "durationTicks": 60,
                "midi": 58,
                "name": "A#3",
                "ticks": 1020,
                "time": 2.57575925,
                "velocity": 0.5039370078740157
              },
              {
                "duration": 0.15151524999999966,
                "durationTicks": 60,
                "midi": 49,
                "name": "C#3",
                "ticks": 1080,
                "time": 2.7272745,
                "velocity": 0.5039370078740157
              },
              {
                "duration": 0.1515152500000001,
                "durationTicks": 60,
                "midi": 58,
                "name": "A#3",
                "ticks": 1140,
                "time": 2.8787897499999997,
                "velocity": 0.5039370078740157
              },
              {
                "duration": 0.1515152500000001,
                "durationTicks": 60,
                "midi": 57,
                "name": "A3",
                "ticks": 1200,
                "time": 3.030305,
                "velocity": 0.5039370078740157
              },
              {
                "duration": 0.15151524999999966,
                "durationTicks": 60,
                "midi": 55,
                "name": "G3",
                "ticks": 1260,
                "time": 3.18182025,
                "velocity": 0.5039370078740157
              },
              {
                "duration": 0.1515152500000001,
                "durationTicks": 60,
                "midi": 53,
                "name": "F3",
                "ticks": 1320,
                "time": 3.3333354999999996,
                "velocity": 0.5039370078740157
              },
              {
                "duration": 0.1515152500000001,
                "durationTicks": 60,
                "midi": 52,
                "name": "E3",
                "ticks": 1380,
                "time": 3.4848507499999997,
                "velocity": 0.5039370078740157
              },
              {
                "duration": 0.3030305000000002,
                "durationTicks": 120,
                "midi": 53,
                "name": "F3",
                "ticks": 1440,
                "time": 3.6363659999999998,
                "velocity": 0.5039370078740157
              },
              {
                "duration": 0.3030304999999993,
                "durationTicks": 120,
                "midi": 57,
                "name": "A3",
                "ticks": 1560,
                "time": 3.9393965,
                "velocity": 0.5039370078740157
              },
              {
                "duration": 0.3030305000000002,
                "durationTicks": 120,
                "midi": 62,
                "name": "D4",
                "ticks": 1680,
                "time": 4.242426999999999,
                "velocity": 0.5039370078740157
              },
              {
                "duration": 0.3030305000000002,
                "durationTicks": 120,
                "midi": 52,
                "name": "E3",
                "ticks": 1800,
                "time": 4.5454574999999995,
                "velocity": 0.5039370078740157
              },
              {
                "duration": 0.3030305000000002,
                "durationTicks": 120,
                "midi": 55,
                "name": "G3",
                "ticks": 1920,
                "time": 4.848488,
                "velocity": 0.5039370078740157
              },
              {
                "duration": 0.3030305000000002,
                "durationTicks": 120,
                "midi": 61,
                "name": "C#4",
                "ticks": 2040,
                "time": 5.1515185,
                "velocity": 0.5039370078740157
              },
              {
                "duration": 0.3030304999999993,
                "durationTicks": 120,
                "midi": 50,
                "name": "D3",
                "ticks": 2160,
                "time": 5.454549,
                "velocity": 0.5039370078740157
              },
              {
                "duration": 0.3030305000000002,
                "durationTicks": 120,
                "midi": 62,
                "name": "D4",
                "ticks": 2280,
                "time": 5.757579499999999,
                "velocity": 0.5039370078740157
              },
              {
                "duration": 0.3030305000000002,
                "durationTicks": 120,
                "midi": 53,
                "name": "F3",
                "ticks": 2400,
                "time": 6.06061,
                "velocity": 0.5039370078740157
              },
              {
                "duration": 0.3030304999999993,
                "durationTicks": 120,
                "midi": 55,
                "name": "G3",
                "ticks": 2520,
                "time": 6.3636405,
                "velocity": 0.5039370078740157
              },
              {
                "duration": 0.3030305000000002,
                "durationTicks": 120,
                "midi": 57,
                "name": "A3",
                "ticks": 2640,
                "time": 6.666670999999999,
                "velocity": 0.5039370078740157
              },
              {
                "duration": 0.3030305000000002,
                "durationTicks": 120,
                "midi": 58,
                "name": "A#3",
                "ticks": 2760,
                "time": 6.969701499999999,
                "velocity": 0.5039370078740157
              },
              {
                "duration": 0.3030305000000002,
                "durationTicks": 120,
                "midi": 48,
                "name": "C3",
                "ticks": 2880,
                "time": 7.2727319999999995,
                "velocity": 0.5039370078740157
              },
              {
                "duration": 0.3030305000000002,
                "durationTicks": 120,
                "midi": 60,
                "name": "C4",
                "ticks": 3000,
                "time": 7.5757625,
                "velocity": 0.5039370078740157
              },
              {
                "duration": 0.3030305000000002,
                "durationTicks": 120,
                "midi": 52,
                "name": "E3",
                "ticks": 3120,
                "time": 7.878793,
                "velocity": 0.5039370078740157
              },
              {
                "duration": 0.3030304999999984,
                "durationTicks": 120,
                "midi": 53,
                "name": "F3",
                "ticks": 3240,
                "time": 8.1818235,
                "velocity": 0.5039370078740157
              },
              {
                "duration": 0.3030305000000002,
                "durationTicks": 120,
                "midi": 55,
                "name": "G3",
                "ticks": 3360,
                "time": 8.484853999999999,
                "velocity": 0.5039370078740157
              },
              {
                "duration": 0.3030305000000002,
                "durationTicks": 120,
                "midi": 57,
                "name": "A3",
                "ticks": 3480,
                "time": 8.787884499999999,
                "velocity": 0.5039370078740157
              },
              {
                "duration": 0.151515250000001,
                "durationTicks": 60,
                "midi": 58,
                "name": "A#3",
                "ticks": 3600,
                "time": 9.090914999999999,
                "velocity": 0.5039370078740157
              },
              {
                "duration": 0.1515152499999992,
                "durationTicks": 60,
                "midi": 55,
                "name": "G3",
                "ticks": 3660,
                "time": 9.24243025,
                "velocity": 0.5039370078740157
              },
              {
                "duration": 0.151515250000001,
                "durationTicks": 60,
                "midi": 57,
                "name": "A3",
                "ticks": 3720,
                "time": 9.3939455,
                "velocity": 0.5039370078740157
              },
              {
                "duration": 0.1515152499999992,
                "durationTicks": 60,
                "midi": 58,
                "name": "A#3",
                "ticks": 3780,
                "time": 9.54546075,
                "velocity": 0.5039370078740157
              },
              {
                "duration": 0.1515152499999992,
                "durationTicks": 60,
                "midi": 60,
                "name": "C4",
                "ticks": 3840,
                "time": 9.696976,
                "velocity": 0.5039370078740157
              },
              {
                "duration": 0.151515250000001,
                "durationTicks": 60,
                "midi": 62,
                "name": "D4",
                "ticks": 3900,
                "time": 9.848491249999999,
                "velocity": 0.5039370078740157
              },
              {
                "duration": 0.1515152499999992,
                "durationTicks": 60,
                "midi": 52,
                "name": "E3",
                "ticks": 3960,
                "time": 10.0000065,
                "velocity": 0.5039370078740157
              },
              {
                "duration": 0.151515250000001,
                "durationTicks": 60,
                "midi": 62,
                "name": "D4",
                "ticks": 4020,
                "time": 10.151521749999999,
                "velocity": 0.5039370078740157
              },
              {
                "duration": 0.1515152499999992,
                "durationTicks": 60,
                "midi": 60,
                "name": "C4",
                "ticks": 4080,
                "time": 10.303037,
                "velocity": 0.5039370078740157
              },
              {
                "duration": 0.151515250000001,
                "durationTicks": 60,
                "midi": 58,
                "name": "A#3",
                "ticks": 4140,
                "time": 10.454552249999999,
                "velocity": 0.5039370078740157
              },
              {
                "duration": 0.1515152499999992,
                "durationTicks": 60,
                "midi": 57,
                "name": "A3",
                "ticks": 4200,
                "time": 10.6060675,
                "velocity": 0.5039370078740157
              },
              {
                "duration": 0.151515250000001,
                "durationTicks": 60,
                "midi": 55,
                "name": "G3",
                "ticks": 4260,
                "time": 10.75758275,
                "velocity": 0.5039370078740157
              },
              {
                "duration": 0.1515152499999992,
                "durationTicks": 60,
                "midi": 57,
                "name": "A3",
                "ticks": 4320,
                "time": 10.909098,
                "velocity": 0.5039370078740157
              },
              {
                "duration": 0.1515152499999992,
                "durationTicks": 60,
                "midi": 53,
                "name": "F3",
                "ticks": 4380,
                "time": 11.06061325,
                "velocity": 0.5039370078740157
              },
              {
                "duration": 0.151515250000001,
                "durationTicks": 60,
                "midi": 55,
                "name": "G3",
                "ticks": 4440,
                "time": 11.212128499999999,
                "velocity": 0.5039370078740157
              },
              {
                "duration": 0.1515152499999992,
                "durationTicks": 60,
                "midi": 57,
                "name": "A3",
                "ticks": 4500,
                "time": 11.36364375,
                "velocity": 0.5039370078740157
              },
              {
                "duration": 0.151515250000001,
                "durationTicks": 60,
                "midi": 58,
                "name": "A#3",
                "ticks": 4560,
                "time": 11.515158999999999,
                "velocity": 0.5039370078740157
              },
              {
                "duration": 0.1515152499999992,
                "durationTicks": 60,
                "midi": 60,
                "name": "C4",
                "ticks": 4620,
                "time": 11.66667425,
                "velocity": 0.5039370078740157
              },
              {
                "duration": 0.151515250000001,
                "durationTicks": 60,
                "midi": 50,
                "name": "D3",
                "ticks": 4680,
                "time": 11.818189499999999,
                "velocity": 0.5039370078740157
              },
              {
                "duration": 0.1515152499999992,
                "durationTicks": 60,
                "midi": 60,
                "name": "C4",
                "ticks": 4740,
                "time": 11.96970475,
                "velocity": 0.5039370078740157
              },
              {
                "duration": 0.1515152499999992,
                "durationTicks": 60,
                "midi": 58,
                "name": "A#3",
                "ticks": 4800,
                "time": 12.12122,
                "velocity": 0.5039370078740157
              },
              {
                "duration": 0.151515250000001,
                "durationTicks": 60,
                "midi": 57,
                "name": "A3",
                "ticks": 4860,
                "time": 12.272735249999998,
                "velocity": 0.5039370078740157
              },
              {
                "duration": 0.1515152499999992,
                "durationTicks": 60,
                "midi": 55,
                "name": "G3",
                "ticks": 4920,
                "time": 12.4242505,
                "velocity": 0.5039370078740157
              },
              {
                "duration": 0.151515250000001,
                "durationTicks": 60,
                "midi": 53,
                "name": "F3",
                "ticks": 4980,
                "time": 12.575765749999999,
                "velocity": 0.5039370078740157
              },
              {
                "duration": 0.1515152499999992,
                "durationTicks": 60,
                "midi": 52,
                "name": "E3",
                "ticks": 5040,
                "time": 12.727281,
                "velocity": 0.5039370078740157
              },
              {
                "duration": 0.151515250000001,
                "durationTicks": 60,
                "midi": 48,
                "name": "C3",
                "ticks": 5100,
                "time": 12.878796249999999,
                "velocity": 0.5039370078740157
              },
              {
                "duration": 0.1515152499999992,
                "durationTicks": 60,
                "midi": 50,
                "name": "D3",
                "ticks": 5160,
                "time": 13.0303115,
                "velocity": 0.5039370078740157
              },
              {
                "duration": 0.1515152499999992,
                "durationTicks": 60,
                "midi": 52,
                "name": "E3",
                "ticks": 5220,
                "time": 13.181826749999999,
                "velocity": 0.5039370078740157
              },
              {
                "duration": 0.151515250000001,
                "durationTicks": 60,
                "midi": 53,
                "name": "F3",
                "ticks": 5280,
                "time": 13.333341999999998,
                "velocity": 0.5039370078740157
              },
              {
                "duration": 0.1515152499999992,
                "durationTicks": 60,
                "midi": 55,
                "name": "G3",
                "ticks": 5340,
                "time": 13.48485725,
                "velocity": 0.5039370078740157
              },
              {
                "duration": 0.151515250000001,
                "durationTicks": 60,
                "midi": 45,
                "name": "A2",
                "ticks": 5400,
                "time": 13.636372499999998,
                "velocity": 0.5039370078740157
              },
              {
                "duration": 0.1515152499999992,
                "durationTicks": 60,
                "midi": 55,
                "name": "G3",
                "ticks": 5460,
                "time": 13.78788775,
                "velocity": 0.5039370078740157
              },
              {
                "duration": 0.151515250000001,
                "durationTicks": 60,
                "midi": 53,
                "name": "F3",
                "ticks": 5520,
                "time": 13.939402999999999,
                "velocity": 0.5039370078740157
              },
              {
                "duration": 0.1515152499999992,
                "durationTicks": 60,
                "midi": 52,
                "name": "E3",
                "ticks": 5580,
                "time": 14.09091825,
                "velocity": 0.5039370078740157
              },
              {
                "duration": 0.151515250000001,
                "durationTicks": 60,
                "midi": 50,
                "name": "D3",
                "ticks": 5640,
                "time": 14.242433499999999,
                "velocity": 0.5039370078740157
              },
              {
                "duration": 0.1515152499999992,
                "durationTicks": 60,
                "midi": 48,
                "name": "C3",
                "ticks": 5700,
                "time": 14.39394875,
                "velocity": 0.5039370078740157
              },
              {
                "duration": 0.1515152499999992,
                "durationTicks": 60,
                "midi": 50,
                "name": "D3",
                "ticks": 5760,
                "time": 14.545463999999999,
                "velocity": 0.5039370078740157
              },
              {
                "duration": 0.151515250000001,
                "durationTicks": 60,
                "midi": 46,
                "name": "A#2",
                "ticks": 5820,
                "time": 14.696979249999998,
                "velocity": 0.5039370078740157
              },
              {
                "duration": 0.3030305000000002,
                "durationTicks": 120,
                "midi": 48,
                "name": "C3",
                "ticks": 5880,
                "time": 14.8484945,
                "velocity": 0.5039370078740157
              },
              {
                "duration": 0.3030305000000002,
                "durationTicks": 120,
                "midi": 36,
                "name": "C2",
                "ticks": 6000,
                "time": 15.151525,
                "velocity": 0.5039370078740157
              },
              {
                "duration": 0.1515152499999992,
                "durationTicks": 60,
                "midi": 41,
                "name": "F2",
                "ticks": 6120,
                "time": 15.4545555,
                "velocity": 0.5039370078740157
              },
              {
                "duration": 0.151515250000001,
                "durationTicks": 60,
                "midi": 43,
                "name": "G2",
                "ticks": 6180,
                "time": 15.606070749999999,
                "velocity": 0.5039370078740157
              },
              {
                "duration": 0.1515152499999992,
                "durationTicks": 60,
                "midi": 45,
                "name": "A2",
                "ticks": 6240,
                "time": 15.757586,
                "velocity": 0.5039370078740157
              },
              {
                "duration": 0.1515152499999992,
                "durationTicks": 60,
                "midi": 46,
                "name": "A#2",
                "ticks": 6300,
                "time": 15.909101249999999,
                "velocity": 0.5039370078740157
              },
              {
                "duration": 0.1515152499999992,
                "durationTicks": 60,
                "midi": 48,
                "name": "C3",
                "ticks": 6360,
                "time": 16.0606165,
                "velocity": 0.5039370078740157
              },
              {
                "duration": 0.15151525000000277,
                "durationTicks": 60,
                "midi": 50,
                "name": "D3",
                "ticks": 6420,
                "time": 16.212131749999998,
                "velocity": 0.5039370078740157
              },
              {
                "duration": 0.1515152499999992,
                "durationTicks": 60,
                "midi": 40,
                "name": "E2",
                "ticks": 6480,
                "time": 16.363647,
                "velocity": 0.5039370078740157
              },
              {
                "duration": 0.1515152499999992,
                "durationTicks": 60,
                "midi": 50,
                "name": "D3",
                "ticks": 6540,
                "time": 16.51516225,
                "velocity": 0.5039370078740157
              },
              {
                "duration": 0.1515152499999992,
                "durationTicks": 60,
                "midi": 48,
                "name": "C3",
                "ticks": 6600,
                "time": 16.6666775,
                "velocity": 0.5039370078740157
              },
              {
                "duration": 0.1515152499999992,
                "durationTicks": 60,
                "midi": 46,
                "name": "A#2",
                "ticks": 6660,
                "time": 16.818192749999998,
                "velocity": 0.5039370078740157
              },
              {
                "duration": 0.15151525000000277,
                "durationTicks": 60,
                "midi": 45,
                "name": "A2",
                "ticks": 6720,
                "time": 16.969707999999997,
                "velocity": 0.5039370078740157
              },
              {
                "duration": 0.1515152499999992,
                "durationTicks": 60,
                "midi": 43,
                "name": "G2",
                "ticks": 6780,
                "time": 17.12122325,
                "velocity": 0.5039370078740157
              },
              {
                "duration": 0.1515152499999992,
                "durationTicks": 60,
                "midi": 45,
                "name": "A2",
                "ticks": 6840,
                "time": 17.2727385,
                "velocity": 0.5039370078740157
              },
              {
                "duration": 0.1515152499999992,
                "durationTicks": 60,
                "midi": 46,
                "name": "A#2",
                "ticks": 6900,
                "time": 17.42425375,
                "velocity": 0.5039370078740157
              },
              {
                "duration": 0.15151525000000277,
                "durationTicks": 60,
                "midi": 48,
                "name": "C3",
                "ticks": 6960,
                "time": 17.575768999999998,
                "velocity": 0.5039370078740157
              },
              {
                "duration": 0.1515152499999992,
                "durationTicks": 60,
                "midi": 50,
                "name": "D3",
                "ticks": 7020,
                "time": 17.72728425,
                "velocity": 0.5039370078740157
              },
              {
                "duration": 0.1515152499999992,
                "durationTicks": 60,
                "midi": 52,
                "name": "E3",
                "ticks": 7080,
                "time": 17.8787995,
                "velocity": 0.5039370078740157
              },
              {
                "duration": 0.1515152499999992,
                "durationTicks": 60,
                "midi": 53,
                "name": "F3",
                "ticks": 7140,
                "time": 18.03031475,
                "velocity": 0.5039370078740157
              },
              {
                "duration": 0.1515152499999992,
                "durationTicks": 60,
                "midi": 43,
                "name": "G2",
                "ticks": 7200,
                "time": 18.181829999999998,
                "velocity": 0.5039370078740157
              },
              {
                "duration": 0.15151525000000277,
                "durationTicks": 60,
                "midi": 53,
                "name": "F3",
                "ticks": 7260,
                "time": 18.333345249999997,
                "velocity": 0.5039370078740157
              },
              {
                "duration": 0.1515152499999992,
                "durationTicks": 60,
                "midi": 52,
                "name": "E3",
                "ticks": 7320,
                "time": 18.4848605,
                "velocity": 0.5039370078740157
              },
              {
                "duration": 0.1515152499999992,
                "durationTicks": 60,
                "midi": 50,
                "name": "D3",
                "ticks": 7380,
                "time": 18.63637575,
                "velocity": 0.5039370078740157
              },
              {
                "duration": 0.1515152499999992,
                "durationTicks": 60,
                "midi": 48,
                "name": "C3",
                "ticks": 7440,
                "time": 18.787891,
                "velocity": 0.5039370078740157
              },
              {
                "duration": 0.15151525000000277,
                "durationTicks": 60,
                "midi": 46,
                "name": "A#2",
                "ticks": 7500,
                "time": 18.939406249999998,
                "velocity": 0.5039370078740157
              },
              {
                "duration": 0.1515152499999992,
                "durationTicks": 60,
                "midi": 45,
                "name": "A2",
                "ticks": 7560,
                "time": 19.0909215,
                "velocity": 0.5039370078740157
              },
              {
                "duration": 0.1515152499999992,
                "durationTicks": 60,
                "midi": 46,
                "name": "A#2",
                "ticks": 7620,
                "time": 19.24243675,
                "velocity": 0.5039370078740157
              },
              {
                "duration": 0.1515152499999992,
                "durationTicks": 60,
                "midi": 48,
                "name": "C3",
                "ticks": 7680,
                "time": 19.393952,
                "velocity": 0.5039370078740157
              },
              {
                "duration": 0.1515152499999992,
                "durationTicks": 60,
                "midi": 45,
                "name": "A2",
                "ticks": 7740,
                "time": 19.545467249999998,
                "velocity": 0.5039370078740157
              },
              {
                "duration": 0.15151525000000277,
                "durationTicks": 60,
                "midi": 46,
                "name": "A#2",
                "ticks": 7800,
                "time": 19.696982499999997,
                "velocity": 0.5039370078740157
              },
              {
                "duration": 0.1515152499999992,
                "durationTicks": 60,
                "midi": 48,
                "name": "C3",
                "ticks": 7860,
                "time": 19.84849775,
                "velocity": 0.5039370078740157
              },
              {
                "duration": 0.3030304999999984,
                "durationTicks": 120,
                "midi": 42,
                "name": "F#2",
                "ticks": 7920,
                "time": 20.000013,
                "velocity": 0.5039370078740157
              },
              {
                "duration": 0.1515152499999992,
                "durationTicks": 60,
                "midi": 43,
                "name": "G2",
                "ticks": 8280,
                "time": 20.909104499999998,
                "velocity": 0.5039370078740157
              },
              {
                "duration": 0.15151525000000277,
                "durationTicks": 60,
                "midi": 45,
                "name": "A2",
                "ticks": 8340,
                "time": 21.060619749999997,
                "velocity": 0.5039370078740157
              },
              {
                "duration": 0.1515152499999992,
                "durationTicks": 60,
                "midi": 46,
                "name": "A#2",
                "ticks": 8400,
                "time": 21.212135,
                "velocity": 0.5039370078740157
              },
              {
                "duration": 0.1515152499999992,
                "durationTicks": 60,
                "midi": 43,
                "name": "G2",
                "ticks": 8460,
                "time": 21.36365025,
                "velocity": 0.5039370078740157
              },
              {
                "duration": 0.1515152499999992,
                "durationTicks": 60,
                "midi": 45,
                "name": "A2",
                "ticks": 8520,
                "time": 21.5151655,
                "velocity": 0.5039370078740157
              },
              {
                "duration": 0.15151525000000277,
                "durationTicks": 60,
                "midi": 46,
                "name": "A#2",
                "ticks": 8580,
                "time": 21.666680749999998,
                "velocity": 0.5039370078740157
              },
              {
                "duration": 0.3030304999999984,
                "durationTicks": 120,
                "midi": 40,
                "name": "E2",
                "ticks": 8640,
                "time": 21.818196,
                "velocity": 0.5039370078740157
              },
              {
                "duration": 0.3030304999999984,
                "durationTicks": 120,
                "midi": 41,
                "name": "F2",
                "ticks": 9000,
                "time": 22.7272875,
                "velocity": 0.5039370078740157
              },
              {
                "duration": 0.303030500000002,
                "durationTicks": 120,
                "midi": 53,
                "name": "F3",
                "ticks": 9120,
                "time": 23.030317999999998,
                "velocity": 0.5039370078740157
              },
              {
                "duration": 0.3030304999999984,
                "durationTicks": 120,
                "midi": 50,
                "name": "D3",
                "ticks": 9240,
                "time": 23.3333485,
                "velocity": 0.5039370078740157
              },
              {
                "duration": 0.303030500000002,
                "durationTicks": 120,
                "midi": 47,
                "name": "B2",
                "ticks": 9360,
                "time": 23.636378999999998,
                "velocity": 0.5039370078740157
              },
              {
                "duration": 0.3030304999999984,
                "durationTicks": 120,
                "midi": 44,
                "name": "G#2",
                "ticks": 9480,
                "time": 23.9394095,
                "velocity": 0.5039370078740157
              },
              {
                "duration": 0.3030304999999984,
                "durationTicks": 120,
                "midi": 40,
                "name": "E2",
                "ticks": 9600,
                "time": 24.24244,
                "velocity": 0.5039370078740157
              },
              {
                "duration": 0.15151525000000277,
                "durationTicks": 60,
                "midi": 45,
                "name": "A2",
                "ticks": 9720,
                "time": 24.545470499999997,
                "velocity": 0.5039370078740157
              },
              {
                "duration": 0.1515152499999992,
                "durationTicks": 60,
                "midi": 44,
                "name": "G#2",
                "ticks": 9780,
                "time": 24.69698575,
                "velocity": 0.5039370078740157
              },
              {
                "duration": 0.1515152499999992,
                "durationTicks": 60,
                "midi": 45,
                "name": "A2",
                "ticks": 9840,
                "time": 24.848501,
                "velocity": 0.5039370078740157
              },
              {
                "duration": 0.1515152499999992,
                "durationTicks": 60,
                "midi": 47,
                "name": "B2",
                "ticks": 9900,
                "time": 25.000016249999998,
                "velocity": 0.5039370078740157
              },
              {
                "duration": 0.15151525000000277,
                "durationTicks": 60,
                "midi": 48,
                "name": "C3",
                "ticks": 9960,
                "time": 25.151531499999997,
                "velocity": 0.5039370078740157
              },
              {
                "duration": 0.1515152499999992,
                "durationTicks": 60,
                "midi": 50,
                "name": "D3",
                "ticks": 10020,
                "time": 25.30304675,
                "velocity": 0.5039370078740157
              },
              {
                "duration": 0.07575762499999783,
                "durationTicks": 30,
                "midi": 52,
                "name": "E3",
                "ticks": 10080,
                "time": 25.454562,
                "velocity": 0.5039370078740157
              },
              {
                "duration": 0.08333338750000152,
                "durationTicks": 33,
                "midi": 53,
                "name": "F3",
                "ticks": 10110,
                "time": 25.530319624999997,
                "velocity": 0.3779527559055118
              },
              {
                "duration": 0.08333338750000152,
                "durationTicks": 33,
                "midi": 52,
                "name": "E3",
                "ticks": 10140,
                "time": 25.60607725,
                "velocity": 0.3779527559055118
              },
              {
                "duration": 0.08333338750000152,
                "durationTicks": 33,
                "midi": 53,
                "name": "F3",
                "ticks": 10170,
                "time": 25.681834875,
                "velocity": 0.3779527559055118
              },
              {
                "duration": 0.08333338750000152,
                "durationTicks": 33,
                "midi": 52,
                "name": "E3",
                "ticks": 10200,
                "time": 25.757592499999998,
                "velocity": 0.3779527559055118
              },
              {
                "duration": 0.08333338750000152,
                "durationTicks": 33,
                "midi": 53,
                "name": "F3",
                "ticks": 10230,
                "time": 25.833350125,
                "velocity": 0.3779527559055118
              },
              {
                "duration": 0.08333338750000152,
                "durationTicks": 33,
                "midi": 52,
                "name": "E3",
                "ticks": 10260,
                "time": 25.909107749999997,
                "velocity": 0.3858267716535433
              },
              {
                "duration": 0.08333338750000152,
                "durationTicks": 33,
                "midi": 53,
                "name": "F3",
                "ticks": 10290,
                "time": 25.984865375,
                "velocity": 0.3858267716535433
              },
              {
                "duration": 0.08333338750000152,
                "durationTicks": 33,
                "midi": 52,
                "name": "E3",
                "ticks": 10320,
                "time": 26.060623,
                "velocity": 0.3858267716535433
              },
              {
                "duration": 0.08333338750000152,
                "durationTicks": 33,
                "midi": 53,
                "name": "F3",
                "ticks": 10350,
                "time": 26.136380624999997,
                "velocity": 0.3858267716535433
              },
              {
                "duration": 0.08333338750000152,
                "durationTicks": 33,
                "midi": 52,
                "name": "E3",
                "ticks": 10380,
                "time": 26.21213825,
                "velocity": 0.3858267716535433
              },
              {
                "duration": 0.08333338750000507,
                "durationTicks": 33,
                "midi": 53,
                "name": "F3",
                "ticks": 10410,
                "time": 26.287895874999997,
                "velocity": 0.3937007874015748
              },
              {
                "duration": 0.08333338750000152,
                "durationTicks": 33,
                "midi": 52,
                "name": "E3",
                "ticks": 10440,
                "time": 26.363653499999998,
                "velocity": 0.3937007874015748
              },
              {
                "duration": 0.08333338750000152,
                "durationTicks": 33,
                "midi": 53,
                "name": "F3",
                "ticks": 10470,
                "time": 26.439411125,
                "velocity": 0.3937007874015748
              },
              {
                "duration": 0.08333338750000152,
                "durationTicks": 33,
                "midi": 52,
                "name": "E3",
                "ticks": 10500,
                "time": 26.515168749999997,
                "velocity": 0.3937007874015748
              },
              {
                "duration": 0.08333338750000152,
                "durationTicks": 33,
                "midi": 53,
                "name": "F3",
                "ticks": 10530,
                "time": 26.590926375,
                "velocity": 0.3937007874015748
              },
              {
                "duration": 0.08333338750000507,
                "durationTicks": 33,
                "midi": 52,
                "name": "E3",
                "ticks": 10560,
                "time": 26.666683999999997,
                "velocity": 0.4015748031496063
              },
              {
                "duration": 0.08333338750000152,
                "durationTicks": 33,
                "midi": 53,
                "name": "F3",
                "ticks": 10590,
                "time": 26.742441624999998,
                "velocity": 0.4015748031496063
              },
              {
                "duration": 0.08333338750000152,
                "durationTicks": 33,
                "midi": 52,
                "name": "E3",
                "ticks": 10620,
                "time": 26.81819925,
                "velocity": 0.4015748031496063
              },
              {
                "duration": 0.08333338750000152,
                "durationTicks": 33,
                "midi": 53,
                "name": "F3",
                "ticks": 10650,
                "time": 26.893956874999997,
                "velocity": 0.4015748031496063
              },
              {
                "duration": 0.08333338750000152,
                "durationTicks": 33,
                "midi": 52,
                "name": "E3",
                "ticks": 10680,
                "time": 26.9697145,
                "velocity": 0.4015748031496063
              },
              {
                "duration": 0.08333338750000152,
                "durationTicks": 33,
                "midi": 53,
                "name": "F3",
                "ticks": 10710,
                "time": 27.045472125,
                "velocity": 0.4094488188976378
              },
              {
                "duration": 0.08333338750000152,
                "durationTicks": 33,
                "midi": 52,
                "name": "E3",
                "ticks": 10740,
                "time": 27.121229749999998,
                "velocity": 0.4094488188976378
              },
              {
                "duration": 0.08333338750000152,
                "durationTicks": 33,
                "midi": 53,
                "name": "F3",
                "ticks": 10770,
                "time": 27.196987375,
                "velocity": 0.4094488188976378
              },
              {
                "duration": 0.08333338750000152,
                "durationTicks": 33,
                "midi": 52,
                "name": "E3",
                "ticks": 10800,
                "time": 27.272744999999997,
                "velocity": 0.4094488188976378
              },
              {
                "duration": 0.08333338750000152,
                "durationTicks": 33,
                "midi": 53,
                "name": "F3",
                "ticks": 10830,
                "time": 27.348502625,
                "velocity": 0.41732283464566927
              },
              {
                "duration": 0.08333338750000152,
                "durationTicks": 33,
                "midi": 52,
                "name": "E3",
                "ticks": 10860,
                "time": 27.42426025,
                "velocity": 0.41732283464566927
              },
              {
                "duration": 0.08333338750000152,
                "durationTicks": 33,
                "midi": 53,
                "name": "F3",
                "ticks": 10890,
                "time": 27.500017874999998,
                "velocity": 0.41732283464566927
              },
              {
                "duration": 0.08333338750000152,
                "durationTicks": 33,
                "midi": 52,
                "name": "E3",
                "ticks": 10920,
                "time": 27.5757755,
                "velocity": 0.41732283464566927
              },
              {
                "duration": 0.08333338750000152,
                "durationTicks": 33,
                "midi": 53,
                "name": "F3",
                "ticks": 10950,
                "time": 27.651533124999997,
                "velocity": 0.41732283464566927
              },
              {
                "duration": 0.08333338750000152,
                "durationTicks": 33,
                "midi": 52,
                "name": "E3",
                "ticks": 10980,
                "time": 27.727290749999998,
                "velocity": 0.4251968503937008
              },
              {
                "duration": 0.08333338750000152,
                "durationTicks": 33,
                "midi": 53,
                "name": "F3",
                "ticks": 11010,
                "time": 27.803048375,
                "velocity": 0.4251968503937008
              },
              {
                "duration": 0.08333338750000152,
                "durationTicks": 33,
                "midi": 52,
                "name": "E3",
                "ticks": 11040,
                "time": 27.878805999999997,
                "velocity": 0.4251968503937008
              },
              {
                "duration": 0.08333338750000152,
                "durationTicks": 33,
                "midi": 53,
                "name": "F3",
                "ticks": 11070,
                "time": 27.954563625,
                "velocity": 0.4251968503937008
              },
              {
                "duration": 0.08333338750000507,
                "durationTicks": 33,
                "midi": 52,
                "name": "E3",
                "ticks": 11100,
                "time": 28.030321249999997,
                "velocity": 0.4251968503937008
              },
              {
                "duration": 0.08333338750000152,
                "durationTicks": 33,
                "midi": 53,
                "name": "F3",
                "ticks": 11130,
                "time": 28.106078874999998,
                "velocity": 0.4330708661417323
              },
              {
                "duration": 0.08333338750000152,
                "durationTicks": 33,
                "midi": 52,
                "name": "E3",
                "ticks": 11160,
                "time": 28.1818365,
                "velocity": 0.4330708661417323
              },
              {
                "duration": 0.08333338750000152,
                "durationTicks": 33,
                "midi": 53,
                "name": "F3",
                "ticks": 11190,
                "time": 28.257594124999997,
                "velocity": 0.4330708661417323
              },
              {
                "duration": 0.08333338750000152,
                "durationTicks": 33,
                "midi": 52,
                "name": "E3",
                "ticks": 11220,
                "time": 28.33335175,
                "velocity": 0.4330708661417323
              },
              {
                "duration": 0.08333338750000152,
                "durationTicks": 33,
                "midi": 53,
                "name": "F3",
                "ticks": 11250,
                "time": 28.409109375,
                "velocity": 0.4330708661417323
              },
              {
                "duration": 0.08333338750000152,
                "durationTicks": 33,
                "midi": 52,
                "name": "E3",
                "ticks": 11280,
                "time": 28.484866999999998,
                "velocity": 0.4409448818897638
              },
              {
                "duration": 0.08333338750000152,
                "durationTicks": 33,
                "midi": 53,
                "name": "F3",
                "ticks": 11310,
                "time": 28.560624625,
                "velocity": 0.4409448818897638
              },
              {
                "duration": 0.08333338750000152,
                "durationTicks": 33,
                "midi": 52,
                "name": "E3",
                "ticks": 11340,
                "time": 28.636382249999997,
                "velocity": 0.4409448818897638
              },
              {
                "duration": 0.08333338750000152,
                "durationTicks": 33,
                "midi": 53,
                "name": "F3",
                "ticks": 11370,
                "time": 28.712139875,
                "velocity": 0.4409448818897638
              },
              {
                "duration": 0.08333338750000152,
                "durationTicks": 33,
                "midi": 52,
                "name": "E3",
                "ticks": 11400,
                "time": 28.7878975,
                "velocity": 0.4409448818897638
              },
              {
                "duration": 0.08333338750000152,
                "durationTicks": 33,
                "midi": 53,
                "name": "F3",
                "ticks": 11430,
                "time": 28.863655124999998,
                "velocity": 0.44881889763779526
              },
              {
                "duration": 0.08333338750000152,
                "durationTicks": 33,
                "midi": 52,
                "name": "E3",
                "ticks": 11460,
                "time": 28.93941275,
                "velocity": 0.44881889763779526
              },
              {
                "duration": 0.08333338750000152,
                "durationTicks": 33,
                "midi": 53,
                "name": "F3",
                "ticks": 11490,
                "time": 29.015170374999997,
                "velocity": 0.44881889763779526
              },
              {
                "duration": 0.08333338750000152,
                "durationTicks": 33,
                "midi": 52,
                "name": "E3",
                "ticks": 11520,
                "time": 29.090927999999998,
                "velocity": 0.44881889763779526
              },
              {
                "duration": 0.08333338750000152,
                "durationTicks": 33,
                "midi": 53,
                "name": "F3",
                "ticks": 11550,
                "time": 29.166685625,
                "velocity": 0.44881889763779526
              },
              {
                "duration": 0.08333338750000152,
                "durationTicks": 33,
                "midi": 52,
                "name": "E3",
                "ticks": 11580,
                "time": 29.242443249999997,
                "velocity": 0.4566929133858268
              },
              {
                "duration": 0.08333338750000152,
                "durationTicks": 33,
                "midi": 53,
                "name": "F3",
                "ticks": 11610,
                "time": 29.318200875,
                "velocity": 0.4566929133858268
              },
              {
                "duration": 0.08333338750000152,
                "durationTicks": 33,
                "midi": 52,
                "name": "E3",
                "ticks": 11640,
                "time": 29.393958499999997,
                "velocity": 0.4566929133858268
              },
              {
                "duration": 0.08333338750000152,
                "durationTicks": 33,
                "midi": 53,
                "name": "F3",
                "ticks": 11670,
                "time": 29.469716124999998,
                "velocity": 0.4566929133858268
              },
              {
                "duration": 0.08333338750000152,
                "durationTicks": 33,
                "midi": 52,
                "name": "E3",
                "ticks": 11700,
                "time": 29.54547375,
                "velocity": 0.4566929133858268
              },
              {
                "duration": 0.08333338750000152,
                "durationTicks": 33,
                "midi": 53,
                "name": "F3",
                "ticks": 11730,
                "time": 29.621231374999997,
                "velocity": 0.4645669291338583
              },
              {
                "duration": 0.08333338750000152,
                "durationTicks": 33,
                "midi": 52,
                "name": "E3",
                "ticks": 11760,
                "time": 29.696989,
                "velocity": 0.4645669291338583
              },
              {
                "duration": 0.08333338750000507,
                "durationTicks": 33,
                "midi": 53,
                "name": "F3",
                "ticks": 11790,
                "time": 29.772746624999996,
                "velocity": 0.4645669291338583
              },
              {
                "duration": 0.08333338750000152,
                "durationTicks": 33,
                "midi": 52,
                "name": "E3",
                "ticks": 11820,
                "time": 29.848504249999998,
                "velocity": 0.4645669291338583
              },
              {
                "duration": 0.08333338750000152,
                "durationTicks": 33,
                "midi": 53,
                "name": "F3",
                "ticks": 11850,
                "time": 29.924261875,
                "velocity": 0.4645669291338583
              },
              {
                "duration": 0.303030500000002,
                "durationTicks": 120,
                "midi": 52,
                "name": "E3",
                "ticks": 11880,
                "time": 30.000019499999997,
                "velocity": 0.5039370078740157
              },
              {
                "duration": 0.3030304999999984,
                "durationTicks": 120,
                "midi": 64,
                "name": "E4",
                "ticks": 12000,
                "time": 30.30305,
                "velocity": 0.5039370078740157
              },
              {
                "duration": 0.303030500000002,
                "durationTicks": 120,
                "midi": 62,
                "name": "D4",
                "ticks": 12120,
                "time": 30.606080499999997,
                "velocity": 0.5039370078740157
              },
              {
                "duration": 0.3030304999999984,
                "durationTicks": 120,
                "midi": 60,
                "name": "C4",
                "ticks": 12240,
                "time": 30.909111,
                "velocity": 0.5039370078740157
              },
              {
                "duration": 0.303030500000002,
                "durationTicks": 120,
                "midi": 59,
                "name": "B3",
                "ticks": 12360,
                "time": 31.212141499999998,
                "velocity": 0.5039370078740157
              },
              {
                "duration": 0.3030304999999984,
                "durationTicks": 120,
                "midi": 57,
                "name": "A3",
                "ticks": 12480,
                "time": 31.515172,
                "velocity": 0.5039370078740157
              },
              {
                "duration": 0.3030304999999984,
                "durationTicks": 120,
                "midi": 62,
                "name": "D4",
                "ticks": 12600,
                "time": 31.818202499999998,
                "velocity": 0.5039370078740157
              },
              {
                "duration": 0.3030304999999984,
                "durationTicks": 120,
                "midi": 64,
                "name": "E4",
                "ticks": 12720,
                "time": 32.121233,
                "velocity": 0.5039370078740157
              },
              {
                "duration": 0.30303050000000553,
                "durationTicks": 120,
                "midi": 65,
                "name": "F4",
                "ticks": 12840,
                "time": 32.424263499999995,
                "velocity": 0.5039370078740157
              },
              {
                "duration": 0.3030304999999984,
                "durationTicks": 120,
                "midi": 62,
                "name": "D4",
                "ticks": 12960,
                "time": 32.727294,
                "velocity": 0.5039370078740157
              },
              {
                "duration": 0.3030304999999984,
                "durationTicks": 120,
                "midi": 64,
                "name": "E4",
                "ticks": 13080,
                "time": 33.0303245,
                "velocity": 0.5039370078740157
              },
              {
                "duration": 0.3030304999999984,
                "durationTicks": 120,
                "midi": 52,
                "name": "E3",
                "ticks": 13200,
                "time": 33.333355,
                "velocity": 0.5039370078740157
              },
              {
                "duration": 0.15151525000000277,
                "durationTicks": 60,
                "midi": 57,
                "name": "A3",
                "ticks": 13320,
                "time": 33.636385499999996,
                "velocity": 0.5039370078740157
              },
              {
                "duration": 0.15151524999999566,
                "durationTicks": 60,
                "midi": 45,
                "name": "A2",
                "ticks": 13380,
                "time": 33.78790075,
                "velocity": 0.5039370078740157
              },
              {
                "duration": 0.15151525000000277,
                "durationTicks": 60,
                "midi": 46,
                "name": "A#2",
                "ticks": 13440,
                "time": 33.939415999999994,
                "velocity": 0.5039370078740157
              },
              {
                "duration": 0.15151525000000277,
                "durationTicks": 60,
                "midi": 48,
                "name": "C3",
                "ticks": 13500,
                "time": 34.09093125,
                "velocity": 0.5039370078740157
              },
              {
                "duration": 0.15151524999999566,
                "durationTicks": 60,
                "midi": 50,
                "name": "D3",
                "ticks": 13560,
                "time": 34.2424465,
                "velocity": 0.5039370078740157
              },
              {
                "duration": 0.15151525000000277,
                "durationTicks": 60,
                "midi": 51,
                "name": "D#3",
                "ticks": 13620,
                "time": 34.393961749999995,
                "velocity": 0.5039370078740157
              },
              {
                "duration": 0.15151525000000277,
                "durationTicks": 60,
                "midi": 42,
                "name": "F#2",
                "ticks": 13680,
                "time": 34.545477,
                "velocity": 0.5039370078740157
              },
              {
                "duration": 0.15151524999999566,
                "durationTicks": 60,
                "midi": 51,
                "name": "D#3",
                "ticks": 13740,
                "time": 34.69699225,
                "velocity": 0.5039370078740157
              },
              {
                "duration": 0.15151525000000277,
                "durationTicks": 60,
                "midi": 50,
                "name": "D3",
                "ticks": 13800,
                "time": 34.8485075,
                "velocity": 0.5039370078740157
              },
              {
                "duration": 0.15151524999999566,
                "durationTicks": 60,
                "midi": 48,
                "name": "C3",
                "ticks": 13860,
                "time": 35.00002275,
                "velocity": 0.5039370078740157
              },
              {
                "duration": 0.15151525000000277,
                "durationTicks": 60,
                "midi": 46,
                "name": "A#2",
                "ticks": 13920,
                "time": 35.151537999999995,
                "velocity": 0.5039370078740157
              },
              {
                "duration": 0.15151525000000277,
                "durationTicks": 60,
                "midi": 45,
                "name": "A2",
                "ticks": 13980,
                "time": 35.30305325,
                "velocity": 0.5039370078740157
              },
              {
                "duration": 0.4545457499999941,
                "durationTicks": 180,
                "midi": 43,
                "name": "G2",
                "ticks": 14040,
                "time": 35.4545685,
                "velocity": 0.5039370078740157
              },
              {
                "duration": 0.15151525000000277,
                "durationTicks": 60,
                "midi": 43,
                "name": "G2",
                "ticks": 14220,
                "time": 35.909114249999995,
                "velocity": 0.5039370078740157
              },
              {
                "duration": 0.15151525000000277,
                "durationTicks": 60,
                "midi": 45,
                "name": "A2",
                "ticks": 14280,
                "time": 36.0606295,
                "velocity": 0.5039370078740157
              },
              {
                "duration": 0.15151524999999566,
                "durationTicks": 60,
                "midi": 46,
                "name": "A#2",
                "ticks": 14340,
                "time": 36.21214475,
                "velocity": 0.5039370078740157
              },
              {
                "duration": 0.3030304999999984,
                "durationTicks": 120,
                "midi": 36,
                "name": "C2",
                "ticks": 14400,
                "time": 36.363659999999996,
                "velocity": 0.5039370078740157
              },
              {
                "duration": 0.30303050000000553,
                "durationTicks": 120,
                "midi": 43,
                "name": "G2",
                "ticks": 14520,
                "time": 36.666690499999994,
                "velocity": 0.5039370078740157
              },
              {
                "duration": 0.3030304999999984,
                "durationTicks": 120,
                "midi": 48,
                "name": "C3",
                "ticks": 14640,
                "time": 36.969721,
                "velocity": 0.5039370078740157
              },
              {
                "duration": 0.15151525000000277,
                "durationTicks": 60,
                "midi": 53,
                "name": "F3",
                "ticks": 14760,
                "time": 37.2727515,
                "velocity": 0.5039370078740157
              },
              {
                "duration": 0.15151524999999566,
                "durationTicks": 60,
                "midi": 55,
                "name": "G3",
                "ticks": 14820,
                "time": 37.42426675,
                "velocity": 0.5039370078740157
              },
              {
                "duration": 0.15151525000000277,
                "durationTicks": 60,
                "midi": 57,
                "name": "A3",
                "ticks": 14880,
                "time": 37.575782,
                "velocity": 0.5039370078740157
              },
              {
                "duration": 0.15151524999999566,
                "durationTicks": 60,
                "midi": 59,
                "name": "B3",
                "ticks": 14940,
                "time": 37.72729725,
                "velocity": 0.5039370078740157
              },
              {
                "duration": 0.15151525000000277,
                "durationTicks": 60,
                "midi": 61,
                "name": "C#4",
                "ticks": 15000,
                "time": 37.878812499999995,
                "velocity": 0.5039370078740157
              },
              {
                "duration": 0.15151525000000277,
                "durationTicks": 60,
                "midi": 62,
                "name": "D4",
                "ticks": 15060,
                "time": 38.03032775,
                "velocity": 0.5039370078740157
              },
              {
                "duration": 0.15151524999999566,
                "durationTicks": 60,
                "midi": 52,
                "name": "E3",
                "ticks": 15120,
                "time": 38.181843,
                "velocity": 0.5039370078740157
              },
              {
                "duration": 0.15151525000000277,
                "durationTicks": 60,
                "midi": 62,
                "name": "D4",
                "ticks": 15180,
                "time": 38.333358249999996,
                "velocity": 0.5039370078740157
              },
              {
                "duration": 0.15151524999999566,
                "durationTicks": 60,
                "midi": 61,
                "name": "C#4",
                "ticks": 15240,
                "time": 38.4848735,
                "velocity": 0.5039370078740157
              },
              {
                "duration": 0.15151525000000277,
                "durationTicks": 60,
                "midi": 59,
                "name": "B3",
                "ticks": 15300,
                "time": 38.636388749999995,
                "velocity": 0.5039370078740157
              },
              {
                "duration": 0.15151525000000277,
                "durationTicks": 60,
                "midi": 57,
                "name": "A3",
                "ticks": 15360,
                "time": 38.787904,
                "velocity": 0.5039370078740157
              },
              {
                "duration": 0.15151524999999566,
                "durationTicks": 60,
                "midi": 55,
                "name": "G3",
                "ticks": 15420,
                "time": 38.93941925,
                "velocity": 0.5039370078740157
              },
              {
                "duration": 0.3030304999999984,
                "durationTicks": 120,
                "midi": 53,
                "name": "F3",
                "ticks": 15480,
                "time": 39.090934499999996,
                "velocity": 0.5039370078740157
              },
              {
                "duration": 0.30303050000000553,
                "durationTicks": 120,
                "midi": 57,
                "name": "A3",
                "ticks": 15600,
                "time": 39.393964999999994,
                "velocity": 0.5039370078740157
              },
              {
                "duration": 0.3030304999999984,
                "durationTicks": 120,
                "midi": 62,
                "name": "D4",
                "ticks": 15720,
                "time": 39.6969955,
                "velocity": 0.5039370078740157
              },
              {
                "duration": 0.3030304999999984,
                "durationTicks": 120,
                "midi": 52,
                "name": "E3",
                "ticks": 15840,
                "time": 40.000026,
                "velocity": 0.5039370078740157
              },
              {
                "duration": 0.3030304999999984,
                "durationTicks": 120,
                "midi": 55,
                "name": "G3",
                "ticks": 15960,
                "time": 40.3030565,
                "velocity": 0.5039370078740157
              },
              {
                "duration": 0.30303050000000553,
                "durationTicks": 120,
                "midi": 61,
                "name": "C#4",
                "ticks": 16080,
                "time": 40.606086999999995,
                "velocity": 0.5039370078740157
              },
              {
                "duration": 0.15151524999999566,
                "durationTicks": 60,
                "midi": 50,
                "name": "D3",
                "ticks": 16200,
                "time": 40.9091175,
                "velocity": 0.5039370078740157
              },
              {
                "duration": 0.15151525000000277,
                "durationTicks": 60,
                "midi": 52,
                "name": "E3",
                "ticks": 16260,
                "time": 41.060632749999996,
                "velocity": 0.5039370078740157
              },
              {
                "duration": 0.15151524999999566,
                "durationTicks": 60,
                "midi": 53,
                "name": "F3",
                "ticks": 16320,
                "time": 41.212148,
                "velocity": 0.5039370078740157
              },
              {
                "duration": 0.15151525000000277,
                "durationTicks": 60,
                "midi": 55,
                "name": "G3",
                "ticks": 16380,
                "time": 41.363663249999995,
                "velocity": 0.5039370078740157
              },
              {
                "duration": 0.15151525000000277,
                "durationTicks": 60,
                "midi": 57,
                "name": "A3",
                "ticks": 16440,
                "time": 41.5151785,
                "velocity": 0.5039370078740157
              },
              {
                "duration": 0.15151524999999566,
                "durationTicks": 60,
                "midi": 58,
                "name": "A#3",
                "ticks": 16500,
                "time": 41.66669375,
                "velocity": 0.5039370078740157
              },
              {
                "duration": 0.15151525000000277,
                "durationTicks": 60,
                "midi": 49,
                "name": "C#3",
                "ticks": 16560,
                "time": 41.818208999999996,
                "velocity": 0.5039370078740157
              },
              {
                "duration": 0.15151524999999566,
                "durationTicks": 60,
                "midi": 58,
                "name": "A#3",
                "ticks": 16620,
                "time": 41.96972425,
                "velocity": 0.5039370078740157
              },
              {
                "duration": 0.15151525000000277,
                "durationTicks": 60,
                "midi": 57,
                "name": "A3",
                "ticks": 16680,
                "time": 42.121239499999994,
                "velocity": 0.5039370078740157
              },
              {
                "duration": 0.15151525000000277,
                "durationTicks": 60,
                "midi": 55,
                "name": "G3",
                "ticks": 16740,
                "time": 42.27275475,
                "velocity": 0.5039370078740157
              },
              {
                "duration": 0.15151524999999566,
                "durationTicks": 60,
                "midi": 53,
                "name": "F3",
                "ticks": 16800,
                "time": 42.42427,
                "velocity": 0.5039370078740157
              },
              {
                "duration": 0.15151525000000277,
                "durationTicks": 60,
                "midi": 52,
                "name": "E3",
                "ticks": 16860,
                "time": 42.575785249999996,
                "velocity": 0.5039370078740157
              },
              {
                "duration": 0.15151524999999566,
                "durationTicks": 60,
                "midi": 53,
                "name": "F3",
                "ticks": 16920,
                "time": 42.7273005,
                "velocity": 0.5039370078740157
              },
              {
                "duration": 0.15151525000000277,
                "durationTicks": 60,
                "midi": 55,
                "name": "G3",
                "ticks": 16980,
                "time": 42.878815749999994,
                "velocity": 0.5039370078740157
              },
              {
                "duration": 0.3030304999999984,
                "durationTicks": 120,
                "midi": 57,
                "name": "A3",
                "ticks": 17040,
                "time": 43.030331,
                "velocity": 0.5039370078740157
              },
              {
                "duration": 0.30303050000000553,
                "durationTicks": 120,
                "midi": 45,
                "name": "A2",
                "ticks": 17160,
                "time": 43.333361499999995,
                "velocity": 0.5039370078740157
              },
              {
                "duration": 0.4545457499999941,
                "durationTicks": 180,
                "midi": 46,
                "name": "A#2",
                "ticks": 17280,
                "time": 43.636392,
                "velocity": 0.5039370078740157
              },
              {
                "duration": 0.15151525000000277,
                "durationTicks": 60,
                "midi": 48,
                "name": "C3",
                "ticks": 17460,
                "time": 44.090937749999995,
                "velocity": 0.5039370078740157
              },
              {
                "duration": 0.15151525000000277,
                "durationTicks": 60,
                "midi": 46,
                "name": "A#2",
                "ticks": 17520,
                "time": 44.242453,
                "velocity": 0.5039370078740157
              },
              {
                "duration": 0.15151524999999566,
                "durationTicks": 60,
                "midi": 45,
                "name": "A2",
                "ticks": 17580,
                "time": 44.39396825,
                "velocity": 0.5039370078740157
              },
              {
                "duration": 0.15151525000000277,
                "durationTicks": 60,
                "midi": 43,
                "name": "G2",
                "ticks": 17640,
                "time": 44.545483499999996,
                "velocity": 0.5039370078740157
              },
              {
                "duration": 0.15151524999999566,
                "durationTicks": 60,
                "midi": 58,
                "name": "A#3",
                "ticks": 17700,
                "time": 44.69699875,
                "velocity": 0.5039370078740157
              },
              {
                "duration": 0.15151525000000277,
                "durationTicks": 60,
                "midi": 57,
                "name": "A3",
                "ticks": 17760,
                "time": 44.848513999999994,
                "velocity": 0.5039370078740157
              },
              {
                "duration": 0.15151525000000277,
                "durationTicks": 60,
                "midi": 55,
                "name": "G3",
                "ticks": 17820,
                "time": 45.00002925,
                "velocity": 0.5039370078740157
              },
              {
                "duration": 0.15151524999999566,
                "durationTicks": 60,
                "midi": 53,
                "name": "F3",
                "ticks": 17880,
                "time": 45.1515445,
                "velocity": 0.5039370078740157
              },
              {
                "duration": 0.15151525000000277,
                "durationTicks": 60,
                "midi": 52,
                "name": "E3",
                "ticks": 17940,
                "time": 45.303059749999996,
                "velocity": 0.5039370078740157
              },
              {
                "duration": 0.15151524999999566,
                "durationTicks": 60,
                "midi": 53,
                "name": "F3",
                "ticks": 18000,
                "time": 45.454575,
                "velocity": 0.5039370078740157
              },
              {
                "duration": 0.15151525000000277,
                "durationTicks": 60,
                "midi": 55,
                "name": "G3",
                "ticks": 18060,
                "time": 45.606090249999994,
                "velocity": 0.5039370078740157
              },
              {
                "duration": 0.3030304999999984,
                "durationTicks": 120,
                "midi": 57,
                "name": "A3",
                "ticks": 18120,
                "time": 45.7576055,
                "velocity": 0.5039370078740157
              },
              {
                "duration": 0.3030304999999984,
                "durationTicks": 120,
                "midi": 45,
                "name": "A2",
                "ticks": 18240,
                "time": 46.060635999999995,
                "velocity": 0.5039370078740157
              },
              {
                "duration": 1.8181830000000048,
                "durationTicks": 720,
                "midi": 38,
                "name": "D2",
                "ticks": 18360,
                "time": 46.363666499999994,
                "velocity": 0.5039370078740157
              }
            ],
            "endOfTrackTicks": 19080
          }
        ]
    },

    "invention-05" : {
        "header": {
          "keySignatures": [],
          "meta": [],
          "name": "Invention 5 in Eb Major",
          "ppq": 240,
          "tempos": [
            {
              "bpm": 100,
              "ticks": 0
            }
          ],
          "timeSignatures": [
            {
              "ticks": 0,
              "timeSignature": [
                4,
                4
              ],
              "measures": 0
            }
          ]
        },
        "tracks": [
          {
            "channel": 0,
            "controlChanges": {},
            "pitchBends": [],
            "instrument": {
              "family": "piano",
              "number": 0,
              "name": "acoustic grand piano"
            },
            "name": "",
            "notes": [
              {
                "duration": 0.14999999999999997,
                "durationTicks": 60,
                "midi": 63,
                "name": "D#4",
                "ticks": 120,
                "time": 0.3,
                "velocity": 0.5039370078740157
              },
              {
                "duration": 0.15000000000000002,
                "durationTicks": 60,
                "midi": 62,
                "name": "D4",
                "ticks": 180,
                "time": 0.44999999999999996,
                "velocity": 0.5039370078740157
              },
              {
                "duration": 0.29999999999999993,
                "durationTicks": 120,
                "midi": 63,
                "name": "D#4",
                "ticks": 240,
                "time": 0.6,
                "velocity": 0.5039370078740157
              },
              {
                "duration": 0.30000000000000004,
                "durationTicks": 120,
                "midi": 65,
                "name": "F4",
                "ticks": 360,
                "time": 0.8999999999999999,
                "velocity": 0.5039370078740157
              },
              {
                "duration": 0.07499999999999996,
                "durationTicks": 30,
                "midi": 67,
                "name": "G4",
                "ticks": 480,
                "time": 1.2,
                "velocity": 0.5039370078740157
              },
              {
                "duration": 0.07499999999999996,
                "durationTicks": 30,
                "midi": 65,
                "name": "F4",
                "ticks": 510,
                "time": 1.275,
                "velocity": 0.4409448818897638
              },
              {
                "duration": 0.44999999999999996,
                "durationTicks": 180,
                "midi": 67,
                "name": "G4",
                "ticks": 540,
                "time": 1.3499999999999999,
                "velocity": 0.5039370078740157
              },
              {
                "duration": 0.6000000000000001,
                "durationTicks": 240,
                "midi": 68,
                "name": "G#4",
                "ticks": 720,
                "time": 1.7999999999999998,
                "velocity": 0.5039370078740157
              },
              {
                "duration": 0.15000000000000036,
                "durationTicks": 60,
                "midi": 65,
                "name": "F4",
                "ticks": 1080,
                "time": 2.6999999999999997,
                "velocity": 0.5039370078740157
              },
              {
                "duration": 0.1499999999999999,
                "durationTicks": 60,
                "midi": 63,
                "name": "D#4",
                "ticks": 1140,
                "time": 2.85,
                "velocity": 0.5039370078740157
              },
              {
                "duration": 0.2999999999999998,
                "durationTicks": 120,
                "midi": 65,
                "name": "F4",
                "ticks": 1200,
                "time": 3,
                "velocity": 0.5039370078740157
              },
              {
                "duration": 0.2999999999999998,
                "durationTicks": 120,
                "midi": 67,
                "name": "G4",
                "ticks": 1320,
                "time": 3.3,
                "velocity": 0.5039370078740157
              },
              {
                "duration": 0.07500000000000018,
                "durationTicks": 30,
                "midi": 68,
                "name": "G#4",
                "ticks": 1440,
                "time": 3.5999999999999996,
                "velocity": 0.5039370078740157
              },
              {
                "duration": 0.07500000000000018,
                "durationTicks": 30,
                "midi": 67,
                "name": "G4",
                "ticks": 1470,
                "time": 3.675,
                "velocity": 0.4409448818897638
              },
              {
                "duration": 0.4500000000000002,
                "durationTicks": 180,
                "midi": 68,
                "name": "G#4",
                "ticks": 1500,
                "time": 3.75,
                "velocity": 0.5039370078740157
              },
              {
                "duration": 0.5999999999999996,
                "durationTicks": 240,
                "midi": 70,
                "name": "A#4",
                "ticks": 1680,
                "time": 4.2,
                "velocity": 0.5039370078740157
              },
              {
                "duration": 0.2999999999999998,
                "durationTicks": 120,
                "midi": 67,
                "name": "G4",
                "ticks": 1920,
                "time": 4.8,
                "velocity": 0.5039370078740157
              },
              {
                "duration": 0.2999999999999998,
                "durationTicks": 120,
                "midi": 72,
                "name": "C5",
                "ticks": 2040,
                "time": 5.1,
                "velocity": 0.5039370078740157
              },
              {
                "duration": 0.07500000000000018,
                "durationTicks": 30,
                "midi": 70,
                "name": "A#4",
                "ticks": 2160,
                "time": 5.3999999999999995,
                "velocity": 0.5039370078740157
              },
              {
                "duration": 0.07500000000000018,
                "durationTicks": 30,
                "midi": 72,
                "name": "C5",
                "ticks": 2190,
                "time": 5.475,
                "velocity": 0.4409448818897638
              },
              {
                "duration": 0.15000000000000036,
                "durationTicks": 60,
                "midi": 70,
                "name": "A#4",
                "ticks": 2220,
                "time": 5.55,
                "velocity": 0.5039370078740157
              },
              {
                "duration": 0.2999999999999998,
                "durationTicks": 120,
                "midi": 68,
                "name": "G#4",
                "ticks": 2280,
                "time": 5.7,
                "velocity": 0.5039370078740157
              },
              {
                "duration": 0.14999999999999947,
                "durationTicks": 60,
                "midi": 67,
                "name": "G4",
                "ticks": 2400,
                "time": 6,
                "velocity": 0.5039370078740157
              },
              {
                "duration": 0.15000000000000036,
                "durationTicks": 60,
                "midi": 68,
                "name": "G#4",
                "ticks": 2460,
                "time": 6.1499999999999995,
                "velocity": 0.5039370078740157
              },
              {
                "duration": 0.15000000000000036,
                "durationTicks": 60,
                "midi": 70,
                "name": "A#4",
                "ticks": 2520,
                "time": 6.3,
                "velocity": 0.5039370078740157
              },
              {
                "duration": 0.14999999999999947,
                "durationTicks": 60,
                "midi": 68,
                "name": "G#4",
                "ticks": 2580,
                "time": 6.45,
                "velocity": 0.5039370078740157
              },
              {
                "duration": 0.2999999999999998,
                "durationTicks": 120,
                "midi": 67,
                "name": "G4",
                "ticks": 2640,
                "time": 6.6,
                "velocity": 0.5039370078740157
              },
              {
                "duration": 0.2999999999999998,
                "durationTicks": 120,
                "midi": 65,
                "name": "F4",
                "ticks": 2760,
                "time": 6.8999999999999995,
                "velocity": 0.5039370078740157
              },
              {
                "duration": 0.3000000000000007,
                "durationTicks": 120,
                "midi": 63,
                "name": "D#4",
                "ticks": 2880,
                "time": 7.199999999999999,
                "velocity": 0.5039370078740157
              },
              {
                "duration": 0.2999999999999998,
                "durationTicks": 120,
                "midi": 67,
                "name": "G4",
                "ticks": 3000,
                "time": 7.5,
                "velocity": 0.5039370078740157
              },
              {
                "duration": 0.2999999999999998,
                "durationTicks": 120,
                "midi": 70,
                "name": "A#4",
                "ticks": 3120,
                "time": 7.8,
                "velocity": 0.5039370078740157
              },
              {
                "duration": 0.4499999999999993,
                "durationTicks": 180,
                "midi": 75,
                "name": "D#5",
                "ticks": 3240,
                "time": 8.1,
                "velocity": 0.5039370078740157
              },
              {
                "duration": 0.15000000000000036,
                "durationTicks": 60,
                "midi": 72,
                "name": "C5",
                "ticks": 3420,
                "time": 8.549999999999999,
                "velocity": 0.5039370078740157
              },
              {
                "duration": 0.15000000000000036,
                "durationTicks": 60,
                "midi": 74,
                "name": "D5",
                "ticks": 3480,
                "time": 8.7,
                "velocity": 0.5039370078740157
              },
              {
                "duration": 0.15000000000000036,
                "durationTicks": 60,
                "midi": 75,
                "name": "D#5",
                "ticks": 3540,
                "time": 8.85,
                "velocity": 0.5039370078740157
              },
              {
                "duration": 0.29999999999999893,
                "durationTicks": 120,
                "midi": 77,
                "name": "F5",
                "ticks": 3600,
                "time": 9,
                "velocity": 0.5039370078740157
              },
              {
                "duration": 0.3000000000000007,
                "durationTicks": 120,
                "midi": 75,
                "name": "D#5",
                "ticks": 3720,
                "time": 9.299999999999999,
                "velocity": 0.5039370078740157
              },
              {
                "duration": 0.15000000000000036,
                "durationTicks": 60,
                "midi": 74,
                "name": "D5",
                "ticks": 3840,
                "time": 9.6,
                "velocity": 0.5039370078740157
              },
              {
                "duration": 0.15000000000000036,
                "durationTicks": 60,
                "midi": 75,
                "name": "D#5",
                "ticks": 3900,
                "time": 9.75,
                "velocity": 0.5039370078740157
              },
              {
                "duration": 0.14999999999999858,
                "durationTicks": 60,
                "midi": 74,
                "name": "D5",
                "ticks": 3960,
                "time": 9.9,
                "velocity": 0.5039370078740157
              },
              {
                "duration": 0.15000000000000036,
                "durationTicks": 60,
                "midi": 72,
                "name": "C5",
                "ticks": 4020,
                "time": 10.049999999999999,
                "velocity": 0.5039370078740157
              },
              {
                "duration": 0.15000000000000036,
                "durationTicks": 60,
                "midi": 74,
                "name": "D5",
                "ticks": 4080,
                "time": 10.2,
                "velocity": 0.5039370078740157
              },
              {
                "duration": 0.15000000000000036,
                "durationTicks": 60,
                "midi": 75,
                "name": "D#5",
                "ticks": 4140,
                "time": 10.35,
                "velocity": 0.5039370078740157
              },
              {
                "duration": 0.15000000000000036,
                "durationTicks": 60,
                "midi": 72,
                "name": "C5",
                "ticks": 4200,
                "time": 10.5,
                "velocity": 0.5039370078740157
              },
              {
                "duration": 0.14999999999999858,
                "durationTicks": 60,
                "midi": 74,
                "name": "D5",
                "ticks": 4260,
                "time": 10.65,
                "velocity": 0.5039370078740157
              },
              {
                "duration": 0.15000000000000036,
                "durationTicks": 60,
                "midi": 70,
                "name": "A#4",
                "ticks": 4320,
                "time": 10.799999999999999,
                "velocity": 0.5039370078740157
              },
              {
                "duration": 0.15000000000000036,
                "durationTicks": 60,
                "midi": 82,
                "name": "A#5",
                "ticks": 4380,
                "time": 10.95,
                "velocity": 0.5039370078740157
              },
              {
                "duration": 0.15000000000000036,
                "durationTicks": 60,
                "midi": 81,
                "name": "A5",
                "ticks": 4440,
                "time": 11.1,
                "velocity": 0.5039370078740157
              },
              {
                "duration": 0.15000000000000036,
                "durationTicks": 60,
                "midi": 82,
                "name": "A#5",
                "ticks": 4500,
                "time": 11.25,
                "velocity": 0.5039370078740157
              },
              {
                "duration": 0.14999999999999858,
                "durationTicks": 60,
                "midi": 79,
                "name": "G5",
                "ticks": 4560,
                "time": 11.4,
                "velocity": 0.5039370078740157
              },
              {
                "duration": 0.15000000000000036,
                "durationTicks": 60,
                "midi": 81,
                "name": "A5",
                "ticks": 4620,
                "time": 11.549999999999999,
                "velocity": 0.5039370078740157
              },
              {
                "duration": 0.15000000000000036,
                "durationTicks": 60,
                "midi": 77,
                "name": "F5",
                "ticks": 4680,
                "time": 11.7,
                "velocity": 0.5039370078740157
              },
              {
                "duration": 0.15000000000000036,
                "durationTicks": 60,
                "midi": 79,
                "name": "G5",
                "ticks": 4740,
                "time": 11.85,
                "velocity": 0.5039370078740157
              },
              {
                "duration": 0.15000000000000036,
                "durationTicks": 60,
                "midi": 75,
                "name": "D#5",
                "ticks": 4800,
                "time": 12,
                "velocity": 0.5039370078740157
              },
              {
                "duration": 0.14999999999999858,
                "durationTicks": 60,
                "midi": 79,
                "name": "G5",
                "ticks": 4860,
                "time": 12.15,
                "velocity": 0.5039370078740157
              },
              {
                "duration": 0.15000000000000036,
                "durationTicks": 60,
                "midi": 77,
                "name": "F5",
                "ticks": 4920,
                "time": 12.299999999999999,
                "velocity": 0.5039370078740157
              },
              {
                "duration": 0.15000000000000036,
                "durationTicks": 60,
                "midi": 79,
                "name": "G5",
                "ticks": 4980,
                "time": 12.45,
                "velocity": 0.5039370078740157
              },
              {
                "duration": 0.15000000000000036,
                "durationTicks": 60,
                "midi": 75,
                "name": "D#5",
                "ticks": 5040,
                "time": 12.6,
                "velocity": 0.5039370078740157
              },
              {
                "duration": 0.15000000000000036,
                "durationTicks": 60,
                "midi": 77,
                "name": "F5",
                "ticks": 5100,
                "time": 12.75,
                "velocity": 0.5039370078740157
              },
              {
                "duration": 0.14999999999999858,
                "durationTicks": 60,
                "midi": 74,
                "name": "D5",
                "ticks": 5160,
                "time": 12.9,
                "velocity": 0.5039370078740157
              },
              {
                "duration": 0.15000000000000036,
                "durationTicks": 60,
                "midi": 75,
                "name": "D#5",
                "ticks": 5220,
                "time": 13.049999999999999,
                "velocity": 0.5039370078740157
              },
              {
                "duration": 0.15000000000000036,
                "durationTicks": 60,
                "midi": 72,
                "name": "C5",
                "ticks": 5280,
                "time": 13.2,
                "velocity": 0.5039370078740157
              },
              {
                "duration": 0.15000000000000036,
                "durationTicks": 60,
                "midi": 82,
                "name": "A#5",
                "ticks": 5340,
                "time": 13.35,
                "velocity": 0.5039370078740157
              },
              {
                "duration": 0.15000000000000036,
                "durationTicks": 60,
                "midi": 81,
                "name": "A5",
                "ticks": 5400,
                "time": 13.5,
                "velocity": 0.5039370078740157
              },
              {
                "duration": 0.14999999999999858,
                "durationTicks": 60,
                "midi": 79,
                "name": "G5",
                "ticks": 5460,
                "time": 13.65,
                "velocity": 0.5039370078740157
              },
              {
                "duration": 0.15000000000000036,
                "durationTicks": 60,
                "midi": 81,
                "name": "A5",
                "ticks": 5520,
                "time": 13.799999999999999,
                "velocity": 0.5039370078740157
              },
              {
                "duration": 0.15000000000000036,
                "durationTicks": 60,
                "midi": 82,
                "name": "A#5",
                "ticks": 5580,
                "time": 13.95,
                "velocity": 0.5039370078740157
              },
              {
                "duration": 0.15000000000000036,
                "durationTicks": 60,
                "midi": 79,
                "name": "G5",
                "ticks": 5640,
                "time": 14.1,
                "velocity": 0.5039370078740157
              },
              {
                "duration": 0.14999999999999858,
                "durationTicks": 60,
                "midi": 81,
                "name": "A5",
                "ticks": 5700,
                "time": 14.25,
                "velocity": 0.5039370078740157
              },
              {
                "duration": 0.15000000000000036,
                "durationTicks": 60,
                "midi": 70,
                "name": "A#4",
                "ticks": 5760,
                "time": 14.399999999999999,
                "velocity": 0.5039370078740157
              },
              {
                "duration": 0.15000000000000036,
                "durationTicks": 60,
                "midi": 82,
                "name": "A#5",
                "ticks": 5820,
                "time": 14.549999999999999,
                "velocity": 0.5039370078740157
              },
              {
                "duration": 0.15000000000000036,
                "durationTicks": 60,
                "midi": 81,
                "name": "A5",
                "ticks": 5880,
                "time": 14.7,
                "velocity": 0.5039370078740157
              },
              {
                "duration": 0.15000000000000036,
                "durationTicks": 60,
                "midi": 79,
                "name": "G5",
                "ticks": 5940,
                "time": 14.85,
                "velocity": 0.5039370078740157
              },
              {
                "duration": 0.14999999999999858,
                "durationTicks": 60,
                "midi": 81,
                "name": "A5",
                "ticks": 6000,
                "time": 15,
                "velocity": 0.5039370078740157
              },
              {
                "duration": 0.15000000000000036,
                "durationTicks": 60,
                "midi": 82,
                "name": "A#5",
                "ticks": 6060,
                "time": 15.149999999999999,
                "velocity": 0.5039370078740157
              },
              {
                "duration": 0.15000000000000036,
                "durationTicks": 60,
                "midi": 79,
                "name": "G5",
                "ticks": 6120,
                "time": 15.299999999999999,
                "velocity": 0.5039370078740157
              },
              {
                "duration": 0.15000000000000036,
                "durationTicks": 60,
                "midi": 81,
                "name": "A5",
                "ticks": 6180,
                "time": 15.45,
                "velocity": 0.5039370078740157
              },
              {
                "duration": 0.15000000000000036,
                "durationTicks": 60,
                "midi": 77,
                "name": "F5",
                "ticks": 6240,
                "time": 15.6,
                "velocity": 0.5039370078740157
              },
              {
                "duration": 0.14999999999999858,
                "durationTicks": 60,
                "midi": 82,
                "name": "A#5",
                "ticks": 6300,
                "time": 15.75,
                "velocity": 0.5039370078740157
              },
              {
                "duration": 0.15000000000000213,
                "durationTicks": 60,
                "midi": 80,
                "name": "G#5",
                "ticks": 6360,
                "time": 15.899999999999999,
                "velocity": 0.5039370078740157
              },
              {
                "duration": 0.14999999999999858,
                "durationTicks": 60,
                "midi": 79,
                "name": "G5",
                "ticks": 6420,
                "time": 16.05,
                "velocity": 0.5039370078740157
              },
              {
                "duration": 0.14999999999999858,
                "durationTicks": 60,
                "midi": 77,
                "name": "F5",
                "ticks": 6480,
                "time": 16.2,
                "velocity": 0.5039370078740157
              },
              {
                "duration": 0.15000000000000213,
                "durationTicks": 60,
                "midi": 79,
                "name": "G5",
                "ticks": 6540,
                "time": 16.349999999999998,
                "velocity": 0.5039370078740157
              },
              {
                "duration": 0.14999999999999858,
                "durationTicks": 60,
                "midi": 75,
                "name": "D#5",
                "ticks": 6600,
                "time": 16.5,
                "velocity": 0.5039370078740157
              },
              {
                "duration": 0.15000000000000213,
                "durationTicks": 60,
                "midi": 77,
                "name": "F5",
                "ticks": 6660,
                "time": 16.65,
                "velocity": 0.5039370078740157
              },
              {
                "duration": 0.14999999999999858,
                "durationTicks": 60,
                "midi": 74,
                "name": "D5",
                "ticks": 6720,
                "time": 16.8,
                "velocity": 0.5039370078740157
              },
              {
                "duration": 0.14999999999999858,
                "durationTicks": 60,
                "midi": 79,
                "name": "G5",
                "ticks": 6780,
                "time": 16.95,
                "velocity": 0.5039370078740157
              },
              {
                "duration": 0.15000000000000213,
                "durationTicks": 60,
                "midi": 77,
                "name": "F5",
                "ticks": 6840,
                "time": 17.099999999999998,
                "velocity": 0.5039370078740157
              },
              {
                "duration": 0.14999999999999858,
                "durationTicks": 60,
                "midi": 75,
                "name": "D#5",
                "ticks": 6900,
                "time": 17.25,
                "velocity": 0.5039370078740157
              },
              {
                "duration": 0.15000000000000213,
                "durationTicks": 60,
                "midi": 74,
                "name": "D5",
                "ticks": 6960,
                "time": 17.4,
                "velocity": 0.5039370078740157
              },
              {
                "duration": 0.14999999999999858,
                "durationTicks": 60,
                "midi": 75,
                "name": "D#5",
                "ticks": 7020,
                "time": 17.55,
                "velocity": 0.5039370078740157
              },
              {
                "duration": 0.14999999999999858,
                "durationTicks": 60,
                "midi": 72,
                "name": "C5",
                "ticks": 7080,
                "time": 17.7,
                "velocity": 0.5039370078740157
              },
              {
                "duration": 0.15000000000000213,
                "durationTicks": 60,
                "midi": 74,
                "name": "D5",
                "ticks": 7140,
                "time": 17.849999999999998,
                "velocity": 0.5039370078740157
              },
              {
                "duration": 0.14999999999999858,
                "durationTicks": 60,
                "midi": 65,
                "name": "F4",
                "ticks": 7200,
                "time": 18,
                "velocity": 0.5039370078740157
              },
              {
                "duration": 0.15000000000000213,
                "durationTicks": 60,
                "midi": 75,
                "name": "D#5",
                "ticks": 7260,
                "time": 18.15,
                "velocity": 0.5039370078740157
              },
              {
                "duration": 0.14999999999999858,
                "durationTicks": 60,
                "midi": 74,
                "name": "D5",
                "ticks": 7320,
                "time": 18.3,
                "velocity": 0.5039370078740157
              },
              {
                "duration": 0.14999999999999858,
                "durationTicks": 60,
                "midi": 72,
                "name": "C5",
                "ticks": 7380,
                "time": 18.45,
                "velocity": 0.5039370078740157
              },
              {
                "duration": 0.15000000000000213,
                "durationTicks": 60,
                "midi": 74,
                "name": "D5",
                "ticks": 7440,
                "time": 18.599999999999998,
                "velocity": 0.5039370078740157
              },
              {
                "duration": 0.14999999999999858,
                "durationTicks": 60,
                "midi": 75,
                "name": "D#5",
                "ticks": 7500,
                "time": 18.75,
                "velocity": 0.5039370078740157
              },
              {
                "duration": 0.15000000000000213,
                "durationTicks": 60,
                "midi": 72,
                "name": "C5",
                "ticks": 7560,
                "time": 18.9,
                "velocity": 0.5039370078740157
              },
              {
                "duration": 0.14999999999999858,
                "durationTicks": 60,
                "midi": 74,
                "name": "D5",
                "ticks": 7620,
                "time": 19.05,
                "velocity": 0.5039370078740157
              },
              {
                "duration": 0.3000000000000007,
                "durationTicks": 120,
                "midi": 75,
                "name": "D#5",
                "ticks": 7680,
                "time": 19.2,
                "velocity": 0.5039370078740157
              },
              {
                "duration": 0.14999999999999858,
                "durationTicks": 60,
                "midi": 70,
                "name": "A#4",
                "ticks": 7800,
                "time": 19.5,
                "velocity": 0.5039370078740157
              },
              {
                "duration": 0.15000000000000213,
                "durationTicks": 60,
                "midi": 68,
                "name": "G#4",
                "ticks": 7860,
                "time": 19.65,
                "velocity": 0.5039370078740157
              },
              {
                "duration": 0.29999999999999716,
                "durationTicks": 120,
                "midi": 70,
                "name": "A#4",
                "ticks": 7920,
                "time": 19.8,
                "velocity": 0.5039370078740157
              },
              {
                "duration": 0.3000000000000007,
                "durationTicks": 120,
                "midi": 72,
                "name": "C5",
                "ticks": 8040,
                "time": 20.099999999999998,
                "velocity": 0.5039370078740157
              },
              {
                "duration": 0.07499999999999929,
                "durationTicks": 30,
                "midi": 73,
                "name": "C#5",
                "ticks": 8160,
                "time": 20.4,
                "velocity": 0.5039370078740157
              },
              {
                "duration": 0.07500000000000284,
                "durationTicks": 30,
                "midi": 72,
                "name": "C5",
                "ticks": 8190,
                "time": 20.474999999999998,
                "velocity": 0.4409448818897638
              },
              {
                "duration": 0.4499999999999993,
                "durationTicks": 180,
                "midi": 73,
                "name": "C#5",
                "ticks": 8220,
                "time": 20.55,
                "velocity": 0.5039370078740157
              },
              {
                "duration": 0.5999999999999979,
                "durationTicks": 240,
                "midi": 75,
                "name": "D#5",
                "ticks": 8400,
                "time": 21,
                "velocity": 0.5039370078740157
              },
              {
                "duration": 0.15000000000000213,
                "durationTicks": 60,
                "midi": 72,
                "name": "C5",
                "ticks": 8760,
                "time": 21.9,
                "velocity": 0.5039370078740157
              },
              {
                "duration": 0.14999999999999858,
                "durationTicks": 60,
                "midi": 70,
                "name": "A#4",
                "ticks": 8820,
                "time": 22.05,
                "velocity": 0.5039370078740157
              },
              {
                "duration": 0.3000000000000007,
                "durationTicks": 120,
                "midi": 72,
                "name": "C5",
                "ticks": 8880,
                "time": 22.2,
                "velocity": 0.5039370078740157
              },
              {
                "duration": 0.3000000000000007,
                "durationTicks": 120,
                "midi": 74,
                "name": "D5",
                "ticks": 9000,
                "time": 22.5,
                "velocity": 0.5039370078740157
              },
              {
                "duration": 0.07499999999999929,
                "durationTicks": 30,
                "midi": 75,
                "name": "D#5",
                "ticks": 9120,
                "time": 22.8,
                "velocity": 0.5039370078740157
              },
              {
                "duration": 0.07499999999999929,
                "durationTicks": 30,
                "midi": 74,
                "name": "D5",
                "ticks": 9150,
                "time": 22.875,
                "velocity": 0.4409448818897638
              },
              {
                "duration": 0.4499999999999993,
                "durationTicks": 180,
                "midi": 75,
                "name": "D#5",
                "ticks": 9180,
                "time": 22.95,
                "velocity": 0.5039370078740157
              },
              {
                "duration": 0.6000000000000014,
                "durationTicks": 240,
                "midi": 77,
                "name": "F5",
                "ticks": 9360,
                "time": 23.4,
                "velocity": 0.5039370078740157
              },
              {
                "duration": 0.14999999999999858,
                "durationTicks": 60,
                "midi": 74,
                "name": "D5",
                "ticks": 9720,
                "time": 24.3,
                "velocity": 0.5039370078740157
              },
              {
                "duration": 0.14999999999999858,
                "durationTicks": 60,
                "midi": 72,
                "name": "C5",
                "ticks": 9780,
                "time": 24.45,
                "velocity": 0.5039370078740157
              },
              {
                "duration": 0.3000000000000007,
                "durationTicks": 120,
                "midi": 74,
                "name": "D5",
                "ticks": 9840,
                "time": 24.599999999999998,
                "velocity": 0.5039370078740157
              },
              {
                "duration": 0.3000000000000007,
                "durationTicks": 120,
                "midi": 75,
                "name": "D#5",
                "ticks": 9960,
                "time": 24.9,
                "velocity": 0.5039370078740157
              },
              {
                "duration": 0.07499999999999929,
                "durationTicks": 30,
                "midi": 77,
                "name": "F5",
                "ticks": 10080,
                "time": 25.2,
                "velocity": 0.5039370078740157
              },
              {
                "duration": 0.07499999999999929,
                "durationTicks": 30,
                "midi": 75,
                "name": "D#5",
                "ticks": 10110,
                "time": 25.275,
                "velocity": 0.4409448818897638
              },
              {
                "duration": 0.45000000000000284,
                "durationTicks": 180,
                "midi": 77,
                "name": "F5",
                "ticks": 10140,
                "time": 25.349999999999998,
                "velocity": 0.5039370078740157
              },
              {
                "duration": 0.5999999999999979,
                "durationTicks": 240,
                "midi": 79,
                "name": "G5",
                "ticks": 10320,
                "time": 25.8,
                "velocity": 0.5039370078740157
              },
              {
                "duration": 0.15000000000000213,
                "durationTicks": 60,
                "midi": 75,
                "name": "D#5",
                "ticks": 10560,
                "time": 26.4,
                "velocity": 0.5039370078740157
              },
              {
                "duration": 0.14999999999999858,
                "durationTicks": 60,
                "midi": 77,
                "name": "F5",
                "ticks": 10620,
                "time": 26.55,
                "velocity": 0.5039370078740157
              },
              {
                "duration": 0.14999999999999858,
                "durationTicks": 60,
                "midi": 75,
                "name": "D#5",
                "ticks": 10680,
                "time": 26.7,
                "velocity": 0.5039370078740157
              },
              {
                "duration": 0.15000000000000213,
                "durationTicks": 60,
                "midi": 74,
                "name": "D5",
                "ticks": 10740,
                "time": 26.849999999999998,
                "velocity": 0.5039370078740157
              },
              {
                "duration": 0.14999999999999858,
                "durationTicks": 60,
                "midi": 75,
                "name": "D#5",
                "ticks": 10800,
                "time": 27,
                "velocity": 0.5039370078740157
              },
              {
                "duration": 0.15000000000000213,
                "durationTicks": 60,
                "midi": 77,
                "name": "F5",
                "ticks": 10860,
                "time": 27.15,
                "velocity": 0.5039370078740157
              },
              {
                "duration": 0.14999999999999858,
                "durationTicks": 60,
                "midi": 74,
                "name": "D5",
                "ticks": 10920,
                "time": 27.3,
                "velocity": 0.5039370078740157
              },
              {
                "duration": 0.14999999999999858,
                "durationTicks": 60,
                "midi": 75,
                "name": "D#5",
                "ticks": 10980,
                "time": 27.45,
                "velocity": 0.5039370078740157
              },
              {
                "duration": 0.15000000000000213,
                "durationTicks": 60,
                "midi": 72,
                "name": "C5",
                "ticks": 11040,
                "time": 27.599999999999998,
                "velocity": 0.5039370078740157
              },
              {
                "duration": 0.14999999999999858,
                "durationTicks": 60,
                "midi": 84,
                "name": "C6",
                "ticks": 11100,
                "time": 27.75,
                "velocity": 0.5039370078740157
              },
              {
                "duration": 0.15000000000000213,
                "durationTicks": 60,
                "midi": 82,
                "name": "A#5",
                "ticks": 11160,
                "time": 27.9,
                "velocity": 0.5039370078740157
              },
              {
                "duration": 0.14999999999999858,
                "durationTicks": 60,
                "midi": 84,
                "name": "C6",
                "ticks": 11220,
                "time": 28.05,
                "velocity": 0.5039370078740157
              },
              {
                "duration": 0.14999999999999858,
                "durationTicks": 60,
                "midi": 80,
                "name": "G#5",
                "ticks": 11280,
                "time": 28.2,
                "velocity": 0.5039370078740157
              },
              {
                "duration": 0.15000000000000213,
                "durationTicks": 60,
                "midi": 82,
                "name": "A#5",
                "ticks": 11340,
                "time": 28.349999999999998,
                "velocity": 0.5039370078740157
              },
              {
                "duration": 0.14999999999999858,
                "durationTicks": 60,
                "midi": 79,
                "name": "G5",
                "ticks": 11400,
                "time": 28.5,
                "velocity": 0.5039370078740157
              },
              {
                "duration": 0.14999999999999858,
                "durationTicks": 60,
                "midi": 80,
                "name": "G#5",
                "ticks": 11460,
                "time": 28.65,
                "velocity": 0.5039370078740157
              },
              {
                "duration": 0.15000000000000213,
                "durationTicks": 60,
                "midi": 77,
                "name": "F5",
                "ticks": 11520,
                "time": 28.799999999999997,
                "velocity": 0.5039370078740157
              },
              {
                "duration": 0.14999999999999858,
                "durationTicks": 60,
                "midi": 80,
                "name": "G#5",
                "ticks": 11580,
                "time": 28.95,
                "velocity": 0.5039370078740157
              },
              {
                "duration": 0.15000000000000213,
                "durationTicks": 60,
                "midi": 79,
                "name": "G5",
                "ticks": 11640,
                "time": 29.099999999999998,
                "velocity": 0.5039370078740157
              },
              {
                "duration": 0.14999999999999858,
                "durationTicks": 60,
                "midi": 80,
                "name": "G#5",
                "ticks": 11700,
                "time": 29.25,
                "velocity": 0.5039370078740157
              },
              {
                "duration": 0.14999999999999858,
                "durationTicks": 60,
                "midi": 77,
                "name": "F5",
                "ticks": 11760,
                "time": 29.4,
                "velocity": 0.5039370078740157
              },
              {
                "duration": 0.15000000000000213,
                "durationTicks": 60,
                "midi": 79,
                "name": "G5",
                "ticks": 11820,
                "time": 29.549999999999997,
                "velocity": 0.5039370078740157
              },
              {
                "duration": 0.14999999999999858,
                "durationTicks": 60,
                "midi": 75,
                "name": "D#5",
                "ticks": 11880,
                "time": 29.7,
                "velocity": 0.5039370078740157
              },
              {
                "duration": 0.15000000000000213,
                "durationTicks": 60,
                "midi": 77,
                "name": "F5",
                "ticks": 11940,
                "time": 29.849999999999998,
                "velocity": 0.5039370078740157
              },
              {
                "duration": 0.14999999999999858,
                "durationTicks": 60,
                "midi": 74,
                "name": "D5",
                "ticks": 12000,
                "time": 30,
                "velocity": 0.5039370078740157
              },
              {
                "duration": 0.14999999999999858,
                "durationTicks": 60,
                "midi": 84,
                "name": "C6",
                "ticks": 12060,
                "time": 30.15,
                "velocity": 0.5039370078740157
              },
              {
                "duration": 0.15000000000000213,
                "durationTicks": 60,
                "midi": 83,
                "name": "B5",
                "ticks": 12120,
                "time": 30.299999999999997,
                "velocity": 0.5039370078740157
              },
              {
                "duration": 0.14999999999999858,
                "durationTicks": 60,
                "midi": 81,
                "name": "A5",
                "ticks": 12180,
                "time": 30.45,
                "velocity": 0.5039370078740157
              },
              {
                "duration": 0.15000000000000213,
                "durationTicks": 60,
                "midi": 83,
                "name": "B5",
                "ticks": 12240,
                "time": 30.599999999999998,
                "velocity": 0.5039370078740157
              },
              {
                "duration": 0.14999999999999858,
                "durationTicks": 60,
                "midi": 84,
                "name": "C6",
                "ticks": 12300,
                "time": 30.75,
                "velocity": 0.5039370078740157
              },
              {
                "duration": 0.14999999999999858,
                "durationTicks": 60,
                "midi": 81,
                "name": "A5",
                "ticks": 12360,
                "time": 30.9,
                "velocity": 0.5039370078740157
              },
              {
                "duration": 0.15000000000000213,
                "durationTicks": 60,
                "midi": 83,
                "name": "B5",
                "ticks": 12420,
                "time": 31.049999999999997,
                "velocity": 0.5039370078740157
              },
              {
                "duration": 0.14999999999999858,
                "durationTicks": 60,
                "midi": 72,
                "name": "C5",
                "ticks": 12480,
                "time": 31.2,
                "velocity": 0.5039370078740157
              },
              {
                "duration": 0.15000000000000213,
                "durationTicks": 60,
                "midi": 84,
                "name": "C6",
                "ticks": 12540,
                "time": 31.349999999999998,
                "velocity": 0.5039370078740157
              },
              {
                "duration": 0.14999999999999858,
                "durationTicks": 60,
                "midi": 82,
                "name": "A#5",
                "ticks": 12600,
                "time": 31.5,
                "velocity": 0.5039370078740157
              },
              {
                "duration": 0.14999999999999858,
                "durationTicks": 60,
                "midi": 80,
                "name": "G#5",
                "ticks": 12660,
                "time": 31.65,
                "velocity": 0.5039370078740157
              },
              {
                "duration": 0.15000000000000213,
                "durationTicks": 60,
                "midi": 82,
                "name": "A#5",
                "ticks": 12720,
                "time": 31.799999999999997,
                "velocity": 0.5039370078740157
              },
              {
                "duration": 0.15000000000000213,
                "durationTicks": 60,
                "midi": 84,
                "name": "C6",
                "ticks": 12780,
                "time": 31.95,
                "velocity": 0.5039370078740157
              },
              {
                "duration": 0.14999999999999858,
                "durationTicks": 60,
                "midi": 80,
                "name": "G#5",
                "ticks": 12840,
                "time": 32.1,
                "velocity": 0.5039370078740157
              },
              {
                "duration": 0.14999999999999858,
                "durationTicks": 60,
                "midi": 82,
                "name": "A#5",
                "ticks": 12900,
                "time": 32.25,
                "velocity": 0.5039370078740157
              },
              {
                "duration": 0.14999999999999858,
                "durationTicks": 60,
                "midi": 79,
                "name": "G5",
                "ticks": 12960,
                "time": 32.4,
                "velocity": 0.5039370078740157
              },
              {
                "duration": 0.14999999999999858,
                "durationTicks": 60,
                "midi": 84,
                "name": "C6",
                "ticks": 13020,
                "time": 32.55,
                "velocity": 0.5039370078740157
              },
              {
                "duration": 0.15000000000000568,
                "durationTicks": 60,
                "midi": 82,
                "name": "A#5",
                "ticks": 13080,
                "time": 32.699999999999996,
                "velocity": 0.5039370078740157
              },
              {
                "duration": 0.14999999999999858,
                "durationTicks": 60,
                "midi": 80,
                "name": "G#5",
                "ticks": 13140,
                "time": 32.85,
                "velocity": 0.5039370078740157
              },
              {
                "duration": 0.14999999999999858,
                "durationTicks": 60,
                "midi": 79,
                "name": "G5",
                "ticks": 13200,
                "time": 33,
                "velocity": 0.5039370078740157
              },
              {
                "duration": 0.14999999999999858,
                "durationTicks": 60,
                "midi": 80,
                "name": "G#5",
                "ticks": 13260,
                "time": 33.15,
                "velocity": 0.5039370078740157
              },
              {
                "duration": 0.14999999999999858,
                "durationTicks": 60,
                "midi": 77,
                "name": "F5",
                "ticks": 13320,
                "time": 33.3,
                "velocity": 0.5039370078740157
              },
              {
                "duration": 0.15000000000000568,
                "durationTicks": 60,
                "midi": 79,
                "name": "G5",
                "ticks": 13380,
                "time": 33.449999999999996,
                "velocity": 0.5039370078740157
              },
              {
                "duration": 0.14999999999999858,
                "durationTicks": 60,
                "midi": 76,
                "name": "E5",
                "ticks": 13440,
                "time": 33.6,
                "velocity": 0.5039370078740157
              },
              {
                "duration": 0.14999999999999858,
                "durationTicks": 60,
                "midi": 80,
                "name": "G#5",
                "ticks": 13500,
                "time": 33.75,
                "velocity": 0.5039370078740157
              },
              {
                "duration": 0.14999999999999858,
                "durationTicks": 60,
                "midi": 79,
                "name": "G5",
                "ticks": 13560,
                "time": 33.9,
                "velocity": 0.5039370078740157
              },
              {
                "duration": 0.14999999999999858,
                "durationTicks": 60,
                "midi": 77,
                "name": "F5",
                "ticks": 13620,
                "time": 34.05,
                "velocity": 0.5039370078740157
              },
              {
                "duration": 0.15000000000000568,
                "durationTicks": 60,
                "midi": 76,
                "name": "E5",
                "ticks": 13680,
                "time": 34.199999999999996,
                "velocity": 0.5039370078740157
              },
              {
                "duration": 0.14999999999999858,
                "durationTicks": 60,
                "midi": 77,
                "name": "F5",
                "ticks": 13740,
                "time": 34.35,
                "velocity": 0.5039370078740157
              },
              {
                "duration": 0.14999999999999858,
                "durationTicks": 60,
                "midi": 74,
                "name": "D5",
                "ticks": 13800,
                "time": 34.5,
                "velocity": 0.5039370078740157
              },
              {
                "duration": 0.14999999999999858,
                "durationTicks": 60,
                "midi": 76,
                "name": "E5",
                "ticks": 13860,
                "time": 34.65,
                "velocity": 0.5039370078740157
              },
              {
                "duration": 0.14999999999999858,
                "durationTicks": 60,
                "midi": 67,
                "name": "G4",
                "ticks": 13920,
                "time": 34.8,
                "velocity": 0.5039370078740157
              },
              {
                "duration": 0.15000000000000568,
                "durationTicks": 60,
                "midi": 77,
                "name": "F5",
                "ticks": 13980,
                "time": 34.949999999999996,
                "velocity": 0.5039370078740157
              },
              {
                "duration": 0.14999999999999858,
                "durationTicks": 60,
                "midi": 76,
                "name": "E5",
                "ticks": 14040,
                "time": 35.1,
                "velocity": 0.5039370078740157
              },
              {
                "duration": 0.14999999999999858,
                "durationTicks": 60,
                "midi": 74,
                "name": "D5",
                "ticks": 14100,
                "time": 35.25,
                "velocity": 0.5039370078740157
              },
              {
                "duration": 0.14999999999999858,
                "durationTicks": 60,
                "midi": 76,
                "name": "E5",
                "ticks": 14160,
                "time": 35.4,
                "velocity": 0.5039370078740157
              },
              {
                "duration": 0.14999999999999858,
                "durationTicks": 60,
                "midi": 77,
                "name": "F5",
                "ticks": 14220,
                "time": 35.55,
                "velocity": 0.5039370078740157
              },
              {
                "duration": 0.15000000000000568,
                "durationTicks": 60,
                "midi": 74,
                "name": "D5",
                "ticks": 14280,
                "time": 35.699999999999996,
                "velocity": 0.5039370078740157
              },
              {
                "duration": 0.14999999999999858,
                "durationTicks": 60,
                "midi": 76,
                "name": "E5",
                "ticks": 14340,
                "time": 35.85,
                "velocity": 0.5039370078740157
              },
              {
                "duration": 0.29999999999999716,
                "durationTicks": 120,
                "midi": 77,
                "name": "F5",
                "ticks": 14400,
                "time": 36,
                "velocity": 0.5039370078740157
              },
              {
                "duration": 0.14999999999999858,
                "durationTicks": 60,
                "midi": 65,
                "name": "F4",
                "ticks": 14520,
                "time": 36.3,
                "velocity": 0.5039370078740157
              },
              {
                "duration": 0.15000000000000568,
                "durationTicks": 60,
                "midi": 64,
                "name": "E4",
                "ticks": 14580,
                "time": 36.449999999999996,
                "velocity": 0.5039370078740157
              },
              {
                "duration": 0.29999999999999716,
                "durationTicks": 120,
                "midi": 65,
                "name": "F4",
                "ticks": 14640,
                "time": 36.6,
                "velocity": 0.5039370078740157
              },
              {
                "duration": 0.29999999999999716,
                "durationTicks": 120,
                "midi": 67,
                "name": "G4",
                "ticks": 14760,
                "time": 36.9,
                "velocity": 0.5039370078740157
              },
              {
                "duration": 0.07500000000000284,
                "durationTicks": 30,
                "midi": 68,
                "name": "G#4",
                "ticks": 14880,
                "time": 37.199999999999996,
                "velocity": 0.5039370078740157
              },
              {
                "duration": 0.07500000000000284,
                "durationTicks": 30,
                "midi": 67,
                "name": "G4",
                "ticks": 14910,
                "time": 37.275,
                "velocity": 0.4409448818897638
              },
              {
                "duration": 0.44999999999999574,
                "durationTicks": 180,
                "midi": 68,
                "name": "G#4",
                "ticks": 14940,
                "time": 37.35,
                "velocity": 0.5039370078740157
              },
              {
                "duration": 0.6000000000000014,
                "durationTicks": 240,
                "midi": 70,
                "name": "A#4",
                "ticks": 15120,
                "time": 37.8,
                "velocity": 0.5039370078740157
              },
              {
                "duration": 0.15000000000000568,
                "durationTicks": 60,
                "midi": 67,
                "name": "G4",
                "ticks": 15480,
                "time": 38.699999999999996,
                "velocity": 0.5039370078740157
              },
              {
                "duration": 0.14999999999999858,
                "durationTicks": 60,
                "midi": 65,
                "name": "F4",
                "ticks": 15540,
                "time": 38.85,
                "velocity": 0.5039370078740157
              },
              {
                "duration": 0.29999999999999716,
                "durationTicks": 120,
                "midi": 67,
                "name": "G4",
                "ticks": 15600,
                "time": 39,
                "velocity": 0.5039370078740157
              },
              {
                "duration": 0.30000000000000426,
                "durationTicks": 120,
                "midi": 68,
                "name": "G#4",
                "ticks": 15720,
                "time": 39.3,
                "velocity": 0.5039370078740157
              },
              {
                "duration": 0.07499999999999574,
                "durationTicks": 30,
                "midi": 70,
                "name": "A#4",
                "ticks": 15840,
                "time": 39.6,
                "velocity": 0.5039370078740157
              },
              {
                "duration": 0.07500000000000284,
                "durationTicks": 30,
                "midi": 68,
                "name": "G#4",
                "ticks": 15870,
                "time": 39.675,
                "velocity": 0.4409448818897638
              },
              {
                "duration": 0.44999999999999574,
                "durationTicks": 180,
                "midi": 70,
                "name": "A#4",
                "ticks": 15900,
                "time": 39.75,
                "velocity": 0.5039370078740157
              },
              {
                "duration": 0.6000000000000014,
                "durationTicks": 240,
                "midi": 72,
                "name": "C5",
                "ticks": 16080,
                "time": 40.199999999999996,
                "velocity": 0.5039370078740157
              },
              {
                "duration": 0.30000000000000426,
                "durationTicks": 120,
                "midi": 68,
                "name": "G#4",
                "ticks": 16320,
                "time": 40.8,
                "velocity": 0.5039370078740157
              },
              {
                "duration": 0.29999999999999716,
                "durationTicks": 120,
                "midi": 73,
                "name": "C#5",
                "ticks": 16440,
                "time": 41.1,
                "velocity": 0.5039370078740157
              },
              {
                "duration": 0.07500000000000284,
                "durationTicks": 30,
                "midi": 72,
                "name": "C5",
                "ticks": 16560,
                "time": 41.4,
                "velocity": 0.5039370078740157
              },
              {
                "duration": 0.07499999999999574,
                "durationTicks": 30,
                "midi": 73,
                "name": "C#5",
                "ticks": 16590,
                "time": 41.475,
                "velocity": 0.4409448818897638
              },
              {
                "duration": 0.14999999999999858,
                "durationTicks": 60,
                "midi": 72,
                "name": "C5",
                "ticks": 16620,
                "time": 41.55,
                "velocity": 0.5039370078740157
              },
              {
                "duration": 0.30000000000000426,
                "durationTicks": 120,
                "midi": 70,
                "name": "A#4",
                "ticks": 16680,
                "time": 41.699999999999996,
                "velocity": 0.5039370078740157
              },
              {
                "duration": 0.14999999999999858,
                "durationTicks": 60,
                "midi": 69,
                "name": "A4",
                "ticks": 16800,
                "time": 42,
                "velocity": 0.5039370078740157
              },
              {
                "duration": 0.14999999999999858,
                "durationTicks": 60,
                "midi": 70,
                "name": "A#4",
                "ticks": 16860,
                "time": 42.15,
                "velocity": 0.5039370078740157
              },
              {
                "duration": 0.14999999999999858,
                "durationTicks": 60,
                "midi": 72,
                "name": "C5",
                "ticks": 16920,
                "time": 42.3,
                "velocity": 0.5039370078740157
              },
              {
                "duration": 0.15000000000000568,
                "durationTicks": 60,
                "midi": 70,
                "name": "A#4",
                "ticks": 16980,
                "time": 42.449999999999996,
                "velocity": 0.5039370078740157
              },
              {
                "duration": 0.29999999999999716,
                "durationTicks": 120,
                "midi": 69,
                "name": "A4",
                "ticks": 17040,
                "time": 42.6,
                "velocity": 0.5039370078740157
              },
              {
                "duration": 0.29999999999999716,
                "durationTicks": 120,
                "midi": 67,
                "name": "G4",
                "ticks": 17160,
                "time": 42.9,
                "velocity": 0.5039370078740157
              },
              {
                "duration": 0.30000000000000426,
                "durationTicks": 120,
                "midi": 65,
                "name": "F4",
                "ticks": 17280,
                "time": 43.199999999999996,
                "velocity": 0.5039370078740157
              },
              {
                "duration": 0.29999999999999716,
                "durationTicks": 120,
                "midi": 69,
                "name": "A4",
                "ticks": 17400,
                "time": 43.5,
                "velocity": 0.5039370078740157
              },
              {
                "duration": 0.30000000000000426,
                "durationTicks": 120,
                "midi": 72,
                "name": "C5",
                "ticks": 17520,
                "time": 43.8,
                "velocity": 0.5039370078740157
              },
              {
                "duration": 0.44999999999999574,
                "durationTicks": 180,
                "midi": 75,
                "name": "D#5",
                "ticks": 17640,
                "time": 44.1,
                "velocity": 0.5039370078740157
              },
              {
                "duration": 0.14999999999999858,
                "durationTicks": 60,
                "midi": 72,
                "name": "C5",
                "ticks": 17820,
                "time": 44.55,
                "velocity": 0.5039370078740157
              },
              {
                "duration": 0.15000000000000568,
                "durationTicks": 60,
                "midi": 73,
                "name": "C#5",
                "ticks": 17880,
                "time": 44.699999999999996,
                "velocity": 0.5039370078740157
              },
              {
                "duration": 0.14999999999999858,
                "durationTicks": 60,
                "midi": 75,
                "name": "D#5",
                "ticks": 17940,
                "time": 44.85,
                "velocity": 0.5039370078740157
              },
              {
                "duration": 0.29999999999999716,
                "durationTicks": 120,
                "midi": 77,
                "name": "F5",
                "ticks": 18000,
                "time": 45,
                "velocity": 0.5039370078740157
              },
              {
                "duration": 0.30000000000000426,
                "durationTicks": 120,
                "midi": 75,
                "name": "D#5",
                "ticks": 18120,
                "time": 45.3,
                "velocity": 0.5039370078740157
              },
              {
                "duration": 0.14999999999999858,
                "durationTicks": 60,
                "midi": 73,
                "name": "C#5",
                "ticks": 18240,
                "time": 45.6,
                "velocity": 0.5039370078740157
              },
              {
                "duration": 0.14999999999999858,
                "durationTicks": 60,
                "midi": 75,
                "name": "D#5",
                "ticks": 18300,
                "time": 45.75,
                "velocity": 0.5039370078740157
              },
              {
                "duration": 0.14999999999999858,
                "durationTicks": 60,
                "midi": 73,
                "name": "C#5",
                "ticks": 18360,
                "time": 45.9,
                "velocity": 0.5039370078740157
              },
              {
                "duration": 0.14999999999999858,
                "durationTicks": 60,
                "midi": 72,
                "name": "C5",
                "ticks": 18420,
                "time": 46.05,
                "velocity": 0.5039370078740157
              },
              {
                "duration": 0.15000000000000568,
                "durationTicks": 60,
                "midi": 73,
                "name": "C#5",
                "ticks": 18480,
                "time": 46.199999999999996,
                "velocity": 0.5039370078740157
              },
              {
                "duration": 0.14999999999999858,
                "durationTicks": 60,
                "midi": 75,
                "name": "D#5",
                "ticks": 18540,
                "time": 46.35,
                "velocity": 0.5039370078740157
              },
              {
                "duration": 0.14999999999999858,
                "durationTicks": 60,
                "midi": 72,
                "name": "C5",
                "ticks": 18600,
                "time": 46.5,
                "velocity": 0.5039370078740157
              },
              {
                "duration": 0.14999999999999858,
                "durationTicks": 60,
                "midi": 73,
                "name": "C#5",
                "ticks": 18660,
                "time": 46.65,
                "velocity": 0.5039370078740157
              },
              {
                "duration": 0.14999999999999858,
                "durationTicks": 60,
                "midi": 70,
                "name": "A#4",
                "ticks": 18720,
                "time": 46.8,
                "velocity": 0.5039370078740157
              },
              {
                "duration": 0.15000000000000568,
                "durationTicks": 60,
                "midi": 80,
                "name": "G#5",
                "ticks": 18780,
                "time": 46.949999999999996,
                "velocity": 0.5039370078740157
              },
              {
                "duration": 0.14999999999999858,
                "durationTicks": 60,
                "midi": 79,
                "name": "G5",
                "ticks": 18840,
                "time": 47.1,
                "velocity": 0.5039370078740157
              },
              {
                "duration": 0.14999999999999858,
                "durationTicks": 60,
                "midi": 77,
                "name": "F5",
                "ticks": 18900,
                "time": 47.25,
                "velocity": 0.5039370078740157
              },
              {
                "duration": 0.14999999999999858,
                "durationTicks": 60,
                "midi": 79,
                "name": "G5",
                "ticks": 18960,
                "time": 47.4,
                "velocity": 0.5039370078740157
              },
              {
                "duration": 0.14999999999999858,
                "durationTicks": 60,
                "midi": 80,
                "name": "G#5",
                "ticks": 19020,
                "time": 47.55,
                "velocity": 0.5039370078740157
              },
              {
                "duration": 0.15000000000000568,
                "durationTicks": 60,
                "midi": 77,
                "name": "F5",
                "ticks": 19080,
                "time": 47.699999999999996,
                "velocity": 0.5039370078740157
              },
              {
                "duration": 0.14999999999999858,
                "durationTicks": 60,
                "midi": 79,
                "name": "G5",
                "ticks": 19140,
                "time": 47.85,
                "velocity": 0.5039370078740157
              },
              {
                "duration": 0.14999999999999858,
                "durationTicks": 60,
                "midi": 80,
                "name": "G#5",
                "ticks": 19200,
                "time": 48,
                "velocity": 0.5039370078740157
              },
              {
                "duration": 0.14999999999999858,
                "durationTicks": 60,
                "midi": 73,
                "name": "C#5",
                "ticks": 19260,
                "time": 48.15,
                "velocity": 0.5039370078740157
              },
              {
                "duration": 0.14999999999999858,
                "durationTicks": 60,
                "midi": 72,
                "name": "C5",
                "ticks": 19320,
                "time": 48.3,
                "velocity": 0.5039370078740157
              },
              {
                "duration": 0.15000000000000568,
                "durationTicks": 60,
                "midi": 70,
                "name": "A#4",
                "ticks": 19380,
                "time": 48.449999999999996,
                "velocity": 0.5039370078740157
              },
              {
                "duration": 0.14999999999999858,
                "durationTicks": 60,
                "midi": 72,
                "name": "C5",
                "ticks": 19440,
                "time": 48.6,
                "velocity": 0.5039370078740157
              },
              {
                "duration": 0.14999999999999858,
                "durationTicks": 60,
                "midi": 73,
                "name": "C#5",
                "ticks": 19500,
                "time": 48.75,
                "velocity": 0.5039370078740157
              },
              {
                "duration": 0.14999999999999858,
                "durationTicks": 60,
                "midi": 70,
                "name": "A#4",
                "ticks": 19560,
                "time": 48.9,
                "velocity": 0.5039370078740157
              },
              {
                "duration": 0.14999999999999858,
                "durationTicks": 60,
                "midi": 72,
                "name": "C5",
                "ticks": 19620,
                "time": 49.05,
                "velocity": 0.5039370078740157
              },
              {
                "duration": 0.15000000000000568,
                "durationTicks": 60,
                "midi": 68,
                "name": "G#4",
                "ticks": 19680,
                "time": 49.199999999999996,
                "velocity": 0.5039370078740157
              },
              {
                "duration": 0.14999999999999858,
                "durationTicks": 60,
                "midi": 79,
                "name": "G5",
                "ticks": 19740,
                "time": 49.35,
                "velocity": 0.5039370078740157
              },
              {
                "duration": 0.14999999999999858,
                "durationTicks": 60,
                "midi": 77,
                "name": "F5",
                "ticks": 19800,
                "time": 49.5,
                "velocity": 0.5039370078740157
              },
              {
                "duration": 0.14999999999999858,
                "durationTicks": 60,
                "midi": 76,
                "name": "E5",
                "ticks": 19860,
                "time": 49.65,
                "velocity": 0.5039370078740157
              },
              {
                "duration": 0.14999999999999858,
                "durationTicks": 60,
                "midi": 77,
                "name": "F5",
                "ticks": 19920,
                "time": 49.8,
                "velocity": 0.5039370078740157
              },
              {
                "duration": 0.15000000000000568,
                "durationTicks": 60,
                "midi": 79,
                "name": "G5",
                "ticks": 19980,
                "time": 49.949999999999996,
                "velocity": 0.5039370078740157
              },
              {
                "duration": 0.14999999999999858,
                "durationTicks": 60,
                "midi": 76,
                "name": "E5",
                "ticks": 20040,
                "time": 50.1,
                "velocity": 0.5039370078740157
              },
              {
                "duration": 0.14999999999999858,
                "durationTicks": 60,
                "midi": 77,
                "name": "F5",
                "ticks": 20100,
                "time": 50.25,
                "velocity": 0.5039370078740157
              },
              {
                "duration": 0.14999999999999858,
                "durationTicks": 60,
                "midi": 79,
                "name": "G5",
                "ticks": 20160,
                "time": 50.4,
                "velocity": 0.5039370078740157
              },
              {
                "duration": 0.14999999999999858,
                "durationTicks": 60,
                "midi": 72,
                "name": "C5",
                "ticks": 20220,
                "time": 50.55,
                "velocity": 0.5039370078740157
              },
              {
                "duration": 0.15000000000000568,
                "durationTicks": 60,
                "midi": 70,
                "name": "A#4",
                "ticks": 20280,
                "time": 50.699999999999996,
                "velocity": 0.5039370078740157
              },
              {
                "duration": 0.14999999999999858,
                "durationTicks": 60,
                "midi": 68,
                "name": "G#4",
                "ticks": 20340,
                "time": 50.85,
                "velocity": 0.5039370078740157
              },
              {
                "duration": 0.14999999999999858,
                "durationTicks": 60,
                "midi": 70,
                "name": "A#4",
                "ticks": 20400,
                "time": 51,
                "velocity": 0.5039370078740157
              },
              {
                "duration": 0.14999999999999858,
                "durationTicks": 60,
                "midi": 72,
                "name": "C5",
                "ticks": 20460,
                "time": 51.15,
                "velocity": 0.5039370078740157
              },
              {
                "duration": 0.14999999999999858,
                "durationTicks": 60,
                "midi": 68,
                "name": "G#4",
                "ticks": 20520,
                "time": 51.3,
                "velocity": 0.5039370078740157
              },
              {
                "duration": 0.15000000000000568,
                "durationTicks": 60,
                "midi": 70,
                "name": "A#4",
                "ticks": 20580,
                "time": 51.449999999999996,
                "velocity": 0.5039370078740157
              },
              {
                "duration": 0.14999999999999858,
                "durationTicks": 60,
                "midi": 67,
                "name": "G4",
                "ticks": 20640,
                "time": 51.6,
                "velocity": 0.5039370078740157
              },
              {
                "duration": 0.14999999999999858,
                "durationTicks": 60,
                "midi": 77,
                "name": "F5",
                "ticks": 20700,
                "time": 51.75,
                "velocity": 0.5039370078740157
              },
              {
                "duration": 0.14999999999999858,
                "durationTicks": 60,
                "midi": 76,
                "name": "E5",
                "ticks": 20760,
                "time": 51.9,
                "velocity": 0.5039370078740157
              },
              {
                "duration": 0.14999999999999858,
                "durationTicks": 60,
                "midi": 74,
                "name": "D5",
                "ticks": 20820,
                "time": 52.05,
                "velocity": 0.5039370078740157
              },
              {
                "duration": 0.15000000000000568,
                "durationTicks": 60,
                "midi": 76,
                "name": "E5",
                "ticks": 20880,
                "time": 52.199999999999996,
                "velocity": 0.5039370078740157
              },
              {
                "duration": 0.14999999999999858,
                "durationTicks": 60,
                "midi": 77,
                "name": "F5",
                "ticks": 20940,
                "time": 52.35,
                "velocity": 0.5039370078740157
              },
              {
                "duration": 0.14999999999999858,
                "durationTicks": 60,
                "midi": 74,
                "name": "D5",
                "ticks": 21000,
                "time": 52.5,
                "velocity": 0.5039370078740157
              },
              {
                "duration": 0.14999999999999858,
                "durationTicks": 60,
                "midi": 76,
                "name": "E5",
                "ticks": 21060,
                "time": 52.65,
                "velocity": 0.5039370078740157
              },
              {
                "duration": 0.30000000000000426,
                "durationTicks": 120,
                "midi": 77,
                "name": "F5",
                "ticks": 21120,
                "time": 52.8,
                "velocity": 0.5039370078740157
              },
              {
                "duration": 0.14999999999999858,
                "durationTicks": 60,
                "midi": 68,
                "name": "G#4",
                "ticks": 21240,
                "time": 53.1,
                "velocity": 0.5039370078740157
              },
              {
                "duration": 0.14999999999999858,
                "durationTicks": 60,
                "midi": 67,
                "name": "G4",
                "ticks": 21300,
                "time": 53.25,
                "velocity": 0.5039370078740157
              },
              {
                "duration": 0.29999999999999716,
                "durationTicks": 120,
                "midi": 68,
                "name": "G#4",
                "ticks": 21360,
                "time": 53.4,
                "velocity": 0.5039370078740157
              },
              {
                "duration": 0.30000000000000426,
                "durationTicks": 120,
                "midi": 70,
                "name": "A#4",
                "ticks": 21480,
                "time": 53.699999999999996,
                "velocity": 0.5039370078740157
              },
              {
                "duration": 0.07499999999999574,
                "durationTicks": 30,
                "midi": 72,
                "name": "C5",
                "ticks": 21600,
                "time": 54,
                "velocity": 0.5039370078740157
              },
              {
                "duration": 0.07500000000000284,
                "durationTicks": 30,
                "midi": 70,
                "name": "A#4",
                "ticks": 21630,
                "time": 54.074999999999996,
                "velocity": 0.4409448818897638
              },
              {
                "duration": 0.45000000000000284,
                "durationTicks": 180,
                "midi": 72,
                "name": "C5",
                "ticks": 21660,
                "time": 54.15,
                "velocity": 0.5039370078740157
              },
              {
                "duration": 0.5999999999999943,
                "durationTicks": 240,
                "midi": 73,
                "name": "C#5",
                "ticks": 21840,
                "time": 54.6,
                "velocity": 0.5039370078740157
              },
              {
                "duration": 0.14999999999999858,
                "durationTicks": 60,
                "midi": 70,
                "name": "A#4",
                "ticks": 22200,
                "time": 55.5,
                "velocity": 0.5039370078740157
              },
              {
                "duration": 0.14999999999999858,
                "durationTicks": 60,
                "midi": 68,
                "name": "G#4",
                "ticks": 22260,
                "time": 55.65,
                "velocity": 0.5039370078740157
              },
              {
                "duration": 0.30000000000000426,
                "durationTicks": 120,
                "midi": 70,
                "name": "A#4",
                "ticks": 22320,
                "time": 55.8,
                "velocity": 0.5039370078740157
              },
              {
                "duration": 0.29999999999999716,
                "durationTicks": 120,
                "midi": 72,
                "name": "C5",
                "ticks": 22440,
                "time": 56.1,
                "velocity": 0.5039370078740157
              },
              {
                "duration": 0.07500000000000284,
                "durationTicks": 30,
                "midi": 73,
                "name": "C#5",
                "ticks": 22560,
                "time": 56.4,
                "velocity": 0.5039370078740157
              },
              {
                "duration": 0.07499999999999574,
                "durationTicks": 30,
                "midi": 72,
                "name": "C5",
                "ticks": 22590,
                "time": 56.475,
                "velocity": 0.4409448818897638
              },
              {
                "duration": 0.45000000000000284,
                "durationTicks": 180,
                "midi": 73,
                "name": "C#5",
                "ticks": 22620,
                "time": 56.55,
                "velocity": 0.5039370078740157
              },
              {
                "duration": 0.5999999999999943,
                "durationTicks": 240,
                "midi": 75,
                "name": "D#5",
                "ticks": 22800,
                "time": 57,
                "velocity": 0.5039370078740157
              },
              {
                "duration": 0.15000000000000568,
                "durationTicks": 60,
                "midi": 72,
                "name": "C5",
                "ticks": 23040,
                "time": 57.599999999999994,
                "velocity": 0.5039370078740157
              },
              {
                "duration": 0.14999999999999858,
                "durationTicks": 60,
                "midi": 80,
                "name": "G#5",
                "ticks": 23100,
                "time": 57.75,
                "velocity": 0.5039370078740157
              },
              {
                "duration": 0.14999999999999858,
                "durationTicks": 60,
                "midi": 79,
                "name": "G5",
                "ticks": 23160,
                "time": 57.9,
                "velocity": 0.5039370078740157
              },
              {
                "duration": 0.14999999999999858,
                "durationTicks": 60,
                "midi": 80,
                "name": "G#5",
                "ticks": 23220,
                "time": 58.05,
                "velocity": 0.5039370078740157
              },
              {
                "duration": 0.14999999999999858,
                "durationTicks": 60,
                "midi": 77,
                "name": "F5",
                "ticks": 23280,
                "time": 58.199999999999996,
                "velocity": 0.5039370078740157
              },
              {
                "duration": 0.15000000000000568,
                "durationTicks": 60,
                "midi": 79,
                "name": "G5",
                "ticks": 23340,
                "time": 58.349999999999994,
                "velocity": 0.5039370078740157
              },
              {
                "duration": 0.14999999999999858,
                "durationTicks": 60,
                "midi": 75,
                "name": "D#5",
                "ticks": 23400,
                "time": 58.5,
                "velocity": 0.5039370078740157
              },
              {
                "duration": 0.14999999999999858,
                "durationTicks": 60,
                "midi": 77,
                "name": "F5",
                "ticks": 23460,
                "time": 58.65,
                "velocity": 0.5039370078740157
              },
              {
                "duration": 0.14999999999999858,
                "durationTicks": 60,
                "midi": 73,
                "name": "C#5",
                "ticks": 23520,
                "time": 58.8,
                "velocity": 0.5039370078740157
              },
              {
                "duration": 0.14999999999999858,
                "durationTicks": 60,
                "midi": 82,
                "name": "A#5",
                "ticks": 23580,
                "time": 58.949999999999996,
                "velocity": 0.5039370078740157
              },
              {
                "duration": 0.15000000000000568,
                "durationTicks": 60,
                "midi": 80,
                "name": "G#5",
                "ticks": 23640,
                "time": 59.099999999999994,
                "velocity": 0.5039370078740157
              },
              {
                "duration": 0.14999999999999858,
                "durationTicks": 60,
                "midi": 82,
                "name": "A#5",
                "ticks": 23700,
                "time": 59.25,
                "velocity": 0.5039370078740157
              },
              {
                "duration": 0.14999999999999858,
                "durationTicks": 60,
                "midi": 72,
                "name": "C5",
                "ticks": 23760,
                "time": 59.4,
                "velocity": 0.5039370078740157
              },
              {
                "duration": 0.14999999999999858,
                "durationTicks": 60,
                "midi": 73,
                "name": "C#5",
                "ticks": 23820,
                "time": 59.55,
                "velocity": 0.5039370078740157
              },
              {
                "duration": 0.14999999999999858,
                "durationTicks": 60,
                "midi": 70,
                "name": "A#4",
                "ticks": 23880,
                "time": 59.699999999999996,
                "velocity": 0.5039370078740157
              },
              {
                "duration": 0.15000000000000568,
                "durationTicks": 60,
                "midi": 72,
                "name": "C5",
                "ticks": 23940,
                "time": 59.849999999999994,
                "velocity": 0.5039370078740157
              },
              {
                "duration": 0.14999999999999858,
                "durationTicks": 60,
                "midi": 68,
                "name": "G#4",
                "ticks": 24000,
                "time": 60,
                "velocity": 0.5039370078740157
              },
              {
                "duration": 0.14999999999999858,
                "durationTicks": 60,
                "midi": 72,
                "name": "C5",
                "ticks": 24060,
                "time": 60.15,
                "velocity": 0.5039370078740157
              },
              {
                "duration": 0.14999999999999858,
                "durationTicks": 60,
                "midi": 70,
                "name": "A#4",
                "ticks": 24120,
                "time": 60.3,
                "velocity": 0.5039370078740157
              },
              {
                "duration": 0.14999999999999858,
                "durationTicks": 60,
                "midi": 72,
                "name": "C5",
                "ticks": 24180,
                "time": 60.449999999999996,
                "velocity": 0.5039370078740157
              },
              {
                "duration": 0.15000000000000568,
                "durationTicks": 60,
                "midi": 68,
                "name": "G#4",
                "ticks": 24240,
                "time": 60.599999999999994,
                "velocity": 0.5039370078740157
              },
              {
                "duration": 0.14999999999999858,
                "durationTicks": 60,
                "midi": 70,
                "name": "A#4",
                "ticks": 24300,
                "time": 60.75,
                "velocity": 0.5039370078740157
              },
              {
                "duration": 0.14999999999999858,
                "durationTicks": 60,
                "midi": 67,
                "name": "G4",
                "ticks": 24360,
                "time": 60.9,
                "velocity": 0.5039370078740157
              },
              {
                "duration": 0.14999999999999858,
                "durationTicks": 60,
                "midi": 68,
                "name": "G#4",
                "ticks": 24420,
                "time": 61.05,
                "velocity": 0.5039370078740157
              },
              {
                "duration": 0.14999999999999858,
                "durationTicks": 60,
                "midi": 65,
                "name": "F4",
                "ticks": 24480,
                "time": 61.199999999999996,
                "velocity": 0.5039370078740157
              },
              {
                "duration": 0.15000000000000568,
                "durationTicks": 60,
                "midi": 75,
                "name": "D#5",
                "ticks": 24540,
                "time": 61.349999999999994,
                "velocity": 0.5039370078740157
              },
              {
                "duration": 0.14999999999999858,
                "durationTicks": 60,
                "midi": 74,
                "name": "D5",
                "ticks": 24600,
                "time": 61.5,
                "velocity": 0.5039370078740157
              },
              {
                "duration": 0.14999999999999858,
                "durationTicks": 60,
                "midi": 72,
                "name": "C5",
                "ticks": 24660,
                "time": 61.65,
                "velocity": 0.5039370078740157
              },
              {
                "duration": 0.14999999999999858,
                "durationTicks": 60,
                "midi": 74,
                "name": "D5",
                "ticks": 24720,
                "time": 61.8,
                "velocity": 0.5039370078740157
              },
              {
                "duration": 0.14999999999999858,
                "durationTicks": 60,
                "midi": 75,
                "name": "D#5",
                "ticks": 24780,
                "time": 61.949999999999996,
                "velocity": 0.5039370078740157
              },
              {
                "duration": 0.15000000000000568,
                "durationTicks": 60,
                "midi": 72,
                "name": "C5",
                "ticks": 24840,
                "time": 62.099999999999994,
                "velocity": 0.5039370078740157
              },
              {
                "duration": 0.14999999999999858,
                "durationTicks": 60,
                "midi": 74,
                "name": "D5",
                "ticks": 24900,
                "time": 62.25,
                "velocity": 0.5039370078740157
              },
              {
                "duration": 0.29999999999999716,
                "durationTicks": 120,
                "midi": 75,
                "name": "D#5",
                "ticks": 24960,
                "time": 62.4,
                "velocity": 0.5039370078740157
              },
              {
                "duration": 0.14999999999999858,
                "durationTicks": 60,
                "midi": 63,
                "name": "D#4",
                "ticks": 25080,
                "time": 62.699999999999996,
                "velocity": 0.5039370078740157
              },
              {
                "duration": 0.15000000000000568,
                "durationTicks": 60,
                "midi": 62,
                "name": "D4",
                "ticks": 25140,
                "time": 62.849999999999994,
                "velocity": 0.5039370078740157
              },
              {
                "duration": 0.29999999999999716,
                "durationTicks": 120,
                "midi": 63,
                "name": "D#4",
                "ticks": 25200,
                "time": 63,
                "velocity": 0.5039370078740157
              },
              {
                "duration": 0.29999999999999716,
                "durationTicks": 120,
                "midi": 65,
                "name": "F4",
                "ticks": 25320,
                "time": 63.3,
                "velocity": 0.5039370078740157
              },
              {
                "duration": 0.07500000000000284,
                "durationTicks": 30,
                "midi": 67,
                "name": "G4",
                "ticks": 25440,
                "time": 63.599999999999994,
                "velocity": 0.5039370078740157
              },
              {
                "duration": 0.07500000000000284,
                "durationTicks": 30,
                "midi": 65,
                "name": "F4",
                "ticks": 25470,
                "time": 63.675,
                "velocity": 0.4409448818897638
              },
              {
                "duration": 0.45000000000000284,
                "durationTicks": 180,
                "midi": 67,
                "name": "G4",
                "ticks": 25500,
                "time": 63.75,
                "velocity": 0.5039370078740157
              },
              {
                "duration": 0.5999999999999943,
                "durationTicks": 240,
                "midi": 68,
                "name": "G#4",
                "ticks": 25680,
                "time": 64.2,
                "velocity": 0.5039370078740157
              },
              {
                "duration": 0.15000000000000568,
                "durationTicks": 60,
                "midi": 65,
                "name": "F4",
                "ticks": 26040,
                "time": 65.1,
                "velocity": 0.5039370078740157
              },
              {
                "duration": 0.14999999999999147,
                "durationTicks": 60,
                "midi": 63,
                "name": "D#4",
                "ticks": 26100,
                "time": 65.25,
                "velocity": 0.5039370078740157
              },
              {
                "duration": 0.30000000000001137,
                "durationTicks": 120,
                "midi": 65,
                "name": "F4",
                "ticks": 26160,
                "time": 65.39999999999999,
                "velocity": 0.5039370078740157
              },
              {
                "duration": 0.29999999999999716,
                "durationTicks": 120,
                "midi": 67,
                "name": "G4",
                "ticks": 26280,
                "time": 65.7,
                "velocity": 0.5039370078740157
              },
              {
                "duration": 0.07500000000000284,
                "durationTicks": 30,
                "midi": 68,
                "name": "G#4",
                "ticks": 26400,
                "time": 66,
                "velocity": 0.5039370078740157
              },
              {
                "duration": 0.07499999999998863,
                "durationTicks": 30,
                "midi": 67,
                "name": "G4",
                "ticks": 26430,
                "time": 66.075,
                "velocity": 0.4409448818897638
              },
              {
                "duration": 0.45000000000000284,
                "durationTicks": 180,
                "midi": 68,
                "name": "G#4",
                "ticks": 26460,
                "time": 66.14999999999999,
                "velocity": 0.5039370078740157
              },
              {
                "duration": 0.6000000000000085,
                "durationTicks": 240,
                "midi": 70,
                "name": "A#4",
                "ticks": 26640,
                "time": 66.6,
                "velocity": 0.5039370078740157
              },
              {
                "duration": 0.29999999999999716,
                "durationTicks": 120,
                "midi": 67,
                "name": "G4",
                "ticks": 26880,
                "time": 67.2,
                "velocity": 0.5039370078740157
              },
              {
                "duration": 0.29999999999999716,
                "durationTicks": 120,
                "midi": 72,
                "name": "C5",
                "ticks": 27000,
                "time": 67.5,
                "velocity": 0.5039370078740157
              },
              {
                "duration": 0.07500000000000284,
                "durationTicks": 30,
                "midi": 70,
                "name": "A#4",
                "ticks": 27120,
                "time": 67.8,
                "velocity": 0.5039370078740157
              },
              {
                "duration": 0.07500000000000284,
                "durationTicks": 30,
                "midi": 72,
                "name": "C5",
                "ticks": 27150,
                "time": 67.875,
                "velocity": 0.4409448818897638
              },
              {
                "duration": 0.14999999999999147,
                "durationTicks": 60,
                "midi": 70,
                "name": "A#4",
                "ticks": 27180,
                "time": 67.95,
                "velocity": 0.5039370078740157
              },
              {
                "duration": 0.29999999999999716,
                "durationTicks": 120,
                "midi": 68,
                "name": "G#4",
                "ticks": 27240,
                "time": 68.1,
                "velocity": 0.5039370078740157
              },
              {
                "duration": 0.15000000000000568,
                "durationTicks": 60,
                "midi": 67,
                "name": "G4",
                "ticks": 27360,
                "time": 68.39999999999999,
                "velocity": 0.5039370078740157
              },
              {
                "duration": 0.15000000000000568,
                "durationTicks": 60,
                "midi": 68,
                "name": "G#4",
                "ticks": 27420,
                "time": 68.55,
                "velocity": 0.5039370078740157
              },
              {
                "duration": 0.14999999999999147,
                "durationTicks": 60,
                "midi": 70,
                "name": "A#4",
                "ticks": 27480,
                "time": 68.7,
                "velocity": 0.5039370078740157
              },
              {
                "duration": 0.15000000000000568,
                "durationTicks": 60,
                "midi": 68,
                "name": "G#4",
                "ticks": 27540,
                "time": 68.85,
                "velocity": 0.5039370078740157
              },
              {
                "duration": 0.29999999999999716,
                "durationTicks": 120,
                "midi": 67,
                "name": "G4",
                "ticks": 27600,
                "time": 69,
                "velocity": 0.5039370078740157
              },
              {
                "duration": 0.29999999999999716,
                "durationTicks": 120,
                "midi": 65,
                "name": "F4",
                "ticks": 27720,
                "time": 69.3,
                "velocity": 0.5039370078740157
              },
              {
                "duration": 0.29999999999999716,
                "durationTicks": 120,
                "midi": 63,
                "name": "D#4",
                "ticks": 27840,
                "time": 69.6,
                "velocity": 0.5039370078740157
              },
              {
                "duration": 0.30000000000001137,
                "durationTicks": 120,
                "midi": 77,
                "name": "F5",
                "ticks": 27960,
                "time": 69.89999999999999,
                "velocity": 0.5039370078740157
              },
              {
                "duration": 0.07499999999998863,
                "durationTicks": 30,
                "midi": 75,
                "name": "D#5",
                "ticks": 28080,
                "time": 70.2,
                "velocity": 0.5039370078740157
              },
              {
                "duration": 0.07500000000000284,
                "durationTicks": 30,
                "midi": 77,
                "name": "F5",
                "ticks": 28110,
                "time": 70.27499999999999,
                "velocity": 0.4409448818897638
              },
              {
                "duration": 0.15000000000000568,
                "durationTicks": 60,
                "midi": 75,
                "name": "D#5",
                "ticks": 28140,
                "time": 70.35,
                "velocity": 0.5039370078740157
              },
              {
                "duration": 0.29999999999999716,
                "durationTicks": 120,
                "midi": 73,
                "name": "C#5",
                "ticks": 28200,
                "time": 70.5,
                "velocity": 0.5039370078740157
              },
              {
                "duration": 0.15000000000000568,
                "durationTicks": 60,
                "midi": 72,
                "name": "C5",
                "ticks": 28320,
                "time": 70.8,
                "velocity": 0.5039370078740157
              },
              {
                "duration": 0.14999999999999147,
                "durationTicks": 60,
                "midi": 73,
                "name": "C#5",
                "ticks": 28380,
                "time": 70.95,
                "velocity": 0.5039370078740157
              },
              {
                "duration": 0.15000000000000568,
                "durationTicks": 60,
                "midi": 75,
                "name": "D#5",
                "ticks": 28440,
                "time": 71.1,
                "velocity": 0.5039370078740157
              },
              {
                "duration": 0.14999999999999147,
                "durationTicks": 60,
                "midi": 73,
                "name": "C#5",
                "ticks": 28500,
                "time": 71.25,
                "velocity": 0.5039370078740157
              },
              {
                "duration": 0.30000000000001137,
                "durationTicks": 120,
                "midi": 72,
                "name": "C5",
                "ticks": 28560,
                "time": 71.39999999999999,
                "velocity": 0.5039370078740157
              },
              {
                "duration": 0.29999999999999716,
                "durationTicks": 120,
                "midi": 70,
                "name": "A#4",
                "ticks": 28680,
                "time": 71.7,
                "velocity": 0.5039370078740157
              },
              {
                "duration": 0.29999999999999716,
                "durationTicks": 120,
                "midi": 68,
                "name": "G#4",
                "ticks": 28800,
                "time": 72,
                "velocity": 0.5039370078740157
              },
              {
                "duration": 0.29999999999999716,
                "durationTicks": 120,
                "midi": 72,
                "name": "C5",
                "ticks": 28920,
                "time": 72.3,
                "velocity": 0.5039370078740157
              },
              {
                "duration": 0.29999999999999716,
                "durationTicks": 120,
                "midi": 75,
                "name": "D#5",
                "ticks": 29040,
                "time": 72.6,
                "velocity": 0.5039370078740157
              },
              {
                "duration": 0.45000000000000284,
                "durationTicks": 180,
                "midi": 80,
                "name": "G#5",
                "ticks": 29160,
                "time": 72.89999999999999,
                "velocity": 0.5039370078740157
              },
              {
                "duration": 0.15000000000000568,
                "durationTicks": 60,
                "midi": 77,
                "name": "F5",
                "ticks": 29340,
                "time": 73.35,
                "velocity": 0.5039370078740157
              },
              {
                "duration": 0.14999999999999147,
                "durationTicks": 60,
                "midi": 79,
                "name": "G5",
                "ticks": 29400,
                "time": 73.5,
                "velocity": 0.5039370078740157
              },
              {
                "duration": 0.15000000000000568,
                "durationTicks": 60,
                "midi": 80,
                "name": "G#5",
                "ticks": 29460,
                "time": 73.64999999999999,
                "velocity": 0.5039370078740157
              },
              {
                "duration": 0.29999999999999716,
                "durationTicks": 120,
                "midi": 82,
                "name": "A#5",
                "ticks": 29520,
                "time": 73.8,
                "velocity": 0.5039370078740157
              },
              {
                "duration": 0.29999999999999716,
                "durationTicks": 120,
                "midi": 80,
                "name": "G#5",
                "ticks": 29640,
                "time": 74.1,
                "velocity": 0.5039370078740157
              },
              {
                "duration": 0.15000000000000568,
                "durationTicks": 60,
                "midi": 80,
                "name": "G#5",
                "ticks": 29760,
                "time": 74.39999999999999,
                "velocity": 0.5039370078740157
              },
              {
                "duration": 0.22499999999999432,
                "durationTicks": 90,
                "midi": 79,
                "name": "G5",
                "ticks": 29820,
                "time": 74.55,
                "velocity": 0.5039370078740157
              },
              {
                "duration": 0.07500000000000284,
                "durationTicks": 30,
                "midi": 77,
                "name": "F5",
                "ticks": 29910,
                "time": 74.77499999999999,
                "velocity": 0.5039370078740157
              },
              {
                "duration": 0.08250000000001023,
                "durationTicks": 33,
                "midi": 75,
                "name": "D#5",
                "ticks": 29940,
                "time": 74.85,
                "velocity": 0.3779527559055118
              },
              {
                "duration": 0.08249999999999602,
                "durationTicks": 33,
                "midi": 77,
                "name": "F5",
                "ticks": 29970,
                "time": 74.925,
                "velocity": 0.3858267716535433
              },
              {
                "duration": 0.08249999999999602,
                "durationTicks": 33,
                "midi": 75,
                "name": "D#5",
                "ticks": 30000,
                "time": 75,
                "velocity": 0.4015748031496063
              },
              {
                "duration": 0.08249999999999602,
                "durationTicks": 33,
                "midi": 77,
                "name": "F5",
                "ticks": 30030,
                "time": 75.075,
                "velocity": 0.4094488188976378
              },
              {
                "duration": 0.08250000000001023,
                "durationTicks": 33,
                "midi": 79,
                "name": "G5",
                "ticks": 30060,
                "time": 75.14999999999999,
                "velocity": 0.41732283464566927
              },
              {
                "duration": 0.08250000000001023,
                "durationTicks": 33,
                "midi": 77,
                "name": "F5",
                "ticks": 30090,
                "time": 75.225,
                "velocity": 0.4251968503937008
              },
              {
                "duration": 0.08249999999999602,
                "durationTicks": 33,
                "midi": 79,
                "name": "G5",
                "ticks": 30120,
                "time": 75.3,
                "velocity": 0.4330708661417323
              },
              {
                "duration": 0.08249999999999602,
                "durationTicks": 33,
                "midi": 77,
                "name": "F5",
                "ticks": 30150,
                "time": 75.375,
                "velocity": 0.44881889763779526
              },
              {
                "duration": 0.08249999999999602,
                "durationTicks": 33,
                "midi": 75,
                "name": "D#5",
                "ticks": 30180,
                "time": 75.45,
                "velocity": 0.4566929133858268
              },
              {
                "duration": 0.08250000000001023,
                "durationTicks": 33,
                "midi": 77,
                "name": "F5",
                "ticks": 30210,
                "time": 75.52499999999999,
                "velocity": 0.4645669291338583
              },
              {
                "duration": 2.4000000000000057,
                "durationTicks": 960,
                "midi": 75,
                "name": "D#5",
                "ticks": 30240,
                "time": 75.6,
                "velocity": 0.5039370078740157
              }
            ],
            "endOfTrackTicks": 31200
          },
          {
            "channel": 1,
            "controlChanges": {},
            "pitchBends": [],
            "instrument": {
              "family": "piano",
              "number": 0,
              "name": "acoustic grand piano"
            },
            "name": "",
            "notes": [
              {
                "duration": 0.075,
                "durationTicks": 30,
                "midi": 51,
                "name": "D#3",
                "ticks": 0,
                "time": 0,
                "velocity": 0.5039370078740157
              },
              {
                "duration": 0.075,
                "durationTicks": 30,
                "midi": 50,
                "name": "D3",
                "ticks": 30,
                "time": 0.075,
                "velocity": 0.4409448818897638
              },
              {
                "duration": 0.44999999999999996,
                "durationTicks": 180,
                "midi": 51,
                "name": "D#3",
                "ticks": 60,
                "time": 0.15,
                "velocity": 0.5039370078740157
              },
              {
                "duration": 0.6,
                "durationTicks": 240,
                "midi": 39,
                "name": "D#2",
                "ticks": 240,
                "time": 0.6,
                "velocity": 0.5039370078740157
              },
              {
                "duration": 0.15000000000000013,
                "durationTicks": 60,
                "midi": 63,
                "name": "D#4",
                "ticks": 540,
                "time": 1.3499999999999999,
                "velocity": 0.5039370078740157
              },
              {
                "duration": 0.1499999999999999,
                "durationTicks": 60,
                "midi": 62,
                "name": "D4",
                "ticks": 600,
                "time": 1.5,
                "velocity": 0.5039370078740157
              },
              {
                "duration": 0.1499999999999999,
                "durationTicks": 60,
                "midi": 63,
                "name": "D#4",
                "ticks": 660,
                "time": 1.65,
                "velocity": 0.5039370078740157
              },
              {
                "duration": 0.15000000000000013,
                "durationTicks": 60,
                "midi": 60,
                "name": "C4",
                "ticks": 720,
                "time": 1.7999999999999998,
                "velocity": 0.5039370078740157
              },
              {
                "duration": 0.15000000000000013,
                "durationTicks": 60,
                "midi": 62,
                "name": "D4",
                "ticks": 780,
                "time": 1.95,
                "velocity": 0.5039370078740157
              },
              {
                "duration": 0.1499999999999999,
                "durationTicks": 60,
                "midi": 58,
                "name": "A#3",
                "ticks": 840,
                "time": 2.1,
                "velocity": 0.5039370078740157
              },
              {
                "duration": 0.1499999999999999,
                "durationTicks": 60,
                "midi": 60,
                "name": "C4",
                "ticks": 900,
                "time": 2.25,
                "velocity": 0.5039370078740157
              },
              {
                "duration": 0.1499999999999999,
                "durationTicks": 60,
                "midi": 56,
                "name": "G#3",
                "ticks": 960,
                "time": 2.4,
                "velocity": 0.5039370078740157
              },
              {
                "duration": 0.1499999999999999,
                "durationTicks": 60,
                "midi": 60,
                "name": "C4",
                "ticks": 1020,
                "time": 2.55,
                "velocity": 0.5039370078740157
              },
              {
                "duration": 0.15000000000000036,
                "durationTicks": 60,
                "midi": 58,
                "name": "A#3",
                "ticks": 1080,
                "time": 2.6999999999999997,
                "velocity": 0.5039370078740157
              },
              {
                "duration": 0.1499999999999999,
                "durationTicks": 60,
                "midi": 60,
                "name": "C4",
                "ticks": 1140,
                "time": 2.85,
                "velocity": 0.5039370078740157
              },
              {
                "duration": 0.1499999999999999,
                "durationTicks": 60,
                "midi": 56,
                "name": "G#3",
                "ticks": 1200,
                "time": 3,
                "velocity": 0.5039370078740157
              },
              {
                "duration": 0.1499999999999999,
                "durationTicks": 60,
                "midi": 58,
                "name": "A#3",
                "ticks": 1260,
                "time": 3.15,
                "velocity": 0.5039370078740157
              },
              {
                "duration": 0.1499999999999999,
                "durationTicks": 60,
                "midi": 55,
                "name": "G3",
                "ticks": 1320,
                "time": 3.3,
                "velocity": 0.5039370078740157
              },
              {
                "duration": 0.1499999999999999,
                "durationTicks": 60,
                "midi": 56,
                "name": "G#3",
                "ticks": 1380,
                "time": 3.4499999999999997,
                "velocity": 0.5039370078740157
              },
              {
                "duration": 0.15000000000000036,
                "durationTicks": 60,
                "midi": 53,
                "name": "F3",
                "ticks": 1440,
                "time": 3.5999999999999996,
                "velocity": 0.5039370078740157
              },
              {
                "duration": 0.1499999999999999,
                "durationTicks": 60,
                "midi": 63,
                "name": "D#4",
                "ticks": 1500,
                "time": 3.75,
                "velocity": 0.5039370078740157
              },
              {
                "duration": 0.1499999999999999,
                "durationTicks": 60,
                "midi": 62,
                "name": "D4",
                "ticks": 1560,
                "time": 3.9,
                "velocity": 0.5039370078740157
              },
              {
                "duration": 0.15000000000000036,
                "durationTicks": 60,
                "midi": 60,
                "name": "C4",
                "ticks": 1620,
                "time": 4.05,
                "velocity": 0.5039370078740157
              },
              {
                "duration": 0.14999999999999947,
                "durationTicks": 60,
                "midi": 62,
                "name": "D4",
                "ticks": 1680,
                "time": 4.2,
                "velocity": 0.5039370078740157
              },
              {
                "duration": 0.15000000000000036,
                "durationTicks": 60,
                "midi": 63,
                "name": "D#4",
                "ticks": 1740,
                "time": 4.35,
                "velocity": 0.5039370078740157
              },
              {
                "duration": 0.14999999999999947,
                "durationTicks": 60,
                "midi": 60,
                "name": "C4",
                "ticks": 1800,
                "time": 4.5,
                "velocity": 0.5039370078740157
              },
              {
                "duration": 0.15000000000000036,
                "durationTicks": 60,
                "midi": 62,
                "name": "D4",
                "ticks": 1860,
                "time": 4.6499999999999995,
                "velocity": 0.5039370078740157
              },
              {
                "duration": 0.15000000000000036,
                "durationTicks": 60,
                "midi": 51,
                "name": "D#3",
                "ticks": 1920,
                "time": 4.8,
                "velocity": 0.5039370078740157
              },
              {
                "duration": 0.14999999999999947,
                "durationTicks": 60,
                "midi": 63,
                "name": "D#4",
                "ticks": 1980,
                "time": 4.95,
                "velocity": 0.5039370078740157
              },
              {
                "duration": 0.15000000000000036,
                "durationTicks": 60,
                "midi": 62,
                "name": "D4",
                "ticks": 2040,
                "time": 5.1,
                "velocity": 0.5039370078740157
              },
              {
                "duration": 0.14999999999999947,
                "durationTicks": 60,
                "midi": 60,
                "name": "C4",
                "ticks": 2100,
                "time": 5.25,
                "velocity": 0.5039370078740157
              },
              {
                "duration": 0.15000000000000036,
                "durationTicks": 60,
                "midi": 62,
                "name": "D4",
                "ticks": 2160,
                "time": 5.3999999999999995,
                "velocity": 0.5039370078740157
              },
              {
                "duration": 0.15000000000000036,
                "durationTicks": 60,
                "midi": 63,
                "name": "D#4",
                "ticks": 2220,
                "time": 5.55,
                "velocity": 0.5039370078740157
              },
              {
                "duration": 0.14999999999999947,
                "durationTicks": 60,
                "midi": 60,
                "name": "C4",
                "ticks": 2280,
                "time": 5.7,
                "velocity": 0.5039370078740157
              },
              {
                "duration": 0.15000000000000036,
                "durationTicks": 60,
                "midi": 62,
                "name": "D4",
                "ticks": 2340,
                "time": 5.85,
                "velocity": 0.5039370078740157
              },
              {
                "duration": 0.14999999999999947,
                "durationTicks": 60,
                "midi": 58,
                "name": "A#3",
                "ticks": 2400,
                "time": 6,
                "velocity": 0.5039370078740157
              },
              {
                "duration": 0.15000000000000036,
                "durationTicks": 60,
                "midi": 63,
                "name": "D#4",
                "ticks": 2460,
                "time": 6.1499999999999995,
                "velocity": 0.5039370078740157
              },
              {
                "duration": 0.15000000000000036,
                "durationTicks": 60,
                "midi": 62,
                "name": "D4",
                "ticks": 2520,
                "time": 6.3,
                "velocity": 0.5039370078740157
              },
              {
                "duration": 0.14999999999999947,
                "durationTicks": 60,
                "midi": 60,
                "name": "C4",
                "ticks": 2580,
                "time": 6.45,
                "velocity": 0.5039370078740157
              },
              {
                "duration": 0.15000000000000036,
                "durationTicks": 60,
                "midi": 58,
                "name": "A#3",
                "ticks": 2640,
                "time": 6.6,
                "velocity": 0.5039370078740157
              },
              {
                "duration": 0.14999999999999947,
                "durationTicks": 60,
                "midi": 60,
                "name": "C4",
                "ticks": 2700,
                "time": 6.75,
                "velocity": 0.5039370078740157
              },
              {
                "duration": 0.15000000000000036,
                "durationTicks": 60,
                "midi": 56,
                "name": "G#3",
                "ticks": 2760,
                "time": 6.8999999999999995,
                "velocity": 0.5039370078740157
              },
              {
                "duration": 0.14999999999999947,
                "durationTicks": 60,
                "midi": 58,
                "name": "A#3",
                "ticks": 2820,
                "time": 7.05,
                "velocity": 0.5039370078740157
              },
              {
                "duration": 0.15000000000000036,
                "durationTicks": 60,
                "midi": 55,
                "name": "G3",
                "ticks": 2880,
                "time": 7.199999999999999,
                "velocity": 0.5039370078740157
              },
              {
                "duration": 0.15000000000000036,
                "durationTicks": 60,
                "midi": 60,
                "name": "C4",
                "ticks": 2940,
                "time": 7.35,
                "velocity": 0.5039370078740157
              },
              {
                "duration": 0.14999999999999947,
                "durationTicks": 60,
                "midi": 58,
                "name": "A#3",
                "ticks": 3000,
                "time": 7.5,
                "velocity": 0.5039370078740157
              },
              {
                "duration": 0.15000000000000036,
                "durationTicks": 60,
                "midi": 56,
                "name": "G#3",
                "ticks": 3060,
                "time": 7.6499999999999995,
                "velocity": 0.5039370078740157
              },
              {
                "duration": 0.14999999999999947,
                "durationTicks": 60,
                "midi": 55,
                "name": "G3",
                "ticks": 3120,
                "time": 7.8,
                "velocity": 0.5039370078740157
              },
              {
                "duration": 0.15000000000000036,
                "durationTicks": 60,
                "midi": 56,
                "name": "G#3",
                "ticks": 3180,
                "time": 7.949999999999999,
                "velocity": 0.5039370078740157
              },
              {
                "duration": 0.15000000000000036,
                "durationTicks": 60,
                "midi": 53,
                "name": "F3",
                "ticks": 3240,
                "time": 8.1,
                "velocity": 0.5039370078740157
              },
              {
                "duration": 0.15000000000000036,
                "durationTicks": 60,
                "midi": 55,
                "name": "G3",
                "ticks": 3300,
                "time": 8.25,
                "velocity": 0.5039370078740157
              },
              {
                "duration": 0.14999999999999858,
                "durationTicks": 60,
                "midi": 48,
                "name": "C3",
                "ticks": 3360,
                "time": 8.4,
                "velocity": 0.5039370078740157
              },
              {
                "duration": 0.15000000000000036,
                "durationTicks": 60,
                "midi": 58,
                "name": "A#3",
                "ticks": 3420,
                "time": 8.549999999999999,
                "velocity": 0.5039370078740157
              },
              {
                "duration": 0.15000000000000036,
                "durationTicks": 60,
                "midi": 57,
                "name": "A3",
                "ticks": 3480,
                "time": 8.7,
                "velocity": 0.5039370078740157
              },
              {
                "duration": 0.15000000000000036,
                "durationTicks": 60,
                "midi": 55,
                "name": "G3",
                "ticks": 3540,
                "time": 8.85,
                "velocity": 0.5039370078740157
              },
              {
                "duration": 0.15000000000000036,
                "durationTicks": 60,
                "midi": 57,
                "name": "A3",
                "ticks": 3600,
                "time": 9,
                "velocity": 0.5039370078740157
              },
              {
                "duration": 0.14999999999999858,
                "durationTicks": 60,
                "midi": 58,
                "name": "A#3",
                "ticks": 3660,
                "time": 9.15,
                "velocity": 0.5039370078740157
              },
              {
                "duration": 0.15000000000000036,
                "durationTicks": 60,
                "midi": 55,
                "name": "G3",
                "ticks": 3720,
                "time": 9.299999999999999,
                "velocity": 0.5039370078740157
              },
              {
                "duration": 0.15000000000000036,
                "durationTicks": 60,
                "midi": 57,
                "name": "A3",
                "ticks": 3780,
                "time": 9.45,
                "velocity": 0.5039370078740157
              },
              {
                "duration": 0.3000000000000007,
                "durationTicks": 120,
                "midi": 58,
                "name": "A#3",
                "ticks": 3840,
                "time": 9.6,
                "velocity": 0.5039370078740157
              },
              {
                "duration": 0.14999999999999858,
                "durationTicks": 60,
                "midi": 46,
                "name": "A#2",
                "ticks": 3960,
                "time": 9.9,
                "velocity": 0.5039370078740157
              },
              {
                "duration": 0.15000000000000036,
                "durationTicks": 60,
                "midi": 45,
                "name": "A2",
                "ticks": 4020,
                "time": 10.049999999999999,
                "velocity": 0.5039370078740157
              },
              {
                "duration": 0.3000000000000007,
                "durationTicks": 120,
                "midi": 46,
                "name": "A#2",
                "ticks": 4080,
                "time": 10.2,
                "velocity": 0.5039370078740157
              },
              {
                "duration": 0.29999999999999893,
                "durationTicks": 120,
                "midi": 48,
                "name": "C3",
                "ticks": 4200,
                "time": 10.5,
                "velocity": 0.5039370078740157
              },
              {
                "duration": 0.07500000000000107,
                "durationTicks": 30,
                "midi": 50,
                "name": "D3",
                "ticks": 4320,
                "time": 10.799999999999999,
                "velocity": 0.5039370078740157
              },
              {
                "duration": 0.07499999999999929,
                "durationTicks": 30,
                "midi": 48,
                "name": "C3",
                "ticks": 4350,
                "time": 10.875,
                "velocity": 0.4409448818897638
              },
              {
                "duration": 0.45000000000000107,
                "durationTicks": 180,
                "midi": 50,
                "name": "D3",
                "ticks": 4380,
                "time": 10.95,
                "velocity": 0.5039370078740157
              },
              {
                "duration": 0.5999999999999996,
                "durationTicks": 240,
                "midi": 51,
                "name": "D#3",
                "ticks": 4560,
                "time": 11.4,
                "velocity": 0.5039370078740157
              },
              {
                "duration": 0.15000000000000036,
                "durationTicks": 60,
                "midi": 48,
                "name": "C3",
                "ticks": 4920,
                "time": 12.299999999999999,
                "velocity": 0.5039370078740157
              },
              {
                "duration": 0.15000000000000036,
                "durationTicks": 60,
                "midi": 46,
                "name": "A#2",
                "ticks": 4980,
                "time": 12.45,
                "velocity": 0.5039370078740157
              },
              {
                "duration": 0.3000000000000007,
                "durationTicks": 120,
                "midi": 48,
                "name": "C3",
                "ticks": 5040,
                "time": 12.6,
                "velocity": 0.5039370078740157
              },
              {
                "duration": 0.29999999999999893,
                "durationTicks": 120,
                "midi": 50,
                "name": "D3",
                "ticks": 5160,
                "time": 12.9,
                "velocity": 0.5039370078740157
              },
              {
                "duration": 0.07500000000000107,
                "durationTicks": 30,
                "midi": 51,
                "name": "D#3",
                "ticks": 5280,
                "time": 13.2,
                "velocity": 0.5039370078740157
              },
              {
                "duration": 0.07499999999999929,
                "durationTicks": 30,
                "midi": 50,
                "name": "D3",
                "ticks": 5310,
                "time": 13.275,
                "velocity": 0.4409448818897638
              },
              {
                "duration": 0.4499999999999993,
                "durationTicks": 180,
                "midi": 51,
                "name": "D#3",
                "ticks": 5340,
                "time": 13.35,
                "velocity": 0.5039370078740157
              },
              {
                "duration": 0.5999999999999996,
                "durationTicks": 240,
                "midi": 53,
                "name": "F3",
                "ticks": 5520,
                "time": 13.799999999999999,
                "velocity": 0.5039370078740157
              },
              {
                "duration": 0.3000000000000007,
                "durationTicks": 120,
                "midi": 50,
                "name": "D3",
                "ticks": 5760,
                "time": 14.399999999999999,
                "velocity": 0.5039370078740157
              },
              {
                "duration": 0.3000000000000007,
                "durationTicks": 120,
                "midi": 53,
                "name": "F3",
                "ticks": 5880,
                "time": 14.7,
                "velocity": 0.5039370078740157
              },
              {
                "duration": 0.07499999999999929,
                "durationTicks": 30,
                "midi": 53,
                "name": "F3",
                "ticks": 6000,
                "time": 15,
                "velocity": 0.5039370078740157
              },
              {
                "duration": 0.07499999999999929,
                "durationTicks": 30,
                "midi": 55,
                "name": "G3",
                "ticks": 6030,
                "time": 15.075,
                "velocity": 0.4409448818897638
              },
              {
                "duration": 0.15000000000000036,
                "durationTicks": 60,
                "midi": 53,
                "name": "F3",
                "ticks": 6060,
                "time": 15.149999999999999,
                "velocity": 0.5039370078740157
              },
              {
                "duration": 0.3000000000000007,
                "durationTicks": 120,
                "midi": 51,
                "name": "D#3",
                "ticks": 6120,
                "time": 15.299999999999999,
                "velocity": 0.5039370078740157
              },
              {
                "duration": 0.15000000000000036,
                "durationTicks": 60,
                "midi": 50,
                "name": "D3",
                "ticks": 6240,
                "time": 15.6,
                "velocity": 0.5039370078740157
              },
              {
                "duration": 0.14999999999999858,
                "durationTicks": 60,
                "midi": 51,
                "name": "D#3",
                "ticks": 6300,
                "time": 15.75,
                "velocity": 0.5039370078740157
              },
              {
                "duration": 0.15000000000000213,
                "durationTicks": 60,
                "midi": 53,
                "name": "F3",
                "ticks": 6360,
                "time": 15.899999999999999,
                "velocity": 0.5039370078740157
              },
              {
                "duration": 0.14999999999999858,
                "durationTicks": 60,
                "midi": 51,
                "name": "D#3",
                "ticks": 6420,
                "time": 16.05,
                "velocity": 0.5039370078740157
              },
              {
                "duration": 0.3000000000000007,
                "durationTicks": 120,
                "midi": 50,
                "name": "D3",
                "ticks": 6480,
                "time": 16.2,
                "velocity": 0.5039370078740157
              },
              {
                "duration": 0.3000000000000007,
                "durationTicks": 120,
                "midi": 48,
                "name": "C3",
                "ticks": 6600,
                "time": 16.5,
                "velocity": 0.5039370078740157
              },
              {
                "duration": 0.29999999999999716,
                "durationTicks": 120,
                "midi": 46,
                "name": "A#2",
                "ticks": 6720,
                "time": 16.8,
                "velocity": 0.5039370078740157
              },
              {
                "duration": 0.3000000000000007,
                "durationTicks": 120,
                "midi": 50,
                "name": "D3",
                "ticks": 6840,
                "time": 17.099999999999998,
                "velocity": 0.5039370078740157
              },
              {
                "duration": 0.3000000000000007,
                "durationTicks": 120,
                "midi": 53,
                "name": "F3",
                "ticks": 6960,
                "time": 17.4,
                "velocity": 0.5039370078740157
              },
              {
                "duration": 0.4499999999999993,
                "durationTicks": 180,
                "midi": 56,
                "name": "G#3",
                "ticks": 7080,
                "time": 17.7,
                "velocity": 0.5039370078740157
              },
              {
                "duration": 0.15000000000000213,
                "durationTicks": 60,
                "midi": 53,
                "name": "F3",
                "ticks": 7260,
                "time": 18.15,
                "velocity": 0.5039370078740157
              },
              {
                "duration": 0.14999999999999858,
                "durationTicks": 60,
                "midi": 55,
                "name": "G3",
                "ticks": 7320,
                "time": 18.3,
                "velocity": 0.5039370078740157
              },
              {
                "duration": 0.14999999999999858,
                "durationTicks": 60,
                "midi": 56,
                "name": "G#3",
                "ticks": 7380,
                "time": 18.45,
                "velocity": 0.5039370078740157
              },
              {
                "duration": 0.3000000000000007,
                "durationTicks": 120,
                "midi": 58,
                "name": "A#3",
                "ticks": 7440,
                "time": 18.599999999999998,
                "velocity": 0.5039370078740157
              },
              {
                "duration": 0.3000000000000007,
                "durationTicks": 120,
                "midi": 56,
                "name": "G#3",
                "ticks": 7560,
                "time": 18.9,
                "velocity": 0.5039370078740157
              },
              {
                "duration": 0.14999999999999858,
                "durationTicks": 60,
                "midi": 55,
                "name": "G3",
                "ticks": 7680,
                "time": 19.2,
                "velocity": 0.5039370078740157
              },
              {
                "duration": 0.15000000000000213,
                "durationTicks": 60,
                "midi": 56,
                "name": "G#3",
                "ticks": 7740,
                "time": 19.349999999999998,
                "velocity": 0.5039370078740157
              },
              {
                "duration": 0.14999999999999858,
                "durationTicks": 60,
                "midi": 55,
                "name": "G3",
                "ticks": 7800,
                "time": 19.5,
                "velocity": 0.5039370078740157
              },
              {
                "duration": 0.15000000000000213,
                "durationTicks": 60,
                "midi": 53,
                "name": "F3",
                "ticks": 7860,
                "time": 19.65,
                "velocity": 0.5039370078740157
              },
              {
                "duration": 0.14999999999999858,
                "durationTicks": 60,
                "midi": 55,
                "name": "G3",
                "ticks": 7920,
                "time": 19.8,
                "velocity": 0.5039370078740157
              },
              {
                "duration": 0.14999999999999858,
                "durationTicks": 60,
                "midi": 56,
                "name": "G#3",
                "ticks": 7980,
                "time": 19.95,
                "velocity": 0.5039370078740157
              },
              {
                "duration": 0.15000000000000213,
                "durationTicks": 60,
                "midi": 53,
                "name": "F3",
                "ticks": 8040,
                "time": 20.099999999999998,
                "velocity": 0.5039370078740157
              },
              {
                "duration": 0.14999999999999858,
                "durationTicks": 60,
                "midi": 55,
                "name": "G3",
                "ticks": 8100,
                "time": 20.25,
                "velocity": 0.5039370078740157
              },
              {
                "duration": 0.15000000000000213,
                "durationTicks": 60,
                "midi": 51,
                "name": "D#3",
                "ticks": 8160,
                "time": 20.4,
                "velocity": 0.5039370078740157
              },
              {
                "duration": 0.14999999999999858,
                "durationTicks": 60,
                "midi": 63,
                "name": "D#4",
                "ticks": 8220,
                "time": 20.55,
                "velocity": 0.5039370078740157
              },
              {
                "duration": 0.14999999999999858,
                "durationTicks": 60,
                "midi": 61,
                "name": "C#4",
                "ticks": 8280,
                "time": 20.7,
                "velocity": 0.5039370078740157
              },
              {
                "duration": 0.15000000000000213,
                "durationTicks": 60,
                "midi": 63,
                "name": "D#4",
                "ticks": 8340,
                "time": 20.849999999999998,
                "velocity": 0.5039370078740157
              },
              {
                "duration": 0.14999999999999858,
                "durationTicks": 60,
                "midi": 60,
                "name": "C4",
                "ticks": 8400,
                "time": 21,
                "velocity": 0.5039370078740157
              },
              {
                "duration": 0.15000000000000213,
                "durationTicks": 60,
                "midi": 61,
                "name": "C#4",
                "ticks": 8460,
                "time": 21.15,
                "velocity": 0.5039370078740157
              },
              {
                "duration": 0.14999999999999858,
                "durationTicks": 60,
                "midi": 58,
                "name": "A#3",
                "ticks": 8520,
                "time": 21.3,
                "velocity": 0.5039370078740157
              },
              {
                "duration": 0.14999999999999858,
                "durationTicks": 60,
                "midi": 60,
                "name": "C4",
                "ticks": 8580,
                "time": 21.45,
                "velocity": 0.5039370078740157
              },
              {
                "duration": 0.15000000000000213,
                "durationTicks": 60,
                "midi": 56,
                "name": "G#3",
                "ticks": 8640,
                "time": 21.599999999999998,
                "velocity": 0.5039370078740157
              },
              {
                "duration": 0.14999999999999858,
                "durationTicks": 60,
                "midi": 58,
                "name": "A#3",
                "ticks": 8700,
                "time": 21.75,
                "velocity": 0.5039370078740157
              },
              {
                "duration": 0.15000000000000213,
                "durationTicks": 60,
                "midi": 56,
                "name": "G#3",
                "ticks": 8760,
                "time": 21.9,
                "velocity": 0.5039370078740157
              },
              {
                "duration": 0.14999999999999858,
                "durationTicks": 60,
                "midi": 55,
                "name": "G3",
                "ticks": 8820,
                "time": 22.05,
                "velocity": 0.5039370078740157
              },
              {
                "duration": 0.14999999999999858,
                "durationTicks": 60,
                "midi": 56,
                "name": "G#3",
                "ticks": 8880,
                "time": 22.2,
                "velocity": 0.5039370078740157
              },
              {
                "duration": 0.15000000000000213,
                "durationTicks": 60,
                "midi": 58,
                "name": "A#3",
                "ticks": 8940,
                "time": 22.349999999999998,
                "velocity": 0.5039370078740157
              },
              {
                "duration": 0.14999999999999858,
                "durationTicks": 60,
                "midi": 55,
                "name": "G3",
                "ticks": 9000,
                "time": 22.5,
                "velocity": 0.5039370078740157
              },
              {
                "duration": 0.15000000000000213,
                "durationTicks": 60,
                "midi": 56,
                "name": "G#3",
                "ticks": 9060,
                "time": 22.65,
                "velocity": 0.5039370078740157
              },
              {
                "duration": 0.14999999999999858,
                "durationTicks": 60,
                "midi": 53,
                "name": "F3",
                "ticks": 9120,
                "time": 22.8,
                "velocity": 0.5039370078740157
              },
              {
                "duration": 0.14999999999999858,
                "durationTicks": 60,
                "midi": 65,
                "name": "F4",
                "ticks": 9180,
                "time": 22.95,
                "velocity": 0.5039370078740157
              },
              {
                "duration": 0.15000000000000213,
                "durationTicks": 60,
                "midi": 63,
                "name": "D#4",
                "ticks": 9240,
                "time": 23.099999999999998,
                "velocity": 0.5039370078740157
              },
              {
                "duration": 0.14999999999999858,
                "durationTicks": 60,
                "midi": 65,
                "name": "F4",
                "ticks": 9300,
                "time": 23.25,
                "velocity": 0.5039370078740157
              },
              {
                "duration": 0.15000000000000213,
                "durationTicks": 60,
                "midi": 62,
                "name": "D4",
                "ticks": 9360,
                "time": 23.4,
                "velocity": 0.5039370078740157
              },
              {
                "duration": 0.14999999999999858,
                "durationTicks": 60,
                "midi": 63,
                "name": "D#4",
                "ticks": 9420,
                "time": 23.55,
                "velocity": 0.5039370078740157
              },
              {
                "duration": 0.14999999999999858,
                "durationTicks": 60,
                "midi": 60,
                "name": "C4",
                "ticks": 9480,
                "time": 23.7,
                "velocity": 0.5039370078740157
              },
              {
                "duration": 0.15000000000000213,
                "durationTicks": 60,
                "midi": 62,
                "name": "D4",
                "ticks": 9540,
                "time": 23.849999999999998,
                "velocity": 0.5039370078740157
              },
              {
                "duration": 0.14999999999999858,
                "durationTicks": 60,
                "midi": 58,
                "name": "A#3",
                "ticks": 9600,
                "time": 24,
                "velocity": 0.5039370078740157
              },
              {
                "duration": 0.15000000000000213,
                "durationTicks": 60,
                "midi": 60,
                "name": "C4",
                "ticks": 9660,
                "time": 24.15,
                "velocity": 0.5039370078740157
              },
              {
                "duration": 0.14999999999999858,
                "durationTicks": 60,
                "midi": 58,
                "name": "A#3",
                "ticks": 9720,
                "time": 24.3,
                "velocity": 0.5039370078740157
              },
              {
                "duration": 0.14999999999999858,
                "durationTicks": 60,
                "midi": 57,
                "name": "A3",
                "ticks": 9780,
                "time": 24.45,
                "velocity": 0.5039370078740157
              },
              {
                "duration": 0.15000000000000213,
                "durationTicks": 60,
                "midi": 58,
                "name": "A#3",
                "ticks": 9840,
                "time": 24.599999999999998,
                "velocity": 0.5039370078740157
              },
              {
                "duration": 0.14999999999999858,
                "durationTicks": 60,
                "midi": 60,
                "name": "C4",
                "ticks": 9900,
                "time": 24.75,
                "velocity": 0.5039370078740157
              },
              {
                "duration": 0.15000000000000213,
                "durationTicks": 60,
                "midi": 56,
                "name": "G#3",
                "ticks": 9960,
                "time": 24.9,
                "velocity": 0.5039370078740157
              },
              {
                "duration": 0.14999999999999858,
                "durationTicks": 60,
                "midi": 58,
                "name": "A#3",
                "ticks": 10020,
                "time": 25.05,
                "velocity": 0.5039370078740157
              },
              {
                "duration": 0.14999999999999858,
                "durationTicks": 60,
                "midi": 55,
                "name": "G3",
                "ticks": 10080,
                "time": 25.2,
                "velocity": 0.5039370078740157
              },
              {
                "duration": 0.15000000000000213,
                "durationTicks": 60,
                "midi": 56,
                "name": "G#3",
                "ticks": 10140,
                "time": 25.349999999999998,
                "velocity": 0.5039370078740157
              },
              {
                "duration": 0.14999999999999858,
                "durationTicks": 60,
                "midi": 53,
                "name": "F3",
                "ticks": 10200,
                "time": 25.5,
                "velocity": 0.5039370078740157
              },
              {
                "duration": 0.15000000000000213,
                "durationTicks": 60,
                "midi": 55,
                "name": "G3",
                "ticks": 10260,
                "time": 25.65,
                "velocity": 0.5039370078740157
              },
              {
                "duration": 0.14999999999999858,
                "durationTicks": 60,
                "midi": 51,
                "name": "D#3",
                "ticks": 10320,
                "time": 25.8,
                "velocity": 0.5039370078740157
              },
              {
                "duration": 0.14999999999999858,
                "durationTicks": 60,
                "midi": 53,
                "name": "F3",
                "ticks": 10380,
                "time": 25.95,
                "velocity": 0.5039370078740157
              },
              {
                "duration": 0.15000000000000213,
                "durationTicks": 60,
                "midi": 50,
                "name": "D3",
                "ticks": 10440,
                "time": 26.099999999999998,
                "velocity": 0.5039370078740157
              },
              {
                "duration": 0.14999999999999858,
                "durationTicks": 60,
                "midi": 51,
                "name": "D#3",
                "ticks": 10500,
                "time": 26.25,
                "velocity": 0.5039370078740157
              },
              {
                "duration": 0.3000000000000007,
                "durationTicks": 120,
                "midi": 48,
                "name": "C3",
                "ticks": 10560,
                "time": 26.4,
                "velocity": 0.5039370078740157
              },
              {
                "duration": 0.14999999999999858,
                "durationTicks": 60,
                "midi": 48,
                "name": "C3",
                "ticks": 10680,
                "time": 26.7,
                "velocity": 0.5039370078740157
              },
              {
                "duration": 0.15000000000000213,
                "durationTicks": 60,
                "midi": 47,
                "name": "B2",
                "ticks": 10740,
                "time": 26.849999999999998,
                "velocity": 0.5039370078740157
              },
              {
                "duration": 0.3000000000000007,
                "durationTicks": 120,
                "midi": 48,
                "name": "C3",
                "ticks": 10800,
                "time": 27,
                "velocity": 0.5039370078740157
              },
              {
                "duration": 0.29999999999999716,
                "durationTicks": 120,
                "midi": 50,
                "name": "D3",
                "ticks": 10920,
                "time": 27.3,
                "velocity": 0.5039370078740157
              },
              {
                "duration": 0.07500000000000284,
                "durationTicks": 30,
                "midi": 51,
                "name": "D#3",
                "ticks": 11040,
                "time": 27.599999999999998,
                "velocity": 0.5039370078740157
              },
              {
                "duration": 0.07499999999999929,
                "durationTicks": 30,
                "midi": 50,
                "name": "D3",
                "ticks": 11070,
                "time": 27.675,
                "velocity": 0.4409448818897638
              },
              {
                "duration": 0.4499999999999993,
                "durationTicks": 180,
                "midi": 51,
                "name": "D#3",
                "ticks": 11100,
                "time": 27.75,
                "velocity": 0.5039370078740157
              },
              {
                "duration": 0.5999999999999979,
                "durationTicks": 240,
                "midi": 53,
                "name": "F3",
                "ticks": 11280,
                "time": 28.2,
                "velocity": 0.5039370078740157
              },
              {
                "duration": 0.15000000000000213,
                "durationTicks": 60,
                "midi": 50,
                "name": "D3",
                "ticks": 11640,
                "time": 29.099999999999998,
                "velocity": 0.5039370078740157
              },
              {
                "duration": 0.14999999999999858,
                "durationTicks": 60,
                "midi": 48,
                "name": "C3",
                "ticks": 11700,
                "time": 29.25,
                "velocity": 0.5039370078740157
              },
              {
                "duration": 0.3000000000000007,
                "durationTicks": 120,
                "midi": 50,
                "name": "D3",
                "ticks": 11760,
                "time": 29.4,
                "velocity": 0.5039370078740157
              },
              {
                "duration": 0.3000000000000007,
                "durationTicks": 120,
                "midi": 51,
                "name": "D#3",
                "ticks": 11880,
                "time": 29.7,
                "velocity": 0.5039370078740157
              },
              {
                "duration": 0.07499999999999929,
                "durationTicks": 30,
                "midi": 53,
                "name": "F3",
                "ticks": 12000,
                "time": 30,
                "velocity": 0.5039370078740157
              },
              {
                "duration": 0.07499999999999929,
                "durationTicks": 30,
                "midi": 51,
                "name": "D#3",
                "ticks": 12030,
                "time": 30.075,
                "velocity": 0.4409448818897638
              },
              {
                "duration": 0.4499999999999993,
                "durationTicks": 180,
                "midi": 53,
                "name": "F3",
                "ticks": 12060,
                "time": 30.15,
                "velocity": 0.5039370078740157
              },
              {
                "duration": 0.6000000000000014,
                "durationTicks": 240,
                "midi": 55,
                "name": "G3",
                "ticks": 12240,
                "time": 30.599999999999998,
                "velocity": 0.5039370078740157
              },
              {
                "duration": 0.3000000000000007,
                "durationTicks": 120,
                "midi": 51,
                "name": "D#3",
                "ticks": 12480,
                "time": 31.2,
                "velocity": 0.5039370078740157
              },
              {
                "duration": 0.29999999999999716,
                "durationTicks": 120,
                "midi": 56,
                "name": "G#3",
                "ticks": 12600,
                "time": 31.5,
                "velocity": 0.5039370078740157
              },
              {
                "duration": 0.07500000000000284,
                "durationTicks": 30,
                "midi": 55,
                "name": "G3",
                "ticks": 12720,
                "time": 31.799999999999997,
                "velocity": 0.5039370078740157
              },
              {
                "duration": 0.07499999999999929,
                "durationTicks": 30,
                "midi": 56,
                "name": "G#3",
                "ticks": 12750,
                "time": 31.875,
                "velocity": 0.4409448818897638
              },
              {
                "duration": 0.15000000000000213,
                "durationTicks": 60,
                "midi": 55,
                "name": "G3",
                "ticks": 12780,
                "time": 31.95,
                "velocity": 0.5039370078740157
              },
              {
                "duration": 0.29999999999999716,
                "durationTicks": 120,
                "midi": 53,
                "name": "F3",
                "ticks": 12840,
                "time": 32.1,
                "velocity": 0.5039370078740157
              },
              {
                "duration": 0.14999999999999858,
                "durationTicks": 60,
                "midi": 52,
                "name": "E3",
                "ticks": 12960,
                "time": 32.4,
                "velocity": 0.5039370078740157
              },
              {
                "duration": 0.14999999999999858,
                "durationTicks": 60,
                "midi": 53,
                "name": "F3",
                "ticks": 13020,
                "time": 32.55,
                "velocity": 0.5039370078740157
              },
              {
                "duration": 0.15000000000000568,
                "durationTicks": 60,
                "midi": 55,
                "name": "G3",
                "ticks": 13080,
                "time": 32.699999999999996,
                "velocity": 0.5039370078740157
              },
              {
                "duration": 0.14999999999999858,
                "durationTicks": 60,
                "midi": 53,
                "name": "F3",
                "ticks": 13140,
                "time": 32.85,
                "velocity": 0.5039370078740157
              },
              {
                "duration": 0.29999999999999716,
                "durationTicks": 120,
                "midi": 52,
                "name": "E3",
                "ticks": 13200,
                "time": 33,
                "velocity": 0.5039370078740157
              },
              {
                "duration": 0.30000000000000426,
                "durationTicks": 120,
                "midi": 50,
                "name": "D3",
                "ticks": 13320,
                "time": 33.3,
                "velocity": 0.5039370078740157
              },
              {
                "duration": 0.29999999999999716,
                "durationTicks": 120,
                "midi": 48,
                "name": "C3",
                "ticks": 13440,
                "time": 33.6,
                "velocity": 0.5039370078740157
              },
              {
                "duration": 0.29999999999999716,
                "durationTicks": 120,
                "midi": 52,
                "name": "E3",
                "ticks": 13560,
                "time": 33.9,
                "velocity": 0.5039370078740157
              },
              {
                "duration": 0.30000000000000426,
                "durationTicks": 120,
                "midi": 55,
                "name": "G3",
                "ticks": 13680,
                "time": 34.199999999999996,
                "velocity": 0.5039370078740157
              },
              {
                "duration": 0.44999999999999574,
                "durationTicks": 180,
                "midi": 58,
                "name": "A#3",
                "ticks": 13800,
                "time": 34.5,
                "velocity": 0.5039370078740157
              },
              {
                "duration": 0.15000000000000568,
                "durationTicks": 60,
                "midi": 55,
                "name": "G3",
                "ticks": 13980,
                "time": 34.949999999999996,
                "velocity": 0.5039370078740157
              },
              {
                "duration": 0.14999999999999858,
                "durationTicks": 60,
                "midi": 56,
                "name": "G#3",
                "ticks": 14040,
                "time": 35.1,
                "velocity": 0.5039370078740157
              },
              {
                "duration": 0.14999999999999858,
                "durationTicks": 60,
                "midi": 58,
                "name": "A#3",
                "ticks": 14100,
                "time": 35.25,
                "velocity": 0.5039370078740157
              },
              {
                "duration": 0.29999999999999716,
                "durationTicks": 120,
                "midi": 60,
                "name": "C4",
                "ticks": 14160,
                "time": 35.4,
                "velocity": 0.5039370078740157
              },
              {
                "duration": 0.30000000000000426,
                "durationTicks": 120,
                "midi": 58,
                "name": "A#3",
                "ticks": 14280,
                "time": 35.699999999999996,
                "velocity": 0.5039370078740157
              },
              {
                "duration": 0.14999999999999858,
                "durationTicks": 60,
                "midi": 56,
                "name": "G#3",
                "ticks": 14400,
                "time": 36,
                "velocity": 0.5039370078740157
              },
              {
                "duration": 0.14999999999999858,
                "durationTicks": 60,
                "midi": 58,
                "name": "A#3",
                "ticks": 14460,
                "time": 36.15,
                "velocity": 0.5039370078740157
              },
              {
                "duration": 0.14999999999999858,
                "durationTicks": 60,
                "midi": 56,
                "name": "G#3",
                "ticks": 14520,
                "time": 36.3,
                "velocity": 0.5039370078740157
              },
              {
                "duration": 0.15000000000000568,
                "durationTicks": 60,
                "midi": 55,
                "name": "G3",
                "ticks": 14580,
                "time": 36.449999999999996,
                "velocity": 0.5039370078740157
              },
              {
                "duration": 0.14999999999999858,
                "durationTicks": 60,
                "midi": 56,
                "name": "G#3",
                "ticks": 14640,
                "time": 36.6,
                "velocity": 0.5039370078740157
              },
              {
                "duration": 0.14999999999999858,
                "durationTicks": 60,
                "midi": 58,
                "name": "A#3",
                "ticks": 14700,
                "time": 36.75,
                "velocity": 0.5039370078740157
              },
              {
                "duration": 0.14999999999999858,
                "durationTicks": 60,
                "midi": 55,
                "name": "G3",
                "ticks": 14760,
                "time": 36.9,
                "velocity": 0.5039370078740157
              },
              {
                "duration": 0.14999999999999858,
                "durationTicks": 60,
                "midi": 56,
                "name": "G#3",
                "ticks": 14820,
                "time": 37.05,
                "velocity": 0.5039370078740157
              },
              {
                "duration": 0.15000000000000568,
                "durationTicks": 60,
                "midi": 53,
                "name": "F3",
                "ticks": 14880,
                "time": 37.199999999999996,
                "velocity": 0.5039370078740157
              },
              {
                "duration": 0.14999999999999858,
                "durationTicks": 60,
                "midi": 65,
                "name": "F4",
                "ticks": 14940,
                "time": 37.35,
                "velocity": 0.5039370078740157
              },
              {
                "duration": 0.14999999999999858,
                "durationTicks": 60,
                "midi": 63,
                "name": "D#4",
                "ticks": 15000,
                "time": 37.5,
                "velocity": 0.5039370078740157
              },
              {
                "duration": 0.14999999999999858,
                "durationTicks": 60,
                "midi": 65,
                "name": "F4",
                "ticks": 15060,
                "time": 37.65,
                "velocity": 0.5039370078740157
              },
              {
                "duration": 0.14999999999999858,
                "durationTicks": 60,
                "midi": 61,
                "name": "C#4",
                "ticks": 15120,
                "time": 37.8,
                "velocity": 0.5039370078740157
              },
              {
                "duration": 0.15000000000000568,
                "durationTicks": 60,
                "midi": 63,
                "name": "D#4",
                "ticks": 15180,
                "time": 37.949999999999996,
                "velocity": 0.5039370078740157
              },
              {
                "duration": 0.14999999999999858,
                "durationTicks": 60,
                "midi": 60,
                "name": "C4",
                "ticks": 15240,
                "time": 38.1,
                "velocity": 0.5039370078740157
              },
              {
                "duration": 0.14999999999999858,
                "durationTicks": 60,
                "midi": 61,
                "name": "C#4",
                "ticks": 15300,
                "time": 38.25,
                "velocity": 0.5039370078740157
              },
              {
                "duration": 0.14999999999999858,
                "durationTicks": 60,
                "midi": 58,
                "name": "A#3",
                "ticks": 15360,
                "time": 38.4,
                "velocity": 0.5039370078740157
              },
              {
                "duration": 0.14999999999999858,
                "durationTicks": 60,
                "midi": 61,
                "name": "C#4",
                "ticks": 15420,
                "time": 38.55,
                "velocity": 0.5039370078740157
              },
              {
                "duration": 0.15000000000000568,
                "durationTicks": 60,
                "midi": 60,
                "name": "C4",
                "ticks": 15480,
                "time": 38.699999999999996,
                "velocity": 0.5039370078740157
              },
              {
                "duration": 0.14999999999999858,
                "durationTicks": 60,
                "midi": 61,
                "name": "C#4",
                "ticks": 15540,
                "time": 38.85,
                "velocity": 0.5039370078740157
              },
              {
                "duration": 0.14999999999999858,
                "durationTicks": 60,
                "midi": 58,
                "name": "A#3",
                "ticks": 15600,
                "time": 39,
                "velocity": 0.5039370078740157
              },
              {
                "duration": 0.14999999999999858,
                "durationTicks": 60,
                "midi": 60,
                "name": "C4",
                "ticks": 15660,
                "time": 39.15,
                "velocity": 0.5039370078740157
              },
              {
                "duration": 0.14999999999999858,
                "durationTicks": 60,
                "midi": 56,
                "name": "G#3",
                "ticks": 15720,
                "time": 39.3,
                "velocity": 0.5039370078740157
              },
              {
                "duration": 0.15000000000000568,
                "durationTicks": 60,
                "midi": 58,
                "name": "A#3",
                "ticks": 15780,
                "time": 39.449999999999996,
                "velocity": 0.5039370078740157
              },
              {
                "duration": 0.14999999999999858,
                "durationTicks": 60,
                "midi": 55,
                "name": "G3",
                "ticks": 15840,
                "time": 39.6,
                "velocity": 0.5039370078740157
              },
              {
                "duration": 0.14999999999999858,
                "durationTicks": 60,
                "midi": 65,
                "name": "F4",
                "ticks": 15900,
                "time": 39.75,
                "velocity": 0.5039370078740157
              },
              {
                "duration": 0.14999999999999858,
                "durationTicks": 60,
                "midi": 64,
                "name": "E4",
                "ticks": 15960,
                "time": 39.9,
                "velocity": 0.5039370078740157
              },
              {
                "duration": 0.14999999999999858,
                "durationTicks": 60,
                "midi": 62,
                "name": "D4",
                "ticks": 16020,
                "time": 40.05,
                "velocity": 0.5039370078740157
              },
              {
                "duration": 0.15000000000000568,
                "durationTicks": 60,
                "midi": 64,
                "name": "E4",
                "ticks": 16080,
                "time": 40.199999999999996,
                "velocity": 0.5039370078740157
              },
              {
                "duration": 0.14999999999999858,
                "durationTicks": 60,
                "midi": 65,
                "name": "F4",
                "ticks": 16140,
                "time": 40.35,
                "velocity": 0.5039370078740157
              },
              {
                "duration": 0.14999999999999858,
                "durationTicks": 60,
                "midi": 62,
                "name": "D4",
                "ticks": 16200,
                "time": 40.5,
                "velocity": 0.5039370078740157
              },
              {
                "duration": 0.14999999999999858,
                "durationTicks": 60,
                "midi": 64,
                "name": "E4",
                "ticks": 16260,
                "time": 40.65,
                "velocity": 0.5039370078740157
              },
              {
                "duration": 0.14999999999999858,
                "durationTicks": 60,
                "midi": 53,
                "name": "F3",
                "ticks": 16320,
                "time": 40.8,
                "velocity": 0.5039370078740157
              },
              {
                "duration": 0.15000000000000568,
                "durationTicks": 60,
                "midi": 65,
                "name": "F4",
                "ticks": 16380,
                "time": 40.949999999999996,
                "velocity": 0.5039370078740157
              },
              {
                "duration": 0.14999999999999858,
                "durationTicks": 60,
                "midi": 63,
                "name": "D#4",
                "ticks": 16440,
                "time": 41.1,
                "velocity": 0.5039370078740157
              },
              {
                "duration": 0.14999999999999858,
                "durationTicks": 60,
                "midi": 61,
                "name": "C#4",
                "ticks": 16500,
                "time": 41.25,
                "velocity": 0.5039370078740157
              },
              {
                "duration": 0.14999999999999858,
                "durationTicks": 60,
                "midi": 63,
                "name": "D#4",
                "ticks": 16560,
                "time": 41.4,
                "velocity": 0.5039370078740157
              },
              {
                "duration": 0.14999999999999858,
                "durationTicks": 60,
                "midi": 65,
                "name": "F4",
                "ticks": 16620,
                "time": 41.55,
                "velocity": 0.5039370078740157
              },
              {
                "duration": 0.15000000000000568,
                "durationTicks": 60,
                "midi": 61,
                "name": "C#4",
                "ticks": 16680,
                "time": 41.699999999999996,
                "velocity": 0.5039370078740157
              },
              {
                "duration": 0.14999999999999858,
                "durationTicks": 60,
                "midi": 63,
                "name": "D#4",
                "ticks": 16740,
                "time": 41.85,
                "velocity": 0.5039370078740157
              },
              {
                "duration": 0.14999999999999858,
                "durationTicks": 60,
                "midi": 60,
                "name": "C4",
                "ticks": 16800,
                "time": 42,
                "velocity": 0.5039370078740157
              },
              {
                "duration": 0.14999999999999858,
                "durationTicks": 60,
                "midi": 65,
                "name": "F4",
                "ticks": 16860,
                "time": 42.15,
                "velocity": 0.5039370078740157
              },
              {
                "duration": 0.14999999999999858,
                "durationTicks": 60,
                "midi": 63,
                "name": "D#4",
                "ticks": 16920,
                "time": 42.3,
                "velocity": 0.5039370078740157
              },
              {
                "duration": 0.15000000000000568,
                "durationTicks": 60,
                "midi": 61,
                "name": "C#4",
                "ticks": 16980,
                "time": 42.449999999999996,
                "velocity": 0.5039370078740157
              },
              {
                "duration": 0.14999999999999858,
                "durationTicks": 60,
                "midi": 60,
                "name": "C4",
                "ticks": 17040,
                "time": 42.6,
                "velocity": 0.5039370078740157
              },
              {
                "duration": 0.14999999999999858,
                "durationTicks": 60,
                "midi": 61,
                "name": "C#4",
                "ticks": 17100,
                "time": 42.75,
                "velocity": 0.5039370078740157
              },
              {
                "duration": 0.14999999999999858,
                "durationTicks": 60,
                "midi": 58,
                "name": "A#3",
                "ticks": 17160,
                "time": 42.9,
                "velocity": 0.5039370078740157
              },
              {
                "duration": 0.14999999999999858,
                "durationTicks": 60,
                "midi": 60,
                "name": "C4",
                "ticks": 17220,
                "time": 43.05,
                "velocity": 0.5039370078740157
              },
              {
                "duration": 0.15000000000000568,
                "durationTicks": 60,
                "midi": 57,
                "name": "A3",
                "ticks": 17280,
                "time": 43.199999999999996,
                "velocity": 0.5039370078740157
              },
              {
                "duration": 0.14999999999999858,
                "durationTicks": 60,
                "midi": 61,
                "name": "C#4",
                "ticks": 17340,
                "time": 43.35,
                "velocity": 0.5039370078740157
              },
              {
                "duration": 0.14999999999999858,
                "durationTicks": 60,
                "midi": 60,
                "name": "C4",
                "ticks": 17400,
                "time": 43.5,
                "velocity": 0.5039370078740157
              },
              {
                "duration": 0.14999999999999858,
                "durationTicks": 60,
                "midi": 58,
                "name": "A#3",
                "ticks": 17460,
                "time": 43.65,
                "velocity": 0.5039370078740157
              },
              {
                "duration": 0.14999999999999858,
                "durationTicks": 60,
                "midi": 57,
                "name": "A3",
                "ticks": 17520,
                "time": 43.8,
                "velocity": 0.5039370078740157
              },
              {
                "duration": 0.15000000000000568,
                "durationTicks": 60,
                "midi": 58,
                "name": "A#3",
                "ticks": 17580,
                "time": 43.949999999999996,
                "velocity": 0.5039370078740157
              },
              {
                "duration": 0.14999999999999858,
                "durationTicks": 60,
                "midi": 55,
                "name": "G3",
                "ticks": 17640,
                "time": 44.1,
                "velocity": 0.5039370078740157
              },
              {
                "duration": 0.14999999999999858,
                "durationTicks": 60,
                "midi": 57,
                "name": "A3",
                "ticks": 17700,
                "time": 44.25,
                "velocity": 0.5039370078740157
              },
              {
                "duration": 0.14999999999999858,
                "durationTicks": 60,
                "midi": 48,
                "name": "C3",
                "ticks": 17760,
                "time": 44.4,
                "velocity": 0.5039370078740157
              },
              {
                "duration": 0.14999999999999858,
                "durationTicks": 60,
                "midi": 58,
                "name": "A#3",
                "ticks": 17820,
                "time": 44.55,
                "velocity": 0.5039370078740157
              },
              {
                "duration": 0.15000000000000568,
                "durationTicks": 60,
                "midi": 57,
                "name": "A3",
                "ticks": 17880,
                "time": 44.699999999999996,
                "velocity": 0.5039370078740157
              },
              {
                "duration": 0.14999999999999858,
                "durationTicks": 60,
                "midi": 55,
                "name": "G3",
                "ticks": 17940,
                "time": 44.85,
                "velocity": 0.5039370078740157
              },
              {
                "duration": 0.14999999999999858,
                "durationTicks": 60,
                "midi": 57,
                "name": "A3",
                "ticks": 18000,
                "time": 45,
                "velocity": 0.5039370078740157
              },
              {
                "duration": 0.14999999999999858,
                "durationTicks": 60,
                "midi": 58,
                "name": "A#3",
                "ticks": 18060,
                "time": 45.15,
                "velocity": 0.5039370078740157
              },
              {
                "duration": 0.14999999999999858,
                "durationTicks": 60,
                "midi": 55,
                "name": "G3",
                "ticks": 18120,
                "time": 45.3,
                "velocity": 0.5039370078740157
              },
              {
                "duration": 0.15000000000000568,
                "durationTicks": 60,
                "midi": 57,
                "name": "A3",
                "ticks": 18180,
                "time": 45.449999999999996,
                "velocity": 0.5039370078740157
              },
              {
                "duration": 0.29999999999999716,
                "durationTicks": 120,
                "midi": 58,
                "name": "A#3",
                "ticks": 18240,
                "time": 45.6,
                "velocity": 0.5039370078740157
              },
              {
                "duration": 0.14999999999999858,
                "durationTicks": 60,
                "midi": 46,
                "name": "A#2",
                "ticks": 18360,
                "time": 45.9,
                "velocity": 0.5039370078740157
              },
              {
                "duration": 0.14999999999999858,
                "durationTicks": 60,
                "midi": 45,
                "name": "A2",
                "ticks": 18420,
                "time": 46.05,
                "velocity": 0.5039370078740157
              },
              {
                "duration": 0.30000000000000426,
                "durationTicks": 120,
                "midi": 46,
                "name": "A#2",
                "ticks": 18480,
                "time": 46.199999999999996,
                "velocity": 0.5039370078740157
              },
              {
                "duration": 0.29999999999999716,
                "durationTicks": 120,
                "midi": 48,
                "name": "C3",
                "ticks": 18600,
                "time": 46.5,
                "velocity": 0.5039370078740157
              },
              {
                "duration": 0.07500000000000284,
                "durationTicks": 30,
                "midi": 49,
                "name": "C#3",
                "ticks": 18720,
                "time": 46.8,
                "velocity": 0.5039370078740157
              },
              {
                "duration": 0.07499999999999574,
                "durationTicks": 30,
                "midi": 48,
                "name": "C3",
                "ticks": 18750,
                "time": 46.875,
                "velocity": 0.4409448818897638
              },
              {
                "duration": 0.45000000000000284,
                "durationTicks": 180,
                "midi": 49,
                "name": "C#3",
                "ticks": 18780,
                "time": 46.949999999999996,
                "velocity": 0.5039370078740157
              },
              {
                "duration": 0.6000000000000014,
                "durationTicks": 240,
                "midi": 51,
                "name": "D#3",
                "ticks": 18960,
                "time": 47.4,
                "velocity": 0.5039370078740157
              },
              {
                "duration": 0.14999999999999858,
                "durationTicks": 60,
                "midi": 44,
                "name": "G#2",
                "ticks": 19320,
                "time": 48.3,
                "velocity": 0.5039370078740157
              },
              {
                "duration": 0.15000000000000568,
                "durationTicks": 60,
                "midi": 43,
                "name": "G2",
                "ticks": 19380,
                "time": 48.449999999999996,
                "velocity": 0.5039370078740157
              },
              {
                "duration": 0.29999999999999716,
                "durationTicks": 120,
                "midi": 44,
                "name": "G#2",
                "ticks": 19440,
                "time": 48.6,
                "velocity": 0.5039370078740157
              },
              {
                "duration": 0.29999999999999716,
                "durationTicks": 120,
                "midi": 46,
                "name": "A#2",
                "ticks": 19560,
                "time": 48.9,
                "velocity": 0.5039370078740157
              },
              {
                "duration": 0.07500000000000284,
                "durationTicks": 30,
                "midi": 48,
                "name": "C3",
                "ticks": 19680,
                "time": 49.199999999999996,
                "velocity": 0.5039370078740157
              },
              {
                "duration": 0.07500000000000284,
                "durationTicks": 30,
                "midi": 46,
                "name": "A#2",
                "ticks": 19710,
                "time": 49.275,
                "velocity": 0.4409448818897638
              },
              {
                "duration": 0.44999999999999574,
                "durationTicks": 180,
                "midi": 48,
                "name": "C3",
                "ticks": 19740,
                "time": 49.35,
                "velocity": 0.5039370078740157
              },
              {
                "duration": 0.6000000000000014,
                "durationTicks": 240,
                "midi": 49,
                "name": "C#3",
                "ticks": 19920,
                "time": 49.8,
                "velocity": 0.5039370078740157
              },
              {
                "duration": 0.15000000000000568,
                "durationTicks": 60,
                "midi": 43,
                "name": "G2",
                "ticks": 20280,
                "time": 50.699999999999996,
                "velocity": 0.5039370078740157
              },
              {
                "duration": 0.14999999999999858,
                "durationTicks": 60,
                "midi": 41,
                "name": "F2",
                "ticks": 20340,
                "time": 50.85,
                "velocity": 0.5039370078740157
              },
              {
                "duration": 0.29999999999999716,
                "durationTicks": 120,
                "midi": 43,
                "name": "G2",
                "ticks": 20400,
                "time": 51,
                "velocity": 0.5039370078740157
              },
              {
                "duration": 0.30000000000000426,
                "durationTicks": 120,
                "midi": 44,
                "name": "G#2",
                "ticks": 20520,
                "time": 51.3,
                "velocity": 0.5039370078740157
              },
              {
                "duration": 0.07499999999999574,
                "durationTicks": 30,
                "midi": 46,
                "name": "A#2",
                "ticks": 20640,
                "time": 51.6,
                "velocity": 0.5039370078740157
              },
              {
                "duration": 0.07500000000000284,
                "durationTicks": 30,
                "midi": 44,
                "name": "G#2",
                "ticks": 20670,
                "time": 51.675,
                "velocity": 0.4409448818897638
              },
              {
                "duration": 0.44999999999999574,
                "durationTicks": 180,
                "midi": 46,
                "name": "A#2",
                "ticks": 20700,
                "time": 51.75,
                "velocity": 0.5039370078740157
              },
              {
                "duration": 0.6000000000000014,
                "durationTicks": 240,
                "midi": 48,
                "name": "C3",
                "ticks": 20880,
                "time": 52.199999999999996,
                "velocity": 0.5039370078740157
              },
              {
                "duration": 0.14999999999999858,
                "durationTicks": 60,
                "midi": 41,
                "name": "F2",
                "ticks": 21120,
                "time": 52.8,
                "velocity": 0.5039370078740157
              },
              {
                "duration": 0.15000000000000568,
                "durationTicks": 60,
                "midi": 60,
                "name": "C4",
                "ticks": 21180,
                "time": 52.949999999999996,
                "velocity": 0.5039370078740157
              },
              {
                "duration": 0.14999999999999858,
                "durationTicks": 60,
                "midi": 58,
                "name": "A#3",
                "ticks": 21240,
                "time": 53.1,
                "velocity": 0.5039370078740157
              },
              {
                "duration": 0.14999999999999858,
                "durationTicks": 60,
                "midi": 60,
                "name": "C4",
                "ticks": 21300,
                "time": 53.25,
                "velocity": 0.5039370078740157
              },
              {
                "duration": 0.14999999999999858,
                "durationTicks": 60,
                "midi": 56,
                "name": "G#3",
                "ticks": 21360,
                "time": 53.4,
                "velocity": 0.5039370078740157
              },
              {
                "duration": 0.14999999999999858,
                "durationTicks": 60,
                "midi": 58,
                "name": "A#3",
                "ticks": 21420,
                "time": 53.55,
                "velocity": 0.5039370078740157
              },
              {
                "duration": 0.15000000000000568,
                "durationTicks": 60,
                "midi": 55,
                "name": "G3",
                "ticks": 21480,
                "time": 53.699999999999996,
                "velocity": 0.5039370078740157
              },
              {
                "duration": 0.14999999999999858,
                "durationTicks": 60,
                "midi": 56,
                "name": "G#3",
                "ticks": 21540,
                "time": 53.85,
                "velocity": 0.5039370078740157
              },
              {
                "duration": 0.14999999999999858,
                "durationTicks": 60,
                "midi": 53,
                "name": "F3",
                "ticks": 21600,
                "time": 54,
                "velocity": 0.5039370078740157
              },
              {
                "duration": 0.14999999999999858,
                "durationTicks": 60,
                "midi": 56,
                "name": "G#3",
                "ticks": 21660,
                "time": 54.15,
                "velocity": 0.5039370078740157
              },
              {
                "duration": 0.14999999999999858,
                "durationTicks": 60,
                "midi": 55,
                "name": "G3",
                "ticks": 21720,
                "time": 54.3,
                "velocity": 0.5039370078740157
              },
              {
                "duration": 0.15000000000000568,
                "durationTicks": 60,
                "midi": 56,
                "name": "G#3",
                "ticks": 21780,
                "time": 54.449999999999996,
                "velocity": 0.5039370078740157
              },
              {
                "duration": 0.14999999999999858,
                "durationTicks": 60,
                "midi": 53,
                "name": "F3",
                "ticks": 21840,
                "time": 54.6,
                "velocity": 0.5039370078740157
              },
              {
                "duration": 0.14999999999999858,
                "durationTicks": 60,
                "midi": 55,
                "name": "G3",
                "ticks": 21900,
                "time": 54.75,
                "velocity": 0.5039370078740157
              },
              {
                "duration": 0.14999999999999858,
                "durationTicks": 60,
                "midi": 51,
                "name": "D#3",
                "ticks": 21960,
                "time": 54.9,
                "velocity": 0.5039370078740157
              },
              {
                "duration": 0.14999999999999858,
                "durationTicks": 60,
                "midi": 53,
                "name": "F3",
                "ticks": 22020,
                "time": 55.05,
                "velocity": 0.5039370078740157
              },
              {
                "duration": 0.15000000000000568,
                "durationTicks": 60,
                "midi": 49,
                "name": "C#3",
                "ticks": 22080,
                "time": 55.199999999999996,
                "velocity": 0.5039370078740157
              },
              {
                "duration": 0.14999999999999858,
                "durationTicks": 60,
                "midi": 53,
                "name": "F3",
                "ticks": 22140,
                "time": 55.35,
                "velocity": 0.5039370078740157
              },
              {
                "duration": 0.14999999999999858,
                "durationTicks": 60,
                "midi": 51,
                "name": "D#3",
                "ticks": 22200,
                "time": 55.5,
                "velocity": 0.5039370078740157
              },
              {
                "duration": 0.14999999999999858,
                "durationTicks": 60,
                "midi": 53,
                "name": "F3",
                "ticks": 22260,
                "time": 55.65,
                "velocity": 0.5039370078740157
              },
              {
                "duration": 0.14999999999999858,
                "durationTicks": 60,
                "midi": 49,
                "name": "C#3",
                "ticks": 22320,
                "time": 55.8,
                "velocity": 0.5039370078740157
              },
              {
                "duration": 0.15000000000000568,
                "durationTicks": 60,
                "midi": 51,
                "name": "D#3",
                "ticks": 22380,
                "time": 55.949999999999996,
                "velocity": 0.5039370078740157
              },
              {
                "duration": 0.14999999999999858,
                "durationTicks": 60,
                "midi": 48,
                "name": "C3",
                "ticks": 22440,
                "time": 56.1,
                "velocity": 0.5039370078740157
              },
              {
                "duration": 0.14999999999999858,
                "durationTicks": 60,
                "midi": 49,
                "name": "C#3",
                "ticks": 22500,
                "time": 56.25,
                "velocity": 0.5039370078740157
              },
              {
                "duration": 0.14999999999999858,
                "durationTicks": 60,
                "midi": 46,
                "name": "A#2",
                "ticks": 22560,
                "time": 56.4,
                "velocity": 0.5039370078740157
              },
              {
                "duration": 0.14999999999999858,
                "durationTicks": 60,
                "midi": 56,
                "name": "G#3",
                "ticks": 22620,
                "time": 56.55,
                "velocity": 0.5039370078740157
              },
              {
                "duration": 0.15000000000000568,
                "durationTicks": 60,
                "midi": 55,
                "name": "G3",
                "ticks": 22680,
                "time": 56.699999999999996,
                "velocity": 0.5039370078740157
              },
              {
                "duration": 0.14999999999999858,
                "durationTicks": 60,
                "midi": 53,
                "name": "F3",
                "ticks": 22740,
                "time": 56.85,
                "velocity": 0.5039370078740157
              },
              {
                "duration": 0.14999999999999858,
                "durationTicks": 60,
                "midi": 55,
                "name": "G3",
                "ticks": 22800,
                "time": 57,
                "velocity": 0.5039370078740157
              },
              {
                "duration": 0.14999999999999858,
                "durationTicks": 60,
                "midi": 56,
                "name": "G#3",
                "ticks": 22860,
                "time": 57.15,
                "velocity": 0.5039370078740157
              },
              {
                "duration": 0.14999999999999858,
                "durationTicks": 60,
                "midi": 53,
                "name": "F3",
                "ticks": 22920,
                "time": 57.3,
                "velocity": 0.5039370078740157
              },
              {
                "duration": 0.14999999999999858,
                "durationTicks": 60,
                "midi": 55,
                "name": "G3",
                "ticks": 22980,
                "time": 57.449999999999996,
                "velocity": 0.5039370078740157
              },
              {
                "duration": 0.30000000000000426,
                "durationTicks": 120,
                "midi": 56,
                "name": "G#3",
                "ticks": 23040,
                "time": 57.599999999999994,
                "velocity": 0.5039370078740157
              },
              {
                "duration": 0.14999999999999858,
                "durationTicks": 60,
                "midi": 51,
                "name": "D#3",
                "ticks": 23160,
                "time": 57.9,
                "velocity": 0.5039370078740157
              },
              {
                "duration": 0.14999999999999858,
                "durationTicks": 60,
                "midi": 50,
                "name": "D3",
                "ticks": 23220,
                "time": 58.05,
                "velocity": 0.5039370078740157
              },
              {
                "duration": 0.30000000000000426,
                "durationTicks": 120,
                "midi": 51,
                "name": "D#3",
                "ticks": 23280,
                "time": 58.199999999999996,
                "velocity": 0.5039370078740157
              },
              {
                "duration": 0.29999999999999716,
                "durationTicks": 120,
                "midi": 53,
                "name": "F3",
                "ticks": 23400,
                "time": 58.5,
                "velocity": 0.5039370078740157
              },
              {
                "duration": 0.07500000000000284,
                "durationTicks": 30,
                "midi": 55,
                "name": "G3",
                "ticks": 23520,
                "time": 58.8,
                "velocity": 0.5039370078740157
              },
              {
                "duration": 0.07499999999999574,
                "durationTicks": 30,
                "midi": 53,
                "name": "F3",
                "ticks": 23550,
                "time": 58.875,
                "velocity": 0.4409448818897638
              },
              {
                "duration": 0.45000000000000284,
                "durationTicks": 180,
                "midi": 55,
                "name": "G3",
                "ticks": 23580,
                "time": 58.949999999999996,
                "velocity": 0.5039370078740157
              },
              {
                "duration": 0.6000000000000014,
                "durationTicks": 240,
                "midi": 56,
                "name": "G#3",
                "ticks": 23760,
                "time": 59.4,
                "velocity": 0.5039370078740157
              },
              {
                "duration": 0.14999999999999858,
                "durationTicks": 60,
                "midi": 53,
                "name": "F3",
                "ticks": 24120,
                "time": 60.3,
                "velocity": 0.5039370078740157
              },
              {
                "duration": 0.14999999999999858,
                "durationTicks": 60,
                "midi": 51,
                "name": "D#3",
                "ticks": 24180,
                "time": 60.449999999999996,
                "velocity": 0.5039370078740157
              },
              {
                "duration": 0.30000000000000426,
                "durationTicks": 120,
                "midi": 53,
                "name": "F3",
                "ticks": 24240,
                "time": 60.599999999999994,
                "velocity": 0.5039370078740157
              },
              {
                "duration": 0.29999999999999716,
                "durationTicks": 120,
                "midi": 55,
                "name": "G3",
                "ticks": 24360,
                "time": 60.9,
                "velocity": 0.5039370078740157
              },
              {
                "duration": 0.07500000000000284,
                "durationTicks": 30,
                "midi": 56,
                "name": "G#3",
                "ticks": 24480,
                "time": 61.199999999999996,
                "velocity": 0.5039370078740157
              },
              {
                "duration": 0.07499999999999574,
                "durationTicks": 30,
                "midi": 55,
                "name": "G3",
                "ticks": 24510,
                "time": 61.275,
                "velocity": 0.4409448818897638
              },
              {
                "duration": 0.45000000000000284,
                "durationTicks": 180,
                "midi": 56,
                "name": "G#3",
                "ticks": 24540,
                "time": 61.349999999999994,
                "velocity": 0.5039370078740157
              },
              {
                "duration": 0.6000000000000014,
                "durationTicks": 240,
                "midi": 58,
                "name": "A#3",
                "ticks": 24720,
                "time": 61.8,
                "velocity": 0.5039370078740157
              },
              {
                "duration": 0.14999999999999858,
                "durationTicks": 60,
                "midi": 55,
                "name": "G3",
                "ticks": 24960,
                "time": 62.4,
                "velocity": 0.5039370078740157
              },
              {
                "duration": 0.14999999999999858,
                "durationTicks": 60,
                "midi": 56,
                "name": "G#3",
                "ticks": 25020,
                "time": 62.55,
                "velocity": 0.5039370078740157
              },
              {
                "duration": 0.14999999999999858,
                "durationTicks": 60,
                "midi": 55,
                "name": "G3",
                "ticks": 25080,
                "time": 62.699999999999996,
                "velocity": 0.5039370078740157
              },
              {
                "duration": 0.15000000000000568,
                "durationTicks": 60,
                "midi": 53,
                "name": "F3",
                "ticks": 25140,
                "time": 62.849999999999994,
                "velocity": 0.5039370078740157
              },
              {
                "duration": 0.14999999999999858,
                "durationTicks": 60,
                "midi": 55,
                "name": "G3",
                "ticks": 25200,
                "time": 63,
                "velocity": 0.5039370078740157
              },
              {
                "duration": 0.14999999999999858,
                "durationTicks": 60,
                "midi": 56,
                "name": "G#3",
                "ticks": 25260,
                "time": 63.15,
                "velocity": 0.5039370078740157
              },
              {
                "duration": 0.14999999999999858,
                "durationTicks": 60,
                "midi": 53,
                "name": "F3",
                "ticks": 25320,
                "time": 63.3,
                "velocity": 0.5039370078740157
              },
              {
                "duration": 0.14999999999999858,
                "durationTicks": 60,
                "midi": 55,
                "name": "G3",
                "ticks": 25380,
                "time": 63.449999999999996,
                "velocity": 0.5039370078740157
              },
              {
                "duration": 0.15000000000000568,
                "durationTicks": 60,
                "midi": 51,
                "name": "D#3",
                "ticks": 25440,
                "time": 63.599999999999994,
                "velocity": 0.5039370078740157
              },
              {
                "duration": 0.14999999999999858,
                "durationTicks": 60,
                "midi": 63,
                "name": "D#4",
                "ticks": 25500,
                "time": 63.75,
                "velocity": 0.5039370078740157
              },
              {
                "duration": 0.14999999999999858,
                "durationTicks": 60,
                "midi": 62,
                "name": "D4",
                "ticks": 25560,
                "time": 63.9,
                "velocity": 0.5039370078740157
              },
              {
                "duration": 0.15000000000000568,
                "durationTicks": 60,
                "midi": 63,
                "name": "D#4",
                "ticks": 25620,
                "time": 64.05,
                "velocity": 0.5039370078740157
              },
              {
                "duration": 0.14999999999999147,
                "durationTicks": 60,
                "midi": 60,
                "name": "C4",
                "ticks": 25680,
                "time": 64.2,
                "velocity": 0.5039370078740157
              },
              {
                "duration": 0.15000000000000568,
                "durationTicks": 60,
                "midi": 62,
                "name": "D4",
                "ticks": 25740,
                "time": 64.35,
                "velocity": 0.5039370078740157
              },
              {
                "duration": 0.14999999999999147,
                "durationTicks": 60,
                "midi": 58,
                "name": "A#3",
                "ticks": 25800,
                "time": 64.5,
                "velocity": 0.5039370078740157
              },
              {
                "duration": 0.15000000000000568,
                "durationTicks": 60,
                "midi": 60,
                "name": "C4",
                "ticks": 25860,
                "time": 64.64999999999999,
                "velocity": 0.5039370078740157
              },
              {
                "duration": 0.15000000000000568,
                "durationTicks": 60,
                "midi": 56,
                "name": "G#3",
                "ticks": 25920,
                "time": 64.8,
                "velocity": 0.5039370078740157
              },
              {
                "duration": 0.14999999999999147,
                "durationTicks": 60,
                "midi": 60,
                "name": "C4",
                "ticks": 25980,
                "time": 64.95,
                "velocity": 0.5039370078740157
              },
              {
                "duration": 0.15000000000000568,
                "durationTicks": 60,
                "midi": 58,
                "name": "A#3",
                "ticks": 26040,
                "time": 65.1,
                "velocity": 0.5039370078740157
              },
              {
                "duration": 0.14999999999999147,
                "durationTicks": 60,
                "midi": 60,
                "name": "C4",
                "ticks": 26100,
                "time": 65.25,
                "velocity": 0.5039370078740157
              },
              {
                "duration": 0.15000000000000568,
                "durationTicks": 60,
                "midi": 56,
                "name": "G#3",
                "ticks": 26160,
                "time": 65.39999999999999,
                "velocity": 0.5039370078740157
              },
              {
                "duration": 0.15000000000000568,
                "durationTicks": 60,
                "midi": 58,
                "name": "A#3",
                "ticks": 26220,
                "time": 65.55,
                "velocity": 0.5039370078740157
              },
              {
                "duration": 0.14999999999999147,
                "durationTicks": 60,
                "midi": 55,
                "name": "G3",
                "ticks": 26280,
                "time": 65.7,
                "velocity": 0.5039370078740157
              },
              {
                "duration": 0.15000000000000568,
                "durationTicks": 60,
                "midi": 56,
                "name": "G#3",
                "ticks": 26340,
                "time": 65.85,
                "velocity": 0.5039370078740157
              },
              {
                "duration": 0.14999999999999147,
                "durationTicks": 60,
                "midi": 53,
                "name": "F3",
                "ticks": 26400,
                "time": 66,
                "velocity": 0.5039370078740157
              },
              {
                "duration": 0.15000000000000568,
                "durationTicks": 60,
                "midi": 63,
                "name": "D#4",
                "ticks": 26460,
                "time": 66.14999999999999,
                "velocity": 0.5039370078740157
              },
              {
                "duration": 0.15000000000000568,
                "durationTicks": 60,
                "midi": 62,
                "name": "D4",
                "ticks": 26520,
                "time": 66.3,
                "velocity": 0.5039370078740157
              },
              {
                "duration": 0.14999999999999147,
                "durationTicks": 60,
                "midi": 60,
                "name": "C4",
                "ticks": 26580,
                "time": 66.45,
                "velocity": 0.5039370078740157
              },
              {
                "duration": 0.15000000000000568,
                "durationTicks": 60,
                "midi": 62,
                "name": "D4",
                "ticks": 26640,
                "time": 66.6,
                "velocity": 0.5039370078740157
              },
              {
                "duration": 0.14999999999999147,
                "durationTicks": 60,
                "midi": 63,
                "name": "D#4",
                "ticks": 26700,
                "time": 66.75,
                "velocity": 0.5039370078740157
              },
              {
                "duration": 0.15000000000000568,
                "durationTicks": 60,
                "midi": 60,
                "name": "C4",
                "ticks": 26760,
                "time": 66.89999999999999,
                "velocity": 0.5039370078740157
              },
              {
                "duration": 0.15000000000000568,
                "durationTicks": 60,
                "midi": 62,
                "name": "D4",
                "ticks": 26820,
                "time": 67.05,
                "velocity": 0.5039370078740157
              },
              {
                "duration": 0.14999999999999147,
                "durationTicks": 60,
                "midi": 51,
                "name": "D#3",
                "ticks": 26880,
                "time": 67.2,
                "velocity": 0.5039370078740157
              },
              {
                "duration": 0.15000000000000568,
                "durationTicks": 60,
                "midi": 63,
                "name": "D#4",
                "ticks": 26940,
                "time": 67.35,
                "velocity": 0.5039370078740157
              },
              {
                "duration": 0.14999999999999147,
                "durationTicks": 60,
                "midi": 62,
                "name": "D4",
                "ticks": 27000,
                "time": 67.5,
                "velocity": 0.5039370078740157
              },
              {
                "duration": 0.15000000000000568,
                "durationTicks": 60,
                "midi": 60,
                "name": "C4",
                "ticks": 27060,
                "time": 67.64999999999999,
                "velocity": 0.5039370078740157
              },
              {
                "duration": 0.15000000000000568,
                "durationTicks": 60,
                "midi": 62,
                "name": "D4",
                "ticks": 27120,
                "time": 67.8,
                "velocity": 0.5039370078740157
              },
              {
                "duration": 0.14999999999999147,
                "durationTicks": 60,
                "midi": 63,
                "name": "D#4",
                "ticks": 27180,
                "time": 67.95,
                "velocity": 0.5039370078740157
              },
              {
                "duration": 0.15000000000000568,
                "durationTicks": 60,
                "midi": 60,
                "name": "C4",
                "ticks": 27240,
                "time": 68.1,
                "velocity": 0.5039370078740157
              },
              {
                "duration": 0.14999999999999147,
                "durationTicks": 60,
                "midi": 62,
                "name": "D4",
                "ticks": 27300,
                "time": 68.25,
                "velocity": 0.5039370078740157
              },
              {
                "duration": 0.15000000000000568,
                "durationTicks": 60,
                "midi": 58,
                "name": "A#3",
                "ticks": 27360,
                "time": 68.39999999999999,
                "velocity": 0.5039370078740157
              },
              {
                "duration": 0.15000000000000568,
                "durationTicks": 60,
                "midi": 63,
                "name": "D#4",
                "ticks": 27420,
                "time": 68.55,
                "velocity": 0.5039370078740157
              },
              {
                "duration": 0.14999999999999147,
                "durationTicks": 60,
                "midi": 62,
                "name": "D4",
                "ticks": 27480,
                "time": 68.7,
                "velocity": 0.5039370078740157
              },
              {
                "duration": 0.15000000000000568,
                "durationTicks": 60,
                "midi": 60,
                "name": "C4",
                "ticks": 27540,
                "time": 68.85,
                "velocity": 0.5039370078740157
              },
              {
                "duration": 0.14999999999999147,
                "durationTicks": 60,
                "midi": 58,
                "name": "A#3",
                "ticks": 27600,
                "time": 69,
                "velocity": 0.5039370078740157
              },
              {
                "duration": 0.15000000000000568,
                "durationTicks": 60,
                "midi": 60,
                "name": "C4",
                "ticks": 27660,
                "time": 69.14999999999999,
                "velocity": 0.5039370078740157
              },
              {
                "duration": 0.15000000000000568,
                "durationTicks": 60,
                "midi": 56,
                "name": "G#3",
                "ticks": 27720,
                "time": 69.3,
                "velocity": 0.5039370078740157
              },
              {
                "duration": 0.14999999999999147,
                "durationTicks": 60,
                "midi": 58,
                "name": "A#3",
                "ticks": 27780,
                "time": 69.45,
                "velocity": 0.5039370078740157
              },
              {
                "duration": 0.15000000000000568,
                "durationTicks": 60,
                "midi": 55,
                "name": "G3",
                "ticks": 27840,
                "time": 69.6,
                "velocity": 0.5039370078740157
              },
              {
                "duration": 0.14999999999999147,
                "durationTicks": 60,
                "midi": 60,
                "name": "C4",
                "ticks": 27900,
                "time": 69.75,
                "velocity": 0.5039370078740157
              },
              {
                "duration": 0.15000000000000568,
                "durationTicks": 60,
                "midi": 58,
                "name": "A#3",
                "ticks": 27960,
                "time": 69.89999999999999,
                "velocity": 0.5039370078740157
              },
              {
                "duration": 0.15000000000000568,
                "durationTicks": 60,
                "midi": 56,
                "name": "G#3",
                "ticks": 28020,
                "time": 70.05,
                "velocity": 0.5039370078740157
              },
              {
                "duration": 0.14999999999999147,
                "durationTicks": 60,
                "midi": 55,
                "name": "G3",
                "ticks": 28080,
                "time": 70.2,
                "velocity": 0.5039370078740157
              },
              {
                "duration": 0.15000000000000568,
                "durationTicks": 60,
                "midi": 56,
                "name": "G#3",
                "ticks": 28140,
                "time": 70.35,
                "velocity": 0.5039370078740157
              },
              {
                "duration": 0.14999999999999147,
                "durationTicks": 60,
                "midi": 53,
                "name": "F3",
                "ticks": 28200,
                "time": 70.5,
                "velocity": 0.5039370078740157
              },
              {
                "duration": 0.15000000000000568,
                "durationTicks": 60,
                "midi": 55,
                "name": "G3",
                "ticks": 28260,
                "time": 70.64999999999999,
                "velocity": 0.5039370078740157
              },
              {
                "duration": 0.15000000000000568,
                "durationTicks": 60,
                "midi": 51,
                "name": "D#3",
                "ticks": 28320,
                "time": 70.8,
                "velocity": 0.5039370078740157
              },
              {
                "duration": 0.14999999999999147,
                "durationTicks": 60,
                "midi": 56,
                "name": "G#3",
                "ticks": 28380,
                "time": 70.95,
                "velocity": 0.5039370078740157
              },
              {
                "duration": 0.15000000000000568,
                "durationTicks": 60,
                "midi": 55,
                "name": "G3",
                "ticks": 28440,
                "time": 71.1,
                "velocity": 0.5039370078740157
              },
              {
                "duration": 0.14999999999999147,
                "durationTicks": 60,
                "midi": 53,
                "name": "F3",
                "ticks": 28500,
                "time": 71.25,
                "velocity": 0.5039370078740157
              },
              {
                "duration": 0.15000000000000568,
                "durationTicks": 60,
                "midi": 51,
                "name": "D#3",
                "ticks": 28560,
                "time": 71.39999999999999,
                "velocity": 0.5039370078740157
              },
              {
                "duration": 0.15000000000000568,
                "durationTicks": 60,
                "midi": 53,
                "name": "F3",
                "ticks": 28620,
                "time": 71.55,
                "velocity": 0.5039370078740157
              },
              {
                "duration": 0.14999999999999147,
                "durationTicks": 60,
                "midi": 49,
                "name": "C#3",
                "ticks": 28680,
                "time": 71.7,
                "velocity": 0.5039370078740157
              },
              {
                "duration": 0.15000000000000568,
                "durationTicks": 60,
                "midi": 51,
                "name": "D#3",
                "ticks": 28740,
                "time": 71.85,
                "velocity": 0.5039370078740157
              },
              {
                "duration": 0.14999999999999147,
                "durationTicks": 60,
                "midi": 48,
                "name": "C3",
                "ticks": 28800,
                "time": 72,
                "velocity": 0.5039370078740157
              },
              {
                "duration": 0.15000000000000568,
                "durationTicks": 60,
                "midi": 53,
                "name": "F3",
                "ticks": 28860,
                "time": 72.14999999999999,
                "velocity": 0.5039370078740157
              },
              {
                "duration": 0.15000000000000568,
                "durationTicks": 60,
                "midi": 51,
                "name": "D#3",
                "ticks": 28920,
                "time": 72.3,
                "velocity": 0.5039370078740157
              },
              {
                "duration": 0.14999999999999147,
                "durationTicks": 60,
                "midi": 49,
                "name": "C#3",
                "ticks": 28980,
                "time": 72.45,
                "velocity": 0.5039370078740157
              },
              {
                "duration": 0.15000000000000568,
                "durationTicks": 60,
                "midi": 48,
                "name": "C3",
                "ticks": 29040,
                "time": 72.6,
                "velocity": 0.5039370078740157
              },
              {
                "duration": 0.14999999999999147,
                "durationTicks": 60,
                "midi": 49,
                "name": "C#3",
                "ticks": 29100,
                "time": 72.75,
                "velocity": 0.5039370078740157
              },
              {
                "duration": 0.15000000000000568,
                "durationTicks": 60,
                "midi": 46,
                "name": "A#2",
                "ticks": 29160,
                "time": 72.89999999999999,
                "velocity": 0.5039370078740157
              },
              {
                "duration": 0.15000000000000568,
                "durationTicks": 60,
                "midi": 48,
                "name": "C3",
                "ticks": 29220,
                "time": 73.05,
                "velocity": 0.5039370078740157
              },
              {
                "duration": 0.14999999999999147,
                "durationTicks": 60,
                "midi": 41,
                "name": "F2",
                "ticks": 29280,
                "time": 73.2,
                "velocity": 0.5039370078740157
              },
              {
                "duration": 0.15000000000000568,
                "durationTicks": 60,
                "midi": 51,
                "name": "D#3",
                "ticks": 29340,
                "time": 73.35,
                "velocity": 0.5039370078740157
              },
              {
                "duration": 0.14999999999999147,
                "durationTicks": 60,
                "midi": 50,
                "name": "D3",
                "ticks": 29400,
                "time": 73.5,
                "velocity": 0.5039370078740157
              },
              {
                "duration": 0.15000000000000568,
                "durationTicks": 60,
                "midi": 48,
                "name": "C3",
                "ticks": 29460,
                "time": 73.64999999999999,
                "velocity": 0.5039370078740157
              },
              {
                "duration": 0.15000000000000568,
                "durationTicks": 60,
                "midi": 50,
                "name": "D3",
                "ticks": 29520,
                "time": 73.8,
                "velocity": 0.5039370078740157
              },
              {
                "duration": 0.14999999999999147,
                "durationTicks": 60,
                "midi": 51,
                "name": "D#3",
                "ticks": 29580,
                "time": 73.95,
                "velocity": 0.5039370078740157
              },
              {
                "duration": 0.15000000000000568,
                "durationTicks": 60,
                "midi": 48,
                "name": "C3",
                "ticks": 29640,
                "time": 74.1,
                "velocity": 0.5039370078740157
              },
              {
                "duration": 0.14999999999999147,
                "durationTicks": 60,
                "midi": 50,
                "name": "D3",
                "ticks": 29700,
                "time": 74.25,
                "velocity": 0.5039370078740157
              },
              {
                "duration": 0.30000000000001137,
                "durationTicks": 120,
                "midi": 51,
                "name": "D#3",
                "ticks": 29760,
                "time": 74.39999999999999,
                "velocity": 0.5039370078740157
              },
              {
                "duration": 0.29999999999999716,
                "durationTicks": 120,
                "midi": 43,
                "name": "G2",
                "ticks": 29880,
                "time": 74.7,
                "velocity": 0.5039370078740157
              },
              {
                "duration": 0.29999999999999716,
                "durationTicks": 120,
                "midi": 44,
                "name": "G#2",
                "ticks": 30000,
                "time": 75,
                "velocity": 0.5039370078740157
              },
              {
                "duration": 0.29999999999999716,
                "durationTicks": 120,
                "midi": 46,
                "name": "A#2",
                "ticks": 30120,
                "time": 75.3,
                "velocity": 0.5039370078740157
              },
              {
                "duration": 2.4000000000000057,
                "durationTicks": 960,
                "midi": 39,
                "name": "D#2",
                "ticks": 30240,
                "time": 75.6,
                "velocity": 0.5039370078740157
              }
            ],
            "endOfTrackTicks": 31200
          }
        ]
    },

    "invention-06" : {
        "header": {
          "keySignatures": [],
          "meta": [
            {
              "text": "Repeat",
              "ticks": 7200,
              "type": "text"
            },
            {
              "text": "2nd Part",
              "ticks": 14400,
              "type": "text"
            },
            {
              "text": "Repeat",
              "ticks": 29520,
              "type": "text"
            }
          ],
          "name": "Invention 6 in E Major",
          "ppq": 240,
          "tempos": [
            {
              "bpm": 72.00002880001152,
              "ticks": 0
            },
            {
              "bpm": 69.99998833333528,
              "ticks": 43920
            },
            {
              "bpm": 72.00002880001152,
              "ticks": 44280
            }
          ],
          "timeSignatures": [
            {
              "ticks": 0,
              "timeSignature": [
                3,
                8
              ],
              "measures": 0
            }
          ]
        },
        "tracks": [
          {
            "channel": 0,
            "controlChanges": {},
            "pitchBends": [],
            "instrument": {
              "family": "piano",
              "number": 0,
              "name": "acoustic grand piano"
            },
            "name": "",
            "notes": [
              {
                "duration": 0.41666649999999994,
                "durationTicks": 120,
                "midi": 76,
                "name": "E5",
                "ticks": 60,
                "time": 0.20833325,
                "velocity": 0.5039370078740157
              },
              {
                "duration": 0.41666650000000005,
                "durationTicks": 120,
                "midi": 75,
                "name": "D#5",
                "ticks": 180,
                "time": 0.62499975,
                "velocity": 0.5039370078740157
              },
              {
                "duration": 0.41666650000000005,
                "durationTicks": 120,
                "midi": 74,
                "name": "D5",
                "ticks": 300,
                "time": 1.04166625,
                "velocity": 0.5039370078740157
              },
              {
                "duration": 0.41666649999999983,
                "durationTicks": 120,
                "midi": 73,
                "name": "C#5",
                "ticks": 420,
                "time": 1.45833275,
                "velocity": 0.5039370078740157
              },
              {
                "duration": 0.41666650000000005,
                "durationTicks": 120,
                "midi": 71,
                "name": "B4",
                "ticks": 540,
                "time": 1.87499925,
                "velocity": 0.5039370078740157
              },
              {
                "duration": 0.41666649999999983,
                "durationTicks": 120,
                "midi": 69,
                "name": "A4",
                "ticks": 660,
                "time": 2.29166575,
                "velocity": 0.5039370078740157
              },
              {
                "duration": 0.4166665000000003,
                "durationTicks": 120,
                "midi": 68,
                "name": "G#4",
                "ticks": 780,
                "time": 2.7083322499999998,
                "velocity": 0.5039370078740157
              },
              {
                "duration": 0.41666649999999983,
                "durationTicks": 120,
                "midi": 66,
                "name": "F#4",
                "ticks": 900,
                "time": 3.12499875,
                "velocity": 0.5039370078740157
              },
              {
                "duration": 0.10416662499999996,
                "durationTicks": 30,
                "midi": 68,
                "name": "G#4",
                "ticks": 1020,
                "time": 3.54166525,
                "velocity": 0.5039370078740157
              },
              {
                "duration": 0.10416662499999996,
                "durationTicks": 30,
                "midi": 69,
                "name": "A4",
                "ticks": 1050,
                "time": 3.645831875,
                "velocity": 0.5039370078740157
              },
              {
                "duration": 0.20833325000000036,
                "durationTicks": 60,
                "midi": 68,
                "name": "G#4",
                "ticks": 1080,
                "time": 3.7499985,
                "velocity": 0.5039370078740157
              },
              {
                "duration": 0.10416662499999951,
                "durationTicks": 30,
                "midi": 71,
                "name": "B4",
                "ticks": 1140,
                "time": 3.95833175,
                "velocity": 0.5039370078740157
              },
              {
                "duration": 0.1041666250000004,
                "durationTicks": 30,
                "midi": 69,
                "name": "A4",
                "ticks": 1170,
                "time": 4.062498375,
                "velocity": 0.5039370078740157
              },
              {
                "duration": 0.20833324999999991,
                "durationTicks": 60,
                "midi": 71,
                "name": "B4",
                "ticks": 1200,
                "time": 4.166665,
                "velocity": 0.5039370078740157
              },
              {
                "duration": 0.1041666250000004,
                "durationTicks": 30,
                "midi": 68,
                "name": "G#4",
                "ticks": 1260,
                "time": 4.37499825,
                "velocity": 0.5039370078740157
              },
              {
                "duration": 0.10416662499999951,
                "durationTicks": 30,
                "midi": 66,
                "name": "F#4",
                "ticks": 1290,
                "time": 4.479164875,
                "velocity": 0.5039370078740157
              },
              {
                "duration": 0.20833324999999991,
                "durationTicks": 60,
                "midi": 68,
                "name": "G#4",
                "ticks": 1320,
                "time": 4.5833315,
                "velocity": 0.5039370078740157
              },
              {
                "duration": 0.1041666250000004,
                "durationTicks": 30,
                "midi": 64,
                "name": "E4",
                "ticks": 1380,
                "time": 4.79166475,
                "velocity": 0.5039370078740157
              },
              {
                "duration": 0.10416662499999951,
                "durationTicks": 30,
                "midi": 63,
                "name": "D#4",
                "ticks": 1410,
                "time": 4.895831375,
                "velocity": 0.5039370078740157
              },
              {
                "duration": 0.41666649999999983,
                "durationTicks": 120,
                "midi": 64,
                "name": "E4",
                "ticks": 1440,
                "time": 4.999998,
                "velocity": 0.5039370078740157
              },
              {
                "duration": 0.4166665000000007,
                "durationTicks": 120,
                "midi": 66,
                "name": "F#4",
                "ticks": 1560,
                "time": 5.4166644999999995,
                "velocity": 0.5039370078740157
              },
              {
                "duration": 0.41666649999999983,
                "durationTicks": 120,
                "midi": 68,
                "name": "G#4",
                "ticks": 1680,
                "time": 5.833331,
                "velocity": 0.5039370078740157
              },
              {
                "duration": 0.41666649999999983,
                "durationTicks": 120,
                "midi": 69,
                "name": "A4",
                "ticks": 1800,
                "time": 6.2499975,
                "velocity": 0.5039370078740157
              },
              {
                "duration": 0.41666649999999983,
                "durationTicks": 120,
                "midi": 71,
                "name": "B4",
                "ticks": 1920,
                "time": 6.666664,
                "velocity": 0.5039370078740157
              },
              {
                "duration": 0.41666649999999983,
                "durationTicks": 120,
                "midi": 73,
                "name": "C#5",
                "ticks": 2040,
                "time": 7.0833305,
                "velocity": 0.5039370078740157
              },
              {
                "duration": 0.4166665000000007,
                "durationTicks": 120,
                "midi": 75,
                "name": "D#5",
                "ticks": 2160,
                "time": 7.499997,
                "velocity": 0.5039370078740157
              },
              {
                "duration": 0.20833324999999903,
                "durationTicks": 60,
                "midi": 76,
                "name": "E5",
                "ticks": 2280,
                "time": 7.9166635,
                "velocity": 0.5039370078740157
              },
              {
                "duration": 0.2083332500000008,
                "durationTicks": 60,
                "midi": 75,
                "name": "D#5",
                "ticks": 2340,
                "time": 8.12499675,
                "velocity": 0.5039370078740157
              },
              {
                "duration": 0.20833324999999903,
                "durationTicks": 60,
                "midi": 73,
                "name": "C#5",
                "ticks": 2400,
                "time": 8.33333,
                "velocity": 0.5039370078740157
              },
              {
                "duration": 0.2083332500000008,
                "durationTicks": 60,
                "midi": 71,
                "name": "B4",
                "ticks": 2460,
                "time": 8.54166325,
                "velocity": 0.5039370078740157
              },
              {
                "duration": 0.41666649999999983,
                "durationTicks": 120,
                "midi": 76,
                "name": "E5",
                "ticks": 2520,
                "time": 8.7499965,
                "velocity": 0.5039370078740157
              },
              {
                "duration": 0.41666649999999983,
                "durationTicks": 120,
                "midi": 64,
                "name": "E4",
                "ticks": 2640,
                "time": 9.166663,
                "velocity": 0.5039370078740157
              },
              {
                "duration": 0.41666649999999983,
                "durationTicks": 120,
                "midi": 80,
                "name": "G#5",
                "ticks": 2940,
                "time": 10.20832925,
                "velocity": 0.5039370078740157
              },
              {
                "duration": 0.41666649999999983,
                "durationTicks": 120,
                "midi": 76,
                "name": "E5",
                "ticks": 3060,
                "time": 10.62499575,
                "velocity": 0.5039370078740157
              },
              {
                "duration": 0.41666649999999983,
                "durationTicks": 120,
                "midi": 73,
                "name": "C#5",
                "ticks": 3180,
                "time": 11.04166225,
                "velocity": 0.5039370078740157
              },
              {
                "duration": 0.10416662499999951,
                "durationTicks": 30,
                "midi": 76,
                "name": "E5",
                "ticks": 3300,
                "time": 11.45832875,
                "velocity": 0.5039370078740157
              },
              {
                "duration": 0.10416662500000129,
                "durationTicks": 30,
                "midi": 75,
                "name": "D#5",
                "ticks": 3330,
                "time": 11.562495375,
                "velocity": 0.5039370078740157
              },
              {
                "duration": 0.20833324999999903,
                "durationTicks": 60,
                "midi": 76,
                "name": "E5",
                "ticks": 3360,
                "time": 11.666662,
                "velocity": 0.5039370078740157
              },
              {
                "duration": 0.2083332500000008,
                "durationTicks": 60,
                "midi": 73,
                "name": "C#5",
                "ticks": 3420,
                "time": 11.87499525,
                "velocity": 0.5039370078740157
              },
              {
                "duration": 0.20833324999999903,
                "durationTicks": 60,
                "midi": 70,
                "name": "A#4",
                "ticks": 3480,
                "time": 12.0833285,
                "velocity": 0.5039370078740157
              },
              {
                "duration": 0.41666649999999983,
                "durationTicks": 120,
                "midi": 66,
                "name": "F#4",
                "ticks": 3540,
                "time": 12.29166175,
                "velocity": 0.5039370078740157
              },
              {
                "duration": 0.41666649999999983,
                "durationTicks": 120,
                "midi": 78,
                "name": "F#5",
                "ticks": 3660,
                "time": 12.70832825,
                "velocity": 0.5039370078740157
              },
              {
                "duration": 0.4166665000000016,
                "durationTicks": 120,
                "midi": 75,
                "name": "D#5",
                "ticks": 3780,
                "time": 13.124994749999999,
                "velocity": 0.5039370078740157
              },
              {
                "duration": 0.41666649999999983,
                "durationTicks": 120,
                "midi": 71,
                "name": "B4",
                "ticks": 3900,
                "time": 13.54166125,
                "velocity": 0.5039370078740157
              },
              {
                "duration": 0.10416662499999951,
                "durationTicks": 30,
                "midi": 75,
                "name": "D#5",
                "ticks": 4020,
                "time": 13.95832775,
                "velocity": 0.5039370078740157
              },
              {
                "duration": 0.10416662499999951,
                "durationTicks": 30,
                "midi": 73,
                "name": "C#5",
                "ticks": 4050,
                "time": 14.062494375,
                "velocity": 0.5039370078740157
              },
              {
                "duration": 0.2083332500000008,
                "durationTicks": 60,
                "midi": 75,
                "name": "D#5",
                "ticks": 4080,
                "time": 14.166661,
                "velocity": 0.5039370078740157
              },
              {
                "duration": 0.20833324999999903,
                "durationTicks": 60,
                "midi": 71,
                "name": "B4",
                "ticks": 4140,
                "time": 14.37499425,
                "velocity": 0.5039370078740157
              },
              {
                "duration": 0.2083332500000008,
                "durationTicks": 60,
                "midi": 68,
                "name": "G#4",
                "ticks": 4200,
                "time": 14.5833275,
                "velocity": 0.5039370078740157
              },
              {
                "duration": 0.41666649999999983,
                "durationTicks": 120,
                "midi": 64,
                "name": "E4",
                "ticks": 4260,
                "time": 14.79166075,
                "velocity": 0.5039370078740157
              },
              {
                "duration": 0.41666649999999983,
                "durationTicks": 120,
                "midi": 76,
                "name": "E5",
                "ticks": 4380,
                "time": 15.20832725,
                "velocity": 0.5039370078740157
              },
              {
                "duration": 0.41666649999999983,
                "durationTicks": 120,
                "midi": 73,
                "name": "C#5",
                "ticks": 4500,
                "time": 15.62499375,
                "velocity": 0.5039370078740157
              },
              {
                "duration": 0.4166665000000016,
                "durationTicks": 120,
                "midi": 70,
                "name": "A#4",
                "ticks": 4620,
                "time": 16.04166025,
                "velocity": 0.5039370078740157
              },
              {
                "duration": 0.41666649999999805,
                "durationTicks": 120,
                "midi": 80,
                "name": "G#5",
                "ticks": 4740,
                "time": 16.45832675,
                "velocity": 0.5039370078740157
              },
              {
                "duration": 0.4166665000000016,
                "durationTicks": 120,
                "midi": 78,
                "name": "F#5",
                "ticks": 4860,
                "time": 16.87499325,
                "velocity": 0.5039370078740157
              },
              {
                "duration": 0.41666649999999805,
                "durationTicks": 120,
                "midi": 76,
                "name": "E5",
                "ticks": 4980,
                "time": 17.29165975,
                "velocity": 0.5039370078740157
              },
              {
                "duration": 0.4166665000000016,
                "durationTicks": 120,
                "midi": 75,
                "name": "D#5",
                "ticks": 5100,
                "time": 17.70832625,
                "velocity": 0.5039370078740157
              },
              {
                "duration": 0.41666649999999805,
                "durationTicks": 120,
                "midi": 73,
                "name": "C#5",
                "ticks": 5220,
                "time": 18.12499275,
                "velocity": 0.5039370078740157
              },
              {
                "duration": 0.20833325000000258,
                "durationTicks": 60,
                "midi": 71,
                "name": "B4",
                "ticks": 5340,
                "time": 18.54165925,
                "velocity": 0.5039370078740157
              },
              {
                "duration": 0.20833324999999903,
                "durationTicks": 60,
                "midi": 70,
                "name": "A#4",
                "ticks": 5400,
                "time": 18.7499925,
                "velocity": 0.5039370078740157
              },
              {
                "duration": 0.10416662500000129,
                "durationTicks": 30,
                "midi": 64,
                "name": "E4",
                "ticks": 5460,
                "time": 18.95832575,
                "velocity": 0.5039370078740157
              },
              {
                "duration": 0.10416662499999774,
                "durationTicks": 30,
                "midi": 63,
                "name": "D#4",
                "ticks": 5490,
                "time": 19.062492375,
                "velocity": 0.5039370078740157
              },
              {
                "duration": 0.20833324999999903,
                "durationTicks": 60,
                "midi": 64,
                "name": "E4",
                "ticks": 5520,
                "time": 19.166659,
                "velocity": 0.5039370078740157
              },
              {
                "duration": 0.10416662500000129,
                "durationTicks": 30,
                "midi": 70,
                "name": "A#4",
                "ticks": 5580,
                "time": 19.37499225,
                "velocity": 0.5039370078740157
              },
              {
                "duration": 0.10416662500000129,
                "durationTicks": 30,
                "midi": 68,
                "name": "G#4",
                "ticks": 5610,
                "time": 19.479158875,
                "velocity": 0.5039370078740157
              },
              {
                "duration": 0.20833324999999903,
                "durationTicks": 60,
                "midi": 70,
                "name": "A#4",
                "ticks": 5640,
                "time": 19.5833255,
                "velocity": 0.5039370078740157
              },
              {
                "duration": 0.10416662500000129,
                "durationTicks": 30,
                "midi": 71,
                "name": "B4",
                "ticks": 5700,
                "time": 19.79165875,
                "velocity": 0.5039370078740157
              },
              {
                "duration": 0.10416662499999774,
                "durationTicks": 30,
                "midi": 70,
                "name": "A#4",
                "ticks": 5730,
                "time": 19.895825375,
                "velocity": 0.5039370078740157
              },
              {
                "duration": 0.20833325000000258,
                "durationTicks": 60,
                "midi": 71,
                "name": "B4",
                "ticks": 5760,
                "time": 19.999992,
                "velocity": 0.5039370078740157
              },
              {
                "duration": 0.20833324999999903,
                "durationTicks": 60,
                "midi": 63,
                "name": "D#4",
                "ticks": 5820,
                "time": 20.20832525,
                "velocity": 0.5039370078740157
              },
              {
                "duration": 0.20833324999999903,
                "durationTicks": 60,
                "midi": 61,
                "name": "C#4",
                "ticks": 5880,
                "time": 20.4166585,
                "velocity": 0.5039370078740157
              },
              {
                "duration": 0.20833324999999903,
                "durationTicks": 60,
                "midi": 71,
                "name": "B4",
                "ticks": 5940,
                "time": 20.62499175,
                "velocity": 0.5039370078740157
              },
              {
                "duration": 0.20833325000000258,
                "durationTicks": 60,
                "midi": 61,
                "name": "C#4",
                "ticks": 6000,
                "time": 20.833325,
                "velocity": 0.5039370078740157
              },
              {
                "duration": 0.20833324999999903,
                "durationTicks": 60,
                "midi": 70,
                "name": "A#4",
                "ticks": 6060,
                "time": 21.04165825,
                "velocity": 0.5039370078740157
              },
              {
                "duration": 0.41666649999999805,
                "durationTicks": 120,
                "midi": 71,
                "name": "B4",
                "ticks": 6120,
                "time": 21.2499915,
                "velocity": 0.5039370078740157
              },
              {
                "duration": 0.20833324999999903,
                "durationTicks": 60,
                "midi": 71,
                "name": "B4",
                "ticks": 6300,
                "time": 21.87499125,
                "velocity": 0.5039370078740157
              },
              {
                "duration": 0.20833324999999903,
                "durationTicks": 60,
                "midi": 75,
                "name": "D#5",
                "ticks": 6360,
                "time": 22.0833245,
                "velocity": 0.5039370078740157
              },
              {
                "duration": 0.20833325000000258,
                "durationTicks": 60,
                "midi": 78,
                "name": "F#5",
                "ticks": 6420,
                "time": 22.29165775,
                "velocity": 0.5039370078740157
              },
              {
                "duration": 0.41666649999999805,
                "durationTicks": 120,
                "midi": 83,
                "name": "B5",
                "ticks": 6480,
                "time": 22.499991,
                "velocity": 0.5039370078740157
              },
              {
                "duration": 0.20833325000000258,
                "durationTicks": 60,
                "midi": 83,
                "name": "B5",
                "ticks": 6660,
                "time": 23.12499075,
                "velocity": 0.5039370078740157
              },
              {
                "duration": 0.20833324999999903,
                "durationTicks": 60,
                "midi": 78,
                "name": "F#5",
                "ticks": 6720,
                "time": 23.333324,
                "velocity": 0.5039370078740157
              },
              {
                "duration": 0.20833324999999903,
                "durationTicks": 60,
                "midi": 75,
                "name": "D#5",
                "ticks": 6780,
                "time": 23.54165725,
                "velocity": 0.5039370078740157
              },
              {
                "duration": 0.20833324999999903,
                "durationTicks": 60,
                "midi": 71,
                "name": "B4",
                "ticks": 6840,
                "time": 23.7499905,
                "velocity": 0.5039370078740157
              },
              {
                "duration": 0.20833325000000258,
                "durationTicks": 60,
                "midi": 66,
                "name": "F#4",
                "ticks": 6900,
                "time": 23.958323749999998,
                "velocity": 0.5039370078740157
              },
              {
                "duration": 0.20833324999999903,
                "durationTicks": 60,
                "midi": 63,
                "name": "D#4",
                "ticks": 6960,
                "time": 24.166657,
                "velocity": 0.5039370078740157
              },
              {
                "duration": 0.20833324999999903,
                "durationTicks": 60,
                "midi": 59,
                "name": "B3",
                "ticks": 7020,
                "time": 24.37499025,
                "velocity": 0.5039370078740157
              },
              {
                "duration": 0.4166665000000016,
                "durationTicks": 120,
                "midi": 76,
                "name": "E5",
                "ticks": 7260,
                "time": 25.20832325,
                "velocity": 0.5039370078740157
              },
              {
                "duration": 0.41666649999999805,
                "durationTicks": 120,
                "midi": 75,
                "name": "D#5",
                "ticks": 7380,
                "time": 25.62498975,
                "velocity": 0.5039370078740157
              },
              {
                "duration": 0.4166665000000016,
                "durationTicks": 120,
                "midi": 74,
                "name": "D5",
                "ticks": 7500,
                "time": 26.04165625,
                "velocity": 0.5039370078740157
              },
              {
                "duration": 0.41666649999999805,
                "durationTicks": 120,
                "midi": 73,
                "name": "C#5",
                "ticks": 7620,
                "time": 26.45832275,
                "velocity": 0.5039370078740157
              },
              {
                "duration": 0.4166665000000016,
                "durationTicks": 120,
                "midi": 71,
                "name": "B4",
                "ticks": 7740,
                "time": 26.87498925,
                "velocity": 0.5039370078740157
              },
              {
                "duration": 0.41666649999999805,
                "durationTicks": 120,
                "midi": 69,
                "name": "A4",
                "ticks": 7860,
                "time": 27.29165575,
                "velocity": 0.5039370078740157
              },
              {
                "duration": 0.4166665000000016,
                "durationTicks": 120,
                "midi": 68,
                "name": "G#4",
                "ticks": 7980,
                "time": 27.70832225,
                "velocity": 0.5039370078740157
              },
              {
                "duration": 0.41666649999999805,
                "durationTicks": 120,
                "midi": 66,
                "name": "F#4",
                "ticks": 8100,
                "time": 28.12498875,
                "velocity": 0.5039370078740157
              },
              {
                "duration": 0.10416662500000129,
                "durationTicks": 30,
                "midi": 68,
                "name": "G#4",
                "ticks": 8220,
                "time": 28.541655249999998,
                "velocity": 0.5039370078740157
              },
              {
                "duration": 0.10416662500000129,
                "durationTicks": 30,
                "midi": 69,
                "name": "A4",
                "ticks": 8250,
                "time": 28.645821875,
                "velocity": 0.5039370078740157
              },
              {
                "duration": 0.20833324999999903,
                "durationTicks": 60,
                "midi": 68,
                "name": "G#4",
                "ticks": 8280,
                "time": 28.7499885,
                "velocity": 0.5039370078740157
              },
              {
                "duration": 0.10416662500000129,
                "durationTicks": 30,
                "midi": 71,
                "name": "B4",
                "ticks": 8340,
                "time": 28.95832175,
                "velocity": 0.5039370078740157
              },
              {
                "duration": 0.10416662499999774,
                "durationTicks": 30,
                "midi": 69,
                "name": "A4",
                "ticks": 8370,
                "time": 29.062488375,
                "velocity": 0.5039370078740157
              },
              {
                "duration": 0.20833325000000258,
                "durationTicks": 60,
                "midi": 71,
                "name": "B4",
                "ticks": 8400,
                "time": 29.166655,
                "velocity": 0.5039370078740157
              },
              {
                "duration": 0.10416662499999774,
                "durationTicks": 30,
                "midi": 68,
                "name": "G#4",
                "ticks": 8460,
                "time": 29.37498825,
                "velocity": 0.5039370078740157
              },
              {
                "duration": 0.10416662500000129,
                "durationTicks": 30,
                "midi": 66,
                "name": "F#4",
                "ticks": 8490,
                "time": 29.479154875,
                "velocity": 0.5039370078740157
              },
              {
                "duration": 0.20833324999999903,
                "durationTicks": 60,
                "midi": 68,
                "name": "G#4",
                "ticks": 8520,
                "time": 29.5833215,
                "velocity": 0.5039370078740157
              },
              {
                "duration": 0.10416662500000129,
                "durationTicks": 30,
                "midi": 64,
                "name": "E4",
                "ticks": 8580,
                "time": 29.79165475,
                "velocity": 0.5039370078740157
              },
              {
                "duration": 0.10416662499999774,
                "durationTicks": 30,
                "midi": 63,
                "name": "D#4",
                "ticks": 8610,
                "time": 29.895821375,
                "velocity": 0.5039370078740157
              },
              {
                "duration": 0.4166665000000016,
                "durationTicks": 120,
                "midi": 64,
                "name": "E4",
                "ticks": 8640,
                "time": 29.999988,
                "velocity": 0.5039370078740157
              },
              {
                "duration": 0.41666649999999805,
                "durationTicks": 120,
                "midi": 66,
                "name": "F#4",
                "ticks": 8760,
                "time": 30.4166545,
                "velocity": 0.5039370078740157
              },
              {
                "duration": 0.4166665000000016,
                "durationTicks": 120,
                "midi": 68,
                "name": "G#4",
                "ticks": 8880,
                "time": 30.833320999999998,
                "velocity": 0.5039370078740157
              },
              {
                "duration": 0.4166665000000016,
                "durationTicks": 120,
                "midi": 69,
                "name": "A4",
                "ticks": 9000,
                "time": 31.2499875,
                "velocity": 0.5039370078740157
              },
              {
                "duration": 0.41666649999999805,
                "durationTicks": 120,
                "midi": 71,
                "name": "B4",
                "ticks": 9120,
                "time": 31.666654,
                "velocity": 0.5039370078740157
              },
              {
                "duration": 0.41666649999999805,
                "durationTicks": 120,
                "midi": 73,
                "name": "C#5",
                "ticks": 9240,
                "time": 32.0833205,
                "velocity": 0.5039370078740157
              },
              {
                "duration": 0.41666650000000516,
                "durationTicks": 120,
                "midi": 75,
                "name": "D#5",
                "ticks": 9360,
                "time": 32.499987,
                "velocity": 0.5039370078740157
              },
              {
                "duration": 0.20833324999999547,
                "durationTicks": 60,
                "midi": 76,
                "name": "E5",
                "ticks": 9480,
                "time": 32.9166535,
                "velocity": 0.5039370078740157
              },
              {
                "duration": 0.20833325000000258,
                "durationTicks": 60,
                "midi": 75,
                "name": "D#5",
                "ticks": 9540,
                "time": 33.12498675,
                "velocity": 0.5039370078740157
              },
              {
                "duration": 0.20833325000000258,
                "durationTicks": 60,
                "midi": 73,
                "name": "C#5",
                "ticks": 9600,
                "time": 33.33332,
                "velocity": 0.5039370078740157
              },
              {
                "duration": 0.20833324999999547,
                "durationTicks": 60,
                "midi": 71,
                "name": "B4",
                "ticks": 9660,
                "time": 33.54165325,
                "velocity": 0.5039370078740157
              },
              {
                "duration": 0.41666649999999805,
                "durationTicks": 120,
                "midi": 76,
                "name": "E5",
                "ticks": 9720,
                "time": 33.7499865,
                "velocity": 0.5039370078740157
              },
              {
                "duration": 0.41666650000000516,
                "durationTicks": 120,
                "midi": 64,
                "name": "E4",
                "ticks": 9840,
                "time": 34.166653,
                "velocity": 0.5039370078740157
              },
              {
                "duration": 0.41666649999999805,
                "durationTicks": 120,
                "midi": 80,
                "name": "G#5",
                "ticks": 10140,
                "time": 35.20831925,
                "velocity": 0.5039370078740157
              },
              {
                "duration": 0.41666649999999805,
                "durationTicks": 120,
                "midi": 76,
                "name": "E5",
                "ticks": 10260,
                "time": 35.62498575,
                "velocity": 0.5039370078740157
              },
              {
                "duration": 0.41666649999999805,
                "durationTicks": 120,
                "midi": 73,
                "name": "C#5",
                "ticks": 10380,
                "time": 36.04165225,
                "velocity": 0.5039370078740157
              },
              {
                "duration": 0.10416662500000484,
                "durationTicks": 30,
                "midi": 76,
                "name": "E5",
                "ticks": 10500,
                "time": 36.45831875,
                "velocity": 0.5039370078740157
              },
              {
                "duration": 0.10416662499999774,
                "durationTicks": 30,
                "midi": 75,
                "name": "D#5",
                "ticks": 10530,
                "time": 36.562485375,
                "velocity": 0.5039370078740157
              },
              {
                "duration": 0.20833325000000258,
                "durationTicks": 60,
                "midi": 76,
                "name": "E5",
                "ticks": 10560,
                "time": 36.666652,
                "velocity": 0.5039370078740157
              },
              {
                "duration": 0.20833324999999547,
                "durationTicks": 60,
                "midi": 73,
                "name": "C#5",
                "ticks": 10620,
                "time": 36.87498525,
                "velocity": 0.5039370078740157
              },
              {
                "duration": 0.20833325000000258,
                "durationTicks": 60,
                "midi": 70,
                "name": "A#4",
                "ticks": 10680,
                "time": 37.0833185,
                "velocity": 0.5039370078740157
              },
              {
                "duration": 0.41666649999999805,
                "durationTicks": 120,
                "midi": 66,
                "name": "F#4",
                "ticks": 10740,
                "time": 37.29165175,
                "velocity": 0.5039370078740157
              },
              {
                "duration": 0.41666650000000516,
                "durationTicks": 120,
                "midi": 78,
                "name": "F#5",
                "ticks": 10860,
                "time": 37.70831825,
                "velocity": 0.5039370078740157
              },
              {
                "duration": 0.41666649999999805,
                "durationTicks": 120,
                "midi": 75,
                "name": "D#5",
                "ticks": 10980,
                "time": 38.12498475,
                "velocity": 0.5039370078740157
              },
              {
                "duration": 0.41666649999999805,
                "durationTicks": 120,
                "midi": 71,
                "name": "B4",
                "ticks": 11100,
                "time": 38.54165125,
                "velocity": 0.5039370078740157
              },
              {
                "duration": 0.10416662499999774,
                "durationTicks": 30,
                "midi": 75,
                "name": "D#5",
                "ticks": 11220,
                "time": 38.95831775,
                "velocity": 0.5039370078740157
              },
              {
                "duration": 0.10416662500000484,
                "durationTicks": 30,
                "midi": 73,
                "name": "C#5",
                "ticks": 11250,
                "time": 39.062484375,
                "velocity": 0.5039370078740157
              },
              {
                "duration": 0.20833324999999547,
                "durationTicks": 60,
                "midi": 75,
                "name": "D#5",
                "ticks": 11280,
                "time": 39.166651,
                "velocity": 0.5039370078740157
              },
              {
                "duration": 0.20833325000000258,
                "durationTicks": 60,
                "midi": 71,
                "name": "B4",
                "ticks": 11340,
                "time": 39.37498425,
                "velocity": 0.5039370078740157
              },
              {
                "duration": 0.20833325000000258,
                "durationTicks": 60,
                "midi": 68,
                "name": "G#4",
                "ticks": 11400,
                "time": 39.5833175,
                "velocity": 0.5039370078740157
              },
              {
                "duration": 0.41666649999999805,
                "durationTicks": 120,
                "midi": 64,
                "name": "E4",
                "ticks": 11460,
                "time": 39.79165075,
                "velocity": 0.5039370078740157
              },
              {
                "duration": 0.41666649999999805,
                "durationTicks": 120,
                "midi": 76,
                "name": "E5",
                "ticks": 11580,
                "time": 40.20831725,
                "velocity": 0.5039370078740157
              },
              {
                "duration": 0.41666649999999805,
                "durationTicks": 120,
                "midi": 73,
                "name": "C#5",
                "ticks": 11700,
                "time": 40.62498375,
                "velocity": 0.5039370078740157
              },
              {
                "duration": 0.41666650000000516,
                "durationTicks": 120,
                "midi": 70,
                "name": "A#4",
                "ticks": 11820,
                "time": 41.041650249999996,
                "velocity": 0.5039370078740157
              },
              {
                "duration": 0.41666649999999805,
                "durationTicks": 120,
                "midi": 80,
                "name": "G#5",
                "ticks": 11940,
                "time": 41.45831675,
                "velocity": 0.5039370078740157
              },
              {
                "duration": 0.41666649999999805,
                "durationTicks": 120,
                "midi": 78,
                "name": "F#5",
                "ticks": 12060,
                "time": 41.87498325,
                "velocity": 0.5039370078740157
              },
              {
                "duration": 0.41666650000000516,
                "durationTicks": 120,
                "midi": 76,
                "name": "E5",
                "ticks": 12180,
                "time": 42.29164975,
                "velocity": 0.5039370078740157
              },
              {
                "duration": 0.41666649999999805,
                "durationTicks": 120,
                "midi": 75,
                "name": "D#5",
                "ticks": 12300,
                "time": 42.70831625,
                "velocity": 0.5039370078740157
              },
              {
                "duration": 0.41666649999999805,
                "durationTicks": 120,
                "midi": 73,
                "name": "C#5",
                "ticks": 12420,
                "time": 43.12498275,
                "velocity": 0.5039370078740157
              },
              {
                "duration": 0.20833325000000258,
                "durationTicks": 60,
                "midi": 71,
                "name": "B4",
                "ticks": 12540,
                "time": 43.54164925,
                "velocity": 0.5039370078740157
              },
              {
                "duration": 0.20833324999999547,
                "durationTicks": 60,
                "midi": 70,
                "name": "A#4",
                "ticks": 12600,
                "time": 43.7499825,
                "velocity": 0.5039370078740157
              },
              {
                "duration": 0.10416662500000484,
                "durationTicks": 30,
                "midi": 64,
                "name": "E4",
                "ticks": 12660,
                "time": 43.95831575,
                "velocity": 0.5039370078740157
              },
              {
                "duration": 0.10416662499999774,
                "durationTicks": 30,
                "midi": 63,
                "name": "D#4",
                "ticks": 12690,
                "time": 44.062482375,
                "velocity": 0.5039370078740157
              },
              {
                "duration": 0.20833325000000258,
                "durationTicks": 60,
                "midi": 64,
                "name": "E4",
                "ticks": 12720,
                "time": 44.166649,
                "velocity": 0.5039370078740157
              },
              {
                "duration": 0.10416662499999774,
                "durationTicks": 30,
                "midi": 70,
                "name": "A#4",
                "ticks": 12780,
                "time": 44.37498225,
                "velocity": 0.5039370078740157
              },
              {
                "duration": 0.10416662499999774,
                "durationTicks": 30,
                "midi": 68,
                "name": "G#4",
                "ticks": 12810,
                "time": 44.479148875,
                "velocity": 0.5039370078740157
              },
              {
                "duration": 0.20833325000000258,
                "durationTicks": 60,
                "midi": 70,
                "name": "A#4",
                "ticks": 12840,
                "time": 44.5833155,
                "velocity": 0.5039370078740157
              },
              {
                "duration": 0.10416662499999774,
                "durationTicks": 30,
                "midi": 71,
                "name": "B4",
                "ticks": 12900,
                "time": 44.79164875,
                "velocity": 0.5039370078740157
              },
              {
                "duration": 0.10416662500000484,
                "durationTicks": 30,
                "midi": 70,
                "name": "A#4",
                "ticks": 12930,
                "time": 44.895815375,
                "velocity": 0.5039370078740157
              },
              {
                "duration": 0.20833324999999547,
                "durationTicks": 60,
                "midi": 71,
                "name": "B4",
                "ticks": 12960,
                "time": 44.999982,
                "velocity": 0.5039370078740157
              },
              {
                "duration": 0.20833325000000258,
                "durationTicks": 60,
                "midi": 63,
                "name": "D#4",
                "ticks": 13020,
                "time": 45.20831525,
                "velocity": 0.5039370078740157
              },
              {
                "duration": 0.20833324999999547,
                "durationTicks": 60,
                "midi": 61,
                "name": "C#4",
                "ticks": 13080,
                "time": 45.4166485,
                "velocity": 0.5039370078740157
              },
              {
                "duration": 0.20833325000000258,
                "durationTicks": 60,
                "midi": 71,
                "name": "B4",
                "ticks": 13140,
                "time": 45.624981749999996,
                "velocity": 0.5039370078740157
              },
              {
                "duration": 0.20833325000000258,
                "durationTicks": 60,
                "midi": 61,
                "name": "C#4",
                "ticks": 13200,
                "time": 45.833315,
                "velocity": 0.5039370078740157
              },
              {
                "duration": 0.20833324999999547,
                "durationTicks": 60,
                "midi": 70,
                "name": "A#4",
                "ticks": 13260,
                "time": 46.04164825,
                "velocity": 0.5039370078740157
              },
              {
                "duration": 0.41666650000000516,
                "durationTicks": 120,
                "midi": 71,
                "name": "B4",
                "ticks": 13320,
                "time": 46.2499815,
                "velocity": 0.5039370078740157
              },
              {
                "duration": 0.20833325000000258,
                "durationTicks": 60,
                "midi": 71,
                "name": "B4",
                "ticks": 13500,
                "time": 46.87498125,
                "velocity": 0.5039370078740157
              },
              {
                "duration": 0.20833325000000258,
                "durationTicks": 60,
                "midi": 75,
                "name": "D#5",
                "ticks": 13560,
                "time": 47.0833145,
                "velocity": 0.5039370078740157
              },
              {
                "duration": 0.20833324999999547,
                "durationTicks": 60,
                "midi": 78,
                "name": "F#5",
                "ticks": 13620,
                "time": 47.29164775,
                "velocity": 0.5039370078740157
              },
              {
                "duration": 0.41666649999999805,
                "durationTicks": 120,
                "midi": 83,
                "name": "B5",
                "ticks": 13680,
                "time": 47.499981,
                "velocity": 0.5039370078740157
              },
              {
                "duration": 0.20833325000000258,
                "durationTicks": 60,
                "midi": 83,
                "name": "B5",
                "ticks": 13860,
                "time": 48.12498075,
                "velocity": 0.5039370078740157
              },
              {
                "duration": 0.20833324999999547,
                "durationTicks": 60,
                "midi": 78,
                "name": "F#5",
                "ticks": 13920,
                "time": 48.333314,
                "velocity": 0.5039370078740157
              },
              {
                "duration": 0.20833325000000258,
                "durationTicks": 60,
                "midi": 75,
                "name": "D#5",
                "ticks": 13980,
                "time": 48.54164725,
                "velocity": 0.5039370078740157
              },
              {
                "duration": 0.20833325000000258,
                "durationTicks": 60,
                "midi": 71,
                "name": "B4",
                "ticks": 14040,
                "time": 48.7499805,
                "velocity": 0.5039370078740157
              },
              {
                "duration": 0.20833324999999547,
                "durationTicks": 60,
                "midi": 66,
                "name": "F#4",
                "ticks": 14100,
                "time": 48.95831375,
                "velocity": 0.5039370078740157
              },
              {
                "duration": 0.20833325000000258,
                "durationTicks": 60,
                "midi": 63,
                "name": "D#4",
                "ticks": 14160,
                "time": 49.166647,
                "velocity": 0.5039370078740157
              },
              {
                "duration": 0.20833325000000258,
                "durationTicks": 60,
                "midi": 59,
                "name": "B3",
                "ticks": 14220,
                "time": 49.37498025,
                "velocity": 0.5039370078740157
              },
              {
                "duration": 0.20833324999999547,
                "durationTicks": 60,
                "midi": 59,
                "name": "B3",
                "ticks": 14400,
                "time": 49.99998,
                "velocity": 0.5039370078740157
              },
              {
                "duration": 0.41666649999999805,
                "durationTicks": 120,
                "midi": 61,
                "name": "C#4",
                "ticks": 14520,
                "time": 50.4166465,
                "velocity": 0.5039370078740157
              },
              {
                "duration": 0.41666650000000516,
                "durationTicks": 120,
                "midi": 63,
                "name": "D#4",
                "ticks": 14640,
                "time": 50.833313,
                "velocity": 0.5039370078740157
              },
              {
                "duration": 0.41666649999999805,
                "durationTicks": 120,
                "midi": 64,
                "name": "E4",
                "ticks": 14760,
                "time": 51.2499795,
                "velocity": 0.5039370078740157
              },
              {
                "duration": 0.41666649999999805,
                "durationTicks": 120,
                "midi": 66,
                "name": "F#4",
                "ticks": 14880,
                "time": 51.666646,
                "velocity": 0.5039370078740157
              },
              {
                "duration": 0.41666649999999805,
                "durationTicks": 120,
                "midi": 68,
                "name": "G#4",
                "ticks": 15000,
                "time": 52.0833125,
                "velocity": 0.5039370078740157
              },
              {
                "duration": 0.41666650000000516,
                "durationTicks": 120,
                "midi": 70,
                "name": "A#4",
                "ticks": 15120,
                "time": 52.499978999999996,
                "velocity": 0.5039370078740157
              },
              {
                "duration": 0.20833324999999547,
                "durationTicks": 60,
                "midi": 71,
                "name": "B4",
                "ticks": 15240,
                "time": 52.9166455,
                "velocity": 0.5039370078740157
              },
              {
                "duration": 0.20833325000000258,
                "durationTicks": 60,
                "midi": 70,
                "name": "A#4",
                "ticks": 15300,
                "time": 53.12497875,
                "velocity": 0.5039370078740157
              },
              {
                "duration": 0.20833325000000258,
                "durationTicks": 60,
                "midi": 68,
                "name": "G#4",
                "ticks": 15360,
                "time": 53.333312,
                "velocity": 0.5039370078740157
              },
              {
                "duration": 0.20833324999999547,
                "durationTicks": 60,
                "midi": 66,
                "name": "F#4",
                "ticks": 15420,
                "time": 53.54164525,
                "velocity": 0.5039370078740157
              },
              {
                "duration": 0.41666650000000516,
                "durationTicks": 120,
                "midi": 71,
                "name": "B4",
                "ticks": 15480,
                "time": 53.7499785,
                "velocity": 0.5039370078740157
              },
              {
                "duration": 0.41666649999999805,
                "durationTicks": 120,
                "midi": 59,
                "name": "B3",
                "ticks": 15600,
                "time": 54.166645,
                "velocity": 0.5039370078740157
              },
              {
                "duration": 0.41666649999999805,
                "durationTicks": 120,
                "midi": 83,
                "name": "B5",
                "ticks": 15900,
                "time": 55.20831125,
                "velocity": 0.5039370078740157
              },
              {
                "duration": 0.41666649999999805,
                "durationTicks": 120,
                "midi": 82,
                "name": "A#5",
                "ticks": 16020,
                "time": 55.62497775,
                "velocity": 0.5039370078740157
              },
              {
                "duration": 0.41666650000000516,
                "durationTicks": 120,
                "midi": 81,
                "name": "A5",
                "ticks": 16140,
                "time": 56.04164425,
                "velocity": 0.5039370078740157
              },
              {
                "duration": 0.41666649999999805,
                "durationTicks": 120,
                "midi": 80,
                "name": "G#5",
                "ticks": 16260,
                "time": 56.45831075,
                "velocity": 0.5039370078740157
              },
              {
                "duration": 0.41666649999999805,
                "durationTicks": 120,
                "midi": 78,
                "name": "F#5",
                "ticks": 16380,
                "time": 56.87497725,
                "velocity": 0.5039370078740157
              },
              {
                "duration": 0.41666649999999805,
                "durationTicks": 120,
                "midi": 76,
                "name": "E5",
                "ticks": 16500,
                "time": 57.29164375,
                "velocity": 0.5039370078740157
              },
              {
                "duration": 0.41666650000000516,
                "durationTicks": 120,
                "midi": 75,
                "name": "D#5",
                "ticks": 16620,
                "time": 57.70831025,
                "velocity": 0.5039370078740157
              },
              {
                "duration": 0.41666649999999805,
                "durationTicks": 120,
                "midi": 73,
                "name": "C#5",
                "ticks": 16740,
                "time": 58.12497675,
                "velocity": 0.5039370078740157
              },
              {
                "duration": 0.10416662499999774,
                "durationTicks": 30,
                "midi": 75,
                "name": "D#5",
                "ticks": 16860,
                "time": 58.54164325,
                "velocity": 0.5039370078740157
              },
              {
                "duration": 0.10416662500000484,
                "durationTicks": 30,
                "midi": 76,
                "name": "E5",
                "ticks": 16890,
                "time": 58.645809875,
                "velocity": 0.5039370078740157
              },
              {
                "duration": 0.20833324999999547,
                "durationTicks": 60,
                "midi": 75,
                "name": "D#5",
                "ticks": 16920,
                "time": 58.7499765,
                "velocity": 0.5039370078740157
              },
              {
                "duration": 0.10416662500000484,
                "durationTicks": 30,
                "midi": 78,
                "name": "F#5",
                "ticks": 16980,
                "time": 58.95830975,
                "velocity": 0.5039370078740157
              },
              {
                "duration": 0.10416662499999774,
                "durationTicks": 30,
                "midi": 76,
                "name": "E5",
                "ticks": 17010,
                "time": 59.062476375,
                "velocity": 0.5039370078740157
              },
              {
                "duration": 0.20833324999999547,
                "durationTicks": 60,
                "midi": 78,
                "name": "F#5",
                "ticks": 17040,
                "time": 59.166643,
                "velocity": 0.5039370078740157
              },
              {
                "duration": 0.10416662500000484,
                "durationTicks": 30,
                "midi": 75,
                "name": "D#5",
                "ticks": 17100,
                "time": 59.374976249999996,
                "velocity": 0.5039370078740157
              },
              {
                "duration": 0.10416662499999774,
                "durationTicks": 30,
                "midi": 73,
                "name": "C#5",
                "ticks": 17130,
                "time": 59.479142875,
                "velocity": 0.5039370078740157
              },
              {
                "duration": 0.20833325000000258,
                "durationTicks": 60,
                "midi": 75,
                "name": "D#5",
                "ticks": 17160,
                "time": 59.5833095,
                "velocity": 0.5039370078740157
              },
              {
                "duration": 0.10416662499999774,
                "durationTicks": 30,
                "midi": 71,
                "name": "B4",
                "ticks": 17220,
                "time": 59.79164275,
                "velocity": 0.5039370078740157
              },
              {
                "duration": 0.10416662499999774,
                "durationTicks": 30,
                "midi": 70,
                "name": "A#4",
                "ticks": 17250,
                "time": 59.895809375,
                "velocity": 0.5039370078740157
              },
              {
                "duration": 0.20833325000000258,
                "durationTicks": 60,
                "midi": 71,
                "name": "B4",
                "ticks": 17280,
                "time": 59.999976,
                "velocity": 0.5039370078740157
              },
              {
                "duration": 0.10416662499999774,
                "durationTicks": 30,
                "midi": 75,
                "name": "D#5",
                "ticks": 17340,
                "time": 60.20830925,
                "velocity": 0.5039370078740157
              },
              {
                "duration": 0.10416662500000484,
                "durationTicks": 30,
                "midi": 73,
                "name": "C#5",
                "ticks": 17370,
                "time": 60.312475875,
                "velocity": 0.5039370078740157
              },
              {
                "duration": 0.20833324999999547,
                "durationTicks": 60,
                "midi": 75,
                "name": "D#5",
                "ticks": 17400,
                "time": 60.4166425,
                "velocity": 0.5039370078740157
              },
              {
                "duration": 0.10416662500000484,
                "durationTicks": 30,
                "midi": 80,
                "name": "G#5",
                "ticks": 17460,
                "time": 60.62497575,
                "velocity": 0.5039370078740157
              },
              {
                "duration": 0.10416662499999774,
                "durationTicks": 30,
                "midi": 79,
                "name": "G5",
                "ticks": 17490,
                "time": 60.729142375,
                "velocity": 0.5039370078740157
              },
              {
                "duration": 0.20833325000000258,
                "durationTicks": 60,
                "midi": 80,
                "name": "G#5",
                "ticks": 17520,
                "time": 60.833309,
                "velocity": 0.5039370078740157
              },
              {
                "duration": 0.10416662499999774,
                "durationTicks": 30,
                "midi": 73,
                "name": "C#5",
                "ticks": 17580,
                "time": 61.04164225,
                "velocity": 0.5039370078740157
              },
              {
                "duration": 0.10416662499999774,
                "durationTicks": 30,
                "midi": 71,
                "name": "B4",
                "ticks": 17610,
                "time": 61.145808875,
                "velocity": 0.5039370078740157
              },
              {
                "duration": 0.20833325000000258,
                "durationTicks": 60,
                "midi": 73,
                "name": "C#5",
                "ticks": 17640,
                "time": 61.2499755,
                "velocity": 0.5039370078740157
              },
              {
                "duration": 0.10416662499999774,
                "durationTicks": 30,
                "midi": 76,
                "name": "E5",
                "ticks": 17700,
                "time": 61.45830875,
                "velocity": 0.5039370078740157
              },
              {
                "duration": 0.10416662499999774,
                "durationTicks": 30,
                "midi": 75,
                "name": "D#5",
                "ticks": 17730,
                "time": 61.562475375,
                "velocity": 0.5039370078740157
              },
              {
                "duration": 0.20833325000000258,
                "durationTicks": 60,
                "midi": 76,
                "name": "E5",
                "ticks": 17760,
                "time": 61.666641999999996,
                "velocity": 0.5039370078740157
              },
              {
                "duration": 0.10416662499999774,
                "durationTicks": 30,
                "midi": 82,
                "name": "A#5",
                "ticks": 17820,
                "time": 61.87497525,
                "velocity": 0.5039370078740157
              },
              {
                "duration": 0.10416662500000484,
                "durationTicks": 30,
                "midi": 80,
                "name": "G#5",
                "ticks": 17850,
                "time": 61.979141874999996,
                "velocity": 0.5039370078740157
              },
              {
                "duration": 0.20833324999999547,
                "durationTicks": 60,
                "midi": 82,
                "name": "A#5",
                "ticks": 17880,
                "time": 62.0833085,
                "velocity": 0.5039370078740157
              },
              {
                "duration": 0.10416662500000484,
                "durationTicks": 30,
                "midi": 75,
                "name": "D#5",
                "ticks": 17940,
                "time": 62.29164175,
                "velocity": 0.5039370078740157
              },
              {
                "duration": 0.10416662499999774,
                "durationTicks": 30,
                "midi": 73,
                "name": "C#5",
                "ticks": 17970,
                "time": 62.395808375,
                "velocity": 0.5039370078740157
              },
              {
                "duration": 0.20833325000000258,
                "durationTicks": 60,
                "midi": 75,
                "name": "D#5",
                "ticks": 18000,
                "time": 62.499975,
                "velocity": 0.5039370078740157
              },
              {
                "duration": 0.10416662499999774,
                "durationTicks": 30,
                "midi": 80,
                "name": "G#5",
                "ticks": 18060,
                "time": 62.70830825,
                "velocity": 0.5039370078740157
              },
              {
                "duration": 0.10416662499999774,
                "durationTicks": 30,
                "midi": 79,
                "name": "G5",
                "ticks": 18090,
                "time": 62.812474875,
                "velocity": 0.5039370078740157
              },
              {
                "duration": 0.20833325000000258,
                "durationTicks": 60,
                "midi": 80,
                "name": "G#5",
                "ticks": 18120,
                "time": 62.9166415,
                "velocity": 0.5039370078740157
              },
              {
                "duration": 0.10416662499999774,
                "durationTicks": 30,
                "midi": 83,
                "name": "B5",
                "ticks": 18180,
                "time": 63.12497475,
                "velocity": 0.5039370078740157
              },
              {
                "duration": 0.10416662500000484,
                "durationTicks": 30,
                "midi": 82,
                "name": "A#5",
                "ticks": 18210,
                "time": 63.229141375,
                "velocity": 0.5039370078740157
              },
              {
                "duration": 0.20833324999999547,
                "durationTicks": 60,
                "midi": 83,
                "name": "B5",
                "ticks": 18240,
                "time": 63.333308,
                "velocity": 0.5039370078740157
              },
              {
                "duration": 0.10416662500000484,
                "durationTicks": 30,
                "midi": 75,
                "name": "D#5",
                "ticks": 18300,
                "time": 63.54164125,
                "velocity": 0.5039370078740157
              },
              {
                "duration": 0.10416662499999774,
                "durationTicks": 30,
                "midi": 74,
                "name": "D5",
                "ticks": 18330,
                "time": 63.645807875,
                "velocity": 0.5039370078740157
              },
              {
                "duration": 0.20833324999999547,
                "durationTicks": 60,
                "midi": 75,
                "name": "D#5",
                "ticks": 18360,
                "time": 63.7499745,
                "velocity": 0.5039370078740157
              },
              {
                "duration": 0.10416662499999774,
                "durationTicks": 30,
                "midi": 82,
                "name": "A#5",
                "ticks": 18420,
                "time": 63.958307749999996,
                "velocity": 0.5039370078740157
              },
              {
                "duration": 0.10416662500000484,
                "durationTicks": 30,
                "midi": 80,
                "name": "G#5",
                "ticks": 18450,
                "time": 64.062474375,
                "velocity": 0.5039370078740157
              },
              {
                "duration": 0.20833324999999547,
                "durationTicks": 60,
                "midi": 82,
                "name": "A#5",
                "ticks": 18480,
                "time": 64.166641,
                "velocity": 0.5039370078740157
              },
              {
                "duration": 0.10416662500000484,
                "durationTicks": 30,
                "midi": 79,
                "name": "G5",
                "ticks": 18540,
                "time": 64.37497425,
                "velocity": 0.5039370078740157
              },
              {
                "duration": 0.10416662500000484,
                "durationTicks": 30,
                "midi": 77,
                "name": "F5",
                "ticks": 18570,
                "time": 64.479140875,
                "velocity": 0.5039370078740157
              },
              {
                "duration": 0.20833324999999547,
                "durationTicks": 60,
                "midi": 79,
                "name": "G5",
                "ticks": 18600,
                "time": 64.5833075,
                "velocity": 0.5039370078740157
              },
              {
                "duration": 0.10416662500000484,
                "durationTicks": 30,
                "midi": 75,
                "name": "D#5",
                "ticks": 18660,
                "time": 64.79164075,
                "velocity": 0.5039370078740157
              },
              {
                "duration": 0.10416662499999063,
                "durationTicks": 30,
                "midi": 74,
                "name": "D5",
                "ticks": 18690,
                "time": 64.895807375,
                "velocity": 0.5039370078740157
              },
              {
                "duration": 0.20833325000000968,
                "durationTicks": 60,
                "midi": 74,
                "name": "D5",
                "ticks": 18720,
                "time": 64.999974,
                "velocity": 0.5039370078740157
              },
              {
                "duration": 0.41666649999999095,
                "durationTicks": 120,
                "midi": 81,
                "name": "A5",
                "ticks": 18780,
                "time": 65.20830725,
                "velocity": 0.5039370078740157
              },
              {
                "duration": 0.41666650000000516,
                "durationTicks": 120,
                "midi": 80,
                "name": "G#5",
                "ticks": 18900,
                "time": 65.62497375,
                "velocity": 0.5039370078740157
              },
              {
                "duration": 0.41666650000000516,
                "durationTicks": 120,
                "midi": 78,
                "name": "F#5",
                "ticks": 19020,
                "time": 66.04164025,
                "velocity": 0.5039370078740157
              },
              {
                "duration": 0.10416662499999063,
                "durationTicks": 30,
                "midi": 76,
                "name": "E5",
                "ticks": 19140,
                "time": 66.45830675,
                "velocity": 0.5039370078740157
              },
              {
                "duration": 0.10416662500000484,
                "durationTicks": 30,
                "midi": 75,
                "name": "D#5",
                "ticks": 19170,
                "time": 66.562473375,
                "velocity": 0.5039370078740157
              },
              {
                "duration": 0.20833324999999547,
                "durationTicks": 60,
                "midi": 76,
                "name": "E5",
                "ticks": 19200,
                "time": 66.66664,
                "velocity": 0.5039370078740157
              },
              {
                "duration": 0.10416662500000484,
                "durationTicks": 30,
                "midi": 73,
                "name": "C#5",
                "ticks": 19260,
                "time": 66.87497325,
                "velocity": 0.5039370078740157
              },
              {
                "duration": 0.10416662500000484,
                "durationTicks": 30,
                "midi": 72,
                "name": "C5",
                "ticks": 19290,
                "time": 66.979139875,
                "velocity": 0.5039370078740157
              },
              {
                "duration": 0.20833324999999547,
                "durationTicks": 60,
                "midi": 73,
                "name": "C#5",
                "ticks": 19320,
                "time": 67.0833065,
                "velocity": 0.5039370078740157
              },
              {
                "duration": 0.10416662499999063,
                "durationTicks": 30,
                "midi": 76,
                "name": "E5",
                "ticks": 19380,
                "time": 67.29163975,
                "velocity": 0.5039370078740157
              },
              {
                "duration": 0.10416662500000484,
                "durationTicks": 30,
                "midi": 75,
                "name": "D#5",
                "ticks": 19410,
                "time": 67.39580637499999,
                "velocity": 0.5039370078740157
              },
              {
                "duration": 0.20833324999999547,
                "durationTicks": 60,
                "midi": 76,
                "name": "E5",
                "ticks": 19440,
                "time": 67.499973,
                "velocity": 0.5039370078740157
              },
              {
                "duration": 0.41666650000000516,
                "durationTicks": 120,
                "midi": 80,
                "name": "G#5",
                "ticks": 19500,
                "time": 67.70830624999999,
                "velocity": 0.5039370078740157
              },
              {
                "duration": 0.41666650000000516,
                "durationTicks": 120,
                "midi": 78,
                "name": "F#5",
                "ticks": 19620,
                "time": 68.12497275,
                "velocity": 0.5039370078740157
              },
              {
                "duration": 0.41666649999999095,
                "durationTicks": 120,
                "midi": 76,
                "name": "E5",
                "ticks": 19740,
                "time": 68.54163925,
                "velocity": 0.5039370078740157
              },
              {
                "duration": 0.10416662500000484,
                "durationTicks": 30,
                "midi": 75,
                "name": "D#5",
                "ticks": 19860,
                "time": 68.95830575,
                "velocity": 0.5039370078740157
              },
              {
                "duration": 0.10416662500000484,
                "durationTicks": 30,
                "midi": 73,
                "name": "C#5",
                "ticks": 19890,
                "time": 69.062472375,
                "velocity": 0.5039370078740157
              },
              {
                "duration": 0.20833324999999547,
                "durationTicks": 60,
                "midi": 75,
                "name": "D#5",
                "ticks": 19920,
                "time": 69.166639,
                "velocity": 0.5039370078740157
              },
              {
                "duration": 0.10416662500000484,
                "durationTicks": 30,
                "midi": 71,
                "name": "B4",
                "ticks": 19980,
                "time": 69.37497225,
                "velocity": 0.5039370078740157
              },
              {
                "duration": 0.10416662499999063,
                "durationTicks": 30,
                "midi": 70,
                "name": "A#4",
                "ticks": 20010,
                "time": 69.479138875,
                "velocity": 0.5039370078740157
              },
              {
                "duration": 0.20833325000000968,
                "durationTicks": 60,
                "midi": 71,
                "name": "B4",
                "ticks": 20040,
                "time": 69.5833055,
                "velocity": 0.5039370078740157
              },
              {
                "duration": 0.10416662499999063,
                "durationTicks": 30,
                "midi": 73,
                "name": "C#5",
                "ticks": 20100,
                "time": 69.79163875,
                "velocity": 0.5039370078740157
              },
              {
                "duration": 0.10416662500000484,
                "durationTicks": 30,
                "midi": 71,
                "name": "B4",
                "ticks": 20130,
                "time": 69.895805375,
                "velocity": 0.5039370078740157
              },
              {
                "duration": 0.20833324999999547,
                "durationTicks": 60,
                "midi": 73,
                "name": "C#5",
                "ticks": 20160,
                "time": 69.999972,
                "velocity": 0.5039370078740157
              },
              {
                "duration": 0.41666650000000516,
                "durationTicks": 120,
                "midi": 76,
                "name": "E5",
                "ticks": 20220,
                "time": 70.20830525,
                "velocity": 0.5039370078740157
              },
              {
                "duration": 0.41666650000000516,
                "durationTicks": 120,
                "midi": 75,
                "name": "D#5",
                "ticks": 20340,
                "time": 70.62497175,
                "velocity": 0.5039370078740157
              },
              {
                "duration": 0.41666649999999095,
                "durationTicks": 120,
                "midi": 73,
                "name": "C#5",
                "ticks": 20460,
                "time": 71.04163825,
                "velocity": 0.5039370078740157
              },
              {
                "duration": 0.10416662500000484,
                "durationTicks": 30,
                "midi": 71,
                "name": "B4",
                "ticks": 20580,
                "time": 71.45830475,
                "velocity": 0.5039370078740157
              },
              {
                "duration": 0.10416662500000484,
                "durationTicks": 30,
                "midi": 70,
                "name": "A#4",
                "ticks": 20610,
                "time": 71.562471375,
                "velocity": 0.5039370078740157
              },
              {
                "duration": 0.20833324999999547,
                "durationTicks": 60,
                "midi": 71,
                "name": "B4",
                "ticks": 20640,
                "time": 71.666638,
                "velocity": 0.5039370078740157
              },
              {
                "duration": 0.10416662499999063,
                "durationTicks": 30,
                "midi": 68,
                "name": "G#4",
                "ticks": 20700,
                "time": 71.87497125,
                "velocity": 0.5039370078740157
              },
              {
                "duration": 0.10416662500000484,
                "durationTicks": 30,
                "midi": 67,
                "name": "G4",
                "ticks": 20730,
                "time": 71.97913787499999,
                "velocity": 0.5039370078740157
              },
              {
                "duration": 0.20833324999999547,
                "durationTicks": 60,
                "midi": 68,
                "name": "G#4",
                "ticks": 20760,
                "time": 72.0833045,
                "velocity": 0.5039370078740157
              },
              {
                "duration": 0.10416662500000484,
                "durationTicks": 30,
                "midi": 69,
                "name": "A4",
                "ticks": 20820,
                "time": 72.29163774999999,
                "velocity": 0.5039370078740157
              },
              {
                "duration": 0.10416662500000484,
                "durationTicks": 30,
                "midi": 68,
                "name": "G#4",
                "ticks": 20850,
                "time": 72.395804375,
                "velocity": 0.5039370078740157
              },
              {
                "duration": 0.20833324999999547,
                "durationTicks": 60,
                "midi": 69,
                "name": "A4",
                "ticks": 20880,
                "time": 72.499971,
                "velocity": 0.5039370078740157
              },
              {
                "duration": 0.10416662500000484,
                "durationTicks": 30,
                "midi": 73,
                "name": "C#5",
                "ticks": 20940,
                "time": 72.70830425,
                "velocity": 0.5039370078740157
              },
              {
                "duration": 0.10416662499999063,
                "durationTicks": 30,
                "midi": 71,
                "name": "B4",
                "ticks": 20970,
                "time": 72.812470875,
                "velocity": 0.5039370078740157
              },
              {
                "duration": 0.20833325000000968,
                "durationTicks": 60,
                "midi": 73,
                "name": "C#5",
                "ticks": 21000,
                "time": 72.9166375,
                "velocity": 0.5039370078740157
              },
              {
                "duration": 0.10416662499999063,
                "durationTicks": 30,
                "midi": 69,
                "name": "A4",
                "ticks": 21060,
                "time": 73.12497075,
                "velocity": 0.5039370078740157
              },
              {
                "duration": 0.10416662500000484,
                "durationTicks": 30,
                "midi": 68,
                "name": "G#4",
                "ticks": 21090,
                "time": 73.229137375,
                "velocity": 0.5039370078740157
              },
              {
                "duration": 0.20833324999999547,
                "durationTicks": 60,
                "midi": 69,
                "name": "A4",
                "ticks": 21120,
                "time": 73.333304,
                "velocity": 0.5039370078740157
              },
              {
                "duration": 0.10416662500000484,
                "durationTicks": 30,
                "midi": 76,
                "name": "E5",
                "ticks": 21180,
                "time": 73.54163725,
                "velocity": 0.5039370078740157
              },
              {
                "duration": 0.10416662500000484,
                "durationTicks": 30,
                "midi": 75,
                "name": "D#5",
                "ticks": 21210,
                "time": 73.645803875,
                "velocity": 0.5039370078740157
              },
              {
                "duration": 0.20833324999999547,
                "durationTicks": 60,
                "midi": 76,
                "name": "E5",
                "ticks": 21240,
                "time": 73.7499705,
                "velocity": 0.5039370078740157
              },
              {
                "duration": 0.10416662500000484,
                "durationTicks": 30,
                "midi": 67,
                "name": "G4",
                "ticks": 21300,
                "time": 73.95830375,
                "velocity": 0.5039370078740157
              },
              {
                "duration": 0.10416662499999063,
                "durationTicks": 30,
                "midi": 65,
                "name": "F4",
                "ticks": 21330,
                "time": 74.062470375,
                "velocity": 0.5039370078740157
              },
              {
                "duration": 0.20833325000000968,
                "durationTicks": 60,
                "midi": 67,
                "name": "G4",
                "ticks": 21360,
                "time": 74.166637,
                "velocity": 0.5039370078740157
              },
              {
                "duration": 0.10416662499999063,
                "durationTicks": 30,
                "midi": 70,
                "name": "A#4",
                "ticks": 21420,
                "time": 74.37497025,
                "velocity": 0.5039370078740157
              },
              {
                "duration": 0.10416662500000484,
                "durationTicks": 30,
                "midi": 68,
                "name": "G#4",
                "ticks": 21450,
                "time": 74.479136875,
                "velocity": 0.5039370078740157
              },
              {
                "duration": 0.20833324999999547,
                "durationTicks": 60,
                "midi": 70,
                "name": "A#4",
                "ticks": 21480,
                "time": 74.5833035,
                "velocity": 0.5039370078740157
              },
              {
                "duration": 0.10416662500000484,
                "durationTicks": 30,
                "midi": 59,
                "name": "B3",
                "ticks": 21540,
                "time": 74.79163675,
                "velocity": 0.5039370078740157
              },
              {
                "duration": 0.10416662500000484,
                "durationTicks": 30,
                "midi": 58,
                "name": "A#3",
                "ticks": 21570,
                "time": 74.895803375,
                "velocity": 0.5039370078740157
              },
              {
                "duration": 0.20833324999999547,
                "durationTicks": 60,
                "midi": 59,
                "name": "B3",
                "ticks": 21600,
                "time": 74.99997,
                "velocity": 0.5039370078740157
              },
              {
                "duration": 0.20833324999999547,
                "durationTicks": 60,
                "midi": 68,
                "name": "G#4",
                "ticks": 21660,
                "time": 75.20830325,
                "velocity": 0.5039370078740157
              },
              {
                "duration": 0.20833325000000968,
                "durationTicks": 60,
                "midi": 64,
                "name": "E4",
                "ticks": 21720,
                "time": 75.4166365,
                "velocity": 0.5039370078740157
              },
              {
                "duration": 0.20833324999999547,
                "durationTicks": 60,
                "midi": 61,
                "name": "C#4",
                "ticks": 21780,
                "time": 75.62496975,
                "velocity": 0.5039370078740157
              },
              {
                "duration": 0.20833324999999547,
                "durationTicks": 60,
                "midi": 58,
                "name": "A#3",
                "ticks": 21840,
                "time": 75.833303,
                "velocity": 0.5039370078740157
              },
              {
                "duration": 0.20833325000000968,
                "durationTicks": 60,
                "midi": 67,
                "name": "G4",
                "ticks": 21900,
                "time": 76.04163625,
                "velocity": 0.5039370078740157
              },
              {
                "duration": 0.20833324999999547,
                "durationTicks": 60,
                "midi": 68,
                "name": "G#4",
                "ticks": 21960,
                "time": 76.2499695,
                "velocity": 0.5039370078740157
              },
              {
                "duration": 0.20833324999999547,
                "durationTicks": 60,
                "midi": 63,
                "name": "D#4",
                "ticks": 22020,
                "time": 76.45830275,
                "velocity": 0.5039370078740157
              },
              {
                "duration": 0.20833324999999547,
                "durationTicks": 60,
                "midi": 59,
                "name": "B3",
                "ticks": 22080,
                "time": 76.666636,
                "velocity": 0.5039370078740157
              },
              {
                "duration": 0.20833325000000968,
                "durationTicks": 60,
                "midi": 56,
                "name": "G#3",
                "ticks": 22140,
                "time": 76.87496924999999,
                "velocity": 0.5039370078740157
              },
              {
                "duration": 0.41666650000000516,
                "durationTicks": 120,
                "midi": 64,
                "name": "E4",
                "ticks": 22320,
                "time": 77.499969,
                "velocity": 0.5039370078740157
              },
              {
                "duration": 0.41666650000000516,
                "durationTicks": 120,
                "midi": 66,
                "name": "F#4",
                "ticks": 22440,
                "time": 77.9166355,
                "velocity": 0.5039370078740157
              },
              {
                "duration": 0.41666649999999095,
                "durationTicks": 120,
                "midi": 68,
                "name": "G#4",
                "ticks": 22560,
                "time": 78.333302,
                "velocity": 0.5039370078740157
              },
              {
                "duration": 0.41666650000000516,
                "durationTicks": 120,
                "midi": 69,
                "name": "A4",
                "ticks": 22680,
                "time": 78.7499685,
                "velocity": 0.5039370078740157
              },
              {
                "duration": 0.41666650000000516,
                "durationTicks": 120,
                "midi": 71,
                "name": "B4",
                "ticks": 22800,
                "time": 79.166635,
                "velocity": 0.5039370078740157
              },
              {
                "duration": 0.41666649999999095,
                "durationTicks": 120,
                "midi": 73,
                "name": "C#5",
                "ticks": 22920,
                "time": 79.5833015,
                "velocity": 0.5039370078740157
              },
              {
                "duration": 0.41666650000000516,
                "durationTicks": 120,
                "midi": 75,
                "name": "D#5",
                "ticks": 23040,
                "time": 79.999968,
                "velocity": 0.5039370078740157
              },
              {
                "duration": 0.20833324999999547,
                "durationTicks": 60,
                "midi": 76,
                "name": "E5",
                "ticks": 23160,
                "time": 80.4166345,
                "velocity": 0.5039370078740157
              },
              {
                "duration": 0.20833325000000968,
                "durationTicks": 60,
                "midi": 75,
                "name": "D#5",
                "ticks": 23220,
                "time": 80.62496775,
                "velocity": 0.5039370078740157
              },
              {
                "duration": 0.20833324999999547,
                "durationTicks": 60,
                "midi": 73,
                "name": "C#5",
                "ticks": 23280,
                "time": 80.833301,
                "velocity": 0.5039370078740157
              },
              {
                "duration": 0.20833324999999547,
                "durationTicks": 60,
                "midi": 71,
                "name": "B4",
                "ticks": 23340,
                "time": 81.04163425,
                "velocity": 0.5039370078740157
              },
              {
                "duration": 0.6249997500000006,
                "durationTicks": 180,
                "midi": 76,
                "name": "E5",
                "ticks": 23400,
                "time": 81.2499675,
                "velocity": 0.5039370078740157
              },
              {
                "duration": 0.10416662500000484,
                "durationTicks": 30,
                "midi": 71,
                "name": "B4",
                "ticks": 23580,
                "time": 81.87496725,
                "velocity": 0.5039370078740157
              },
              {
                "duration": 0.10416662499999063,
                "durationTicks": 30,
                "midi": 69,
                "name": "A4",
                "ticks": 23610,
                "time": 81.979133875,
                "velocity": 0.5039370078740157
              },
              {
                "duration": 0.20833325000000968,
                "durationTicks": 60,
                "midi": 71,
                "name": "B4",
                "ticks": 23640,
                "time": 82.08330049999999,
                "velocity": 0.5039370078740157
              },
              {
                "duration": 0.10416662499999063,
                "durationTicks": 30,
                "midi": 68,
                "name": "G#4",
                "ticks": 23700,
                "time": 82.29163375,
                "velocity": 0.5039370078740157
              },
              {
                "duration": 0.10416662500000484,
                "durationTicks": 30,
                "midi": 66,
                "name": "F#4",
                "ticks": 23730,
                "time": 82.395800375,
                "velocity": 0.5039370078740157
              },
              {
                "duration": 0.20833324999999547,
                "durationTicks": 60,
                "midi": 68,
                "name": "G#4",
                "ticks": 23760,
                "time": 82.499967,
                "velocity": 0.5039370078740157
              },
              {
                "duration": 0.41666650000000516,
                "durationTicks": 120,
                "midi": 76,
                "name": "E5",
                "ticks": 23820,
                "time": 82.70830025,
                "velocity": 0.5039370078740157
              },
              {
                "duration": 0.41666650000000516,
                "durationTicks": 120,
                "midi": 75,
                "name": "D#5",
                "ticks": 23940,
                "time": 83.12496675,
                "velocity": 0.5039370078740157
              },
              {
                "duration": 0.41666649999999095,
                "durationTicks": 120,
                "midi": 74,
                "name": "D5",
                "ticks": 24060,
                "time": 83.54163325,
                "velocity": 0.5039370078740157
              },
              {
                "duration": 0.41666650000000516,
                "durationTicks": 120,
                "midi": 73,
                "name": "C#5",
                "ticks": 24180,
                "time": 83.95829975,
                "velocity": 0.5039370078740157
              },
              {
                "duration": 0.41666650000000516,
                "durationTicks": 120,
                "midi": 71,
                "name": "B4",
                "ticks": 24300,
                "time": 84.37496625,
                "velocity": 0.5039370078740157
              },
              {
                "duration": 0.41666649999999095,
                "durationTicks": 120,
                "midi": 69,
                "name": "A4",
                "ticks": 24420,
                "time": 84.79163275,
                "velocity": 0.5039370078740157
              },
              {
                "duration": 0.41666650000000516,
                "durationTicks": 120,
                "midi": 68,
                "name": "G#4",
                "ticks": 24540,
                "time": 85.20829925,
                "velocity": 0.5039370078740157
              },
              {
                "duration": 0.41666649999999095,
                "durationTicks": 120,
                "midi": 66,
                "name": "F#4",
                "ticks": 24660,
                "time": 85.62496575,
                "velocity": 0.5039370078740157
              },
              {
                "duration": 0.10416662500000484,
                "durationTicks": 30,
                "midi": 68,
                "name": "G#4",
                "ticks": 24780,
                "time": 86.04163224999999,
                "velocity": 0.5039370078740157
              },
              {
                "duration": 0.10416662500000484,
                "durationTicks": 30,
                "midi": 69,
                "name": "A4",
                "ticks": 24810,
                "time": 86.145798875,
                "velocity": 0.5039370078740157
              },
              {
                "duration": 0.20833324999999547,
                "durationTicks": 60,
                "midi": 68,
                "name": "G#4",
                "ticks": 24840,
                "time": 86.2499655,
                "velocity": 0.5039370078740157
              },
              {
                "duration": 0.10416662500000484,
                "durationTicks": 30,
                "midi": 71,
                "name": "B4",
                "ticks": 24900,
                "time": 86.45829875,
                "velocity": 0.5039370078740157
              },
              {
                "duration": 0.10416662499999063,
                "durationTicks": 30,
                "midi": 69,
                "name": "A4",
                "ticks": 24930,
                "time": 86.562465375,
                "velocity": 0.5039370078740157
              },
              {
                "duration": 0.20833325000000968,
                "durationTicks": 60,
                "midi": 71,
                "name": "B4",
                "ticks": 24960,
                "time": 86.66663199999999,
                "velocity": 0.5039370078740157
              },
              {
                "duration": 0.10416662499999063,
                "durationTicks": 30,
                "midi": 68,
                "name": "G#4",
                "ticks": 25020,
                "time": 86.87496525,
                "velocity": 0.5039370078740157
              },
              {
                "duration": 0.10416662500000484,
                "durationTicks": 30,
                "midi": 66,
                "name": "F#4",
                "ticks": 25050,
                "time": 86.979131875,
                "velocity": 0.5039370078740157
              },
              {
                "duration": 0.20833324999999547,
                "durationTicks": 60,
                "midi": 68,
                "name": "G#4",
                "ticks": 25080,
                "time": 87.0832985,
                "velocity": 0.5039370078740157
              },
              {
                "duration": 0.10416662500000484,
                "durationTicks": 30,
                "midi": 64,
                "name": "E4",
                "ticks": 25140,
                "time": 87.29163175,
                "velocity": 0.5039370078740157
              },
              {
                "duration": 0.10416662500000484,
                "durationTicks": 30,
                "midi": 63,
                "name": "D#4",
                "ticks": 25170,
                "time": 87.395798375,
                "velocity": 0.5039370078740157
              },
              {
                "duration": 0.41666649999999095,
                "durationTicks": 120,
                "midi": 64,
                "name": "E4",
                "ticks": 25200,
                "time": 87.499965,
                "velocity": 0.5039370078740157
              },
              {
                "duration": 0.41666650000000516,
                "durationTicks": 120,
                "midi": 66,
                "name": "F#4",
                "ticks": 25320,
                "time": 87.9166315,
                "velocity": 0.5039370078740157
              },
              {
                "duration": 0.41666650000000516,
                "durationTicks": 120,
                "midi": 69,
                "name": "A4",
                "ticks": 25440,
                "time": 88.333298,
                "velocity": 0.5039370078740157
              },
              {
                "duration": 0.41666649999999095,
                "durationTicks": 120,
                "midi": 71,
                "name": "B4",
                "ticks": 25560,
                "time": 88.7499645,
                "velocity": 0.5039370078740157
              },
              {
                "duration": 0.41666650000000516,
                "durationTicks": 120,
                "midi": 75,
                "name": "D#5",
                "ticks": 25680,
                "time": 89.166631,
                "velocity": 0.5039370078740157
              },
              {
                "duration": 0.41666650000000516,
                "durationTicks": 120,
                "midi": 78,
                "name": "F#5",
                "ticks": 25800,
                "time": 89.5832975,
                "velocity": 0.5039370078740157
              },
              {
                "duration": 0.41666649999999095,
                "durationTicks": 120,
                "midi": 63,
                "name": "D#4",
                "ticks": 25920,
                "time": 89.999964,
                "velocity": 0.5039370078740157
              },
              {
                "duration": 0.41666650000000516,
                "durationTicks": 120,
                "midi": 64,
                "name": "E4",
                "ticks": 26040,
                "time": 90.4166305,
                "velocity": 0.5039370078740157
              },
              {
                "duration": 0.41666649999999095,
                "durationTicks": 120,
                "midi": 68,
                "name": "G#4",
                "ticks": 26160,
                "time": 90.833297,
                "velocity": 0.5039370078740157
              },
              {
                "duration": 0.41666650000000516,
                "durationTicks": 120,
                "midi": 69,
                "name": "A4",
                "ticks": 26280,
                "time": 91.24996349999999,
                "velocity": 0.5039370078740157
              },
              {
                "duration": 0.41666650000000516,
                "durationTicks": 120,
                "midi": 73,
                "name": "C#5",
                "ticks": 26400,
                "time": 91.66663,
                "velocity": 0.5039370078740157
              },
              {
                "duration": 0.41666649999999095,
                "durationTicks": 120,
                "midi": 76,
                "name": "E5",
                "ticks": 26520,
                "time": 92.0832965,
                "velocity": 0.5039370078740157
              },
              {
                "duration": 0.41666650000000516,
                "durationTicks": 120,
                "midi": 61,
                "name": "C#4",
                "ticks": 26640,
                "time": 92.499963,
                "velocity": 0.5039370078740157
              },
              {
                "duration": 0.41666650000000516,
                "durationTicks": 120,
                "midi": 66,
                "name": "F#4",
                "ticks": 26760,
                "time": 92.9166295,
                "velocity": 0.5039370078740157
              },
              {
                "duration": 0.41666649999999095,
                "durationTicks": 120,
                "midi": 69,
                "name": "A4",
                "ticks": 26880,
                "time": 93.333296,
                "velocity": 0.5039370078740157
              },
              {
                "duration": 0.41666650000000516,
                "durationTicks": 120,
                "midi": 71,
                "name": "B4",
                "ticks": 27000,
                "time": 93.7499625,
                "velocity": 0.5039370078740157
              },
              {
                "duration": 0.41666650000000516,
                "durationTicks": 120,
                "midi": 73,
                "name": "C#5",
                "ticks": 27120,
                "time": 94.166629,
                "velocity": 0.5039370078740157
              },
              {
                "duration": 0.41666649999999095,
                "durationTicks": 120,
                "midi": 75,
                "name": "D#5",
                "ticks": 27240,
                "time": 94.5832955,
                "velocity": 0.5039370078740157
              },
              {
                "duration": 0.41666650000000516,
                "durationTicks": 120,
                "midi": 76,
                "name": "E5",
                "ticks": 27360,
                "time": 94.999962,
                "velocity": 0.5039370078740157
              },
              {
                "duration": 0.41666649999999095,
                "durationTicks": 120,
                "midi": 73,
                "name": "C#5",
                "ticks": 27480,
                "time": 95.4166285,
                "velocity": 0.5039370078740157
              },
              {
                "duration": 0.41666650000000516,
                "durationTicks": 120,
                "midi": 69,
                "name": "A4",
                "ticks": 27600,
                "time": 95.83329499999999,
                "velocity": 0.5039370078740157
              },
              {
                "duration": 1.4236105416666618,
                "durationTicks": 410,
                "midi": 78,
                "name": "F#5",
                "ticks": 27720,
                "time": 96.2499615,
                "velocity": 0.5039370078740157
              },
              {
                "duration": 0.20833325000000968,
                "durationTicks": 60,
                "midi": 76,
                "name": "E5",
                "ticks": 28140,
                "time": 97.70829425,
                "velocity": 0.5039370078740157
              },
              {
                "duration": 0.20833324999999547,
                "durationTicks": 60,
                "midi": 75,
                "name": "D#5",
                "ticks": 28200,
                "time": 97.9166275,
                "velocity": 0.5039370078740157
              },
              {
                "duration": 0.20833324999999547,
                "durationTicks": 60,
                "midi": 73,
                "name": "C#5",
                "ticks": 28260,
                "time": 98.12496075,
                "velocity": 0.5039370078740157
              },
              {
                "duration": 0.20833325000000968,
                "durationTicks": 60,
                "midi": 71,
                "name": "B4",
                "ticks": 28320,
                "time": 98.333294,
                "velocity": 0.5039370078740157
              },
              {
                "duration": 0.20833324999999547,
                "durationTicks": 60,
                "midi": 69,
                "name": "A4",
                "ticks": 28380,
                "time": 98.54162725,
                "velocity": 0.5039370078740157
              },
              {
                "duration": 0.20833324999999547,
                "durationTicks": 60,
                "midi": 68,
                "name": "G#4",
                "ticks": 28440,
                "time": 98.7499605,
                "velocity": 0.5039370078740157
              },
              {
                "duration": 0.10416662500000484,
                "durationTicks": 30,
                "midi": 64,
                "name": "E4",
                "ticks": 28500,
                "time": 98.95829375,
                "velocity": 0.5039370078740157
              },
              {
                "duration": 0.10416662500000484,
                "durationTicks": 30,
                "midi": 63,
                "name": "D#4",
                "ticks": 28530,
                "time": 99.062460375,
                "velocity": 0.5039370078740157
              },
              {
                "duration": 0.20833324999999547,
                "durationTicks": 60,
                "midi": 64,
                "name": "E4",
                "ticks": 28560,
                "time": 99.166627,
                "velocity": 0.5039370078740157
              },
              {
                "duration": 0.10416662500000484,
                "durationTicks": 30,
                "midi": 68,
                "name": "G#4",
                "ticks": 28620,
                "time": 99.37496025,
                "velocity": 0.5039370078740157
              },
              {
                "duration": 0.10416662499999063,
                "durationTicks": 30,
                "midi": 66,
                "name": "F#4",
                "ticks": 28650,
                "time": 99.479126875,
                "velocity": 0.5039370078740157
              },
              {
                "duration": 0.20833324999999547,
                "durationTicks": 60,
                "midi": 68,
                "name": "G#4",
                "ticks": 28680,
                "time": 99.5832935,
                "velocity": 0.5039370078740157
              },
              {
                "duration": 0.10416662500000484,
                "durationTicks": 30,
                "midi": 71,
                "name": "B4",
                "ticks": 28740,
                "time": 99.79162674999999,
                "velocity": 0.5039370078740157
              },
              {
                "duration": 0.10416662500000484,
                "durationTicks": 30,
                "midi": 69,
                "name": "A4",
                "ticks": 28770,
                "time": 99.895793375,
                "velocity": 0.5039370078740157
              },
              {
                "duration": 0.20833324999999547,
                "durationTicks": 60,
                "midi": 71,
                "name": "B4",
                "ticks": 28800,
                "time": 99.99996,
                "velocity": 0.5039370078740157
              },
              {
                "duration": 0.10416662500000484,
                "durationTicks": 30,
                "midi": 68,
                "name": "G#4",
                "ticks": 28860,
                "time": 100.20829325,
                "velocity": 0.5039370078740157
              },
              {
                "duration": 0.10416662499999063,
                "durationTicks": 30,
                "midi": 66,
                "name": "F#4",
                "ticks": 28890,
                "time": 100.312459875,
                "velocity": 0.5039370078740157
              },
              {
                "duration": 0.20833325000000968,
                "durationTicks": 60,
                "midi": 68,
                "name": "G#4",
                "ticks": 28920,
                "time": 100.41662649999999,
                "velocity": 0.5039370078740157
              },
              {
                "duration": 0.10416662499999063,
                "durationTicks": 30,
                "midi": 71,
                "name": "B4",
                "ticks": 28980,
                "time": 100.62495975,
                "velocity": 0.5039370078740157
              },
              {
                "duration": 0.10416662500000484,
                "durationTicks": 30,
                "midi": 69,
                "name": "A4",
                "ticks": 29010,
                "time": 100.72912637499999,
                "velocity": 0.5039370078740157
              },
              {
                "duration": 0.20833324999999547,
                "durationTicks": 60,
                "midi": 71,
                "name": "B4",
                "ticks": 29040,
                "time": 100.833293,
                "velocity": 0.5039370078740157
              },
              {
                "duration": 0.10416662500000484,
                "durationTicks": 30,
                "midi": 76,
                "name": "E5",
                "ticks": 29100,
                "time": 101.04162625,
                "velocity": 0.5039370078740157
              },
              {
                "duration": 0.10416662500000484,
                "durationTicks": 30,
                "midi": 75,
                "name": "D#5",
                "ticks": 29130,
                "time": 101.145792875,
                "velocity": 0.5039370078740157
              },
              {
                "duration": 0.20833324999999547,
                "durationTicks": 60,
                "midi": 76,
                "name": "E5",
                "ticks": 29160,
                "time": 101.2499595,
                "velocity": 0.5039370078740157
              },
              {
                "duration": 0.20833324999999547,
                "durationTicks": 60,
                "midi": 71,
                "name": "B4",
                "ticks": 29220,
                "time": 101.45829275,
                "velocity": 0.5039370078740157
              },
              {
                "duration": 0.20833325000000968,
                "durationTicks": 60,
                "midi": 68,
                "name": "G#4",
                "ticks": 29280,
                "time": 101.666626,
                "velocity": 0.5039370078740157
              },
              {
                "duration": 0.20833324999999547,
                "durationTicks": 60,
                "midi": 64,
                "name": "E4",
                "ticks": 29340,
                "time": 101.87495925,
                "velocity": 0.5039370078740157
              },
              {
                "duration": 0.20833324999999547,
                "durationTicks": 60,
                "midi": 59,
                "name": "B3",
                "ticks": 29520,
                "time": 102.499959,
                "velocity": 0.5039370078740157
              },
              {
                "duration": 0.41666650000000516,
                "durationTicks": 120,
                "midi": 61,
                "name": "C#4",
                "ticks": 29640,
                "time": 102.9166255,
                "velocity": 0.5039370078740157
              },
              {
                "duration": 0.41666650000000516,
                "durationTicks": 120,
                "midi": 63,
                "name": "D#4",
                "ticks": 29760,
                "time": 103.333292,
                "velocity": 0.5039370078740157
              },
              {
                "duration": 0.41666649999999095,
                "durationTicks": 120,
                "midi": 64,
                "name": "E4",
                "ticks": 29880,
                "time": 103.7499585,
                "velocity": 0.5039370078740157
              },
              {
                "duration": 0.41666650000000516,
                "durationTicks": 120,
                "midi": 66,
                "name": "F#4",
                "ticks": 30000,
                "time": 104.166625,
                "velocity": 0.5039370078740157
              },
              {
                "duration": 0.41666649999999095,
                "durationTicks": 120,
                "midi": 68,
                "name": "G#4",
                "ticks": 30120,
                "time": 104.5832915,
                "velocity": 0.5039370078740157
              },
              {
                "duration": 0.41666650000000516,
                "durationTicks": 120,
                "midi": 70,
                "name": "A#4",
                "ticks": 30240,
                "time": 104.99995799999999,
                "velocity": 0.5039370078740157
              },
              {
                "duration": 0.20833324999999547,
                "durationTicks": 60,
                "midi": 71,
                "name": "B4",
                "ticks": 30360,
                "time": 105.4166245,
                "velocity": 0.5039370078740157
              },
              {
                "duration": 0.20833325000000968,
                "durationTicks": 60,
                "midi": 70,
                "name": "A#4",
                "ticks": 30420,
                "time": 105.62495775,
                "velocity": 0.5039370078740157
              },
              {
                "duration": 0.20833324999999547,
                "durationTicks": 60,
                "midi": 68,
                "name": "G#4",
                "ticks": 30480,
                "time": 105.833291,
                "velocity": 0.5039370078740157
              },
              {
                "duration": 0.20833324999999547,
                "durationTicks": 60,
                "midi": 66,
                "name": "F#4",
                "ticks": 30540,
                "time": 106.04162425,
                "velocity": 0.5039370078740157
              },
              {
                "duration": 0.41666650000000516,
                "durationTicks": 120,
                "midi": 71,
                "name": "B4",
                "ticks": 30600,
                "time": 106.2499575,
                "velocity": 0.5039370078740157
              },
              {
                "duration": 0.41666650000000516,
                "durationTicks": 120,
                "midi": 59,
                "name": "B3",
                "ticks": 30720,
                "time": 106.666624,
                "velocity": 0.5039370078740157
              },
              {
                "duration": 0.41666649999999095,
                "durationTicks": 120,
                "midi": 83,
                "name": "B5",
                "ticks": 31020,
                "time": 107.70829025,
                "velocity": 0.5039370078740157
              },
              {
                "duration": 0.41666650000000516,
                "durationTicks": 120,
                "midi": 82,
                "name": "A#5",
                "ticks": 31140,
                "time": 108.12495675,
                "velocity": 0.5039370078740157
              },
              {
                "duration": 0.41666650000000516,
                "durationTicks": 120,
                "midi": 81,
                "name": "A5",
                "ticks": 31260,
                "time": 108.54162325,
                "velocity": 0.5039370078740157
              },
              {
                "duration": 0.41666649999999095,
                "durationTicks": 120,
                "midi": 80,
                "name": "G#5",
                "ticks": 31380,
                "time": 108.95828975,
                "velocity": 0.5039370078740157
              },
              {
                "duration": 0.41666650000000516,
                "durationTicks": 120,
                "midi": 78,
                "name": "F#5",
                "ticks": 31500,
                "time": 109.37495625,
                "velocity": 0.5039370078740157
              },
              {
                "duration": 0.41666649999999095,
                "durationTicks": 120,
                "midi": 76,
                "name": "E5",
                "ticks": 31620,
                "time": 109.79162275,
                "velocity": 0.5039370078740157
              },
              {
                "duration": 0.41666650000000516,
                "durationTicks": 120,
                "midi": 75,
                "name": "D#5",
                "ticks": 31740,
                "time": 110.20828924999999,
                "velocity": 0.5039370078740157
              },
              {
                "duration": 0.41666650000000516,
                "durationTicks": 120,
                "midi": 73,
                "name": "C#5",
                "ticks": 31860,
                "time": 110.62495575,
                "velocity": 0.5039370078740157
              },
              {
                "duration": 0.10416662499999063,
                "durationTicks": 30,
                "midi": 75,
                "name": "D#5",
                "ticks": 31980,
                "time": 111.04162225,
                "velocity": 0.5039370078740157
              },
              {
                "duration": 0.10416662500000484,
                "durationTicks": 30,
                "midi": 76,
                "name": "E5",
                "ticks": 32010,
                "time": 111.145788875,
                "velocity": 0.5039370078740157
              },
              {
                "duration": 0.20833324999999547,
                "durationTicks": 60,
                "midi": 75,
                "name": "D#5",
                "ticks": 32040,
                "time": 111.2499555,
                "velocity": 0.5039370078740157
              },
              {
                "duration": 0.10416662500000484,
                "durationTicks": 30,
                "midi": 78,
                "name": "F#5",
                "ticks": 32100,
                "time": 111.45828875,
                "velocity": 0.5039370078740157
              },
              {
                "duration": 0.10416662500000484,
                "durationTicks": 30,
                "midi": 76,
                "name": "E5",
                "ticks": 32130,
                "time": 111.562455375,
                "velocity": 0.5039370078740157
              },
              {
                "duration": 0.20833324999999547,
                "durationTicks": 60,
                "midi": 78,
                "name": "F#5",
                "ticks": 32160,
                "time": 111.666622,
                "velocity": 0.5039370078740157
              },
              {
                "duration": 0.10416662500000484,
                "durationTicks": 30,
                "midi": 75,
                "name": "D#5",
                "ticks": 32220,
                "time": 111.87495525,
                "velocity": 0.5039370078740157
              },
              {
                "duration": 0.10416662499999063,
                "durationTicks": 30,
                "midi": 73,
                "name": "C#5",
                "ticks": 32250,
                "time": 111.979121875,
                "velocity": 0.5039370078740157
              },
              {
                "duration": 0.20833325000000968,
                "durationTicks": 60,
                "midi": 75,
                "name": "D#5",
                "ticks": 32280,
                "time": 112.0832885,
                "velocity": 0.5039370078740157
              },
              {
                "duration": 0.10416662499999063,
                "durationTicks": 30,
                "midi": 71,
                "name": "B4",
                "ticks": 32340,
                "time": 112.29162175,
                "velocity": 0.5039370078740157
              },
              {
                "duration": 0.10416662500000484,
                "durationTicks": 30,
                "midi": 70,
                "name": "A#4",
                "ticks": 32370,
                "time": 112.395788375,
                "velocity": 0.5039370078740157
              },
              {
                "duration": 0.20833324999999547,
                "durationTicks": 60,
                "midi": 71,
                "name": "B4",
                "ticks": 32400,
                "time": 112.499955,
                "velocity": 0.5039370078740157
              },
              {
                "duration": 0.10416662500000484,
                "durationTicks": 30,
                "midi": 75,
                "name": "D#5",
                "ticks": 32460,
                "time": 112.70828825,
                "velocity": 0.5039370078740157
              },
              {
                "duration": 0.10416662500000484,
                "durationTicks": 30,
                "midi": 73,
                "name": "C#5",
                "ticks": 32490,
                "time": 112.812454875,
                "velocity": 0.5039370078740157
              },
              {
                "duration": 0.20833324999999547,
                "durationTicks": 60,
                "midi": 75,
                "name": "D#5",
                "ticks": 32520,
                "time": 112.9166215,
                "velocity": 0.5039370078740157
              },
              {
                "duration": 0.10416662500000484,
                "durationTicks": 30,
                "midi": 80,
                "name": "G#5",
                "ticks": 32580,
                "time": 113.12495475,
                "velocity": 0.5039370078740157
              },
              {
                "duration": 0.10416662499999063,
                "durationTicks": 30,
                "midi": 79,
                "name": "G5",
                "ticks": 32610,
                "time": 113.229121375,
                "velocity": 0.5039370078740157
              },
              {
                "duration": 0.20833325000000968,
                "durationTicks": 60,
                "midi": 80,
                "name": "G#5",
                "ticks": 32640,
                "time": 113.333288,
                "velocity": 0.5039370078740157
              },
              {
                "duration": 0.10416662499999063,
                "durationTicks": 30,
                "midi": 73,
                "name": "C#5",
                "ticks": 32700,
                "time": 113.54162125,
                "velocity": 0.5039370078740157
              },
              {
                "duration": 0.10416662500000484,
                "durationTicks": 30,
                "midi": 71,
                "name": "B4",
                "ticks": 32730,
                "time": 113.645787875,
                "velocity": 0.5039370078740157
              },
              {
                "duration": 0.20833324999999547,
                "durationTicks": 60,
                "midi": 73,
                "name": "C#5",
                "ticks": 32760,
                "time": 113.7499545,
                "velocity": 0.5039370078740157
              },
              {
                "duration": 0.10416662500000484,
                "durationTicks": 30,
                "midi": 76,
                "name": "E5",
                "ticks": 32820,
                "time": 113.95828775,
                "velocity": 0.5039370078740157
              },
              {
                "duration": 0.10416662499999063,
                "durationTicks": 30,
                "midi": 75,
                "name": "D#5",
                "ticks": 32850,
                "time": 114.062454375,
                "velocity": 0.5039370078740157
              },
              {
                "duration": 0.20833325000000968,
                "durationTicks": 60,
                "midi": 76,
                "name": "E5",
                "ticks": 32880,
                "time": 114.16662099999999,
                "velocity": 0.5039370078740157
              },
              {
                "duration": 0.10416662499999063,
                "durationTicks": 30,
                "midi": 82,
                "name": "A#5",
                "ticks": 32940,
                "time": 114.37495425,
                "velocity": 0.5039370078740157
              },
              {
                "duration": 0.10416662500000484,
                "durationTicks": 30,
                "midi": 80,
                "name": "G#5",
                "ticks": 32970,
                "time": 114.47912087499999,
                "velocity": 0.5039370078740157
              },
              {
                "duration": 0.20833324999999547,
                "durationTicks": 60,
                "midi": 82,
                "name": "A#5",
                "ticks": 33000,
                "time": 114.5832875,
                "velocity": 0.5039370078740157
              },
              {
                "duration": 0.10416662500000484,
                "durationTicks": 30,
                "midi": 75,
                "name": "D#5",
                "ticks": 33060,
                "time": 114.79162074999999,
                "velocity": 0.5039370078740157
              },
              {
                "duration": 0.10416662500000484,
                "durationTicks": 30,
                "midi": 73,
                "name": "C#5",
                "ticks": 33090,
                "time": 114.895787375,
                "velocity": 0.5039370078740157
              },
              {
                "duration": 0.20833324999999547,
                "durationTicks": 60,
                "midi": 75,
                "name": "D#5",
                "ticks": 33120,
                "time": 114.999954,
                "velocity": 0.5039370078740157
              },
              {
                "duration": 0.10416662500000484,
                "durationTicks": 30,
                "midi": 80,
                "name": "G#5",
                "ticks": 33180,
                "time": 115.20828725,
                "velocity": 0.5039370078740157
              },
              {
                "duration": 0.10416662499999063,
                "durationTicks": 30,
                "midi": 79,
                "name": "G5",
                "ticks": 33210,
                "time": 115.312453875,
                "velocity": 0.5039370078740157
              },
              {
                "duration": 0.20833325000000968,
                "durationTicks": 60,
                "midi": 80,
                "name": "G#5",
                "ticks": 33240,
                "time": 115.4166205,
                "velocity": 0.5039370078740157
              },
              {
                "duration": 0.10416662499999063,
                "durationTicks": 30,
                "midi": 83,
                "name": "B5",
                "ticks": 33300,
                "time": 115.62495375,
                "velocity": 0.5039370078740157
              },
              {
                "duration": 0.10416662500000484,
                "durationTicks": 30,
                "midi": 82,
                "name": "A#5",
                "ticks": 33330,
                "time": 115.729120375,
                "velocity": 0.5039370078740157
              },
              {
                "duration": 0.20833324999999547,
                "durationTicks": 60,
                "midi": 83,
                "name": "B5",
                "ticks": 33360,
                "time": 115.833287,
                "velocity": 0.5039370078740157
              },
              {
                "duration": 0.10416662500000484,
                "durationTicks": 30,
                "midi": 75,
                "name": "D#5",
                "ticks": 33420,
                "time": 116.04162025,
                "velocity": 0.5039370078740157
              },
              {
                "duration": 0.10416662500000484,
                "durationTicks": 30,
                "midi": 74,
                "name": "D5",
                "ticks": 33450,
                "time": 116.145786875,
                "velocity": 0.5039370078740157
              },
              {
                "duration": 0.20833324999999547,
                "durationTicks": 60,
                "midi": 75,
                "name": "D#5",
                "ticks": 33480,
                "time": 116.2499535,
                "velocity": 0.5039370078740157
              },
              {
                "duration": 0.10416662500000484,
                "durationTicks": 30,
                "midi": 82,
                "name": "A#5",
                "ticks": 33540,
                "time": 116.45828675,
                "velocity": 0.5039370078740157
              },
              {
                "duration": 0.10416662499999063,
                "durationTicks": 30,
                "midi": 80,
                "name": "G#5",
                "ticks": 33570,
                "time": 116.562453375,
                "velocity": 0.5039370078740157
              },
              {
                "duration": 0.20833325000000968,
                "durationTicks": 60,
                "midi": 82,
                "name": "A#5",
                "ticks": 33600,
                "time": 116.66662,
                "velocity": 0.5039370078740157
              },
              {
                "duration": 0.10416662499999063,
                "durationTicks": 30,
                "midi": 79,
                "name": "G5",
                "ticks": 33660,
                "time": 116.87495325,
                "velocity": 0.5039370078740157
              },
              {
                "duration": 0.10416662500000484,
                "durationTicks": 30,
                "midi": 77,
                "name": "F5",
                "ticks": 33690,
                "time": 116.979119875,
                "velocity": 0.5039370078740157
              },
              {
                "duration": 0.20833324999999547,
                "durationTicks": 60,
                "midi": 79,
                "name": "G5",
                "ticks": 33720,
                "time": 117.0832865,
                "velocity": 0.5039370078740157
              },
              {
                "duration": 0.10416662500000484,
                "durationTicks": 30,
                "midi": 75,
                "name": "D#5",
                "ticks": 33780,
                "time": 117.29161975,
                "velocity": 0.5039370078740157
              },
              {
                "duration": 0.10416662500000484,
                "durationTicks": 30,
                "midi": 74,
                "name": "D5",
                "ticks": 33810,
                "time": 117.395786375,
                "velocity": 0.5039370078740157
              },
              {
                "duration": 0.20833324999999547,
                "durationTicks": 60,
                "midi": 74,
                "name": "D5",
                "ticks": 33840,
                "time": 117.499953,
                "velocity": 0.5039370078740157
              },
              {
                "duration": 0.41666650000000516,
                "durationTicks": 120,
                "midi": 81,
                "name": "A5",
                "ticks": 33900,
                "time": 117.70828625,
                "velocity": 0.5039370078740157
              },
              {
                "duration": 0.41666649999999095,
                "durationTicks": 120,
                "midi": 80,
                "name": "G#5",
                "ticks": 34020,
                "time": 118.12495275,
                "velocity": 0.5039370078740157
              },
              {
                "duration": 0.41666650000000516,
                "durationTicks": 120,
                "midi": 78,
                "name": "F#5",
                "ticks": 34140,
                "time": 118.54161925,
                "velocity": 0.5039370078740157
              },
              {
                "duration": 0.10416662499999063,
                "durationTicks": 30,
                "midi": 76,
                "name": "E5",
                "ticks": 34260,
                "time": 118.95828575,
                "velocity": 0.5039370078740157
              },
              {
                "duration": 0.10416662500000484,
                "durationTicks": 30,
                "midi": 75,
                "name": "D#5",
                "ticks": 34290,
                "time": 119.06245237499999,
                "velocity": 0.5039370078740157
              },
              {
                "duration": 0.20833324999999547,
                "durationTicks": 60,
                "midi": 76,
                "name": "E5",
                "ticks": 34320,
                "time": 119.166619,
                "velocity": 0.5039370078740157
              },
              {
                "duration": 0.10416662500000484,
                "durationTicks": 30,
                "midi": 73,
                "name": "C#5",
                "ticks": 34380,
                "time": 119.37495224999999,
                "velocity": 0.5039370078740157
              },
              {
                "duration": 0.10416662500000484,
                "durationTicks": 30,
                "midi": 72,
                "name": "C5",
                "ticks": 34410,
                "time": 119.479118875,
                "velocity": 0.5039370078740157
              },
              {
                "duration": 0.20833324999999547,
                "durationTicks": 60,
                "midi": 73,
                "name": "C#5",
                "ticks": 34440,
                "time": 119.5832855,
                "velocity": 0.5039370078740157
              },
              {
                "duration": 0.10416662500000484,
                "durationTicks": 30,
                "midi": 76,
                "name": "E5",
                "ticks": 34500,
                "time": 119.79161875,
                "velocity": 0.5039370078740157
              },
              {
                "duration": 0.10416662499999063,
                "durationTicks": 30,
                "midi": 75,
                "name": "D#5",
                "ticks": 34530,
                "time": 119.895785375,
                "velocity": 0.5039370078740157
              },
              {
                "duration": 0.20833325000000968,
                "durationTicks": 60,
                "midi": 76,
                "name": "E5",
                "ticks": 34560,
                "time": 119.999952,
                "velocity": 0.5039370078740157
              },
              {
                "duration": 0.41666649999999095,
                "durationTicks": 120,
                "midi": 80,
                "name": "G#5",
                "ticks": 34620,
                "time": 120.20828525,
                "velocity": 0.5039370078740157
              },
              {
                "duration": 0.41666650000000516,
                "durationTicks": 120,
                "midi": 78,
                "name": "F#5",
                "ticks": 34740,
                "time": 120.62495175,
                "velocity": 0.5039370078740157
              },
              {
                "duration": 0.41666650000000516,
                "durationTicks": 120,
                "midi": 76,
                "name": "E5",
                "ticks": 34860,
                "time": 121.04161825,
                "velocity": 0.5039370078740157
              },
              {
                "duration": 0.10416662499999063,
                "durationTicks": 30,
                "midi": 75,
                "name": "D#5",
                "ticks": 34980,
                "time": 121.45828475,
                "velocity": 0.5039370078740157
              },
              {
                "duration": 0.10416662500000484,
                "durationTicks": 30,
                "midi": 73,
                "name": "C#5",
                "ticks": 35010,
                "time": 121.562451375,
                "velocity": 0.5039370078740157
              },
              {
                "duration": 0.20833324999999547,
                "durationTicks": 60,
                "midi": 75,
                "name": "D#5",
                "ticks": 35040,
                "time": 121.666618,
                "velocity": 0.5039370078740157
              },
              {
                "duration": 0.10416662500000484,
                "durationTicks": 30,
                "midi": 71,
                "name": "B4",
                "ticks": 35100,
                "time": 121.87495125,
                "velocity": 0.5039370078740157
              },
              {
                "duration": 0.10416662500000484,
                "durationTicks": 30,
                "midi": 70,
                "name": "A#4",
                "ticks": 35130,
                "time": 121.979117875,
                "velocity": 0.5039370078740157
              },
              {
                "duration": 0.20833324999999547,
                "durationTicks": 60,
                "midi": 71,
                "name": "B4",
                "ticks": 35160,
                "time": 122.0832845,
                "velocity": 0.5039370078740157
              },
              {
                "duration": 0.10416662500000484,
                "durationTicks": 30,
                "midi": 73,
                "name": "C#5",
                "ticks": 35220,
                "time": 122.29161775,
                "velocity": 0.5039370078740157
              },
              {
                "duration": 0.10416662499999063,
                "durationTicks": 30,
                "midi": 71,
                "name": "B4",
                "ticks": 35250,
                "time": 122.395784375,
                "velocity": 0.5039370078740157
              },
              {
                "duration": 0.20833325000000968,
                "durationTicks": 60,
                "midi": 73,
                "name": "C#5",
                "ticks": 35280,
                "time": 122.499951,
                "velocity": 0.5039370078740157
              },
              {
                "duration": 0.41666649999999095,
                "durationTicks": 120,
                "midi": 76,
                "name": "E5",
                "ticks": 35340,
                "time": 122.70828425,
                "velocity": 0.5039370078740157
              },
              {
                "duration": 0.41666650000000516,
                "durationTicks": 120,
                "midi": 75,
                "name": "D#5",
                "ticks": 35460,
                "time": 123.12495075,
                "velocity": 0.5039370078740157
              },
              {
                "duration": 0.41666649999999095,
                "durationTicks": 120,
                "midi": 73,
                "name": "C#5",
                "ticks": 35580,
                "time": 123.54161725,
                "velocity": 0.5039370078740157
              },
              {
                "duration": 0.10416662500000484,
                "durationTicks": 30,
                "midi": 71,
                "name": "B4",
                "ticks": 35700,
                "time": 123.95828374999999,
                "velocity": 0.5039370078740157
              },
              {
                "duration": 0.10416662500000484,
                "durationTicks": 30,
                "midi": 70,
                "name": "A#4",
                "ticks": 35730,
                "time": 124.062450375,
                "velocity": 0.5039370078740157
              },
              {
                "duration": 0.20833324999999547,
                "durationTicks": 60,
                "midi": 71,
                "name": "B4",
                "ticks": 35760,
                "time": 124.166617,
                "velocity": 0.5039370078740157
              },
              {
                "duration": 0.10416662500000484,
                "durationTicks": 30,
                "midi": 68,
                "name": "G#4",
                "ticks": 35820,
                "time": 124.37495025,
                "velocity": 0.5039370078740157
              },
              {
                "duration": 0.10416662499999063,
                "durationTicks": 30,
                "midi": 67,
                "name": "G4",
                "ticks": 35850,
                "time": 124.479116875,
                "velocity": 0.5039370078740157
              },
              {
                "duration": 0.20833325000000968,
                "durationTicks": 60,
                "midi": 68,
                "name": "G#4",
                "ticks": 35880,
                "time": 124.5832835,
                "velocity": 0.5039370078740157
              },
              {
                "duration": 0.10416662499999063,
                "durationTicks": 30,
                "midi": 69,
                "name": "A4",
                "ticks": 35940,
                "time": 124.79161675,
                "velocity": 0.5039370078740157
              },
              {
                "duration": 0.10416662500000484,
                "durationTicks": 30,
                "midi": 68,
                "name": "G#4",
                "ticks": 35970,
                "time": 124.895783375,
                "velocity": 0.5039370078740157
              },
              {
                "duration": 0.20833324999999547,
                "durationTicks": 60,
                "midi": 69,
                "name": "A4",
                "ticks": 36000,
                "time": 124.99995,
                "velocity": 0.5039370078740157
              },
              {
                "duration": 0.10416662500000484,
                "durationTicks": 30,
                "midi": 73,
                "name": "C#5",
                "ticks": 36060,
                "time": 125.20828325,
                "velocity": 0.5039370078740157
              },
              {
                "duration": 0.10416662500000484,
                "durationTicks": 30,
                "midi": 71,
                "name": "B4",
                "ticks": 36090,
                "time": 125.312449875,
                "velocity": 0.5039370078740157
              },
              {
                "duration": 0.20833324999999547,
                "durationTicks": 60,
                "midi": 73,
                "name": "C#5",
                "ticks": 36120,
                "time": 125.4166165,
                "velocity": 0.5039370078740157
              },
              {
                "duration": 0.10416662500000484,
                "durationTicks": 30,
                "midi": 69,
                "name": "A4",
                "ticks": 36180,
                "time": 125.62494975,
                "velocity": 0.5039370078740157
              },
              {
                "duration": 0.10416662499999063,
                "durationTicks": 30,
                "midi": 68,
                "name": "G#4",
                "ticks": 36210,
                "time": 125.729116375,
                "velocity": 0.5039370078740157
              },
              {
                "duration": 0.20833325000000968,
                "durationTicks": 60,
                "midi": 69,
                "name": "A4",
                "ticks": 36240,
                "time": 125.833283,
                "velocity": 0.5039370078740157
              },
              {
                "duration": 0.10416662499999063,
                "durationTicks": 30,
                "midi": 76,
                "name": "E5",
                "ticks": 36300,
                "time": 126.04161625,
                "velocity": 0.5039370078740157
              },
              {
                "duration": 0.10416662500000484,
                "durationTicks": 30,
                "midi": 75,
                "name": "D#5",
                "ticks": 36330,
                "time": 126.145782875,
                "velocity": 0.5039370078740157
              },
              {
                "duration": 0.20833324999999547,
                "durationTicks": 60,
                "midi": 76,
                "name": "E5",
                "ticks": 36360,
                "time": 126.2499495,
                "velocity": 0.5039370078740157
              },
              {
                "duration": 0.10416662500000484,
                "durationTicks": 30,
                "midi": 67,
                "name": "G4",
                "ticks": 36420,
                "time": 126.45828275,
                "velocity": 0.5039370078740157
              },
              {
                "duration": 0.10416662500000484,
                "durationTicks": 30,
                "midi": 65,
                "name": "F4",
                "ticks": 36450,
                "time": 126.562449375,
                "velocity": 0.5039370078740157
              },
              {
                "duration": 0.20833324999999547,
                "durationTicks": 60,
                "midi": 67,
                "name": "G4",
                "ticks": 36480,
                "time": 126.666616,
                "velocity": 0.5039370078740157
              },
              {
                "duration": 0.10416662500000484,
                "durationTicks": 30,
                "midi": 70,
                "name": "A#4",
                "ticks": 36540,
                "time": 126.87494925,
                "velocity": 0.5039370078740157
              },
              {
                "duration": 0.10416662499999063,
                "durationTicks": 30,
                "midi": 68,
                "name": "G#4",
                "ticks": 36570,
                "time": 126.979115875,
                "velocity": 0.5039370078740157
              },
              {
                "duration": 0.20833325000000968,
                "durationTicks": 60,
                "midi": 70,
                "name": "A#4",
                "ticks": 36600,
                "time": 127.0832825,
                "velocity": 0.5039370078740157
              },
              {
                "duration": 0.10416662499999063,
                "durationTicks": 30,
                "midi": 59,
                "name": "B3",
                "ticks": 36660,
                "time": 127.29161575,
                "velocity": 0.5039370078740157
              },
              {
                "duration": 0.10416662500000484,
                "durationTicks": 30,
                "midi": 58,
                "name": "A#3",
                "ticks": 36690,
                "time": 127.395782375,
                "velocity": 0.5039370078740157
              },
              {
                "duration": 0.20833324999999547,
                "durationTicks": 60,
                "midi": 59,
                "name": "B3",
                "ticks": 36720,
                "time": 127.499949,
                "velocity": 0.5039370078740157
              },
              {
                "duration": 0.20833324999999547,
                "durationTicks": 60,
                "midi": 68,
                "name": "G#4",
                "ticks": 36780,
                "time": 127.70828225,
                "velocity": 0.5039370078740157
              },
              {
                "duration": 0.20833324999999547,
                "durationTicks": 60,
                "midi": 64,
                "name": "E4",
                "ticks": 36840,
                "time": 127.91661549999999,
                "velocity": 0.5039370078740157
              },
              {
                "duration": 0.20833325000000968,
                "durationTicks": 60,
                "midi": 61,
                "name": "C#4",
                "ticks": 36900,
                "time": 128.12494875,
                "velocity": 0.5039370078740157
              },
              {
                "duration": 0.20833325000000968,
                "durationTicks": 60,
                "midi": 58,
                "name": "A#3",
                "ticks": 36960,
                "time": 128.333282,
                "velocity": 0.5039370078740157
              },
              {
                "duration": 0.20833324999998126,
                "durationTicks": 60,
                "midi": 67,
                "name": "G4",
                "ticks": 37020,
                "time": 128.54161525,
                "velocity": 0.5039370078740157
              },
              {
                "duration": 0.20833325000000968,
                "durationTicks": 60,
                "midi": 68,
                "name": "G#4",
                "ticks": 37080,
                "time": 128.7499485,
                "velocity": 0.5039370078740157
              },
              {
                "duration": 0.20833325000000968,
                "durationTicks": 60,
                "midi": 63,
                "name": "D#4",
                "ticks": 37140,
                "time": 128.95828175,
                "velocity": 0.5039370078740157
              },
              {
                "duration": 0.20833324999998126,
                "durationTicks": 60,
                "midi": 59,
                "name": "B3",
                "ticks": 37200,
                "time": 129.166615,
                "velocity": 0.5039370078740157
              },
              {
                "duration": 0.20833325000000968,
                "durationTicks": 60,
                "midi": 56,
                "name": "G#3",
                "ticks": 37260,
                "time": 129.37494825,
                "velocity": 0.5039370078740157
              },
              {
                "duration": 0.41666650000001937,
                "durationTicks": 120,
                "midi": 64,
                "name": "E4",
                "ticks": 37440,
                "time": 129.999948,
                "velocity": 0.5039370078740157
              },
              {
                "duration": 0.41666649999999095,
                "durationTicks": 120,
                "midi": 66,
                "name": "F#4",
                "ticks": 37560,
                "time": 130.4166145,
                "velocity": 0.5039370078740157
              },
              {
                "duration": 0.41666649999999095,
                "durationTicks": 120,
                "midi": 68,
                "name": "G#4",
                "ticks": 37680,
                "time": 130.833281,
                "velocity": 0.5039370078740157
              },
              {
                "duration": 0.41666650000001937,
                "durationTicks": 120,
                "midi": 69,
                "name": "A4",
                "ticks": 37800,
                "time": 131.2499475,
                "velocity": 0.5039370078740157
              },
              {
                "duration": 0.41666649999999095,
                "durationTicks": 120,
                "midi": 71,
                "name": "B4",
                "ticks": 37920,
                "time": 131.666614,
                "velocity": 0.5039370078740157
              },
              {
                "duration": 0.41666649999999095,
                "durationTicks": 120,
                "midi": 73,
                "name": "C#5",
                "ticks": 38040,
                "time": 132.0832805,
                "velocity": 0.5039370078740157
              },
              {
                "duration": 0.41666650000001937,
                "durationTicks": 120,
                "midi": 75,
                "name": "D#5",
                "ticks": 38160,
                "time": 132.499947,
                "velocity": 0.5039370078740157
              },
              {
                "duration": 0.20833324999998126,
                "durationTicks": 60,
                "midi": 76,
                "name": "E5",
                "ticks": 38280,
                "time": 132.9166135,
                "velocity": 0.5039370078740157
              },
              {
                "duration": 0.20833325000000968,
                "durationTicks": 60,
                "midi": 75,
                "name": "D#5",
                "ticks": 38340,
                "time": 133.12494675,
                "velocity": 0.5039370078740157
              },
              {
                "duration": 0.20833325000000968,
                "durationTicks": 60,
                "midi": 73,
                "name": "C#5",
                "ticks": 38400,
                "time": 133.33328,
                "velocity": 0.5039370078740157
              },
              {
                "duration": 0.20833324999998126,
                "durationTicks": 60,
                "midi": 71,
                "name": "B4",
                "ticks": 38460,
                "time": 133.54161325,
                "velocity": 0.5039370078740157
              },
              {
                "duration": 0.6249997500000006,
                "durationTicks": 180,
                "midi": 76,
                "name": "E5",
                "ticks": 38520,
                "time": 133.7499465,
                "velocity": 0.5039370078740157
              },
              {
                "duration": 0.10416662500000484,
                "durationTicks": 30,
                "midi": 71,
                "name": "B4",
                "ticks": 38700,
                "time": 134.37494625,
                "velocity": 0.5039370078740157
              },
              {
                "duration": 0.10416662500000484,
                "durationTicks": 30,
                "midi": 69,
                "name": "A4",
                "ticks": 38730,
                "time": 134.479112875,
                "velocity": 0.5039370078740157
              },
              {
                "duration": 0.20833324999998126,
                "durationTicks": 60,
                "midi": 71,
                "name": "B4",
                "ticks": 38760,
                "time": 134.5832795,
                "velocity": 0.5039370078740157
              },
              {
                "duration": 0.10416662500000484,
                "durationTicks": 30,
                "midi": 68,
                "name": "G#4",
                "ticks": 38820,
                "time": 134.79161274999998,
                "velocity": 0.5039370078740157
              },
              {
                "duration": 0.10416662500000484,
                "durationTicks": 30,
                "midi": 66,
                "name": "F#4",
                "ticks": 38850,
                "time": 134.895779375,
                "velocity": 0.5039370078740157
              },
              {
                "duration": 0.20833325000000968,
                "durationTicks": 60,
                "midi": 68,
                "name": "G#4",
                "ticks": 38880,
                "time": 134.999946,
                "velocity": 0.5039370078740157
              },
              {
                "duration": 0.41666649999999095,
                "durationTicks": 120,
                "midi": 76,
                "name": "E5",
                "ticks": 38940,
                "time": 135.20827925,
                "velocity": 0.5039370078740157
              },
              {
                "duration": 0.41666649999999095,
                "durationTicks": 120,
                "midi": 75,
                "name": "D#5",
                "ticks": 39060,
                "time": 135.62494575,
                "velocity": 0.5039370078740157
              },
              {
                "duration": 0.41666650000001937,
                "durationTicks": 120,
                "midi": 74,
                "name": "D5",
                "ticks": 39180,
                "time": 136.04161225,
                "velocity": 0.5039370078740157
              },
              {
                "duration": 0.41666649999999095,
                "durationTicks": 120,
                "midi": 73,
                "name": "C#5",
                "ticks": 39300,
                "time": 136.45827875,
                "velocity": 0.5039370078740157
              },
              {
                "duration": 0.41666649999999095,
                "durationTicks": 120,
                "midi": 71,
                "name": "B4",
                "ticks": 39420,
                "time": 136.87494525,
                "velocity": 0.5039370078740157
              },
              {
                "duration": 0.41666650000001937,
                "durationTicks": 120,
                "midi": 69,
                "name": "A4",
                "ticks": 39540,
                "time": 137.29161175,
                "velocity": 0.5039370078740157
              },
              {
                "duration": 0.41666649999999095,
                "durationTicks": 120,
                "midi": 68,
                "name": "G#4",
                "ticks": 39660,
                "time": 137.70827825,
                "velocity": 0.5039370078740157
              },
              {
                "duration": 0.41666649999999095,
                "durationTicks": 120,
                "midi": 66,
                "name": "F#4",
                "ticks": 39780,
                "time": 138.12494475,
                "velocity": 0.5039370078740157
              },
              {
                "duration": 0.10416662500000484,
                "durationTicks": 30,
                "midi": 68,
                "name": "G#4",
                "ticks": 39900,
                "time": 138.54161125,
                "velocity": 0.5039370078740157
              },
              {
                "duration": 0.10416662500000484,
                "durationTicks": 30,
                "midi": 69,
                "name": "A4",
                "ticks": 39930,
                "time": 138.645777875,
                "velocity": 0.5039370078740157
              },
              {
                "duration": 0.20833325000000968,
                "durationTicks": 60,
                "midi": 68,
                "name": "G#4",
                "ticks": 39960,
                "time": 138.7499445,
                "velocity": 0.5039370078740157
              },
              {
                "duration": 0.10416662500000484,
                "durationTicks": 30,
                "midi": 71,
                "name": "B4",
                "ticks": 40020,
                "time": 138.95827775,
                "velocity": 0.5039370078740157
              },
              {
                "duration": 0.10416662499997642,
                "durationTicks": 30,
                "midi": 69,
                "name": "A4",
                "ticks": 40050,
                "time": 139.062444375,
                "velocity": 0.5039370078740157
              },
              {
                "duration": 0.20833325000000968,
                "durationTicks": 60,
                "midi": 71,
                "name": "B4",
                "ticks": 40080,
                "time": 139.166611,
                "velocity": 0.5039370078740157
              },
              {
                "duration": 0.10416662500000484,
                "durationTicks": 30,
                "midi": 68,
                "name": "G#4",
                "ticks": 40140,
                "time": 139.37494425,
                "velocity": 0.5039370078740157
              },
              {
                "duration": 0.10416662500000484,
                "durationTicks": 30,
                "midi": 66,
                "name": "F#4",
                "ticks": 40170,
                "time": 139.479110875,
                "velocity": 0.5039370078740157
              },
              {
                "duration": 0.20833324999998126,
                "durationTicks": 60,
                "midi": 68,
                "name": "G#4",
                "ticks": 40200,
                "time": 139.5832775,
                "velocity": 0.5039370078740157
              },
              {
                "duration": 0.10416662500000484,
                "durationTicks": 30,
                "midi": 64,
                "name": "E4",
                "ticks": 40260,
                "time": 139.79161075,
                "velocity": 0.5039370078740157
              },
              {
                "duration": 0.10416662500000484,
                "durationTicks": 30,
                "midi": 63,
                "name": "D#4",
                "ticks": 40290,
                "time": 139.895777375,
                "velocity": 0.5039370078740157
              },
              {
                "duration": 0.41666649999999095,
                "durationTicks": 120,
                "midi": 64,
                "name": "E4",
                "ticks": 40320,
                "time": 139.999944,
                "velocity": 0.5039370078740157
              },
              {
                "duration": 0.41666650000001937,
                "durationTicks": 120,
                "midi": 66,
                "name": "F#4",
                "ticks": 40440,
                "time": 140.4166105,
                "velocity": 0.5039370078740157
              },
              {
                "duration": 0.41666649999999095,
                "durationTicks": 120,
                "midi": 69,
                "name": "A4",
                "ticks": 40560,
                "time": 140.833277,
                "velocity": 0.5039370078740157
              },
              {
                "duration": 0.41666649999999095,
                "durationTicks": 120,
                "midi": 71,
                "name": "B4",
                "ticks": 40680,
                "time": 141.2499435,
                "velocity": 0.5039370078740157
              },
              {
                "duration": 0.41666650000001937,
                "durationTicks": 120,
                "midi": 75,
                "name": "D#5",
                "ticks": 40800,
                "time": 141.66661,
                "velocity": 0.5039370078740157
              },
              {
                "duration": 0.41666649999999095,
                "durationTicks": 120,
                "midi": 78,
                "name": "F#5",
                "ticks": 40920,
                "time": 142.0832765,
                "velocity": 0.5039370078740157
              },
              {
                "duration": 0.41666649999999095,
                "durationTicks": 120,
                "midi": 63,
                "name": "D#4",
                "ticks": 41040,
                "time": 142.499943,
                "velocity": 0.5039370078740157
              },
              {
                "duration": 0.41666650000001937,
                "durationTicks": 120,
                "midi": 64,
                "name": "E4",
                "ticks": 41160,
                "time": 142.9166095,
                "velocity": 0.5039370078740157
              },
              {
                "duration": 0.41666649999999095,
                "durationTicks": 120,
                "midi": 68,
                "name": "G#4",
                "ticks": 41280,
                "time": 143.333276,
                "velocity": 0.5039370078740157
              },
              {
                "duration": 0.41666649999999095,
                "durationTicks": 120,
                "midi": 69,
                "name": "A4",
                "ticks": 41400,
                "time": 143.7499425,
                "velocity": 0.5039370078740157
              },
              {
                "duration": 0.41666649999999095,
                "durationTicks": 120,
                "midi": 73,
                "name": "C#5",
                "ticks": 41520,
                "time": 144.166609,
                "velocity": 0.5039370078740157
              },
              {
                "duration": 0.41666650000001937,
                "durationTicks": 120,
                "midi": 76,
                "name": "E5",
                "ticks": 41640,
                "time": 144.58327549999998,
                "velocity": 0.5039370078740157
              },
              {
                "duration": 0.41666649999999095,
                "durationTicks": 120,
                "midi": 61,
                "name": "C#4",
                "ticks": 41760,
                "time": 144.999942,
                "velocity": 0.5039370078740157
              },
              {
                "duration": 0.41666649999999095,
                "durationTicks": 120,
                "midi": 66,
                "name": "F#4",
                "ticks": 41880,
                "time": 145.4166085,
                "velocity": 0.5039370078740157
              },
              {
                "duration": 0.41666650000001937,
                "durationTicks": 120,
                "midi": 69,
                "name": "A4",
                "ticks": 42000,
                "time": 145.833275,
                "velocity": 0.5039370078740157
              },
              {
                "duration": 0.41666649999999095,
                "durationTicks": 120,
                "midi": 71,
                "name": "B4",
                "ticks": 42120,
                "time": 146.2499415,
                "velocity": 0.5039370078740157
              },
              {
                "duration": 0.41666649999999095,
                "durationTicks": 120,
                "midi": 73,
                "name": "C#5",
                "ticks": 42240,
                "time": 146.666608,
                "velocity": 0.5039370078740157
              },
              {
                "duration": 0.41666650000001937,
                "durationTicks": 120,
                "midi": 75,
                "name": "D#5",
                "ticks": 42360,
                "time": 147.0832745,
                "velocity": 0.5039370078740157
              },
              {
                "duration": 0.41666649999999095,
                "durationTicks": 120,
                "midi": 76,
                "name": "E5",
                "ticks": 42480,
                "time": 147.499941,
                "velocity": 0.5039370078740157
              },
              {
                "duration": 0.41666649999999095,
                "durationTicks": 120,
                "midi": 73,
                "name": "C#5",
                "ticks": 42600,
                "time": 147.9166075,
                "velocity": 0.5039370078740157
              },
              {
                "duration": 0.41666650000001937,
                "durationTicks": 120,
                "midi": 69,
                "name": "A4",
                "ticks": 42720,
                "time": 148.333274,
                "velocity": 0.5039370078740157
              },
              {
                "duration": 1.2499995000000013,
                "durationTicks": 360,
                "midi": 78,
                "name": "F#5",
                "ticks": 42840,
                "time": 148.7499405,
                "velocity": 0.5039370078740157
              },
              {
                "duration": 0.20833325000000968,
                "durationTicks": 60,
                "midi": 76,
                "name": "E5",
                "ticks": 43260,
                "time": 150.20827325,
                "velocity": 0.5039370078740157
              },
              {
                "duration": 0.20833325000000968,
                "durationTicks": 60,
                "midi": 75,
                "name": "D#5",
                "ticks": 43320,
                "time": 150.4166065,
                "velocity": 0.5039370078740157
              },
              {
                "duration": 0.20833324999998126,
                "durationTicks": 60,
                "midi": 73,
                "name": "C#5",
                "ticks": 43380,
                "time": 150.62493975,
                "velocity": 0.5039370078740157
              },
              {
                "duration": 0.20833325000000968,
                "durationTicks": 60,
                "midi": 71,
                "name": "B4",
                "ticks": 43440,
                "time": 150.833273,
                "velocity": 0.5039370078740157
              },
              {
                "duration": 0.20833325000000968,
                "durationTicks": 60,
                "midi": 69,
                "name": "A4",
                "ticks": 43500,
                "time": 151.04160625,
                "velocity": 0.5039370078740157
              },
              {
                "duration": 0.20833324999998126,
                "durationTicks": 60,
                "midi": 68,
                "name": "G#4",
                "ticks": 43560,
                "time": 151.2499395,
                "velocity": 0.5039370078740157
              },
              {
                "duration": 0.10416662500000484,
                "durationTicks": 30,
                "midi": 64,
                "name": "E4",
                "ticks": 43620,
                "time": 151.45827275,
                "velocity": 0.5039370078740157
              },
              {
                "duration": 0.10416662500000484,
                "durationTicks": 30,
                "midi": 63,
                "name": "D#4",
                "ticks": 43650,
                "time": 151.562439375,
                "velocity": 0.5039370078740157
              },
              {
                "duration": 0.20833325000000968,
                "durationTicks": 60,
                "midi": 64,
                "name": "E4",
                "ticks": 43680,
                "time": 151.666606,
                "velocity": 0.5039370078740157
              },
              {
                "duration": 0.10416662499997642,
                "durationTicks": 30,
                "midi": 68,
                "name": "G#4",
                "ticks": 43740,
                "time": 151.87493925,
                "velocity": 0.5039370078740157
              },
              {
                "duration": 0.10416662500000484,
                "durationTicks": 30,
                "midi": 66,
                "name": "F#4",
                "ticks": 43770,
                "time": 151.979105875,
                "velocity": 0.5039370078740157
              },
              {
                "duration": 0.20833325000000968,
                "durationTicks": 60,
                "midi": 68,
                "name": "G#4",
                "ticks": 43800,
                "time": 152.0832725,
                "velocity": 0.5039370078740157
              },
              {
                "duration": 0.10416662500000484,
                "durationTicks": 30,
                "midi": 71,
                "name": "B4",
                "ticks": 43860,
                "time": 152.29160575,
                "velocity": 0.5039370078740157
              },
              {
                "duration": 0.10416662500000484,
                "durationTicks": 30,
                "midi": 69,
                "name": "A4",
                "ticks": 43890,
                "time": 152.395772375,
                "velocity": 0.5039370078740157
              },
              {
                "duration": 0.21428574999998773,
                "durationTicks": 60,
                "midi": 71,
                "name": "B4",
                "ticks": 43920,
                "time": 152.499939,
                "velocity": 0.5039370078740157
              },
              {
                "duration": 0.10714287500002229,
                "durationTicks": 30,
                "midi": 68,
                "name": "G#4",
                "ticks": 43980,
                "time": 152.71422475,
                "velocity": 0.5039370078740157
              },
              {
                "duration": 0.10714287499999386,
                "durationTicks": 30,
                "midi": 66,
                "name": "F#4",
                "ticks": 44010,
                "time": 152.82136762500002,
                "velocity": 0.5039370078740157
              },
              {
                "duration": 0.21428574999998773,
                "durationTicks": 60,
                "midi": 68,
                "name": "G#4",
                "ticks": 44040,
                "time": 152.92851050000002,
                "velocity": 0.5039370078740157
              },
              {
                "duration": 0.10714287500002229,
                "durationTicks": 30,
                "midi": 71,
                "name": "B4",
                "ticks": 44100,
                "time": 153.14279625,
                "velocity": 0.5039370078740157
              },
              {
                "duration": 0.10714287499999386,
                "durationTicks": 30,
                "midi": 69,
                "name": "A4",
                "ticks": 44130,
                "time": 153.24993912500003,
                "velocity": 0.5039370078740157
              },
              {
                "duration": 0.21428574999998773,
                "durationTicks": 60,
                "midi": 71,
                "name": "B4",
                "ticks": 44160,
                "time": 153.35708200000002,
                "velocity": 0.5039370078740157
              },
              {
                "duration": 0.10714287499999386,
                "durationTicks": 30,
                "midi": 76,
                "name": "E5",
                "ticks": 44220,
                "time": 153.57136775,
                "velocity": 0.5039370078740157
              },
              {
                "duration": 0.10714287500002229,
                "durationTicks": 30,
                "midi": 75,
                "name": "D#5",
                "ticks": 44250,
                "time": 153.678510625,
                "velocity": 0.5039370078740157
              },
              {
                "duration": 0.20833325000000968,
                "durationTicks": 60,
                "midi": 76,
                "name": "E5",
                "ticks": 44280,
                "time": 153.78565350000002,
                "velocity": 0.5039370078740157
              },
              {
                "duration": 0.20833324999998126,
                "durationTicks": 60,
                "midi": 71,
                "name": "B4",
                "ticks": 44340,
                "time": 153.99398675000003,
                "velocity": 0.5039370078740157
              },
              {
                "duration": 0.20833325000000968,
                "durationTicks": 60,
                "midi": 68,
                "name": "G#4",
                "ticks": 44400,
                "time": 154.20232000000001,
                "velocity": 0.5039370078740157
              },
              {
                "duration": 0.20833325000000968,
                "durationTicks": 60,
                "midi": 64,
                "name": "E4",
                "ticks": 44460,
                "time": 154.41065325000002,
                "velocity": 0.5039370078740157
              }
            ],
            "endOfTrackTicks": 44520
          },
          {
            "channel": 1,
            "controlChanges": {},
            "pitchBends": [],
            "instrument": {
              "family": "piano",
              "number": 0,
              "name": "acoustic grand piano"
            },
            "name": "",
            "notes": [
              {
                "duration": 0.4166665,
                "durationTicks": 120,
                "midi": 52,
                "name": "E3",
                "ticks": 0,
                "time": 0,
                "velocity": 0.5039370078740157
              },
              {
                "duration": 0.4166665,
                "durationTicks": 120,
                "midi": 54,
                "name": "F#3",
                "ticks": 120,
                "time": 0.4166665,
                "velocity": 0.5039370078740157
              },
              {
                "duration": 0.41666649999999994,
                "durationTicks": 120,
                "midi": 56,
                "name": "G#3",
                "ticks": 240,
                "time": 0.833333,
                "velocity": 0.5039370078740157
              },
              {
                "duration": 0.41666650000000005,
                "durationTicks": 120,
                "midi": 57,
                "name": "A3",
                "ticks": 360,
                "time": 1.2499995,
                "velocity": 0.5039370078740157
              },
              {
                "duration": 0.41666650000000005,
                "durationTicks": 120,
                "midi": 59,
                "name": "B3",
                "ticks": 480,
                "time": 1.666666,
                "velocity": 0.5039370078740157
              },
              {
                "duration": 0.41666649999999983,
                "durationTicks": 120,
                "midi": 61,
                "name": "C#4",
                "ticks": 600,
                "time": 2.0833325,
                "velocity": 0.5039370078740157
              },
              {
                "duration": 0.4166665000000003,
                "durationTicks": 120,
                "midi": 63,
                "name": "D#4",
                "ticks": 720,
                "time": 2.499999,
                "velocity": 0.5039370078740157
              },
              {
                "duration": 0.20833324999999991,
                "durationTicks": 60,
                "midi": 64,
                "name": "E4",
                "ticks": 840,
                "time": 2.9166655,
                "velocity": 0.5039370078740157
              },
              {
                "duration": 0.20833324999999991,
                "durationTicks": 60,
                "midi": 63,
                "name": "D#4",
                "ticks": 900,
                "time": 3.12499875,
                "velocity": 0.5039370078740157
              },
              {
                "duration": 0.20833324999999991,
                "durationTicks": 60,
                "midi": 61,
                "name": "C#4",
                "ticks": 960,
                "time": 3.333332,
                "velocity": 0.5039370078740157
              },
              {
                "duration": 0.20833324999999991,
                "durationTicks": 60,
                "midi": 59,
                "name": "B3",
                "ticks": 1020,
                "time": 3.54166525,
                "velocity": 0.5039370078740157
              },
              {
                "duration": 0.4166665000000003,
                "durationTicks": 120,
                "midi": 64,
                "name": "E4",
                "ticks": 1080,
                "time": 3.7499985,
                "velocity": 0.5039370078740157
              },
              {
                "duration": 0.41666649999999983,
                "durationTicks": 120,
                "midi": 52,
                "name": "E3",
                "ticks": 1200,
                "time": 4.166665,
                "velocity": 0.5039370078740157
              },
              {
                "duration": 0.4166665000000007,
                "durationTicks": 120,
                "midi": 52,
                "name": "E3",
                "ticks": 1500,
                "time": 5.20833125,
                "velocity": 0.5039370078740157
              },
              {
                "duration": 0.41666649999999983,
                "durationTicks": 120,
                "midi": 51,
                "name": "D#3",
                "ticks": 1620,
                "time": 5.62499775,
                "velocity": 0.5039370078740157
              },
              {
                "duration": 0.41666649999999983,
                "durationTicks": 120,
                "midi": 50,
                "name": "D3",
                "ticks": 1740,
                "time": 6.04166425,
                "velocity": 0.5039370078740157
              },
              {
                "duration": 0.41666649999999983,
                "durationTicks": 120,
                "midi": 49,
                "name": "C#3",
                "ticks": 1860,
                "time": 6.45833075,
                "velocity": 0.5039370078740157
              },
              {
                "duration": 0.41666649999999983,
                "durationTicks": 120,
                "midi": 47,
                "name": "B2",
                "ticks": 1980,
                "time": 6.87499725,
                "velocity": 0.5039370078740157
              },
              {
                "duration": 0.41666649999999983,
                "durationTicks": 120,
                "midi": 45,
                "name": "A2",
                "ticks": 2100,
                "time": 7.29166375,
                "velocity": 0.5039370078740157
              },
              {
                "duration": 0.41666649999999983,
                "durationTicks": 120,
                "midi": 44,
                "name": "G#2",
                "ticks": 2220,
                "time": 7.7083302499999995,
                "velocity": 0.5039370078740157
              },
              {
                "duration": 0.41666649999999983,
                "durationTicks": 120,
                "midi": 42,
                "name": "F#2",
                "ticks": 2340,
                "time": 8.12499675,
                "velocity": 0.5039370078740157
              },
              {
                "duration": 0.10416662500000129,
                "durationTicks": 30,
                "midi": 44,
                "name": "G#2",
                "ticks": 2460,
                "time": 8.54166325,
                "velocity": 0.5039370078740157
              },
              {
                "duration": 0.10416662499999951,
                "durationTicks": 30,
                "midi": 45,
                "name": "A2",
                "ticks": 2490,
                "time": 8.645829875,
                "velocity": 0.5039370078740157
              },
              {
                "duration": 0.2083332500000008,
                "durationTicks": 60,
                "midi": 44,
                "name": "G#2",
                "ticks": 2520,
                "time": 8.7499965,
                "velocity": 0.5039370078740157
              },
              {
                "duration": 0.10416662499999951,
                "durationTicks": 30,
                "midi": 47,
                "name": "B2",
                "ticks": 2580,
                "time": 8.95832975,
                "velocity": 0.5039370078740157
              },
              {
                "duration": 0.10416662499999951,
                "durationTicks": 30,
                "midi": 45,
                "name": "A2",
                "ticks": 2610,
                "time": 9.062496375,
                "velocity": 0.5039370078740157
              },
              {
                "duration": 0.2083332500000008,
                "durationTicks": 60,
                "midi": 47,
                "name": "B2",
                "ticks": 2640,
                "time": 9.166663,
                "velocity": 0.5039370078740157
              },
              {
                "duration": 0.10416662499999951,
                "durationTicks": 30,
                "midi": 44,
                "name": "G#2",
                "ticks": 2700,
                "time": 9.37499625,
                "velocity": 0.5039370078740157
              },
              {
                "duration": 0.10416662499999951,
                "durationTicks": 30,
                "midi": 42,
                "name": "F#2",
                "ticks": 2730,
                "time": 9.479162875,
                "velocity": 0.5039370078740157
              },
              {
                "duration": 0.2083332500000008,
                "durationTicks": 60,
                "midi": 44,
                "name": "G#2",
                "ticks": 2760,
                "time": 9.5833295,
                "velocity": 0.5039370078740157
              },
              {
                "duration": 0.10416662499999951,
                "durationTicks": 30,
                "midi": 40,
                "name": "E2",
                "ticks": 2820,
                "time": 9.79166275,
                "velocity": 0.5039370078740157
              },
              {
                "duration": 0.10416662499999951,
                "durationTicks": 30,
                "midi": 39,
                "name": "D#2",
                "ticks": 2850,
                "time": 9.895829375,
                "velocity": 0.5039370078740157
              },
              {
                "duration": 0.41666649999999983,
                "durationTicks": 120,
                "midi": 40,
                "name": "E2",
                "ticks": 2880,
                "time": 9.999996,
                "velocity": 0.5039370078740157
              },
              {
                "duration": 0.41666649999999983,
                "durationTicks": 120,
                "midi": 49,
                "name": "C#3",
                "ticks": 3000,
                "time": 10.4166625,
                "velocity": 0.5039370078740157
              },
              {
                "duration": 0.4166665000000016,
                "durationTicks": 120,
                "midi": 52,
                "name": "E3",
                "ticks": 3120,
                "time": 10.833328999999999,
                "velocity": 0.5039370078740157
              },
              {
                "duration": 0.41666649999999983,
                "durationTicks": 120,
                "midi": 54,
                "name": "F#3",
                "ticks": 3240,
                "time": 11.2499955,
                "velocity": 0.5039370078740157
              },
              {
                "duration": 0.41666649999999983,
                "durationTicks": 120,
                "midi": 58,
                "name": "A#3",
                "ticks": 3360,
                "time": 11.666662,
                "velocity": 0.5039370078740157
              },
              {
                "duration": 0.41666649999999983,
                "durationTicks": 120,
                "midi": 61,
                "name": "C#4",
                "ticks": 3480,
                "time": 12.0833285,
                "velocity": 0.5039370078740157
              },
              {
                "duration": 0.41666649999999983,
                "durationTicks": 120,
                "midi": 39,
                "name": "D#2",
                "ticks": 3600,
                "time": 12.499995,
                "velocity": 0.5039370078740157
              },
              {
                "duration": 0.41666649999999983,
                "durationTicks": 120,
                "midi": 47,
                "name": "B2",
                "ticks": 3720,
                "time": 12.9166615,
                "velocity": 0.5039370078740157
              },
              {
                "duration": 0.41666649999999983,
                "durationTicks": 120,
                "midi": 51,
                "name": "D#3",
                "ticks": 3840,
                "time": 13.333328,
                "velocity": 0.5039370078740157
              },
              {
                "duration": 0.41666649999999983,
                "durationTicks": 120,
                "midi": 52,
                "name": "E3",
                "ticks": 3960,
                "time": 13.7499945,
                "velocity": 0.5039370078740157
              },
              {
                "duration": 0.41666649999999983,
                "durationTicks": 120,
                "midi": 56,
                "name": "G#3",
                "ticks": 4080,
                "time": 14.166661,
                "velocity": 0.5039370078740157
              },
              {
                "duration": 0.41666649999999983,
                "durationTicks": 120,
                "midi": 59,
                "name": "B3",
                "ticks": 4200,
                "time": 14.5833275,
                "velocity": 0.5039370078740157
              },
              {
                "duration": 0.41666649999999983,
                "durationTicks": 120,
                "midi": 37,
                "name": "C#2",
                "ticks": 4320,
                "time": 14.999994,
                "velocity": 0.5039370078740157
              },
              {
                "duration": 0.4166665000000016,
                "durationTicks": 120,
                "midi": 49,
                "name": "C#3",
                "ticks": 4440,
                "time": 15.416660499999999,
                "velocity": 0.5039370078740157
              },
              {
                "duration": 0.41666649999999805,
                "durationTicks": 120,
                "midi": 52,
                "name": "E3",
                "ticks": 4560,
                "time": 15.833327,
                "velocity": 0.5039370078740157
              },
              {
                "duration": 0.4166665000000016,
                "durationTicks": 120,
                "midi": 54,
                "name": "F#3",
                "ticks": 4680,
                "time": 16.2499935,
                "velocity": 0.5039370078740157
              },
              {
                "duration": 0.41666649999999805,
                "durationTicks": 120,
                "midi": 56,
                "name": "G#3",
                "ticks": 4800,
                "time": 16.66666,
                "velocity": 0.5039370078740157
              },
              {
                "duration": 0.4166665000000016,
                "durationTicks": 120,
                "midi": 58,
                "name": "A#3",
                "ticks": 4920,
                "time": 17.0833265,
                "velocity": 0.5039370078740157
              },
              {
                "duration": 0.4166665000000016,
                "durationTicks": 120,
                "midi": 59,
                "name": "B3",
                "ticks": 5040,
                "time": 17.499993,
                "velocity": 0.5039370078740157
              },
              {
                "duration": 0.41666649999999805,
                "durationTicks": 120,
                "midi": 52,
                "name": "E3",
                "ticks": 5160,
                "time": 17.9166595,
                "velocity": 0.5039370078740157
              },
              {
                "duration": 0.4166665000000016,
                "durationTicks": 120,
                "midi": 56,
                "name": "G#3",
                "ticks": 5280,
                "time": 18.333326,
                "velocity": 0.5039370078740157
              },
              {
                "duration": 0.20833324999999903,
                "durationTicks": 60,
                "midi": 54,
                "name": "F#3",
                "ticks": 5400,
                "time": 18.7499925,
                "velocity": 0.5039370078740157
              },
              {
                "duration": 0.20833324999999903,
                "durationTicks": 60,
                "midi": 61,
                "name": "C#4",
                "ticks": 5460,
                "time": 18.95832575,
                "velocity": 0.5039370078740157
              },
              {
                "duration": 0.20833324999999903,
                "durationTicks": 60,
                "midi": 58,
                "name": "A#3",
                "ticks": 5520,
                "time": 19.166659,
                "velocity": 0.5039370078740157
              },
              {
                "duration": 0.20833325000000258,
                "durationTicks": 60,
                "midi": 61,
                "name": "C#4",
                "ticks": 5580,
                "time": 19.37499225,
                "velocity": 0.5039370078740157
              },
              {
                "duration": 0.20833324999999903,
                "durationTicks": 60,
                "midi": 52,
                "name": "E3",
                "ticks": 5640,
                "time": 19.5833255,
                "velocity": 0.5039370078740157
              },
              {
                "duration": 0.20833324999999903,
                "durationTicks": 60,
                "midi": 61,
                "name": "C#4",
                "ticks": 5700,
                "time": 19.79165875,
                "velocity": 0.5039370078740157
              },
              {
                "duration": 0.4166665000000016,
                "durationTicks": 120,
                "midi": 51,
                "name": "D#3",
                "ticks": 5760,
                "time": 19.999992,
                "velocity": 0.5039370078740157
              },
              {
                "duration": 0.41666649999999805,
                "durationTicks": 120,
                "midi": 52,
                "name": "E3",
                "ticks": 5880,
                "time": 20.4166585,
                "velocity": 0.5039370078740157
              },
              {
                "duration": 0.4166665000000016,
                "durationTicks": 120,
                "midi": 54,
                "name": "F#3",
                "ticks": 6000,
                "time": 20.833325,
                "velocity": 0.5039370078740157
              },
              {
                "duration": 0.20833324999999903,
                "durationTicks": 60,
                "midi": 47,
                "name": "B2",
                "ticks": 6120,
                "time": 21.2499915,
                "velocity": 0.5039370078740157
              },
              {
                "duration": 0.10416662500000129,
                "durationTicks": 30,
                "midi": 59,
                "name": "B3",
                "ticks": 6180,
                "time": 21.45832475,
                "velocity": 0.5039370078740157
              },
              {
                "duration": 0.10416662499999774,
                "durationTicks": 30,
                "midi": 58,
                "name": "A#3",
                "ticks": 6210,
                "time": 21.562491375,
                "velocity": 0.5039370078740157
              },
              {
                "duration": 0.20833325000000258,
                "durationTicks": 60,
                "midi": 59,
                "name": "B3",
                "ticks": 6240,
                "time": 21.666657999999998,
                "velocity": 0.5039370078740157
              },
              {
                "duration": 0.10416662499999774,
                "durationTicks": 30,
                "midi": 54,
                "name": "F#3",
                "ticks": 6300,
                "time": 21.87499125,
                "velocity": 0.5039370078740157
              },
              {
                "duration": 0.10416662500000129,
                "durationTicks": 30,
                "midi": 52,
                "name": "E3",
                "ticks": 6330,
                "time": 21.979157875,
                "velocity": 0.5039370078740157
              },
              {
                "duration": 0.20833324999999903,
                "durationTicks": 60,
                "midi": 54,
                "name": "F#3",
                "ticks": 6360,
                "time": 22.0833245,
                "velocity": 0.5039370078740157
              },
              {
                "duration": 0.10416662500000129,
                "durationTicks": 30,
                "midi": 51,
                "name": "D#3",
                "ticks": 6420,
                "time": 22.29165775,
                "velocity": 0.5039370078740157
              },
              {
                "duration": 0.10416662500000129,
                "durationTicks": 30,
                "midi": 49,
                "name": "C#3",
                "ticks": 6450,
                "time": 22.395824375,
                "velocity": 0.5039370078740157
              },
              {
                "duration": 0.20833324999999903,
                "durationTicks": 60,
                "midi": 51,
                "name": "D#3",
                "ticks": 6480,
                "time": 22.499991,
                "velocity": 0.5039370078740157
              },
              {
                "duration": 0.10416662499999774,
                "durationTicks": 30,
                "midi": 54,
                "name": "F#3",
                "ticks": 6540,
                "time": 22.70832425,
                "velocity": 0.5039370078740157
              },
              {
                "duration": 0.10416662500000129,
                "durationTicks": 30,
                "midi": 52,
                "name": "E3",
                "ticks": 6570,
                "time": 22.812490874999998,
                "velocity": 0.5039370078740157
              },
              {
                "duration": 0.20833324999999903,
                "durationTicks": 60,
                "midi": 54,
                "name": "F#3",
                "ticks": 6600,
                "time": 22.9166575,
                "velocity": 0.5039370078740157
              },
              {
                "duration": 0.10416662500000129,
                "durationTicks": 30,
                "midi": 51,
                "name": "D#3",
                "ticks": 6660,
                "time": 23.12499075,
                "velocity": 0.5039370078740157
              },
              {
                "duration": 0.10416662500000129,
                "durationTicks": 30,
                "midi": 49,
                "name": "C#3",
                "ticks": 6690,
                "time": 23.229157375,
                "velocity": 0.5039370078740157
              },
              {
                "duration": 0.20833324999999903,
                "durationTicks": 60,
                "midi": 51,
                "name": "D#3",
                "ticks": 6720,
                "time": 23.333324,
                "velocity": 0.5039370078740157
              },
              {
                "duration": 0.10416662500000129,
                "durationTicks": 30,
                "midi": 47,
                "name": "B2",
                "ticks": 6780,
                "time": 23.54165725,
                "velocity": 0.5039370078740157
              },
              {
                "duration": 0.10416662499999774,
                "durationTicks": 30,
                "midi": 46,
                "name": "A#2",
                "ticks": 6810,
                "time": 23.645823875,
                "velocity": 0.5039370078740157
              },
              {
                "duration": 0.8333329999999997,
                "durationTicks": 240,
                "midi": 47,
                "name": "B2",
                "ticks": 6840,
                "time": 23.7499905,
                "velocity": 0.5039370078740157
              },
              {
                "duration": 0.4166665000000016,
                "durationTicks": 120,
                "midi": 35,
                "name": "B1",
                "ticks": 7080,
                "time": 24.5833235,
                "velocity": 0.5039370078740157
              },
              {
                "duration": 0.41666649999999805,
                "durationTicks": 120,
                "midi": 52,
                "name": "E3",
                "ticks": 7200,
                "time": 24.99999,
                "velocity": 0.5039370078740157
              },
              {
                "duration": 0.4166665000000016,
                "durationTicks": 120,
                "midi": 54,
                "name": "F#3",
                "ticks": 7320,
                "time": 25.4166565,
                "velocity": 0.5039370078740157
              },
              {
                "duration": 0.41666649999999805,
                "durationTicks": 120,
                "midi": 56,
                "name": "G#3",
                "ticks": 7440,
                "time": 25.833323,
                "velocity": 0.5039370078740157
              },
              {
                "duration": 0.4166665000000016,
                "durationTicks": 120,
                "midi": 57,
                "name": "A3",
                "ticks": 7560,
                "time": 26.249989499999998,
                "velocity": 0.5039370078740157
              },
              {
                "duration": 0.4166665000000016,
                "durationTicks": 120,
                "midi": 59,
                "name": "B3",
                "ticks": 7680,
                "time": 26.666656,
                "velocity": 0.5039370078740157
              },
              {
                "duration": 0.41666649999999805,
                "durationTicks": 120,
                "midi": 61,
                "name": "C#4",
                "ticks": 7800,
                "time": 27.0833225,
                "velocity": 0.5039370078740157
              },
              {
                "duration": 0.4166665000000016,
                "durationTicks": 120,
                "midi": 63,
                "name": "D#4",
                "ticks": 7920,
                "time": 27.499989,
                "velocity": 0.5039370078740157
              },
              {
                "duration": 0.20833324999999903,
                "durationTicks": 60,
                "midi": 64,
                "name": "E4",
                "ticks": 8040,
                "time": 27.9166555,
                "velocity": 0.5039370078740157
              },
              {
                "duration": 0.20833324999999903,
                "durationTicks": 60,
                "midi": 63,
                "name": "D#4",
                "ticks": 8100,
                "time": 28.12498875,
                "velocity": 0.5039370078740157
              },
              {
                "duration": 0.20833324999999903,
                "durationTicks": 60,
                "midi": 61,
                "name": "C#4",
                "ticks": 8160,
                "time": 28.333322,
                "velocity": 0.5039370078740157
              },
              {
                "duration": 0.20833325000000258,
                "durationTicks": 60,
                "midi": 59,
                "name": "B3",
                "ticks": 8220,
                "time": 28.541655249999998,
                "velocity": 0.5039370078740157
              },
              {
                "duration": 0.41666649999999805,
                "durationTicks": 120,
                "midi": 64,
                "name": "E4",
                "ticks": 8280,
                "time": 28.7499885,
                "velocity": 0.5039370078740157
              },
              {
                "duration": 0.4166665000000016,
                "durationTicks": 120,
                "midi": 52,
                "name": "E3",
                "ticks": 8400,
                "time": 29.166655,
                "velocity": 0.5039370078740157
              },
              {
                "duration": 0.41666649999999805,
                "durationTicks": 120,
                "midi": 52,
                "name": "E3",
                "ticks": 8700,
                "time": 30.20832125,
                "velocity": 0.5039370078740157
              },
              {
                "duration": 0.4166665000000016,
                "durationTicks": 120,
                "midi": 51,
                "name": "D#3",
                "ticks": 8820,
                "time": 30.62498775,
                "velocity": 0.5039370078740157
              },
              {
                "duration": 0.41666649999999805,
                "durationTicks": 120,
                "midi": 50,
                "name": "D3",
                "ticks": 8940,
                "time": 31.04165425,
                "velocity": 0.5039370078740157
              },
              {
                "duration": 0.4166665000000016,
                "durationTicks": 120,
                "midi": 49,
                "name": "C#3",
                "ticks": 9060,
                "time": 31.45832075,
                "velocity": 0.5039370078740157
              },
              {
                "duration": 0.4166665000000016,
                "durationTicks": 120,
                "midi": 47,
                "name": "B2",
                "ticks": 9180,
                "time": 31.87498725,
                "velocity": 0.5039370078740157
              },
              {
                "duration": 0.41666649999999805,
                "durationTicks": 120,
                "midi": 45,
                "name": "A2",
                "ticks": 9300,
                "time": 32.29165375,
                "velocity": 0.5039370078740157
              },
              {
                "duration": 0.41666649999999805,
                "durationTicks": 120,
                "midi": 44,
                "name": "G#2",
                "ticks": 9420,
                "time": 32.70832025,
                "velocity": 0.5039370078740157
              },
              {
                "duration": 0.41666650000000516,
                "durationTicks": 120,
                "midi": 42,
                "name": "F#2",
                "ticks": 9540,
                "time": 33.12498675,
                "velocity": 0.5039370078740157
              },
              {
                "duration": 0.10416662499999774,
                "durationTicks": 30,
                "midi": 44,
                "name": "G#2",
                "ticks": 9660,
                "time": 33.54165325,
                "velocity": 0.5039370078740157
              },
              {
                "duration": 0.10416662499999774,
                "durationTicks": 30,
                "midi": 45,
                "name": "A2",
                "ticks": 9690,
                "time": 33.645819875,
                "velocity": 0.5039370078740157
              },
              {
                "duration": 0.20833325000000258,
                "durationTicks": 60,
                "midi": 44,
                "name": "G#2",
                "ticks": 9720,
                "time": 33.7499865,
                "velocity": 0.5039370078740157
              },
              {
                "duration": 0.10416662499999774,
                "durationTicks": 30,
                "midi": 47,
                "name": "B2",
                "ticks": 9780,
                "time": 33.95831975,
                "velocity": 0.5039370078740157
              },
              {
                "duration": 0.10416662499999774,
                "durationTicks": 30,
                "midi": 45,
                "name": "A2",
                "ticks": 9810,
                "time": 34.062486375,
                "velocity": 0.5039370078740157
              },
              {
                "duration": 0.20833325000000258,
                "durationTicks": 60,
                "midi": 47,
                "name": "B2",
                "ticks": 9840,
                "time": 34.166653,
                "velocity": 0.5039370078740157
              },
              {
                "duration": 0.10416662499999774,
                "durationTicks": 30,
                "midi": 44,
                "name": "G#2",
                "ticks": 9900,
                "time": 34.37498625,
                "velocity": 0.5039370078740157
              },
              {
                "duration": 0.10416662500000484,
                "durationTicks": 30,
                "midi": 42,
                "name": "F#2",
                "ticks": 9930,
                "time": 34.479152875,
                "velocity": 0.5039370078740157
              },
              {
                "duration": 0.20833324999999547,
                "durationTicks": 60,
                "midi": 44,
                "name": "G#2",
                "ticks": 9960,
                "time": 34.5833195,
                "velocity": 0.5039370078740157
              },
              {
                "duration": 0.10416662500000484,
                "durationTicks": 30,
                "midi": 40,
                "name": "E2",
                "ticks": 10020,
                "time": 34.79165275,
                "velocity": 0.5039370078740157
              },
              {
                "duration": 0.10416662499999774,
                "durationTicks": 30,
                "midi": 39,
                "name": "D#2",
                "ticks": 10050,
                "time": 34.895819375,
                "velocity": 0.5039370078740157
              },
              {
                "duration": 0.41666649999999805,
                "durationTicks": 120,
                "midi": 40,
                "name": "E2",
                "ticks": 10080,
                "time": 34.999986,
                "velocity": 0.5039370078740157
              },
              {
                "duration": 0.41666650000000516,
                "durationTicks": 120,
                "midi": 49,
                "name": "C#3",
                "ticks": 10200,
                "time": 35.4166525,
                "velocity": 0.5039370078740157
              },
              {
                "duration": 0.41666649999999805,
                "durationTicks": 120,
                "midi": 52,
                "name": "E3",
                "ticks": 10320,
                "time": 35.833319,
                "velocity": 0.5039370078740157
              },
              {
                "duration": 0.41666649999999805,
                "durationTicks": 120,
                "midi": 54,
                "name": "F#3",
                "ticks": 10440,
                "time": 36.2499855,
                "velocity": 0.5039370078740157
              },
              {
                "duration": 0.41666649999999805,
                "durationTicks": 120,
                "midi": 58,
                "name": "A#3",
                "ticks": 10560,
                "time": 36.666652,
                "velocity": 0.5039370078740157
              },
              {
                "duration": 0.41666650000000516,
                "durationTicks": 120,
                "midi": 61,
                "name": "C#4",
                "ticks": 10680,
                "time": 37.0833185,
                "velocity": 0.5039370078740157
              },
              {
                "duration": 0.41666649999999805,
                "durationTicks": 120,
                "midi": 39,
                "name": "D#2",
                "ticks": 10800,
                "time": 37.499985,
                "velocity": 0.5039370078740157
              },
              {
                "duration": 0.41666649999999805,
                "durationTicks": 120,
                "midi": 47,
                "name": "B2",
                "ticks": 10920,
                "time": 37.9166515,
                "velocity": 0.5039370078740157
              },
              {
                "duration": 0.41666649999999805,
                "durationTicks": 120,
                "midi": 51,
                "name": "D#3",
                "ticks": 11040,
                "time": 38.333318,
                "velocity": 0.5039370078740157
              },
              {
                "duration": 0.41666650000000516,
                "durationTicks": 120,
                "midi": 52,
                "name": "E3",
                "ticks": 11160,
                "time": 38.7499845,
                "velocity": 0.5039370078740157
              },
              {
                "duration": 0.41666649999999805,
                "durationTicks": 120,
                "midi": 56,
                "name": "G#3",
                "ticks": 11280,
                "time": 39.166651,
                "velocity": 0.5039370078740157
              },
              {
                "duration": 0.41666649999999805,
                "durationTicks": 120,
                "midi": 59,
                "name": "B3",
                "ticks": 11400,
                "time": 39.5833175,
                "velocity": 0.5039370078740157
              },
              {
                "duration": 0.41666650000000516,
                "durationTicks": 120,
                "midi": 37,
                "name": "C#2",
                "ticks": 11520,
                "time": 39.999984,
                "velocity": 0.5039370078740157
              },
              {
                "duration": 0.41666649999999805,
                "durationTicks": 120,
                "midi": 49,
                "name": "C#3",
                "ticks": 11640,
                "time": 40.4166505,
                "velocity": 0.5039370078740157
              },
              {
                "duration": 0.41666649999999805,
                "durationTicks": 120,
                "midi": 52,
                "name": "E3",
                "ticks": 11760,
                "time": 40.833317,
                "velocity": 0.5039370078740157
              },
              {
                "duration": 0.41666649999999805,
                "durationTicks": 120,
                "midi": 54,
                "name": "F#3",
                "ticks": 11880,
                "time": 41.2499835,
                "velocity": 0.5039370078740157
              },
              {
                "duration": 0.41666650000000516,
                "durationTicks": 120,
                "midi": 56,
                "name": "G#3",
                "ticks": 12000,
                "time": 41.66665,
                "velocity": 0.5039370078740157
              },
              {
                "duration": 0.41666649999999805,
                "durationTicks": 120,
                "midi": 58,
                "name": "A#3",
                "ticks": 12120,
                "time": 42.0833165,
                "velocity": 0.5039370078740157
              },
              {
                "duration": 0.41666649999999805,
                "durationTicks": 120,
                "midi": 59,
                "name": "B3",
                "ticks": 12240,
                "time": 42.499983,
                "velocity": 0.5039370078740157
              },
              {
                "duration": 0.41666649999999805,
                "durationTicks": 120,
                "midi": 52,
                "name": "E3",
                "ticks": 12360,
                "time": 42.9166495,
                "velocity": 0.5039370078740157
              },
              {
                "duration": 0.41666650000000516,
                "durationTicks": 120,
                "midi": 56,
                "name": "G#3",
                "ticks": 12480,
                "time": 43.333315999999996,
                "velocity": 0.5039370078740157
              },
              {
                "duration": 0.20833324999999547,
                "durationTicks": 60,
                "midi": 54,
                "name": "F#3",
                "ticks": 12600,
                "time": 43.7499825,
                "velocity": 0.5039370078740157
              },
              {
                "duration": 0.20833325000000258,
                "durationTicks": 60,
                "midi": 61,
                "name": "C#4",
                "ticks": 12660,
                "time": 43.95831575,
                "velocity": 0.5039370078740157
              },
              {
                "duration": 0.20833325000000258,
                "durationTicks": 60,
                "midi": 58,
                "name": "A#3",
                "ticks": 12720,
                "time": 44.166649,
                "velocity": 0.5039370078740157
              },
              {
                "duration": 0.20833324999999547,
                "durationTicks": 60,
                "midi": 61,
                "name": "C#4",
                "ticks": 12780,
                "time": 44.37498225,
                "velocity": 0.5039370078740157
              },
              {
                "duration": 0.20833325000000258,
                "durationTicks": 60,
                "midi": 52,
                "name": "E3",
                "ticks": 12840,
                "time": 44.5833155,
                "velocity": 0.5039370078740157
              },
              {
                "duration": 0.20833325000000258,
                "durationTicks": 60,
                "midi": 61,
                "name": "C#4",
                "ticks": 12900,
                "time": 44.79164875,
                "velocity": 0.5039370078740157
              },
              {
                "duration": 0.41666649999999805,
                "durationTicks": 120,
                "midi": 51,
                "name": "D#3",
                "ticks": 12960,
                "time": 44.999982,
                "velocity": 0.5039370078740157
              },
              {
                "duration": 0.41666649999999805,
                "durationTicks": 120,
                "midi": 52,
                "name": "E3",
                "ticks": 13080,
                "time": 45.4166485,
                "velocity": 0.5039370078740157
              },
              {
                "duration": 0.41666649999999805,
                "durationTicks": 120,
                "midi": 54,
                "name": "F#3",
                "ticks": 13200,
                "time": 45.833315,
                "velocity": 0.5039370078740157
              },
              {
                "duration": 0.20833325000000258,
                "durationTicks": 60,
                "midi": 47,
                "name": "B2",
                "ticks": 13320,
                "time": 46.2499815,
                "velocity": 0.5039370078740157
              },
              {
                "duration": 0.10416662499999774,
                "durationTicks": 30,
                "midi": 59,
                "name": "B3",
                "ticks": 13380,
                "time": 46.45831475,
                "velocity": 0.5039370078740157
              },
              {
                "duration": 0.10416662500000484,
                "durationTicks": 30,
                "midi": 58,
                "name": "A#3",
                "ticks": 13410,
                "time": 46.562481375,
                "velocity": 0.5039370078740157
              },
              {
                "duration": 0.20833324999999547,
                "durationTicks": 60,
                "midi": 59,
                "name": "B3",
                "ticks": 13440,
                "time": 46.666648,
                "velocity": 0.5039370078740157
              },
              {
                "duration": 0.10416662500000484,
                "durationTicks": 30,
                "midi": 54,
                "name": "F#3",
                "ticks": 13500,
                "time": 46.87498125,
                "velocity": 0.5039370078740157
              },
              {
                "duration": 0.10416662499999774,
                "durationTicks": 30,
                "midi": 52,
                "name": "E3",
                "ticks": 13530,
                "time": 46.979147875,
                "velocity": 0.5039370078740157
              },
              {
                "duration": 0.20833325000000258,
                "durationTicks": 60,
                "midi": 54,
                "name": "F#3",
                "ticks": 13560,
                "time": 47.0833145,
                "velocity": 0.5039370078740157
              },
              {
                "duration": 0.10416662499999774,
                "durationTicks": 30,
                "midi": 51,
                "name": "D#3",
                "ticks": 13620,
                "time": 47.29164775,
                "velocity": 0.5039370078740157
              },
              {
                "duration": 0.10416662499999774,
                "durationTicks": 30,
                "midi": 49,
                "name": "C#3",
                "ticks": 13650,
                "time": 47.395814375,
                "velocity": 0.5039370078740157
              },
              {
                "duration": 0.20833325000000258,
                "durationTicks": 60,
                "midi": 51,
                "name": "D#3",
                "ticks": 13680,
                "time": 47.499981,
                "velocity": 0.5039370078740157
              },
              {
                "duration": 0.10416662499999774,
                "durationTicks": 30,
                "midi": 54,
                "name": "F#3",
                "ticks": 13740,
                "time": 47.70831425,
                "velocity": 0.5039370078740157
              },
              {
                "duration": 0.10416662499999774,
                "durationTicks": 30,
                "midi": 52,
                "name": "E3",
                "ticks": 13770,
                "time": 47.812480875,
                "velocity": 0.5039370078740157
              },
              {
                "duration": 0.20833325000000258,
                "durationTicks": 60,
                "midi": 54,
                "name": "F#3",
                "ticks": 13800,
                "time": 47.916647499999996,
                "velocity": 0.5039370078740157
              },
              {
                "duration": 0.10416662499999774,
                "durationTicks": 30,
                "midi": 51,
                "name": "D#3",
                "ticks": 13860,
                "time": 48.12498075,
                "velocity": 0.5039370078740157
              },
              {
                "duration": 0.10416662500000484,
                "durationTicks": 30,
                "midi": 49,
                "name": "C#3",
                "ticks": 13890,
                "time": 48.229147375,
                "velocity": 0.5039370078740157
              },
              {
                "duration": 0.20833324999999547,
                "durationTicks": 60,
                "midi": 51,
                "name": "D#3",
                "ticks": 13920,
                "time": 48.333314,
                "velocity": 0.5039370078740157
              },
              {
                "duration": 0.10416662500000484,
                "durationTicks": 30,
                "midi": 47,
                "name": "B2",
                "ticks": 13980,
                "time": 48.54164725,
                "velocity": 0.5039370078740157
              },
              {
                "duration": 0.10416662499999774,
                "durationTicks": 30,
                "midi": 46,
                "name": "A#2",
                "ticks": 14010,
                "time": 48.645813875,
                "velocity": 0.5039370078740157
              },
              {
                "duration": 0.8333330000000032,
                "durationTicks": 240,
                "midi": 47,
                "name": "B2",
                "ticks": 14040,
                "time": 48.7499805,
                "velocity": 0.5039370078740157
              },
              {
                "duration": 0.41666649999999805,
                "durationTicks": 120,
                "midi": 35,
                "name": "B1",
                "ticks": 14280,
                "time": 49.5833135,
                "velocity": 0.5039370078740157
              },
              {
                "duration": 0.41666650000000516,
                "durationTicks": 120,
                "midi": 59,
                "name": "B3",
                "ticks": 14460,
                "time": 50.208313249999996,
                "velocity": 0.5039370078740157
              },
              {
                "duration": 0.41666649999999805,
                "durationTicks": 120,
                "midi": 58,
                "name": "A#3",
                "ticks": 14580,
                "time": 50.62497975,
                "velocity": 0.5039370078740157
              },
              {
                "duration": 0.41666649999999805,
                "durationTicks": 120,
                "midi": 57,
                "name": "A3",
                "ticks": 14700,
                "time": 51.04164625,
                "velocity": 0.5039370078740157
              },
              {
                "duration": 0.41666650000000516,
                "durationTicks": 120,
                "midi": 56,
                "name": "G#3",
                "ticks": 14820,
                "time": 51.45831275,
                "velocity": 0.5039370078740157
              },
              {
                "duration": 0.41666649999999805,
                "durationTicks": 120,
                "midi": 54,
                "name": "F#3",
                "ticks": 14940,
                "time": 51.87497925,
                "velocity": 0.5039370078740157
              },
              {
                "duration": 0.41666649999999805,
                "durationTicks": 120,
                "midi": 52,
                "name": "E3",
                "ticks": 15060,
                "time": 52.29164575,
                "velocity": 0.5039370078740157
              },
              {
                "duration": 0.41666649999999805,
                "durationTicks": 120,
                "midi": 51,
                "name": "D#3",
                "ticks": 15180,
                "time": 52.70831225,
                "velocity": 0.5039370078740157
              },
              {
                "duration": 0.41666650000000516,
                "durationTicks": 120,
                "midi": 49,
                "name": "C#3",
                "ticks": 15300,
                "time": 53.12497875,
                "velocity": 0.5039370078740157
              },
              {
                "duration": 0.10416662499999774,
                "durationTicks": 30,
                "midi": 51,
                "name": "D#3",
                "ticks": 15420,
                "time": 53.54164525,
                "velocity": 0.5039370078740157
              },
              {
                "duration": 0.10416662499999774,
                "durationTicks": 30,
                "midi": 52,
                "name": "E3",
                "ticks": 15450,
                "time": 53.645811875,
                "velocity": 0.5039370078740157
              },
              {
                "duration": 0.20833325000000258,
                "durationTicks": 60,
                "midi": 51,
                "name": "D#3",
                "ticks": 15480,
                "time": 53.7499785,
                "velocity": 0.5039370078740157
              },
              {
                "duration": 0.10416662499999774,
                "durationTicks": 30,
                "midi": 54,
                "name": "F#3",
                "ticks": 15540,
                "time": 53.95831175,
                "velocity": 0.5039370078740157
              },
              {
                "duration": 0.10416662500000484,
                "durationTicks": 30,
                "midi": 52,
                "name": "E3",
                "ticks": 15570,
                "time": 54.062478375,
                "velocity": 0.5039370078740157
              },
              {
                "duration": 0.20833324999999547,
                "durationTicks": 60,
                "midi": 54,
                "name": "F#3",
                "ticks": 15600,
                "time": 54.166645,
                "velocity": 0.5039370078740157
              },
              {
                "duration": 0.10416662500000484,
                "durationTicks": 30,
                "midi": 51,
                "name": "D#3",
                "ticks": 15660,
                "time": 54.37497825,
                "velocity": 0.5039370078740157
              },
              {
                "duration": 0.10416662499999774,
                "durationTicks": 30,
                "midi": 49,
                "name": "C#3",
                "ticks": 15690,
                "time": 54.479144875,
                "velocity": 0.5039370078740157
              },
              {
                "duration": 0.20833324999999547,
                "durationTicks": 60,
                "midi": 51,
                "name": "D#3",
                "ticks": 15720,
                "time": 54.5833115,
                "velocity": 0.5039370078740157
              },
              {
                "duration": 0.10416662500000484,
                "durationTicks": 30,
                "midi": 47,
                "name": "B2",
                "ticks": 15780,
                "time": 54.791644749999996,
                "velocity": 0.5039370078740157
              },
              {
                "duration": 0.10416662499999774,
                "durationTicks": 30,
                "midi": 46,
                "name": "A#2",
                "ticks": 15810,
                "time": 54.895811375,
                "velocity": 0.5039370078740157
              },
              {
                "duration": 0.41666649999999805,
                "durationTicks": 120,
                "midi": 47,
                "name": "B2",
                "ticks": 15840,
                "time": 54.999978,
                "velocity": 0.5039370078740157
              },
              {
                "duration": 0.41666650000000516,
                "durationTicks": 120,
                "midi": 49,
                "name": "C#3",
                "ticks": 15960,
                "time": 55.4166445,
                "velocity": 0.5039370078740157
              },
              {
                "duration": 0.41666649999999805,
                "durationTicks": 120,
                "midi": 51,
                "name": "D#3",
                "ticks": 16080,
                "time": 55.833311,
                "velocity": 0.5039370078740157
              },
              {
                "duration": 0.41666649999999805,
                "durationTicks": 120,
                "midi": 52,
                "name": "E3",
                "ticks": 16200,
                "time": 56.2499775,
                "velocity": 0.5039370078740157
              },
              {
                "duration": 0.41666649999999805,
                "durationTicks": 120,
                "midi": 54,
                "name": "F#3",
                "ticks": 16320,
                "time": 56.666644,
                "velocity": 0.5039370078740157
              },
              {
                "duration": 0.41666650000000516,
                "durationTicks": 120,
                "midi": 56,
                "name": "G#3",
                "ticks": 16440,
                "time": 57.083310499999996,
                "velocity": 0.5039370078740157
              },
              {
                "duration": 0.41666649999999805,
                "durationTicks": 120,
                "midi": 58,
                "name": "A#3",
                "ticks": 16560,
                "time": 57.499977,
                "velocity": 0.5039370078740157
              },
              {
                "duration": 0.20833325000000258,
                "durationTicks": 60,
                "midi": 59,
                "name": "B3",
                "ticks": 16680,
                "time": 57.9166435,
                "velocity": 0.5039370078740157
              },
              {
                "duration": 0.20833324999999547,
                "durationTicks": 60,
                "midi": 58,
                "name": "A#3",
                "ticks": 16740,
                "time": 58.12497675,
                "velocity": 0.5039370078740157
              },
              {
                "duration": 0.20833325000000258,
                "durationTicks": 60,
                "midi": 56,
                "name": "G#3",
                "ticks": 16800,
                "time": 58.33331,
                "velocity": 0.5039370078740157
              },
              {
                "duration": 0.20833325000000258,
                "durationTicks": 60,
                "midi": 54,
                "name": "F#3",
                "ticks": 16860,
                "time": 58.54164325,
                "velocity": 0.5039370078740157
              },
              {
                "duration": 0.41666649999999805,
                "durationTicks": 120,
                "midi": 59,
                "name": "B3",
                "ticks": 16920,
                "time": 58.7499765,
                "velocity": 0.5039370078740157
              },
              {
                "duration": 0.41666649999999805,
                "durationTicks": 120,
                "midi": 47,
                "name": "B2",
                "ticks": 17040,
                "time": 59.166643,
                "velocity": 0.5039370078740157
              },
              {
                "duration": 0.41666650000000516,
                "durationTicks": 120,
                "midi": 56,
                "name": "G#3",
                "ticks": 17280,
                "time": 59.999976,
                "velocity": 0.5039370078740157
              },
              {
                "duration": 0.41666649999999805,
                "durationTicks": 120,
                "midi": 59,
                "name": "B3",
                "ticks": 17400,
                "time": 60.4166425,
                "velocity": 0.5039370078740157
              },
              {
                "duration": 0.41666649999999805,
                "durationTicks": 120,
                "midi": 63,
                "name": "D#4",
                "ticks": 17520,
                "time": 60.833309,
                "velocity": 0.5039370078740157
              },
              {
                "duration": 0.41666649999999805,
                "durationTicks": 120,
                "midi": 55,
                "name": "G3",
                "ticks": 17640,
                "time": 61.2499755,
                "velocity": 0.5039370078740157
              },
              {
                "duration": 0.41666650000000516,
                "durationTicks": 120,
                "midi": 58,
                "name": "A#3",
                "ticks": 17760,
                "time": 61.666641999999996,
                "velocity": 0.5039370078740157
              },
              {
                "duration": 0.41666649999999805,
                "durationTicks": 120,
                "midi": 63,
                "name": "D#4",
                "ticks": 17880,
                "time": 62.0833085,
                "velocity": 0.5039370078740157
              },
              {
                "duration": 0.41666649999999805,
                "durationTicks": 120,
                "midi": 56,
                "name": "G#3",
                "ticks": 18000,
                "time": 62.499975,
                "velocity": 0.5039370078740157
              },
              {
                "duration": 0.41666650000000516,
                "durationTicks": 120,
                "midi": 59,
                "name": "B3",
                "ticks": 18120,
                "time": 62.9166415,
                "velocity": 0.5039370078740157
              },
              {
                "duration": 0.41666649999999805,
                "durationTicks": 120,
                "midi": 63,
                "name": "D#4",
                "ticks": 18240,
                "time": 63.333308,
                "velocity": 0.5039370078740157
              },
              {
                "duration": 0.41666649999999805,
                "durationTicks": 120,
                "midi": 51,
                "name": "D#3",
                "ticks": 18360,
                "time": 63.7499745,
                "velocity": 0.5039370078740157
              },
              {
                "duration": 0.41666650000000516,
                "durationTicks": 120,
                "midi": 63,
                "name": "D#4",
                "ticks": 18480,
                "time": 64.166641,
                "velocity": 0.5039370078740157
              },
              {
                "duration": 0.41666649999999095,
                "durationTicks": 120,
                "midi": 61,
                "name": "C#4",
                "ticks": 18600,
                "time": 64.5833075,
                "velocity": 0.5039370078740157
              },
              {
                "duration": 0.41666650000000516,
                "durationTicks": 120,
                "midi": 60,
                "name": "C4",
                "ticks": 18720,
                "time": 64.999974,
                "velocity": 0.5039370078740157
              },
              {
                "duration": 0.41666650000000516,
                "durationTicks": 120,
                "midi": 61,
                "name": "C#4",
                "ticks": 18840,
                "time": 65.4166405,
                "velocity": 0.5039370078740157
              },
              {
                "duration": 0.41666649999999095,
                "durationTicks": 120,
                "midi": 63,
                "name": "D#4",
                "ticks": 18960,
                "time": 65.833307,
                "velocity": 0.5039370078740157
              },
              {
                "duration": 0.41666650000000516,
                "durationTicks": 120,
                "midi": 56,
                "name": "G#3",
                "ticks": 19080,
                "time": 66.2499735,
                "velocity": 0.5039370078740157
              },
              {
                "duration": 0.41666650000000516,
                "durationTicks": 120,
                "midi": 61,
                "name": "C#4",
                "ticks": 19200,
                "time": 66.66664,
                "velocity": 0.5039370078740157
              },
              {
                "duration": 0.41666649999999095,
                "durationTicks": 120,
                "midi": 59,
                "name": "B3",
                "ticks": 19320,
                "time": 67.0833065,
                "velocity": 0.5039370078740157
              },
              {
                "duration": 0.41666650000000516,
                "durationTicks": 120,
                "midi": 58,
                "name": "A#3",
                "ticks": 19440,
                "time": 67.499973,
                "velocity": 0.5039370078740157
              },
              {
                "duration": 0.41666649999999095,
                "durationTicks": 120,
                "midi": 59,
                "name": "B3",
                "ticks": 19560,
                "time": 67.9166395,
                "velocity": 0.5039370078740157
              },
              {
                "duration": 0.41666650000000516,
                "durationTicks": 120,
                "midi": 61,
                "name": "C#4",
                "ticks": 19680,
                "time": 68.333306,
                "velocity": 0.5039370078740157
              },
              {
                "duration": 0.41666650000000516,
                "durationTicks": 120,
                "midi": 54,
                "name": "F#3",
                "ticks": 19800,
                "time": 68.7499725,
                "velocity": 0.5039370078740157
              },
              {
                "duration": 0.41666649999999095,
                "durationTicks": 120,
                "midi": 59,
                "name": "B3",
                "ticks": 19920,
                "time": 69.166639,
                "velocity": 0.5039370078740157
              },
              {
                "duration": 0.41666650000000516,
                "durationTicks": 120,
                "midi": 63,
                "name": "D#4",
                "ticks": 20040,
                "time": 69.5833055,
                "velocity": 0.5039370078740157
              },
              {
                "duration": 0.41666650000000516,
                "durationTicks": 120,
                "midi": 55,
                "name": "G3",
                "ticks": 20160,
                "time": 69.999972,
                "velocity": 0.5039370078740157
              },
              {
                "duration": 0.41666649999999095,
                "durationTicks": 120,
                "midi": 56,
                "name": "G#3",
                "ticks": 20280,
                "time": 70.4166385,
                "velocity": 0.5039370078740157
              },
              {
                "duration": 0.41666650000000516,
                "durationTicks": 120,
                "midi": 58,
                "name": "A#3",
                "ticks": 20400,
                "time": 70.833305,
                "velocity": 0.5039370078740157
              },
              {
                "duration": 0.41666650000000516,
                "durationTicks": 120,
                "midi": 51,
                "name": "D#3",
                "ticks": 20520,
                "time": 71.2499715,
                "velocity": 0.5039370078740157
              },
              {
                "duration": 0.41666649999999095,
                "durationTicks": 120,
                "midi": 56,
                "name": "G#3",
                "ticks": 20640,
                "time": 71.666638,
                "velocity": 0.5039370078740157
              },
              {
                "duration": 0.41666650000000516,
                "durationTicks": 120,
                "midi": 59,
                "name": "B3",
                "ticks": 20760,
                "time": 72.0833045,
                "velocity": 0.5039370078740157
              },
              {
                "duration": 0.41666649999999095,
                "durationTicks": 120,
                "midi": 49,
                "name": "C#3",
                "ticks": 20880,
                "time": 72.499971,
                "velocity": 0.5039370078740157
              },
              {
                "duration": 0.8333329999999961,
                "durationTicks": 240,
                "midi": 61,
                "name": "C#4",
                "ticks": 21120,
                "time": 73.333304,
                "velocity": 0.5039370078740157
              },
              {
                "duration": 0.41666650000000516,
                "durationTicks": 120,
                "midi": 58,
                "name": "A#3",
                "ticks": 21360,
                "time": 74.166637,
                "velocity": 0.5039370078740157
              },
              {
                "duration": 0.41666650000000516,
                "durationTicks": 120,
                "midi": 55,
                "name": "G3",
                "ticks": 21480,
                "time": 74.5833035,
                "velocity": 0.5039370078740157
              },
              {
                "duration": 0.41666649999999095,
                "durationTicks": 120,
                "midi": 56,
                "name": "G#3",
                "ticks": 21600,
                "time": 74.99997,
                "velocity": 0.5039370078740157
              },
              {
                "duration": 0.41666650000000516,
                "durationTicks": 120,
                "midi": 49,
                "name": "C#3",
                "ticks": 21720,
                "time": 75.4166365,
                "velocity": 0.5039370078740157
              },
              {
                "duration": 0.41666650000000516,
                "durationTicks": 120,
                "midi": 51,
                "name": "D#3",
                "ticks": 21840,
                "time": 75.833303,
                "velocity": 0.5039370078740157
              },
              {
                "duration": 0.41666649999999095,
                "durationTicks": 120,
                "midi": 44,
                "name": "G#2",
                "ticks": 21960,
                "time": 76.2499695,
                "velocity": 0.5039370078740157
              },
              {
                "duration": 0.20833325000000968,
                "durationTicks": 60,
                "midi": 44,
                "name": "G#2",
                "ticks": 22140,
                "time": 76.87496924999999,
                "velocity": 0.5039370078740157
              },
              {
                "duration": 0.20833324999999547,
                "durationTicks": 60,
                "midi": 56,
                "name": "G#3",
                "ticks": 22200,
                "time": 77.0833025,
                "velocity": 0.5039370078740157
              },
              {
                "duration": 0.41666650000000516,
                "durationTicks": 120,
                "midi": 54,
                "name": "F#3",
                "ticks": 22260,
                "time": 77.29163575,
                "velocity": 0.5039370078740157
              },
              {
                "duration": 0.41666649999999095,
                "durationTicks": 120,
                "midi": 52,
                "name": "E3",
                "ticks": 22380,
                "time": 77.70830225,
                "velocity": 0.5039370078740157
              },
              {
                "duration": 0.41666650000000516,
                "durationTicks": 120,
                "midi": 51,
                "name": "D#3",
                "ticks": 22500,
                "time": 78.12496875,
                "velocity": 0.5039370078740157
              },
              {
                "duration": 0.41666650000000516,
                "durationTicks": 120,
                "midi": 50,
                "name": "D3",
                "ticks": 22620,
                "time": 78.54163525,
                "velocity": 0.5039370078740157
              },
              {
                "duration": 0.41666649999999095,
                "durationTicks": 120,
                "midi": 49,
                "name": "C#3",
                "ticks": 22740,
                "time": 78.95830175,
                "velocity": 0.5039370078740157
              },
              {
                "duration": 0.41666650000000516,
                "durationTicks": 120,
                "midi": 47,
                "name": "B2",
                "ticks": 22860,
                "time": 79.37496825,
                "velocity": 0.5039370078740157
              },
              {
                "duration": 0.41666650000000516,
                "durationTicks": 120,
                "midi": 45,
                "name": "A2",
                "ticks": 22980,
                "time": 79.79163475,
                "velocity": 0.5039370078740157
              },
              {
                "duration": 0.41666649999999095,
                "durationTicks": 120,
                "midi": 44,
                "name": "G#2",
                "ticks": 23100,
                "time": 80.20830125,
                "velocity": 0.5039370078740157
              },
              {
                "duration": 0.41666650000000516,
                "durationTicks": 120,
                "midi": 42,
                "name": "F#2",
                "ticks": 23220,
                "time": 80.62496775,
                "velocity": 0.5039370078740157
              },
              {
                "duration": 0.10416662500000484,
                "durationTicks": 30,
                "midi": 44,
                "name": "G#2",
                "ticks": 23340,
                "time": 81.04163425,
                "velocity": 0.5039370078740157
              },
              {
                "duration": 0.10416662499999063,
                "durationTicks": 30,
                "midi": 45,
                "name": "A2",
                "ticks": 23370,
                "time": 81.145800875,
                "velocity": 0.5039370078740157
              },
              {
                "duration": 0.20833324999999547,
                "durationTicks": 60,
                "midi": 44,
                "name": "G#2",
                "ticks": 23400,
                "time": 81.2499675,
                "velocity": 0.5039370078740157
              },
              {
                "duration": 0.10416662500000484,
                "durationTicks": 30,
                "midi": 47,
                "name": "B2",
                "ticks": 23460,
                "time": 81.45830074999999,
                "velocity": 0.5039370078740157
              },
              {
                "duration": 0.10416662500000484,
                "durationTicks": 30,
                "midi": 45,
                "name": "A2",
                "ticks": 23490,
                "time": 81.562467375,
                "velocity": 0.5039370078740157
              },
              {
                "duration": 0.20833324999999547,
                "durationTicks": 60,
                "midi": 47,
                "name": "B2",
                "ticks": 23520,
                "time": 81.666634,
                "velocity": 0.5039370078740157
              },
              {
                "duration": 0.10416662500000484,
                "durationTicks": 30,
                "midi": 44,
                "name": "G#2",
                "ticks": 23580,
                "time": 81.87496725,
                "velocity": 0.5039370078740157
              },
              {
                "duration": 0.10416662499999063,
                "durationTicks": 30,
                "midi": 42,
                "name": "F#2",
                "ticks": 23610,
                "time": 81.979133875,
                "velocity": 0.5039370078740157
              },
              {
                "duration": 0.20833325000000968,
                "durationTicks": 60,
                "midi": 44,
                "name": "G#2",
                "ticks": 23640,
                "time": 82.08330049999999,
                "velocity": 0.5039370078740157
              },
              {
                "duration": 0.10416662499999063,
                "durationTicks": 30,
                "midi": 40,
                "name": "E2",
                "ticks": 23700,
                "time": 82.29163375,
                "velocity": 0.5039370078740157
              },
              {
                "duration": 0.10416662500000484,
                "durationTicks": 30,
                "midi": 39,
                "name": "D#2",
                "ticks": 23730,
                "time": 82.395800375,
                "velocity": 0.5039370078740157
              },
              {
                "duration": 0.41666650000000516,
                "durationTicks": 120,
                "midi": 40,
                "name": "E2",
                "ticks": 23760,
                "time": 82.499967,
                "velocity": 0.5039370078740157
              },
              {
                "duration": 0.41666649999999095,
                "durationTicks": 120,
                "midi": 42,
                "name": "F#2",
                "ticks": 23880,
                "time": 82.9166335,
                "velocity": 0.5039370078740157
              },
              {
                "duration": 0.41666650000000516,
                "durationTicks": 120,
                "midi": 44,
                "name": "G#2",
                "ticks": 24000,
                "time": 83.3333,
                "velocity": 0.5039370078740157
              },
              {
                "duration": 0.41666650000000516,
                "durationTicks": 120,
                "midi": 45,
                "name": "A2",
                "ticks": 24120,
                "time": 83.7499665,
                "velocity": 0.5039370078740157
              },
              {
                "duration": 0.41666649999999095,
                "durationTicks": 120,
                "midi": 47,
                "name": "B2",
                "ticks": 24240,
                "time": 84.166633,
                "velocity": 0.5039370078740157
              },
              {
                "duration": 0.41666650000000516,
                "durationTicks": 120,
                "midi": 49,
                "name": "C#3",
                "ticks": 24360,
                "time": 84.5832995,
                "velocity": 0.5039370078740157
              },
              {
                "duration": 0.41666650000000516,
                "durationTicks": 120,
                "midi": 51,
                "name": "D#3",
                "ticks": 24480,
                "time": 84.999966,
                "velocity": 0.5039370078740157
              },
              {
                "duration": 0.20833324999999547,
                "durationTicks": 60,
                "midi": 52,
                "name": "E3",
                "ticks": 24600,
                "time": 85.4166325,
                "velocity": 0.5039370078740157
              },
              {
                "duration": 0.20833324999999547,
                "durationTicks": 60,
                "midi": 51,
                "name": "D#3",
                "ticks": 24660,
                "time": 85.62496575,
                "velocity": 0.5039370078740157
              },
              {
                "duration": 0.20833324999999547,
                "durationTicks": 60,
                "midi": 49,
                "name": "C#3",
                "ticks": 24720,
                "time": 85.833299,
                "velocity": 0.5039370078740157
              },
              {
                "duration": 0.20833325000000968,
                "durationTicks": 60,
                "midi": 47,
                "name": "B2",
                "ticks": 24780,
                "time": 86.04163224999999,
                "velocity": 0.5039370078740157
              },
              {
                "duration": 0.6249997500000006,
                "durationTicks": 180,
                "midi": 52,
                "name": "E3",
                "ticks": 24840,
                "time": 86.2499655,
                "velocity": 0.5039370078740157
              },
              {
                "duration": 0.10416662499999063,
                "durationTicks": 30,
                "midi": 59,
                "name": "B3",
                "ticks": 25020,
                "time": 86.87496525,
                "velocity": 0.5039370078740157
              },
              {
                "duration": 0.10416662500000484,
                "durationTicks": 30,
                "midi": 57,
                "name": "A3",
                "ticks": 25050,
                "time": 86.979131875,
                "velocity": 0.5039370078740157
              },
              {
                "duration": 0.20833324999999547,
                "durationTicks": 60,
                "midi": 59,
                "name": "B3",
                "ticks": 25080,
                "time": 87.0832985,
                "velocity": 0.5039370078740157
              },
              {
                "duration": 0.10416662500000484,
                "durationTicks": 30,
                "midi": 56,
                "name": "G#3",
                "ticks": 25140,
                "time": 87.29163175,
                "velocity": 0.5039370078740157
              },
              {
                "duration": 0.10416662500000484,
                "durationTicks": 30,
                "midi": 54,
                "name": "F#3",
                "ticks": 25170,
                "time": 87.395798375,
                "velocity": 0.5039370078740157
              },
              {
                "duration": 0.20833324999999547,
                "durationTicks": 60,
                "midi": 56,
                "name": "G#3",
                "ticks": 25200,
                "time": 87.499965,
                "velocity": 0.5039370078740157
              },
              {
                "duration": 0.41666650000000516,
                "durationTicks": 120,
                "midi": 61,
                "name": "C#4",
                "ticks": 25260,
                "time": 87.70829825,
                "velocity": 0.5039370078740157
              },
              {
                "duration": 0.41666649999999095,
                "durationTicks": 120,
                "midi": 57,
                "name": "A3",
                "ticks": 25380,
                "time": 88.12496475,
                "velocity": 0.5039370078740157
              },
              {
                "duration": 0.41666650000000516,
                "durationTicks": 120,
                "midi": 54,
                "name": "F#3",
                "ticks": 25500,
                "time": 88.54163125,
                "velocity": 0.5039370078740157
              },
              {
                "duration": 0.10416662500000484,
                "durationTicks": 30,
                "midi": 57,
                "name": "A3",
                "ticks": 25620,
                "time": 88.95829775,
                "velocity": 0.5039370078740157
              },
              {
                "duration": 0.10416662499999063,
                "durationTicks": 30,
                "midi": 56,
                "name": "G#3",
                "ticks": 25650,
                "time": 89.062464375,
                "velocity": 0.5039370078740157
              },
              {
                "duration": 0.20833325000000968,
                "durationTicks": 60,
                "midi": 57,
                "name": "A3",
                "ticks": 25680,
                "time": 89.166631,
                "velocity": 0.5039370078740157
              },
              {
                "duration": 0.20833324999999547,
                "durationTicks": 60,
                "midi": 54,
                "name": "F#3",
                "ticks": 25740,
                "time": 89.37496425,
                "velocity": 0.5039370078740157
              },
              {
                "duration": 0.20833324999999547,
                "durationTicks": 60,
                "midi": 51,
                "name": "D#3",
                "ticks": 25800,
                "time": 89.5832975,
                "velocity": 0.5039370078740157
              },
              {
                "duration": 0.41666650000000516,
                "durationTicks": 120,
                "midi": 47,
                "name": "B2",
                "ticks": 25860,
                "time": 89.79163075,
                "velocity": 0.5039370078740157
              },
              {
                "duration": 0.41666649999999095,
                "durationTicks": 120,
                "midi": 59,
                "name": "B3",
                "ticks": 25980,
                "time": 90.20829725,
                "velocity": 0.5039370078740157
              },
              {
                "duration": 0.41666650000000516,
                "durationTicks": 120,
                "midi": 56,
                "name": "G#3",
                "ticks": 26100,
                "time": 90.62496374999999,
                "velocity": 0.5039370078740157
              },
              {
                "duration": 0.41666650000000516,
                "durationTicks": 120,
                "midi": 52,
                "name": "E3",
                "ticks": 26220,
                "time": 91.04163025,
                "velocity": 0.5039370078740157
              },
              {
                "duration": 0.10416662499999063,
                "durationTicks": 30,
                "midi": 56,
                "name": "G#3",
                "ticks": 26340,
                "time": 91.45829675,
                "velocity": 0.5039370078740157
              },
              {
                "duration": 0.10416662500000484,
                "durationTicks": 30,
                "midi": 54,
                "name": "F#3",
                "ticks": 26370,
                "time": 91.562463375,
                "velocity": 0.5039370078740157
              },
              {
                "duration": 0.20833324999999547,
                "durationTicks": 60,
                "midi": 56,
                "name": "G#3",
                "ticks": 26400,
                "time": 91.66663,
                "velocity": 0.5039370078740157
              },
              {
                "duration": 0.20833325000000968,
                "durationTicks": 60,
                "midi": 52,
                "name": "E3",
                "ticks": 26460,
                "time": 91.87496325,
                "velocity": 0.5039370078740157
              },
              {
                "duration": 0.20833324999999547,
                "durationTicks": 60,
                "midi": 49,
                "name": "C#3",
                "ticks": 26520,
                "time": 92.0832965,
                "velocity": 0.5039370078740157
              },
              {
                "duration": 0.41666650000000516,
                "durationTicks": 120,
                "midi": 45,
                "name": "A2",
                "ticks": 26580,
                "time": 92.29162975,
                "velocity": 0.5039370078740157
              },
              {
                "duration": 0.41666649999999095,
                "durationTicks": 120,
                "midi": 57,
                "name": "A3",
                "ticks": 26700,
                "time": 92.70829625,
                "velocity": 0.5039370078740157
              },
              {
                "duration": 0.41666650000000516,
                "durationTicks": 120,
                "midi": 54,
                "name": "F#3",
                "ticks": 26820,
                "time": 93.12496275,
                "velocity": 0.5039370078740157
              },
              {
                "duration": 0.41666650000000516,
                "durationTicks": 120,
                "midi": 51,
                "name": "D#3",
                "ticks": 26940,
                "time": 93.54162925,
                "velocity": 0.5039370078740157
              },
              {
                "duration": 0.41666649999999095,
                "durationTicks": 120,
                "midi": 61,
                "name": "C#4",
                "ticks": 27060,
                "time": 93.95829575,
                "velocity": 0.5039370078740157
              },
              {
                "duration": 0.41666650000000516,
                "durationTicks": 120,
                "midi": 59,
                "name": "B3",
                "ticks": 27180,
                "time": 94.37496225,
                "velocity": 0.5039370078740157
              },
              {
                "duration": 0.41666649999999095,
                "durationTicks": 120,
                "midi": 57,
                "name": "A3",
                "ticks": 27300,
                "time": 94.79162875,
                "velocity": 0.5039370078740157
              },
              {
                "duration": 0.41666650000000516,
                "durationTicks": 120,
                "midi": 56,
                "name": "G#3",
                "ticks": 27420,
                "time": 95.20829524999999,
                "velocity": 0.5039370078740157
              },
              {
                "duration": 0.41666650000000516,
                "durationTicks": 120,
                "midi": 54,
                "name": "F#3",
                "ticks": 27540,
                "time": 95.62496175,
                "velocity": 0.5039370078740157
              },
              {
                "duration": 0.20833324999999547,
                "durationTicks": 60,
                "midi": 52,
                "name": "E3",
                "ticks": 27660,
                "time": 96.04162825,
                "velocity": 0.5039370078740157
              },
              {
                "duration": 0.20833324999999547,
                "durationTicks": 60,
                "midi": 51,
                "name": "D#3",
                "ticks": 27720,
                "time": 96.2499615,
                "velocity": 0.5039370078740157
              },
              {
                "duration": 0.10416662500000484,
                "durationTicks": 30,
                "midi": 57,
                "name": "A3",
                "ticks": 27780,
                "time": 96.45829475,
                "velocity": 0.5039370078740157
              },
              {
                "duration": 0.10416662500000484,
                "durationTicks": 30,
                "midi": 56,
                "name": "G#3",
                "ticks": 27810,
                "time": 96.562461375,
                "velocity": 0.5039370078740157
              },
              {
                "duration": 0.20833324999999547,
                "durationTicks": 60,
                "midi": 57,
                "name": "A3",
                "ticks": 27840,
                "time": 96.666628,
                "velocity": 0.5039370078740157
              },
              {
                "duration": 0.10416662500000484,
                "durationTicks": 30,
                "midi": 51,
                "name": "D#3",
                "ticks": 27900,
                "time": 96.87496125,
                "velocity": 0.5039370078740157
              },
              {
                "duration": 0.10416662499999063,
                "durationTicks": 30,
                "midi": 50,
                "name": "D3",
                "ticks": 27930,
                "time": 96.979127875,
                "velocity": 0.5039370078740157
              },
              {
                "duration": 0.20833325000000968,
                "durationTicks": 60,
                "midi": 51,
                "name": "D#3",
                "ticks": 27960,
                "time": 97.0832945,
                "velocity": 0.5039370078740157
              },
              {
                "duration": 0.10416662499999063,
                "durationTicks": 30,
                "midi": 56,
                "name": "G#3",
                "ticks": 28020,
                "time": 97.29162775,
                "velocity": 0.5039370078740157
              },
              {
                "duration": 0.10416662500000484,
                "durationTicks": 30,
                "midi": 54,
                "name": "F#3",
                "ticks": 28050,
                "time": 97.395794375,
                "velocity": 0.5039370078740157
              },
              {
                "duration": 0.41666650000000516,
                "durationTicks": 120,
                "midi": 56,
                "name": "G#3",
                "ticks": 28080,
                "time": 97.499961,
                "velocity": 0.5039370078740157
              },
              {
                "duration": 0.41666649999999095,
                "durationTicks": 120,
                "midi": 57,
                "name": "A3",
                "ticks": 28200,
                "time": 97.9166275,
                "velocity": 0.5039370078740157
              },
              {
                "duration": 0.41666650000000516,
                "durationTicks": 120,
                "midi": 59,
                "name": "B3",
                "ticks": 28320,
                "time": 98.333294,
                "velocity": 0.5039370078740157
              },
              {
                "duration": 0.41666650000000516,
                "durationTicks": 120,
                "midi": 52,
                "name": "E3",
                "ticks": 28440,
                "time": 98.7499605,
                "velocity": 0.5039370078740157
              },
              {
                "duration": 0.20833324999999547,
                "durationTicks": 60,
                "midi": 64,
                "name": "E4",
                "ticks": 28620,
                "time": 99.37496025,
                "velocity": 0.5039370078740157
              },
              {
                "duration": 0.20833324999999547,
                "durationTicks": 60,
                "midi": 59,
                "name": "B3",
                "ticks": 28680,
                "time": 99.5832935,
                "velocity": 0.5039370078740157
              },
              {
                "duration": 0.20833325000000968,
                "durationTicks": 60,
                "midi": 56,
                "name": "G#3",
                "ticks": 28740,
                "time": 99.79162674999999,
                "velocity": 0.5039370078740157
              },
              {
                "duration": 0.20833324999999547,
                "durationTicks": 60,
                "midi": 52,
                "name": "E3",
                "ticks": 28800,
                "time": 99.99996,
                "velocity": 0.5039370078740157
              },
              {
                "duration": 0.20833324999999547,
                "durationTicks": 60,
                "midi": 59,
                "name": "B3",
                "ticks": 28860,
                "time": 100.20829325,
                "velocity": 0.5039370078740157
              },
              {
                "duration": 0.20833325000000968,
                "durationTicks": 60,
                "midi": 56,
                "name": "G#3",
                "ticks": 28920,
                "time": 100.41662649999999,
                "velocity": 0.5039370078740157
              },
              {
                "duration": 0.20833324999999547,
                "durationTicks": 60,
                "midi": 52,
                "name": "E3",
                "ticks": 28980,
                "time": 100.62495975,
                "velocity": 0.5039370078740157
              },
              {
                "duration": 0.20833324999999547,
                "durationTicks": 60,
                "midi": 47,
                "name": "B2",
                "ticks": 29040,
                "time": 100.833293,
                "velocity": 0.5039370078740157
              },
              {
                "duration": 0.20833325000000968,
                "durationTicks": 60,
                "midi": 44,
                "name": "G#2",
                "ticks": 29100,
                "time": 101.04162625,
                "velocity": 0.5039370078740157
              },
              {
                "duration": 0.8333329999999961,
                "durationTicks": 240,
                "midi": 40,
                "name": "E2",
                "ticks": 29160,
                "time": 101.2499595,
                "velocity": 0.5039370078740157
              },
              {
                "duration": 0.41666650000000516,
                "durationTicks": 120,
                "midi": 52,
                "name": "E3",
                "ticks": 29400,
                "time": 102.0832925,
                "velocity": 0.5039370078740157
              },
              {
                "duration": 0.41666650000000516,
                "durationTicks": 120,
                "midi": 59,
                "name": "B3",
                "ticks": 29580,
                "time": 102.70829225,
                "velocity": 0.5039370078740157
              },
              {
                "duration": 0.41666649999999095,
                "durationTicks": 120,
                "midi": 58,
                "name": "A#3",
                "ticks": 29700,
                "time": 103.12495875,
                "velocity": 0.5039370078740157
              },
              {
                "duration": 0.41666650000000516,
                "durationTicks": 120,
                "midi": 57,
                "name": "A3",
                "ticks": 29820,
                "time": 103.54162525,
                "velocity": 0.5039370078740157
              },
              {
                "duration": 0.41666649999999095,
                "durationTicks": 120,
                "midi": 56,
                "name": "G#3",
                "ticks": 29940,
                "time": 103.95829175,
                "velocity": 0.5039370078740157
              },
              {
                "duration": 0.41666650000000516,
                "durationTicks": 120,
                "midi": 54,
                "name": "F#3",
                "ticks": 30060,
                "time": 104.37495824999999,
                "velocity": 0.5039370078740157
              },
              {
                "duration": 0.41666650000000516,
                "durationTicks": 120,
                "midi": 52,
                "name": "E3",
                "ticks": 30180,
                "time": 104.79162475,
                "velocity": 0.5039370078740157
              },
              {
                "duration": 0.41666649999999095,
                "durationTicks": 120,
                "midi": 51,
                "name": "D#3",
                "ticks": 30300,
                "time": 105.20829125,
                "velocity": 0.5039370078740157
              },
              {
                "duration": 0.41666650000000516,
                "durationTicks": 120,
                "midi": 49,
                "name": "C#3",
                "ticks": 30420,
                "time": 105.62495775,
                "velocity": 0.5039370078740157
              },
              {
                "duration": 0.10416662500000484,
                "durationTicks": 30,
                "midi": 51,
                "name": "D#3",
                "ticks": 30540,
                "time": 106.04162425,
                "velocity": 0.5039370078740157
              },
              {
                "duration": 0.10416662499999063,
                "durationTicks": 30,
                "midi": 52,
                "name": "E3",
                "ticks": 30570,
                "time": 106.145790875,
                "velocity": 0.5039370078740157
              },
              {
                "duration": 0.20833325000000968,
                "durationTicks": 60,
                "midi": 51,
                "name": "D#3",
                "ticks": 30600,
                "time": 106.2499575,
                "velocity": 0.5039370078740157
              },
              {
                "duration": 0.10416662499999063,
                "durationTicks": 30,
                "midi": 54,
                "name": "F#3",
                "ticks": 30660,
                "time": 106.45829075,
                "velocity": 0.5039370078740157
              },
              {
                "duration": 0.10416662500000484,
                "durationTicks": 30,
                "midi": 52,
                "name": "E3",
                "ticks": 30690,
                "time": 106.562457375,
                "velocity": 0.5039370078740157
              },
              {
                "duration": 0.20833324999999547,
                "durationTicks": 60,
                "midi": 54,
                "name": "F#3",
                "ticks": 30720,
                "time": 106.666624,
                "velocity": 0.5039370078740157
              },
              {
                "duration": 0.10416662500000484,
                "durationTicks": 30,
                "midi": 51,
                "name": "D#3",
                "ticks": 30780,
                "time": 106.87495725,
                "velocity": 0.5039370078740157
              },
              {
                "duration": 0.10416662500000484,
                "durationTicks": 30,
                "midi": 49,
                "name": "C#3",
                "ticks": 30810,
                "time": 106.979123875,
                "velocity": 0.5039370078740157
              },
              {
                "duration": 0.20833324999999547,
                "durationTicks": 60,
                "midi": 51,
                "name": "D#3",
                "ticks": 30840,
                "time": 107.0832905,
                "velocity": 0.5039370078740157
              },
              {
                "duration": 0.10416662500000484,
                "durationTicks": 30,
                "midi": 47,
                "name": "B2",
                "ticks": 30900,
                "time": 107.29162375,
                "velocity": 0.5039370078740157
              },
              {
                "duration": 0.10416662499999063,
                "durationTicks": 30,
                "midi": 46,
                "name": "A#2",
                "ticks": 30930,
                "time": 107.395790375,
                "velocity": 0.5039370078740157
              },
              {
                "duration": 0.41666650000000516,
                "durationTicks": 120,
                "midi": 47,
                "name": "B2",
                "ticks": 30960,
                "time": 107.499957,
                "velocity": 0.5039370078740157
              },
              {
                "duration": 0.41666650000000516,
                "durationTicks": 120,
                "midi": 49,
                "name": "C#3",
                "ticks": 31080,
                "time": 107.9166235,
                "velocity": 0.5039370078740157
              },
              {
                "duration": 0.41666649999999095,
                "durationTicks": 120,
                "midi": 51,
                "name": "D#3",
                "ticks": 31200,
                "time": 108.33329,
                "velocity": 0.5039370078740157
              },
              {
                "duration": 0.41666650000000516,
                "durationTicks": 120,
                "midi": 52,
                "name": "E3",
                "ticks": 31320,
                "time": 108.7499565,
                "velocity": 0.5039370078740157
              },
              {
                "duration": 0.41666649999999095,
                "durationTicks": 120,
                "midi": 54,
                "name": "F#3",
                "ticks": 31440,
                "time": 109.166623,
                "velocity": 0.5039370078740157
              },
              {
                "duration": 0.41666650000000516,
                "durationTicks": 120,
                "midi": 56,
                "name": "G#3",
                "ticks": 31560,
                "time": 109.58328949999999,
                "velocity": 0.5039370078740157
              },
              {
                "duration": 0.41666650000000516,
                "durationTicks": 120,
                "midi": 58,
                "name": "A#3",
                "ticks": 31680,
                "time": 109.999956,
                "velocity": 0.5039370078740157
              },
              {
                "duration": 0.20833324999999547,
                "durationTicks": 60,
                "midi": 59,
                "name": "B3",
                "ticks": 31800,
                "time": 110.4166225,
                "velocity": 0.5039370078740157
              },
              {
                "duration": 0.20833324999999547,
                "durationTicks": 60,
                "midi": 58,
                "name": "A#3",
                "ticks": 31860,
                "time": 110.62495575,
                "velocity": 0.5039370078740157
              },
              {
                "duration": 0.20833325000000968,
                "durationTicks": 60,
                "midi": 56,
                "name": "G#3",
                "ticks": 31920,
                "time": 110.833289,
                "velocity": 0.5039370078740157
              },
              {
                "duration": 0.20833324999999547,
                "durationTicks": 60,
                "midi": 54,
                "name": "F#3",
                "ticks": 31980,
                "time": 111.04162225,
                "velocity": 0.5039370078740157
              },
              {
                "duration": 0.41666650000000516,
                "durationTicks": 120,
                "midi": 59,
                "name": "B3",
                "ticks": 32040,
                "time": 111.2499555,
                "velocity": 0.5039370078740157
              },
              {
                "duration": 0.41666649999999095,
                "durationTicks": 120,
                "midi": 47,
                "name": "B2",
                "ticks": 32160,
                "time": 111.666622,
                "velocity": 0.5039370078740157
              },
              {
                "duration": 0.41666650000000516,
                "durationTicks": 120,
                "midi": 56,
                "name": "G#3",
                "ticks": 32400,
                "time": 112.499955,
                "velocity": 0.5039370078740157
              },
              {
                "duration": 0.41666649999999095,
                "durationTicks": 120,
                "midi": 59,
                "name": "B3",
                "ticks": 32520,
                "time": 112.9166215,
                "velocity": 0.5039370078740157
              },
              {
                "duration": 0.41666650000000516,
                "durationTicks": 120,
                "midi": 63,
                "name": "D#4",
                "ticks": 32640,
                "time": 113.333288,
                "velocity": 0.5039370078740157
              },
              {
                "duration": 0.41666649999999095,
                "durationTicks": 120,
                "midi": 55,
                "name": "G3",
                "ticks": 32760,
                "time": 113.7499545,
                "velocity": 0.5039370078740157
              },
              {
                "duration": 0.41666650000000516,
                "durationTicks": 120,
                "midi": 58,
                "name": "A#3",
                "ticks": 32880,
                "time": 114.16662099999999,
                "velocity": 0.5039370078740157
              },
              {
                "duration": 0.41666650000000516,
                "durationTicks": 120,
                "midi": 63,
                "name": "D#4",
                "ticks": 33000,
                "time": 114.5832875,
                "velocity": 0.5039370078740157
              },
              {
                "duration": 0.41666649999999095,
                "durationTicks": 120,
                "midi": 56,
                "name": "G#3",
                "ticks": 33120,
                "time": 114.999954,
                "velocity": 0.5039370078740157
              },
              {
                "duration": 0.41666650000000516,
                "durationTicks": 120,
                "midi": 59,
                "name": "B3",
                "ticks": 33240,
                "time": 115.4166205,
                "velocity": 0.5039370078740157
              },
              {
                "duration": 0.41666650000000516,
                "durationTicks": 120,
                "midi": 63,
                "name": "D#4",
                "ticks": 33360,
                "time": 115.833287,
                "velocity": 0.5039370078740157
              },
              {
                "duration": 0.41666649999999095,
                "durationTicks": 120,
                "midi": 51,
                "name": "D#3",
                "ticks": 33480,
                "time": 116.2499535,
                "velocity": 0.5039370078740157
              },
              {
                "duration": 0.41666650000000516,
                "durationTicks": 120,
                "midi": 63,
                "name": "D#4",
                "ticks": 33600,
                "time": 116.66662,
                "velocity": 0.5039370078740157
              },
              {
                "duration": 0.41666650000000516,
                "durationTicks": 120,
                "midi": 61,
                "name": "C#4",
                "ticks": 33720,
                "time": 117.0832865,
                "velocity": 0.5039370078740157
              },
              {
                "duration": 0.41666649999999095,
                "durationTicks": 120,
                "midi": 60,
                "name": "C4",
                "ticks": 33840,
                "time": 117.499953,
                "velocity": 0.5039370078740157
              },
              {
                "duration": 0.41666650000000516,
                "durationTicks": 120,
                "midi": 61,
                "name": "C#4",
                "ticks": 33960,
                "time": 117.9166195,
                "velocity": 0.5039370078740157
              },
              {
                "duration": 0.41666649999999095,
                "durationTicks": 120,
                "midi": 63,
                "name": "D#4",
                "ticks": 34080,
                "time": 118.333286,
                "velocity": 0.5039370078740157
              },
              {
                "duration": 0.41666650000000516,
                "durationTicks": 120,
                "midi": 56,
                "name": "G#3",
                "ticks": 34200,
                "time": 118.74995249999999,
                "velocity": 0.5039370078740157
              },
              {
                "duration": 0.41666650000000516,
                "durationTicks": 120,
                "midi": 61,
                "name": "C#4",
                "ticks": 34320,
                "time": 119.166619,
                "velocity": 0.5039370078740157
              },
              {
                "duration": 0.41666649999999095,
                "durationTicks": 120,
                "midi": 59,
                "name": "B3",
                "ticks": 34440,
                "time": 119.5832855,
                "velocity": 0.5039370078740157
              },
              {
                "duration": 0.41666650000000516,
                "durationTicks": 120,
                "midi": 58,
                "name": "A#3",
                "ticks": 34560,
                "time": 119.999952,
                "velocity": 0.5039370078740157
              },
              {
                "duration": 0.41666650000000516,
                "durationTicks": 120,
                "midi": 59,
                "name": "B3",
                "ticks": 34680,
                "time": 120.4166185,
                "velocity": 0.5039370078740157
              },
              {
                "duration": 0.41666649999999095,
                "durationTicks": 120,
                "midi": 61,
                "name": "C#4",
                "ticks": 34800,
                "time": 120.833285,
                "velocity": 0.5039370078740157
              },
              {
                "duration": 0.41666650000000516,
                "durationTicks": 120,
                "midi": 54,
                "name": "F#3",
                "ticks": 34920,
                "time": 121.2499515,
                "velocity": 0.5039370078740157
              },
              {
                "duration": 0.41666650000000516,
                "durationTicks": 120,
                "midi": 59,
                "name": "B3",
                "ticks": 35040,
                "time": 121.666618,
                "velocity": 0.5039370078740157
              },
              {
                "duration": 0.41666649999999095,
                "durationTicks": 120,
                "midi": 63,
                "name": "D#4",
                "ticks": 35160,
                "time": 122.0832845,
                "velocity": 0.5039370078740157
              },
              {
                "duration": 0.41666650000000516,
                "durationTicks": 120,
                "midi": 55,
                "name": "G3",
                "ticks": 35280,
                "time": 122.499951,
                "velocity": 0.5039370078740157
              },
              {
                "duration": 0.41666649999999095,
                "durationTicks": 120,
                "midi": 56,
                "name": "G#3",
                "ticks": 35400,
                "time": 122.9166175,
                "velocity": 0.5039370078740157
              },
              {
                "duration": 0.41666650000000516,
                "durationTicks": 120,
                "midi": 58,
                "name": "A#3",
                "ticks": 35520,
                "time": 123.33328399999999,
                "velocity": 0.5039370078740157
              },
              {
                "duration": 0.41666650000000516,
                "durationTicks": 120,
                "midi": 51,
                "name": "D#3",
                "ticks": 35640,
                "time": 123.7499505,
                "velocity": 0.5039370078740157
              },
              {
                "duration": 0.41666649999999095,
                "durationTicks": 120,
                "midi": 56,
                "name": "G#3",
                "ticks": 35760,
                "time": 124.166617,
                "velocity": 0.5039370078740157
              },
              {
                "duration": 0.41666650000000516,
                "durationTicks": 120,
                "midi": 59,
                "name": "B3",
                "ticks": 35880,
                "time": 124.5832835,
                "velocity": 0.5039370078740157
              },
              {
                "duration": 0.41666650000000516,
                "durationTicks": 120,
                "midi": 49,
                "name": "C#3",
                "ticks": 36000,
                "time": 124.99995,
                "velocity": 0.5039370078740157
              },
              {
                "duration": 0.8333330000000103,
                "durationTicks": 240,
                "midi": 61,
                "name": "C#4",
                "ticks": 36240,
                "time": 125.833283,
                "velocity": 0.5039370078740157
              },
              {
                "duration": 0.41666649999999095,
                "durationTicks": 120,
                "midi": 58,
                "name": "A#3",
                "ticks": 36480,
                "time": 126.666616,
                "velocity": 0.5039370078740157
              },
              {
                "duration": 0.41666650000000516,
                "durationTicks": 120,
                "midi": 55,
                "name": "G3",
                "ticks": 36600,
                "time": 127.0832825,
                "velocity": 0.5039370078740157
              },
              {
                "duration": 0.41666649999999095,
                "durationTicks": 120,
                "midi": 56,
                "name": "G#3",
                "ticks": 36720,
                "time": 127.499949,
                "velocity": 0.5039370078740157
              },
              {
                "duration": 0.41666650000000516,
                "durationTicks": 120,
                "midi": 49,
                "name": "C#3",
                "ticks": 36840,
                "time": 127.91661549999999,
                "velocity": 0.5039370078740157
              },
              {
                "duration": 0.41666649999999095,
                "durationTicks": 120,
                "midi": 51,
                "name": "D#3",
                "ticks": 36960,
                "time": 128.333282,
                "velocity": 0.5039370078740157
              },
              {
                "duration": 0.41666650000001937,
                "durationTicks": 120,
                "midi": 44,
                "name": "G#2",
                "ticks": 37080,
                "time": 128.7499485,
                "velocity": 0.5039370078740157
              },
              {
                "duration": 0.20833325000000968,
                "durationTicks": 60,
                "midi": 44,
                "name": "G#2",
                "ticks": 37260,
                "time": 129.37494825,
                "velocity": 0.5039370078740157
              },
              {
                "duration": 0.20833325000000968,
                "durationTicks": 60,
                "midi": 56,
                "name": "G#3",
                "ticks": 37320,
                "time": 129.5832815,
                "velocity": 0.5039370078740157
              },
              {
                "duration": 0.41666649999999095,
                "durationTicks": 120,
                "midi": 54,
                "name": "F#3",
                "ticks": 37380,
                "time": 129.79161475,
                "velocity": 0.5039370078740157
              },
              {
                "duration": 0.41666649999999095,
                "durationTicks": 120,
                "midi": 52,
                "name": "E3",
                "ticks": 37500,
                "time": 130.20828125,
                "velocity": 0.5039370078740157
              },
              {
                "duration": 0.41666650000001937,
                "durationTicks": 120,
                "midi": 51,
                "name": "D#3",
                "ticks": 37620,
                "time": 130.62494775,
                "velocity": 0.5039370078740157
              },
              {
                "duration": 0.41666649999999095,
                "durationTicks": 120,
                "midi": 50,
                "name": "D3",
                "ticks": 37740,
                "time": 131.04161425,
                "velocity": 0.5039370078740157
              },
              {
                "duration": 0.41666649999999095,
                "durationTicks": 120,
                "midi": 49,
                "name": "C#3",
                "ticks": 37860,
                "time": 131.45828075,
                "velocity": 0.5039370078740157
              },
              {
                "duration": 0.41666650000001937,
                "durationTicks": 120,
                "midi": 47,
                "name": "B2",
                "ticks": 37980,
                "time": 131.87494725,
                "velocity": 0.5039370078740157
              },
              {
                "duration": 0.41666649999999095,
                "durationTicks": 120,
                "midi": 45,
                "name": "A2",
                "ticks": 38100,
                "time": 132.29161375,
                "velocity": 0.5039370078740157
              },
              {
                "duration": 0.41666649999999095,
                "durationTicks": 120,
                "midi": 44,
                "name": "G#2",
                "ticks": 38220,
                "time": 132.70828025,
                "velocity": 0.5039370078740157
              },
              {
                "duration": 0.41666650000001937,
                "durationTicks": 120,
                "midi": 42,
                "name": "F#2",
                "ticks": 38340,
                "time": 133.12494675,
                "velocity": 0.5039370078740157
              },
              {
                "duration": 0.10416662499997642,
                "durationTicks": 30,
                "midi": 44,
                "name": "G#2",
                "ticks": 38460,
                "time": 133.54161325,
                "velocity": 0.5039370078740157
              },
              {
                "duration": 0.10416662500000484,
                "durationTicks": 30,
                "midi": 45,
                "name": "A2",
                "ticks": 38490,
                "time": 133.645779875,
                "velocity": 0.5039370078740157
              },
              {
                "duration": 0.20833325000000968,
                "durationTicks": 60,
                "midi": 44,
                "name": "G#2",
                "ticks": 38520,
                "time": 133.7499465,
                "velocity": 0.5039370078740157
              },
              {
                "duration": 0.10416662500000484,
                "durationTicks": 30,
                "midi": 47,
                "name": "B2",
                "ticks": 38580,
                "time": 133.95827975,
                "velocity": 0.5039370078740157
              },
              {
                "duration": 0.10416662500000484,
                "durationTicks": 30,
                "midi": 45,
                "name": "A2",
                "ticks": 38610,
                "time": 134.062446375,
                "velocity": 0.5039370078740157
              },
              {
                "duration": 0.20833324999998126,
                "durationTicks": 60,
                "midi": 47,
                "name": "B2",
                "ticks": 38640,
                "time": 134.166613,
                "velocity": 0.5039370078740157
              },
              {
                "duration": 0.10416662500000484,
                "durationTicks": 30,
                "midi": 44,
                "name": "G#2",
                "ticks": 38700,
                "time": 134.37494625,
                "velocity": 0.5039370078740157
              },
              {
                "duration": 0.10416662500000484,
                "durationTicks": 30,
                "midi": 42,
                "name": "F#2",
                "ticks": 38730,
                "time": 134.479112875,
                "velocity": 0.5039370078740157
              },
              {
                "duration": 0.20833324999998126,
                "durationTicks": 60,
                "midi": 44,
                "name": "G#2",
                "ticks": 38760,
                "time": 134.5832795,
                "velocity": 0.5039370078740157
              },
              {
                "duration": 0.10416662500000484,
                "durationTicks": 30,
                "midi": 40,
                "name": "E2",
                "ticks": 38820,
                "time": 134.79161274999998,
                "velocity": 0.5039370078740157
              },
              {
                "duration": 0.10416662500000484,
                "durationTicks": 30,
                "midi": 39,
                "name": "D#2",
                "ticks": 38850,
                "time": 134.895779375,
                "velocity": 0.5039370078740157
              },
              {
                "duration": 0.41666649999999095,
                "durationTicks": 120,
                "midi": 40,
                "name": "E2",
                "ticks": 38880,
                "time": 134.999946,
                "velocity": 0.5039370078740157
              },
              {
                "duration": 0.41666650000001937,
                "durationTicks": 120,
                "midi": 42,
                "name": "F#2",
                "ticks": 39000,
                "time": 135.41661249999999,
                "velocity": 0.5039370078740157
              },
              {
                "duration": 0.41666649999999095,
                "durationTicks": 120,
                "midi": 44,
                "name": "G#2",
                "ticks": 39120,
                "time": 135.833279,
                "velocity": 0.5039370078740157
              },
              {
                "duration": 0.41666649999999095,
                "durationTicks": 120,
                "midi": 45,
                "name": "A2",
                "ticks": 39240,
                "time": 136.2499455,
                "velocity": 0.5039370078740157
              },
              {
                "duration": 0.41666650000001937,
                "durationTicks": 120,
                "midi": 47,
                "name": "B2",
                "ticks": 39360,
                "time": 136.666612,
                "velocity": 0.5039370078740157
              },
              {
                "duration": 0.41666649999999095,
                "durationTicks": 120,
                "midi": 49,
                "name": "C#3",
                "ticks": 39480,
                "time": 137.0832785,
                "velocity": 0.5039370078740157
              },
              {
                "duration": 0.41666649999999095,
                "durationTicks": 120,
                "midi": 51,
                "name": "D#3",
                "ticks": 39600,
                "time": 137.499945,
                "velocity": 0.5039370078740157
              },
              {
                "duration": 0.20833325000000968,
                "durationTicks": 60,
                "midi": 52,
                "name": "E3",
                "ticks": 39720,
                "time": 137.9166115,
                "velocity": 0.5039370078740157
              },
              {
                "duration": 0.20833325000000968,
                "durationTicks": 60,
                "midi": 51,
                "name": "D#3",
                "ticks": 39780,
                "time": 138.12494475,
                "velocity": 0.5039370078740157
              },
              {
                "duration": 0.20833324999998126,
                "durationTicks": 60,
                "midi": 49,
                "name": "C#3",
                "ticks": 39840,
                "time": 138.333278,
                "velocity": 0.5039370078740157
              },
              {
                "duration": 0.20833325000000968,
                "durationTicks": 60,
                "midi": 47,
                "name": "B2",
                "ticks": 39900,
                "time": 138.54161125,
                "velocity": 0.5039370078740157
              },
              {
                "duration": 0.6249997500000006,
                "durationTicks": 180,
                "midi": 52,
                "name": "E3",
                "ticks": 39960,
                "time": 138.7499445,
                "velocity": 0.5039370078740157
              },
              {
                "duration": 0.10416662500000484,
                "durationTicks": 30,
                "midi": 59,
                "name": "B3",
                "ticks": 40140,
                "time": 139.37494425,
                "velocity": 0.5039370078740157
              },
              {
                "duration": 0.10416662500000484,
                "durationTicks": 30,
                "midi": 57,
                "name": "A3",
                "ticks": 40170,
                "time": 139.479110875,
                "velocity": 0.5039370078740157
              },
              {
                "duration": 0.20833324999998126,
                "durationTicks": 60,
                "midi": 59,
                "name": "B3",
                "ticks": 40200,
                "time": 139.5832775,
                "velocity": 0.5039370078740157
              },
              {
                "duration": 0.10416662500000484,
                "durationTicks": 30,
                "midi": 56,
                "name": "G#3",
                "ticks": 40260,
                "time": 139.79161075,
                "velocity": 0.5039370078740157
              },
              {
                "duration": 0.10416662500000484,
                "durationTicks": 30,
                "midi": 54,
                "name": "F#3",
                "ticks": 40290,
                "time": 139.895777375,
                "velocity": 0.5039370078740157
              },
              {
                "duration": 0.20833325000000968,
                "durationTicks": 60,
                "midi": 56,
                "name": "G#3",
                "ticks": 40320,
                "time": 139.999944,
                "velocity": 0.5039370078740157
              },
              {
                "duration": 0.41666649999999095,
                "durationTicks": 120,
                "midi": 61,
                "name": "C#4",
                "ticks": 40380,
                "time": 140.20827725,
                "velocity": 0.5039370078740157
              },
              {
                "duration": 0.41666649999999095,
                "durationTicks": 120,
                "midi": 57,
                "name": "A3",
                "ticks": 40500,
                "time": 140.62494375,
                "velocity": 0.5039370078740157
              },
              {
                "duration": 0.41666650000001937,
                "durationTicks": 120,
                "midi": 54,
                "name": "F#3",
                "ticks": 40620,
                "time": 141.04161025,
                "velocity": 0.5039370078740157
              },
              {
                "duration": 0.10416662499997642,
                "durationTicks": 30,
                "midi": 57,
                "name": "A3",
                "ticks": 40740,
                "time": 141.45827675,
                "velocity": 0.5039370078740157
              },
              {
                "duration": 0.10416662500000484,
                "durationTicks": 30,
                "midi": 56,
                "name": "G#3",
                "ticks": 40770,
                "time": 141.562443375,
                "velocity": 0.5039370078740157
              },
              {
                "duration": 0.20833325000000968,
                "durationTicks": 60,
                "midi": 57,
                "name": "A3",
                "ticks": 40800,
                "time": 141.66661,
                "velocity": 0.5039370078740157
              },
              {
                "duration": 0.20833325000000968,
                "durationTicks": 60,
                "midi": 54,
                "name": "F#3",
                "ticks": 40860,
                "time": 141.87494325,
                "velocity": 0.5039370078740157
              },
              {
                "duration": 0.20833324999998126,
                "durationTicks": 60,
                "midi": 51,
                "name": "D#3",
                "ticks": 40920,
                "time": 142.0832765,
                "velocity": 0.5039370078740157
              },
              {
                "duration": 0.41666650000001937,
                "durationTicks": 120,
                "midi": 47,
                "name": "B2",
                "ticks": 40980,
                "time": 142.29160975,
                "velocity": 0.5039370078740157
              },
              {
                "duration": 0.41666649999999095,
                "durationTicks": 120,
                "midi": 59,
                "name": "B3",
                "ticks": 41100,
                "time": 142.70827625,
                "velocity": 0.5039370078740157
              },
              {
                "duration": 0.41666649999999095,
                "durationTicks": 120,
                "midi": 56,
                "name": "G#3",
                "ticks": 41220,
                "time": 143.12494275,
                "velocity": 0.5039370078740157
              },
              {
                "duration": 0.41666649999999095,
                "durationTicks": 120,
                "midi": 52,
                "name": "E3",
                "ticks": 41340,
                "time": 143.54160925,
                "velocity": 0.5039370078740157
              },
              {
                "duration": 0.10416662500000484,
                "durationTicks": 30,
                "midi": 56,
                "name": "G#3",
                "ticks": 41460,
                "time": 143.95827574999998,
                "velocity": 0.5039370078740157
              },
              {
                "duration": 0.10416662500000484,
                "durationTicks": 30,
                "midi": 54,
                "name": "F#3",
                "ticks": 41490,
                "time": 144.062442375,
                "velocity": 0.5039370078740157
              },
              {
                "duration": 0.20833325000000968,
                "durationTicks": 60,
                "midi": 56,
                "name": "G#3",
                "ticks": 41520,
                "time": 144.166609,
                "velocity": 0.5039370078740157
              },
              {
                "duration": 0.20833324999998126,
                "durationTicks": 60,
                "midi": 52,
                "name": "E3",
                "ticks": 41580,
                "time": 144.37494225,
                "velocity": 0.5039370078740157
              },
              {
                "duration": 0.20833325000000968,
                "durationTicks": 60,
                "midi": 49,
                "name": "C#3",
                "ticks": 41640,
                "time": 144.58327549999998,
                "velocity": 0.5039370078740157
              },
              {
                "duration": 0.41666649999999095,
                "durationTicks": 120,
                "midi": 45,
                "name": "A2",
                "ticks": 41700,
                "time": 144.79160875,
                "velocity": 0.5039370078740157
              },
              {
                "duration": 0.41666650000001937,
                "durationTicks": 120,
                "midi": 57,
                "name": "A3",
                "ticks": 41820,
                "time": 145.20827524999999,
                "velocity": 0.5039370078740157
              },
              {
                "duration": 0.41666649999999095,
                "durationTicks": 120,
                "midi": 54,
                "name": "F#3",
                "ticks": 41940,
                "time": 145.62494175,
                "velocity": 0.5039370078740157
              },
              {
                "duration": 0.41666649999999095,
                "durationTicks": 120,
                "midi": 51,
                "name": "D#3",
                "ticks": 42060,
                "time": 146.04160825,
                "velocity": 0.5039370078740157
              },
              {
                "duration": 0.41666650000001937,
                "durationTicks": 120,
                "midi": 61,
                "name": "C#4",
                "ticks": 42180,
                "time": 146.45827475,
                "velocity": 0.5039370078740157
              },
              {
                "duration": 0.41666649999999095,
                "durationTicks": 120,
                "midi": 59,
                "name": "B3",
                "ticks": 42300,
                "time": 146.87494125,
                "velocity": 0.5039370078740157
              },
              {
                "duration": 0.41666649999999095,
                "durationTicks": 120,
                "midi": 57,
                "name": "A3",
                "ticks": 42420,
                "time": 147.29160775,
                "velocity": 0.5039370078740157
              },
              {
                "duration": 0.41666650000001937,
                "durationTicks": 120,
                "midi": 56,
                "name": "G#3",
                "ticks": 42540,
                "time": 147.70827425,
                "velocity": 0.5039370078740157
              },
              {
                "duration": 0.41666649999999095,
                "durationTicks": 120,
                "midi": 54,
                "name": "F#3",
                "ticks": 42660,
                "time": 148.12494075,
                "velocity": 0.5039370078740157
              },
              {
                "duration": 0.20833325000000968,
                "durationTicks": 60,
                "midi": 52,
                "name": "E3",
                "ticks": 42780,
                "time": 148.54160725,
                "velocity": 0.5039370078740157
              },
              {
                "duration": 0.20833324999998126,
                "durationTicks": 60,
                "midi": 51,
                "name": "D#3",
                "ticks": 42840,
                "time": 148.7499405,
                "velocity": 0.5039370078740157
              },
              {
                "duration": 0.10416662500000484,
                "durationTicks": 30,
                "midi": 57,
                "name": "A3",
                "ticks": 42900,
                "time": 148.95827375,
                "velocity": 0.5039370078740157
              },
              {
                "duration": 0.10416662500000484,
                "durationTicks": 30,
                "midi": 56,
                "name": "G#3",
                "ticks": 42930,
                "time": 149.062440375,
                "velocity": 0.5039370078740157
              },
              {
                "duration": 0.20833325000000968,
                "durationTicks": 60,
                "midi": 57,
                "name": "A3",
                "ticks": 42960,
                "time": 149.166607,
                "velocity": 0.5039370078740157
              },
              {
                "duration": 0.10416662499997642,
                "durationTicks": 30,
                "midi": 51,
                "name": "D#3",
                "ticks": 43020,
                "time": 149.37494025,
                "velocity": 0.5039370078740157
              },
              {
                "duration": 0.10416662500000484,
                "durationTicks": 30,
                "midi": 50,
                "name": "D3",
                "ticks": 43050,
                "time": 149.47910687499999,
                "velocity": 0.5039370078740157
              },
              {
                "duration": 0.20833325000000968,
                "durationTicks": 60,
                "midi": 51,
                "name": "D#3",
                "ticks": 43080,
                "time": 149.5832735,
                "velocity": 0.5039370078740157
              },
              {
                "duration": 0.10416662500000484,
                "durationTicks": 30,
                "midi": 56,
                "name": "G#3",
                "ticks": 43140,
                "time": 149.79160675,
                "velocity": 0.5039370078740157
              },
              {
                "duration": 0.10416662500000484,
                "durationTicks": 30,
                "midi": 54,
                "name": "F#3",
                "ticks": 43170,
                "time": 149.895773375,
                "velocity": 0.5039370078740157
              },
              {
                "duration": 0.41666649999999095,
                "durationTicks": 120,
                "midi": 56,
                "name": "G#3",
                "ticks": 43200,
                "time": 149.99994,
                "velocity": 0.5039370078740157
              },
              {
                "duration": 0.41666649999999095,
                "durationTicks": 120,
                "midi": 57,
                "name": "A3",
                "ticks": 43320,
                "time": 150.4166065,
                "velocity": 0.5039370078740157
              },
              {
                "duration": 0.41666650000001937,
                "durationTicks": 120,
                "midi": 59,
                "name": "B3",
                "ticks": 43440,
                "time": 150.833273,
                "velocity": 0.5039370078740157
              },
              {
                "duration": 0.41666649999999095,
                "durationTicks": 120,
                "midi": 52,
                "name": "E3",
                "ticks": 43560,
                "time": 151.2499395,
                "velocity": 0.5039370078740157
              },
              {
                "duration": 0.20833324999998126,
                "durationTicks": 60,
                "midi": 64,
                "name": "E4",
                "ticks": 43740,
                "time": 151.87493925,
                "velocity": 0.5039370078740157
              },
              {
                "duration": 0.20833325000000968,
                "durationTicks": 60,
                "midi": 59,
                "name": "B3",
                "ticks": 43800,
                "time": 152.0832725,
                "velocity": 0.5039370078740157
              },
              {
                "duration": 0.20833325000000968,
                "durationTicks": 60,
                "midi": 56,
                "name": "G#3",
                "ticks": 43860,
                "time": 152.29160575,
                "velocity": 0.5039370078740157
              },
              {
                "duration": 0.21428574999998773,
                "durationTicks": 60,
                "midi": 52,
                "name": "E3",
                "ticks": 43920,
                "time": 152.499939,
                "velocity": 0.5039370078740157
              },
              {
                "duration": 0.21428575000001615,
                "durationTicks": 60,
                "midi": 59,
                "name": "B3",
                "ticks": 43980,
                "time": 152.71422475,
                "velocity": 0.5039370078740157
              },
              {
                "duration": 0.21428574999998773,
                "durationTicks": 60,
                "midi": 56,
                "name": "G#3",
                "ticks": 44040,
                "time": 152.92851050000002,
                "velocity": 0.5039370078740157
              },
              {
                "duration": 0.21428575000001615,
                "durationTicks": 60,
                "midi": 52,
                "name": "E3",
                "ticks": 44100,
                "time": 153.14279625,
                "velocity": 0.5039370078740157
              },
              {
                "duration": 0.21428574999998773,
                "durationTicks": 60,
                "midi": 47,
                "name": "B2",
                "ticks": 44160,
                "time": 153.35708200000002,
                "velocity": 0.5039370078740157
              },
              {
                "duration": 0.21428575000001615,
                "durationTicks": 60,
                "midi": 44,
                "name": "G#2",
                "ticks": 44220,
                "time": 153.57136775,
                "velocity": 0.5039370078740157
              },
              {
                "duration": 0.8333330000000103,
                "durationTicks": 240,
                "midi": 40,
                "name": "E2",
                "ticks": 44280,
                "time": 153.78565350000002,
                "velocity": 0.5039370078740157
              },
              {
                "duration": 0.8333329999999819,
                "durationTicks": 240,
                "midi": 52,
                "name": "E3",
                "ticks": 44520,
                "time": 154.61898650000003,
                "velocity": 0.5039370078740157
              }
            ],
            "endOfTrackTicks": 44760
          }
        ]
    },

    "invention-07" : {
        "header": {
          "keySignatures": [],
          "meta": [],
          "name": "Invention 7 in E Minor",
          "ppq": 240,
          "tempos": [
            {
              "bpm": 107.99991360006912,
              "ticks": 0
            }
          ],
          "timeSignatures": [
            {
              "ticks": 0,
              "timeSignature": [
                4,
                4
              ],
              "measures": 0
            }
          ]
        },
        "tracks": [
          {
            "channel": 0,
            "controlChanges": {},
            "pitchBends": [],
            "instrument": {
              "family": "piano",
              "number": 0,
              "name": "acoustic grand piano"
            },
            "name": "",
            "notes": [
              {
                "duration": 0.13888899999999998,
                "durationTicks": 60,
                "midi": 71,
                "name": "B4",
                "ticks": 120,
                "time": 0.277778,
                "velocity": 0.5039370078740157
              },
              {
                "duration": 0.13888900000000004,
                "durationTicks": 60,
                "midi": 69,
                "name": "A4",
                "ticks": 180,
                "time": 0.416667,
                "velocity": 0.5039370078740157
              },
              {
                "duration": 0.13888900000000004,
                "durationTicks": 60,
                "midi": 67,
                "name": "G4",
                "ticks": 240,
                "time": 0.555556,
                "velocity": 0.5039370078740157
              },
              {
                "duration": 0.13888899999999993,
                "durationTicks": 60,
                "midi": 66,
                "name": "F#4",
                "ticks": 300,
                "time": 0.6944450000000001,
                "velocity": 0.5039370078740157
              },
              {
                "duration": 0.13888900000000004,
                "durationTicks": 60,
                "midi": 67,
                "name": "G4",
                "ticks": 360,
                "time": 0.833334,
                "velocity": 0.5039370078740157
              },
              {
                "duration": 0.13888900000000004,
                "durationTicks": 60,
                "midi": 64,
                "name": "E4",
                "ticks": 420,
                "time": 0.9722230000000001,
                "velocity": 0.5039370078740157
              },
              {
                "duration": 0.06944449999999991,
                "durationTicks": 30,
                "midi": 71,
                "name": "B4",
                "ticks": 480,
                "time": 1.111112,
                "velocity": 0.5039370078740157
              },
              {
                "duration": 0.06944450000000013,
                "durationTicks": 30,
                "midi": 69,
                "name": "A4",
                "ticks": 510,
                "time": 1.1805565,
                "velocity": 0.4409448818897638
              },
              {
                "duration": 0.13888900000000004,
                "durationTicks": 60,
                "midi": 71,
                "name": "B4",
                "ticks": 540,
                "time": 1.2500010000000001,
                "velocity": 0.5039370078740157
              },
              {
                "duration": 0.27777799999999986,
                "durationTicks": 120,
                "midi": 71,
                "name": "B4",
                "ticks": 600,
                "time": 1.3888900000000002,
                "velocity": 0.5039370078740157
              },
              {
                "duration": 0.06944450000000013,
                "durationTicks": 30,
                "midi": 76,
                "name": "E5",
                "ticks": 720,
                "time": 1.666668,
                "velocity": 0.5039370078740157
              },
              {
                "duration": 0.06944449999999991,
                "durationTicks": 30,
                "midi": 75,
                "name": "D#5",
                "ticks": 750,
                "time": 1.7361125000000002,
                "velocity": 0.4409448818897638
              },
              {
                "duration": 0.2777780000000003,
                "durationTicks": 120,
                "midi": 76,
                "name": "E5",
                "ticks": 780,
                "time": 1.805557,
                "velocity": 0.5039370078740157
              },
              {
                "duration": 0.13888899999999982,
                "durationTicks": 60,
                "midi": 78,
                "name": "F#5",
                "ticks": 900,
                "time": 2.0833350000000004,
                "velocity": 0.5039370078740157
              },
              {
                "duration": 0.06944449999999991,
                "durationTicks": 30,
                "midi": 75,
                "name": "D#5",
                "ticks": 960,
                "time": 2.222224,
                "velocity": 0.5039370078740157
              },
              {
                "duration": 0.06944449999999991,
                "durationTicks": 30,
                "midi": 76,
                "name": "E5",
                "ticks": 990,
                "time": 2.2916685,
                "velocity": 0.4409448818897638
              },
              {
                "duration": 0.13888900000000026,
                "durationTicks": 60,
                "midi": 75,
                "name": "D#5",
                "ticks": 1020,
                "time": 2.361113,
                "velocity": 0.5039370078740157
              },
              {
                "duration": 0.13888899999999982,
                "durationTicks": 60,
                "midi": 78,
                "name": "F#5",
                "ticks": 1080,
                "time": 2.5000020000000003,
                "velocity": 0.5039370078740157
              },
              {
                "duration": 0.13888900000000026,
                "durationTicks": 60,
                "midi": 76,
                "name": "E5",
                "ticks": 1140,
                "time": 2.638891,
                "velocity": 0.5039370078740157
              },
              {
                "duration": 0.13888899999999982,
                "durationTicks": 60,
                "midi": 75,
                "name": "D#5",
                "ticks": 1200,
                "time": 2.7777800000000004,
                "velocity": 0.5039370078740157
              },
              {
                "duration": 0.13888900000000026,
                "durationTicks": 60,
                "midi": 73,
                "name": "C#5",
                "ticks": 1260,
                "time": 2.916669,
                "velocity": 0.5039370078740157
              },
              {
                "duration": 0.13888899999999982,
                "durationTicks": 60,
                "midi": 75,
                "name": "D#5",
                "ticks": 1320,
                "time": 3.0555580000000004,
                "velocity": 0.5039370078740157
              },
              {
                "duration": 0.13888899999999982,
                "durationTicks": 60,
                "midi": 71,
                "name": "B4",
                "ticks": 1380,
                "time": 3.1944470000000003,
                "velocity": 0.5039370078740157
              },
              {
                "duration": 0.2777780000000001,
                "durationTicks": 120,
                "midi": 83,
                "name": "B5",
                "ticks": 1440,
                "time": 3.333336,
                "velocity": 0.5039370078740157
              },
              {
                "duration": 0.13888900000000026,
                "durationTicks": 60,
                "midi": 81,
                "name": "A5",
                "ticks": 1560,
                "time": 3.611114,
                "velocity": 0.5039370078740157
              },
              {
                "duration": 0.13888899999999982,
                "durationTicks": 60,
                "midi": 79,
                "name": "G5",
                "ticks": 1620,
                "time": 3.7500030000000004,
                "velocity": 0.5039370078740157
              },
              {
                "duration": 0.06944449999999991,
                "durationTicks": 30,
                "midi": 78,
                "name": "F#5",
                "ticks": 1680,
                "time": 3.8888920000000002,
                "velocity": 0.3858267716535433
              },
              {
                "duration": 0.06944449999999991,
                "durationTicks": 30,
                "midi": 79,
                "name": "G5",
                "ticks": 1710,
                "time": 3.9583365,
                "velocity": 0.4094488188976378
              },
              {
                "duration": 0.06944450000000035,
                "durationTicks": 30,
                "midi": 78,
                "name": "F#5",
                "ticks": 1740,
                "time": 4.027781,
                "velocity": 0.4409448818897638
              },
              {
                "duration": 0.06944450000000035,
                "durationTicks": 30,
                "midi": 79,
                "name": "G5",
                "ticks": 1770,
                "time": 4.0972255,
                "velocity": 0.4645669291338583
              },
              {
                "duration": 0.13888899999999982,
                "durationTicks": 60,
                "midi": 78,
                "name": "F#5",
                "ticks": 1800,
                "time": 4.166670000000001,
                "velocity": 0.5039370078740157
              },
              {
                "duration": 0.06944449999999946,
                "durationTicks": 30,
                "midi": 76,
                "name": "E5",
                "ticks": 1860,
                "time": 4.305559000000001,
                "velocity": 0.4409448818897638
              },
              {
                "duration": 0.06944450000000035,
                "durationTicks": 30,
                "midi": 78,
                "name": "F#5",
                "ticks": 1890,
                "time": 4.3750035,
                "velocity": 0.5039370078740157
              },
              {
                "duration": 0.27777799999999964,
                "durationTicks": 120,
                "midi": 79,
                "name": "G5",
                "ticks": 1920,
                "time": 4.444448,
                "velocity": 0.5039370078740157
              },
              {
                "duration": 0.1388890000000007,
                "durationTicks": 60,
                "midi": 83,
                "name": "B5",
                "ticks": 2040,
                "time": 4.722226,
                "velocity": 0.5039370078740157
              },
              {
                "duration": 0.13888899999999982,
                "durationTicks": 60,
                "midi": 81,
                "name": "A5",
                "ticks": 2100,
                "time": 4.861115000000001,
                "velocity": 0.5039370078740157
              },
              {
                "duration": 0.13888899999999982,
                "durationTicks": 60,
                "midi": 79,
                "name": "G5",
                "ticks": 2160,
                "time": 5.000004000000001,
                "velocity": 0.5039370078740157
              },
              {
                "duration": 0.13888899999999982,
                "durationTicks": 60,
                "midi": 78,
                "name": "F#5",
                "ticks": 2220,
                "time": 5.138893,
                "velocity": 0.5039370078740157
              },
              {
                "duration": 0.1388890000000007,
                "durationTicks": 60,
                "midi": 79,
                "name": "G5",
                "ticks": 2280,
                "time": 5.277782,
                "velocity": 0.5039370078740157
              },
              {
                "duration": 0.13888899999999982,
                "durationTicks": 60,
                "midi": 76,
                "name": "E5",
                "ticks": 2340,
                "time": 5.416671000000001,
                "velocity": 0.5039370078740157
              },
              {
                "duration": 0.41666699999999945,
                "durationTicks": 180,
                "midi": 84,
                "name": "C6",
                "ticks": 2400,
                "time": 5.555560000000001,
                "velocity": 0.5039370078740157
              },
              {
                "duration": 0.1388890000000007,
                "durationTicks": 60,
                "midi": 83,
                "name": "B5",
                "ticks": 2580,
                "time": 5.972227,
                "velocity": 0.5039370078740157
              },
              {
                "duration": 0.13888899999999982,
                "durationTicks": 60,
                "midi": 81,
                "name": "A5",
                "ticks": 2640,
                "time": 6.111116000000001,
                "velocity": 0.5039370078740157
              },
              {
                "duration": 0.13888899999999982,
                "durationTicks": 60,
                "midi": 79,
                "name": "G5",
                "ticks": 2700,
                "time": 6.250005000000001,
                "velocity": 0.5039370078740157
              },
              {
                "duration": 0.13888899999999982,
                "durationTicks": 60,
                "midi": 78,
                "name": "F#5",
                "ticks": 2760,
                "time": 6.3888940000000005,
                "velocity": 0.5039370078740157
              },
              {
                "duration": 0.13888899999999982,
                "durationTicks": 60,
                "midi": 76,
                "name": "E5",
                "ticks": 2820,
                "time": 6.527783,
                "velocity": 0.5039370078740157
              },
              {
                "duration": 0.2777780000000005,
                "durationTicks": 120,
                "midi": 78,
                "name": "F#5",
                "ticks": 2880,
                "time": 6.666672,
                "velocity": 0.5039370078740157
              },
              {
                "duration": 0.13888899999999982,
                "durationTicks": 60,
                "midi": 81,
                "name": "A5",
                "ticks": 3000,
                "time": 6.944450000000001,
                "velocity": 0.5039370078740157
              },
              {
                "duration": 0.13888899999999982,
                "durationTicks": 60,
                "midi": 79,
                "name": "G5",
                "ticks": 3060,
                "time": 7.0833390000000005,
                "velocity": 0.5039370078740157
              },
              {
                "duration": 0.1388890000000007,
                "durationTicks": 60,
                "midi": 78,
                "name": "F#5",
                "ticks": 3120,
                "time": 7.222228,
                "velocity": 0.5039370078740157
              },
              {
                "duration": 0.13888899999999982,
                "durationTicks": 60,
                "midi": 76,
                "name": "E5",
                "ticks": 3180,
                "time": 7.361117000000001,
                "velocity": 0.5039370078740157
              },
              {
                "duration": 0.13888899999999982,
                "durationTicks": 60,
                "midi": 78,
                "name": "F#5",
                "ticks": 3240,
                "time": 7.500006000000001,
                "velocity": 0.5039370078740157
              },
              {
                "duration": 0.13888899999999982,
                "durationTicks": 60,
                "midi": 74,
                "name": "D5",
                "ticks": 3300,
                "time": 7.638895000000001,
                "velocity": 0.5039370078740157
              },
              {
                "duration": 0.41666700000000034,
                "durationTicks": 180,
                "midi": 83,
                "name": "B5",
                "ticks": 3360,
                "time": 7.7777840000000005,
                "velocity": 0.5039370078740157
              },
              {
                "duration": 0.1388890000000007,
                "durationTicks": 60,
                "midi": 81,
                "name": "A5",
                "ticks": 3540,
                "time": 8.194451,
                "velocity": 0.5039370078740157
              },
              {
                "duration": 0.13888899999999893,
                "durationTicks": 60,
                "midi": 79,
                "name": "G5",
                "ticks": 3600,
                "time": 8.333340000000002,
                "velocity": 0.5039370078740157
              },
              {
                "duration": 0.1388890000000007,
                "durationTicks": 60,
                "midi": 78,
                "name": "F#5",
                "ticks": 3660,
                "time": 8.472229,
                "velocity": 0.5039370078740157
              },
              {
                "duration": 0.13888899999999893,
                "durationTicks": 60,
                "midi": 76,
                "name": "E5",
                "ticks": 3720,
                "time": 8.611118000000001,
                "velocity": 0.5039370078740157
              },
              {
                "duration": 0.1388890000000007,
                "durationTicks": 60,
                "midi": 74,
                "name": "D5",
                "ticks": 3780,
                "time": 8.750007,
                "velocity": 0.5039370078740157
              },
              {
                "duration": 0.1388890000000007,
                "durationTicks": 60,
                "midi": 76,
                "name": "E5",
                "ticks": 3840,
                "time": 8.888896,
                "velocity": 0.5039370078740157
              },
              {
                "duration": 0.13888899999999893,
                "durationTicks": 60,
                "midi": 78,
                "name": "F#5",
                "ticks": 3900,
                "time": 9.027785000000002,
                "velocity": 0.5039370078740157
              },
              {
                "duration": 0.1388890000000007,
                "durationTicks": 60,
                "midi": 76,
                "name": "E5",
                "ticks": 3960,
                "time": 9.166674,
                "velocity": 0.5039370078740157
              },
              {
                "duration": 0.13888899999999893,
                "durationTicks": 60,
                "midi": 74,
                "name": "D5",
                "ticks": 4020,
                "time": 9.305563000000001,
                "velocity": 0.5039370078740157
              },
              {
                "duration": 0.1388890000000007,
                "durationTicks": 60,
                "midi": 72,
                "name": "C5",
                "ticks": 4080,
                "time": 9.444452,
                "velocity": 0.5039370078740157
              },
              {
                "duration": 0.1388890000000007,
                "durationTicks": 60,
                "midi": 71,
                "name": "B4",
                "ticks": 4140,
                "time": 9.583341,
                "velocity": 0.5039370078740157
              },
              {
                "duration": 0.13888899999999893,
                "durationTicks": 60,
                "midi": 69,
                "name": "A4",
                "ticks": 4200,
                "time": 9.722230000000001,
                "velocity": 0.5039370078740157
              },
              {
                "duration": 0.1388890000000007,
                "durationTicks": 60,
                "midi": 67,
                "name": "G4",
                "ticks": 4260,
                "time": 9.861119,
                "velocity": 0.5039370078740157
              },
              {
                "duration": 0.13888899999999893,
                "durationTicks": 60,
                "midi": 72,
                "name": "C5",
                "ticks": 4320,
                "time": 10.000008000000001,
                "velocity": 0.5039370078740157
              },
              {
                "duration": 0.1388890000000007,
                "durationTicks": 60,
                "midi": 71,
                "name": "B4",
                "ticks": 4380,
                "time": 10.138897,
                "velocity": 0.5039370078740157
              },
              {
                "duration": 0.1388890000000007,
                "durationTicks": 60,
                "midi": 69,
                "name": "A4",
                "ticks": 4440,
                "time": 10.277786,
                "velocity": 0.5039370078740157
              },
              {
                "duration": 0.13888899999999893,
                "durationTicks": 60,
                "midi": 71,
                "name": "B4",
                "ticks": 4500,
                "time": 10.416675000000001,
                "velocity": 0.5039370078740157
              },
              {
                "duration": 0.1388890000000007,
                "durationTicks": 60,
                "midi": 72,
                "name": "C5",
                "ticks": 4560,
                "time": 10.555564,
                "velocity": 0.5039370078740157
              },
              {
                "duration": 0.1388890000000007,
                "durationTicks": 60,
                "midi": 74,
                "name": "D5",
                "ticks": 4620,
                "time": 10.694453000000001,
                "velocity": 0.5039370078740157
              },
              {
                "duration": 0.13888899999999893,
                "durationTicks": 60,
                "midi": 76,
                "name": "E5",
                "ticks": 4680,
                "time": 10.833342000000002,
                "velocity": 0.5039370078740157
              },
              {
                "duration": 0.1388890000000007,
                "durationTicks": 60,
                "midi": 78,
                "name": "F#5",
                "ticks": 4740,
                "time": 10.972231,
                "velocity": 0.5039370078740157
              },
              {
                "duration": 0.13888899999999893,
                "durationTicks": 60,
                "midi": 79,
                "name": "G5",
                "ticks": 4800,
                "time": 11.111120000000001,
                "velocity": 0.5039370078740157
              },
              {
                "duration": 0.1388890000000007,
                "durationTicks": 60,
                "midi": 78,
                "name": "F#5",
                "ticks": 4860,
                "time": 11.250009,
                "velocity": 0.5039370078740157
              },
              {
                "duration": 0.1388890000000007,
                "durationTicks": 60,
                "midi": 76,
                "name": "E5",
                "ticks": 4920,
                "time": 11.388898000000001,
                "velocity": 0.5039370078740157
              },
              {
                "duration": 0.13888899999999893,
                "durationTicks": 60,
                "midi": 74,
                "name": "D5",
                "ticks": 4980,
                "time": 11.527787000000002,
                "velocity": 0.5039370078740157
              },
              {
                "duration": 0.06944449999999946,
                "durationTicks": 30,
                "midi": 79,
                "name": "G5",
                "ticks": 5040,
                "time": 11.666676,
                "velocity": 0.5039370078740157
              },
              {
                "duration": 0.06944450000000124,
                "durationTicks": 30,
                "midi": 78,
                "name": "F#5",
                "ticks": 5070,
                "time": 11.7361205,
                "velocity": 0.4409448818897638
              },
              {
                "duration": 0.27777799999999964,
                "durationTicks": 120,
                "midi": 79,
                "name": "G5",
                "ticks": 5100,
                "time": 11.805565000000001,
                "velocity": 0.5039370078740157
              },
              {
                "duration": 0.1388890000000007,
                "durationTicks": 60,
                "midi": 79,
                "name": "G5",
                "ticks": 5220,
                "time": 12.083343000000001,
                "velocity": 0.5039370078740157
              },
              {
                "duration": 0.13888899999999893,
                "durationTicks": 60,
                "midi": 79,
                "name": "G5",
                "ticks": 5280,
                "time": 12.222232000000002,
                "velocity": 0.5039370078740157
              },
              {
                "duration": 0.1388890000000007,
                "durationTicks": 60,
                "midi": 78,
                "name": "F#5",
                "ticks": 5340,
                "time": 12.361121,
                "velocity": 0.5039370078740157
              },
              {
                "duration": 0.13888899999999893,
                "durationTicks": 60,
                "midi": 76,
                "name": "E5",
                "ticks": 5400,
                "time": 12.500010000000001,
                "velocity": 0.5039370078740157
              },
              {
                "duration": 0.1388890000000007,
                "durationTicks": 60,
                "midi": 78,
                "name": "F#5",
                "ticks": 5460,
                "time": 12.638899,
                "velocity": 0.5039370078740157
              },
              {
                "duration": 0.06944449999999946,
                "durationTicks": 30,
                "midi": 78,
                "name": "F#5",
                "ticks": 5520,
                "time": 12.777788000000001,
                "velocity": 0.5039370078740157
              },
              {
                "duration": 0.06944450000000124,
                "durationTicks": 30,
                "midi": 79,
                "name": "G5",
                "ticks": 5550,
                "time": 12.8472325,
                "velocity": 0.4409448818897638
              },
              {
                "duration": 0.27777799999999964,
                "durationTicks": 120,
                "midi": 78,
                "name": "F#5",
                "ticks": 5580,
                "time": 12.916677000000002,
                "velocity": 0.5039370078740157
              },
              {
                "duration": 0.13888899999999893,
                "durationTicks": 60,
                "midi": 79,
                "name": "G5",
                "ticks": 5700,
                "time": 13.194455000000001,
                "velocity": 0.5039370078740157
              },
              {
                "duration": 0.2777780000000014,
                "durationTicks": 120,
                "midi": 79,
                "name": "G5",
                "ticks": 5760,
                "time": 13.333344,
                "velocity": 0.5039370078740157
              },
              {
                "duration": 0.13888899999999893,
                "durationTicks": 60,
                "midi": 74,
                "name": "D5",
                "ticks": 5880,
                "time": 13.611122000000002,
                "velocity": 0.5039370078740157
              },
              {
                "duration": 0.1388890000000007,
                "durationTicks": 60,
                "midi": 72,
                "name": "C5",
                "ticks": 5940,
                "time": 13.750011,
                "velocity": 0.5039370078740157
              },
              {
                "duration": 0.1388890000000007,
                "durationTicks": 60,
                "midi": 71,
                "name": "B4",
                "ticks": 6000,
                "time": 13.888900000000001,
                "velocity": 0.5039370078740157
              },
              {
                "duration": 0.13888899999999893,
                "durationTicks": 60,
                "midi": 69,
                "name": "A4",
                "ticks": 6060,
                "time": 14.027789000000002,
                "velocity": 0.5039370078740157
              },
              {
                "duration": 0.1388890000000007,
                "durationTicks": 60,
                "midi": 71,
                "name": "B4",
                "ticks": 6120,
                "time": 14.166678000000001,
                "velocity": 0.5039370078740157
              },
              {
                "duration": 0.13888899999999893,
                "durationTicks": 60,
                "midi": 67,
                "name": "G4",
                "ticks": 6180,
                "time": 14.305567000000002,
                "velocity": 0.5039370078740157
              },
              {
                "duration": 0.06944450000000124,
                "durationTicks": 30,
                "midi": 74,
                "name": "D5",
                "ticks": 6240,
                "time": 14.444456,
                "velocity": 0.5039370078740157
              },
              {
                "duration": 0.07638894999999835,
                "durationTicks": 33,
                "midi": 76,
                "name": "E5",
                "ticks": 6270,
                "time": 14.513900500000002,
                "velocity": 0.5039370078740157
              },
              {
                "duration": 0.07638895000000012,
                "durationTicks": 33,
                "midi": 74,
                "name": "D5",
                "ticks": 6300,
                "time": 14.583345000000001,
                "velocity": 0.3779527559055118
              },
              {
                "duration": 0.07638895000000012,
                "durationTicks": 33,
                "midi": 76,
                "name": "E5",
                "ticks": 6330,
                "time": 14.6527895,
                "velocity": 0.3779527559055118
              },
              {
                "duration": 0.07638894999999835,
                "durationTicks": 33,
                "midi": 74,
                "name": "D5",
                "ticks": 6360,
                "time": 14.722234000000002,
                "velocity": 0.3779527559055118
              },
              {
                "duration": 0.07638895000000012,
                "durationTicks": 33,
                "midi": 76,
                "name": "E5",
                "ticks": 6390,
                "time": 14.791678500000002,
                "velocity": 0.3779527559055118
              },
              {
                "duration": 0.07638895000000012,
                "durationTicks": 33,
                "midi": 74,
                "name": "D5",
                "ticks": 6420,
                "time": 14.861123000000001,
                "velocity": 0.3858267716535433
              },
              {
                "duration": 0.07638894999999835,
                "durationTicks": 33,
                "midi": 76,
                "name": "E5",
                "ticks": 6450,
                "time": 14.930567500000002,
                "velocity": 0.3858267716535433
              },
              {
                "duration": 0.07638895000000012,
                "durationTicks": 33,
                "midi": 74,
                "name": "D5",
                "ticks": 6480,
                "time": 15.000012000000002,
                "velocity": 0.3858267716535433
              },
              {
                "duration": 0.07638895000000012,
                "durationTicks": 33,
                "midi": 76,
                "name": "E5",
                "ticks": 6510,
                "time": 15.069456500000001,
                "velocity": 0.3858267716535433
              },
              {
                "duration": 0.07638895000000012,
                "durationTicks": 33,
                "midi": 74,
                "name": "D5",
                "ticks": 6540,
                "time": 15.138901,
                "velocity": 0.3937007874015748
              },
              {
                "duration": 0.07638894999999835,
                "durationTicks": 33,
                "midi": 76,
                "name": "E5",
                "ticks": 6570,
                "time": 15.208345500000002,
                "velocity": 0.3937007874015748
              },
              {
                "duration": 0.07638895000000012,
                "durationTicks": 33,
                "midi": 74,
                "name": "D5",
                "ticks": 6600,
                "time": 15.277790000000001,
                "velocity": 0.3937007874015748
              },
              {
                "duration": 0.07638895000000012,
                "durationTicks": 33,
                "midi": 76,
                "name": "E5",
                "ticks": 6630,
                "time": 15.3472345,
                "velocity": 0.4015748031496063
              },
              {
                "duration": 0.07638894999999835,
                "durationTicks": 33,
                "midi": 74,
                "name": "D5",
                "ticks": 6660,
                "time": 15.416679000000002,
                "velocity": 0.4015748031496063
              },
              {
                "duration": 0.07638895000000012,
                "durationTicks": 33,
                "midi": 76,
                "name": "E5",
                "ticks": 6690,
                "time": 15.486123500000001,
                "velocity": 0.4015748031496063
              },
              {
                "duration": 0.07638895000000012,
                "durationTicks": 33,
                "midi": 74,
                "name": "D5",
                "ticks": 6720,
                "time": 15.555568000000001,
                "velocity": 0.4015748031496063
              },
              {
                "duration": 0.07638894999999835,
                "durationTicks": 33,
                "midi": 76,
                "name": "E5",
                "ticks": 6750,
                "time": 15.625012500000002,
                "velocity": 0.4094488188976378
              },
              {
                "duration": 0.07638895000000012,
                "durationTicks": 33,
                "midi": 74,
                "name": "D5",
                "ticks": 6780,
                "time": 15.694457000000002,
                "velocity": 0.4094488188976378
              },
              {
                "duration": 0.07638895000000012,
                "durationTicks": 33,
                "midi": 76,
                "name": "E5",
                "ticks": 6810,
                "time": 15.763901500000001,
                "velocity": 0.4094488188976378
              },
              {
                "duration": 0.07638895000000012,
                "durationTicks": 33,
                "midi": 74,
                "name": "D5",
                "ticks": 6840,
                "time": 15.833346,
                "velocity": 0.4094488188976378
              },
              {
                "duration": 0.07638894999999835,
                "durationTicks": 33,
                "midi": 76,
                "name": "E5",
                "ticks": 6870,
                "time": 15.902790500000002,
                "velocity": 0.41732283464566927
              },
              {
                "duration": 0.07638894999999835,
                "durationTicks": 33,
                "midi": 74,
                "name": "D5",
                "ticks": 6900,
                "time": 15.972235000000001,
                "velocity": 0.41732283464566927
              },
              {
                "duration": 0.0763889500000019,
                "durationTicks": 33,
                "midi": 76,
                "name": "E5",
                "ticks": 6930,
                "time": 16.0416795,
                "velocity": 0.41732283464566927
              },
              {
                "duration": 0.0763889500000019,
                "durationTicks": 33,
                "midi": 74,
                "name": "D5",
                "ticks": 6960,
                "time": 16.111124,
                "velocity": 0.41732283464566927
              },
              {
                "duration": 0.0763889500000019,
                "durationTicks": 33,
                "midi": 76,
                "name": "E5",
                "ticks": 6990,
                "time": 16.1805685,
                "velocity": 0.4251968503937008
              },
              {
                "duration": 0.07638894999999835,
                "durationTicks": 33,
                "midi": 74,
                "name": "D5",
                "ticks": 7020,
                "time": 16.250013000000003,
                "velocity": 0.4251968503937008
              },
              {
                "duration": 0.07638894999999835,
                "durationTicks": 33,
                "midi": 76,
                "name": "E5",
                "ticks": 7050,
                "time": 16.319457500000002,
                "velocity": 0.4251968503937008
              },
              {
                "duration": 0.07638894999999835,
                "durationTicks": 33,
                "midi": 74,
                "name": "D5",
                "ticks": 7080,
                "time": 16.388902,
                "velocity": 0.4251968503937008
              },
              {
                "duration": 0.07638894999999835,
                "durationTicks": 33,
                "midi": 76,
                "name": "E5",
                "ticks": 7110,
                "time": 16.4583465,
                "velocity": 0.4330708661417323
              },
              {
                "duration": 0.0763889500000019,
                "durationTicks": 33,
                "midi": 74,
                "name": "D5",
                "ticks": 7140,
                "time": 16.527791,
                "velocity": 0.4330708661417323
              },
              {
                "duration": 0.0763889500000019,
                "durationTicks": 33,
                "midi": 76,
                "name": "E5",
                "ticks": 7170,
                "time": 16.5972355,
                "velocity": 0.4330708661417323
              },
              {
                "duration": 0.07638894999999835,
                "durationTicks": 33,
                "midi": 74,
                "name": "D5",
                "ticks": 7200,
                "time": 16.666680000000003,
                "velocity": 0.4409448818897638
              },
              {
                "duration": 0.07638894999999835,
                "durationTicks": 33,
                "midi": 76,
                "name": "E5",
                "ticks": 7230,
                "time": 16.736124500000003,
                "velocity": 0.4409448818897638
              },
              {
                "duration": 0.07638894999999835,
                "durationTicks": 33,
                "midi": 74,
                "name": "D5",
                "ticks": 7260,
                "time": 16.805569000000002,
                "velocity": 0.4409448818897638
              },
              {
                "duration": 0.07638894999999835,
                "durationTicks": 33,
                "midi": 76,
                "name": "E5",
                "ticks": 7290,
                "time": 16.8750135,
                "velocity": 0.4409448818897638
              },
              {
                "duration": 0.0763889500000019,
                "durationTicks": 33,
                "midi": 74,
                "name": "D5",
                "ticks": 7320,
                "time": 16.944458,
                "velocity": 0.44881889763779526
              },
              {
                "duration": 0.0763889500000019,
                "durationTicks": 33,
                "midi": 76,
                "name": "E5",
                "ticks": 7350,
                "time": 17.0139025,
                "velocity": 0.44881889763779526
              },
              {
                "duration": 0.0763889500000019,
                "durationTicks": 33,
                "midi": 74,
                "name": "D5",
                "ticks": 7380,
                "time": 17.083347,
                "velocity": 0.44881889763779526
              },
              {
                "duration": 0.07638894999999835,
                "durationTicks": 33,
                "midi": 76,
                "name": "E5",
                "ticks": 7410,
                "time": 17.152791500000003,
                "velocity": 0.44881889763779526
              },
              {
                "duration": 0.07638894999999835,
                "durationTicks": 33,
                "midi": 74,
                "name": "D5",
                "ticks": 7440,
                "time": 17.222236000000002,
                "velocity": 0.4566929133858268
              },
              {
                "duration": 0.07638894999999835,
                "durationTicks": 33,
                "midi": 76,
                "name": "E5",
                "ticks": 7470,
                "time": 17.291680500000002,
                "velocity": 0.4566929133858268
              },
              {
                "duration": 0.07638894999999835,
                "durationTicks": 33,
                "midi": 74,
                "name": "D5",
                "ticks": 7500,
                "time": 17.361125,
                "velocity": 0.4566929133858268
              },
              {
                "duration": 0.0763889500000019,
                "durationTicks": 33,
                "midi": 76,
                "name": "E5",
                "ticks": 7530,
                "time": 17.4305695,
                "velocity": 0.4566929133858268
              },
              {
                "duration": 0.0763889500000019,
                "durationTicks": 33,
                "midi": 74,
                "name": "D5",
                "ticks": 7560,
                "time": 17.500014,
                "velocity": 0.4645669291338583
              },
              {
                "duration": 0.07638894999999835,
                "durationTicks": 33,
                "midi": 76,
                "name": "E5",
                "ticks": 7590,
                "time": 17.569458500000003,
                "velocity": 0.4645669291338583
              },
              {
                "duration": 0.07638894999999835,
                "durationTicks": 33,
                "midi": 74,
                "name": "D5",
                "ticks": 7620,
                "time": 17.638903000000003,
                "velocity": 0.4645669291338583
              },
              {
                "duration": 0.06944449999999946,
                "durationTicks": 30,
                "midi": 76,
                "name": "E5",
                "ticks": 7650,
                "time": 17.708347500000002,
                "velocity": 0.5039370078740157
              },
              {
                "duration": 0.41666700000000034,
                "durationTicks": 180,
                "midi": 74,
                "name": "D5",
                "ticks": 7680,
                "time": 17.777792,
                "velocity": 0.5039370078740157
              },
              {
                "duration": 0.13888899999999893,
                "durationTicks": 60,
                "midi": 76,
                "name": "E5",
                "ticks": 7860,
                "time": 18.194459000000002,
                "velocity": 0.5039370078740157
              },
              {
                "duration": 0.06944449999999946,
                "durationTicks": 30,
                "midi": 73,
                "name": "C#5",
                "ticks": 7920,
                "time": 18.333348,
                "velocity": 0.5039370078740157
              },
              {
                "duration": 0.06944450000000302,
                "durationTicks": 30,
                "midi": 74,
                "name": "D5",
                "ticks": 7950,
                "time": 18.4027925,
                "velocity": 0.4409448818897638
              },
              {
                "duration": 0.27777799999999786,
                "durationTicks": 120,
                "midi": 73,
                "name": "C#5",
                "ticks": 7980,
                "time": 18.472237000000003,
                "velocity": 0.5039370078740157
              },
              {
                "duration": 0.09259266666666477,
                "durationTicks": 40,
                "midi": 74,
                "name": "D5",
                "ticks": 8100,
                "time": 18.750015,
                "velocity": 0.5039370078740157
              },
              {
                "duration": 0.2777780000000014,
                "durationTicks": 120,
                "midi": 74,
                "name": "D5",
                "ticks": 8160,
                "time": 18.888904,
                "velocity": 0.5039370078740157
              },
              {
                "duration": 0.13888899999999893,
                "durationTicks": 60,
                "midi": 69,
                "name": "A4",
                "ticks": 8280,
                "time": 19.166682,
                "velocity": 0.5039370078740157
              },
              {
                "duration": 0.13888900000000248,
                "durationTicks": 60,
                "midi": 67,
                "name": "G4",
                "ticks": 8340,
                "time": 19.305571,
                "velocity": 0.5039370078740157
              },
              {
                "duration": 0.13888899999999893,
                "durationTicks": 60,
                "midi": 66,
                "name": "F#4",
                "ticks": 8400,
                "time": 19.444460000000003,
                "velocity": 0.5039370078740157
              },
              {
                "duration": 0.13888899999999893,
                "durationTicks": 60,
                "midi": 64,
                "name": "E4",
                "ticks": 8460,
                "time": 19.583349000000002,
                "velocity": 0.5039370078740157
              },
              {
                "duration": 0.13888900000000248,
                "durationTicks": 60,
                "midi": 66,
                "name": "F#4",
                "ticks": 8520,
                "time": 19.722238,
                "velocity": 0.5039370078740157
              },
              {
                "duration": 0.13888899999999893,
                "durationTicks": 60,
                "midi": 62,
                "name": "D4",
                "ticks": 8580,
                "time": 19.861127000000003,
                "velocity": 0.5039370078740157
              },
              {
                "duration": 0.06944449999999946,
                "durationTicks": 30,
                "midi": 72,
                "name": "C5",
                "ticks": 8640,
                "time": 20.000016000000002,
                "velocity": 0.5039370078740157
              },
              {
                "duration": 0.06944449999999946,
                "durationTicks": 30,
                "midi": 71,
                "name": "B4",
                "ticks": 8670,
                "time": 20.0694605,
                "velocity": 0.4409448818897638
              },
              {
                "duration": 0.2777780000000014,
                "durationTicks": 120,
                "midi": 72,
                "name": "C5",
                "ticks": 8700,
                "time": 20.138905,
                "velocity": 0.5039370078740157
              },
              {
                "duration": 0.13888899999999893,
                "durationTicks": 60,
                "midi": 71,
                "name": "B4",
                "ticks": 8820,
                "time": 20.416683000000003,
                "velocity": 0.5039370078740157
              },
              {
                "duration": 0.41666700000000034,
                "durationTicks": 180,
                "midi": 72,
                "name": "C5",
                "ticks": 8880,
                "time": 20.555572,
                "velocity": 0.5039370078740157
              },
              {
                "duration": 0.13888899999999893,
                "durationTicks": 60,
                "midi": 74,
                "name": "D5",
                "ticks": 9060,
                "time": 20.972239000000002,
                "velocity": 0.5039370078740157
              },
              {
                "duration": 0.06944449999999946,
                "durationTicks": 30,
                "midi": 71,
                "name": "B4",
                "ticks": 9120,
                "time": 21.111128,
                "velocity": 0.5039370078740157
              },
              {
                "duration": 0.06944450000000302,
                "durationTicks": 30,
                "midi": 72,
                "name": "C5",
                "ticks": 9150,
                "time": 21.1805725,
                "velocity": 0.4409448818897638
              },
              {
                "duration": 0.09259266666666477,
                "durationTicks": 40,
                "midi": 71,
                "name": "B4",
                "ticks": 9180,
                "time": 21.250017000000003,
                "velocity": 0.47244094488188976
              },
              {
                "duration": 0.2777780000000014,
                "durationTicks": 120,
                "midi": 71,
                "name": "B4",
                "ticks": 9240,
                "time": 21.388906000000002,
                "velocity": 0.5039370078740157
              },
              {
                "duration": 0.06944449999999946,
                "durationTicks": 30,
                "midi": 76,
                "name": "E5",
                "ticks": 9360,
                "time": 21.666684000000004,
                "velocity": 0.5039370078740157
              },
              {
                "duration": 0.06944449999999946,
                "durationTicks": 30,
                "midi": 74,
                "name": "D5",
                "ticks": 9390,
                "time": 21.736128500000003,
                "velocity": 0.4409448818897638
              },
              {
                "duration": 0.2314816666666637,
                "durationTicks": 100,
                "midi": 76,
                "name": "E5",
                "ticks": 9420,
                "time": 21.805573000000003,
                "velocity": 0.5039370078740157
              },
              {
                "duration": 0.11574083333333718,
                "durationTicks": 50,
                "midi": 76,
                "name": "E5",
                "ticks": 9540,
                "time": 22.083351,
                "velocity": 0.5039370078740157
              },
              {
                "duration": 0.13888899999999893,
                "durationTicks": 60,
                "midi": 76,
                "name": "E5",
                "ticks": 9600,
                "time": 22.222240000000003,
                "velocity": 0.5039370078740157
              },
              {
                "duration": 0.13888899999999893,
                "durationTicks": 60,
                "midi": 79,
                "name": "G5",
                "ticks": 9660,
                "time": 22.361129000000002,
                "velocity": 0.5039370078740157
              },
              {
                "duration": 0.13888900000000248,
                "durationTicks": 60,
                "midi": 78,
                "name": "F#5",
                "ticks": 9720,
                "time": 22.500018,
                "velocity": 0.5039370078740157
              },
              {
                "duration": 0.13888899999999893,
                "durationTicks": 60,
                "midi": 76,
                "name": "E5",
                "ticks": 9780,
                "time": 22.638907000000003,
                "velocity": 0.5039370078740157
              },
              {
                "duration": 0.13888899999999893,
                "durationTicks": 60,
                "midi": 74,
                "name": "D5",
                "ticks": 9840,
                "time": 22.777796000000002,
                "velocity": 0.5039370078740157
              },
              {
                "duration": 0.13888900000000248,
                "durationTicks": 60,
                "midi": 73,
                "name": "C#5",
                "ticks": 9900,
                "time": 22.916685,
                "velocity": 0.5039370078740157
              },
              {
                "duration": 0.13888899999999893,
                "durationTicks": 60,
                "midi": 74,
                "name": "D5",
                "ticks": 9960,
                "time": 23.055574000000004,
                "velocity": 0.5039370078740157
              },
              {
                "duration": 0.13888899999999893,
                "durationTicks": 60,
                "midi": 71,
                "name": "B4",
                "ticks": 10020,
                "time": 23.194463000000002,
                "velocity": 0.5039370078740157
              },
              {
                "duration": 0.2777780000000014,
                "durationTicks": 120,
                "midi": 70,
                "name": "A#4",
                "ticks": 10080,
                "time": 23.333352,
                "velocity": 0.5039370078740157
              },
              {
                "duration": 0.13888899999999893,
                "durationTicks": 60,
                "midi": 78,
                "name": "F#5",
                "ticks": 10200,
                "time": 23.611130000000003,
                "velocity": 0.5039370078740157
              },
              {
                "duration": 0.13888899999999893,
                "durationTicks": 60,
                "midi": 76,
                "name": "E5",
                "ticks": 10260,
                "time": 23.750019,
                "velocity": 0.5039370078740157
              },
              {
                "duration": 0.13888900000000248,
                "durationTicks": 60,
                "midi": 74,
                "name": "D5",
                "ticks": 10320,
                "time": 23.888908,
                "velocity": 0.5039370078740157
              },
              {
                "duration": 0.13888899999999893,
                "durationTicks": 60,
                "midi": 73,
                "name": "C#5",
                "ticks": 10380,
                "time": 24.027797000000003,
                "velocity": 0.5039370078740157
              },
              {
                "duration": 0.13888899999999893,
                "durationTicks": 60,
                "midi": 74,
                "name": "D5",
                "ticks": 10440,
                "time": 24.166686000000002,
                "velocity": 0.5039370078740157
              },
              {
                "duration": 0.13888900000000248,
                "durationTicks": 60,
                "midi": 71,
                "name": "B4",
                "ticks": 10500,
                "time": 24.305575,
                "velocity": 0.5039370078740157
              },
              {
                "duration": 0.27777799999999786,
                "durationTicks": 120,
                "midi": 76,
                "name": "E5",
                "ticks": 10560,
                "time": 24.444464000000004,
                "velocity": 0.5039370078740157
              },
              {
                "duration": 0.13888900000000248,
                "durationTicks": 60,
                "midi": 83,
                "name": "B5",
                "ticks": 10680,
                "time": 24.722242,
                "velocity": 0.5039370078740157
              },
              {
                "duration": 0.13888899999999893,
                "durationTicks": 60,
                "midi": 81,
                "name": "A5",
                "ticks": 10740,
                "time": 24.861131000000004,
                "velocity": 0.5039370078740157
              },
              {
                "duration": 0.13888899999999893,
                "durationTicks": 60,
                "midi": 79,
                "name": "G5",
                "ticks": 10800,
                "time": 25.000020000000003,
                "velocity": 0.5039370078740157
              },
              {
                "duration": 0.13888899999999893,
                "durationTicks": 60,
                "midi": 78,
                "name": "F#5",
                "ticks": 10860,
                "time": 25.138909,
                "velocity": 0.5039370078740157
              },
              {
                "duration": 0.13888900000000248,
                "durationTicks": 60,
                "midi": 79,
                "name": "G5",
                "ticks": 10920,
                "time": 25.277798,
                "velocity": 0.5039370078740157
              },
              {
                "duration": 0.13888899999999893,
                "durationTicks": 60,
                "midi": 76,
                "name": "E5",
                "ticks": 10980,
                "time": 25.416687000000003,
                "velocity": 0.5039370078740157
              },
              {
                "duration": 0.2777780000000014,
                "durationTicks": 120,
                "midi": 82,
                "name": "A#5",
                "ticks": 11040,
                "time": 25.555576000000002,
                "velocity": 0.5039370078740157
              },
              {
                "duration": 0.27777799999999786,
                "durationTicks": 120,
                "midi": 73,
                "name": "C#5",
                "ticks": 11160,
                "time": 25.833354000000003,
                "velocity": 0.5039370078740157
              },
              {
                "duration": 0.2777780000000014,
                "durationTicks": 120,
                "midi": 78,
                "name": "F#5",
                "ticks": 11280,
                "time": 26.111132,
                "velocity": 0.5039370078740157
              },
              {
                "duration": 0.27777799999999786,
                "durationTicks": 120,
                "midi": 70,
                "name": "A#4",
                "ticks": 11400,
                "time": 26.388910000000003,
                "velocity": 0.5039370078740157
              },
              {
                "duration": 0.41666700000000034,
                "durationTicks": 180,
                "midi": 71,
                "name": "B4",
                "ticks": 11520,
                "time": 26.666688,
                "velocity": 0.5039370078740157
              },
              {
                "duration": 0.13888900000000248,
                "durationTicks": 60,
                "midi": 73,
                "name": "C#5",
                "ticks": 11700,
                "time": 27.083355,
                "velocity": 0.5039370078740157
              },
              {
                "duration": 0.06944449999999946,
                "durationTicks": 30,
                "midi": 73,
                "name": "C#5",
                "ticks": 11760,
                "time": 27.222244000000003,
                "velocity": 0.5039370078740157
              },
              {
                "duration": 0.06944449999999946,
                "durationTicks": 30,
                "midi": 74,
                "name": "D5",
                "ticks": 11790,
                "time": 27.291688500000003,
                "velocity": 0.4409448818897638
              },
              {
                "duration": 0.2777780000000014,
                "durationTicks": 120,
                "midi": 73,
                "name": "C#5",
                "ticks": 11820,
                "time": 27.361133000000002,
                "velocity": 0.5039370078740157
              },
              {
                "duration": 0.13888899999999893,
                "durationTicks": 60,
                "midi": 71,
                "name": "B4",
                "ticks": 11940,
                "time": 27.638911000000004,
                "velocity": 0.5039370078740157
              },
              {
                "duration": 0.2777780000000014,
                "durationTicks": 120,
                "midi": 71,
                "name": "B4",
                "ticks": 12000,
                "time": 27.777800000000003,
                "velocity": 0.5039370078740157
              },
              {
                "duration": 0.27777799999999786,
                "durationTicks": 120,
                "midi": 74,
                "name": "D5",
                "ticks": 12120,
                "time": 28.055578000000004,
                "velocity": 0.5039370078740157
              },
              {
                "duration": 0.2777780000000014,
                "durationTicks": 120,
                "midi": 64,
                "name": "E4",
                "ticks": 12240,
                "time": 28.333356000000002,
                "velocity": 0.5039370078740157
              },
              {
                "duration": 0.27777799999999786,
                "durationTicks": 120,
                "midi": 74,
                "name": "D5",
                "ticks": 12360,
                "time": 28.611134000000003,
                "velocity": 0.5039370078740157
              },
              {
                "duration": 0.2777780000000014,
                "durationTicks": 120,
                "midi": 72,
                "name": "C5",
                "ticks": 12480,
                "time": 28.888912,
                "velocity": 0.5039370078740157
              },
              {
                "duration": 0.2777780000000014,
                "durationTicks": 120,
                "midi": 69,
                "name": "A4",
                "ticks": 12600,
                "time": 29.166690000000003,
                "velocity": 0.5039370078740157
              },
              {
                "duration": 0.27777799999999786,
                "durationTicks": 120,
                "midi": 62,
                "name": "D4",
                "ticks": 12720,
                "time": 29.444468000000004,
                "velocity": 0.5039370078740157
              },
              {
                "duration": 0.2777780000000014,
                "durationTicks": 120,
                "midi": 72,
                "name": "C5",
                "ticks": 12840,
                "time": 29.722246000000002,
                "velocity": 0.5039370078740157
              },
              {
                "duration": 0.27777799999999786,
                "durationTicks": 120,
                "midi": 71,
                "name": "B4",
                "ticks": 12960,
                "time": 30.000024000000003,
                "velocity": 0.5039370078740157
              },
              {
                "duration": 0.2777780000000014,
                "durationTicks": 120,
                "midi": 74,
                "name": "D5",
                "ticks": 13080,
                "time": 30.277802,
                "velocity": 0.5039370078740157
              },
              {
                "duration": 0.2777780000000014,
                "durationTicks": 120,
                "midi": 79,
                "name": "G5",
                "ticks": 13200,
                "time": 30.555580000000003,
                "velocity": 0.5039370078740157
              },
              {
                "duration": 0.27777799999999786,
                "durationTicks": 120,
                "midi": 71,
                "name": "B4",
                "ticks": 13320,
                "time": 30.833358000000004,
                "velocity": 0.5039370078740157
              },
              {
                "duration": 0.2777780000000014,
                "durationTicks": 120,
                "midi": 69,
                "name": "A4",
                "ticks": 13440,
                "time": 31.111136000000002,
                "velocity": 0.5039370078740157
              },
              {
                "duration": 0.27777799999999786,
                "durationTicks": 120,
                "midi": 78,
                "name": "F#5",
                "ticks": 13560,
                "time": 31.388914000000003,
                "velocity": 0.5039370078740157
              },
              {
                "duration": 0.2777780000000014,
                "durationTicks": 120,
                "midi": 67,
                "name": "G4",
                "ticks": 13680,
                "time": 31.666692,
                "velocity": 0.5039370078740157
              },
              {
                "duration": 0.27777799999999786,
                "durationTicks": 120,
                "midi": 76,
                "name": "E5",
                "ticks": 13800,
                "time": 31.944470000000003,
                "velocity": 0.5039370078740157
              },
              {
                "duration": 0.06944450000000302,
                "durationTicks": 30,
                "midi": 75,
                "name": "D#5",
                "ticks": 13920,
                "time": 32.222248,
                "velocity": 0.5039370078740157
              },
              {
                "duration": 0.06944449999999591,
                "durationTicks": 30,
                "midi": 76,
                "name": "E5",
                "ticks": 13950,
                "time": 32.2916925,
                "velocity": 0.4409448818897638
              },
              {
                "duration": 0.13888900000000604,
                "durationTicks": 60,
                "midi": 75,
                "name": "D#5",
                "ticks": 13980,
                "time": 32.361137,
                "velocity": 0.5039370078740157
              },
              {
                "duration": 0.13888899999999893,
                "durationTicks": 60,
                "midi": 78,
                "name": "F#5",
                "ticks": 14040,
                "time": 32.500026000000005,
                "velocity": 0.5039370078740157
              },
              {
                "duration": 0.13888899999999893,
                "durationTicks": 60,
                "midi": 76,
                "name": "E5",
                "ticks": 14100,
                "time": 32.638915000000004,
                "velocity": 0.5039370078740157
              },
              {
                "duration": 0.13888899999999893,
                "durationTicks": 60,
                "midi": 74,
                "name": "D5",
                "ticks": 14160,
                "time": 32.777804,
                "velocity": 0.5039370078740157
              },
              {
                "duration": 0.13888899999999893,
                "durationTicks": 60,
                "midi": 73,
                "name": "C#5",
                "ticks": 14220,
                "time": 32.916693,
                "velocity": 0.5039370078740157
              },
              {
                "duration": 0.13888899999999893,
                "durationTicks": 60,
                "midi": 71,
                "name": "B4",
                "ticks": 14280,
                "time": 33.055582,
                "velocity": 0.5039370078740157
              },
              {
                "duration": 0.13888900000000604,
                "durationTicks": 60,
                "midi": 69,
                "name": "A4",
                "ticks": 14340,
                "time": 33.194471,
                "velocity": 0.5039370078740157
              },
              {
                "duration": 0.13888899999999893,
                "durationTicks": 60,
                "midi": 67,
                "name": "G4",
                "ticks": 14400,
                "time": 33.333360000000006,
                "velocity": 0.5039370078740157
              },
              {
                "duration": 0.13888899999999893,
                "durationTicks": 60,
                "midi": 66,
                "name": "F#4",
                "ticks": 14460,
                "time": 33.472249000000005,
                "velocity": 0.5039370078740157
              },
              {
                "duration": 0.13888899999999893,
                "durationTicks": 60,
                "midi": 67,
                "name": "G4",
                "ticks": 14520,
                "time": 33.611138000000004,
                "velocity": 0.5039370078740157
              },
              {
                "duration": 0.13888899999999893,
                "durationTicks": 60,
                "midi": 71,
                "name": "B4",
                "ticks": 14580,
                "time": 33.750027,
                "velocity": 0.5039370078740157
              },
              {
                "duration": 0.13888899999999893,
                "durationTicks": 60,
                "midi": 76,
                "name": "E5",
                "ticks": 14640,
                "time": 33.888916,
                "velocity": 0.5039370078740157
              },
              {
                "duration": 0.13888899999999893,
                "durationTicks": 60,
                "midi": 71,
                "name": "B4",
                "ticks": 14700,
                "time": 34.027805,
                "velocity": 0.5039370078740157
              },
              {
                "duration": 0.13888900000000604,
                "durationTicks": 60,
                "midi": 69,
                "name": "A4",
                "ticks": 14760,
                "time": 34.166694,
                "velocity": 0.5039370078740157
              },
              {
                "duration": 0.13888899999999893,
                "durationTicks": 60,
                "midi": 67,
                "name": "G4",
                "ticks": 14820,
                "time": 34.305583000000006,
                "velocity": 0.5039370078740157
              },
              {
                "duration": 0.13888899999999893,
                "durationTicks": 60,
                "midi": 66,
                "name": "F#4",
                "ticks": 14880,
                "time": 34.444472000000005,
                "velocity": 0.5039370078740157
              },
              {
                "duration": 0.13888899999999893,
                "durationTicks": 60,
                "midi": 64,
                "name": "E4",
                "ticks": 14940,
                "time": 34.583361000000004,
                "velocity": 0.5039370078740157
              },
              {
                "duration": 0.13888899999999893,
                "durationTicks": 60,
                "midi": 66,
                "name": "F#4",
                "ticks": 15000,
                "time": 34.72225,
                "velocity": 0.5039370078740157
              },
              {
                "duration": 0.13888899999999893,
                "durationTicks": 60,
                "midi": 69,
                "name": "A4",
                "ticks": 15060,
                "time": 34.861139,
                "velocity": 0.5039370078740157
              },
              {
                "duration": 0.13888900000000604,
                "durationTicks": 60,
                "midi": 74,
                "name": "D5",
                "ticks": 15120,
                "time": 35.000028,
                "velocity": 0.5039370078740157
              },
              {
                "duration": 0.13888899999999893,
                "durationTicks": 60,
                "midi": 69,
                "name": "A4",
                "ticks": 15180,
                "time": 35.138917000000006,
                "velocity": 0.5039370078740157
              },
              {
                "duration": 0.13888899999999893,
                "durationTicks": 60,
                "midi": 67,
                "name": "G4",
                "ticks": 15240,
                "time": 35.277806000000005,
                "velocity": 0.5039370078740157
              },
              {
                "duration": 0.13888899999999893,
                "durationTicks": 60,
                "midi": 66,
                "name": "F#4",
                "ticks": 15300,
                "time": 35.416695000000004,
                "velocity": 0.5039370078740157
              },
              {
                "duration": 0.13888899999999893,
                "durationTicks": 60,
                "midi": 64,
                "name": "E4",
                "ticks": 15360,
                "time": 35.555584,
                "velocity": 0.5039370078740157
              },
              {
                "duration": 0.13888899999999893,
                "durationTicks": 60,
                "midi": 63,
                "name": "D#4",
                "ticks": 15420,
                "time": 35.694473,
                "velocity": 0.5039370078740157
              },
              {
                "duration": 0.13888899999999893,
                "durationTicks": 60,
                "midi": 64,
                "name": "E4",
                "ticks": 15480,
                "time": 35.833362,
                "velocity": 0.5039370078740157
              },
              {
                "duration": 0.13888900000000604,
                "durationTicks": 60,
                "midi": 67,
                "name": "G4",
                "ticks": 15540,
                "time": 35.972251,
                "velocity": 0.5039370078740157
              },
              {
                "duration": 0.13888899999999893,
                "durationTicks": 60,
                "midi": 72,
                "name": "C5",
                "ticks": 15600,
                "time": 36.111140000000006,
                "velocity": 0.5039370078740157
              },
              {
                "duration": 0.13888899999999893,
                "durationTicks": 60,
                "midi": 67,
                "name": "G4",
                "ticks": 15660,
                "time": 36.250029000000005,
                "velocity": 0.5039370078740157
              },
              {
                "duration": 0.13888899999999893,
                "durationTicks": 60,
                "midi": 66,
                "name": "F#4",
                "ticks": 15720,
                "time": 36.388918000000004,
                "velocity": 0.5039370078740157
              },
              {
                "duration": 0.13888899999999893,
                "durationTicks": 60,
                "midi": 64,
                "name": "E4",
                "ticks": 15780,
                "time": 36.527807,
                "velocity": 0.5039370078740157
              },
              {
                "duration": 0.13888899999999893,
                "durationTicks": 60,
                "midi": 62,
                "name": "D4",
                "ticks": 15840,
                "time": 36.666696,
                "velocity": 0.5039370078740157
              },
              {
                "duration": 0.13888900000000604,
                "durationTicks": 60,
                "midi": 61,
                "name": "C#4",
                "ticks": 15900,
                "time": 36.805585,
                "velocity": 0.5039370078740157
              },
              {
                "duration": 0.13888899999999893,
                "durationTicks": 60,
                "midi": 62,
                "name": "D4",
                "ticks": 15960,
                "time": 36.94447400000001,
                "velocity": 0.5039370078740157
              },
              {
                "duration": 0.13888899999999893,
                "durationTicks": 60,
                "midi": 66,
                "name": "F#4",
                "ticks": 16020,
                "time": 37.083363000000006,
                "velocity": 0.5039370078740157
              },
              {
                "duration": 0.23148166666666725,
                "durationTicks": 100,
                "midi": 71,
                "name": "B4",
                "ticks": 16080,
                "time": 37.222252000000005,
                "velocity": 0.5039370078740157
              },
              {
                "duration": 0.23148166666666725,
                "durationTicks": 100,
                "midi": 71,
                "name": "B4",
                "ticks": 16200,
                "time": 37.50003,
                "velocity": 0.5039370078740157
              },
              {
                "duration": 0.6712968333333365,
                "durationTicks": 290,
                "midi": 71,
                "name": "B4",
                "ticks": 16320,
                "time": 37.777808,
                "velocity": 0.5039370078740157
              },
              {
                "duration": 0.13888899999999893,
                "durationTicks": 60,
                "midi": 75,
                "name": "D#5",
                "ticks": 16620,
                "time": 38.472253,
                "velocity": 0.5039370078740157
              },
              {
                "duration": 0.13888900000000604,
                "durationTicks": 60,
                "midi": 76,
                "name": "E5",
                "ticks": 16680,
                "time": 38.611142,
                "velocity": 0.5039370078740157
              },
              {
                "duration": 0.13888899999999893,
                "durationTicks": 60,
                "midi": 79,
                "name": "G5",
                "ticks": 16740,
                "time": 38.75003100000001,
                "velocity": 0.5039370078740157
              },
              {
                "duration": 0.6712968333333293,
                "durationTicks": 290,
                "midi": 69,
                "name": "A4",
                "ticks": 16800,
                "time": 38.888920000000006,
                "velocity": 0.5039370078740157
              },
              {
                "duration": 0.13888900000000604,
                "durationTicks": 60,
                "midi": 73,
                "name": "C#5",
                "ticks": 17100,
                "time": 39.583365,
                "velocity": 0.5039370078740157
              },
              {
                "duration": 0.13888899999999893,
                "durationTicks": 60,
                "midi": 74,
                "name": "D5",
                "ticks": 17160,
                "time": 39.72225400000001,
                "velocity": 0.5039370078740157
              },
              {
                "duration": 0.13888899999999893,
                "durationTicks": 60,
                "midi": 78,
                "name": "F#5",
                "ticks": 17220,
                "time": 39.861143000000006,
                "velocity": 0.5039370078740157
              },
              {
                "duration": 0.6712968333333293,
                "durationTicks": 290,
                "midi": 67,
                "name": "G4",
                "ticks": 17280,
                "time": 40.000032000000004,
                "velocity": 0.5039370078740157
              },
              {
                "duration": 0.13888899999999893,
                "durationTicks": 60,
                "midi": 71,
                "name": "B4",
                "ticks": 17580,
                "time": 40.694477000000006,
                "velocity": 0.5039370078740157
              },
              {
                "duration": 0.13888899999999893,
                "durationTicks": 60,
                "midi": 75,
                "name": "D#5",
                "ticks": 17640,
                "time": 40.833366000000005,
                "velocity": 0.5039370078740157
              },
              {
                "duration": 0.13888899999999893,
                "durationTicks": 60,
                "midi": 76,
                "name": "E5",
                "ticks": 17700,
                "time": 40.972255000000004,
                "velocity": 0.5039370078740157
              },
              {
                "duration": 0.13888899999999893,
                "durationTicks": 60,
                "midi": 66,
                "name": "F#4",
                "ticks": 17760,
                "time": 41.111144,
                "velocity": 0.5039370078740157
              },
              {
                "duration": 0.13888899999999893,
                "durationTicks": 60,
                "midi": 69,
                "name": "A4",
                "ticks": 17820,
                "time": 41.250033,
                "velocity": 0.5039370078740157
              },
              {
                "duration": 0.13888900000000604,
                "durationTicks": 60,
                "midi": 71,
                "name": "B4",
                "ticks": 17880,
                "time": 41.388922,
                "velocity": 0.5039370078740157
              },
              {
                "duration": 0.13888899999999893,
                "durationTicks": 60,
                "midi": 72,
                "name": "C5",
                "ticks": 17940,
                "time": 41.52781100000001,
                "velocity": 0.5039370078740157
              },
              {
                "duration": 0.13888899999999893,
                "durationTicks": 60,
                "midi": 63,
                "name": "D#4",
                "ticks": 18000,
                "time": 41.666700000000006,
                "velocity": 0.5039370078740157
              },
              {
                "duration": 0.13888899999999893,
                "durationTicks": 60,
                "midi": 66,
                "name": "F#4",
                "ticks": 18060,
                "time": 41.805589000000005,
                "velocity": 0.5039370078740157
              },
              {
                "duration": 0.13888899999999893,
                "durationTicks": 60,
                "midi": 67,
                "name": "G4",
                "ticks": 18120,
                "time": 41.944478000000004,
                "velocity": 0.5039370078740157
              },
              {
                "duration": 0.13888899999999893,
                "durationTicks": 60,
                "midi": 69,
                "name": "A4",
                "ticks": 18180,
                "time": 42.083367,
                "velocity": 0.5039370078740157
              },
              {
                "duration": 0.27777800000000497,
                "durationTicks": 120,
                "midi": 59,
                "name": "B3",
                "ticks": 18240,
                "time": 42.222256,
                "velocity": 0.5039370078740157
              },
              {
                "duration": 0.4166669999999968,
                "durationTicks": 180,
                "midi": 69,
                "name": "A4",
                "ticks": 18360,
                "time": 42.50003400000001,
                "velocity": 0.5039370078740157
              },
              {
                "duration": 0.13888899999999893,
                "durationTicks": 60,
                "midi": 66,
                "name": "F#4",
                "ticks": 18540,
                "time": 42.916701,
                "velocity": 0.5039370078740157
              },
              {
                "duration": 0.13888899999999893,
                "durationTicks": 60,
                "midi": 71,
                "name": "B4",
                "ticks": 18600,
                "time": 43.05559,
                "velocity": 0.5039370078740157
              },
              {
                "duration": 0.13888900000000604,
                "durationTicks": 60,
                "midi": 66,
                "name": "F#4",
                "ticks": 18660,
                "time": 43.194479,
                "velocity": 0.5039370078740157
              },
              {
                "duration": 0.27777799999999786,
                "durationTicks": 120,
                "midi": 67,
                "name": "G4",
                "ticks": 18720,
                "time": 43.33336800000001,
                "velocity": 0.5039370078740157
              },
              {
                "duration": 0.27777799999999786,
                "durationTicks": 120,
                "midi": 64,
                "name": "E4",
                "ticks": 18840,
                "time": 43.611146000000005,
                "velocity": 0.5039370078740157
              },
              {
                "duration": 0.06944450000000302,
                "durationTicks": 30,
                "midi": 72,
                "name": "C5",
                "ticks": 18960,
                "time": 43.888924,
                "velocity": 0.5039370078740157
              },
              {
                "duration": 0.06944449999999591,
                "durationTicks": 30,
                "midi": 71,
                "name": "B4",
                "ticks": 18990,
                "time": 43.958368500000006,
                "velocity": 0.4409448818897638
              },
              {
                "duration": 0.23148166666667436,
                "durationTicks": 100,
                "midi": 72,
                "name": "C5",
                "ticks": 19020,
                "time": 44.027813,
                "velocity": 0.5039370078740157
              },
              {
                "duration": 0.11574083333332652,
                "durationTicks": 50,
                "midi": 72,
                "name": "C5",
                "ticks": 19140,
                "time": 44.30559100000001,
                "velocity": 0.5039370078740157
              },
              {
                "duration": 0.06944449999999591,
                "durationTicks": 30,
                "midi": 72,
                "name": "C5",
                "ticks": 19200,
                "time": 44.444480000000006,
                "velocity": 0.5039370078740157
              },
              {
                "duration": 0.06944450000000302,
                "durationTicks": 30,
                "midi": 74,
                "name": "D5",
                "ticks": 19230,
                "time": 44.5139245,
                "velocity": 0.4409448818897638
              },
              {
                "duration": 0.13888899999999893,
                "durationTicks": 60,
                "midi": 72,
                "name": "C5",
                "ticks": 19260,
                "time": 44.583369000000005,
                "velocity": 0.5039370078740157
              },
              {
                "duration": 0.27777799999999786,
                "durationTicks": 120,
                "midi": 71,
                "name": "B4",
                "ticks": 19320,
                "time": 44.722258000000004,
                "velocity": 0.5039370078740157
              },
              {
                "duration": 0.4166670000000039,
                "durationTicks": 180,
                "midi": 79,
                "name": "G5",
                "ticks": 19440,
                "time": 45.000036,
                "velocity": 0.5039370078740157
              },
              {
                "duration": 0.13888899999999893,
                "durationTicks": 60,
                "midi": 79,
                "name": "G5",
                "ticks": 19620,
                "time": 45.416703000000005,
                "velocity": 0.5039370078740157
              },
              {
                "duration": 0.13888899999999893,
                "durationTicks": 60,
                "midi": 79,
                "name": "G5",
                "ticks": 19680,
                "time": 45.555592000000004,
                "velocity": 0.5039370078740157
              },
              {
                "duration": 0.13888899999999893,
                "durationTicks": 60,
                "midi": 81,
                "name": "A5",
                "ticks": 19740,
                "time": 45.694481,
                "velocity": 0.5039370078740157
              },
              {
                "duration": 0.13888899999999893,
                "durationTicks": 60,
                "midi": 79,
                "name": "G5",
                "ticks": 19800,
                "time": 45.83337,
                "velocity": 0.5039370078740157
              },
              {
                "duration": 0.13888900000000604,
                "durationTicks": 60,
                "midi": 78,
                "name": "F#5",
                "ticks": 19860,
                "time": 45.972259,
                "velocity": 0.5039370078740157
              },
              {
                "duration": 0.06944449999999591,
                "durationTicks": 30,
                "midi": 78,
                "name": "F#5",
                "ticks": 19920,
                "time": 46.11114800000001,
                "velocity": 0.5039370078740157
              },
              {
                "duration": 0.06944450000000302,
                "durationTicks": 30,
                "midi": 79,
                "name": "G5",
                "ticks": 19950,
                "time": 46.1805925,
                "velocity": 0.4409448818897638
              },
              {
                "duration": 0.27777799999999786,
                "durationTicks": 120,
                "midi": 78,
                "name": "F#5",
                "ticks": 19980,
                "time": 46.250037000000006,
                "velocity": 0.5039370078740157
              },
              {
                "duration": 0.13888899999999893,
                "durationTicks": 60,
                "midi": 76,
                "name": "E5",
                "ticks": 20100,
                "time": 46.527815000000004,
                "velocity": 0.5039370078740157
              },
              {
                "duration": 0.13888899999999893,
                "durationTicks": 60,
                "midi": 76,
                "name": "E5",
                "ticks": 20160,
                "time": 46.666704,
                "velocity": 0.5039370078740157
              },
              {
                "duration": 0.13888899999999893,
                "durationTicks": 60,
                "midi": 74,
                "name": "D5",
                "ticks": 20220,
                "time": 46.805593,
                "velocity": 0.5039370078740157
              },
              {
                "duration": 0.13888900000000604,
                "durationTicks": 60,
                "midi": 72,
                "name": "C5",
                "ticks": 20280,
                "time": 46.944482,
                "velocity": 0.5039370078740157
              },
              {
                "duration": 0.13888899999999893,
                "durationTicks": 60,
                "midi": 71,
                "name": "B4",
                "ticks": 20340,
                "time": 47.08337100000001,
                "velocity": 0.5039370078740157
              },
              {
                "duration": 0.13888899999999893,
                "durationTicks": 60,
                "midi": 69,
                "name": "A4",
                "ticks": 20400,
                "time": 47.222260000000006,
                "velocity": 0.5039370078740157
              },
              {
                "duration": 0.13888899999999893,
                "durationTicks": 60,
                "midi": 67,
                "name": "G4",
                "ticks": 20460,
                "time": 47.361149000000005,
                "velocity": 0.5039370078740157
              },
              {
                "duration": 0.13888899999999893,
                "durationTicks": 60,
                "midi": 69,
                "name": "A4",
                "ticks": 20520,
                "time": 47.500038,
                "velocity": 0.5039370078740157
              },
              {
                "duration": 0.13888899999999893,
                "durationTicks": 60,
                "midi": 66,
                "name": "F#4",
                "ticks": 20580,
                "time": 47.638927,
                "velocity": 0.5039370078740157
              },
              {
                "duration": 0.27777800000000497,
                "durationTicks": 120,
                "midi": 75,
                "name": "D#5",
                "ticks": 20640,
                "time": 47.777816,
                "velocity": 0.5039370078740157
              },
              {
                "duration": 0.27777799999999786,
                "durationTicks": 120,
                "midi": 66,
                "name": "F#4",
                "ticks": 20760,
                "time": 48.055594000000006,
                "velocity": 0.5039370078740157
              },
              {
                "duration": 0.4166669999999968,
                "durationTicks": 180,
                "midi": 71,
                "name": "B4",
                "ticks": 20880,
                "time": 48.333372000000004,
                "velocity": 0.5039370078740157
              },
              {
                "duration": 0.13888900000000604,
                "durationTicks": 60,
                "midi": 72,
                "name": "C5",
                "ticks": 21060,
                "time": 48.750039,
                "velocity": 0.5039370078740157
              },
              {
                "duration": 0.06944449999999591,
                "durationTicks": 30,
                "midi": 69,
                "name": "A4",
                "ticks": 21120,
                "time": 48.88892800000001,
                "velocity": 0.5039370078740157
              },
              {
                "duration": 0.06944450000000302,
                "durationTicks": 30,
                "midi": 71,
                "name": "B4",
                "ticks": 21150,
                "time": 48.9583725,
                "velocity": 0.4409448818897638
              },
              {
                "duration": 0.27777799999999786,
                "durationTicks": 120,
                "midi": 69,
                "name": "A4",
                "ticks": 21180,
                "time": 49.027817000000006,
                "velocity": 0.5039370078740157
              },
              {
                "duration": 0.13888899999999893,
                "durationTicks": 60,
                "midi": 67,
                "name": "G4",
                "ticks": 21300,
                "time": 49.305595000000004,
                "velocity": 0.5039370078740157
              },
              {
                "duration": 0.06944450000000302,
                "durationTicks": 30,
                "midi": 66,
                "name": "F#4",
                "ticks": 21360,
                "time": 49.444484,
                "velocity": 0.5039370078740157
              },
              {
                "duration": 0.06944449999999591,
                "durationTicks": 30,
                "midi": 67,
                "name": "G4",
                "ticks": 21390,
                "time": 49.513928500000006,
                "velocity": 0.4409448818897638
              },
              {
                "duration": 0.27777800000000497,
                "durationTicks": 120,
                "midi": 66,
                "name": "F#4",
                "ticks": 21420,
                "time": 49.583373,
                "velocity": 0.5039370078740157
              },
              {
                "duration": 0.13888899999999893,
                "durationTicks": 60,
                "midi": 64,
                "name": "E4",
                "ticks": 21540,
                "time": 49.86115100000001,
                "velocity": 0.5039370078740157
              },
              {
                "duration": 1.1111119999999985,
                "durationTicks": 480,
                "midi": 64,
                "name": "E4",
                "ticks": 21600,
                "time": 50.000040000000006,
                "velocity": 0.5039370078740157
              }
            ],
            "endOfTrackTicks": 22080
          },
          {
            "channel": 1,
            "controlChanges": {},
            "pitchBends": [],
            "instrument": {
              "family": "piano",
              "number": 0,
              "name": "acoustic grand piano"
            },
            "name": "",
            "notes": [
              {
                "duration": 0.0694445,
                "durationTicks": 30,
                "midi": 52,
                "name": "E3",
                "ticks": 0,
                "time": 0,
                "velocity": 0.5039370078740157
              },
              {
                "duration": 0.0694445,
                "durationTicks": 30,
                "midi": 51,
                "name": "D#3",
                "ticks": 30,
                "time": 0.0694445,
                "velocity": 0.4409448818897638
              },
              {
                "duration": 0.138889,
                "durationTicks": 60,
                "midi": 52,
                "name": "E3",
                "ticks": 60,
                "time": 0.138889,
                "velocity": 0.5039370078740157
              },
              {
                "duration": 0.277778,
                "durationTicks": 120,
                "midi": 40,
                "name": "E2",
                "ticks": 120,
                "time": 0.277778,
                "velocity": 0.5039370078740157
              },
              {
                "duration": 0.13888900000000004,
                "durationTicks": 60,
                "midi": 59,
                "name": "B3",
                "ticks": 600,
                "time": 1.3888900000000002,
                "velocity": 0.5039370078740157
              },
              {
                "duration": 0.13888899999999982,
                "durationTicks": 60,
                "midi": 57,
                "name": "A3",
                "ticks": 660,
                "time": 1.5277790000000002,
                "velocity": 0.5039370078740157
              },
              {
                "duration": 0.13888900000000004,
                "durationTicks": 60,
                "midi": 55,
                "name": "G3",
                "ticks": 720,
                "time": 1.666668,
                "velocity": 0.5039370078740157
              },
              {
                "duration": 0.13888900000000004,
                "durationTicks": 60,
                "midi": 54,
                "name": "F#3",
                "ticks": 780,
                "time": 1.805557,
                "velocity": 0.5039370078740157
              },
              {
                "duration": 0.13888900000000026,
                "durationTicks": 60,
                "midi": 55,
                "name": "G3",
                "ticks": 840,
                "time": 1.9444460000000001,
                "velocity": 0.5039370078740157
              },
              {
                "duration": 0.13888899999999982,
                "durationTicks": 60,
                "midi": 52,
                "name": "E3",
                "ticks": 900,
                "time": 2.0833350000000004,
                "velocity": 0.5039370078740157
              },
              {
                "duration": 0.2777780000000001,
                "durationTicks": 120,
                "midi": 59,
                "name": "B3",
                "ticks": 960,
                "time": 2.222224,
                "velocity": 0.5039370078740157
              },
              {
                "duration": 0.2777780000000001,
                "durationTicks": 120,
                "midi": 47,
                "name": "B2",
                "ticks": 1080,
                "time": 2.5000020000000003,
                "velocity": 0.5039370078740157
              },
              {
                "duration": 0.13888900000000026,
                "durationTicks": 60,
                "midi": 66,
                "name": "F#4",
                "ticks": 1560,
                "time": 3.611114,
                "velocity": 0.5039370078740157
              },
              {
                "duration": 0.13888899999999982,
                "durationTicks": 60,
                "midi": 64,
                "name": "E4",
                "ticks": 1620,
                "time": 3.7500030000000004,
                "velocity": 0.5039370078740157
              },
              {
                "duration": 0.13888899999999982,
                "durationTicks": 60,
                "midi": 63,
                "name": "D#4",
                "ticks": 1680,
                "time": 3.8888920000000002,
                "velocity": 0.5039370078740157
              },
              {
                "duration": 0.1388890000000007,
                "durationTicks": 60,
                "midi": 61,
                "name": "C#4",
                "ticks": 1740,
                "time": 4.027781,
                "velocity": 0.5039370078740157
              },
              {
                "duration": 0.13888899999999982,
                "durationTicks": 60,
                "midi": 63,
                "name": "D#4",
                "ticks": 1800,
                "time": 4.166670000000001,
                "velocity": 0.5039370078740157
              },
              {
                "duration": 0.13888899999999982,
                "durationTicks": 60,
                "midi": 59,
                "name": "B3",
                "ticks": 1860,
                "time": 4.305559000000001,
                "velocity": 0.5039370078740157
              },
              {
                "duration": 0.27777799999999964,
                "durationTicks": 120,
                "midi": 64,
                "name": "E4",
                "ticks": 1920,
                "time": 4.444448,
                "velocity": 0.5039370078740157
              },
              {
                "duration": 0.2777780000000005,
                "durationTicks": 120,
                "midi": 52,
                "name": "E3",
                "ticks": 2040,
                "time": 4.722226,
                "velocity": 0.5039370078740157
              },
              {
                "duration": 0.13888899999999982,
                "durationTicks": 60,
                "midi": 64,
                "name": "E4",
                "ticks": 2520,
                "time": 5.833338,
                "velocity": 0.5039370078740157
              },
              {
                "duration": 0.1388890000000007,
                "durationTicks": 60,
                "midi": 62,
                "name": "D4",
                "ticks": 2580,
                "time": 5.972227,
                "velocity": 0.5039370078740157
              },
              {
                "duration": 0.13888899999999982,
                "durationTicks": 60,
                "midi": 60,
                "name": "C4",
                "ticks": 2640,
                "time": 6.111116000000001,
                "velocity": 0.5039370078740157
              },
              {
                "duration": 0.13888899999999982,
                "durationTicks": 60,
                "midi": 59,
                "name": "B3",
                "ticks": 2700,
                "time": 6.250005000000001,
                "velocity": 0.5039370078740157
              },
              {
                "duration": 0.13888899999999982,
                "durationTicks": 60,
                "midi": 60,
                "name": "C4",
                "ticks": 2760,
                "time": 6.3888940000000005,
                "velocity": 0.5039370078740157
              },
              {
                "duration": 0.13888899999999982,
                "durationTicks": 60,
                "midi": 57,
                "name": "A3",
                "ticks": 2820,
                "time": 6.527783,
                "velocity": 0.5039370078740157
              },
              {
                "duration": 0.2777780000000005,
                "durationTicks": 120,
                "midi": 62,
                "name": "D4",
                "ticks": 2880,
                "time": 6.666672,
                "velocity": 0.5039370078740157
              },
              {
                "duration": 0.27777799999999964,
                "durationTicks": 120,
                "midi": 50,
                "name": "D3",
                "ticks": 3000,
                "time": 6.944450000000001,
                "velocity": 0.5039370078740157
              },
              {
                "duration": 0.1388890000000007,
                "durationTicks": 60,
                "midi": 62,
                "name": "D4",
                "ticks": 3480,
                "time": 8.055562,
                "velocity": 0.5039370078740157
              },
              {
                "duration": 0.1388890000000007,
                "durationTicks": 60,
                "midi": 60,
                "name": "C4",
                "ticks": 3540,
                "time": 8.194451,
                "velocity": 0.5039370078740157
              },
              {
                "duration": 0.13888899999999893,
                "durationTicks": 60,
                "midi": 59,
                "name": "B3",
                "ticks": 3600,
                "time": 8.333340000000002,
                "velocity": 0.5039370078740157
              },
              {
                "duration": 0.1388890000000007,
                "durationTicks": 60,
                "midi": 57,
                "name": "A3",
                "ticks": 3660,
                "time": 8.472229,
                "velocity": 0.5039370078740157
              },
              {
                "duration": 0.13888899999999893,
                "durationTicks": 60,
                "midi": 59,
                "name": "B3",
                "ticks": 3720,
                "time": 8.611118000000001,
                "velocity": 0.5039370078740157
              },
              {
                "duration": 0.1388890000000007,
                "durationTicks": 60,
                "midi": 55,
                "name": "G3",
                "ticks": 3780,
                "time": 8.750007,
                "velocity": 0.5039370078740157
              },
              {
                "duration": 0.41666700000000034,
                "durationTicks": 180,
                "midi": 60,
                "name": "C4",
                "ticks": 3840,
                "time": 8.888896,
                "velocity": 0.5039370078740157
              },
              {
                "duration": 0.13888899999999893,
                "durationTicks": 60,
                "midi": 59,
                "name": "B3",
                "ticks": 4020,
                "time": 9.305563000000001,
                "velocity": 0.5039370078740157
              },
              {
                "duration": 0.1388890000000007,
                "durationTicks": 60,
                "midi": 57,
                "name": "A3",
                "ticks": 4080,
                "time": 9.444452,
                "velocity": 0.5039370078740157
              },
              {
                "duration": 0.1388890000000007,
                "durationTicks": 60,
                "midi": 55,
                "name": "G3",
                "ticks": 4140,
                "time": 9.583341,
                "velocity": 0.5039370078740157
              },
              {
                "duration": 0.13888899999999893,
                "durationTicks": 60,
                "midi": 54,
                "name": "F#3",
                "ticks": 4200,
                "time": 9.722230000000001,
                "velocity": 0.5039370078740157
              },
              {
                "duration": 0.1388890000000007,
                "durationTicks": 60,
                "midi": 52,
                "name": "E3",
                "ticks": 4260,
                "time": 9.861119,
                "velocity": 0.5039370078740157
              },
              {
                "duration": 0.41666700000000034,
                "durationTicks": 180,
                "midi": 57,
                "name": "A3",
                "ticks": 4320,
                "time": 10.000008000000001,
                "velocity": 0.5039370078740157
              },
              {
                "duration": 0.13888899999999893,
                "durationTicks": 60,
                "midi": 55,
                "name": "G3",
                "ticks": 4500,
                "time": 10.416675000000001,
                "velocity": 0.5039370078740157
              },
              {
                "duration": 0.1388890000000007,
                "durationTicks": 60,
                "midi": 54,
                "name": "F#3",
                "ticks": 4560,
                "time": 10.555564,
                "velocity": 0.5039370078740157
              },
              {
                "duration": 0.1388890000000007,
                "durationTicks": 60,
                "midi": 52,
                "name": "E3",
                "ticks": 4620,
                "time": 10.694453000000001,
                "velocity": 0.5039370078740157
              },
              {
                "duration": 0.13888899999999893,
                "durationTicks": 60,
                "midi": 50,
                "name": "D3",
                "ticks": 4680,
                "time": 10.833342000000002,
                "velocity": 0.5039370078740157
              },
              {
                "duration": 0.1388890000000007,
                "durationTicks": 60,
                "midi": 48,
                "name": "C3",
                "ticks": 4740,
                "time": 10.972231,
                "velocity": 0.5039370078740157
              },
              {
                "duration": 0.41666700000000034,
                "durationTicks": 180,
                "midi": 47,
                "name": "B2",
                "ticks": 4800,
                "time": 11.111120000000001,
                "velocity": 0.5039370078740157
              },
              {
                "duration": 0.13888899999999893,
                "durationTicks": 60,
                "midi": 48,
                "name": "C3",
                "ticks": 4980,
                "time": 11.527787000000002,
                "velocity": 0.5039370078740157
              },
              {
                "duration": 0.1388890000000007,
                "durationTicks": 60,
                "midi": 47,
                "name": "B2",
                "ticks": 5040,
                "time": 11.666676,
                "velocity": 0.5039370078740157
              },
              {
                "duration": 0.13888899999999893,
                "durationTicks": 60,
                "midi": 45,
                "name": "A2",
                "ticks": 5100,
                "time": 11.805565000000001,
                "velocity": 0.5039370078740157
              },
              {
                "duration": 0.1388890000000007,
                "durationTicks": 60,
                "midi": 43,
                "name": "G2",
                "ticks": 5160,
                "time": 11.944454,
                "velocity": 0.5039370078740157
              },
              {
                "duration": 0.1388890000000007,
                "durationTicks": 60,
                "midi": 42,
                "name": "F#2",
                "ticks": 5220,
                "time": 12.083343000000001,
                "velocity": 0.5039370078740157
              },
              {
                "duration": 0.27777799999999964,
                "durationTicks": 120,
                "midi": 40,
                "name": "E2",
                "ticks": 5280,
                "time": 12.222232000000002,
                "velocity": 0.5039370078740157
              },
              {
                "duration": 0.27777799999999964,
                "durationTicks": 120,
                "midi": 48,
                "name": "C3",
                "ticks": 5400,
                "time": 12.500010000000001,
                "velocity": 0.5039370078740157
              },
              {
                "duration": 0.27777799999999964,
                "durationTicks": 120,
                "midi": 50,
                "name": "D3",
                "ticks": 5520,
                "time": 12.777788000000001,
                "velocity": 0.5039370078740157
              },
              {
                "duration": 0.27777799999999964,
                "durationTicks": 120,
                "midi": 38,
                "name": "D2",
                "ticks": 5640,
                "time": 13.055566,
                "velocity": 0.5039370078740157
              },
              {
                "duration": 0.555556000000001,
                "durationTicks": 240,
                "midi": 43,
                "name": "G2",
                "ticks": 5760,
                "time": 13.333344,
                "velocity": 0.5039370078740157
              },
              {
                "duration": 0.13888899999999893,
                "durationTicks": 60,
                "midi": 43,
                "name": "G2",
                "ticks": 6360,
                "time": 14.722234000000002,
                "velocity": 0.5039370078740157
              },
              {
                "duration": 0.1388890000000007,
                "durationTicks": 60,
                "midi": 45,
                "name": "A2",
                "ticks": 6420,
                "time": 14.861123000000001,
                "velocity": 0.5039370078740157
              },
              {
                "duration": 0.13888899999999893,
                "durationTicks": 60,
                "midi": 47,
                "name": "B2",
                "ticks": 6480,
                "time": 15.000012000000002,
                "velocity": 0.5039370078740157
              },
              {
                "duration": 0.1388890000000007,
                "durationTicks": 60,
                "midi": 45,
                "name": "A2",
                "ticks": 6540,
                "time": 15.138901,
                "velocity": 0.5039370078740157
              },
              {
                "duration": 0.1388890000000007,
                "durationTicks": 60,
                "midi": 47,
                "name": "B2",
                "ticks": 6600,
                "time": 15.277790000000001,
                "velocity": 0.5039370078740157
              },
              {
                "duration": 0.13888899999999893,
                "durationTicks": 60,
                "midi": 43,
                "name": "G2",
                "ticks": 6660,
                "time": 15.416679000000002,
                "velocity": 0.5039370078740157
              },
              {
                "duration": 0.1388890000000007,
                "durationTicks": 60,
                "midi": 50,
                "name": "D3",
                "ticks": 6720,
                "time": 15.555568000000001,
                "velocity": 0.5039370078740157
              },
              {
                "duration": 0.13888899999999893,
                "durationTicks": 60,
                "midi": 49,
                "name": "C#3",
                "ticks": 6780,
                "time": 15.694457000000002,
                "velocity": 0.5039370078740157
              },
              {
                "duration": 0.1388890000000007,
                "durationTicks": 60,
                "midi": 50,
                "name": "D3",
                "ticks": 6840,
                "time": 15.833346,
                "velocity": 0.5039370078740157
              },
              {
                "duration": 0.13888899999999893,
                "durationTicks": 60,
                "midi": 52,
                "name": "E3",
                "ticks": 6900,
                "time": 15.972235000000001,
                "velocity": 0.5039370078740157
              },
              {
                "duration": 0.13888900000000248,
                "durationTicks": 60,
                "midi": 54,
                "name": "F#3",
                "ticks": 6960,
                "time": 16.111124,
                "velocity": 0.5039370078740157
              },
              {
                "duration": 0.13888899999999893,
                "durationTicks": 60,
                "midi": 52,
                "name": "E3",
                "ticks": 7020,
                "time": 16.250013000000003,
                "velocity": 0.5039370078740157
              },
              {
                "duration": 0.13888899999999893,
                "durationTicks": 60,
                "midi": 54,
                "name": "F#3",
                "ticks": 7080,
                "time": 16.388902,
                "velocity": 0.5039370078740157
              },
              {
                "duration": 0.13888900000000248,
                "durationTicks": 60,
                "midi": 50,
                "name": "D3",
                "ticks": 7140,
                "time": 16.527791,
                "velocity": 0.5039370078740157
              },
              {
                "duration": 0.13888899999999893,
                "durationTicks": 60,
                "midi": 55,
                "name": "G3",
                "ticks": 7200,
                "time": 16.666680000000003,
                "velocity": 0.5039370078740157
              },
              {
                "duration": 0.13888899999999893,
                "durationTicks": 60,
                "midi": 54,
                "name": "F#3",
                "ticks": 7260,
                "time": 16.805569000000002,
                "velocity": 0.5039370078740157
              },
              {
                "duration": 0.13888899999999893,
                "durationTicks": 60,
                "midi": 55,
                "name": "G3",
                "ticks": 7320,
                "time": 16.944458,
                "velocity": 0.5039370078740157
              },
              {
                "duration": 0.13888900000000248,
                "durationTicks": 60,
                "midi": 57,
                "name": "A3",
                "ticks": 7380,
                "time": 17.083347,
                "velocity": 0.5039370078740157
              },
              {
                "duration": 0.13888899999999893,
                "durationTicks": 60,
                "midi": 59,
                "name": "B3",
                "ticks": 7440,
                "time": 17.222236000000002,
                "velocity": 0.5039370078740157
              },
              {
                "duration": 0.13888899999999893,
                "durationTicks": 60,
                "midi": 57,
                "name": "A3",
                "ticks": 7500,
                "time": 17.361125,
                "velocity": 0.5039370078740157
              },
              {
                "duration": 0.13888900000000248,
                "durationTicks": 60,
                "midi": 59,
                "name": "B3",
                "ticks": 7560,
                "time": 17.500014,
                "velocity": 0.5039370078740157
              },
              {
                "duration": 0.13888899999999893,
                "durationTicks": 60,
                "midi": 54,
                "name": "F#3",
                "ticks": 7620,
                "time": 17.638903000000003,
                "velocity": 0.5039370078740157
              },
              {
                "duration": 0.13888899999999893,
                "durationTicks": 60,
                "midi": 55,
                "name": "G3",
                "ticks": 7680,
                "time": 17.777792,
                "velocity": 0.5039370078740157
              },
              {
                "duration": 0.13888900000000248,
                "durationTicks": 60,
                "midi": 54,
                "name": "F#3",
                "ticks": 7740,
                "time": 17.916681,
                "velocity": 0.5039370078740157
              },
              {
                "duration": 0.13888899999999893,
                "durationTicks": 60,
                "midi": 55,
                "name": "G3",
                "ticks": 7800,
                "time": 18.055570000000003,
                "velocity": 0.5039370078740157
              },
              {
                "duration": 0.13888899999999893,
                "durationTicks": 60,
                "midi": 52,
                "name": "E3",
                "ticks": 7860,
                "time": 18.194459000000002,
                "velocity": 0.5039370078740157
              },
              {
                "duration": 0.2777780000000014,
                "durationTicks": 120,
                "midi": 57,
                "name": "A3",
                "ticks": 7920,
                "time": 18.333348,
                "velocity": 0.5039370078740157
              },
              {
                "duration": 0.27777799999999786,
                "durationTicks": 120,
                "midi": 45,
                "name": "A2",
                "ticks": 8040,
                "time": 18.611126000000002,
                "velocity": 0.5039370078740157
              },
              {
                "duration": 0.2777780000000014,
                "durationTicks": 120,
                "midi": 50,
                "name": "D3",
                "ticks": 8160,
                "time": 18.888904,
                "velocity": 0.5039370078740157
              },
              {
                "duration": 0.2777780000000014,
                "durationTicks": 120,
                "midi": 38,
                "name": "D2",
                "ticks": 8280,
                "time": 19.166682,
                "velocity": 0.5039370078740157
              },
              {
                "duration": 0.13888900000000248,
                "durationTicks": 60,
                "midi": 57,
                "name": "A3",
                "ticks": 8760,
                "time": 20.277794,
                "velocity": 0.5039370078740157
              },
              {
                "duration": 0.13888899999999893,
                "durationTicks": 60,
                "midi": 55,
                "name": "G3",
                "ticks": 8820,
                "time": 20.416683000000003,
                "velocity": 0.5039370078740157
              },
              {
                "duration": 0.13888899999999893,
                "durationTicks": 60,
                "midi": 54,
                "name": "F#3",
                "ticks": 8880,
                "time": 20.555572,
                "velocity": 0.5039370078740157
              },
              {
                "duration": 0.13888900000000248,
                "durationTicks": 60,
                "midi": 52,
                "name": "E3",
                "ticks": 8940,
                "time": 20.694461,
                "velocity": 0.5039370078740157
              },
              {
                "duration": 0.13888899999999893,
                "durationTicks": 60,
                "midi": 54,
                "name": "F#3",
                "ticks": 9000,
                "time": 20.833350000000003,
                "velocity": 0.5039370078740157
              },
              {
                "duration": 0.13888899999999893,
                "durationTicks": 60,
                "midi": 50,
                "name": "D3",
                "ticks": 9060,
                "time": 20.972239000000002,
                "velocity": 0.5039370078740157
              },
              {
                "duration": 0.13888900000000248,
                "durationTicks": 60,
                "midi": 55,
                "name": "G3",
                "ticks": 9120,
                "time": 21.111128,
                "velocity": 0.5039370078740157
              },
              {
                "duration": 0.13888899999999893,
                "durationTicks": 60,
                "midi": 57,
                "name": "A3",
                "ticks": 9180,
                "time": 21.250017000000003,
                "velocity": 0.5039370078740157
              },
              {
                "duration": 0.13888899999999893,
                "durationTicks": 60,
                "midi": 55,
                "name": "G3",
                "ticks": 9240,
                "time": 21.388906000000002,
                "velocity": 0.5039370078740157
              },
              {
                "duration": 0.13888900000000248,
                "durationTicks": 60,
                "midi": 54,
                "name": "F#3",
                "ticks": 9300,
                "time": 21.527795,
                "velocity": 0.5039370078740157
              },
              {
                "duration": 0.13888899999999893,
                "durationTicks": 60,
                "midi": 52,
                "name": "E3",
                "ticks": 9360,
                "time": 21.666684000000004,
                "velocity": 0.5039370078740157
              },
              {
                "duration": 0.13888899999999893,
                "durationTicks": 60,
                "midi": 50,
                "name": "D3",
                "ticks": 9420,
                "time": 21.805573000000003,
                "velocity": 0.5039370078740157
              },
              {
                "duration": 0.13888899999999893,
                "durationTicks": 60,
                "midi": 52,
                "name": "E3",
                "ticks": 9480,
                "time": 21.944462,
                "velocity": 0.5039370078740157
              },
              {
                "duration": 0.13888900000000248,
                "durationTicks": 60,
                "midi": 49,
                "name": "C#3",
                "ticks": 9540,
                "time": 22.083351,
                "velocity": 0.5039370078740157
              },
              {
                "duration": 0.27777799999999786,
                "durationTicks": 120,
                "midi": 54,
                "name": "F#3",
                "ticks": 9600,
                "time": 22.222240000000003,
                "velocity": 0.5039370078740157
              },
              {
                "duration": 0.2777780000000014,
                "durationTicks": 120,
                "midi": 46,
                "name": "A#2",
                "ticks": 9720,
                "time": 22.500018,
                "velocity": 0.5039370078740157
              },
              {
                "duration": 0.2777780000000014,
                "durationTicks": 120,
                "midi": 47,
                "name": "B2",
                "ticks": 9840,
                "time": 22.777796000000002,
                "velocity": 0.5039370078740157
              },
              {
                "duration": 0.27777799999999786,
                "durationTicks": 120,
                "midi": 43,
                "name": "G2",
                "ticks": 9960,
                "time": 23.055574000000004,
                "velocity": 0.5039370078740157
              },
              {
                "duration": 0.5555559999999993,
                "durationTicks": 240,
                "midi": 42,
                "name": "F#2",
                "ticks": 10080,
                "time": 23.333352,
                "velocity": 0.5039370078740157
              },
              {
                "duration": 0.13888899999999893,
                "durationTicks": 60,
                "midi": 59,
                "name": "B3",
                "ticks": 10440,
                "time": 24.166686000000002,
                "velocity": 0.5039370078740157
              },
              {
                "duration": 0.13888900000000248,
                "durationTicks": 60,
                "midi": 57,
                "name": "A3",
                "ticks": 10500,
                "time": 24.305575,
                "velocity": 0.5039370078740157
              },
              {
                "duration": 0.13888899999999893,
                "durationTicks": 60,
                "midi": 55,
                "name": "G3",
                "ticks": 10560,
                "time": 24.444464000000004,
                "velocity": 0.5039370078740157
              },
              {
                "duration": 0.13888899999999893,
                "durationTicks": 60,
                "midi": 54,
                "name": "F#3",
                "ticks": 10620,
                "time": 24.583353000000002,
                "velocity": 0.5039370078740157
              },
              {
                "duration": 0.13888900000000248,
                "durationTicks": 60,
                "midi": 55,
                "name": "G3",
                "ticks": 10680,
                "time": 24.722242,
                "velocity": 0.5039370078740157
              },
              {
                "duration": 0.13888899999999893,
                "durationTicks": 60,
                "midi": 52,
                "name": "E3",
                "ticks": 10740,
                "time": 24.861131000000004,
                "velocity": 0.5039370078740157
              },
              {
                "duration": 0.41666700000000034,
                "durationTicks": 180,
                "midi": 62,
                "name": "D4",
                "ticks": 10800,
                "time": 25.000020000000003,
                "velocity": 0.5039370078740157
              },
              {
                "duration": 0.13888899999999893,
                "durationTicks": 60,
                "midi": 64,
                "name": "E4",
                "ticks": 10980,
                "time": 25.416687000000003,
                "velocity": 0.5039370078740157
              },
              {
                "duration": 0.2777780000000014,
                "durationTicks": 120,
                "midi": 61,
                "name": "C#4",
                "ticks": 11040,
                "time": 25.555576000000002,
                "velocity": 0.5039370078740157
              },
              {
                "duration": 0.13888899999999893,
                "durationTicks": 60,
                "midi": 67,
                "name": "G4",
                "ticks": 11160,
                "time": 25.833354000000003,
                "velocity": 0.5039370078740157
              },
              {
                "duration": 0.13888899999999893,
                "durationTicks": 60,
                "midi": 66,
                "name": "F#4",
                "ticks": 11220,
                "time": 25.972243000000002,
                "velocity": 0.5039370078740157
              },
              {
                "duration": 0.13888900000000248,
                "durationTicks": 60,
                "midi": 64,
                "name": "E4",
                "ticks": 11280,
                "time": 26.111132,
                "velocity": 0.5039370078740157
              },
              {
                "duration": 0.13888899999999893,
                "durationTicks": 60,
                "midi": 62,
                "name": "D4",
                "ticks": 11340,
                "time": 26.250021000000004,
                "velocity": 0.5039370078740157
              },
              {
                "duration": 0.13888899999999893,
                "durationTicks": 60,
                "midi": 64,
                "name": "E4",
                "ticks": 11400,
                "time": 26.388910000000003,
                "velocity": 0.5039370078740157
              },
              {
                "duration": 0.13888899999999893,
                "durationTicks": 60,
                "midi": 61,
                "name": "C#4",
                "ticks": 11460,
                "time": 26.527799,
                "velocity": 0.5039370078740157
              },
              {
                "duration": 0.13888900000000248,
                "durationTicks": 60,
                "midi": 62,
                "name": "D4",
                "ticks": 11520,
                "time": 26.666688,
                "velocity": 0.5039370078740157
              },
              {
                "duration": 0.13888899999999893,
                "durationTicks": 60,
                "midi": 61,
                "name": "C#4",
                "ticks": 11580,
                "time": 26.805577000000003,
                "velocity": 0.5039370078740157
              },
              {
                "duration": 0.13888899999999893,
                "durationTicks": 60,
                "midi": 62,
                "name": "D4",
                "ticks": 11640,
                "time": 26.944466000000002,
                "velocity": 0.5039370078740157
              },
              {
                "duration": 0.13888900000000248,
                "durationTicks": 60,
                "midi": 59,
                "name": "B3",
                "ticks": 11700,
                "time": 27.083355,
                "velocity": 0.5039370078740157
              },
              {
                "duration": 0.27777799999999786,
                "durationTicks": 120,
                "midi": 66,
                "name": "F#4",
                "ticks": 11760,
                "time": 27.222244000000003,
                "velocity": 0.5039370078740157
              },
              {
                "duration": 0.2777780000000014,
                "durationTicks": 120,
                "midi": 54,
                "name": "F#3",
                "ticks": 11880,
                "time": 27.500022,
                "velocity": 0.5039370078740157
              },
              {
                "duration": 0.13888899999999893,
                "durationTicks": 60,
                "midi": 59,
                "name": "B3",
                "ticks": 12000,
                "time": 27.777800000000003,
                "velocity": 0.5039370078740157
              },
              {
                "duration": 0.13888900000000248,
                "durationTicks": 60,
                "midi": 60,
                "name": "C4",
                "ticks": 12060,
                "time": 27.916689,
                "velocity": 0.5039370078740157
              },
              {
                "duration": 0.13888899999999893,
                "durationTicks": 60,
                "midi": 59,
                "name": "B3",
                "ticks": 12120,
                "time": 28.055578000000004,
                "velocity": 0.5039370078740157
              },
              {
                "duration": 0.13888899999999893,
                "durationTicks": 60,
                "midi": 57,
                "name": "A3",
                "ticks": 12180,
                "time": 28.194467000000003,
                "velocity": 0.5039370078740157
              },
              {
                "duration": 0.13888899999999893,
                "durationTicks": 60,
                "midi": 56,
                "name": "G#3",
                "ticks": 12240,
                "time": 28.333356000000002,
                "velocity": 0.5039370078740157
              },
              {
                "duration": 0.13888900000000248,
                "durationTicks": 60,
                "midi": 54,
                "name": "F#3",
                "ticks": 12300,
                "time": 28.472245,
                "velocity": 0.5039370078740157
              },
              {
                "duration": 0.13888899999999893,
                "durationTicks": 60,
                "midi": 56,
                "name": "G#3",
                "ticks": 12360,
                "time": 28.611134000000003,
                "velocity": 0.5039370078740157
              },
              {
                "duration": 0.13888899999999893,
                "durationTicks": 60,
                "midi": 52,
                "name": "E3",
                "ticks": 12420,
                "time": 28.750023000000002,
                "velocity": 0.5039370078740157
              },
              {
                "duration": 0.13888900000000248,
                "durationTicks": 60,
                "midi": 57,
                "name": "A3",
                "ticks": 12480,
                "time": 28.888912,
                "velocity": 0.5039370078740157
              },
              {
                "duration": 0.13888899999999893,
                "durationTicks": 60,
                "midi": 59,
                "name": "B3",
                "ticks": 12540,
                "time": 29.027801000000004,
                "velocity": 0.5039370078740157
              },
              {
                "duration": 0.13888899999999893,
                "durationTicks": 60,
                "midi": 57,
                "name": "A3",
                "ticks": 12600,
                "time": 29.166690000000003,
                "velocity": 0.5039370078740157
              },
              {
                "duration": 0.13888900000000248,
                "durationTicks": 60,
                "midi": 55,
                "name": "G3",
                "ticks": 12660,
                "time": 29.305579,
                "velocity": 0.5039370078740157
              },
              {
                "duration": 0.13888899999999893,
                "durationTicks": 60,
                "midi": 54,
                "name": "F#3",
                "ticks": 12720,
                "time": 29.444468000000004,
                "velocity": 0.5039370078740157
              },
              {
                "duration": 0.13888899999999893,
                "durationTicks": 60,
                "midi": 52,
                "name": "E3",
                "ticks": 12780,
                "time": 29.583357000000003,
                "velocity": 0.5039370078740157
              },
              {
                "duration": 0.13888900000000248,
                "durationTicks": 60,
                "midi": 54,
                "name": "F#3",
                "ticks": 12840,
                "time": 29.722246000000002,
                "velocity": 0.5039370078740157
              },
              {
                "duration": 0.13888899999999893,
                "durationTicks": 60,
                "midi": 50,
                "name": "D3",
                "ticks": 12900,
                "time": 29.861135000000004,
                "velocity": 0.5039370078740157
              },
              {
                "duration": 0.13888899999999893,
                "durationTicks": 60,
                "midi": 55,
                "name": "G3",
                "ticks": 12960,
                "time": 30.000024000000003,
                "velocity": 0.5039370078740157
              },
              {
                "duration": 0.13888899999999893,
                "durationTicks": 60,
                "midi": 57,
                "name": "A3",
                "ticks": 13020,
                "time": 30.138913000000002,
                "velocity": 0.5039370078740157
              },
              {
                "duration": 0.13888900000000248,
                "durationTicks": 60,
                "midi": 55,
                "name": "G3",
                "ticks": 13080,
                "time": 30.277802,
                "velocity": 0.5039370078740157
              },
              {
                "duration": 0.13888899999999893,
                "durationTicks": 60,
                "midi": 54,
                "name": "F#3",
                "ticks": 13140,
                "time": 30.416691000000004,
                "velocity": 0.5039370078740157
              },
              {
                "duration": 0.13888899999999893,
                "durationTicks": 60,
                "midi": 52,
                "name": "E3",
                "ticks": 13200,
                "time": 30.555580000000003,
                "velocity": 0.5039370078740157
              },
              {
                "duration": 0.13888900000000248,
                "durationTicks": 60,
                "midi": 50,
                "name": "D3",
                "ticks": 13260,
                "time": 30.694469,
                "velocity": 0.5039370078740157
              },
              {
                "duration": 0.13888899999999893,
                "durationTicks": 60,
                "midi": 52,
                "name": "E3",
                "ticks": 13320,
                "time": 30.833358000000004,
                "velocity": 0.5039370078740157
              },
              {
                "duration": 0.13888899999999893,
                "durationTicks": 60,
                "midi": 49,
                "name": "C#3",
                "ticks": 13380,
                "time": 30.972247000000003,
                "velocity": 0.5039370078740157
              },
              {
                "duration": 0.13888900000000248,
                "durationTicks": 60,
                "midi": 51,
                "name": "D#3",
                "ticks": 13440,
                "time": 31.111136000000002,
                "velocity": 0.5039370078740157
              },
              {
                "duration": 0.13888899999999893,
                "durationTicks": 60,
                "midi": 49,
                "name": "C#3",
                "ticks": 13500,
                "time": 31.250025000000004,
                "velocity": 0.5039370078740157
              },
              {
                "duration": 0.13888899999999893,
                "durationTicks": 60,
                "midi": 51,
                "name": "D#3",
                "ticks": 13560,
                "time": 31.388914000000003,
                "velocity": 0.5039370078740157
              },
              {
                "duration": 0.13888899999999893,
                "durationTicks": 60,
                "midi": 47,
                "name": "B2",
                "ticks": 13620,
                "time": 31.527803000000002,
                "velocity": 0.5039370078740157
              },
              {
                "duration": 0.13888900000000248,
                "durationTicks": 60,
                "midi": 52,
                "name": "E3",
                "ticks": 13680,
                "time": 31.666692,
                "velocity": 0.5039370078740157
              },
              {
                "duration": 0.13888899999999893,
                "durationTicks": 60,
                "midi": 51,
                "name": "D#3",
                "ticks": 13740,
                "time": 31.805581000000004,
                "velocity": 0.5039370078740157
              },
              {
                "duration": 0.13888899999999893,
                "durationTicks": 60,
                "midi": 52,
                "name": "E3",
                "ticks": 13800,
                "time": 31.944470000000003,
                "velocity": 0.5039370078740157
              },
              {
                "duration": 0.13888899999999893,
                "durationTicks": 60,
                "midi": 40,
                "name": "E2",
                "ticks": 13860,
                "time": 32.083359,
                "velocity": 0.5039370078740157
              },
              {
                "duration": 0.06944450000000302,
                "durationTicks": 30,
                "midi": 47,
                "name": "B2",
                "ticks": 13920,
                "time": 32.222248,
                "velocity": 0.5039370078740157
              },
              {
                "duration": 0.0763889500000019,
                "durationTicks": 33,
                "midi": 48,
                "name": "C3",
                "ticks": 13950,
                "time": 32.2916925,
                "velocity": 0.5039370078740157
              },
              {
                "duration": 0.0763889500000019,
                "durationTicks": 33,
                "midi": 47,
                "name": "B2",
                "ticks": 13980,
                "time": 32.361137,
                "velocity": 0.3779527559055118
              },
              {
                "duration": 0.0763889500000019,
                "durationTicks": 33,
                "midi": 48,
                "name": "C3",
                "ticks": 14010,
                "time": 32.4305815,
                "velocity": 0.3779527559055118
              },
              {
                "duration": 0.0763889500000019,
                "durationTicks": 33,
                "midi": 47,
                "name": "B2",
                "ticks": 14040,
                "time": 32.500026000000005,
                "velocity": 0.3779527559055118
              },
              {
                "duration": 0.0763889500000019,
                "durationTicks": 33,
                "midi": 48,
                "name": "C3",
                "ticks": 14070,
                "time": 32.5694705,
                "velocity": 0.3779527559055118
              },
              {
                "duration": 0.0763889500000019,
                "durationTicks": 33,
                "midi": 47,
                "name": "B2",
                "ticks": 14100,
                "time": 32.638915000000004,
                "velocity": 0.3779527559055118
              },
              {
                "duration": 0.0763889500000019,
                "durationTicks": 33,
                "midi": 48,
                "name": "C3",
                "ticks": 14130,
                "time": 32.7083595,
                "velocity": 0.3779527559055118
              },
              {
                "duration": 0.0763889500000019,
                "durationTicks": 33,
                "midi": 47,
                "name": "B2",
                "ticks": 14160,
                "time": 32.777804,
                "velocity": 0.3858267716535433
              },
              {
                "duration": 0.07638894999999479,
                "durationTicks": 33,
                "midi": 48,
                "name": "C3",
                "ticks": 14190,
                "time": 32.847248500000006,
                "velocity": 0.3858267716535433
              },
              {
                "duration": 0.0763889500000019,
                "durationTicks": 33,
                "midi": 47,
                "name": "B2",
                "ticks": 14220,
                "time": 32.916693,
                "velocity": 0.3858267716535433
              },
              {
                "duration": 0.0763889500000019,
                "durationTicks": 33,
                "midi": 48,
                "name": "C3",
                "ticks": 14250,
                "time": 32.986137500000005,
                "velocity": 0.3858267716535433
              },
              {
                "duration": 0.0763889500000019,
                "durationTicks": 33,
                "midi": 47,
                "name": "B2",
                "ticks": 14280,
                "time": 33.055582,
                "velocity": 0.3858267716535433
              },
              {
                "duration": 0.0763889500000019,
                "durationTicks": 33,
                "midi": 48,
                "name": "C3",
                "ticks": 14310,
                "time": 33.125026500000004,
                "velocity": 0.3858267716535433
              },
              {
                "duration": 0.0763889500000019,
                "durationTicks": 33,
                "midi": 47,
                "name": "B2",
                "ticks": 14340,
                "time": 33.194471,
                "velocity": 0.3937007874015748
              },
              {
                "duration": 0.0763889500000019,
                "durationTicks": 33,
                "midi": 48,
                "name": "C3",
                "ticks": 14370,
                "time": 33.2639155,
                "velocity": 0.3937007874015748
              },
              {
                "duration": 0.0763889500000019,
                "durationTicks": 33,
                "midi": 47,
                "name": "B2",
                "ticks": 14400,
                "time": 33.333360000000006,
                "velocity": 0.3937007874015748
              },
              {
                "duration": 0.0763889500000019,
                "durationTicks": 33,
                "midi": 48,
                "name": "C3",
                "ticks": 14430,
                "time": 33.4028045,
                "velocity": 0.3937007874015748
              },
              {
                "duration": 0.0763889500000019,
                "durationTicks": 33,
                "midi": 47,
                "name": "B2",
                "ticks": 14460,
                "time": 33.472249000000005,
                "velocity": 0.3937007874015748
              },
              {
                "duration": 0.0763889500000019,
                "durationTicks": 33,
                "midi": 48,
                "name": "C3",
                "ticks": 14490,
                "time": 33.5416935,
                "velocity": 0.4015748031496063
              },
              {
                "duration": 0.0763889500000019,
                "durationTicks": 33,
                "midi": 47,
                "name": "B2",
                "ticks": 14520,
                "time": 33.611138000000004,
                "velocity": 0.4015748031496063
              },
              {
                "duration": 0.0763889500000019,
                "durationTicks": 33,
                "midi": 48,
                "name": "C3",
                "ticks": 14550,
                "time": 33.6805825,
                "velocity": 0.4015748031496063
              },
              {
                "duration": 0.0763889500000019,
                "durationTicks": 33,
                "midi": 47,
                "name": "B2",
                "ticks": 14580,
                "time": 33.750027,
                "velocity": 0.4015748031496063
              },
              {
                "duration": 0.0763889500000019,
                "durationTicks": 33,
                "midi": 48,
                "name": "C3",
                "ticks": 14610,
                "time": 33.819471500000006,
                "velocity": 0.4015748031496063
              },
              {
                "duration": 0.0763889500000019,
                "durationTicks": 33,
                "midi": 47,
                "name": "B2",
                "ticks": 14640,
                "time": 33.888916,
                "velocity": 0.4015748031496063
              },
              {
                "duration": 0.0763889500000019,
                "durationTicks": 33,
                "midi": 48,
                "name": "C3",
                "ticks": 14670,
                "time": 33.958360500000005,
                "velocity": 0.4094488188976378
              },
              {
                "duration": 0.0763889500000019,
                "durationTicks": 33,
                "midi": 47,
                "name": "B2",
                "ticks": 14700,
                "time": 34.027805,
                "velocity": 0.4094488188976378
              },
              {
                "duration": 0.0763889500000019,
                "durationTicks": 33,
                "midi": 48,
                "name": "C3",
                "ticks": 14730,
                "time": 34.097249500000004,
                "velocity": 0.4094488188976378
              },
              {
                "duration": 0.0763889500000019,
                "durationTicks": 33,
                "midi": 47,
                "name": "B2",
                "ticks": 14760,
                "time": 34.166694,
                "velocity": 0.4094488188976378
              },
              {
                "duration": 0.0763889500000019,
                "durationTicks": 33,
                "midi": 48,
                "name": "C3",
                "ticks": 14790,
                "time": 34.2361385,
                "velocity": 0.4094488188976378
              },
              {
                "duration": 0.0763889500000019,
                "durationTicks": 33,
                "midi": 47,
                "name": "B2",
                "ticks": 14820,
                "time": 34.305583000000006,
                "velocity": 0.4094488188976378
              },
              {
                "duration": 0.0763889500000019,
                "durationTicks": 33,
                "midi": 48,
                "name": "C3",
                "ticks": 14850,
                "time": 34.3750275,
                "velocity": 0.41732283464566927
              },
              {
                "duration": 0.0763889500000019,
                "durationTicks": 33,
                "midi": 47,
                "name": "B2",
                "ticks": 14880,
                "time": 34.444472000000005,
                "velocity": 0.41732283464566927
              },
              {
                "duration": 0.0763889500000019,
                "durationTicks": 33,
                "midi": 48,
                "name": "C3",
                "ticks": 14910,
                "time": 34.5139165,
                "velocity": 0.41732283464566927
              },
              {
                "duration": 0.0763889500000019,
                "durationTicks": 33,
                "midi": 47,
                "name": "B2",
                "ticks": 14940,
                "time": 34.583361000000004,
                "velocity": 0.41732283464566927
              },
              {
                "duration": 0.07638894999999479,
                "durationTicks": 33,
                "midi": 48,
                "name": "C3",
                "ticks": 14970,
                "time": 34.65280550000001,
                "velocity": 0.41732283464566927
              },
              {
                "duration": 0.0763889500000019,
                "durationTicks": 33,
                "midi": 47,
                "name": "B2",
                "ticks": 15000,
                "time": 34.72225,
                "velocity": 0.41732283464566927
              },
              {
                "duration": 0.0763889500000019,
                "durationTicks": 33,
                "midi": 48,
                "name": "C3",
                "ticks": 15030,
                "time": 34.791694500000006,
                "velocity": 0.4251968503937008
              },
              {
                "duration": 0.0763889500000019,
                "durationTicks": 33,
                "midi": 47,
                "name": "B2",
                "ticks": 15060,
                "time": 34.861139,
                "velocity": 0.4251968503937008
              },
              {
                "duration": 0.0763889500000019,
                "durationTicks": 33,
                "midi": 48,
                "name": "C3",
                "ticks": 15090,
                "time": 34.930583500000004,
                "velocity": 0.4251968503937008
              },
              {
                "duration": 0.0763889500000019,
                "durationTicks": 33,
                "midi": 47,
                "name": "B2",
                "ticks": 15120,
                "time": 35.000028,
                "velocity": 0.4251968503937008
              },
              {
                "duration": 0.0763889500000019,
                "durationTicks": 33,
                "midi": 48,
                "name": "C3",
                "ticks": 15150,
                "time": 35.0694725,
                "velocity": 0.4251968503937008
              },
              {
                "duration": 0.07638894999999479,
                "durationTicks": 33,
                "midi": 47,
                "name": "B2",
                "ticks": 15180,
                "time": 35.138917000000006,
                "velocity": 0.4251968503937008
              },
              {
                "duration": 0.0763889500000019,
                "durationTicks": 33,
                "midi": 48,
                "name": "C3",
                "ticks": 15210,
                "time": 35.2083615,
                "velocity": 0.4330708661417323
              },
              {
                "duration": 0.0763889500000019,
                "durationTicks": 33,
                "midi": 47,
                "name": "B2",
                "ticks": 15240,
                "time": 35.277806000000005,
                "velocity": 0.4330708661417323
              },
              {
                "duration": 0.0763889500000019,
                "durationTicks": 33,
                "midi": 48,
                "name": "C3",
                "ticks": 15270,
                "time": 35.3472505,
                "velocity": 0.4330708661417323
              },
              {
                "duration": 0.0763889500000019,
                "durationTicks": 33,
                "midi": 47,
                "name": "B2",
                "ticks": 15300,
                "time": 35.416695000000004,
                "velocity": 0.4330708661417323
              },
              {
                "duration": 0.06944450000000302,
                "durationTicks": 30,
                "midi": 48,
                "name": "C3",
                "ticks": 15330,
                "time": 35.4861395,
                "velocity": 0.4330708661417323
              },
              {
                "duration": 0.0763889500000019,
                "durationTicks": 33,
                "midi": 47,
                "name": "B2",
                "ticks": 15360,
                "time": 35.555584,
                "velocity": 0.4409448818897638
              },
              {
                "duration": 0.0763889500000019,
                "durationTicks": 33,
                "midi": 48,
                "name": "C3",
                "ticks": 15390,
                "time": 35.625028500000006,
                "velocity": 0.4409448818897638
              },
              {
                "duration": 0.0763889500000019,
                "durationTicks": 33,
                "midi": 47,
                "name": "B2",
                "ticks": 15420,
                "time": 35.694473,
                "velocity": 0.4409448818897638
              },
              {
                "duration": 0.0763889500000019,
                "durationTicks": 33,
                "midi": 48,
                "name": "C3",
                "ticks": 15450,
                "time": 35.763917500000005,
                "velocity": 0.4409448818897638
              },
              {
                "duration": 0.0763889500000019,
                "durationTicks": 33,
                "midi": 47,
                "name": "B2",
                "ticks": 15480,
                "time": 35.833362,
                "velocity": 0.4409448818897638
              },
              {
                "duration": 0.0763889500000019,
                "durationTicks": 33,
                "midi": 48,
                "name": "C3",
                "ticks": 15510,
                "time": 35.902806500000004,
                "velocity": 0.4409448818897638
              },
              {
                "duration": 0.0763889500000019,
                "durationTicks": 33,
                "midi": 47,
                "name": "B2",
                "ticks": 15540,
                "time": 35.972251,
                "velocity": 0.44881889763779526
              },
              {
                "duration": 0.0763889500000019,
                "durationTicks": 33,
                "midi": 48,
                "name": "C3",
                "ticks": 15570,
                "time": 36.0416955,
                "velocity": 0.44881889763779526
              },
              {
                "duration": 0.0763889500000019,
                "durationTicks": 33,
                "midi": 47,
                "name": "B2",
                "ticks": 15600,
                "time": 36.111140000000006,
                "velocity": 0.44881889763779526
              },
              {
                "duration": 0.0763889500000019,
                "durationTicks": 33,
                "midi": 48,
                "name": "C3",
                "ticks": 15630,
                "time": 36.1805845,
                "velocity": 0.44881889763779526
              },
              {
                "duration": 0.0763889500000019,
                "durationTicks": 33,
                "midi": 47,
                "name": "B2",
                "ticks": 15660,
                "time": 36.250029000000005,
                "velocity": 0.44881889763779526
              },
              {
                "duration": 0.0763889500000019,
                "durationTicks": 33,
                "midi": 48,
                "name": "C3",
                "ticks": 15690,
                "time": 36.3194735,
                "velocity": 0.44881889763779526
              },
              {
                "duration": 0.0763889500000019,
                "durationTicks": 33,
                "midi": 47,
                "name": "B2",
                "ticks": 15720,
                "time": 36.388918000000004,
                "velocity": 0.4566929133858268
              },
              {
                "duration": 0.0763889500000019,
                "durationTicks": 33,
                "midi": 48,
                "name": "C3",
                "ticks": 15750,
                "time": 36.4583625,
                "velocity": 0.4566929133858268
              },
              {
                "duration": 0.0763889500000019,
                "durationTicks": 33,
                "midi": 47,
                "name": "B2",
                "ticks": 15780,
                "time": 36.527807,
                "velocity": 0.4566929133858268
              },
              {
                "duration": 0.0763889500000019,
                "durationTicks": 33,
                "midi": 48,
                "name": "C3",
                "ticks": 15810,
                "time": 36.597251500000006,
                "velocity": 0.4566929133858268
              },
              {
                "duration": 0.0763889500000019,
                "durationTicks": 33,
                "midi": 47,
                "name": "B2",
                "ticks": 15840,
                "time": 36.666696,
                "velocity": 0.4566929133858268
              },
              {
                "duration": 0.0763889500000019,
                "durationTicks": 33,
                "midi": 48,
                "name": "C3",
                "ticks": 15870,
                "time": 36.736140500000005,
                "velocity": 0.4566929133858268
              },
              {
                "duration": 0.0763889500000019,
                "durationTicks": 33,
                "midi": 47,
                "name": "B2",
                "ticks": 15900,
                "time": 36.805585,
                "velocity": 0.4645669291338583
              },
              {
                "duration": 0.0763889500000019,
                "durationTicks": 33,
                "midi": 48,
                "name": "C3",
                "ticks": 15930,
                "time": 36.875029500000004,
                "velocity": 0.4645669291338583
              },
              {
                "duration": 0.07638894999999479,
                "durationTicks": 33,
                "midi": 47,
                "name": "B2",
                "ticks": 15960,
                "time": 36.94447400000001,
                "velocity": 0.4645669291338583
              },
              {
                "duration": 0.0763889500000019,
                "durationTicks": 33,
                "midi": 48,
                "name": "C3",
                "ticks": 15990,
                "time": 37.0139185,
                "velocity": 0.4645669291338583
              },
              {
                "duration": 0.0763889500000019,
                "durationTicks": 33,
                "midi": 47,
                "name": "B2",
                "ticks": 16020,
                "time": 37.083363000000006,
                "velocity": 0.4645669291338583
              },
              {
                "duration": 0.0763889500000019,
                "durationTicks": 33,
                "midi": 48,
                "name": "C3",
                "ticks": 16050,
                "time": 37.1528075,
                "velocity": 0.4645669291338583
              },
              {
                "duration": 0.1527779000000038,
                "durationTicks": 66,
                "midi": 47,
                "name": "B2",
                "ticks": 16080,
                "time": 37.222252000000005,
                "velocity": 0.5039370078740157
              },
              {
                "duration": 0.13888899999999893,
                "durationTicks": 60,
                "midi": 60,
                "name": "C4",
                "ticks": 16140,
                "time": 37.361141,
                "velocity": 0.5039370078740157
              },
              {
                "duration": 0.13888899999999893,
                "durationTicks": 60,
                "midi": 59,
                "name": "B3",
                "ticks": 16200,
                "time": 37.50003,
                "velocity": 0.5039370078740157
              },
              {
                "duration": 0.13888899999999893,
                "durationTicks": 60,
                "midi": 57,
                "name": "A3",
                "ticks": 16260,
                "time": 37.638919,
                "velocity": 0.5039370078740157
              },
              {
                "duration": 0.13888900000000604,
                "durationTicks": 60,
                "midi": 55,
                "name": "G3",
                "ticks": 16320,
                "time": 37.777808,
                "velocity": 0.5039370078740157
              },
              {
                "duration": 0.13888899999999893,
                "durationTicks": 60,
                "midi": 54,
                "name": "F#3",
                "ticks": 16380,
                "time": 37.916697000000006,
                "velocity": 0.5039370078740157
              },
              {
                "duration": 0.13888899999999893,
                "durationTicks": 60,
                "midi": 55,
                "name": "G3",
                "ticks": 16440,
                "time": 38.055586000000005,
                "velocity": 0.5039370078740157
              },
              {
                "duration": 0.13888899999999893,
                "durationTicks": 60,
                "midi": 59,
                "name": "B3",
                "ticks": 16500,
                "time": 38.194475000000004,
                "velocity": 0.5039370078740157
              },
              {
                "duration": 0.13888899999999893,
                "durationTicks": 60,
                "midi": 64,
                "name": "E4",
                "ticks": 16560,
                "time": 38.333364,
                "velocity": 0.5039370078740157
              },
              {
                "duration": 0.13888899999999893,
                "durationTicks": 60,
                "midi": 59,
                "name": "B3",
                "ticks": 16620,
                "time": 38.472253,
                "velocity": 0.5039370078740157
              },
              {
                "duration": 0.13888900000000604,
                "durationTicks": 60,
                "midi": 57,
                "name": "A3",
                "ticks": 16680,
                "time": 38.611142,
                "velocity": 0.5039370078740157
              },
              {
                "duration": 0.13888899999999893,
                "durationTicks": 60,
                "midi": 55,
                "name": "G3",
                "ticks": 16740,
                "time": 38.75003100000001,
                "velocity": 0.5039370078740157
              },
              {
                "duration": 0.13888899999999893,
                "durationTicks": 60,
                "midi": 54,
                "name": "F#3",
                "ticks": 16800,
                "time": 38.888920000000006,
                "velocity": 0.5039370078740157
              },
              {
                "duration": 0.13888899999999893,
                "durationTicks": 60,
                "midi": 52,
                "name": "E3",
                "ticks": 16860,
                "time": 39.027809000000005,
                "velocity": 0.5039370078740157
              },
              {
                "duration": 0.13888899999999893,
                "durationTicks": 60,
                "midi": 54,
                "name": "F#3",
                "ticks": 16920,
                "time": 39.166698000000004,
                "velocity": 0.5039370078740157
              },
              {
                "duration": 0.13888899999999893,
                "durationTicks": 60,
                "midi": 57,
                "name": "A3",
                "ticks": 16980,
                "time": 39.305587,
                "velocity": 0.5039370078740157
              },
              {
                "duration": 0.13888899999999893,
                "durationTicks": 60,
                "midi": 63,
                "name": "D#4",
                "ticks": 17040,
                "time": 39.444476,
                "velocity": 0.5039370078740157
              },
              {
                "duration": 0.13888900000000604,
                "durationTicks": 60,
                "midi": 57,
                "name": "A3",
                "ticks": 17100,
                "time": 39.583365,
                "velocity": 0.5039370078740157
              },
              {
                "duration": 0.13888899999999893,
                "durationTicks": 60,
                "midi": 55,
                "name": "G3",
                "ticks": 17160,
                "time": 39.72225400000001,
                "velocity": 0.5039370078740157
              },
              {
                "duration": 0.13888899999999893,
                "durationTicks": 60,
                "midi": 54,
                "name": "F#3",
                "ticks": 17220,
                "time": 39.861143000000006,
                "velocity": 0.5039370078740157
              },
              {
                "duration": 0.13888899999999893,
                "durationTicks": 60,
                "midi": 52,
                "name": "E3",
                "ticks": 17280,
                "time": 40.000032000000004,
                "velocity": 0.5039370078740157
              },
              {
                "duration": 0.13888899999999893,
                "durationTicks": 60,
                "midi": 51,
                "name": "D#3",
                "ticks": 17340,
                "time": 40.138921,
                "velocity": 0.5039370078740157
              },
              {
                "duration": 0.13888899999999893,
                "durationTicks": 60,
                "midi": 52,
                "name": "E3",
                "ticks": 17400,
                "time": 40.27781,
                "velocity": 0.5039370078740157
              },
              {
                "duration": 0.13888899999999893,
                "durationTicks": 60,
                "midi": 55,
                "name": "G3",
                "ticks": 17460,
                "time": 40.416699,
                "velocity": 0.5039370078740157
              },
              {
                "duration": 0.13888900000000604,
                "durationTicks": 60,
                "midi": 60,
                "name": "C4",
                "ticks": 17520,
                "time": 40.555588,
                "velocity": 0.5039370078740157
              },
              {
                "duration": 0.13888899999999893,
                "durationTicks": 60,
                "midi": 55,
                "name": "G3",
                "ticks": 17580,
                "time": 40.694477000000006,
                "velocity": 0.5039370078740157
              },
              {
                "duration": 0.13888899999999893,
                "durationTicks": 60,
                "midi": 54,
                "name": "F#3",
                "ticks": 17640,
                "time": 40.833366000000005,
                "velocity": 0.5039370078740157
              },
              {
                "duration": 0.13888899999999893,
                "durationTicks": 60,
                "midi": 52,
                "name": "E3",
                "ticks": 17700,
                "time": 40.972255000000004,
                "velocity": 0.5039370078740157
              },
              {
                "duration": 0.27777799999999786,
                "durationTicks": 120,
                "midi": 51,
                "name": "D#3",
                "ticks": 17760,
                "time": 41.111144,
                "velocity": 0.5039370078740157
              },
              {
                "duration": 0.27777800000000497,
                "durationTicks": 120,
                "midi": 47,
                "name": "B2",
                "ticks": 17880,
                "time": 41.388922,
                "velocity": 0.5039370078740157
              },
              {
                "duration": 0.13888900000000604,
                "durationTicks": 60,
                "midi": 55,
                "name": "G3",
                "ticks": 18300,
                "time": 42.361145,
                "velocity": 0.5039370078740157
              },
              {
                "duration": 0.13888899999999893,
                "durationTicks": 60,
                "midi": 54,
                "name": "F#3",
                "ticks": 18360,
                "time": 42.50003400000001,
                "velocity": 0.5039370078740157
              },
              {
                "duration": 0.13888899999999893,
                "durationTicks": 60,
                "midi": 52,
                "name": "E3",
                "ticks": 18420,
                "time": 42.638923000000005,
                "velocity": 0.5039370078740157
              },
              {
                "duration": 0.13888899999999893,
                "durationTicks": 60,
                "midi": 51,
                "name": "D#3",
                "ticks": 18480,
                "time": 42.777812000000004,
                "velocity": 0.5039370078740157
              },
              {
                "duration": 0.13888899999999893,
                "durationTicks": 60,
                "midi": 49,
                "name": "C#3",
                "ticks": 18540,
                "time": 42.916701,
                "velocity": 0.5039370078740157
              },
              {
                "duration": 0.13888899999999893,
                "durationTicks": 60,
                "midi": 51,
                "name": "D#3",
                "ticks": 18600,
                "time": 43.05559,
                "velocity": 0.5039370078740157
              },
              {
                "duration": 0.13888900000000604,
                "durationTicks": 60,
                "midi": 47,
                "name": "B2",
                "ticks": 18660,
                "time": 43.194479,
                "velocity": 0.5039370078740157
              },
              {
                "duration": 0.13888899999999893,
                "durationTicks": 60,
                "midi": 52,
                "name": "E3",
                "ticks": 18720,
                "time": 43.33336800000001,
                "velocity": 0.5039370078740157
              },
              {
                "duration": 0.13888899999999893,
                "durationTicks": 60,
                "midi": 50,
                "name": "D3",
                "ticks": 18780,
                "time": 43.472257000000006,
                "velocity": 0.5039370078740157
              },
              {
                "duration": 0.13888899999999893,
                "durationTicks": 60,
                "midi": 48,
                "name": "C3",
                "ticks": 18840,
                "time": 43.611146000000005,
                "velocity": 0.5039370078740157
              },
              {
                "duration": 0.13888899999999893,
                "durationTicks": 60,
                "midi": 47,
                "name": "B2",
                "ticks": 18900,
                "time": 43.750035000000004,
                "velocity": 0.5039370078740157
              },
              {
                "duration": 0.13888899999999893,
                "durationTicks": 60,
                "midi": 45,
                "name": "A2",
                "ticks": 18960,
                "time": 43.888924,
                "velocity": 0.5039370078740157
              },
              {
                "duration": 0.13888899999999893,
                "durationTicks": 60,
                "midi": 43,
                "name": "G2",
                "ticks": 19020,
                "time": 44.027813,
                "velocity": 0.5039370078740157
              },
              {
                "duration": 0.13888900000000604,
                "durationTicks": 60,
                "midi": 45,
                "name": "A2",
                "ticks": 19080,
                "time": 44.166702,
                "velocity": 0.5039370078740157
              },
              {
                "duration": 0.13888899999999893,
                "durationTicks": 60,
                "midi": 42,
                "name": "F#2",
                "ticks": 19140,
                "time": 44.30559100000001,
                "velocity": 0.5039370078740157
              },
              {
                "duration": 0.13888899999999893,
                "durationTicks": 60,
                "midi": 43,
                "name": "G2",
                "ticks": 19200,
                "time": 44.444480000000006,
                "velocity": 0.5039370078740157
              },
              {
                "duration": 0.13888899999999893,
                "durationTicks": 60,
                "midi": 45,
                "name": "A2",
                "ticks": 19260,
                "time": 44.583369000000005,
                "velocity": 0.5039370078740157
              },
              {
                "duration": 0.13888899999999893,
                "durationTicks": 60,
                "midi": 43,
                "name": "G2",
                "ticks": 19320,
                "time": 44.722258000000004,
                "velocity": 0.5039370078740157
              },
              {
                "duration": 0.13888899999999893,
                "durationTicks": 60,
                "midi": 42,
                "name": "F#2",
                "ticks": 19380,
                "time": 44.861147,
                "velocity": 0.5039370078740157
              },
              {
                "duration": 0.13888900000000604,
                "durationTicks": 60,
                "midi": 40,
                "name": "E2",
                "ticks": 19440,
                "time": 45.000036,
                "velocity": 0.5039370078740157
              },
              {
                "duration": 0.13888899999999893,
                "durationTicks": 60,
                "midi": 38,
                "name": "D2",
                "ticks": 19500,
                "time": 45.13892500000001,
                "velocity": 0.5039370078740157
              },
              {
                "duration": 0.13888899999999893,
                "durationTicks": 60,
                "midi": 40,
                "name": "E2",
                "ticks": 19560,
                "time": 45.277814000000006,
                "velocity": 0.5039370078740157
              },
              {
                "duration": 0.13888899999999893,
                "durationTicks": 60,
                "midi": 36,
                "name": "C2",
                "ticks": 19620,
                "time": 45.416703000000005,
                "velocity": 0.5039370078740157
              },
              {
                "duration": 0.13888899999999893,
                "durationTicks": 60,
                "midi": 45,
                "name": "A2",
                "ticks": 19680,
                "time": 45.555592000000004,
                "velocity": 0.5039370078740157
              },
              {
                "duration": 0.13888899999999893,
                "durationTicks": 60,
                "midi": 43,
                "name": "G2",
                "ticks": 19740,
                "time": 45.694481,
                "velocity": 0.5039370078740157
              },
              {
                "duration": 0.13888899999999893,
                "durationTicks": 60,
                "midi": 45,
                "name": "A2",
                "ticks": 19800,
                "time": 45.83337,
                "velocity": 0.5039370078740157
              },
              {
                "duration": 0.13888900000000604,
                "durationTicks": 60,
                "midi": 42,
                "name": "F#2",
                "ticks": 19860,
                "time": 45.972259,
                "velocity": 0.5039370078740157
              },
              {
                "duration": 0.13888899999999893,
                "durationTicks": 60,
                "midi": 47,
                "name": "B2",
                "ticks": 19920,
                "time": 46.11114800000001,
                "velocity": 0.5039370078740157
              },
              {
                "duration": 0.13888899999999893,
                "durationTicks": 60,
                "midi": 45,
                "name": "A2",
                "ticks": 19980,
                "time": 46.250037000000006,
                "velocity": 0.5039370078740157
              },
              {
                "duration": 0.13888899999999893,
                "durationTicks": 60,
                "midi": 47,
                "name": "B2",
                "ticks": 20040,
                "time": 46.388926000000005,
                "velocity": 0.5039370078740157
              },
              {
                "duration": 0.13888899999999893,
                "durationTicks": 60,
                "midi": 43,
                "name": "G2",
                "ticks": 20100,
                "time": 46.527815000000004,
                "velocity": 0.5039370078740157
              },
              {
                "duration": 1.2268528333333322,
                "durationTicks": 530,
                "midi": 48,
                "name": "C3",
                "ticks": 20160,
                "time": 46.666704,
                "velocity": 0.5039370078740157
              },
              {
                "duration": 0.13888899999999893,
                "durationTicks": 60,
                "midi": 60,
                "name": "C4",
                "ticks": 20700,
                "time": 47.91670500000001,
                "velocity": 0.5039370078740157
              },
              {
                "duration": 0.13888899999999893,
                "durationTicks": 60,
                "midi": 59,
                "name": "B3",
                "ticks": 20760,
                "time": 48.055594000000006,
                "velocity": 0.5039370078740157
              },
              {
                "duration": 0.13888899999999893,
                "durationTicks": 60,
                "midi": 57,
                "name": "A3",
                "ticks": 20820,
                "time": 48.194483000000005,
                "velocity": 0.5039370078740157
              },
              {
                "duration": 0.13888899999999893,
                "durationTicks": 60,
                "midi": 55,
                "name": "G3",
                "ticks": 20880,
                "time": 48.333372000000004,
                "velocity": 0.5039370078740157
              },
              {
                "duration": 0.13888899999999893,
                "durationTicks": 60,
                "midi": 54,
                "name": "F#3",
                "ticks": 20940,
                "time": 48.472261,
                "velocity": 0.5039370078740157
              },
              {
                "duration": 0.13888899999999893,
                "durationTicks": 60,
                "midi": 55,
                "name": "G3",
                "ticks": 21000,
                "time": 48.61115,
                "velocity": 0.5039370078740157
              },
              {
                "duration": 0.13888900000000604,
                "durationTicks": 60,
                "midi": 52,
                "name": "E3",
                "ticks": 21060,
                "time": 48.750039,
                "velocity": 0.5039370078740157
              },
              {
                "duration": 0.27777799999999786,
                "durationTicks": 120,
                "midi": 51,
                "name": "D#3",
                "ticks": 21120,
                "time": 48.88892800000001,
                "velocity": 0.5039370078740157
              },
              {
                "duration": 0.27777799999999786,
                "durationTicks": 120,
                "midi": 52,
                "name": "E3",
                "ticks": 21240,
                "time": 49.166706000000005,
                "velocity": 0.5039370078740157
              },
              {
                "duration": 0.27777800000000497,
                "durationTicks": 120,
                "midi": 59,
                "name": "B3",
                "ticks": 21360,
                "time": 49.444484,
                "velocity": 0.5039370078740157
              },
              {
                "duration": 0.27777799999999786,
                "durationTicks": 120,
                "midi": 47,
                "name": "B2",
                "ticks": 21480,
                "time": 49.72226200000001,
                "velocity": 0.5039370078740157
              },
              {
                "duration": 1.6666680000000014,
                "durationTicks": 720,
                "midi": 40,
                "name": "E2",
                "ticks": 21600,
                "time": 50.000040000000006,
                "velocity": 0.5039370078740157
              }
            ],
            "endOfTrackTicks": 22320
          }
        ]
    },

    "invention-08" : {
        "header": {
          "keySignatures": [],
          "meta": [],
          "name": "Invention 8 in F Major",
          "ppq": 240,
          "tempos": [
            {
              "bpm": 120,
              "ticks": 0
            }
          ],
          "timeSignatures": [
            {
              "ticks": 0,
              "timeSignature": [
                3,
                4
              ],
              "measures": 0
            }
          ]
        },
        "tracks": [
          {
            "channel": 0,
            "controlChanges": {},
            "pitchBends": [],
            "instrument": {
              "family": "piano",
              "number": 0,
              "name": "acoustic grand piano"
            },
            "name": "",
            "notes": [
              {
                "duration": 0.25,
                "durationTicks": 120,
                "midi": 65,
                "name": "F4",
                "ticks": 120,
                "time": 0.25,
                "velocity": 0.5039370078740157
              },
              {
                "duration": 0.25,
                "durationTicks": 120,
                "midi": 69,
                "name": "A4",
                "ticks": 240,
                "time": 0.5,
                "velocity": 0.5039370078740157
              },
              {
                "duration": 0.25,
                "durationTicks": 120,
                "midi": 65,
                "name": "F4",
                "ticks": 360,
                "time": 0.75,
                "velocity": 0.5039370078740157
              },
              {
                "duration": 0.25,
                "durationTicks": 120,
                "midi": 72,
                "name": "C5",
                "ticks": 480,
                "time": 1,
                "velocity": 0.5039370078740157
              },
              {
                "duration": 0.25,
                "durationTicks": 120,
                "midi": 65,
                "name": "F4",
                "ticks": 600,
                "time": 1.25,
                "velocity": 0.5039370078740157
              },
              {
                "duration": 0.25,
                "durationTicks": 120,
                "midi": 77,
                "name": "F5",
                "ticks": 720,
                "time": 1.5,
                "velocity": 0.5039370078740157
              },
              {
                "duration": 0.125,
                "durationTicks": 60,
                "midi": 76,
                "name": "E5",
                "ticks": 840,
                "time": 1.75,
                "velocity": 0.5039370078740157
              },
              {
                "duration": 0.125,
                "durationTicks": 60,
                "midi": 74,
                "name": "D5",
                "ticks": 900,
                "time": 1.875,
                "velocity": 0.5039370078740157
              },
              {
                "duration": 0.125,
                "durationTicks": 60,
                "midi": 72,
                "name": "C5",
                "ticks": 960,
                "time": 2,
                "velocity": 0.5039370078740157
              },
              {
                "duration": 0.125,
                "durationTicks": 60,
                "midi": 74,
                "name": "D5",
                "ticks": 1020,
                "time": 2.125,
                "velocity": 0.5039370078740157
              },
              {
                "duration": 0.125,
                "durationTicks": 60,
                "midi": 72,
                "name": "C5",
                "ticks": 1080,
                "time": 2.25,
                "velocity": 0.5039370078740157
              },
              {
                "duration": 0.125,
                "durationTicks": 60,
                "midi": 70,
                "name": "A#4",
                "ticks": 1140,
                "time": 2.375,
                "velocity": 0.5039370078740157
              },
              {
                "duration": 0.125,
                "durationTicks": 60,
                "midi": 69,
                "name": "A4",
                "ticks": 1200,
                "time": 2.5,
                "velocity": 0.5039370078740157
              },
              {
                "duration": 0.125,
                "durationTicks": 60,
                "midi": 70,
                "name": "A#4",
                "ticks": 1260,
                "time": 2.625,
                "velocity": 0.5039370078740157
              },
              {
                "duration": 0.125,
                "durationTicks": 60,
                "midi": 69,
                "name": "A4",
                "ticks": 1320,
                "time": 2.75,
                "velocity": 0.5039370078740157
              },
              {
                "duration": 0.125,
                "durationTicks": 60,
                "midi": 67,
                "name": "G4",
                "ticks": 1380,
                "time": 2.875,
                "velocity": 0.5039370078740157
              },
              {
                "duration": 0.25,
                "durationTicks": 120,
                "midi": 69,
                "name": "A4",
                "ticks": 1560,
                "time": 3.25,
                "velocity": 0.5039370078740157
              },
              {
                "duration": 0.25,
                "durationTicks": 120,
                "midi": 72,
                "name": "C5",
                "ticks": 1680,
                "time": 3.5,
                "velocity": 0.5039370078740157
              },
              {
                "duration": 0.25,
                "durationTicks": 120,
                "midi": 69,
                "name": "A4",
                "ticks": 1800,
                "time": 3.75,
                "velocity": 0.5039370078740157
              },
              {
                "duration": 0.25,
                "durationTicks": 120,
                "midi": 77,
                "name": "F5",
                "ticks": 1920,
                "time": 4,
                "velocity": 0.5039370078740157
              },
              {
                "duration": 0.25,
                "durationTicks": 120,
                "midi": 72,
                "name": "C5",
                "ticks": 2040,
                "time": 4.25,
                "velocity": 0.5039370078740157
              },
              {
                "duration": 0.125,
                "durationTicks": 60,
                "midi": 81,
                "name": "A5",
                "ticks": 2160,
                "time": 4.5,
                "velocity": 0.5039370078740157
              },
              {
                "duration": 0.125,
                "durationTicks": 60,
                "midi": 84,
                "name": "C6",
                "ticks": 2220,
                "time": 4.625,
                "velocity": 0.5039370078740157
              },
              {
                "duration": 0.125,
                "durationTicks": 60,
                "midi": 82,
                "name": "A#5",
                "ticks": 2280,
                "time": 4.75,
                "velocity": 0.5039370078740157
              },
              {
                "duration": 0.125,
                "durationTicks": 60,
                "midi": 84,
                "name": "C6",
                "ticks": 2340,
                "time": 4.875,
                "velocity": 0.5039370078740157
              },
              {
                "duration": 0.125,
                "durationTicks": 60,
                "midi": 81,
                "name": "A5",
                "ticks": 2400,
                "time": 5,
                "velocity": 0.5039370078740157
              },
              {
                "duration": 0.125,
                "durationTicks": 60,
                "midi": 84,
                "name": "C6",
                "ticks": 2460,
                "time": 5.125,
                "velocity": 0.5039370078740157
              },
              {
                "duration": 0.125,
                "durationTicks": 60,
                "midi": 82,
                "name": "A#5",
                "ticks": 2520,
                "time": 5.25,
                "velocity": 0.5039370078740157
              },
              {
                "duration": 0.125,
                "durationTicks": 60,
                "midi": 84,
                "name": "C6",
                "ticks": 2580,
                "time": 5.375,
                "velocity": 0.5039370078740157
              },
              {
                "duration": 0.125,
                "durationTicks": 60,
                "midi": 81,
                "name": "A5",
                "ticks": 2640,
                "time": 5.5,
                "velocity": 0.5039370078740157
              },
              {
                "duration": 0.125,
                "durationTicks": 60,
                "midi": 84,
                "name": "C6",
                "ticks": 2700,
                "time": 5.625,
                "velocity": 0.5039370078740157
              },
              {
                "duration": 0.125,
                "durationTicks": 60,
                "midi": 82,
                "name": "A#5",
                "ticks": 2760,
                "time": 5.75,
                "velocity": 0.5039370078740157
              },
              {
                "duration": 0.125,
                "durationTicks": 60,
                "midi": 84,
                "name": "C6",
                "ticks": 2820,
                "time": 5.875,
                "velocity": 0.5039370078740157
              },
              {
                "duration": 0.125,
                "durationTicks": 60,
                "midi": 77,
                "name": "F5",
                "ticks": 2880,
                "time": 6,
                "velocity": 0.5039370078740157
              },
              {
                "duration": 0.125,
                "durationTicks": 60,
                "midi": 81,
                "name": "A5",
                "ticks": 2940,
                "time": 6.125,
                "velocity": 0.5039370078740157
              },
              {
                "duration": 0.125,
                "durationTicks": 60,
                "midi": 79,
                "name": "G5",
                "ticks": 3000,
                "time": 6.25,
                "velocity": 0.5039370078740157
              },
              {
                "duration": 0.125,
                "durationTicks": 60,
                "midi": 81,
                "name": "A5",
                "ticks": 3060,
                "time": 6.375,
                "velocity": 0.5039370078740157
              },
              {
                "duration": 0.125,
                "durationTicks": 60,
                "midi": 77,
                "name": "F5",
                "ticks": 3120,
                "time": 6.5,
                "velocity": 0.5039370078740157
              },
              {
                "duration": 0.125,
                "durationTicks": 60,
                "midi": 81,
                "name": "A5",
                "ticks": 3180,
                "time": 6.625,
                "velocity": 0.5039370078740157
              },
              {
                "duration": 0.125,
                "durationTicks": 60,
                "midi": 79,
                "name": "G5",
                "ticks": 3240,
                "time": 6.75,
                "velocity": 0.5039370078740157
              },
              {
                "duration": 0.125,
                "durationTicks": 60,
                "midi": 81,
                "name": "A5",
                "ticks": 3300,
                "time": 6.875,
                "velocity": 0.5039370078740157
              },
              {
                "duration": 0.125,
                "durationTicks": 60,
                "midi": 77,
                "name": "F5",
                "ticks": 3360,
                "time": 7,
                "velocity": 0.5039370078740157
              },
              {
                "duration": 0.125,
                "durationTicks": 60,
                "midi": 81,
                "name": "A5",
                "ticks": 3420,
                "time": 7.125,
                "velocity": 0.5039370078740157
              },
              {
                "duration": 0.125,
                "durationTicks": 60,
                "midi": 79,
                "name": "G5",
                "ticks": 3480,
                "time": 7.25,
                "velocity": 0.5039370078740157
              },
              {
                "duration": 0.125,
                "durationTicks": 60,
                "midi": 81,
                "name": "A5",
                "ticks": 3540,
                "time": 7.375,
                "velocity": 0.5039370078740157
              },
              {
                "duration": 0.125,
                "durationTicks": 60,
                "midi": 74,
                "name": "D5",
                "ticks": 3600,
                "time": 7.5,
                "velocity": 0.5039370078740157
              },
              {
                "duration": 0.125,
                "durationTicks": 60,
                "midi": 77,
                "name": "F5",
                "ticks": 3660,
                "time": 7.625,
                "velocity": 0.5039370078740157
              },
              {
                "duration": 0.125,
                "durationTicks": 60,
                "midi": 76,
                "name": "E5",
                "ticks": 3720,
                "time": 7.75,
                "velocity": 0.5039370078740157
              },
              {
                "duration": 0.125,
                "durationTicks": 60,
                "midi": 77,
                "name": "F5",
                "ticks": 3780,
                "time": 7.875,
                "velocity": 0.5039370078740157
              },
              {
                "duration": 0.125,
                "durationTicks": 60,
                "midi": 74,
                "name": "D5",
                "ticks": 3840,
                "time": 8,
                "velocity": 0.5039370078740157
              },
              {
                "duration": 0.125,
                "durationTicks": 60,
                "midi": 77,
                "name": "F5",
                "ticks": 3900,
                "time": 8.125,
                "velocity": 0.5039370078740157
              },
              {
                "duration": 0.125,
                "durationTicks": 60,
                "midi": 76,
                "name": "E5",
                "ticks": 3960,
                "time": 8.25,
                "velocity": 0.5039370078740157
              },
              {
                "duration": 0.125,
                "durationTicks": 60,
                "midi": 77,
                "name": "F5",
                "ticks": 4020,
                "time": 8.375,
                "velocity": 0.5039370078740157
              },
              {
                "duration": 0.125,
                "durationTicks": 60,
                "midi": 74,
                "name": "D5",
                "ticks": 4080,
                "time": 8.5,
                "velocity": 0.5039370078740157
              },
              {
                "duration": 0.125,
                "durationTicks": 60,
                "midi": 77,
                "name": "F5",
                "ticks": 4140,
                "time": 8.625,
                "velocity": 0.5039370078740157
              },
              {
                "duration": 0.125,
                "durationTicks": 60,
                "midi": 76,
                "name": "E5",
                "ticks": 4200,
                "time": 8.75,
                "velocity": 0.5039370078740157
              },
              {
                "duration": 0.125,
                "durationTicks": 60,
                "midi": 77,
                "name": "F5",
                "ticks": 4260,
                "time": 8.875,
                "velocity": 0.5039370078740157
              },
              {
                "duration": 0.25,
                "durationTicks": 120,
                "midi": 71,
                "name": "B4",
                "ticks": 4320,
                "time": 9,
                "velocity": 0.5039370078740157
              },
              {
                "duration": 0.25,
                "durationTicks": 120,
                "midi": 67,
                "name": "G4",
                "ticks": 4440,
                "time": 9.25,
                "velocity": 0.5039370078740157
              },
              {
                "duration": 0.25,
                "durationTicks": 120,
                "midi": 74,
                "name": "D5",
                "ticks": 4560,
                "time": 9.5,
                "velocity": 0.5039370078740157
              },
              {
                "duration": 0.25,
                "durationTicks": 120,
                "midi": 71,
                "name": "B4",
                "ticks": 4680,
                "time": 9.75,
                "velocity": 0.5039370078740157
              },
              {
                "duration": 0.25,
                "durationTicks": 120,
                "midi": 77,
                "name": "F5",
                "ticks": 4800,
                "time": 10,
                "velocity": 0.5039370078740157
              },
              {
                "duration": 0.25,
                "durationTicks": 120,
                "midi": 74,
                "name": "D5",
                "ticks": 4920,
                "time": 10.25,
                "velocity": 0.5039370078740157
              },
              {
                "duration": 0.125,
                "durationTicks": 60,
                "midi": 79,
                "name": "G5",
                "ticks": 5040,
                "time": 10.5,
                "velocity": 0.5039370078740157
              },
              {
                "duration": 0.125,
                "durationTicks": 60,
                "midi": 81,
                "name": "A5",
                "ticks": 5100,
                "time": 10.625,
                "velocity": 0.5039370078740157
              },
              {
                "duration": 0.125,
                "durationTicks": 60,
                "midi": 79,
                "name": "G5",
                "ticks": 5160,
                "time": 10.75,
                "velocity": 0.5039370078740157
              },
              {
                "duration": 0.125,
                "durationTicks": 60,
                "midi": 77,
                "name": "F5",
                "ticks": 5220,
                "time": 10.875,
                "velocity": 0.5039370078740157
              },
              {
                "duration": 0.125,
                "durationTicks": 60,
                "midi": 76,
                "name": "E5",
                "ticks": 5280,
                "time": 11,
                "velocity": 0.5039370078740157
              },
              {
                "duration": 0.125,
                "durationTicks": 60,
                "midi": 77,
                "name": "F5",
                "ticks": 5340,
                "time": 11.125,
                "velocity": 0.5039370078740157
              },
              {
                "duration": 0.125,
                "durationTicks": 60,
                "midi": 76,
                "name": "E5",
                "ticks": 5400,
                "time": 11.25,
                "velocity": 0.5039370078740157
              },
              {
                "duration": 0.125,
                "durationTicks": 60,
                "midi": 74,
                "name": "D5",
                "ticks": 5460,
                "time": 11.375,
                "velocity": 0.5039370078740157
              },
              {
                "duration": 0.125,
                "durationTicks": 60,
                "midi": 72,
                "name": "C5",
                "ticks": 5520,
                "time": 11.5,
                "velocity": 0.5039370078740157
              },
              {
                "duration": 0.125,
                "durationTicks": 60,
                "midi": 74,
                "name": "D5",
                "ticks": 5580,
                "time": 11.625,
                "velocity": 0.5039370078740157
              },
              {
                "duration": 0.125,
                "durationTicks": 60,
                "midi": 72,
                "name": "C5",
                "ticks": 5640,
                "time": 11.75,
                "velocity": 0.5039370078740157
              },
              {
                "duration": 0.125,
                "durationTicks": 60,
                "midi": 70,
                "name": "A#4",
                "ticks": 5700,
                "time": 11.875,
                "velocity": 0.5039370078740157
              },
              {
                "duration": 0.25,
                "durationTicks": 120,
                "midi": 69,
                "name": "A4",
                "ticks": 5760,
                "time": 12,
                "velocity": 0.5039370078740157
              },
              {
                "duration": 0.125,
                "durationTicks": 60,
                "midi": 74,
                "name": "D5",
                "ticks": 5880,
                "time": 12.25,
                "velocity": 0.5039370078740157
              },
              {
                "duration": 0.125,
                "durationTicks": 60,
                "midi": 72,
                "name": "C5",
                "ticks": 5940,
                "time": 12.375,
                "velocity": 0.5039370078740157
              },
              {
                "duration": 0.125,
                "durationTicks": 60,
                "midi": 71,
                "name": "B4",
                "ticks": 6000,
                "time": 12.5,
                "velocity": 0.5039370078740157
              },
              {
                "duration": 0.125,
                "durationTicks": 60,
                "midi": 72,
                "name": "C5",
                "ticks": 6060,
                "time": 12.625,
                "velocity": 0.5039370078740157
              },
              {
                "duration": 0.125,
                "durationTicks": 60,
                "midi": 71,
                "name": "B4",
                "ticks": 6120,
                "time": 12.75,
                "velocity": 0.5039370078740157
              },
              {
                "duration": 0.125,
                "durationTicks": 60,
                "midi": 69,
                "name": "A4",
                "ticks": 6180,
                "time": 12.875,
                "velocity": 0.5039370078740157
              },
              {
                "duration": 0.125,
                "durationTicks": 60,
                "midi": 67,
                "name": "G4",
                "ticks": 6240,
                "time": 13,
                "velocity": 0.5039370078740157
              },
              {
                "duration": 0.125,
                "durationTicks": 60,
                "midi": 69,
                "name": "A4",
                "ticks": 6300,
                "time": 13.125,
                "velocity": 0.5039370078740157
              },
              {
                "duration": 0.125,
                "durationTicks": 60,
                "midi": 67,
                "name": "G4",
                "ticks": 6360,
                "time": 13.25,
                "velocity": 0.5039370078740157
              },
              {
                "duration": 0.125,
                "durationTicks": 60,
                "midi": 65,
                "name": "F4",
                "ticks": 6420,
                "time": 13.375,
                "velocity": 0.5039370078740157
              },
              {
                "duration": 0.125,
                "durationTicks": 60,
                "midi": 64,
                "name": "E4",
                "ticks": 6480,
                "time": 13.5,
                "velocity": 0.5039370078740157
              },
              {
                "duration": 0.125,
                "durationTicks": 60,
                "midi": 65,
                "name": "F4",
                "ticks": 6540,
                "time": 13.625,
                "velocity": 0.5039370078740157
              },
              {
                "duration": 0.125,
                "durationTicks": 60,
                "midi": 64,
                "name": "E4",
                "ticks": 6600,
                "time": 13.75,
                "velocity": 0.5039370078740157
              },
              {
                "duration": 0.125,
                "durationTicks": 60,
                "midi": 62,
                "name": "D4",
                "ticks": 6660,
                "time": 13.875,
                "velocity": 0.5039370078740157
              },
              {
                "duration": 0.25,
                "durationTicks": 120,
                "midi": 60,
                "name": "C4",
                "ticks": 6720,
                "time": 14,
                "velocity": 0.5039370078740157
              },
              {
                "duration": 0.125,
                "durationTicks": 60,
                "midi": 72,
                "name": "C5",
                "ticks": 6840,
                "time": 14.25,
                "velocity": 0.5039370078740157
              },
              {
                "duration": 0.125,
                "durationTicks": 60,
                "midi": 71,
                "name": "B4",
                "ticks": 6900,
                "time": 14.375,
                "velocity": 0.5039370078740157
              },
              {
                "duration": 0.25,
                "durationTicks": 120,
                "midi": 72,
                "name": "C5",
                "ticks": 6960,
                "time": 14.5,
                "velocity": 0.5039370078740157
              },
              {
                "duration": 0.25,
                "durationTicks": 120,
                "midi": 64,
                "name": "E4",
                "ticks": 7080,
                "time": 14.75,
                "velocity": 0.5039370078740157
              },
              {
                "duration": 0.25,
                "durationTicks": 120,
                "midi": 65,
                "name": "F4",
                "ticks": 7200,
                "time": 15,
                "velocity": 0.5039370078740157
              },
              {
                "duration": 0.25,
                "durationTicks": 120,
                "midi": 72,
                "name": "C5",
                "ticks": 7320,
                "time": 15.25,
                "velocity": 0.5039370078740157
              },
              {
                "duration": 0.25,
                "durationTicks": 120,
                "midi": 64,
                "name": "E4",
                "ticks": 7440,
                "time": 15.5,
                "velocity": 0.5039370078740157
              },
              {
                "duration": 0.25,
                "durationTicks": 120,
                "midi": 72,
                "name": "C5",
                "ticks": 7560,
                "time": 15.75,
                "velocity": 0.5039370078740157
              },
              {
                "duration": 0.25,
                "durationTicks": 120,
                "midi": 62,
                "name": "D4",
                "ticks": 7680,
                "time": 16,
                "velocity": 0.5039370078740157
              },
              {
                "duration": 0.25,
                "durationTicks": 120,
                "midi": 71,
                "name": "B4",
                "ticks": 7800,
                "time": 16.25,
                "velocity": 0.5039370078740157
              },
              {
                "duration": 0.5,
                "durationTicks": 240,
                "midi": 72,
                "name": "C5",
                "ticks": 7920,
                "time": 16.5,
                "velocity": 0.5039370078740157
              },
              {
                "duration": 0.25,
                "durationTicks": 120,
                "midi": 72,
                "name": "C5",
                "ticks": 8760,
                "time": 18.25,
                "velocity": 0.5039370078740157
              },
              {
                "duration": 0.25,
                "durationTicks": 120,
                "midi": 76,
                "name": "E5",
                "ticks": 8880,
                "time": 18.5,
                "velocity": 0.5039370078740157
              },
              {
                "duration": 0.25,
                "durationTicks": 120,
                "midi": 72,
                "name": "C5",
                "ticks": 9000,
                "time": 18.75,
                "velocity": 0.5039370078740157
              },
              {
                "duration": 0.25,
                "durationTicks": 120,
                "midi": 79,
                "name": "G5",
                "ticks": 9120,
                "time": 19,
                "velocity": 0.5039370078740157
              },
              {
                "duration": 0.25,
                "durationTicks": 120,
                "midi": 72,
                "name": "C5",
                "ticks": 9240,
                "time": 19.25,
                "velocity": 0.5039370078740157
              },
              {
                "duration": 0.25,
                "durationTicks": 120,
                "midi": 84,
                "name": "C6",
                "ticks": 9360,
                "time": 19.5,
                "velocity": 0.5039370078740157
              },
              {
                "duration": 0.125,
                "durationTicks": 60,
                "midi": 83,
                "name": "B5",
                "ticks": 9480,
                "time": 19.75,
                "velocity": 0.5039370078740157
              },
              {
                "duration": 0.125,
                "durationTicks": 60,
                "midi": 81,
                "name": "A5",
                "ticks": 9540,
                "time": 19.875,
                "velocity": 0.5039370078740157
              },
              {
                "duration": 0.125,
                "durationTicks": 60,
                "midi": 79,
                "name": "G5",
                "ticks": 9600,
                "time": 20,
                "velocity": 0.5039370078740157
              },
              {
                "duration": 0.125,
                "durationTicks": 60,
                "midi": 81,
                "name": "A5",
                "ticks": 9660,
                "time": 20.125,
                "velocity": 0.5039370078740157
              },
              {
                "duration": 0.125,
                "durationTicks": 60,
                "midi": 79,
                "name": "G5",
                "ticks": 9720,
                "time": 20.25,
                "velocity": 0.5039370078740157
              },
              {
                "duration": 0.125,
                "durationTicks": 60,
                "midi": 77,
                "name": "F5",
                "ticks": 9780,
                "time": 20.375,
                "velocity": 0.5039370078740157
              },
              {
                "duration": 0.125,
                "durationTicks": 60,
                "midi": 76,
                "name": "E5",
                "ticks": 9840,
                "time": 20.5,
                "velocity": 0.5039370078740157
              },
              {
                "duration": 0.125,
                "durationTicks": 60,
                "midi": 77,
                "name": "F5",
                "ticks": 9900,
                "time": 20.625,
                "velocity": 0.5039370078740157
              },
              {
                "duration": 0.125,
                "durationTicks": 60,
                "midi": 76,
                "name": "E5",
                "ticks": 9960,
                "time": 20.75,
                "velocity": 0.5039370078740157
              },
              {
                "duration": 0.125,
                "durationTicks": 60,
                "midi": 74,
                "name": "D5",
                "ticks": 10020,
                "time": 20.875,
                "velocity": 0.5039370078740157
              },
              {
                "duration": 0.125,
                "durationTicks": 60,
                "midi": 72,
                "name": "C5",
                "ticks": 10080,
                "time": 21,
                "velocity": 0.5039370078740157
              },
              {
                "duration": 0.125,
                "durationTicks": 60,
                "midi": 70,
                "name": "A#4",
                "ticks": 10140,
                "time": 21.125,
                "velocity": 0.5039370078740157
              },
              {
                "duration": 0.125,
                "durationTicks": 60,
                "midi": 72,
                "name": "C5",
                "ticks": 10200,
                "time": 21.25,
                "velocity": 0.5039370078740157
              },
              {
                "duration": 0.125,
                "durationTicks": 60,
                "midi": 81,
                "name": "A5",
                "ticks": 10260,
                "time": 21.375,
                "velocity": 0.5039370078740157
              },
              {
                "duration": 0.125,
                "durationTicks": 60,
                "midi": 72,
                "name": "C5",
                "ticks": 10320,
                "time": 21.5,
                "velocity": 0.5039370078740157
              },
              {
                "duration": 0.125,
                "durationTicks": 60,
                "midi": 81,
                "name": "A5",
                "ticks": 10380,
                "time": 21.625,
                "velocity": 0.5039370078740157
              },
              {
                "duration": 0.125,
                "durationTicks": 60,
                "midi": 70,
                "name": "A#4",
                "ticks": 10440,
                "time": 21.75,
                "velocity": 0.5039370078740157
              },
              {
                "duration": 0.125,
                "durationTicks": 60,
                "midi": 81,
                "name": "A5",
                "ticks": 10500,
                "time": 21.875,
                "velocity": 0.5039370078740157
              },
              {
                "duration": 0.125,
                "durationTicks": 60,
                "midi": 72,
                "name": "C5",
                "ticks": 10560,
                "time": 22,
                "velocity": 0.5039370078740157
              },
              {
                "duration": 0.125,
                "durationTicks": 60,
                "midi": 81,
                "name": "A5",
                "ticks": 10620,
                "time": 22.125,
                "velocity": 0.5039370078740157
              },
              {
                "duration": 0.125,
                "durationTicks": 60,
                "midi": 69,
                "name": "A4",
                "ticks": 10680,
                "time": 22.25,
                "velocity": 0.5039370078740157
              },
              {
                "duration": 0.125,
                "durationTicks": 60,
                "midi": 81,
                "name": "A5",
                "ticks": 10740,
                "time": 22.375,
                "velocity": 0.5039370078740157
              },
              {
                "duration": 0.25,
                "durationTicks": 120,
                "midi": 70,
                "name": "A#4",
                "ticks": 10800,
                "time": 22.5,
                "velocity": 0.5039370078740157
              },
              {
                "duration": 0.25,
                "durationTicks": 120,
                "midi": 67,
                "name": "G4",
                "ticks": 10920,
                "time": 22.75,
                "velocity": 0.5039370078740157
              },
              {
                "duration": 0.25,
                "durationTicks": 120,
                "midi": 70,
                "name": "A#4",
                "ticks": 11040,
                "time": 23,
                "velocity": 0.5039370078740157
              },
              {
                "duration": 0.25,
                "durationTicks": 120,
                "midi": 67,
                "name": "G4",
                "ticks": 11160,
                "time": 23.25,
                "velocity": 0.5039370078740157
              },
              {
                "duration": 0.25,
                "durationTicks": 120,
                "midi": 74,
                "name": "D5",
                "ticks": 11280,
                "time": 23.5,
                "velocity": 0.5039370078740157
              },
              {
                "duration": 0.25,
                "durationTicks": 120,
                "midi": 70,
                "name": "A#4",
                "ticks": 11400,
                "time": 23.75,
                "velocity": 0.5039370078740157
              },
              {
                "duration": 0.25,
                "durationTicks": 120,
                "midi": 79,
                "name": "G5",
                "ticks": 11520,
                "time": 24,
                "velocity": 0.5039370078740157
              },
              {
                "duration": 0.125,
                "durationTicks": 60,
                "midi": 77,
                "name": "F5",
                "ticks": 11640,
                "time": 24.25,
                "velocity": 0.5039370078740157
              },
              {
                "duration": 0.125,
                "durationTicks": 60,
                "midi": 75,
                "name": "D#5",
                "ticks": 11700,
                "time": 24.375,
                "velocity": 0.5039370078740157
              },
              {
                "duration": 0.125,
                "durationTicks": 60,
                "midi": 74,
                "name": "D5",
                "ticks": 11760,
                "time": 24.5,
                "velocity": 0.5039370078740157
              },
              {
                "duration": 0.125,
                "durationTicks": 60,
                "midi": 75,
                "name": "D#5",
                "ticks": 11820,
                "time": 24.625,
                "velocity": 0.5039370078740157
              },
              {
                "duration": 0.125,
                "durationTicks": 60,
                "midi": 74,
                "name": "D5",
                "ticks": 11880,
                "time": 24.75,
                "velocity": 0.5039370078740157
              },
              {
                "duration": 0.125,
                "durationTicks": 60,
                "midi": 72,
                "name": "C5",
                "ticks": 11940,
                "time": 24.875,
                "velocity": 0.5039370078740157
              },
              {
                "duration": 0.125,
                "durationTicks": 60,
                "midi": 70,
                "name": "A#4",
                "ticks": 12000,
                "time": 25,
                "velocity": 0.5039370078740157
              },
              {
                "duration": 0.125,
                "durationTicks": 60,
                "midi": 72,
                "name": "C5",
                "ticks": 12060,
                "time": 25.125,
                "velocity": 0.5039370078740157
              },
              {
                "duration": 0.125,
                "durationTicks": 60,
                "midi": 70,
                "name": "A#4",
                "ticks": 12120,
                "time": 25.25,
                "velocity": 0.5039370078740157
              },
              {
                "duration": 0.125,
                "durationTicks": 60,
                "midi": 69,
                "name": "A4",
                "ticks": 12180,
                "time": 25.375,
                "velocity": 0.5039370078740157
              },
              {
                "duration": 0.25,
                "durationTicks": 120,
                "midi": 70,
                "name": "A#4",
                "ticks": 12360,
                "time": 25.75,
                "velocity": 0.5039370078740157
              },
              {
                "duration": 0.25,
                "durationTicks": 120,
                "midi": 74,
                "name": "D5",
                "ticks": 12480,
                "time": 26,
                "velocity": 0.5039370078740157
              },
              {
                "duration": 0.25,
                "durationTicks": 120,
                "midi": 70,
                "name": "A#4",
                "ticks": 12600,
                "time": 26.25,
                "velocity": 0.5039370078740157
              },
              {
                "duration": 0.25,
                "durationTicks": 120,
                "midi": 79,
                "name": "G5",
                "ticks": 12720,
                "time": 26.5,
                "velocity": 0.5039370078740157
              },
              {
                "duration": 0.25,
                "durationTicks": 120,
                "midi": 74,
                "name": "D5",
                "ticks": 12840,
                "time": 26.75,
                "velocity": 0.5039370078740157
              },
              {
                "duration": 0.25,
                "durationTicks": 120,
                "midi": 82,
                "name": "A#5",
                "ticks": 12960,
                "time": 27,
                "velocity": 0.5039370078740157
              },
              {
                "duration": 0.25,
                "durationTicks": 120,
                "midi": 73,
                "name": "C#5",
                "ticks": 13080,
                "time": 27.25,
                "velocity": 0.5039370078740157
              },
              {
                "duration": 0.25,
                "durationTicks": 120,
                "midi": 82,
                "name": "A#5",
                "ticks": 13200,
                "time": 27.5,
                "velocity": 0.5039370078740157
              },
              {
                "duration": 0.25,
                "durationTicks": 120,
                "midi": 73,
                "name": "C#5",
                "ticks": 13320,
                "time": 27.75,
                "velocity": 0.5039370078740157
              },
              {
                "duration": 0.25,
                "durationTicks": 120,
                "midi": 82,
                "name": "A#5",
                "ticks": 13440,
                "time": 28,
                "velocity": 0.5039370078740157
              },
              {
                "duration": 0.25,
                "durationTicks": 120,
                "midi": 73,
                "name": "C#5",
                "ticks": 13560,
                "time": 28.25,
                "velocity": 0.5039370078740157
              },
              {
                "duration": 0.25,
                "durationTicks": 120,
                "midi": 74,
                "name": "D5",
                "ticks": 13680,
                "time": 28.5,
                "velocity": 0.5039370078740157
              },
              {
                "duration": 0.25,
                "durationTicks": 120,
                "midi": 69,
                "name": "A4",
                "ticks": 13800,
                "time": 28.75,
                "velocity": 0.5039370078740157
              },
              {
                "duration": 0.25,
                "durationTicks": 120,
                "midi": 77,
                "name": "F5",
                "ticks": 13920,
                "time": 29,
                "velocity": 0.5039370078740157
              },
              {
                "duration": 0.25,
                "durationTicks": 120,
                "midi": 74,
                "name": "D5",
                "ticks": 14040,
                "time": 29.25,
                "velocity": 0.5039370078740157
              },
              {
                "duration": 0.25,
                "durationTicks": 120,
                "midi": 81,
                "name": "A5",
                "ticks": 14160,
                "time": 29.5,
                "velocity": 0.5039370078740157
              },
              {
                "duration": 0.25,
                "durationTicks": 120,
                "midi": 77,
                "name": "F5",
                "ticks": 14280,
                "time": 29.75,
                "velocity": 0.5039370078740157
              },
              {
                "duration": 0.125,
                "durationTicks": 60,
                "midi": 79,
                "name": "G5",
                "ticks": 14400,
                "time": 30,
                "velocity": 0.5039370078740157
              },
              {
                "duration": 0.125,
                "durationTicks": 60,
                "midi": 77,
                "name": "F5",
                "ticks": 14460,
                "time": 30.125,
                "velocity": 0.5039370078740157
              },
              {
                "duration": 0.125,
                "durationTicks": 60,
                "midi": 79,
                "name": "G5",
                "ticks": 14520,
                "time": 30.25,
                "velocity": 0.5039370078740157
              },
              {
                "duration": 0.125,
                "durationTicks": 60,
                "midi": 82,
                "name": "A#5",
                "ticks": 14580,
                "time": 30.375,
                "velocity": 0.5039370078740157
              },
              {
                "duration": 0.125,
                "durationTicks": 60,
                "midi": 72,
                "name": "C5",
                "ticks": 14640,
                "time": 30.5,
                "velocity": 0.5039370078740157
              },
              {
                "duration": 0.125,
                "durationTicks": 60,
                "midi": 82,
                "name": "A#5",
                "ticks": 14700,
                "time": 30.625,
                "velocity": 0.5039370078740157
              },
              {
                "duration": 0.125,
                "durationTicks": 60,
                "midi": 74,
                "name": "D5",
                "ticks": 14760,
                "time": 30.75,
                "velocity": 0.5039370078740157
              },
              {
                "duration": 0.125,
                "durationTicks": 60,
                "midi": 82,
                "name": "A#5",
                "ticks": 14820,
                "time": 30.875,
                "velocity": 0.5039370078740157
              },
              {
                "duration": 0.125,
                "durationTicks": 60,
                "midi": 76,
                "name": "E5",
                "ticks": 14880,
                "time": 31,
                "velocity": 0.5039370078740157
              },
              {
                "duration": 0.125,
                "durationTicks": 60,
                "midi": 82,
                "name": "A#5",
                "ticks": 14940,
                "time": 31.125,
                "velocity": 0.5039370078740157
              },
              {
                "duration": 0.125,
                "durationTicks": 60,
                "midi": 72,
                "name": "C5",
                "ticks": 15000,
                "time": 31.25,
                "velocity": 0.5039370078740157
              },
              {
                "duration": 0.125,
                "durationTicks": 60,
                "midi": 82,
                "name": "A#5",
                "ticks": 15060,
                "time": 31.375,
                "velocity": 0.5039370078740157
              },
              {
                "duration": 0.125,
                "durationTicks": 60,
                "midi": 77,
                "name": "F5",
                "ticks": 15120,
                "time": 31.5,
                "velocity": 0.5039370078740157
              },
              {
                "duration": 0.125,
                "durationTicks": 60,
                "midi": 76,
                "name": "E5",
                "ticks": 15180,
                "time": 31.625,
                "velocity": 0.5039370078740157
              },
              {
                "duration": 0.125,
                "durationTicks": 60,
                "midi": 77,
                "name": "F5",
                "ticks": 15240,
                "time": 31.75,
                "velocity": 0.5039370078740157
              },
              {
                "duration": 0.125,
                "durationTicks": 60,
                "midi": 81,
                "name": "A5",
                "ticks": 15300,
                "time": 31.875,
                "velocity": 0.5039370078740157
              },
              {
                "duration": 0.125,
                "durationTicks": 60,
                "midi": 71,
                "name": "B4",
                "ticks": 15360,
                "time": 32,
                "velocity": 0.5039370078740157
              },
              {
                "duration": 0.125,
                "durationTicks": 60,
                "midi": 81,
                "name": "A5",
                "ticks": 15420,
                "time": 32.125,
                "velocity": 0.5039370078740157
              },
              {
                "duration": 0.125,
                "durationTicks": 60,
                "midi": 73,
                "name": "C#5",
                "ticks": 15480,
                "time": 32.25,
                "velocity": 0.5039370078740157
              },
              {
                "duration": 0.125,
                "durationTicks": 60,
                "midi": 81,
                "name": "A5",
                "ticks": 15540,
                "time": 32.375,
                "velocity": 0.5039370078740157
              },
              {
                "duration": 0.125,
                "durationTicks": 60,
                "midi": 74,
                "name": "D5",
                "ticks": 15600,
                "time": 32.5,
                "velocity": 0.5039370078740157
              },
              {
                "duration": 0.125,
                "durationTicks": 60,
                "midi": 81,
                "name": "A5",
                "ticks": 15660,
                "time": 32.625,
                "velocity": 0.5039370078740157
              },
              {
                "duration": 0.125,
                "durationTicks": 60,
                "midi": 71,
                "name": "B4",
                "ticks": 15720,
                "time": 32.75,
                "velocity": 0.5039370078740157
              },
              {
                "duration": 0.125,
                "durationTicks": 60,
                "midi": 81,
                "name": "A5",
                "ticks": 15780,
                "time": 32.875,
                "velocity": 0.5039370078740157
              },
              {
                "duration": 0.125,
                "durationTicks": 60,
                "midi": 76,
                "name": "E5",
                "ticks": 15840,
                "time": 33,
                "velocity": 0.5039370078740157
              },
              {
                "duration": 0.125,
                "durationTicks": 60,
                "midi": 74,
                "name": "D5",
                "ticks": 15900,
                "time": 33.125,
                "velocity": 0.5039370078740157
              },
              {
                "duration": 0.125,
                "durationTicks": 60,
                "midi": 76,
                "name": "E5",
                "ticks": 15960,
                "time": 33.25,
                "velocity": 0.5039370078740157
              },
              {
                "duration": 0.125,
                "durationTicks": 60,
                "midi": 79,
                "name": "G5",
                "ticks": 16020,
                "time": 33.375,
                "velocity": 0.5039370078740157
              },
              {
                "duration": 0.125,
                "durationTicks": 60,
                "midi": 69,
                "name": "A4",
                "ticks": 16080,
                "time": 33.5,
                "velocity": 0.5039370078740157
              },
              {
                "duration": 0.125,
                "durationTicks": 60,
                "midi": 79,
                "name": "G5",
                "ticks": 16140,
                "time": 33.625,
                "velocity": 0.5039370078740157
              },
              {
                "duration": 0.125,
                "durationTicks": 60,
                "midi": 71,
                "name": "B4",
                "ticks": 16200,
                "time": 33.75,
                "velocity": 0.5039370078740157
              },
              {
                "duration": 0.125,
                "durationTicks": 60,
                "midi": 79,
                "name": "G5",
                "ticks": 16260,
                "time": 33.875,
                "velocity": 0.5039370078740157
              },
              {
                "duration": 0.125,
                "durationTicks": 60,
                "midi": 73,
                "name": "C#5",
                "ticks": 16320,
                "time": 34,
                "velocity": 0.5039370078740157
              },
              {
                "duration": 0.125,
                "durationTicks": 60,
                "midi": 79,
                "name": "G5",
                "ticks": 16380,
                "time": 34.125,
                "velocity": 0.5039370078740157
              },
              {
                "duration": 0.125,
                "durationTicks": 60,
                "midi": 69,
                "name": "A4",
                "ticks": 16440,
                "time": 34.25,
                "velocity": 0.5039370078740157
              },
              {
                "duration": 0.125,
                "durationTicks": 60,
                "midi": 79,
                "name": "G5",
                "ticks": 16500,
                "time": 34.375,
                "velocity": 0.5039370078740157
              },
              {
                "duration": 0.25,
                "durationTicks": 120,
                "midi": 77,
                "name": "F5",
                "ticks": 16560,
                "time": 34.5,
                "velocity": 0.5039370078740157
              },
              {
                "duration": 0.25,
                "durationTicks": 120,
                "midi": 74,
                "name": "D5",
                "ticks": 16680,
                "time": 34.75,
                "velocity": 0.5039370078740157
              },
              {
                "duration": 0.25,
                "durationTicks": 120,
                "midi": 70,
                "name": "A#4",
                "ticks": 16800,
                "time": 35,
                "velocity": 0.5039370078740157
              },
              {
                "duration": 0.25,
                "durationTicks": 120,
                "midi": 74,
                "name": "D5",
                "ticks": 16920,
                "time": 35.25,
                "velocity": 0.5039370078740157
              },
              {
                "duration": 0.25,
                "durationTicks": 120,
                "midi": 67,
                "name": "G4",
                "ticks": 17040,
                "time": 35.5,
                "velocity": 0.5039370078740157
              },
              {
                "duration": 0.25,
                "durationTicks": 120,
                "midi": 77,
                "name": "F5",
                "ticks": 17160,
                "time": 35.75,
                "velocity": 0.5039370078740157
              },
              {
                "duration": 0.25,
                "durationTicks": 120,
                "midi": 76,
                "name": "E5",
                "ticks": 17280,
                "time": 36,
                "velocity": 0.5039370078740157
              },
              {
                "duration": 0.25,
                "durationTicks": 120,
                "midi": 72,
                "name": "C5",
                "ticks": 17400,
                "time": 36.25,
                "velocity": 0.5039370078740157
              },
              {
                "duration": 0.25,
                "durationTicks": 120,
                "midi": 69,
                "name": "A4",
                "ticks": 17520,
                "time": 36.5,
                "velocity": 0.5039370078740157
              },
              {
                "duration": 0.25,
                "durationTicks": 120,
                "midi": 72,
                "name": "C5",
                "ticks": 17640,
                "time": 36.75,
                "velocity": 0.5039370078740157
              },
              {
                "duration": 0.25,
                "durationTicks": 120,
                "midi": 65,
                "name": "F4",
                "ticks": 17760,
                "time": 37,
                "velocity": 0.5039370078740157
              },
              {
                "duration": 0.25,
                "durationTicks": 120,
                "midi": 75,
                "name": "D#5",
                "ticks": 17880,
                "time": 37.25,
                "velocity": 0.5039370078740157
              },
              {
                "duration": 0.125,
                "durationTicks": 60,
                "midi": 74,
                "name": "D5",
                "ticks": 18000,
                "time": 37.5,
                "velocity": 0.5039370078740157
              },
              {
                "duration": 0.125,
                "durationTicks": 60,
                "midi": 77,
                "name": "F5",
                "ticks": 18060,
                "time": 37.625,
                "velocity": 0.5039370078740157
              },
              {
                "duration": 0.125,
                "durationTicks": 60,
                "midi": 75,
                "name": "D#5",
                "ticks": 18120,
                "time": 37.75,
                "velocity": 0.5039370078740157
              },
              {
                "duration": 0.125,
                "durationTicks": 60,
                "midi": 77,
                "name": "F5",
                "ticks": 18180,
                "time": 37.875,
                "velocity": 0.5039370078740157
              },
              {
                "duration": 0.125,
                "durationTicks": 60,
                "midi": 74,
                "name": "D5",
                "ticks": 18240,
                "time": 38,
                "velocity": 0.5039370078740157
              },
              {
                "duration": 0.125,
                "durationTicks": 60,
                "midi": 77,
                "name": "F5",
                "ticks": 18300,
                "time": 38.125,
                "velocity": 0.5039370078740157
              },
              {
                "duration": 0.125,
                "durationTicks": 60,
                "midi": 75,
                "name": "D#5",
                "ticks": 18360,
                "time": 38.25,
                "velocity": 0.5039370078740157
              },
              {
                "duration": 0.125,
                "durationTicks": 60,
                "midi": 77,
                "name": "F5",
                "ticks": 18420,
                "time": 38.375,
                "velocity": 0.5039370078740157
              },
              {
                "duration": 0.125,
                "durationTicks": 60,
                "midi": 74,
                "name": "D5",
                "ticks": 18480,
                "time": 38.5,
                "velocity": 0.5039370078740157
              },
              {
                "duration": 0.125,
                "durationTicks": 60,
                "midi": 77,
                "name": "F5",
                "ticks": 18540,
                "time": 38.625,
                "velocity": 0.5039370078740157
              },
              {
                "duration": 0.125,
                "durationTicks": 60,
                "midi": 75,
                "name": "D#5",
                "ticks": 18600,
                "time": 38.75,
                "velocity": 0.5039370078740157
              },
              {
                "duration": 0.125,
                "durationTicks": 60,
                "midi": 77,
                "name": "F5",
                "ticks": 18660,
                "time": 38.875,
                "velocity": 0.5039370078740157
              },
              {
                "duration": 0.125,
                "durationTicks": 60,
                "midi": 70,
                "name": "A#4",
                "ticks": 18720,
                "time": 39,
                "velocity": 0.5039370078740157
              },
              {
                "duration": 0.125,
                "durationTicks": 60,
                "midi": 74,
                "name": "D5",
                "ticks": 18780,
                "time": 39.125,
                "velocity": 0.5039370078740157
              },
              {
                "duration": 0.125,
                "durationTicks": 60,
                "midi": 72,
                "name": "C5",
                "ticks": 18840,
                "time": 39.25,
                "velocity": 0.5039370078740157
              },
              {
                "duration": 0.125,
                "durationTicks": 60,
                "midi": 74,
                "name": "D5",
                "ticks": 18900,
                "time": 39.375,
                "velocity": 0.5039370078740157
              },
              {
                "duration": 0.125,
                "durationTicks": 60,
                "midi": 70,
                "name": "A#4",
                "ticks": 18960,
                "time": 39.5,
                "velocity": 0.5039370078740157
              },
              {
                "duration": 0.125,
                "durationTicks": 60,
                "midi": 74,
                "name": "D5",
                "ticks": 19020,
                "time": 39.625,
                "velocity": 0.5039370078740157
              },
              {
                "duration": 0.125,
                "durationTicks": 60,
                "midi": 72,
                "name": "C5",
                "ticks": 19080,
                "time": 39.75,
                "velocity": 0.5039370078740157
              },
              {
                "duration": 0.125,
                "durationTicks": 60,
                "midi": 74,
                "name": "D5",
                "ticks": 19140,
                "time": 39.875,
                "velocity": 0.5039370078740157
              },
              {
                "duration": 0.125,
                "durationTicks": 60,
                "midi": 70,
                "name": "A#4",
                "ticks": 19200,
                "time": 40,
                "velocity": 0.5039370078740157
              },
              {
                "duration": 0.125,
                "durationTicks": 60,
                "midi": 74,
                "name": "D5",
                "ticks": 19260,
                "time": 40.125,
                "velocity": 0.5039370078740157
              },
              {
                "duration": 0.125,
                "durationTicks": 60,
                "midi": 72,
                "name": "C5",
                "ticks": 19320,
                "time": 40.25,
                "velocity": 0.5039370078740157
              },
              {
                "duration": 0.125,
                "durationTicks": 60,
                "midi": 74,
                "name": "D5",
                "ticks": 19380,
                "time": 40.375,
                "velocity": 0.5039370078740157
              },
              {
                "duration": 0.125,
                "durationTicks": 60,
                "midi": 67,
                "name": "G4",
                "ticks": 19440,
                "time": 40.5,
                "velocity": 0.5039370078740157
              },
              {
                "duration": 0.125,
                "durationTicks": 60,
                "midi": 70,
                "name": "A#4",
                "ticks": 19500,
                "time": 40.625,
                "velocity": 0.5039370078740157
              },
              {
                "duration": 0.125,
                "durationTicks": 60,
                "midi": 69,
                "name": "A4",
                "ticks": 19560,
                "time": 40.75,
                "velocity": 0.5039370078740157
              },
              {
                "duration": 0.125,
                "durationTicks": 60,
                "midi": 70,
                "name": "A#4",
                "ticks": 19620,
                "time": 40.875,
                "velocity": 0.5039370078740157
              },
              {
                "duration": 0.125,
                "durationTicks": 60,
                "midi": 67,
                "name": "G4",
                "ticks": 19680,
                "time": 41,
                "velocity": 0.5039370078740157
              },
              {
                "duration": 0.125,
                "durationTicks": 60,
                "midi": 70,
                "name": "A#4",
                "ticks": 19740,
                "time": 41.125,
                "velocity": 0.5039370078740157
              },
              {
                "duration": 0.125,
                "durationTicks": 60,
                "midi": 69,
                "name": "A4",
                "ticks": 19800,
                "time": 41.25,
                "velocity": 0.5039370078740157
              },
              {
                "duration": 0.125,
                "durationTicks": 60,
                "midi": 70,
                "name": "A#4",
                "ticks": 19860,
                "time": 41.375,
                "velocity": 0.5039370078740157
              },
              {
                "duration": 0.125,
                "durationTicks": 60,
                "midi": 67,
                "name": "G4",
                "ticks": 19920,
                "time": 41.5,
                "velocity": 0.5039370078740157
              },
              {
                "duration": 0.125,
                "durationTicks": 60,
                "midi": 70,
                "name": "A#4",
                "ticks": 19980,
                "time": 41.625,
                "velocity": 0.5039370078740157
              },
              {
                "duration": 0.125,
                "durationTicks": 60,
                "midi": 69,
                "name": "A4",
                "ticks": 20040,
                "time": 41.75,
                "velocity": 0.5039370078740157
              },
              {
                "duration": 0.125,
                "durationTicks": 60,
                "midi": 70,
                "name": "A#4",
                "ticks": 20100,
                "time": 41.875,
                "velocity": 0.5039370078740157
              },
              {
                "duration": 0.25,
                "durationTicks": 120,
                "midi": 64,
                "name": "E4",
                "ticks": 20160,
                "time": 42,
                "velocity": 0.5039370078740157
              },
              {
                "duration": 0.25,
                "durationTicks": 120,
                "midi": 60,
                "name": "C4",
                "ticks": 20280,
                "time": 42.25,
                "velocity": 0.5039370078740157
              },
              {
                "duration": 0.25,
                "durationTicks": 120,
                "midi": 67,
                "name": "G4",
                "ticks": 20400,
                "time": 42.5,
                "velocity": 0.5039370078740157
              },
              {
                "duration": 0.25,
                "durationTicks": 120,
                "midi": 64,
                "name": "E4",
                "ticks": 20520,
                "time": 42.75,
                "velocity": 0.5039370078740157
              },
              {
                "duration": 0.25,
                "durationTicks": 120,
                "midi": 70,
                "name": "A#4",
                "ticks": 20640,
                "time": 43,
                "velocity": 0.5039370078740157
              },
              {
                "duration": 0.25,
                "durationTicks": 120,
                "midi": 67,
                "name": "G4",
                "ticks": 20760,
                "time": 43.25,
                "velocity": 0.5039370078740157
              },
              {
                "duration": 0.125,
                "durationTicks": 60,
                "midi": 72,
                "name": "C5",
                "ticks": 20880,
                "time": 43.5,
                "velocity": 0.5039370078740157
              },
              {
                "duration": 0.125,
                "durationTicks": 60,
                "midi": 74,
                "name": "D5",
                "ticks": 20940,
                "time": 43.625,
                "velocity": 0.5039370078740157
              },
              {
                "duration": 0.125,
                "durationTicks": 60,
                "midi": 72,
                "name": "C5",
                "ticks": 21000,
                "time": 43.75,
                "velocity": 0.5039370078740157
              },
              {
                "duration": 0.125,
                "durationTicks": 60,
                "midi": 70,
                "name": "A#4",
                "ticks": 21060,
                "time": 43.875,
                "velocity": 0.5039370078740157
              },
              {
                "duration": 0.125,
                "durationTicks": 60,
                "midi": 69,
                "name": "A4",
                "ticks": 21120,
                "time": 44,
                "velocity": 0.5039370078740157
              },
              {
                "duration": 0.125,
                "durationTicks": 60,
                "midi": 70,
                "name": "A#4",
                "ticks": 21180,
                "time": 44.125,
                "velocity": 0.5039370078740157
              },
              {
                "duration": 0.125,
                "durationTicks": 60,
                "midi": 69,
                "name": "A4",
                "ticks": 21240,
                "time": 44.25,
                "velocity": 0.5039370078740157
              },
              {
                "duration": 0.125,
                "durationTicks": 60,
                "midi": 67,
                "name": "G4",
                "ticks": 21300,
                "time": 44.375,
                "velocity": 0.5039370078740157
              },
              {
                "duration": 0.125,
                "durationTicks": 60,
                "midi": 65,
                "name": "F4",
                "ticks": 21360,
                "time": 44.5,
                "velocity": 0.5039370078740157
              },
              {
                "duration": 0.125,
                "durationTicks": 60,
                "midi": 67,
                "name": "G4",
                "ticks": 21420,
                "time": 44.625,
                "velocity": 0.5039370078740157
              },
              {
                "duration": 0.125,
                "durationTicks": 60,
                "midi": 65,
                "name": "F4",
                "ticks": 21480,
                "time": 44.75,
                "velocity": 0.5039370078740157
              },
              {
                "duration": 0.125,
                "durationTicks": 60,
                "midi": 63,
                "name": "D#4",
                "ticks": 21540,
                "time": 44.875,
                "velocity": 0.5039370078740157
              },
              {
                "duration": 0.25,
                "durationTicks": 120,
                "midi": 62,
                "name": "D4",
                "ticks": 21600,
                "time": 45,
                "velocity": 0.5039370078740157
              },
              {
                "duration": 0.125,
                "durationTicks": 60,
                "midi": 67,
                "name": "G4",
                "ticks": 21720,
                "time": 45.25,
                "velocity": 0.5039370078740157
              },
              {
                "duration": 0.125,
                "durationTicks": 60,
                "midi": 65,
                "name": "F4",
                "ticks": 21780,
                "time": 45.375,
                "velocity": 0.5039370078740157
              },
              {
                "duration": 0.125,
                "durationTicks": 60,
                "midi": 64,
                "name": "E4",
                "ticks": 21840,
                "time": 45.5,
                "velocity": 0.5039370078740157
              },
              {
                "duration": 0.125,
                "durationTicks": 60,
                "midi": 65,
                "name": "F4",
                "ticks": 21900,
                "time": 45.625,
                "velocity": 0.5039370078740157
              },
              {
                "duration": 0.125,
                "durationTicks": 60,
                "midi": 64,
                "name": "E4",
                "ticks": 21960,
                "time": 45.75,
                "velocity": 0.5039370078740157
              },
              {
                "duration": 0.125,
                "durationTicks": 60,
                "midi": 62,
                "name": "D4",
                "ticks": 22020,
                "time": 45.875,
                "velocity": 0.5039370078740157
              },
              {
                "duration": 0.125,
                "durationTicks": 60,
                "midi": 60,
                "name": "C4",
                "ticks": 22080,
                "time": 46,
                "velocity": 0.5039370078740157
              },
              {
                "duration": 0.125,
                "durationTicks": 60,
                "midi": 62,
                "name": "D4",
                "ticks": 22140,
                "time": 46.125,
                "velocity": 0.5039370078740157
              },
              {
                "duration": 0.125,
                "durationTicks": 60,
                "midi": 60,
                "name": "C4",
                "ticks": 22200,
                "time": 46.25,
                "velocity": 0.5039370078740157
              },
              {
                "duration": 0.125,
                "durationTicks": 60,
                "midi": 58,
                "name": "A#3",
                "ticks": 22260,
                "time": 46.375,
                "velocity": 0.5039370078740157
              },
              {
                "duration": 0.125,
                "durationTicks": 60,
                "midi": 57,
                "name": "A3",
                "ticks": 22320,
                "time": 46.5,
                "velocity": 0.5039370078740157
              },
              {
                "duration": 0.125,
                "durationTicks": 60,
                "midi": 58,
                "name": "A#3",
                "ticks": 22380,
                "time": 46.625,
                "velocity": 0.5039370078740157
              },
              {
                "duration": 0.125,
                "durationTicks": 60,
                "midi": 57,
                "name": "A3",
                "ticks": 22440,
                "time": 46.75,
                "velocity": 0.5039370078740157
              },
              {
                "duration": 0.125,
                "durationTicks": 60,
                "midi": 55,
                "name": "G3",
                "ticks": 22500,
                "time": 46.875,
                "velocity": 0.5039370078740157
              },
              {
                "duration": 0.25,
                "durationTicks": 120,
                "midi": 53,
                "name": "F3",
                "ticks": 22560,
                "time": 47,
                "velocity": 0.5039370078740157
              },
              {
                "duration": 0.125,
                "durationTicks": 60,
                "midi": 65,
                "name": "F4",
                "ticks": 22680,
                "time": 47.25,
                "velocity": 0.5039370078740157
              },
              {
                "duration": 0.125,
                "durationTicks": 60,
                "midi": 64,
                "name": "E4",
                "ticks": 22740,
                "time": 47.375,
                "velocity": 0.5039370078740157
              },
              {
                "duration": 0.25,
                "durationTicks": 120,
                "midi": 65,
                "name": "F4",
                "ticks": 22800,
                "time": 47.5,
                "velocity": 0.5039370078740157
              },
              {
                "duration": 0.25,
                "durationTicks": 120,
                "midi": 57,
                "name": "A3",
                "ticks": 22920,
                "time": 47.75,
                "velocity": 0.5039370078740157
              },
              {
                "duration": 0.25,
                "durationTicks": 120,
                "midi": 58,
                "name": "A#3",
                "ticks": 23040,
                "time": 48,
                "velocity": 0.5039370078740157
              },
              {
                "duration": 0.25,
                "durationTicks": 120,
                "midi": 65,
                "name": "F4",
                "ticks": 23160,
                "time": 48.25,
                "velocity": 0.5039370078740157
              },
              {
                "duration": 0.25,
                "durationTicks": 120,
                "midi": 57,
                "name": "A3",
                "ticks": 23280,
                "time": 48.5,
                "velocity": 0.5039370078740157
              },
              {
                "duration": 0.25,
                "durationTicks": 120,
                "midi": 65,
                "name": "F4",
                "ticks": 23400,
                "time": 48.75,
                "velocity": 0.5039370078740157
              },
              {
                "duration": 0.25,
                "durationTicks": 120,
                "midi": 55,
                "name": "G3",
                "ticks": 23520,
                "time": 49,
                "velocity": 0.5039370078740157
              },
              {
                "duration": 0.25,
                "durationTicks": 120,
                "midi": 64,
                "name": "E4",
                "ticks": 23640,
                "time": 49.25,
                "velocity": 0.5039370078740157
              },
              {
                "duration": 1,
                "durationTicks": 480,
                "midi": 60,
                "name": "C4",
                "ticks": 23760,
                "time": 49.5,
                "velocity": 0.5039370078740157
              },
              {
                "duration": 1,
                "durationTicks": 480,
                "midi": 57,
                "name": "A3",
                "ticks": 23760,
                "time": 49.5,
                "velocity": 0.5039370078740157
              },
              {
                "duration": 1,
                "durationTicks": 480,
                "midi": 65,
                "name": "F4",
                "ticks": 23760,
                "time": 49.5,
                "velocity": 0.5039370078740157
              }
            ],
            "endOfTrackTicks": 24240
          },
          {
            "channel": 1,
            "controlChanges": {},
            "pitchBends": [],
            "instrument": {
              "family": "piano",
              "number": 0,
              "name": "acoustic grand piano"
            },
            "name": "",
            "notes": [
              {
                "duration": 0.25,
                "durationTicks": 120,
                "midi": 53,
                "name": "F3",
                "ticks": 840,
                "time": 1.75,
                "velocity": 0.5039370078740157
              },
              {
                "duration": 0.25,
                "durationTicks": 120,
                "midi": 57,
                "name": "A3",
                "ticks": 960,
                "time": 2,
                "velocity": 0.5039370078740157
              },
              {
                "duration": 0.25,
                "durationTicks": 120,
                "midi": 53,
                "name": "F3",
                "ticks": 1080,
                "time": 2.25,
                "velocity": 0.5039370078740157
              },
              {
                "duration": 0.25,
                "durationTicks": 120,
                "midi": 60,
                "name": "C4",
                "ticks": 1200,
                "time": 2.5,
                "velocity": 0.5039370078740157
              },
              {
                "duration": 0.25,
                "durationTicks": 120,
                "midi": 53,
                "name": "F3",
                "ticks": 1320,
                "time": 2.75,
                "velocity": 0.5039370078740157
              },
              {
                "duration": 0.25,
                "durationTicks": 120,
                "midi": 65,
                "name": "F4",
                "ticks": 1440,
                "time": 3,
                "velocity": 0.5039370078740157
              },
              {
                "duration": 0.125,
                "durationTicks": 60,
                "midi": 64,
                "name": "E4",
                "ticks": 1560,
                "time": 3.25,
                "velocity": 0.5039370078740157
              },
              {
                "duration": 0.125,
                "durationTicks": 60,
                "midi": 62,
                "name": "D4",
                "ticks": 1620,
                "time": 3.375,
                "velocity": 0.5039370078740157
              },
              {
                "duration": 0.125,
                "durationTicks": 60,
                "midi": 60,
                "name": "C4",
                "ticks": 1680,
                "time": 3.5,
                "velocity": 0.5039370078740157
              },
              {
                "duration": 0.125,
                "durationTicks": 60,
                "midi": 62,
                "name": "D4",
                "ticks": 1740,
                "time": 3.625,
                "velocity": 0.5039370078740157
              },
              {
                "duration": 0.125,
                "durationTicks": 60,
                "midi": 60,
                "name": "C4",
                "ticks": 1800,
                "time": 3.75,
                "velocity": 0.5039370078740157
              },
              {
                "duration": 0.125,
                "durationTicks": 60,
                "midi": 58,
                "name": "A#3",
                "ticks": 1860,
                "time": 3.875,
                "velocity": 0.5039370078740157
              },
              {
                "duration": 0.125,
                "durationTicks": 60,
                "midi": 57,
                "name": "A3",
                "ticks": 1920,
                "time": 4,
                "velocity": 0.5039370078740157
              },
              {
                "duration": 0.125,
                "durationTicks": 60,
                "midi": 58,
                "name": "A#3",
                "ticks": 1980,
                "time": 4.125,
                "velocity": 0.5039370078740157
              },
              {
                "duration": 0.125,
                "durationTicks": 60,
                "midi": 57,
                "name": "A3",
                "ticks": 2040,
                "time": 4.25,
                "velocity": 0.5039370078740157
              },
              {
                "duration": 0.125,
                "durationTicks": 60,
                "midi": 55,
                "name": "G3",
                "ticks": 2100,
                "time": 4.375,
                "velocity": 0.5039370078740157
              },
              {
                "duration": 0.25,
                "durationTicks": 120,
                "midi": 53,
                "name": "F3",
                "ticks": 2160,
                "time": 4.5,
                "velocity": 0.5039370078740157
              },
              {
                "duration": 0.25,
                "durationTicks": 120,
                "midi": 57,
                "name": "A3",
                "ticks": 2280,
                "time": 4.75,
                "velocity": 0.5039370078740157
              },
              {
                "duration": 0.25,
                "durationTicks": 120,
                "midi": 60,
                "name": "C4",
                "ticks": 2400,
                "time": 5,
                "velocity": 0.5039370078740157
              },
              {
                "duration": 0.25,
                "durationTicks": 120,
                "midi": 57,
                "name": "A3",
                "ticks": 2520,
                "time": 5.25,
                "velocity": 0.5039370078740157
              },
              {
                "duration": 0.25,
                "durationTicks": 120,
                "midi": 65,
                "name": "F4",
                "ticks": 2640,
                "time": 5.5,
                "velocity": 0.5039370078740157
              },
              {
                "duration": 0.25,
                "durationTicks": 120,
                "midi": 60,
                "name": "C4",
                "ticks": 2760,
                "time": 5.75,
                "velocity": 0.5039370078740157
              },
              {
                "duration": 0.125,
                "durationTicks": 60,
                "midi": 69,
                "name": "A4",
                "ticks": 2880,
                "time": 6,
                "velocity": 0.5039370078740157
              },
              {
                "duration": 0.125,
                "durationTicks": 60,
                "midi": 72,
                "name": "C5",
                "ticks": 2940,
                "time": 6.125,
                "velocity": 0.5039370078740157
              },
              {
                "duration": 0.125,
                "durationTicks": 60,
                "midi": 70,
                "name": "A#4",
                "ticks": 3000,
                "time": 6.25,
                "velocity": 0.5039370078740157
              },
              {
                "duration": 0.125,
                "durationTicks": 60,
                "midi": 72,
                "name": "C5",
                "ticks": 3060,
                "time": 6.375,
                "velocity": 0.5039370078740157
              },
              {
                "duration": 0.125,
                "durationTicks": 60,
                "midi": 69,
                "name": "A4",
                "ticks": 3120,
                "time": 6.5,
                "velocity": 0.5039370078740157
              },
              {
                "duration": 0.125,
                "durationTicks": 60,
                "midi": 72,
                "name": "C5",
                "ticks": 3180,
                "time": 6.625,
                "velocity": 0.5039370078740157
              },
              {
                "duration": 0.125,
                "durationTicks": 60,
                "midi": 70,
                "name": "A#4",
                "ticks": 3240,
                "time": 6.75,
                "velocity": 0.5039370078740157
              },
              {
                "duration": 0.125,
                "durationTicks": 60,
                "midi": 72,
                "name": "C5",
                "ticks": 3300,
                "time": 6.875,
                "velocity": 0.5039370078740157
              },
              {
                "duration": 0.125,
                "durationTicks": 60,
                "midi": 69,
                "name": "A4",
                "ticks": 3360,
                "time": 7,
                "velocity": 0.5039370078740157
              },
              {
                "duration": 0.125,
                "durationTicks": 60,
                "midi": 72,
                "name": "C5",
                "ticks": 3420,
                "time": 7.125,
                "velocity": 0.5039370078740157
              },
              {
                "duration": 0.125,
                "durationTicks": 60,
                "midi": 70,
                "name": "A#4",
                "ticks": 3480,
                "time": 7.25,
                "velocity": 0.5039370078740157
              },
              {
                "duration": 0.125,
                "durationTicks": 60,
                "midi": 72,
                "name": "C5",
                "ticks": 3540,
                "time": 7.375,
                "velocity": 0.5039370078740157
              },
              {
                "duration": 0.125,
                "durationTicks": 60,
                "midi": 65,
                "name": "F4",
                "ticks": 3600,
                "time": 7.5,
                "velocity": 0.5039370078740157
              },
              {
                "duration": 0.125,
                "durationTicks": 60,
                "midi": 69,
                "name": "A4",
                "ticks": 3660,
                "time": 7.625,
                "velocity": 0.5039370078740157
              },
              {
                "duration": 0.125,
                "durationTicks": 60,
                "midi": 67,
                "name": "G4",
                "ticks": 3720,
                "time": 7.75,
                "velocity": 0.5039370078740157
              },
              {
                "duration": 0.125,
                "durationTicks": 60,
                "midi": 69,
                "name": "A4",
                "ticks": 3780,
                "time": 7.875,
                "velocity": 0.5039370078740157
              },
              {
                "duration": 0.125,
                "durationTicks": 60,
                "midi": 65,
                "name": "F4",
                "ticks": 3840,
                "time": 8,
                "velocity": 0.5039370078740157
              },
              {
                "duration": 0.125,
                "durationTicks": 60,
                "midi": 69,
                "name": "A4",
                "ticks": 3900,
                "time": 8.125,
                "velocity": 0.5039370078740157
              },
              {
                "duration": 0.125,
                "durationTicks": 60,
                "midi": 67,
                "name": "G4",
                "ticks": 3960,
                "time": 8.25,
                "velocity": 0.5039370078740157
              },
              {
                "duration": 0.125,
                "durationTicks": 60,
                "midi": 69,
                "name": "A4",
                "ticks": 4020,
                "time": 8.375,
                "velocity": 0.5039370078740157
              },
              {
                "duration": 0.125,
                "durationTicks": 60,
                "midi": 65,
                "name": "F4",
                "ticks": 4080,
                "time": 8.5,
                "velocity": 0.5039370078740157
              },
              {
                "duration": 0.125,
                "durationTicks": 60,
                "midi": 69,
                "name": "A4",
                "ticks": 4140,
                "time": 8.625,
                "velocity": 0.5039370078740157
              },
              {
                "duration": 0.125,
                "durationTicks": 60,
                "midi": 67,
                "name": "G4",
                "ticks": 4200,
                "time": 8.75,
                "velocity": 0.5039370078740157
              },
              {
                "duration": 0.125,
                "durationTicks": 60,
                "midi": 69,
                "name": "A4",
                "ticks": 4260,
                "time": 8.875,
                "velocity": 0.5039370078740157
              },
              {
                "duration": 0.125,
                "durationTicks": 60,
                "midi": 62,
                "name": "D4",
                "ticks": 4320,
                "time": 9,
                "velocity": 0.5039370078740157
              },
              {
                "duration": 0.125,
                "durationTicks": 60,
                "midi": 65,
                "name": "F4",
                "ticks": 4380,
                "time": 9.125,
                "velocity": 0.5039370078740157
              },
              {
                "duration": 0.125,
                "durationTicks": 60,
                "midi": 64,
                "name": "E4",
                "ticks": 4440,
                "time": 9.25,
                "velocity": 0.5039370078740157
              },
              {
                "duration": 0.125,
                "durationTicks": 60,
                "midi": 65,
                "name": "F4",
                "ticks": 4500,
                "time": 9.375,
                "velocity": 0.5039370078740157
              },
              {
                "duration": 0.125,
                "durationTicks": 60,
                "midi": 62,
                "name": "D4",
                "ticks": 4560,
                "time": 9.5,
                "velocity": 0.5039370078740157
              },
              {
                "duration": 0.125,
                "durationTicks": 60,
                "midi": 65,
                "name": "F4",
                "ticks": 4620,
                "time": 9.625,
                "velocity": 0.5039370078740157
              },
              {
                "duration": 0.125,
                "durationTicks": 60,
                "midi": 64,
                "name": "E4",
                "ticks": 4680,
                "time": 9.75,
                "velocity": 0.5039370078740157
              },
              {
                "duration": 0.125,
                "durationTicks": 60,
                "midi": 65,
                "name": "F4",
                "ticks": 4740,
                "time": 9.875,
                "velocity": 0.5039370078740157
              },
              {
                "duration": 0.125,
                "durationTicks": 60,
                "midi": 62,
                "name": "D4",
                "ticks": 4800,
                "time": 10,
                "velocity": 0.5039370078740157
              },
              {
                "duration": 0.125,
                "durationTicks": 60,
                "midi": 65,
                "name": "F4",
                "ticks": 4860,
                "time": 10.125,
                "velocity": 0.5039370078740157
              },
              {
                "duration": 0.125,
                "durationTicks": 60,
                "midi": 64,
                "name": "E4",
                "ticks": 4920,
                "time": 10.25,
                "velocity": 0.5039370078740157
              },
              {
                "duration": 0.125,
                "durationTicks": 60,
                "midi": 65,
                "name": "F4",
                "ticks": 4980,
                "time": 10.375,
                "velocity": 0.5039370078740157
              },
              {
                "duration": 0.25,
                "durationTicks": 120,
                "midi": 59,
                "name": "B3",
                "ticks": 5040,
                "time": 10.5,
                "velocity": 0.5039370078740157
              },
              {
                "duration": 0.25,
                "durationTicks": 120,
                "midi": 55,
                "name": "G3",
                "ticks": 5160,
                "time": 10.75,
                "velocity": 0.5039370078740157
              },
              {
                "duration": 0.25,
                "durationTicks": 120,
                "midi": 60,
                "name": "C4",
                "ticks": 5280,
                "time": 11,
                "velocity": 0.5039370078740157
              },
              {
                "duration": 0.25,
                "durationTicks": 120,
                "midi": 55,
                "name": "G3",
                "ticks": 5400,
                "time": 11.25,
                "velocity": 0.5039370078740157
              },
              {
                "duration": 0.25,
                "durationTicks": 120,
                "midi": 64,
                "name": "E4",
                "ticks": 5520,
                "time": 11.5,
                "velocity": 0.5039370078740157
              },
              {
                "duration": 0.25,
                "durationTicks": 120,
                "midi": 60,
                "name": "C4",
                "ticks": 5640,
                "time": 11.75,
                "velocity": 0.5039370078740157
              },
              {
                "duration": 0.125,
                "durationTicks": 60,
                "midi": 65,
                "name": "F4",
                "ticks": 5760,
                "time": 12,
                "velocity": 0.5039370078740157
              },
              {
                "duration": 0.125,
                "durationTicks": 60,
                "midi": 67,
                "name": "G4",
                "ticks": 5820,
                "time": 12.125,
                "velocity": 0.5039370078740157
              },
              {
                "duration": 0.125,
                "durationTicks": 60,
                "midi": 65,
                "name": "F4",
                "ticks": 5880,
                "time": 12.25,
                "velocity": 0.5039370078740157
              },
              {
                "duration": 0.125,
                "durationTicks": 60,
                "midi": 64,
                "name": "E4",
                "ticks": 5940,
                "time": 12.375,
                "velocity": 0.5039370078740157
              },
              {
                "duration": 0.125,
                "durationTicks": 60,
                "midi": 62,
                "name": "D4",
                "ticks": 6000,
                "time": 12.5,
                "velocity": 0.5039370078740157
              },
              {
                "duration": 0.125,
                "durationTicks": 60,
                "midi": 64,
                "name": "E4",
                "ticks": 6060,
                "time": 12.625,
                "velocity": 0.5039370078740157
              },
              {
                "duration": 0.125,
                "durationTicks": 60,
                "midi": 62,
                "name": "D4",
                "ticks": 6120,
                "time": 12.75,
                "velocity": 0.5039370078740157
              },
              {
                "duration": 0.125,
                "durationTicks": 60,
                "midi": 60,
                "name": "C4",
                "ticks": 6180,
                "time": 12.875,
                "velocity": 0.5039370078740157
              },
              {
                "duration": 0.125,
                "durationTicks": 60,
                "midi": 59,
                "name": "B3",
                "ticks": 6240,
                "time": 13,
                "velocity": 0.5039370078740157
              },
              {
                "duration": 0.125,
                "durationTicks": 60,
                "midi": 60,
                "name": "C4",
                "ticks": 6300,
                "time": 13.125,
                "velocity": 0.5039370078740157
              },
              {
                "duration": 0.125,
                "durationTicks": 60,
                "midi": 59,
                "name": "B3",
                "ticks": 6360,
                "time": 13.25,
                "velocity": 0.5039370078740157
              },
              {
                "duration": 0.125,
                "durationTicks": 60,
                "midi": 57,
                "name": "A3",
                "ticks": 6420,
                "time": 13.375,
                "velocity": 0.5039370078740157
              },
              {
                "duration": 0.25,
                "durationTicks": 120,
                "midi": 55,
                "name": "G3",
                "ticks": 6480,
                "time": 13.5,
                "velocity": 0.5039370078740157
              },
              {
                "duration": 0.125,
                "durationTicks": 60,
                "midi": 60,
                "name": "C4",
                "ticks": 6600,
                "time": 13.75,
                "velocity": 0.5039370078740157
              },
              {
                "duration": 0.125,
                "durationTicks": 60,
                "midi": 59,
                "name": "B3",
                "ticks": 6660,
                "time": 13.875,
                "velocity": 0.5039370078740157
              },
              {
                "duration": 0.125,
                "durationTicks": 60,
                "midi": 57,
                "name": "A3",
                "ticks": 6720,
                "time": 14,
                "velocity": 0.5039370078740157
              },
              {
                "duration": 0.125,
                "durationTicks": 60,
                "midi": 59,
                "name": "B3",
                "ticks": 6780,
                "time": 14.125,
                "velocity": 0.5039370078740157
              },
              {
                "duration": 0.125,
                "durationTicks": 60,
                "midi": 57,
                "name": "A3",
                "ticks": 6840,
                "time": 14.25,
                "velocity": 0.5039370078740157
              },
              {
                "duration": 0.125,
                "durationTicks": 60,
                "midi": 55,
                "name": "G3",
                "ticks": 6900,
                "time": 14.375,
                "velocity": 0.5039370078740157
              },
              {
                "duration": 0.125,
                "durationTicks": 60,
                "midi": 53,
                "name": "F3",
                "ticks": 6960,
                "time": 14.5,
                "velocity": 0.5039370078740157
              },
              {
                "duration": 0.125,
                "durationTicks": 60,
                "midi": 55,
                "name": "G3",
                "ticks": 7020,
                "time": 14.625,
                "velocity": 0.5039370078740157
              },
              {
                "duration": 0.125,
                "durationTicks": 60,
                "midi": 53,
                "name": "F3",
                "ticks": 7080,
                "time": 14.75,
                "velocity": 0.5039370078740157
              },
              {
                "duration": 0.125,
                "durationTicks": 60,
                "midi": 52,
                "name": "E3",
                "ticks": 7140,
                "time": 14.875,
                "velocity": 0.5039370078740157
              },
              {
                "duration": 0.125,
                "durationTicks": 60,
                "midi": 50,
                "name": "D3",
                "ticks": 7200,
                "time": 15,
                "velocity": 0.5039370078740157
              },
              {
                "duration": 0.125,
                "durationTicks": 60,
                "midi": 52,
                "name": "E3",
                "ticks": 7260,
                "time": 15.125,
                "velocity": 0.5039370078740157
              },
              {
                "duration": 0.125,
                "durationTicks": 60,
                "midi": 50,
                "name": "D3",
                "ticks": 7320,
                "time": 15.25,
                "velocity": 0.5039370078740157
              },
              {
                "duration": 0.125,
                "durationTicks": 60,
                "midi": 48,
                "name": "C3",
                "ticks": 7380,
                "time": 15.375,
                "velocity": 0.5039370078740157
              },
              {
                "duration": 0.125,
                "durationTicks": 60,
                "midi": 55,
                "name": "G3",
                "ticks": 7440,
                "time": 15.5,
                "velocity": 0.5039370078740157
              },
              {
                "duration": 0.125,
                "durationTicks": 60,
                "midi": 53,
                "name": "F3",
                "ticks": 7500,
                "time": 15.625,
                "velocity": 0.5039370078740157
              },
              {
                "duration": 0.125,
                "durationTicks": 60,
                "midi": 52,
                "name": "E3",
                "ticks": 7560,
                "time": 15.75,
                "velocity": 0.5039370078740157
              },
              {
                "duration": 0.125,
                "durationTicks": 60,
                "midi": 53,
                "name": "F3",
                "ticks": 7620,
                "time": 15.875,
                "velocity": 0.5039370078740157
              },
              {
                "duration": 0.25,
                "durationTicks": 120,
                "midi": 55,
                "name": "G3",
                "ticks": 7680,
                "time": 16,
                "velocity": 0.5039370078740157
              },
              {
                "duration": 0.25,
                "durationTicks": 120,
                "midi": 43,
                "name": "G2",
                "ticks": 7800,
                "time": 16.25,
                "velocity": 0.5039370078740157
              },
              {
                "duration": 0.25,
                "durationTicks": 120,
                "midi": 48,
                "name": "C3",
                "ticks": 8040,
                "time": 16.75,
                "velocity": 0.5039370078740157
              },
              {
                "duration": 0.25,
                "durationTicks": 120,
                "midi": 52,
                "name": "E3",
                "ticks": 8160,
                "time": 17,
                "velocity": 0.5039370078740157
              },
              {
                "duration": 0.25,
                "durationTicks": 120,
                "midi": 48,
                "name": "C3",
                "ticks": 8280,
                "time": 17.25,
                "velocity": 0.5039370078740157
              },
              {
                "duration": 0.25,
                "durationTicks": 120,
                "midi": 55,
                "name": "G3",
                "ticks": 8400,
                "time": 17.5,
                "velocity": 0.5039370078740157
              },
              {
                "duration": 0.25,
                "durationTicks": 120,
                "midi": 48,
                "name": "C3",
                "ticks": 8520,
                "time": 17.75,
                "velocity": 0.5039370078740157
              },
              {
                "duration": 0.25,
                "durationTicks": 120,
                "midi": 60,
                "name": "C4",
                "ticks": 8640,
                "time": 18,
                "velocity": 0.5039370078740157
              },
              {
                "duration": 0.125,
                "durationTicks": 60,
                "midi": 59,
                "name": "B3",
                "ticks": 8760,
                "time": 18.25,
                "velocity": 0.5039370078740157
              },
              {
                "duration": 0.125,
                "durationTicks": 60,
                "midi": 57,
                "name": "A3",
                "ticks": 8820,
                "time": 18.375,
                "velocity": 0.5039370078740157
              },
              {
                "duration": 0.125,
                "durationTicks": 60,
                "midi": 55,
                "name": "G3",
                "ticks": 8880,
                "time": 18.5,
                "velocity": 0.5039370078740157
              },
              {
                "duration": 0.125,
                "durationTicks": 60,
                "midi": 57,
                "name": "A3",
                "ticks": 8940,
                "time": 18.625,
                "velocity": 0.5039370078740157
              },
              {
                "duration": 0.125,
                "durationTicks": 60,
                "midi": 55,
                "name": "G3",
                "ticks": 9000,
                "time": 18.75,
                "velocity": 0.5039370078740157
              },
              {
                "duration": 0.125,
                "durationTicks": 60,
                "midi": 53,
                "name": "F3",
                "ticks": 9060,
                "time": 18.875,
                "velocity": 0.5039370078740157
              },
              {
                "duration": 0.125,
                "durationTicks": 60,
                "midi": 52,
                "name": "E3",
                "ticks": 9120,
                "time": 19,
                "velocity": 0.5039370078740157
              },
              {
                "duration": 0.125,
                "durationTicks": 60,
                "midi": 53,
                "name": "F3",
                "ticks": 9180,
                "time": 19.125,
                "velocity": 0.5039370078740157
              },
              {
                "duration": 0.125,
                "durationTicks": 60,
                "midi": 52,
                "name": "E3",
                "ticks": 9240,
                "time": 19.25,
                "velocity": 0.5039370078740157
              },
              {
                "duration": 0.125,
                "durationTicks": 60,
                "midi": 50,
                "name": "D3",
                "ticks": 9300,
                "time": 19.375,
                "velocity": 0.5039370078740157
              },
              {
                "duration": 0.25,
                "durationTicks": 120,
                "midi": 48,
                "name": "C3",
                "ticks": 9360,
                "time": 19.5,
                "velocity": 0.5039370078740157
              },
              {
                "duration": 0.25,
                "durationTicks": 120,
                "midi": 52,
                "name": "E3",
                "ticks": 9480,
                "time": 19.75,
                "velocity": 0.5039370078740157
              },
              {
                "duration": 0.25,
                "durationTicks": 120,
                "midi": 55,
                "name": "G3",
                "ticks": 9600,
                "time": 20,
                "velocity": 0.5039370078740157
              },
              {
                "duration": 0.25,
                "durationTicks": 120,
                "midi": 52,
                "name": "E3",
                "ticks": 9720,
                "time": 20.25,
                "velocity": 0.5039370078740157
              },
              {
                "duration": 0.25,
                "durationTicks": 120,
                "midi": 60,
                "name": "C4",
                "ticks": 9840,
                "time": 20.5,
                "velocity": 0.5039370078740157
              },
              {
                "duration": 0.25,
                "durationTicks": 120,
                "midi": 55,
                "name": "G3",
                "ticks": 9960,
                "time": 20.75,
                "velocity": 0.5039370078740157
              },
              {
                "duration": 0.25,
                "durationTicks": 120,
                "midi": 63,
                "name": "D#4",
                "ticks": 10080,
                "time": 21,
                "velocity": 0.5039370078740157
              },
              {
                "duration": 0.25,
                "durationTicks": 120,
                "midi": 54,
                "name": "F#3",
                "ticks": 10200,
                "time": 21.25,
                "velocity": 0.5039370078740157
              },
              {
                "duration": 0.25,
                "durationTicks": 120,
                "midi": 63,
                "name": "D#4",
                "ticks": 10320,
                "time": 21.5,
                "velocity": 0.5039370078740157
              },
              {
                "duration": 0.25,
                "durationTicks": 120,
                "midi": 54,
                "name": "F#3",
                "ticks": 10440,
                "time": 21.75,
                "velocity": 0.5039370078740157
              },
              {
                "duration": 0.25,
                "durationTicks": 120,
                "midi": 63,
                "name": "D#4",
                "ticks": 10560,
                "time": 22,
                "velocity": 0.5039370078740157
              },
              {
                "duration": 0.25,
                "durationTicks": 120,
                "midi": 54,
                "name": "F#3",
                "ticks": 10680,
                "time": 22.25,
                "velocity": 0.5039370078740157
              },
              {
                "duration": 0.25,
                "durationTicks": 120,
                "midi": 55,
                "name": "G3",
                "ticks": 10800,
                "time": 22.5,
                "velocity": 0.5039370078740157
              },
              {
                "duration": 0.125,
                "durationTicks": 60,
                "midi": 53,
                "name": "F3",
                "ticks": 10920,
                "time": 22.75,
                "velocity": 0.5039370078740157
              },
              {
                "duration": 0.125,
                "durationTicks": 60,
                "midi": 51,
                "name": "D#3",
                "ticks": 10980,
                "time": 22.875,
                "velocity": 0.5039370078740157
              },
              {
                "duration": 0.125,
                "durationTicks": 60,
                "midi": 50,
                "name": "D3",
                "ticks": 11040,
                "time": 23,
                "velocity": 0.5039370078740157
              },
              {
                "duration": 0.125,
                "durationTicks": 60,
                "midi": 51,
                "name": "D#3",
                "ticks": 11100,
                "time": 23.125,
                "velocity": 0.5039370078740157
              },
              {
                "duration": 0.125,
                "durationTicks": 60,
                "midi": 50,
                "name": "D3",
                "ticks": 11160,
                "time": 23.25,
                "velocity": 0.5039370078740157
              },
              {
                "duration": 0.125,
                "durationTicks": 60,
                "midi": 48,
                "name": "C3",
                "ticks": 11220,
                "time": 23.375,
                "velocity": 0.5039370078740157
              },
              {
                "duration": 0.125,
                "durationTicks": 60,
                "midi": 46,
                "name": "A#2",
                "ticks": 11280,
                "time": 23.5,
                "velocity": 0.5039370078740157
              },
              {
                "duration": 0.125,
                "durationTicks": 60,
                "midi": 48,
                "name": "C3",
                "ticks": 11340,
                "time": 23.625,
                "velocity": 0.5039370078740157
              },
              {
                "duration": 0.125,
                "durationTicks": 60,
                "midi": 46,
                "name": "A#2",
                "ticks": 11400,
                "time": 23.75,
                "velocity": 0.5039370078740157
              },
              {
                "duration": 0.125,
                "durationTicks": 60,
                "midi": 45,
                "name": "A2",
                "ticks": 11460,
                "time": 23.875,
                "velocity": 0.5039370078740157
              },
              {
                "duration": 0.25,
                "durationTicks": 120,
                "midi": 43,
                "name": "G2",
                "ticks": 11520,
                "time": 24,
                "velocity": 0.5039370078740157
              },
              {
                "duration": 0.25,
                "durationTicks": 120,
                "midi": 55,
                "name": "G3",
                "ticks": 11640,
                "time": 24.25,
                "velocity": 0.5039370078740157
              },
              {
                "duration": 0.25,
                "durationTicks": 120,
                "midi": 58,
                "name": "A#3",
                "ticks": 11760,
                "time": 24.5,
                "velocity": 0.5039370078740157
              },
              {
                "duration": 0.25,
                "durationTicks": 120,
                "midi": 55,
                "name": "G3",
                "ticks": 11880,
                "time": 24.75,
                "velocity": 0.5039370078740157
              },
              {
                "duration": 0.25,
                "durationTicks": 120,
                "midi": 62,
                "name": "D4",
                "ticks": 12000,
                "time": 25,
                "velocity": 0.5039370078740157
              },
              {
                "duration": 0.25,
                "durationTicks": 120,
                "midi": 55,
                "name": "G3",
                "ticks": 12120,
                "time": 25.25,
                "velocity": 0.5039370078740157
              },
              {
                "duration": 0.25,
                "durationTicks": 120,
                "midi": 67,
                "name": "G4",
                "ticks": 12240,
                "time": 25.5,
                "velocity": 0.5039370078740157
              },
              {
                "duration": 0.125,
                "durationTicks": 60,
                "midi": 65,
                "name": "F4",
                "ticks": 12360,
                "time": 25.75,
                "velocity": 0.5039370078740157
              },
              {
                "duration": 0.125,
                "durationTicks": 60,
                "midi": 63,
                "name": "D#4",
                "ticks": 12420,
                "time": 25.875,
                "velocity": 0.5039370078740157
              },
              {
                "duration": 0.125,
                "durationTicks": 60,
                "midi": 62,
                "name": "D4",
                "ticks": 12480,
                "time": 26,
                "velocity": 0.5039370078740157
              },
              {
                "duration": 0.125,
                "durationTicks": 60,
                "midi": 63,
                "name": "D#4",
                "ticks": 12540,
                "time": 26.125,
                "velocity": 0.5039370078740157
              },
              {
                "duration": 0.125,
                "durationTicks": 60,
                "midi": 62,
                "name": "D4",
                "ticks": 12600,
                "time": 26.25,
                "velocity": 0.5039370078740157
              },
              {
                "duration": 0.125,
                "durationTicks": 60,
                "midi": 60,
                "name": "C4",
                "ticks": 12660,
                "time": 26.375,
                "velocity": 0.5039370078740157
              },
              {
                "duration": 0.125,
                "durationTicks": 60,
                "midi": 58,
                "name": "A#3",
                "ticks": 12720,
                "time": 26.5,
                "velocity": 0.5039370078740157
              },
              {
                "duration": 0.125,
                "durationTicks": 60,
                "midi": 60,
                "name": "C4",
                "ticks": 12780,
                "time": 26.625,
                "velocity": 0.5039370078740157
              },
              {
                "duration": 0.125,
                "durationTicks": 60,
                "midi": 58,
                "name": "A#3",
                "ticks": 12840,
                "time": 26.75,
                "velocity": 0.5039370078740157
              },
              {
                "duration": 0.125,
                "durationTicks": 60,
                "midi": 57,
                "name": "A3",
                "ticks": 12900,
                "time": 26.875,
                "velocity": 0.5039370078740157
              },
              {
                "duration": 0.125,
                "durationTicks": 60,
                "midi": 55,
                "name": "G3",
                "ticks": 12960,
                "time": 27,
                "velocity": 0.5039370078740157
              },
              {
                "duration": 0.125,
                "durationTicks": 60,
                "midi": 53,
                "name": "F3",
                "ticks": 13020,
                "time": 27.125,
                "velocity": 0.5039370078740157
              },
              {
                "duration": 0.125,
                "durationTicks": 60,
                "midi": 55,
                "name": "G3",
                "ticks": 13080,
                "time": 27.25,
                "velocity": 0.5039370078740157
              },
              {
                "duration": 0.125,
                "durationTicks": 60,
                "midi": 64,
                "name": "E4",
                "ticks": 13140,
                "time": 27.375,
                "velocity": 0.5039370078740157
              },
              {
                "duration": 0.125,
                "durationTicks": 60,
                "midi": 55,
                "name": "G3",
                "ticks": 13200,
                "time": 27.5,
                "velocity": 0.5039370078740157
              },
              {
                "duration": 0.125,
                "durationTicks": 60,
                "midi": 64,
                "name": "E4",
                "ticks": 13260,
                "time": 27.625,
                "velocity": 0.5039370078740157
              },
              {
                "duration": 0.125,
                "durationTicks": 60,
                "midi": 53,
                "name": "F3",
                "ticks": 13320,
                "time": 27.75,
                "velocity": 0.5039370078740157
              },
              {
                "duration": 0.125,
                "durationTicks": 60,
                "midi": 64,
                "name": "E4",
                "ticks": 13380,
                "time": 27.875,
                "velocity": 0.5039370078740157
              },
              {
                "duration": 0.125,
                "durationTicks": 60,
                "midi": 55,
                "name": "G3",
                "ticks": 13440,
                "time": 28,
                "velocity": 0.5039370078740157
              },
              {
                "duration": 0.125,
                "durationTicks": 60,
                "midi": 64,
                "name": "E4",
                "ticks": 13500,
                "time": 28.125,
                "velocity": 0.5039370078740157
              },
              {
                "duration": 0.125,
                "durationTicks": 60,
                "midi": 52,
                "name": "E3",
                "ticks": 13560,
                "time": 28.25,
                "velocity": 0.5039370078740157
              },
              {
                "duration": 0.125,
                "durationTicks": 60,
                "midi": 64,
                "name": "E4",
                "ticks": 13620,
                "time": 28.375,
                "velocity": 0.5039370078740157
              },
              {
                "duration": 0.125,
                "durationTicks": 60,
                "midi": 53,
                "name": "F3",
                "ticks": 13680,
                "time": 28.5,
                "velocity": 0.5039370078740157
              },
              {
                "duration": 0.125,
                "durationTicks": 60,
                "midi": 52,
                "name": "E3",
                "ticks": 13740,
                "time": 28.625,
                "velocity": 0.5039370078740157
              },
              {
                "duration": 0.125,
                "durationTicks": 60,
                "midi": 53,
                "name": "F3",
                "ticks": 13800,
                "time": 28.75,
                "velocity": 0.5039370078740157
              },
              {
                "duration": 0.125,
                "durationTicks": 60,
                "midi": 62,
                "name": "D4",
                "ticks": 13860,
                "time": 28.875,
                "velocity": 0.5039370078740157
              },
              {
                "duration": 0.125,
                "durationTicks": 60,
                "midi": 53,
                "name": "F3",
                "ticks": 13920,
                "time": 29,
                "velocity": 0.5039370078740157
              },
              {
                "duration": 0.125,
                "durationTicks": 60,
                "midi": 62,
                "name": "D4",
                "ticks": 13980,
                "time": 29.125,
                "velocity": 0.5039370078740157
              },
              {
                "duration": 0.125,
                "durationTicks": 60,
                "midi": 52,
                "name": "E3",
                "ticks": 14040,
                "time": 29.25,
                "velocity": 0.5039370078740157
              },
              {
                "duration": 0.125,
                "durationTicks": 60,
                "midi": 62,
                "name": "D4",
                "ticks": 14100,
                "time": 29.375,
                "velocity": 0.5039370078740157
              },
              {
                "duration": 0.125,
                "durationTicks": 60,
                "midi": 53,
                "name": "F3",
                "ticks": 14160,
                "time": 29.5,
                "velocity": 0.5039370078740157
              },
              {
                "duration": 0.125,
                "durationTicks": 60,
                "midi": 62,
                "name": "D4",
                "ticks": 14220,
                "time": 29.625,
                "velocity": 0.5039370078740157
              },
              {
                "duration": 0.125,
                "durationTicks": 60,
                "midi": 50,
                "name": "D3",
                "ticks": 14280,
                "time": 29.75,
                "velocity": 0.5039370078740157
              },
              {
                "duration": 0.125,
                "durationTicks": 60,
                "midi": 62,
                "name": "D4",
                "ticks": 14340,
                "time": 29.875,
                "velocity": 0.5039370078740157
              },
              {
                "duration": 0.25,
                "durationTicks": 120,
                "midi": 58,
                "name": "A#3",
                "ticks": 14400,
                "time": 30,
                "velocity": 0.5039370078740157
              },
              {
                "duration": 0.25,
                "durationTicks": 120,
                "midi": 55,
                "name": "G3",
                "ticks": 14520,
                "time": 30.25,
                "velocity": 0.5039370078740157
              },
              {
                "duration": 0.25,
                "durationTicks": 120,
                "midi": 52,
                "name": "E3",
                "ticks": 14640,
                "time": 30.5,
                "velocity": 0.5039370078740157
              },
              {
                "duration": 0.25,
                "durationTicks": 120,
                "midi": 55,
                "name": "G3",
                "ticks": 14760,
                "time": 30.75,
                "velocity": 0.5039370078740157
              },
              {
                "duration": 0.25,
                "durationTicks": 120,
                "midi": 48,
                "name": "C3",
                "ticks": 14880,
                "time": 31,
                "velocity": 0.5039370078740157
              },
              {
                "duration": 0.25,
                "durationTicks": 120,
                "midi": 52,
                "name": "E3",
                "ticks": 15000,
                "time": 31.25,
                "velocity": 0.5039370078740157
              },
              {
                "duration": 0.25,
                "durationTicks": 120,
                "midi": 57,
                "name": "A3",
                "ticks": 15120,
                "time": 31.5,
                "velocity": 0.5039370078740157
              },
              {
                "duration": 0.25,
                "durationTicks": 120,
                "midi": 53,
                "name": "F3",
                "ticks": 15240,
                "time": 31.75,
                "velocity": 0.5039370078740157
              },
              {
                "duration": 0.25,
                "durationTicks": 120,
                "midi": 50,
                "name": "D3",
                "ticks": 15360,
                "time": 32,
                "velocity": 0.5039370078740157
              },
              {
                "duration": 0.25,
                "durationTicks": 120,
                "midi": 53,
                "name": "F3",
                "ticks": 15480,
                "time": 32.25,
                "velocity": 0.5039370078740157
              },
              {
                "duration": 0.25,
                "durationTicks": 120,
                "midi": 47,
                "name": "B2",
                "ticks": 15600,
                "time": 32.5,
                "velocity": 0.5039370078740157
              },
              {
                "duration": 0.25,
                "durationTicks": 120,
                "midi": 50,
                "name": "D3",
                "ticks": 15720,
                "time": 32.75,
                "velocity": 0.5039370078740157
              },
              {
                "duration": 0.25,
                "durationTicks": 120,
                "midi": 55,
                "name": "G3",
                "ticks": 15840,
                "time": 33,
                "velocity": 0.5039370078740157
              },
              {
                "duration": 0.25,
                "durationTicks": 120,
                "midi": 52,
                "name": "E3",
                "ticks": 15960,
                "time": 33.25,
                "velocity": 0.5039370078740157
              },
              {
                "duration": 0.25,
                "durationTicks": 120,
                "midi": 49,
                "name": "C#3",
                "ticks": 16080,
                "time": 33.5,
                "velocity": 0.5039370078740157
              },
              {
                "duration": 0.25,
                "durationTicks": 120,
                "midi": 52,
                "name": "E3",
                "ticks": 16200,
                "time": 33.75,
                "velocity": 0.5039370078740157
              },
              {
                "duration": 0.25,
                "durationTicks": 120,
                "midi": 45,
                "name": "A2",
                "ticks": 16320,
                "time": 34,
                "velocity": 0.5039370078740157
              },
              {
                "duration": 0.25,
                "durationTicks": 120,
                "midi": 49,
                "name": "C#3",
                "ticks": 16440,
                "time": 34.25,
                "velocity": 0.5039370078740157
              },
              {
                "duration": 0.125,
                "durationTicks": 60,
                "midi": 38,
                "name": "D2",
                "ticks": 16560,
                "time": 34.5,
                "velocity": 0.5039370078740157
              },
              {
                "duration": 0.125,
                "durationTicks": 60,
                "midi": 50,
                "name": "D3",
                "ticks": 16620,
                "time": 34.625,
                "velocity": 0.5039370078740157
              },
              {
                "duration": 0.125,
                "durationTicks": 60,
                "midi": 48,
                "name": "C3",
                "ticks": 16680,
                "time": 34.75,
                "velocity": 0.5039370078740157
              },
              {
                "duration": 0.125,
                "durationTicks": 60,
                "midi": 50,
                "name": "D3",
                "ticks": 16740,
                "time": 34.875,
                "velocity": 0.5039370078740157
              },
              {
                "duration": 0.125,
                "durationTicks": 60,
                "midi": 43,
                "name": "G2",
                "ticks": 16800,
                "time": 35,
                "velocity": 0.5039370078740157
              },
              {
                "duration": 0.125,
                "durationTicks": 60,
                "midi": 50,
                "name": "D3",
                "ticks": 16860,
                "time": 35.125,
                "velocity": 0.5039370078740157
              },
              {
                "duration": 0.125,
                "durationTicks": 60,
                "midi": 45,
                "name": "A2",
                "ticks": 16920,
                "time": 35.25,
                "velocity": 0.5039370078740157
              },
              {
                "duration": 0.125,
                "durationTicks": 60,
                "midi": 50,
                "name": "D3",
                "ticks": 16980,
                "time": 35.375,
                "velocity": 0.5039370078740157
              },
              {
                "duration": 0.125,
                "durationTicks": 60,
                "midi": 46,
                "name": "A#2",
                "ticks": 17040,
                "time": 35.5,
                "velocity": 0.5039370078740157
              },
              {
                "duration": 0.125,
                "durationTicks": 60,
                "midi": 50,
                "name": "D3",
                "ticks": 17100,
                "time": 35.625,
                "velocity": 0.5039370078740157
              },
              {
                "duration": 0.125,
                "durationTicks": 60,
                "midi": 43,
                "name": "G2",
                "ticks": 17160,
                "time": 35.75,
                "velocity": 0.5039370078740157
              },
              {
                "duration": 0.125,
                "durationTicks": 60,
                "midi": 50,
                "name": "D3",
                "ticks": 17220,
                "time": 35.875,
                "velocity": 0.5039370078740157
              },
              {
                "duration": 0.125,
                "durationTicks": 60,
                "midi": 36,
                "name": "C2",
                "ticks": 17280,
                "time": 36,
                "velocity": 0.5039370078740157
              },
              {
                "duration": 0.125,
                "durationTicks": 60,
                "midi": 48,
                "name": "C3",
                "ticks": 17340,
                "time": 36.125,
                "velocity": 0.5039370078740157
              },
              {
                "duration": 0.125,
                "durationTicks": 60,
                "midi": 46,
                "name": "A#2",
                "ticks": 17400,
                "time": 36.25,
                "velocity": 0.5039370078740157
              },
              {
                "duration": 0.125,
                "durationTicks": 60,
                "midi": 48,
                "name": "C3",
                "ticks": 17460,
                "time": 36.375,
                "velocity": 0.5039370078740157
              },
              {
                "duration": 0.125,
                "durationTicks": 60,
                "midi": 41,
                "name": "F2",
                "ticks": 17520,
                "time": 36.5,
                "velocity": 0.5039370078740157
              },
              {
                "duration": 0.125,
                "durationTicks": 60,
                "midi": 48,
                "name": "C3",
                "ticks": 17580,
                "time": 36.625,
                "velocity": 0.5039370078740157
              },
              {
                "duration": 0.125,
                "durationTicks": 60,
                "midi": 43,
                "name": "G2",
                "ticks": 17640,
                "time": 36.75,
                "velocity": 0.5039370078740157
              },
              {
                "duration": 0.125,
                "durationTicks": 60,
                "midi": 48,
                "name": "C3",
                "ticks": 17700,
                "time": 36.875,
                "velocity": 0.5039370078740157
              },
              {
                "duration": 0.125,
                "durationTicks": 60,
                "midi": 45,
                "name": "A2",
                "ticks": 17760,
                "time": 37,
                "velocity": 0.5039370078740157
              },
              {
                "duration": 0.125,
                "durationTicks": 60,
                "midi": 48,
                "name": "C3",
                "ticks": 17820,
                "time": 37.125,
                "velocity": 0.5039370078740157
              },
              {
                "duration": 0.125,
                "durationTicks": 60,
                "midi": 41,
                "name": "F2",
                "ticks": 17880,
                "time": 37.25,
                "velocity": 0.5039370078740157
              },
              {
                "duration": 0.125,
                "durationTicks": 60,
                "midi": 48,
                "name": "C3",
                "ticks": 17940,
                "time": 37.375,
                "velocity": 0.5039370078740157
              },
              {
                "duration": 0.25,
                "durationTicks": 120,
                "midi": 46,
                "name": "A#2",
                "ticks": 18000,
                "time": 37.5,
                "velocity": 0.5039370078740157
              },
              {
                "duration": 0.25,
                "durationTicks": 120,
                "midi": 50,
                "name": "D3",
                "ticks": 18120,
                "time": 37.75,
                "velocity": 0.5039370078740157
              },
              {
                "duration": 0.25,
                "durationTicks": 120,
                "midi": 53,
                "name": "F3",
                "ticks": 18240,
                "time": 38,
                "velocity": 0.5039370078740157
              },
              {
                "duration": 0.25,
                "durationTicks": 120,
                "midi": 50,
                "name": "D3",
                "ticks": 18360,
                "time": 38.25,
                "velocity": 0.5039370078740157
              },
              {
                "duration": 0.25,
                "durationTicks": 120,
                "midi": 58,
                "name": "A#3",
                "ticks": 18480,
                "time": 38.5,
                "velocity": 0.5039370078740157
              },
              {
                "duration": 0.25,
                "durationTicks": 120,
                "midi": 53,
                "name": "F3",
                "ticks": 18600,
                "time": 38.75,
                "velocity": 0.5039370078740157
              },
              {
                "duration": 0.125,
                "durationTicks": 60,
                "midi": 62,
                "name": "D4",
                "ticks": 18720,
                "time": 39,
                "velocity": 0.5039370078740157
              },
              {
                "duration": 0.125,
                "durationTicks": 60,
                "midi": 65,
                "name": "F4",
                "ticks": 18780,
                "time": 39.125,
                "velocity": 0.5039370078740157
              },
              {
                "duration": 0.125,
                "durationTicks": 60,
                "midi": 63,
                "name": "D#4",
                "ticks": 18840,
                "time": 39.25,
                "velocity": 0.5039370078740157
              },
              {
                "duration": 0.125,
                "durationTicks": 60,
                "midi": 65,
                "name": "F4",
                "ticks": 18900,
                "time": 39.375,
                "velocity": 0.5039370078740157
              },
              {
                "duration": 0.125,
                "durationTicks": 60,
                "midi": 62,
                "name": "D4",
                "ticks": 18960,
                "time": 39.5,
                "velocity": 0.5039370078740157
              },
              {
                "duration": 0.125,
                "durationTicks": 60,
                "midi": 65,
                "name": "F4",
                "ticks": 19020,
                "time": 39.625,
                "velocity": 0.5039370078740157
              },
              {
                "duration": 0.125,
                "durationTicks": 60,
                "midi": 63,
                "name": "D#4",
                "ticks": 19080,
                "time": 39.75,
                "velocity": 0.5039370078740157
              },
              {
                "duration": 0.125,
                "durationTicks": 60,
                "midi": 65,
                "name": "F4",
                "ticks": 19140,
                "time": 39.875,
                "velocity": 0.5039370078740157
              },
              {
                "duration": 0.125,
                "durationTicks": 60,
                "midi": 62,
                "name": "D4",
                "ticks": 19200,
                "time": 40,
                "velocity": 0.5039370078740157
              },
              {
                "duration": 0.125,
                "durationTicks": 60,
                "midi": 65,
                "name": "F4",
                "ticks": 19260,
                "time": 40.125,
                "velocity": 0.5039370078740157
              },
              {
                "duration": 0.125,
                "durationTicks": 60,
                "midi": 63,
                "name": "D#4",
                "ticks": 19320,
                "time": 40.25,
                "velocity": 0.5039370078740157
              },
              {
                "duration": 0.125,
                "durationTicks": 60,
                "midi": 65,
                "name": "F4",
                "ticks": 19380,
                "time": 40.375,
                "velocity": 0.5039370078740157
              },
              {
                "duration": 0.125,
                "durationTicks": 60,
                "midi": 58,
                "name": "A#3",
                "ticks": 19440,
                "time": 40.5,
                "velocity": 0.5039370078740157
              },
              {
                "duration": 0.125,
                "durationTicks": 60,
                "midi": 62,
                "name": "D4",
                "ticks": 19500,
                "time": 40.625,
                "velocity": 0.5039370078740157
              },
              {
                "duration": 0.125,
                "durationTicks": 60,
                "midi": 60,
                "name": "C4",
                "ticks": 19560,
                "time": 40.75,
                "velocity": 0.5039370078740157
              },
              {
                "duration": 0.125,
                "durationTicks": 60,
                "midi": 62,
                "name": "D4",
                "ticks": 19620,
                "time": 40.875,
                "velocity": 0.5039370078740157
              },
              {
                "duration": 0.125,
                "durationTicks": 60,
                "midi": 58,
                "name": "A#3",
                "ticks": 19680,
                "time": 41,
                "velocity": 0.5039370078740157
              },
              {
                "duration": 0.125,
                "durationTicks": 60,
                "midi": 62,
                "name": "D4",
                "ticks": 19740,
                "time": 41.125,
                "velocity": 0.5039370078740157
              },
              {
                "duration": 0.125,
                "durationTicks": 60,
                "midi": 60,
                "name": "C4",
                "ticks": 19800,
                "time": 41.25,
                "velocity": 0.5039370078740157
              },
              {
                "duration": 0.125,
                "durationTicks": 60,
                "midi": 62,
                "name": "D4",
                "ticks": 19860,
                "time": 41.375,
                "velocity": 0.5039370078740157
              },
              {
                "duration": 0.125,
                "durationTicks": 60,
                "midi": 58,
                "name": "A#3",
                "ticks": 19920,
                "time": 41.5,
                "velocity": 0.5039370078740157
              },
              {
                "duration": 0.125,
                "durationTicks": 60,
                "midi": 62,
                "name": "D4",
                "ticks": 19980,
                "time": 41.625,
                "velocity": 0.5039370078740157
              },
              {
                "duration": 0.125,
                "durationTicks": 60,
                "midi": 60,
                "name": "C4",
                "ticks": 20040,
                "time": 41.75,
                "velocity": 0.5039370078740157
              },
              {
                "duration": 0.125,
                "durationTicks": 60,
                "midi": 62,
                "name": "D4",
                "ticks": 20100,
                "time": 41.875,
                "velocity": 0.5039370078740157
              },
              {
                "duration": 0.125,
                "durationTicks": 60,
                "midi": 55,
                "name": "G3",
                "ticks": 20160,
                "time": 42,
                "velocity": 0.5039370078740157
              },
              {
                "duration": 0.125,
                "durationTicks": 60,
                "midi": 58,
                "name": "A#3",
                "ticks": 20220,
                "time": 42.125,
                "velocity": 0.5039370078740157
              },
              {
                "duration": 0.125,
                "durationTicks": 60,
                "midi": 57,
                "name": "A3",
                "ticks": 20280,
                "time": 42.25,
                "velocity": 0.5039370078740157
              },
              {
                "duration": 0.125,
                "durationTicks": 60,
                "midi": 58,
                "name": "A#3",
                "ticks": 20340,
                "time": 42.375,
                "velocity": 0.5039370078740157
              },
              {
                "duration": 0.125,
                "durationTicks": 60,
                "midi": 55,
                "name": "G3",
                "ticks": 20400,
                "time": 42.5,
                "velocity": 0.5039370078740157
              },
              {
                "duration": 0.125,
                "durationTicks": 60,
                "midi": 58,
                "name": "A#3",
                "ticks": 20460,
                "time": 42.625,
                "velocity": 0.5039370078740157
              },
              {
                "duration": 0.125,
                "durationTicks": 60,
                "midi": 57,
                "name": "A3",
                "ticks": 20520,
                "time": 42.75,
                "velocity": 0.5039370078740157
              },
              {
                "duration": 0.125,
                "durationTicks": 60,
                "midi": 58,
                "name": "A#3",
                "ticks": 20580,
                "time": 42.875,
                "velocity": 0.5039370078740157
              },
              {
                "duration": 0.125,
                "durationTicks": 60,
                "midi": 55,
                "name": "G3",
                "ticks": 20640,
                "time": 43,
                "velocity": 0.5039370078740157
              },
              {
                "duration": 0.125,
                "durationTicks": 60,
                "midi": 58,
                "name": "A#3",
                "ticks": 20700,
                "time": 43.125,
                "velocity": 0.5039370078740157
              },
              {
                "duration": 0.125,
                "durationTicks": 60,
                "midi": 57,
                "name": "A3",
                "ticks": 20760,
                "time": 43.25,
                "velocity": 0.5039370078740157
              },
              {
                "duration": 0.125,
                "durationTicks": 60,
                "midi": 58,
                "name": "A#3",
                "ticks": 20820,
                "time": 43.375,
                "velocity": 0.5039370078740157
              },
              {
                "duration": 0.25,
                "durationTicks": 120,
                "midi": 52,
                "name": "E3",
                "ticks": 20880,
                "time": 43.5,
                "velocity": 0.5039370078740157
              },
              {
                "duration": 0.25,
                "durationTicks": 120,
                "midi": 48,
                "name": "C3",
                "ticks": 21000,
                "time": 43.75,
                "velocity": 0.5039370078740157
              },
              {
                "duration": 0.25,
                "durationTicks": 120,
                "midi": 53,
                "name": "F3",
                "ticks": 21120,
                "time": 44,
                "velocity": 0.5039370078740157
              },
              {
                "duration": 0.25,
                "durationTicks": 120,
                "midi": 48,
                "name": "C3",
                "ticks": 21240,
                "time": 44.25,
                "velocity": 0.5039370078740157
              },
              {
                "duration": 0.25,
                "durationTicks": 120,
                "midi": 57,
                "name": "A3",
                "ticks": 21360,
                "time": 44.5,
                "velocity": 0.5039370078740157
              },
              {
                "duration": 0.25,
                "durationTicks": 120,
                "midi": 53,
                "name": "F3",
                "ticks": 21480,
                "time": 44.75,
                "velocity": 0.5039370078740157
              },
              {
                "duration": 0.125,
                "durationTicks": 60,
                "midi": 58,
                "name": "A#3",
                "ticks": 21600,
                "time": 45,
                "velocity": 0.5039370078740157
              },
              {
                "duration": 0.125,
                "durationTicks": 60,
                "midi": 60,
                "name": "C4",
                "ticks": 21660,
                "time": 45.125,
                "velocity": 0.5039370078740157
              },
              {
                "duration": 0.125,
                "durationTicks": 60,
                "midi": 58,
                "name": "A#3",
                "ticks": 21720,
                "time": 45.25,
                "velocity": 0.5039370078740157
              },
              {
                "duration": 0.125,
                "durationTicks": 60,
                "midi": 57,
                "name": "A3",
                "ticks": 21780,
                "time": 45.375,
                "velocity": 0.5039370078740157
              },
              {
                "duration": 0.125,
                "durationTicks": 60,
                "midi": 55,
                "name": "G3",
                "ticks": 21840,
                "time": 45.5,
                "velocity": 0.5039370078740157
              },
              {
                "duration": 0.125,
                "durationTicks": 60,
                "midi": 57,
                "name": "A3",
                "ticks": 21900,
                "time": 45.625,
                "velocity": 0.5039370078740157
              },
              {
                "duration": 0.125,
                "durationTicks": 60,
                "midi": 55,
                "name": "G3",
                "ticks": 21960,
                "time": 45.75,
                "velocity": 0.5039370078740157
              },
              {
                "duration": 0.125,
                "durationTicks": 60,
                "midi": 53,
                "name": "F3",
                "ticks": 22020,
                "time": 45.875,
                "velocity": 0.5039370078740157
              },
              {
                "duration": 0.125,
                "durationTicks": 60,
                "midi": 52,
                "name": "E3",
                "ticks": 22080,
                "time": 46,
                "velocity": 0.5039370078740157
              },
              {
                "duration": 0.125,
                "durationTicks": 60,
                "midi": 53,
                "name": "F3",
                "ticks": 22140,
                "time": 46.125,
                "velocity": 0.5039370078740157
              },
              {
                "duration": 0.125,
                "durationTicks": 60,
                "midi": 52,
                "name": "E3",
                "ticks": 22200,
                "time": 46.25,
                "velocity": 0.5039370078740157
              },
              {
                "duration": 0.125,
                "durationTicks": 60,
                "midi": 50,
                "name": "D3",
                "ticks": 22260,
                "time": 46.375,
                "velocity": 0.5039370078740157
              },
              {
                "duration": 0.25,
                "durationTicks": 120,
                "midi": 48,
                "name": "C3",
                "ticks": 22320,
                "time": 46.5,
                "velocity": 0.5039370078740157
              },
              {
                "duration": 0.125,
                "durationTicks": 60,
                "midi": 53,
                "name": "F3",
                "ticks": 22440,
                "time": 46.75,
                "velocity": 0.5039370078740157
              },
              {
                "duration": 0.125,
                "durationTicks": 60,
                "midi": 52,
                "name": "E3",
                "ticks": 22500,
                "time": 46.875,
                "velocity": 0.5039370078740157
              },
              {
                "duration": 0.125,
                "durationTicks": 60,
                "midi": 50,
                "name": "D3",
                "ticks": 22560,
                "time": 47,
                "velocity": 0.5039370078740157
              },
              {
                "duration": 0.125,
                "durationTicks": 60,
                "midi": 52,
                "name": "E3",
                "ticks": 22620,
                "time": 47.125,
                "velocity": 0.5039370078740157
              },
              {
                "duration": 0.125,
                "durationTicks": 60,
                "midi": 50,
                "name": "D3",
                "ticks": 22680,
                "time": 47.25,
                "velocity": 0.5039370078740157
              },
              {
                "duration": 0.125,
                "durationTicks": 60,
                "midi": 48,
                "name": "C3",
                "ticks": 22740,
                "time": 47.375,
                "velocity": 0.5039370078740157
              },
              {
                "duration": 0.125,
                "durationTicks": 60,
                "midi": 46,
                "name": "A#2",
                "ticks": 22800,
                "time": 47.5,
                "velocity": 0.5039370078740157
              },
              {
                "duration": 0.125,
                "durationTicks": 60,
                "midi": 48,
                "name": "C3",
                "ticks": 22860,
                "time": 47.625,
                "velocity": 0.5039370078740157
              },
              {
                "duration": 0.125,
                "durationTicks": 60,
                "midi": 46,
                "name": "A#2",
                "ticks": 22920,
                "time": 47.75,
                "velocity": 0.5039370078740157
              },
              {
                "duration": 0.125,
                "durationTicks": 60,
                "midi": 45,
                "name": "A2",
                "ticks": 22980,
                "time": 47.875,
                "velocity": 0.5039370078740157
              },
              {
                "duration": 0.125,
                "durationTicks": 60,
                "midi": 43,
                "name": "G2",
                "ticks": 23040,
                "time": 48,
                "velocity": 0.5039370078740157
              },
              {
                "duration": 0.125,
                "durationTicks": 60,
                "midi": 45,
                "name": "A2",
                "ticks": 23100,
                "time": 48.125,
                "velocity": 0.5039370078740157
              },
              {
                "duration": 0.125,
                "durationTicks": 60,
                "midi": 43,
                "name": "G2",
                "ticks": 23160,
                "time": 48.25,
                "velocity": 0.5039370078740157
              },
              {
                "duration": 0.125,
                "durationTicks": 60,
                "midi": 41,
                "name": "F2",
                "ticks": 23220,
                "time": 48.375,
                "velocity": 0.5039370078740157
              },
              {
                "duration": 0.125,
                "durationTicks": 60,
                "midi": 48,
                "name": "C3",
                "ticks": 23280,
                "time": 48.5,
                "velocity": 0.5039370078740157
              },
              {
                "duration": 0.125,
                "durationTicks": 60,
                "midi": 46,
                "name": "A#2",
                "ticks": 23340,
                "time": 48.625,
                "velocity": 0.5039370078740157
              },
              {
                "duration": 0.125,
                "durationTicks": 60,
                "midi": 45,
                "name": "A2",
                "ticks": 23400,
                "time": 48.75,
                "velocity": 0.5039370078740157
              },
              {
                "duration": 0.125,
                "durationTicks": 60,
                "midi": 46,
                "name": "A#2",
                "ticks": 23460,
                "time": 48.875,
                "velocity": 0.5039370078740157
              },
              {
                "duration": 0.25,
                "durationTicks": 120,
                "midi": 48,
                "name": "C3",
                "ticks": 23520,
                "time": 49,
                "velocity": 0.5039370078740157
              },
              {
                "duration": 0.25,
                "durationTicks": 120,
                "midi": 36,
                "name": "C2",
                "ticks": 23640,
                "time": 49.25,
                "velocity": 0.5039370078740157
              },
              {
                "duration": 1,
                "durationTicks": 480,
                "midi": 41,
                "name": "F2",
                "ticks": 23760,
                "time": 49.5,
                "velocity": 0.5039370078740157
              }
            ],
            "endOfTrackTicks": 24240
          }
        ]
    },

    "invention-09" : {
        "header": {
          "keySignatures": [],
          "meta": [],
          "name": "Invention 9 in F Minor",
          "ppq": 240,
          "tempos": [
            {
              "bpm": 100,
              "ticks": 0
            }
          ],
          "timeSignatures": [
            {
              "ticks": 0,
              "timeSignature": [
                3,
                4
              ],
              "measures": 0
            }
          ]
        },
        "tracks": [
          {
            "channel": 0,
            "controlChanges": {},
            "pitchBends": [],
            "instrument": {
              "family": "piano",
              "number": 0,
              "name": "acoustic grand piano"
            },
            "name": "",
            "notes": [
              {
                "duration": 0.15,
                "durationTicks": 60,
                "midi": 72,
                "name": "C5",
                "ticks": 0,
                "time": 0,
                "velocity": 0.5039370078740157
              },
              {
                "duration": 0.15,
                "durationTicks": 60,
                "midi": 70,
                "name": "A#4",
                "ticks": 60,
                "time": 0.15,
                "velocity": 0.5039370078740157
              },
              {
                "duration": 0.14999999999999997,
                "durationTicks": 60,
                "midi": 68,
                "name": "G#4",
                "ticks": 120,
                "time": 0.3,
                "velocity": 0.5039370078740157
              },
              {
                "duration": 0.15000000000000002,
                "durationTicks": 60,
                "midi": 67,
                "name": "G4",
                "ticks": 180,
                "time": 0.44999999999999996,
                "velocity": 0.5039370078740157
              },
              {
                "duration": 0.29999999999999993,
                "durationTicks": 120,
                "midi": 68,
                "name": "G#4",
                "ticks": 240,
                "time": 0.6,
                "velocity": 0.5039370078740157
              },
              {
                "duration": 0.30000000000000004,
                "durationTicks": 120,
                "midi": 65,
                "name": "F4",
                "ticks": 360,
                "time": 0.8999999999999999,
                "velocity": 0.5039370078740157
              },
              {
                "duration": 0.7250000000000001,
                "durationTicks": 290,
                "midi": 73,
                "name": "C#5",
                "ticks": 480,
                "time": 1.2,
                "velocity": 0.5039370078740157
              },
              {
                "duration": 0.15000000000000013,
                "durationTicks": 60,
                "midi": 72,
                "name": "C5",
                "ticks": 780,
                "time": 1.95,
                "velocity": 0.5039370078740157
              },
              {
                "duration": 0.1499999999999999,
                "durationTicks": 60,
                "midi": 70,
                "name": "A#4",
                "ticks": 840,
                "time": 2.1,
                "velocity": 0.5039370078740157
              },
              {
                "duration": 0.1499999999999999,
                "durationTicks": 60,
                "midi": 69,
                "name": "A4",
                "ticks": 900,
                "time": 2.25,
                "velocity": 0.5039370078740157
              },
              {
                "duration": 0.2999999999999998,
                "durationTicks": 120,
                "midi": 70,
                "name": "A#4",
                "ticks": 960,
                "time": 2.4,
                "velocity": 0.5039370078740157
              },
              {
                "duration": 0.30000000000000027,
                "durationTicks": 120,
                "midi": 67,
                "name": "G4",
                "ticks": 1080,
                "time": 2.6999999999999997,
                "velocity": 0.5039370078740157
              },
              {
                "duration": 0.7249999999999996,
                "durationTicks": 290,
                "midi": 76,
                "name": "E5",
                "ticks": 1200,
                "time": 3,
                "velocity": 0.5039370078740157
              },
              {
                "duration": 0.1499999999999999,
                "durationTicks": 60,
                "midi": 77,
                "name": "F5",
                "ticks": 1500,
                "time": 3.75,
                "velocity": 0.5039370078740157
              },
              {
                "duration": 0.1499999999999999,
                "durationTicks": 60,
                "midi": 79,
                "name": "G5",
                "ticks": 1560,
                "time": 3.9,
                "velocity": 0.5039370078740157
              },
              {
                "duration": 0.15000000000000036,
                "durationTicks": 60,
                "midi": 80,
                "name": "G#5",
                "ticks": 1620,
                "time": 4.05,
                "velocity": 0.5039370078740157
              },
              {
                "duration": 0.2999999999999998,
                "durationTicks": 120,
                "midi": 82,
                "name": "A#5",
                "ticks": 1680,
                "time": 4.2,
                "velocity": 0.5039370078740157
              },
              {
                "duration": 0.14999999999999947,
                "durationTicks": 60,
                "midi": 79,
                "name": "G5",
                "ticks": 1800,
                "time": 4.5,
                "velocity": 0.5039370078740157
              },
              {
                "duration": 0.15000000000000036,
                "durationTicks": 60,
                "midi": 76,
                "name": "E5",
                "ticks": 1860,
                "time": 4.6499999999999995,
                "velocity": 0.5039370078740157
              },
              {
                "duration": 0.2999999999999998,
                "durationTicks": 120,
                "midi": 73,
                "name": "C#5",
                "ticks": 1920,
                "time": 4.8,
                "velocity": 0.5039370078740157
              },
              {
                "duration": 0.2999999999999998,
                "durationTicks": 120,
                "midi": 72,
                "name": "C5",
                "ticks": 2040,
                "time": 5.1,
                "velocity": 0.5039370078740157
              },
              {
                "duration": 0.15000000000000036,
                "durationTicks": 60,
                "midi": 70,
                "name": "A#4",
                "ticks": 2160,
                "time": 5.3999999999999995,
                "velocity": 0.5039370078740157
              },
              {
                "duration": 0.15000000000000036,
                "durationTicks": 60,
                "midi": 68,
                "name": "G#4",
                "ticks": 2220,
                "time": 5.55,
                "velocity": 0.5039370078740157
              },
              {
                "duration": 0.14999999999999947,
                "durationTicks": 60,
                "midi": 67,
                "name": "G4",
                "ticks": 2280,
                "time": 5.7,
                "velocity": 0.5039370078740157
              },
              {
                "duration": 0.15000000000000036,
                "durationTicks": 60,
                "midi": 68,
                "name": "G#4",
                "ticks": 2340,
                "time": 5.85,
                "velocity": 0.5039370078740157
              },
              {
                "duration": 0.14999999999999947,
                "durationTicks": 60,
                "midi": 70,
                "name": "A#4",
                "ticks": 2400,
                "time": 6,
                "velocity": 0.5039370078740157
              },
              {
                "duration": 0.15000000000000036,
                "durationTicks": 60,
                "midi": 73,
                "name": "C#5",
                "ticks": 2460,
                "time": 6.1499999999999995,
                "velocity": 0.5039370078740157
              },
              {
                "duration": 0.15000000000000036,
                "durationTicks": 60,
                "midi": 72,
                "name": "C5",
                "ticks": 2520,
                "time": 6.3,
                "velocity": 0.5039370078740157
              },
              {
                "duration": 0.14999999999999947,
                "durationTicks": 60,
                "midi": 70,
                "name": "A#4",
                "ticks": 2580,
                "time": 6.45,
                "velocity": 0.5039370078740157
              },
              {
                "duration": 0.15000000000000036,
                "durationTicks": 60,
                "midi": 68,
                "name": "G#4",
                "ticks": 2640,
                "time": 6.6,
                "velocity": 0.5039370078740157
              },
              {
                "duration": 0.14999999999999947,
                "durationTicks": 60,
                "midi": 67,
                "name": "G4",
                "ticks": 2700,
                "time": 6.75,
                "velocity": 0.5039370078740157
              },
              {
                "duration": 0.15000000000000036,
                "durationTicks": 60,
                "midi": 65,
                "name": "F4",
                "ticks": 2760,
                "time": 6.8999999999999995,
                "velocity": 0.5039370078740157
              },
              {
                "duration": 0.14999999999999947,
                "durationTicks": 60,
                "midi": 64,
                "name": "E4",
                "ticks": 2820,
                "time": 7.05,
                "velocity": 0.5039370078740157
              },
              {
                "duration": 0.3000000000000007,
                "durationTicks": 120,
                "midi": 68,
                "name": "G#4",
                "ticks": 2880,
                "time": 7.199999999999999,
                "velocity": 0.5039370078740157
              },
              {
                "duration": 0.4499999999999993,
                "durationTicks": 180,
                "midi": 77,
                "name": "F5",
                "ticks": 3000,
                "time": 7.5,
                "velocity": 0.5039370078740157
              },
              {
                "duration": 0.15000000000000036,
                "durationTicks": 60,
                "midi": 79,
                "name": "G5",
                "ticks": 3180,
                "time": 7.949999999999999,
                "velocity": 0.5039370078740157
              },
              {
                "duration": 0.15000000000000036,
                "durationTicks": 60,
                "midi": 80,
                "name": "G#5",
                "ticks": 3240,
                "time": 8.1,
                "velocity": 0.5039370078740157
              },
              {
                "duration": 0.15000000000000036,
                "durationTicks": 60,
                "midi": 79,
                "name": "G5",
                "ticks": 3300,
                "time": 8.25,
                "velocity": 0.5039370078740157
              },
              {
                "duration": 0.14999999999999858,
                "durationTicks": 60,
                "midi": 77,
                "name": "F5",
                "ticks": 3360,
                "time": 8.4,
                "velocity": 0.5039370078740157
              },
              {
                "duration": 0.15000000000000036,
                "durationTicks": 60,
                "midi": 75,
                "name": "D#5",
                "ticks": 3420,
                "time": 8.549999999999999,
                "velocity": 0.5039370078740157
              },
              {
                "duration": 0.15000000000000036,
                "durationTicks": 60,
                "midi": 73,
                "name": "C#5",
                "ticks": 3480,
                "time": 8.7,
                "velocity": 0.5039370078740157
              },
              {
                "duration": 0.15000000000000036,
                "durationTicks": 60,
                "midi": 72,
                "name": "C5",
                "ticks": 3540,
                "time": 8.85,
                "velocity": 0.5039370078740157
              },
              {
                "duration": 0.29999999999999893,
                "durationTicks": 120,
                "midi": 70,
                "name": "A#4",
                "ticks": 3600,
                "time": 9,
                "velocity": 0.5039370078740157
              },
              {
                "duration": 0.45000000000000107,
                "durationTicks": 180,
                "midi": 79,
                "name": "G5",
                "ticks": 3720,
                "time": 9.299999999999999,
                "velocity": 0.5039370078740157
              },
              {
                "duration": 0.15000000000000036,
                "durationTicks": 60,
                "midi": 80,
                "name": "G#5",
                "ticks": 3900,
                "time": 9.75,
                "velocity": 0.5039370078740157
              },
              {
                "duration": 0.14999999999999858,
                "durationTicks": 60,
                "midi": 82,
                "name": "A#5",
                "ticks": 3960,
                "time": 9.9,
                "velocity": 0.5039370078740157
              },
              {
                "duration": 0.15000000000000036,
                "durationTicks": 60,
                "midi": 80,
                "name": "G#5",
                "ticks": 4020,
                "time": 10.049999999999999,
                "velocity": 0.5039370078740157
              },
              {
                "duration": 0.15000000000000036,
                "durationTicks": 60,
                "midi": 79,
                "name": "G5",
                "ticks": 4080,
                "time": 10.2,
                "velocity": 0.5039370078740157
              },
              {
                "duration": 0.15000000000000036,
                "durationTicks": 60,
                "midi": 77,
                "name": "F5",
                "ticks": 4140,
                "time": 10.35,
                "velocity": 0.5039370078740157
              },
              {
                "duration": 0.15000000000000036,
                "durationTicks": 60,
                "midi": 76,
                "name": "E5",
                "ticks": 4200,
                "time": 10.5,
                "velocity": 0.5039370078740157
              },
              {
                "duration": 0.14999999999999858,
                "durationTicks": 60,
                "midi": 74,
                "name": "D5",
                "ticks": 4260,
                "time": 10.65,
                "velocity": 0.5039370078740157
              },
              {
                "duration": 0.15000000000000036,
                "durationTicks": 60,
                "midi": 72,
                "name": "C5",
                "ticks": 4320,
                "time": 10.799999999999999,
                "velocity": 0.5039370078740157
              },
              {
                "duration": 0.15000000000000036,
                "durationTicks": 60,
                "midi": 74,
                "name": "D5",
                "ticks": 4380,
                "time": 10.95,
                "velocity": 0.5039370078740157
              },
              {
                "duration": 0.15000000000000036,
                "durationTicks": 60,
                "midi": 76,
                "name": "E5",
                "ticks": 4440,
                "time": 11.1,
                "velocity": 0.5039370078740157
              },
              {
                "duration": 0.15000000000000036,
                "durationTicks": 60,
                "midi": 77,
                "name": "F5",
                "ticks": 4500,
                "time": 11.25,
                "velocity": 0.5039370078740157
              },
              {
                "duration": 0.14999999999999858,
                "durationTicks": 60,
                "midi": 79,
                "name": "G5",
                "ticks": 4560,
                "time": 11.4,
                "velocity": 0.5039370078740157
              },
              {
                "duration": 0.15000000000000036,
                "durationTicks": 60,
                "midi": 80,
                "name": "G#5",
                "ticks": 4620,
                "time": 11.549999999999999,
                "velocity": 0.5039370078740157
              },
              {
                "duration": 0.15000000000000036,
                "durationTicks": 60,
                "midi": 82,
                "name": "A#5",
                "ticks": 4680,
                "time": 11.7,
                "velocity": 0.5039370078740157
              },
              {
                "duration": 0.15000000000000036,
                "durationTicks": 60,
                "midi": 79,
                "name": "G5",
                "ticks": 4740,
                "time": 11.85,
                "velocity": 0.5039370078740157
              },
              {
                "duration": 0.15000000000000036,
                "durationTicks": 60,
                "midi": 77,
                "name": "F5",
                "ticks": 4800,
                "time": 12,
                "velocity": 0.5039370078740157
              },
              {
                "duration": 0.14999999999999858,
                "durationTicks": 60,
                "midi": 76,
                "name": "E5",
                "ticks": 4860,
                "time": 12.15,
                "velocity": 0.5039370078740157
              },
              {
                "duration": 0.15000000000000036,
                "durationTicks": 60,
                "midi": 77,
                "name": "F5",
                "ticks": 4920,
                "time": 12.299999999999999,
                "velocity": 0.5039370078740157
              },
              {
                "duration": 0.15000000000000036,
                "durationTicks": 60,
                "midi": 76,
                "name": "E5",
                "ticks": 4980,
                "time": 12.45,
                "velocity": 0.5039370078740157
              },
              {
                "duration": 0.3000000000000007,
                "durationTicks": 120,
                "midi": 77,
                "name": "F5",
                "ticks": 5040,
                "time": 12.6,
                "velocity": 0.5039370078740157
              },
              {
                "duration": 0.4499999999999993,
                "durationTicks": 180,
                "midi": 72,
                "name": "C5",
                "ticks": 5160,
                "time": 12.9,
                "velocity": 0.5039370078740157
              },
              {
                "duration": 0.15000000000000036,
                "durationTicks": 60,
                "midi": 70,
                "name": "A#4",
                "ticks": 5340,
                "time": 13.35,
                "velocity": 0.5039370078740157
              },
              {
                "duration": 0.15000000000000036,
                "durationTicks": 60,
                "midi": 68,
                "name": "G#4",
                "ticks": 5400,
                "time": 13.5,
                "velocity": 0.5039370078740157
              },
              {
                "duration": 0.14999999999999858,
                "durationTicks": 60,
                "midi": 67,
                "name": "G4",
                "ticks": 5460,
                "time": 13.65,
                "velocity": 0.5039370078740157
              },
              {
                "duration": 0.15000000000000036,
                "durationTicks": 60,
                "midi": 65,
                "name": "F4",
                "ticks": 5520,
                "time": 13.799999999999999,
                "velocity": 0.5039370078740157
              },
              {
                "duration": 0.15000000000000036,
                "durationTicks": 60,
                "midi": 64,
                "name": "E4",
                "ticks": 5580,
                "time": 13.95,
                "velocity": 0.5039370078740157
              },
              {
                "duration": 0.15000000000000036,
                "durationTicks": 60,
                "midi": 68,
                "name": "G#4",
                "ticks": 5640,
                "time": 14.1,
                "velocity": 0.5039370078740157
              },
              {
                "duration": 0.14999999999999858,
                "durationTicks": 60,
                "midi": 67,
                "name": "G4",
                "ticks": 5700,
                "time": 14.25,
                "velocity": 0.5039370078740157
              },
              {
                "duration": 0.15000000000000036,
                "durationTicks": 60,
                "midi": 72,
                "name": "C5",
                "ticks": 5760,
                "time": 14.399999999999999,
                "velocity": 0.5039370078740157
              },
              {
                "duration": 0.15000000000000036,
                "durationTicks": 60,
                "midi": 70,
                "name": "A#4",
                "ticks": 5820,
                "time": 14.549999999999999,
                "velocity": 0.5039370078740157
              },
              {
                "duration": 0.15000000000000036,
                "durationTicks": 60,
                "midi": 68,
                "name": "G#4",
                "ticks": 5880,
                "time": 14.7,
                "velocity": 0.5039370078740157
              },
              {
                "duration": 0.15000000000000036,
                "durationTicks": 60,
                "midi": 67,
                "name": "G4",
                "ticks": 5940,
                "time": 14.85,
                "velocity": 0.5039370078740157
              },
              {
                "duration": 0.29999999999999893,
                "durationTicks": 120,
                "midi": 68,
                "name": "G#4",
                "ticks": 6000,
                "time": 15,
                "velocity": 0.5039370078740157
              },
              {
                "duration": 0.3000000000000007,
                "durationTicks": 120,
                "midi": 65,
                "name": "F4",
                "ticks": 6120,
                "time": 15.299999999999999,
                "velocity": 0.5039370078740157
              },
              {
                "duration": 0.7249999999999996,
                "durationTicks": 290,
                "midi": 80,
                "name": "G#5",
                "ticks": 6240,
                "time": 15.6,
                "velocity": 0.5039370078740157
              },
              {
                "duration": 0.15000000000000213,
                "durationTicks": 60,
                "midi": 79,
                "name": "G5",
                "ticks": 6540,
                "time": 16.349999999999998,
                "velocity": 0.5039370078740157
              },
              {
                "duration": 0.14999999999999858,
                "durationTicks": 60,
                "midi": 77,
                "name": "F5",
                "ticks": 6600,
                "time": 16.5,
                "velocity": 0.5039370078740157
              },
              {
                "duration": 0.15000000000000213,
                "durationTicks": 60,
                "midi": 76,
                "name": "E5",
                "ticks": 6660,
                "time": 16.65,
                "velocity": 0.5039370078740157
              },
              {
                "duration": 0.29999999999999716,
                "durationTicks": 120,
                "midi": 77,
                "name": "F5",
                "ticks": 6720,
                "time": 16.8,
                "velocity": 0.5039370078740157
              },
              {
                "duration": 0.3000000000000007,
                "durationTicks": 120,
                "midi": 74,
                "name": "D5",
                "ticks": 6840,
                "time": 17.099999999999998,
                "velocity": 0.5039370078740157
              },
              {
                "duration": 0.7250000000000014,
                "durationTicks": 290,
                "midi": 71,
                "name": "B4",
                "ticks": 6960,
                "time": 17.4,
                "velocity": 0.5039370078740157
              },
              {
                "duration": 0.15000000000000213,
                "durationTicks": 60,
                "midi": 72,
                "name": "C5",
                "ticks": 7260,
                "time": 18.15,
                "velocity": 0.5039370078740157
              },
              {
                "duration": 0.14999999999999858,
                "durationTicks": 60,
                "midi": 74,
                "name": "D5",
                "ticks": 7320,
                "time": 18.3,
                "velocity": 0.5039370078740157
              },
              {
                "duration": 0.14999999999999858,
                "durationTicks": 60,
                "midi": 75,
                "name": "D#5",
                "ticks": 7380,
                "time": 18.45,
                "velocity": 0.5039370078740157
              },
              {
                "duration": 0.3000000000000007,
                "durationTicks": 120,
                "midi": 77,
                "name": "F5",
                "ticks": 7440,
                "time": 18.599999999999998,
                "velocity": 0.5039370078740157
              },
              {
                "duration": 0.15000000000000213,
                "durationTicks": 60,
                "midi": 74,
                "name": "D5",
                "ticks": 7560,
                "time": 18.9,
                "velocity": 0.5039370078740157
              },
              {
                "duration": 0.14999999999999858,
                "durationTicks": 60,
                "midi": 71,
                "name": "B4",
                "ticks": 7620,
                "time": 19.05,
                "velocity": 0.5039370078740157
              },
              {
                "duration": 0.3000000000000007,
                "durationTicks": 120,
                "midi": 68,
                "name": "G#4",
                "ticks": 7680,
                "time": 19.2,
                "velocity": 0.5039370078740157
              },
              {
                "duration": 0.4499999999999993,
                "durationTicks": 180,
                "midi": 67,
                "name": "G4",
                "ticks": 7800,
                "time": 19.5,
                "velocity": 0.5039370078740157
              },
              {
                "duration": 0.14999999999999858,
                "durationTicks": 60,
                "midi": 65,
                "name": "F4",
                "ticks": 7980,
                "time": 19.95,
                "velocity": 0.5039370078740157
              },
              {
                "duration": 0.15000000000000213,
                "durationTicks": 60,
                "midi": 63,
                "name": "D#4",
                "ticks": 8040,
                "time": 20.099999999999998,
                "velocity": 0.5039370078740157
              },
              {
                "duration": 0.14999999999999858,
                "durationTicks": 60,
                "midi": 62,
                "name": "D4",
                "ticks": 8100,
                "time": 20.25,
                "velocity": 0.5039370078740157
              },
              {
                "duration": 0.3000000000000007,
                "durationTicks": 120,
                "midi": 63,
                "name": "D#4",
                "ticks": 8160,
                "time": 20.4,
                "velocity": 0.5039370078740157
              },
              {
                "duration": 0.3000000000000007,
                "durationTicks": 120,
                "midi": 60,
                "name": "C4",
                "ticks": 8280,
                "time": 20.7,
                "velocity": 0.5039370078740157
              },
              {
                "duration": 0.7250000000000014,
                "durationTicks": 290,
                "midi": 75,
                "name": "D#5",
                "ticks": 8400,
                "time": 21,
                "velocity": 0.5039370078740157
              },
              {
                "duration": 0.14999999999999858,
                "durationTicks": 60,
                "midi": 74,
                "name": "D5",
                "ticks": 8700,
                "time": 21.75,
                "velocity": 0.5039370078740157
              },
              {
                "duration": 0.15000000000000213,
                "durationTicks": 60,
                "midi": 72,
                "name": "C5",
                "ticks": 8760,
                "time": 21.9,
                "velocity": 0.5039370078740157
              },
              {
                "duration": 0.14999999999999858,
                "durationTicks": 60,
                "midi": 71,
                "name": "B4",
                "ticks": 8820,
                "time": 22.05,
                "velocity": 0.5039370078740157
              },
              {
                "duration": 0.3000000000000007,
                "durationTicks": 120,
                "midi": 72,
                "name": "C5",
                "ticks": 8880,
                "time": 22.2,
                "velocity": 0.5039370078740157
              },
              {
                "duration": 0.3000000000000007,
                "durationTicks": 120,
                "midi": 69,
                "name": "A4",
                "ticks": 9000,
                "time": 22.5,
                "velocity": 0.5039370078740157
              },
              {
                "duration": 0.7250000000000014,
                "durationTicks": 290,
                "midi": 78,
                "name": "F#5",
                "ticks": 9120,
                "time": 22.8,
                "velocity": 0.5039370078740157
              },
              {
                "duration": 0.14999999999999858,
                "durationTicks": 60,
                "midi": 79,
                "name": "G5",
                "ticks": 9420,
                "time": 23.55,
                "velocity": 0.5039370078740157
              },
              {
                "duration": 0.14999999999999858,
                "durationTicks": 60,
                "midi": 81,
                "name": "A5",
                "ticks": 9480,
                "time": 23.7,
                "velocity": 0.5039370078740157
              },
              {
                "duration": 0.15000000000000213,
                "durationTicks": 60,
                "midi": 82,
                "name": "A#5",
                "ticks": 9540,
                "time": 23.849999999999998,
                "velocity": 0.5039370078740157
              },
              {
                "duration": 0.3000000000000007,
                "durationTicks": 120,
                "midi": 84,
                "name": "C6",
                "ticks": 9600,
                "time": 24,
                "velocity": 0.5039370078740157
              },
              {
                "duration": 0.14999999999999858,
                "durationTicks": 60,
                "midi": 81,
                "name": "A5",
                "ticks": 9720,
                "time": 24.3,
                "velocity": 0.5039370078740157
              },
              {
                "duration": 0.14999999999999858,
                "durationTicks": 60,
                "midi": 78,
                "name": "F#5",
                "ticks": 9780,
                "time": 24.45,
                "velocity": 0.5039370078740157
              },
              {
                "duration": 0.3000000000000007,
                "durationTicks": 120,
                "midi": 75,
                "name": "D#5",
                "ticks": 9840,
                "time": 24.599999999999998,
                "velocity": 0.5039370078740157
              },
              {
                "duration": 0.3000000000000007,
                "durationTicks": 120,
                "midi": 74,
                "name": "D5",
                "ticks": 9960,
                "time": 24.9,
                "velocity": 0.5039370078740157
              },
              {
                "duration": 0.8999999999999986,
                "durationTicks": 360,
                "midi": 71,
                "name": "B4",
                "ticks": 10080,
                "time": 25.2,
                "velocity": 0.5039370078740157
              },
              {
                "duration": 0.3000000000000007,
                "durationTicks": 120,
                "midi": 71,
                "name": "B4",
                "ticks": 10440,
                "time": 26.099999999999998,
                "velocity": 0.5039370078740157
              },
              {
                "duration": 0.07499999999999929,
                "durationTicks": 30,
                "midi": 72,
                "name": "C5",
                "ticks": 10560,
                "time": 26.4,
                "velocity": 0.5039370078740157
              },
              {
                "duration": 0.07500000000000284,
                "durationTicks": 30,
                "midi": 71,
                "name": "B4",
                "ticks": 10590,
                "time": 26.474999999999998,
                "velocity": 0.4409448818897638
              },
              {
                "duration": 0.4499999999999993,
                "durationTicks": 180,
                "midi": 72,
                "name": "C5",
                "ticks": 10620,
                "time": 26.55,
                "velocity": 0.5039370078740157
              },
              {
                "duration": 0.07499999999999929,
                "durationTicks": 30,
                "midi": 73,
                "name": "C#5",
                "ticks": 10830,
                "time": 27.075,
                "velocity": 0.5039370078740157
              },
              {
                "duration": 0.07499999999999929,
                "durationTicks": 30,
                "midi": 72,
                "name": "C5",
                "ticks": 10860,
                "time": 27.15,
                "velocity": 0.4409448818897638
              },
              {
                "duration": 0.07500000000000284,
                "durationTicks": 30,
                "midi": 71,
                "name": "B4",
                "ticks": 10890,
                "time": 27.224999999999998,
                "velocity": 0.4566929133858268
              },
              {
                "duration": 0.14999999999999858,
                "durationTicks": 60,
                "midi": 72,
                "name": "C5",
                "ticks": 10920,
                "time": 27.3,
                "velocity": 0.5039370078740157
              },
              {
                "duration": 0.14999999999999858,
                "durationTicks": 60,
                "midi": 74,
                "name": "D5",
                "ticks": 10980,
                "time": 27.45,
                "velocity": 0.5039370078740157
              },
              {
                "duration": 0.07500000000000284,
                "durationTicks": 30,
                "midi": 72,
                "name": "C5",
                "ticks": 11040,
                "time": 27.599999999999998,
                "velocity": 0.5039370078740157
              },
              {
                "duration": 0.08249999999999957,
                "durationTicks": 33,
                "midi": 74,
                "name": "D5",
                "ticks": 11070,
                "time": 27.675,
                "velocity": 0.4409448818897638
              },
              {
                "duration": 0.08249999999999957,
                "durationTicks": 33,
                "midi": 75,
                "name": "D#5",
                "ticks": 11100,
                "time": 27.75,
                "velocity": 0.4409448818897638
              },
              {
                "duration": 0.08250000000000313,
                "durationTicks": 33,
                "midi": 74,
                "name": "D5",
                "ticks": 11130,
                "time": 27.825,
                "velocity": 0.4409448818897638
              },
              {
                "duration": 0.08250000000000313,
                "durationTicks": 33,
                "midi": 75,
                "name": "D#5",
                "ticks": 11160,
                "time": 27.9,
                "velocity": 0.44881889763779526
              },
              {
                "duration": 0.08250000000000313,
                "durationTicks": 33,
                "midi": 74,
                "name": "D5",
                "ticks": 11190,
                "time": 27.974999999999998,
                "velocity": 0.44881889763779526
              },
              {
                "duration": 0.08249999999999957,
                "durationTicks": 33,
                "midi": 75,
                "name": "D#5",
                "ticks": 11220,
                "time": 28.05,
                "velocity": 0.4566929133858268
              },
              {
                "duration": 0.08249999999999957,
                "durationTicks": 33,
                "midi": 74,
                "name": "D5",
                "ticks": 11250,
                "time": 28.125,
                "velocity": 0.4566929133858268
              },
              {
                "duration": 0.08250000000000313,
                "durationTicks": 33,
                "midi": 75,
                "name": "D#5",
                "ticks": 11280,
                "time": 28.2,
                "velocity": 0.4566929133858268
              },
              {
                "duration": 0.08250000000000313,
                "durationTicks": 33,
                "midi": 74,
                "name": "D5",
                "ticks": 11310,
                "time": 28.275,
                "velocity": 0.4645669291338583
              },
              {
                "duration": 0.08250000000000313,
                "durationTicks": 33,
                "midi": 75,
                "name": "D#5",
                "ticks": 11340,
                "time": 28.349999999999998,
                "velocity": 0.4645669291338583
              },
              {
                "duration": 0.08249999999999957,
                "durationTicks": 33,
                "midi": 74,
                "name": "D5",
                "ticks": 11370,
                "time": 28.425,
                "velocity": 0.4645669291338583
              },
              {
                "duration": 0.27500000000000213,
                "durationTicks": 110,
                "midi": 72,
                "name": "C5",
                "ticks": 11400,
                "time": 28.5,
                "velocity": 0.5039370078740157
              },
              {
                "duration": 0.7250000000000014,
                "durationTicks": 290,
                "midi": 72,
                "name": "C5",
                "ticks": 11520,
                "time": 28.799999999999997,
                "velocity": 0.5039370078740157
              },
              {
                "duration": 0.15000000000000213,
                "durationTicks": 60,
                "midi": 74,
                "name": "D5",
                "ticks": 11820,
                "time": 29.549999999999997,
                "velocity": 0.5039370078740157
              },
              {
                "duration": 0.14999999999999858,
                "durationTicks": 60,
                "midi": 75,
                "name": "D#5",
                "ticks": 11880,
                "time": 29.7,
                "velocity": 0.5039370078740157
              },
              {
                "duration": 0.15000000000000213,
                "durationTicks": 60,
                "midi": 74,
                "name": "D5",
                "ticks": 11940,
                "time": 29.849999999999998,
                "velocity": 0.5039370078740157
              },
              {
                "duration": 0.14999999999999858,
                "durationTicks": 60,
                "midi": 72,
                "name": "C5",
                "ticks": 12000,
                "time": 30,
                "velocity": 0.5039370078740157
              },
              {
                "duration": 0.14999999999999858,
                "durationTicks": 60,
                "midi": 70,
                "name": "A#4",
                "ticks": 12060,
                "time": 30.15,
                "velocity": 0.5039370078740157
              },
              {
                "duration": 0.15000000000000213,
                "durationTicks": 60,
                "midi": 68,
                "name": "G#4",
                "ticks": 12120,
                "time": 30.299999999999997,
                "velocity": 0.5039370078740157
              },
              {
                "duration": 0.14999999999999858,
                "durationTicks": 60,
                "midi": 67,
                "name": "G4",
                "ticks": 12180,
                "time": 30.45,
                "velocity": 0.5039370078740157
              },
              {
                "duration": 0.3000000000000007,
                "durationTicks": 120,
                "midi": 65,
                "name": "F4",
                "ticks": 12240,
                "time": 30.599999999999998,
                "velocity": 0.5039370078740157
              },
              {
                "duration": 0.4499999999999993,
                "durationTicks": 180,
                "midi": 74,
                "name": "D5",
                "ticks": 12360,
                "time": 30.9,
                "velocity": 0.5039370078740157
              },
              {
                "duration": 0.15000000000000213,
                "durationTicks": 60,
                "midi": 75,
                "name": "D#5",
                "ticks": 12540,
                "time": 31.349999999999998,
                "velocity": 0.5039370078740157
              },
              {
                "duration": 0.14999999999999858,
                "durationTicks": 60,
                "midi": 77,
                "name": "F5",
                "ticks": 12600,
                "time": 31.5,
                "velocity": 0.5039370078740157
              },
              {
                "duration": 0.14999999999999858,
                "durationTicks": 60,
                "midi": 75,
                "name": "D#5",
                "ticks": 12660,
                "time": 31.65,
                "velocity": 0.5039370078740157
              },
              {
                "duration": 0.15000000000000213,
                "durationTicks": 60,
                "midi": 74,
                "name": "D5",
                "ticks": 12720,
                "time": 31.799999999999997,
                "velocity": 0.5039370078740157
              },
              {
                "duration": 0.15000000000000213,
                "durationTicks": 60,
                "midi": 72,
                "name": "C5",
                "ticks": 12780,
                "time": 31.95,
                "velocity": 0.5039370078740157
              },
              {
                "duration": 0.14999999999999858,
                "durationTicks": 60,
                "midi": 71,
                "name": "B4",
                "ticks": 12840,
                "time": 32.1,
                "velocity": 0.5039370078740157
              },
              {
                "duration": 0.14999999999999858,
                "durationTicks": 60,
                "midi": 69,
                "name": "A4",
                "ticks": 12900,
                "time": 32.25,
                "velocity": 0.5039370078740157
              },
              {
                "duration": 0.14999999999999858,
                "durationTicks": 60,
                "midi": 67,
                "name": "G4",
                "ticks": 12960,
                "time": 32.4,
                "velocity": 0.5039370078740157
              },
              {
                "duration": 0.14999999999999858,
                "durationTicks": 60,
                "midi": 69,
                "name": "A4",
                "ticks": 13020,
                "time": 32.55,
                "velocity": 0.5039370078740157
              },
              {
                "duration": 0.15000000000000568,
                "durationTicks": 60,
                "midi": 71,
                "name": "B4",
                "ticks": 13080,
                "time": 32.699999999999996,
                "velocity": 0.5039370078740157
              },
              {
                "duration": 0.14999999999999858,
                "durationTicks": 60,
                "midi": 72,
                "name": "C5",
                "ticks": 13140,
                "time": 32.85,
                "velocity": 0.5039370078740157
              },
              {
                "duration": 0.14999999999999858,
                "durationTicks": 60,
                "midi": 74,
                "name": "D5",
                "ticks": 13200,
                "time": 33,
                "velocity": 0.5039370078740157
              },
              {
                "duration": 0.14999999999999858,
                "durationTicks": 60,
                "midi": 75,
                "name": "D#5",
                "ticks": 13260,
                "time": 33.15,
                "velocity": 0.5039370078740157
              },
              {
                "duration": 0.14999999999999858,
                "durationTicks": 60,
                "midi": 77,
                "name": "F5",
                "ticks": 13320,
                "time": 33.3,
                "velocity": 0.5039370078740157
              },
              {
                "duration": 0.15000000000000568,
                "durationTicks": 60,
                "midi": 74,
                "name": "D5",
                "ticks": 13380,
                "time": 33.449999999999996,
                "velocity": 0.5039370078740157
              },
              {
                "duration": 0.14999999999999858,
                "durationTicks": 60,
                "midi": 72,
                "name": "C5",
                "ticks": 13440,
                "time": 33.6,
                "velocity": 0.5039370078740157
              },
              {
                "duration": 0.14999999999999858,
                "durationTicks": 60,
                "midi": 71,
                "name": "B4",
                "ticks": 13500,
                "time": 33.75,
                "velocity": 0.5039370078740157
              },
              {
                "duration": 0.14999999999999858,
                "durationTicks": 60,
                "midi": 72,
                "name": "C5",
                "ticks": 13560,
                "time": 33.9,
                "velocity": 0.5039370078740157
              },
              {
                "duration": 0.14999999999999858,
                "durationTicks": 60,
                "midi": 71,
                "name": "B4",
                "ticks": 13620,
                "time": 34.05,
                "velocity": 0.5039370078740157
              },
              {
                "duration": 0.7250000000000014,
                "durationTicks": 290,
                "midi": 79,
                "name": "G5",
                "ticks": 13680,
                "time": 34.199999999999996,
                "velocity": 0.5039370078740157
              },
              {
                "duration": 0.15000000000000568,
                "durationTicks": 60,
                "midi": 77,
                "name": "F5",
                "ticks": 13980,
                "time": 34.949999999999996,
                "velocity": 0.5039370078740157
              },
              {
                "duration": 0.14999999999999858,
                "durationTicks": 60,
                "midi": 75,
                "name": "D#5",
                "ticks": 14040,
                "time": 35.1,
                "velocity": 0.5039370078740157
              },
              {
                "duration": 0.14999999999999858,
                "durationTicks": 60,
                "midi": 74,
                "name": "D5",
                "ticks": 14100,
                "time": 35.25,
                "velocity": 0.5039370078740157
              },
              {
                "duration": 0.7250000000000014,
                "durationTicks": 290,
                "midi": 72,
                "name": "C5",
                "ticks": 14160,
                "time": 35.4,
                "velocity": 0.5039370078740157
              },
              {
                "duration": 0.14999999999999858,
                "durationTicks": 60,
                "midi": 70,
                "name": "A#4",
                "ticks": 14460,
                "time": 36.15,
                "velocity": 0.5039370078740157
              },
              {
                "duration": 0.14999999999999858,
                "durationTicks": 60,
                "midi": 69,
                "name": "A4",
                "ticks": 14520,
                "time": 36.3,
                "velocity": 0.5039370078740157
              },
              {
                "duration": 0.15000000000000568,
                "durationTicks": 60,
                "midi": 67,
                "name": "G4",
                "ticks": 14580,
                "time": 36.449999999999996,
                "velocity": 0.5039370078740157
              },
              {
                "duration": 0.29999999999999716,
                "durationTicks": 120,
                "midi": 69,
                "name": "A4",
                "ticks": 14640,
                "time": 36.6,
                "velocity": 0.5039370078740157
              },
              {
                "duration": 0.29999999999999716,
                "durationTicks": 120,
                "midi": 65,
                "name": "F4",
                "ticks": 14760,
                "time": 36.9,
                "velocity": 0.5039370078740157
              },
              {
                "duration": 0.7250000000000014,
                "durationTicks": 290,
                "midi": 75,
                "name": "D#5",
                "ticks": 14880,
                "time": 37.199999999999996,
                "velocity": 0.5039370078740157
              },
              {
                "duration": 0.15000000000000568,
                "durationTicks": 60,
                "midi": 73,
                "name": "C#5",
                "ticks": 15180,
                "time": 37.949999999999996,
                "velocity": 0.5039370078740157
              },
              {
                "duration": 0.14999999999999858,
                "durationTicks": 60,
                "midi": 72,
                "name": "C5",
                "ticks": 15240,
                "time": 38.1,
                "velocity": 0.5039370078740157
              },
              {
                "duration": 0.14999999999999858,
                "durationTicks": 60,
                "midi": 73,
                "name": "C#5",
                "ticks": 15300,
                "time": 38.25,
                "velocity": 0.5039370078740157
              },
              {
                "duration": 0.14999999999999858,
                "durationTicks": 60,
                "midi": 75,
                "name": "D#5",
                "ticks": 15360,
                "time": 38.4,
                "velocity": 0.5039370078740157
              },
              {
                "duration": 0.14999999999999858,
                "durationTicks": 60,
                "midi": 78,
                "name": "F#5",
                "ticks": 15420,
                "time": 38.55,
                "velocity": 0.5039370078740157
              },
              {
                "duration": 0.15000000000000568,
                "durationTicks": 60,
                "midi": 77,
                "name": "F5",
                "ticks": 15480,
                "time": 38.699999999999996,
                "velocity": 0.5039370078740157
              },
              {
                "duration": 0.14999999999999858,
                "durationTicks": 60,
                "midi": 75,
                "name": "D#5",
                "ticks": 15540,
                "time": 38.85,
                "velocity": 0.5039370078740157
              },
              {
                "duration": 0.14999999999999858,
                "durationTicks": 60,
                "midi": 73,
                "name": "C#5",
                "ticks": 15600,
                "time": 39,
                "velocity": 0.5039370078740157
              },
              {
                "duration": 0.14999999999999858,
                "durationTicks": 60,
                "midi": 72,
                "name": "C5",
                "ticks": 15660,
                "time": 39.15,
                "velocity": 0.5039370078740157
              },
              {
                "duration": 0.14999999999999858,
                "durationTicks": 60,
                "midi": 70,
                "name": "A#4",
                "ticks": 15720,
                "time": 39.3,
                "velocity": 0.5039370078740157
              },
              {
                "duration": 0.15000000000000568,
                "durationTicks": 60,
                "midi": 68,
                "name": "G#4",
                "ticks": 15780,
                "time": 39.449999999999996,
                "velocity": 0.5039370078740157
              },
              {
                "duration": 0.29999999999999716,
                "durationTicks": 120,
                "midi": 67,
                "name": "G4",
                "ticks": 15840,
                "time": 39.6,
                "velocity": 0.5039370078740157
              },
              {
                "duration": 0.45000000000000284,
                "durationTicks": 180,
                "midi": 82,
                "name": "A#5",
                "ticks": 15960,
                "time": 39.9,
                "velocity": 0.5039370078740157
              },
              {
                "duration": 0.14999999999999858,
                "durationTicks": 60,
                "midi": 80,
                "name": "G#5",
                "ticks": 16140,
                "time": 40.35,
                "velocity": 0.5039370078740157
              },
              {
                "duration": 0.14999999999999858,
                "durationTicks": 60,
                "midi": 79,
                "name": "G5",
                "ticks": 16200,
                "time": 40.5,
                "velocity": 0.5039370078740157
              },
              {
                "duration": 0.14999999999999858,
                "durationTicks": 60,
                "midi": 77,
                "name": "F5",
                "ticks": 16260,
                "time": 40.65,
                "velocity": 0.5039370078740157
              },
              {
                "duration": 0.14999999999999858,
                "durationTicks": 60,
                "midi": 75,
                "name": "D#5",
                "ticks": 16320,
                "time": 40.8,
                "velocity": 0.5039370078740157
              },
              {
                "duration": 0.15000000000000568,
                "durationTicks": 60,
                "midi": 73,
                "name": "C#5",
                "ticks": 16380,
                "time": 40.949999999999996,
                "velocity": 0.5039370078740157
              },
              {
                "duration": 0.14999999999999858,
                "durationTicks": 60,
                "midi": 72,
                "name": "C5",
                "ticks": 16440,
                "time": 41.1,
                "velocity": 0.5039370078740157
              },
              {
                "duration": 0.14999999999999858,
                "durationTicks": 60,
                "midi": 70,
                "name": "A#4",
                "ticks": 16500,
                "time": 41.25,
                "velocity": 0.5039370078740157
              },
              {
                "duration": 0.29999999999999716,
                "durationTicks": 120,
                "midi": 68,
                "name": "G#4",
                "ticks": 16560,
                "time": 41.4,
                "velocity": 0.5039370078740157
              },
              {
                "duration": 0.30000000000000426,
                "durationTicks": 120,
                "midi": 72,
                "name": "C5",
                "ticks": 16680,
                "time": 41.699999999999996,
                "velocity": 0.5039370078740157
              },
              {
                "duration": 0.29999999999999716,
                "durationTicks": 120,
                "midi": 75,
                "name": "D#5",
                "ticks": 16800,
                "time": 42,
                "velocity": 0.5039370078740157
              },
              {
                "duration": 0.30000000000000426,
                "durationTicks": 120,
                "midi": 79,
                "name": "G5",
                "ticks": 16920,
                "time": 42.3,
                "velocity": 0.5039370078740157
              },
              {
                "duration": 0.7249999999999943,
                "durationTicks": 290,
                "midi": 80,
                "name": "G#5",
                "ticks": 17040,
                "time": 42.6,
                "velocity": 0.5039370078740157
              },
              {
                "duration": 0.14999999999999858,
                "durationTicks": 60,
                "midi": 79,
                "name": "G5",
                "ticks": 17340,
                "time": 43.35,
                "velocity": 0.5039370078740157
              },
              {
                "duration": 0.14999999999999858,
                "durationTicks": 60,
                "midi": 77,
                "name": "F5",
                "ticks": 17400,
                "time": 43.5,
                "velocity": 0.5039370078740157
              },
              {
                "duration": 0.14999999999999858,
                "durationTicks": 60,
                "midi": 75,
                "name": "D#5",
                "ticks": 17460,
                "time": 43.65,
                "velocity": 0.5039370078740157
              },
              {
                "duration": 0.14999999999999858,
                "durationTicks": 60,
                "midi": 73,
                "name": "C#5",
                "ticks": 17520,
                "time": 43.8,
                "velocity": 0.5039370078740157
              },
              {
                "duration": 0.15000000000000568,
                "durationTicks": 60,
                "midi": 70,
                "name": "A#4",
                "ticks": 17580,
                "time": 43.949999999999996,
                "velocity": 0.5039370078740157
              },
              {
                "duration": 0.29999999999999716,
                "durationTicks": 120,
                "midi": 80,
                "name": "G#5",
                "ticks": 17640,
                "time": 44.1,
                "velocity": 0.5039370078740157
              },
              {
                "duration": 0.7249999999999943,
                "durationTicks": 290,
                "midi": 79,
                "name": "G5",
                "ticks": 17760,
                "time": 44.4,
                "velocity": 0.5039370078740157
              },
              {
                "duration": 0.14999999999999858,
                "durationTicks": 60,
                "midi": 77,
                "name": "F5",
                "ticks": 18060,
                "time": 45.15,
                "velocity": 0.5039370078740157
              },
              {
                "duration": 0.14999999999999858,
                "durationTicks": 60,
                "midi": 75,
                "name": "D#5",
                "ticks": 18120,
                "time": 45.3,
                "velocity": 0.5039370078740157
              },
              {
                "duration": 0.15000000000000568,
                "durationTicks": 60,
                "midi": 73,
                "name": "C#5",
                "ticks": 18180,
                "time": 45.449999999999996,
                "velocity": 0.5039370078740157
              },
              {
                "duration": 0.14999999999999858,
                "durationTicks": 60,
                "midi": 72,
                "name": "C5",
                "ticks": 18240,
                "time": 45.6,
                "velocity": 0.5039370078740157
              },
              {
                "duration": 0.14999999999999858,
                "durationTicks": 60,
                "midi": 68,
                "name": "G#4",
                "ticks": 18300,
                "time": 45.75,
                "velocity": 0.5039370078740157
              },
              {
                "duration": 0.29999999999999716,
                "durationTicks": 120,
                "midi": 78,
                "name": "F#5",
                "ticks": 18360,
                "time": 45.9,
                "velocity": 0.5039370078740157
              },
              {
                "duration": 0.7250000000000014,
                "durationTicks": 290,
                "midi": 77,
                "name": "F5",
                "ticks": 18480,
                "time": 46.199999999999996,
                "velocity": 0.5039370078740157
              },
              {
                "duration": 0.15000000000000568,
                "durationTicks": 60,
                "midi": 75,
                "name": "D#5",
                "ticks": 18780,
                "time": 46.949999999999996,
                "velocity": 0.5039370078740157
              },
              {
                "duration": 0.14999999999999858,
                "durationTicks": 60,
                "midi": 73,
                "name": "C#5",
                "ticks": 18840,
                "time": 47.1,
                "velocity": 0.5039370078740157
              },
              {
                "duration": 0.14999999999999858,
                "durationTicks": 60,
                "midi": 72,
                "name": "C5",
                "ticks": 18900,
                "time": 47.25,
                "velocity": 0.5039370078740157
              },
              {
                "duration": 0.14999999999999858,
                "durationTicks": 60,
                "midi": 70,
                "name": "A#4",
                "ticks": 18960,
                "time": 47.4,
                "velocity": 0.5039370078740157
              },
              {
                "duration": 0.14999999999999858,
                "durationTicks": 60,
                "midi": 68,
                "name": "G#4",
                "ticks": 19020,
                "time": 47.55,
                "velocity": 0.5039370078740157
              },
              {
                "duration": 0.15000000000000568,
                "durationTicks": 60,
                "midi": 67,
                "name": "G4",
                "ticks": 19080,
                "time": 47.699999999999996,
                "velocity": 0.5039370078740157
              },
              {
                "duration": 0.14999999999999858,
                "durationTicks": 60,
                "midi": 68,
                "name": "G#4",
                "ticks": 19140,
                "time": 47.85,
                "velocity": 0.5039370078740157
              },
              {
                "duration": 0.7249999999999943,
                "durationTicks": 290,
                "midi": 70,
                "name": "A#4",
                "ticks": 19200,
                "time": 48,
                "velocity": 0.5039370078740157
              },
              {
                "duration": 0.14999999999999858,
                "durationTicks": 60,
                "midi": 68,
                "name": "G#4",
                "ticks": 19500,
                "time": 48.75,
                "velocity": 0.5039370078740157
              },
              {
                "duration": 0.14999999999999858,
                "durationTicks": 60,
                "midi": 67,
                "name": "G4",
                "ticks": 19560,
                "time": 48.9,
                "velocity": 0.5039370078740157
              },
              {
                "duration": 0.14999999999999858,
                "durationTicks": 60,
                "midi": 65,
                "name": "F4",
                "ticks": 19620,
                "time": 49.05,
                "velocity": 0.5039370078740157
              },
              {
                "duration": 0.15000000000000568,
                "durationTicks": 60,
                "midi": 64,
                "name": "E4",
                "ticks": 19680,
                "time": 49.199999999999996,
                "velocity": 0.5039370078740157
              },
              {
                "duration": 0.14999999999999858,
                "durationTicks": 60,
                "midi": 65,
                "name": "F4",
                "ticks": 19740,
                "time": 49.35,
                "velocity": 0.5039370078740157
              },
              {
                "duration": 0.14999999999999858,
                "durationTicks": 60,
                "midi": 67,
                "name": "G4",
                "ticks": 19800,
                "time": 49.5,
                "velocity": 0.5039370078740157
              },
              {
                "duration": 0.14999999999999858,
                "durationTicks": 60,
                "midi": 68,
                "name": "G#4",
                "ticks": 19860,
                "time": 49.65,
                "velocity": 0.5039370078740157
              },
              {
                "duration": 0.14999999999999858,
                "durationTicks": 60,
                "midi": 70,
                "name": "A#4",
                "ticks": 19920,
                "time": 49.8,
                "velocity": 0.5039370078740157
              },
              {
                "duration": 0.15000000000000568,
                "durationTicks": 60,
                "midi": 72,
                "name": "C5",
                "ticks": 19980,
                "time": 49.949999999999996,
                "velocity": 0.5039370078740157
              },
              {
                "duration": 0.14999999999999858,
                "durationTicks": 60,
                "midi": 73,
                "name": "C#5",
                "ticks": 20040,
                "time": 50.1,
                "velocity": 0.5039370078740157
              },
              {
                "duration": 0.14999999999999858,
                "durationTicks": 60,
                "midi": 70,
                "name": "A#4",
                "ticks": 20100,
                "time": 50.25,
                "velocity": 0.5039370078740157
              },
              {
                "duration": 0.14999999999999858,
                "durationTicks": 60,
                "midi": 72,
                "name": "C5",
                "ticks": 20160,
                "time": 50.4,
                "velocity": 0.5039370078740157
              },
              {
                "duration": 0.14999999999999858,
                "durationTicks": 60,
                "midi": 70,
                "name": "A#4",
                "ticks": 20220,
                "time": 50.55,
                "velocity": 0.5039370078740157
              },
              {
                "duration": 0.15000000000000568,
                "durationTicks": 60,
                "midi": 68,
                "name": "G#4",
                "ticks": 20280,
                "time": 50.699999999999996,
                "velocity": 0.5039370078740157
              },
              {
                "duration": 0.14999999999999858,
                "durationTicks": 60,
                "midi": 67,
                "name": "G4",
                "ticks": 20340,
                "time": 50.85,
                "velocity": 0.5039370078740157
              },
              {
                "duration": 0.29999999999999716,
                "durationTicks": 120,
                "midi": 68,
                "name": "G#4",
                "ticks": 20400,
                "time": 51,
                "velocity": 0.5039370078740157
              },
              {
                "duration": 0.30000000000000426,
                "durationTicks": 120,
                "midi": 65,
                "name": "F4",
                "ticks": 20520,
                "time": 51.3,
                "velocity": 0.5039370078740157
              },
              {
                "duration": 0.7249999999999943,
                "durationTicks": 290,
                "midi": 73,
                "name": "C#5",
                "ticks": 20640,
                "time": 51.6,
                "velocity": 0.5039370078740157
              },
              {
                "duration": 0.14999999999999858,
                "durationTicks": 60,
                "midi": 72,
                "name": "C5",
                "ticks": 20940,
                "time": 52.35,
                "velocity": 0.5039370078740157
              },
              {
                "duration": 0.14999999999999858,
                "durationTicks": 60,
                "midi": 70,
                "name": "A#4",
                "ticks": 21000,
                "time": 52.5,
                "velocity": 0.5039370078740157
              },
              {
                "duration": 0.14999999999999858,
                "durationTicks": 60,
                "midi": 69,
                "name": "A4",
                "ticks": 21060,
                "time": 52.65,
                "velocity": 0.5039370078740157
              },
              {
                "duration": 0.30000000000000426,
                "durationTicks": 120,
                "midi": 70,
                "name": "A#4",
                "ticks": 21120,
                "time": 52.8,
                "velocity": 0.5039370078740157
              },
              {
                "duration": 0.29999999999999716,
                "durationTicks": 120,
                "midi": 67,
                "name": "G4",
                "ticks": 21240,
                "time": 53.1,
                "velocity": 0.5039370078740157
              },
              {
                "duration": 0.7249999999999943,
                "durationTicks": 290,
                "midi": 76,
                "name": "E5",
                "ticks": 21360,
                "time": 53.4,
                "velocity": 0.5039370078740157
              },
              {
                "duration": 0.14999999999999858,
                "durationTicks": 60,
                "midi": 77,
                "name": "F5",
                "ticks": 21660,
                "time": 54.15,
                "velocity": 0.5039370078740157
              },
              {
                "duration": 0.14999999999999858,
                "durationTicks": 60,
                "midi": 79,
                "name": "G5",
                "ticks": 21720,
                "time": 54.3,
                "velocity": 0.5039370078740157
              },
              {
                "duration": 0.15000000000000568,
                "durationTicks": 60,
                "midi": 80,
                "name": "G#5",
                "ticks": 21780,
                "time": 54.449999999999996,
                "velocity": 0.5039370078740157
              },
              {
                "duration": 0.29999999999999716,
                "durationTicks": 120,
                "midi": 82,
                "name": "A#5",
                "ticks": 21840,
                "time": 54.6,
                "velocity": 0.5039370078740157
              },
              {
                "duration": 0.14999999999999858,
                "durationTicks": 60,
                "midi": 79,
                "name": "G5",
                "ticks": 21960,
                "time": 54.9,
                "velocity": 0.5039370078740157
              },
              {
                "duration": 0.14999999999999858,
                "durationTicks": 60,
                "midi": 76,
                "name": "E5",
                "ticks": 22020,
                "time": 55.05,
                "velocity": 0.5039370078740157
              },
              {
                "duration": 0.30000000000000426,
                "durationTicks": 120,
                "midi": 73,
                "name": "C#5",
                "ticks": 22080,
                "time": 55.199999999999996,
                "velocity": 0.5039370078740157
              },
              {
                "duration": 0.29999999999999716,
                "durationTicks": 120,
                "midi": 72,
                "name": "C5",
                "ticks": 22200,
                "time": 55.5,
                "velocity": 0.5039370078740157
              },
              {
                "duration": 0.14999999999999858,
                "durationTicks": 60,
                "midi": 70,
                "name": "A#4",
                "ticks": 22320,
                "time": 55.8,
                "velocity": 0.5039370078740157
              },
              {
                "duration": 0.15000000000000568,
                "durationTicks": 60,
                "midi": 68,
                "name": "G#4",
                "ticks": 22380,
                "time": 55.949999999999996,
                "velocity": 0.5039370078740157
              },
              {
                "duration": 0.14999999999999858,
                "durationTicks": 60,
                "midi": 67,
                "name": "G4",
                "ticks": 22440,
                "time": 56.1,
                "velocity": 0.5039370078740157
              },
              {
                "duration": 0.14999999999999858,
                "durationTicks": 60,
                "midi": 68,
                "name": "G#4",
                "ticks": 22500,
                "time": 56.25,
                "velocity": 0.5039370078740157
              },
              {
                "duration": 0.14999999999999858,
                "durationTicks": 60,
                "midi": 70,
                "name": "A#4",
                "ticks": 22560,
                "time": 56.4,
                "velocity": 0.5039370078740157
              },
              {
                "duration": 0.14999999999999858,
                "durationTicks": 60,
                "midi": 73,
                "name": "C#5",
                "ticks": 22620,
                "time": 56.55,
                "velocity": 0.5039370078740157
              },
              {
                "duration": 0.15000000000000568,
                "durationTicks": 60,
                "midi": 72,
                "name": "C5",
                "ticks": 22680,
                "time": 56.699999999999996,
                "velocity": 0.5039370078740157
              },
              {
                "duration": 0.14999999999999858,
                "durationTicks": 60,
                "midi": 70,
                "name": "A#4",
                "ticks": 22740,
                "time": 56.85,
                "velocity": 0.5039370078740157
              },
              {
                "duration": 0.14999999999999858,
                "durationTicks": 60,
                "midi": 68,
                "name": "G#4",
                "ticks": 22800,
                "time": 57,
                "velocity": 0.5039370078740157
              },
              {
                "duration": 0.14999999999999858,
                "durationTicks": 60,
                "midi": 67,
                "name": "G4",
                "ticks": 22860,
                "time": 57.15,
                "velocity": 0.5039370078740157
              },
              {
                "duration": 0.14999999999999858,
                "durationTicks": 60,
                "midi": 65,
                "name": "F4",
                "ticks": 22920,
                "time": 57.3,
                "velocity": 0.5039370078740157
              },
              {
                "duration": 0.14999999999999858,
                "durationTicks": 60,
                "midi": 64,
                "name": "E4",
                "ticks": 22980,
                "time": 57.449999999999996,
                "velocity": 0.5039370078740157
              },
              {
                "duration": 0.45000000000000284,
                "durationTicks": 180,
                "midi": 72,
                "name": "C5",
                "ticks": 23040,
                "time": 57.599999999999994,
                "velocity": 0.5039370078740157
              },
              {
                "duration": 0.14999999999999858,
                "durationTicks": 60,
                "midi": 73,
                "name": "C#5",
                "ticks": 23220,
                "time": 58.05,
                "velocity": 0.5039370078740157
              },
              {
                "duration": 0.08250000000000313,
                "durationTicks": 33,
                "midi": 67,
                "name": "G4",
                "ticks": 23280,
                "time": 58.199999999999996,
                "velocity": 0.4409448818897638
              },
              {
                "duration": 0.08250000000000313,
                "durationTicks": 33,
                "midi": 68,
                "name": "G#4",
                "ticks": 23310,
                "time": 58.275,
                "velocity": 0.4409448818897638
              },
              {
                "duration": 0.08250000000000313,
                "durationTicks": 33,
                "midi": 67,
                "name": "G4",
                "ticks": 23340,
                "time": 58.349999999999994,
                "velocity": 0.4409448818897638
              },
              {
                "duration": 0.08250000000000313,
                "durationTicks": 33,
                "midi": 68,
                "name": "G#4",
                "ticks": 23370,
                "time": 58.425,
                "velocity": 0.44881889763779526
              },
              {
                "duration": 0.08249999999999602,
                "durationTicks": 33,
                "midi": 67,
                "name": "G4",
                "ticks": 23400,
                "time": 58.5,
                "velocity": 0.44881889763779526
              },
              {
                "duration": 0.08250000000000313,
                "durationTicks": 33,
                "midi": 68,
                "name": "G#4",
                "ticks": 23430,
                "time": 58.574999999999996,
                "velocity": 0.4566929133858268
              },
              {
                "duration": 0.08250000000000313,
                "durationTicks": 33,
                "midi": 67,
                "name": "G4",
                "ticks": 23460,
                "time": 58.65,
                "velocity": 0.4566929133858268
              },
              {
                "duration": 0.08250000000000313,
                "durationTicks": 33,
                "midi": 68,
                "name": "G#4",
                "ticks": 23490,
                "time": 58.724999999999994,
                "velocity": 0.4566929133858268
              },
              {
                "duration": 0.3299999999999983,
                "durationTicks": 132,
                "midi": 67,
                "name": "G4",
                "ticks": 23520,
                "time": 58.8,
                "velocity": 0.4645669291338583
              },
              {
                "duration": 0.2749999999999986,
                "durationTicks": 110,
                "midi": 65,
                "name": "F4",
                "ticks": 23640,
                "time": 59.099999999999994,
                "velocity": 0.5039370078740157
              },
              {
                "duration": 1.7999999999999972,
                "durationTicks": 720,
                "midi": 65,
                "name": "F4",
                "ticks": 23760,
                "time": 59.4,
                "velocity": 0.5039370078740157
              }
            ],
            "endOfTrackTicks": 24480
          },
          {
            "channel": 1,
            "controlChanges": {},
            "pitchBends": [],
            "instrument": {
              "family": "piano",
              "number": 0,
              "name": "acoustic grand piano"
            },
            "name": "",
            "notes": [
              {
                "duration": 0.3,
                "durationTicks": 120,
                "midi": 41,
                "name": "F2",
                "ticks": 0,
                "time": 0,
                "velocity": 0.5039370078740157
              },
              {
                "duration": 0.45,
                "durationTicks": 180,
                "midi": 53,
                "name": "F3",
                "ticks": 120,
                "time": 0.3,
                "velocity": 0.5039370078740157
              },
              {
                "duration": 0.1499999999999999,
                "durationTicks": 60,
                "midi": 55,
                "name": "G3",
                "ticks": 300,
                "time": 0.75,
                "velocity": 0.5039370078740157
              },
              {
                "duration": 0.15000000000000013,
                "durationTicks": 60,
                "midi": 56,
                "name": "G#3",
                "ticks": 360,
                "time": 0.8999999999999999,
                "velocity": 0.5039370078740157
              },
              {
                "duration": 0.1499999999999999,
                "durationTicks": 60,
                "midi": 55,
                "name": "G3",
                "ticks": 420,
                "time": 1.05,
                "velocity": 0.5039370078740157
              },
              {
                "duration": 0.1499999999999999,
                "durationTicks": 60,
                "midi": 53,
                "name": "F3",
                "ticks": 480,
                "time": 1.2,
                "velocity": 0.5039370078740157
              },
              {
                "duration": 0.15000000000000013,
                "durationTicks": 60,
                "midi": 51,
                "name": "D#3",
                "ticks": 540,
                "time": 1.3499999999999999,
                "velocity": 0.5039370078740157
              },
              {
                "duration": 0.1499999999999999,
                "durationTicks": 60,
                "midi": 49,
                "name": "C#3",
                "ticks": 600,
                "time": 1.5,
                "velocity": 0.5039370078740157
              },
              {
                "duration": 0.1499999999999999,
                "durationTicks": 60,
                "midi": 48,
                "name": "C3",
                "ticks": 660,
                "time": 1.65,
                "velocity": 0.5039370078740157
              },
              {
                "duration": 0.30000000000000027,
                "durationTicks": 120,
                "midi": 46,
                "name": "A#2",
                "ticks": 720,
                "time": 1.7999999999999998,
                "velocity": 0.5039370078740157
              },
              {
                "duration": 0.44999999999999973,
                "durationTicks": 180,
                "midi": 55,
                "name": "G3",
                "ticks": 840,
                "time": 2.1,
                "velocity": 0.5039370078740157
              },
              {
                "duration": 0.1499999999999999,
                "durationTicks": 60,
                "midi": 56,
                "name": "G#3",
                "ticks": 1020,
                "time": 2.55,
                "velocity": 0.5039370078740157
              },
              {
                "duration": 0.15000000000000036,
                "durationTicks": 60,
                "midi": 58,
                "name": "A#3",
                "ticks": 1080,
                "time": 2.6999999999999997,
                "velocity": 0.5039370078740157
              },
              {
                "duration": 0.1499999999999999,
                "durationTicks": 60,
                "midi": 56,
                "name": "G#3",
                "ticks": 1140,
                "time": 2.85,
                "velocity": 0.5039370078740157
              },
              {
                "duration": 0.1499999999999999,
                "durationTicks": 60,
                "midi": 55,
                "name": "G3",
                "ticks": 1200,
                "time": 3,
                "velocity": 0.5039370078740157
              },
              {
                "duration": 0.1499999999999999,
                "durationTicks": 60,
                "midi": 53,
                "name": "F3",
                "ticks": 1260,
                "time": 3.15,
                "velocity": 0.5039370078740157
              },
              {
                "duration": 0.1499999999999999,
                "durationTicks": 60,
                "midi": 52,
                "name": "E3",
                "ticks": 1320,
                "time": 3.3,
                "velocity": 0.5039370078740157
              },
              {
                "duration": 0.1499999999999999,
                "durationTicks": 60,
                "midi": 50,
                "name": "D3",
                "ticks": 1380,
                "time": 3.4499999999999997,
                "velocity": 0.5039370078740157
              },
              {
                "duration": 0.15000000000000036,
                "durationTicks": 60,
                "midi": 48,
                "name": "C3",
                "ticks": 1440,
                "time": 3.5999999999999996,
                "velocity": 0.5039370078740157
              },
              {
                "duration": 0.1499999999999999,
                "durationTicks": 60,
                "midi": 50,
                "name": "D3",
                "ticks": 1500,
                "time": 3.75,
                "velocity": 0.5039370078740157
              },
              {
                "duration": 0.1499999999999999,
                "durationTicks": 60,
                "midi": 52,
                "name": "E3",
                "ticks": 1560,
                "time": 3.9,
                "velocity": 0.5039370078740157
              },
              {
                "duration": 0.15000000000000036,
                "durationTicks": 60,
                "midi": 53,
                "name": "F3",
                "ticks": 1620,
                "time": 4.05,
                "velocity": 0.5039370078740157
              },
              {
                "duration": 0.14999999999999947,
                "durationTicks": 60,
                "midi": 55,
                "name": "G3",
                "ticks": 1680,
                "time": 4.2,
                "velocity": 0.5039370078740157
              },
              {
                "duration": 0.15000000000000036,
                "durationTicks": 60,
                "midi": 56,
                "name": "G#3",
                "ticks": 1740,
                "time": 4.35,
                "velocity": 0.5039370078740157
              },
              {
                "duration": 0.14999999999999947,
                "durationTicks": 60,
                "midi": 58,
                "name": "A#3",
                "ticks": 1800,
                "time": 4.5,
                "velocity": 0.5039370078740157
              },
              {
                "duration": 0.15000000000000036,
                "durationTicks": 60,
                "midi": 55,
                "name": "G3",
                "ticks": 1860,
                "time": 4.6499999999999995,
                "velocity": 0.5039370078740157
              },
              {
                "duration": 0.15000000000000036,
                "durationTicks": 60,
                "midi": 53,
                "name": "F3",
                "ticks": 1920,
                "time": 4.8,
                "velocity": 0.5039370078740157
              },
              {
                "duration": 0.14999999999999947,
                "durationTicks": 60,
                "midi": 52,
                "name": "E3",
                "ticks": 1980,
                "time": 4.95,
                "velocity": 0.5039370078740157
              },
              {
                "duration": 0.15000000000000036,
                "durationTicks": 60,
                "midi": 53,
                "name": "F3",
                "ticks": 2040,
                "time": 5.1,
                "velocity": 0.5039370078740157
              },
              {
                "duration": 0.14999999999999947,
                "durationTicks": 60,
                "midi": 52,
                "name": "E3",
                "ticks": 2100,
                "time": 5.25,
                "velocity": 0.5039370078740157
              },
              {
                "duration": 0.7250000000000005,
                "durationTicks": 290,
                "midi": 53,
                "name": "F3",
                "ticks": 2160,
                "time": 5.3999999999999995,
                "velocity": 0.5039370078740157
              },
              {
                "duration": 0.15000000000000036,
                "durationTicks": 60,
                "midi": 48,
                "name": "C3",
                "ticks": 2460,
                "time": 6.1499999999999995,
                "velocity": 0.5039370078740157
              },
              {
                "duration": 0.15000000000000036,
                "durationTicks": 60,
                "midi": 50,
                "name": "D3",
                "ticks": 2520,
                "time": 6.3,
                "velocity": 0.5039370078740157
              },
              {
                "duration": 0.14999999999999947,
                "durationTicks": 60,
                "midi": 52,
                "name": "E3",
                "ticks": 2580,
                "time": 6.45,
                "velocity": 0.5039370078740157
              },
              {
                "duration": 0.15000000000000036,
                "durationTicks": 60,
                "midi": 53,
                "name": "F3",
                "ticks": 2640,
                "time": 6.6,
                "velocity": 0.5039370078740157
              },
              {
                "duration": 0.14999999999999947,
                "durationTicks": 60,
                "midi": 55,
                "name": "G3",
                "ticks": 2700,
                "time": 6.75,
                "velocity": 0.5039370078740157
              },
              {
                "duration": 0.15000000000000036,
                "durationTicks": 60,
                "midi": 56,
                "name": "G#3",
                "ticks": 2760,
                "time": 6.8999999999999995,
                "velocity": 0.5039370078740157
              },
              {
                "duration": 0.14999999999999947,
                "durationTicks": 60,
                "midi": 58,
                "name": "A#3",
                "ticks": 2820,
                "time": 7.05,
                "velocity": 0.5039370078740157
              },
              {
                "duration": 0.15000000000000036,
                "durationTicks": 60,
                "midi": 60,
                "name": "C4",
                "ticks": 2880,
                "time": 7.199999999999999,
                "velocity": 0.5039370078740157
              },
              {
                "duration": 0.15000000000000036,
                "durationTicks": 60,
                "midi": 58,
                "name": "A#3",
                "ticks": 2940,
                "time": 7.35,
                "velocity": 0.5039370078740157
              },
              {
                "duration": 0.14999999999999947,
                "durationTicks": 60,
                "midi": 56,
                "name": "G#3",
                "ticks": 3000,
                "time": 7.5,
                "velocity": 0.5039370078740157
              },
              {
                "duration": 0.15000000000000036,
                "durationTicks": 60,
                "midi": 55,
                "name": "G3",
                "ticks": 3060,
                "time": 7.6499999999999995,
                "velocity": 0.5039370078740157
              },
              {
                "duration": 0.2999999999999998,
                "durationTicks": 120,
                "midi": 56,
                "name": "G#3",
                "ticks": 3120,
                "time": 7.8,
                "velocity": 0.5039370078740157
              },
              {
                "duration": 0.3000000000000007,
                "durationTicks": 120,
                "midi": 53,
                "name": "F3",
                "ticks": 3240,
                "time": 8.1,
                "velocity": 0.5039370078740157
              },
              {
                "duration": 0.7249999999999996,
                "durationTicks": 290,
                "midi": 61,
                "name": "C#4",
                "ticks": 3360,
                "time": 8.4,
                "velocity": 0.5039370078740157
              },
              {
                "duration": 0.14999999999999858,
                "durationTicks": 60,
                "midi": 60,
                "name": "C4",
                "ticks": 3660,
                "time": 9.15,
                "velocity": 0.5039370078740157
              },
              {
                "duration": 0.15000000000000036,
                "durationTicks": 60,
                "midi": 58,
                "name": "A#3",
                "ticks": 3720,
                "time": 9.299999999999999,
                "velocity": 0.5039370078740157
              },
              {
                "duration": 0.15000000000000036,
                "durationTicks": 60,
                "midi": 57,
                "name": "A3",
                "ticks": 3780,
                "time": 9.45,
                "velocity": 0.5039370078740157
              },
              {
                "duration": 0.3000000000000007,
                "durationTicks": 120,
                "midi": 58,
                "name": "A#3",
                "ticks": 3840,
                "time": 9.6,
                "velocity": 0.5039370078740157
              },
              {
                "duration": 0.29999999999999893,
                "durationTicks": 120,
                "midi": 55,
                "name": "G3",
                "ticks": 3960,
                "time": 9.9,
                "velocity": 0.5039370078740157
              },
              {
                "duration": 0.7249999999999996,
                "durationTicks": 290,
                "midi": 64,
                "name": "E4",
                "ticks": 4080,
                "time": 10.2,
                "velocity": 0.5039370078740157
              },
              {
                "duration": 0.15000000000000036,
                "durationTicks": 60,
                "midi": 65,
                "name": "F4",
                "ticks": 4380,
                "time": 10.95,
                "velocity": 0.5039370078740157
              },
              {
                "duration": 0.15000000000000036,
                "durationTicks": 60,
                "midi": 67,
                "name": "G4",
                "ticks": 4440,
                "time": 11.1,
                "velocity": 0.5039370078740157
              },
              {
                "duration": 0.15000000000000036,
                "durationTicks": 60,
                "midi": 68,
                "name": "G#4",
                "ticks": 4500,
                "time": 11.25,
                "velocity": 0.5039370078740157
              },
              {
                "duration": 0.29999999999999893,
                "durationTicks": 120,
                "midi": 70,
                "name": "A#4",
                "ticks": 4560,
                "time": 11.4,
                "velocity": 0.5039370078740157
              },
              {
                "duration": 0.15000000000000036,
                "durationTicks": 60,
                "midi": 67,
                "name": "G4",
                "ticks": 4680,
                "time": 11.7,
                "velocity": 0.5039370078740157
              },
              {
                "duration": 0.15000000000000036,
                "durationTicks": 60,
                "midi": 64,
                "name": "E4",
                "ticks": 4740,
                "time": 11.85,
                "velocity": 0.5039370078740157
              },
              {
                "duration": 0.29999999999999893,
                "durationTicks": 120,
                "midi": 61,
                "name": "C#4",
                "ticks": 4800,
                "time": 12,
                "velocity": 0.5039370078740157
              },
              {
                "duration": 0.3000000000000007,
                "durationTicks": 120,
                "midi": 60,
                "name": "C4",
                "ticks": 4920,
                "time": 12.299999999999999,
                "velocity": 0.5039370078740157
              },
              {
                "duration": 0.15000000000000036,
                "durationTicks": 60,
                "midi": 58,
                "name": "A#3",
                "ticks": 5040,
                "time": 12.6,
                "velocity": 0.5039370078740157
              },
              {
                "duration": 0.15000000000000036,
                "durationTicks": 60,
                "midi": 56,
                "name": "G#3",
                "ticks": 5100,
                "time": 12.75,
                "velocity": 0.5039370078740157
              },
              {
                "duration": 0.14999999999999858,
                "durationTicks": 60,
                "midi": 55,
                "name": "G3",
                "ticks": 5160,
                "time": 12.9,
                "velocity": 0.5039370078740157
              },
              {
                "duration": 0.15000000000000036,
                "durationTicks": 60,
                "midi": 56,
                "name": "G#3",
                "ticks": 5220,
                "time": 13.049999999999999,
                "velocity": 0.5039370078740157
              },
              {
                "duration": 0.15000000000000036,
                "durationTicks": 60,
                "midi": 58,
                "name": "A#3",
                "ticks": 5280,
                "time": 13.2,
                "velocity": 0.5039370078740157
              },
              {
                "duration": 0.15000000000000036,
                "durationTicks": 60,
                "midi": 61,
                "name": "C#4",
                "ticks": 5340,
                "time": 13.35,
                "velocity": 0.5039370078740157
              },
              {
                "duration": 0.15000000000000036,
                "durationTicks": 60,
                "midi": 60,
                "name": "C4",
                "ticks": 5400,
                "time": 13.5,
                "velocity": 0.5039370078740157
              },
              {
                "duration": 0.14999999999999858,
                "durationTicks": 60,
                "midi": 58,
                "name": "A#3",
                "ticks": 5460,
                "time": 13.65,
                "velocity": 0.5039370078740157
              },
              {
                "duration": 0.15000000000000036,
                "durationTicks": 60,
                "midi": 56,
                "name": "G#3",
                "ticks": 5520,
                "time": 13.799999999999999,
                "velocity": 0.5039370078740157
              },
              {
                "duration": 0.15000000000000036,
                "durationTicks": 60,
                "midi": 55,
                "name": "G3",
                "ticks": 5580,
                "time": 13.95,
                "velocity": 0.5039370078740157
              },
              {
                "duration": 0.15000000000000036,
                "durationTicks": 60,
                "midi": 53,
                "name": "F3",
                "ticks": 5640,
                "time": 14.1,
                "velocity": 0.5039370078740157
              },
              {
                "duration": 0.14999999999999858,
                "durationTicks": 60,
                "midi": 52,
                "name": "E3",
                "ticks": 5700,
                "time": 14.25,
                "velocity": 0.5039370078740157
              },
              {
                "duration": 0.3000000000000007,
                "durationTicks": 120,
                "midi": 56,
                "name": "G#3",
                "ticks": 5760,
                "time": 14.399999999999999,
                "velocity": 0.5039370078740157
              },
              {
                "duration": 0.4499999999999993,
                "durationTicks": 180,
                "midi": 53,
                "name": "F3",
                "ticks": 5880,
                "time": 14.7,
                "velocity": 0.5039370078740157
              },
              {
                "duration": 0.15000000000000036,
                "durationTicks": 60,
                "midi": 55,
                "name": "G3",
                "ticks": 6060,
                "time": 15.149999999999999,
                "velocity": 0.5039370078740157
              },
              {
                "duration": 0.15000000000000036,
                "durationTicks": 60,
                "midi": 56,
                "name": "G#3",
                "ticks": 6120,
                "time": 15.299999999999999,
                "velocity": 0.5039370078740157
              },
              {
                "duration": 0.15000000000000036,
                "durationTicks": 60,
                "midi": 55,
                "name": "G3",
                "ticks": 6180,
                "time": 15.45,
                "velocity": 0.5039370078740157
              },
              {
                "duration": 0.15000000000000036,
                "durationTicks": 60,
                "midi": 53,
                "name": "F3",
                "ticks": 6240,
                "time": 15.6,
                "velocity": 0.5039370078740157
              },
              {
                "duration": 0.14999999999999858,
                "durationTicks": 60,
                "midi": 51,
                "name": "D#3",
                "ticks": 6300,
                "time": 15.75,
                "velocity": 0.5039370078740157
              },
              {
                "duration": 0.15000000000000213,
                "durationTicks": 60,
                "midi": 49,
                "name": "C#3",
                "ticks": 6360,
                "time": 15.899999999999999,
                "velocity": 0.5039370078740157
              },
              {
                "duration": 0.14999999999999858,
                "durationTicks": 60,
                "midi": 48,
                "name": "C3",
                "ticks": 6420,
                "time": 16.05,
                "velocity": 0.5039370078740157
              },
              {
                "duration": 0.3000000000000007,
                "durationTicks": 120,
                "midi": 47,
                "name": "B2",
                "ticks": 6480,
                "time": 16.2,
                "velocity": 0.5039370078740157
              },
              {
                "duration": 0.4499999999999993,
                "durationTicks": 180,
                "midi": 56,
                "name": "G#3",
                "ticks": 6600,
                "time": 16.5,
                "velocity": 0.5039370078740157
              },
              {
                "duration": 0.14999999999999858,
                "durationTicks": 60,
                "midi": 55,
                "name": "G3",
                "ticks": 6780,
                "time": 16.95,
                "velocity": 0.5039370078740157
              },
              {
                "duration": 0.15000000000000213,
                "durationTicks": 60,
                "midi": 53,
                "name": "F3",
                "ticks": 6840,
                "time": 17.099999999999998,
                "velocity": 0.5039370078740157
              },
              {
                "duration": 0.14999999999999858,
                "durationTicks": 60,
                "midi": 51,
                "name": "D#3",
                "ticks": 6900,
                "time": 17.25,
                "velocity": 0.5039370078740157
              },
              {
                "duration": 0.15000000000000213,
                "durationTicks": 60,
                "midi": 50,
                "name": "D3",
                "ticks": 6960,
                "time": 17.4,
                "velocity": 0.5039370078740157
              },
              {
                "duration": 0.14999999999999858,
                "durationTicks": 60,
                "midi": 48,
                "name": "C3",
                "ticks": 7020,
                "time": 17.55,
                "velocity": 0.5039370078740157
              },
              {
                "duration": 0.14999999999999858,
                "durationTicks": 60,
                "midi": 47,
                "name": "B2",
                "ticks": 7080,
                "time": 17.7,
                "velocity": 0.5039370078740157
              },
              {
                "duration": 0.15000000000000213,
                "durationTicks": 60,
                "midi": 45,
                "name": "A2",
                "ticks": 7140,
                "time": 17.849999999999998,
                "velocity": 0.5039370078740157
              },
              {
                "duration": 0.14999999999999858,
                "durationTicks": 60,
                "midi": 43,
                "name": "G2",
                "ticks": 7200,
                "time": 18,
                "velocity": 0.5039370078740157
              },
              {
                "duration": 0.15000000000000213,
                "durationTicks": 60,
                "midi": 45,
                "name": "A2",
                "ticks": 7260,
                "time": 18.15,
                "velocity": 0.5039370078740157
              },
              {
                "duration": 0.14999999999999858,
                "durationTicks": 60,
                "midi": 47,
                "name": "B2",
                "ticks": 7320,
                "time": 18.3,
                "velocity": 0.5039370078740157
              },
              {
                "duration": 0.14999999999999858,
                "durationTicks": 60,
                "midi": 48,
                "name": "C3",
                "ticks": 7380,
                "time": 18.45,
                "velocity": 0.5039370078740157
              },
              {
                "duration": 0.15000000000000213,
                "durationTicks": 60,
                "midi": 50,
                "name": "D3",
                "ticks": 7440,
                "time": 18.599999999999998,
                "velocity": 0.5039370078740157
              },
              {
                "duration": 0.14999999999999858,
                "durationTicks": 60,
                "midi": 51,
                "name": "D#3",
                "ticks": 7500,
                "time": 18.75,
                "velocity": 0.5039370078740157
              },
              {
                "duration": 0.15000000000000213,
                "durationTicks": 60,
                "midi": 53,
                "name": "F3",
                "ticks": 7560,
                "time": 18.9,
                "velocity": 0.5039370078740157
              },
              {
                "duration": 0.14999999999999858,
                "durationTicks": 60,
                "midi": 50,
                "name": "D3",
                "ticks": 7620,
                "time": 19.05,
                "velocity": 0.5039370078740157
              },
              {
                "duration": 0.14999999999999858,
                "durationTicks": 60,
                "midi": 48,
                "name": "C3",
                "ticks": 7680,
                "time": 19.2,
                "velocity": 0.5039370078740157
              },
              {
                "duration": 0.15000000000000213,
                "durationTicks": 60,
                "midi": 47,
                "name": "B2",
                "ticks": 7740,
                "time": 19.349999999999998,
                "velocity": 0.5039370078740157
              },
              {
                "duration": 0.14999999999999858,
                "durationTicks": 60,
                "midi": 48,
                "name": "C3",
                "ticks": 7800,
                "time": 19.5,
                "velocity": 0.5039370078740157
              },
              {
                "duration": 0.15000000000000213,
                "durationTicks": 60,
                "midi": 47,
                "name": "B2",
                "ticks": 7860,
                "time": 19.65,
                "velocity": 0.5039370078740157
              },
              {
                "duration": 0.29999999999999716,
                "durationTicks": 120,
                "midi": 51,
                "name": "D#3",
                "ticks": 7920,
                "time": 19.8,
                "velocity": 0.5039370078740157
              },
              {
                "duration": 0.45000000000000284,
                "durationTicks": 180,
                "midi": 60,
                "name": "C4",
                "ticks": 8040,
                "time": 20.099999999999998,
                "velocity": 0.5039370078740157
              },
              {
                "duration": 0.14999999999999858,
                "durationTicks": 60,
                "midi": 62,
                "name": "D4",
                "ticks": 8220,
                "time": 20.55,
                "velocity": 0.5039370078740157
              },
              {
                "duration": 0.14999999999999858,
                "durationTicks": 60,
                "midi": 63,
                "name": "D#4",
                "ticks": 8280,
                "time": 20.7,
                "velocity": 0.5039370078740157
              },
              {
                "duration": 0.15000000000000213,
                "durationTicks": 60,
                "midi": 62,
                "name": "D4",
                "ticks": 8340,
                "time": 20.849999999999998,
                "velocity": 0.5039370078740157
              },
              {
                "duration": 0.14999999999999858,
                "durationTicks": 60,
                "midi": 60,
                "name": "C4",
                "ticks": 8400,
                "time": 21,
                "velocity": 0.5039370078740157
              },
              {
                "duration": 0.15000000000000213,
                "durationTicks": 60,
                "midi": 58,
                "name": "A#3",
                "ticks": 8460,
                "time": 21.15,
                "velocity": 0.5039370078740157
              },
              {
                "duration": 0.14999999999999858,
                "durationTicks": 60,
                "midi": 56,
                "name": "G#3",
                "ticks": 8520,
                "time": 21.3,
                "velocity": 0.5039370078740157
              },
              {
                "duration": 0.14999999999999858,
                "durationTicks": 60,
                "midi": 55,
                "name": "G3",
                "ticks": 8580,
                "time": 21.45,
                "velocity": 0.5039370078740157
              },
              {
                "duration": 0.3000000000000007,
                "durationTicks": 120,
                "midi": 54,
                "name": "F#3",
                "ticks": 8640,
                "time": 21.599999999999998,
                "velocity": 0.5039370078740157
              },
              {
                "duration": 0.4499999999999993,
                "durationTicks": 180,
                "midi": 63,
                "name": "D#4",
                "ticks": 8760,
                "time": 21.9,
                "velocity": 0.5039370078740157
              },
              {
                "duration": 0.15000000000000213,
                "durationTicks": 60,
                "midi": 62,
                "name": "D4",
                "ticks": 8940,
                "time": 22.349999999999998,
                "velocity": 0.5039370078740157
              },
              {
                "duration": 0.14999999999999858,
                "durationTicks": 60,
                "midi": 60,
                "name": "C4",
                "ticks": 9000,
                "time": 22.5,
                "velocity": 0.5039370078740157
              },
              {
                "duration": 0.15000000000000213,
                "durationTicks": 60,
                "midi": 58,
                "name": "A#3",
                "ticks": 9060,
                "time": 22.65,
                "velocity": 0.5039370078740157
              },
              {
                "duration": 0.14999999999999858,
                "durationTicks": 60,
                "midi": 57,
                "name": "A3",
                "ticks": 9120,
                "time": 22.8,
                "velocity": 0.5039370078740157
              },
              {
                "duration": 0.14999999999999858,
                "durationTicks": 60,
                "midi": 55,
                "name": "G3",
                "ticks": 9180,
                "time": 22.95,
                "velocity": 0.5039370078740157
              },
              {
                "duration": 0.15000000000000213,
                "durationTicks": 60,
                "midi": 53,
                "name": "F3",
                "ticks": 9240,
                "time": 23.099999999999998,
                "velocity": 0.5039370078740157
              },
              {
                "duration": 0.14999999999999858,
                "durationTicks": 60,
                "midi": 52,
                "name": "E3",
                "ticks": 9300,
                "time": 23.25,
                "velocity": 0.5039370078740157
              },
              {
                "duration": 0.15000000000000213,
                "durationTicks": 60,
                "midi": 50,
                "name": "D3",
                "ticks": 9360,
                "time": 23.4,
                "velocity": 0.5039370078740157
              },
              {
                "duration": 0.14999999999999858,
                "durationTicks": 60,
                "midi": 52,
                "name": "E3",
                "ticks": 9420,
                "time": 23.55,
                "velocity": 0.5039370078740157
              },
              {
                "duration": 0.14999999999999858,
                "durationTicks": 60,
                "midi": 54,
                "name": "F#3",
                "ticks": 9480,
                "time": 23.7,
                "velocity": 0.5039370078740157
              },
              {
                "duration": 0.15000000000000213,
                "durationTicks": 60,
                "midi": 55,
                "name": "G3",
                "ticks": 9540,
                "time": 23.849999999999998,
                "velocity": 0.5039370078740157
              },
              {
                "duration": 0.14999999999999858,
                "durationTicks": 60,
                "midi": 57,
                "name": "A3",
                "ticks": 9600,
                "time": 24,
                "velocity": 0.5039370078740157
              },
              {
                "duration": 0.15000000000000213,
                "durationTicks": 60,
                "midi": 58,
                "name": "A#3",
                "ticks": 9660,
                "time": 24.15,
                "velocity": 0.5039370078740157
              },
              {
                "duration": 0.14999999999999858,
                "durationTicks": 60,
                "midi": 60,
                "name": "C4",
                "ticks": 9720,
                "time": 24.3,
                "velocity": 0.5039370078740157
              },
              {
                "duration": 0.14999999999999858,
                "durationTicks": 60,
                "midi": 57,
                "name": "A3",
                "ticks": 9780,
                "time": 24.45,
                "velocity": 0.5039370078740157
              },
              {
                "duration": 0.15000000000000213,
                "durationTicks": 60,
                "midi": 55,
                "name": "G3",
                "ticks": 9840,
                "time": 24.599999999999998,
                "velocity": 0.5039370078740157
              },
              {
                "duration": 0.14999999999999858,
                "durationTicks": 60,
                "midi": 54,
                "name": "F#3",
                "ticks": 9900,
                "time": 24.75,
                "velocity": 0.5039370078740157
              },
              {
                "duration": 0.15000000000000213,
                "durationTicks": 60,
                "midi": 55,
                "name": "G3",
                "ticks": 9960,
                "time": 24.9,
                "velocity": 0.5039370078740157
              },
              {
                "duration": 0.14999999999999858,
                "durationTicks": 60,
                "midi": 54,
                "name": "F#3",
                "ticks": 10020,
                "time": 25.05,
                "velocity": 0.5039370078740157
              },
              {
                "duration": 0.14999999999999858,
                "durationTicks": 60,
                "midi": 55,
                "name": "G3",
                "ticks": 10080,
                "time": 25.2,
                "velocity": 0.5039370078740157
              },
              {
                "duration": 0.15000000000000213,
                "durationTicks": 60,
                "midi": 57,
                "name": "A3",
                "ticks": 10140,
                "time": 25.349999999999998,
                "velocity": 0.5039370078740157
              },
              {
                "duration": 0.14999999999999858,
                "durationTicks": 60,
                "midi": 59,
                "name": "B3",
                "ticks": 10200,
                "time": 25.5,
                "velocity": 0.5039370078740157
              },
              {
                "duration": 0.15000000000000213,
                "durationTicks": 60,
                "midi": 60,
                "name": "C4",
                "ticks": 10260,
                "time": 25.65,
                "velocity": 0.5039370078740157
              },
              {
                "duration": 0.14999999999999858,
                "durationTicks": 60,
                "midi": 62,
                "name": "D4",
                "ticks": 10320,
                "time": 25.8,
                "velocity": 0.5039370078740157
              },
              {
                "duration": 0.14999999999999858,
                "durationTicks": 60,
                "midi": 63,
                "name": "D#4",
                "ticks": 10380,
                "time": 25.95,
                "velocity": 0.5039370078740157
              },
              {
                "duration": 0.15000000000000213,
                "durationTicks": 60,
                "midi": 65,
                "name": "F4",
                "ticks": 10440,
                "time": 26.099999999999998,
                "velocity": 0.5039370078740157
              },
              {
                "duration": 0.14999999999999858,
                "durationTicks": 60,
                "midi": 62,
                "name": "D4",
                "ticks": 10500,
                "time": 26.25,
                "velocity": 0.5039370078740157
              },
              {
                "duration": 0.15000000000000213,
                "durationTicks": 60,
                "midi": 63,
                "name": "D#4",
                "ticks": 10560,
                "time": 26.4,
                "velocity": 0.5039370078740157
              },
              {
                "duration": 0.14999999999999858,
                "durationTicks": 60,
                "midi": 60,
                "name": "C4",
                "ticks": 10620,
                "time": 26.55,
                "velocity": 0.5039370078740157
              },
              {
                "duration": 0.14999999999999858,
                "durationTicks": 60,
                "midi": 62,
                "name": "D4",
                "ticks": 10680,
                "time": 26.7,
                "velocity": 0.5039370078740157
              },
              {
                "duration": 0.15000000000000213,
                "durationTicks": 60,
                "midi": 63,
                "name": "D#4",
                "ticks": 10740,
                "time": 26.849999999999998,
                "velocity": 0.5039370078740157
              },
              {
                "duration": 0.14999999999999858,
                "durationTicks": 60,
                "midi": 65,
                "name": "F4",
                "ticks": 10800,
                "time": 27,
                "velocity": 0.5039370078740157
              },
              {
                "duration": 0.15000000000000213,
                "durationTicks": 60,
                "midi": 67,
                "name": "G4",
                "ticks": 10860,
                "time": 27.15,
                "velocity": 0.5039370078740157
              },
              {
                "duration": 0.14999999999999858,
                "durationTicks": 60,
                "midi": 68,
                "name": "G#4",
                "ticks": 10920,
                "time": 27.3,
                "velocity": 0.5039370078740157
              },
              {
                "duration": 0.14999999999999858,
                "durationTicks": 60,
                "midi": 65,
                "name": "F4",
                "ticks": 10980,
                "time": 27.45,
                "velocity": 0.5039370078740157
              },
              {
                "duration": 0.15000000000000213,
                "durationTicks": 60,
                "midi": 67,
                "name": "G4",
                "ticks": 11040,
                "time": 27.599999999999998,
                "velocity": 0.5039370078740157
              },
              {
                "duration": 0.14999999999999858,
                "durationTicks": 60,
                "midi": 62,
                "name": "D4",
                "ticks": 11100,
                "time": 27.75,
                "velocity": 0.5039370078740157
              },
              {
                "duration": 0.15000000000000213,
                "durationTicks": 60,
                "midi": 63,
                "name": "D#4",
                "ticks": 11160,
                "time": 27.9,
                "velocity": 0.5039370078740157
              },
              {
                "duration": 0.14999999999999858,
                "durationTicks": 60,
                "midi": 65,
                "name": "F4",
                "ticks": 11220,
                "time": 28.05,
                "velocity": 0.5039370078740157
              },
              {
                "duration": 0.14999999999999858,
                "durationTicks": 60,
                "midi": 55,
                "name": "G3",
                "ticks": 11280,
                "time": 28.2,
                "velocity": 0.5039370078740157
              },
              {
                "duration": 0.15000000000000213,
                "durationTicks": 60,
                "midi": 65,
                "name": "F4",
                "ticks": 11340,
                "time": 28.349999999999998,
                "velocity": 0.5039370078740157
              },
              {
                "duration": 0.14999999999999858,
                "durationTicks": 60,
                "midi": 63,
                "name": "D#4",
                "ticks": 11400,
                "time": 28.5,
                "velocity": 0.5039370078740157
              },
              {
                "duration": 0.14999999999999858,
                "durationTicks": 60,
                "midi": 62,
                "name": "D4",
                "ticks": 11460,
                "time": 28.65,
                "velocity": 0.5039370078740157
              },
              {
                "duration": 0.15000000000000213,
                "durationTicks": 60,
                "midi": 63,
                "name": "D#4",
                "ticks": 11520,
                "time": 28.799999999999997,
                "velocity": 0.5039370078740157
              },
              {
                "duration": 0.14999999999999858,
                "durationTicks": 60,
                "midi": 53,
                "name": "F3",
                "ticks": 11580,
                "time": 28.95,
                "velocity": 0.5039370078740157
              },
              {
                "duration": 0.15000000000000213,
                "durationTicks": 60,
                "midi": 51,
                "name": "D#3",
                "ticks": 11640,
                "time": 29.099999999999998,
                "velocity": 0.5039370078740157
              },
              {
                "duration": 0.14999999999999858,
                "durationTicks": 60,
                "midi": 50,
                "name": "D3",
                "ticks": 11700,
                "time": 29.25,
                "velocity": 0.5039370078740157
              },
              {
                "duration": 0.3000000000000007,
                "durationTicks": 120,
                "midi": 51,
                "name": "D#3",
                "ticks": 11760,
                "time": 29.4,
                "velocity": 0.5039370078740157
              },
              {
                "duration": 0.3000000000000007,
                "durationTicks": 120,
                "midi": 48,
                "name": "C3",
                "ticks": 11880,
                "time": 29.7,
                "velocity": 0.5039370078740157
              },
              {
                "duration": 0.7250000000000014,
                "durationTicks": 290,
                "midi": 56,
                "name": "G#3",
                "ticks": 12000,
                "time": 30,
                "velocity": 0.5039370078740157
              },
              {
                "duration": 0.14999999999999858,
                "durationTicks": 60,
                "midi": 55,
                "name": "G3",
                "ticks": 12300,
                "time": 30.75,
                "velocity": 0.5039370078740157
              },
              {
                "duration": 0.14999999999999858,
                "durationTicks": 60,
                "midi": 53,
                "name": "F3",
                "ticks": 12360,
                "time": 30.9,
                "velocity": 0.5039370078740157
              },
              {
                "duration": 0.15000000000000213,
                "durationTicks": 60,
                "midi": 52,
                "name": "E3",
                "ticks": 12420,
                "time": 31.049999999999997,
                "velocity": 0.5039370078740157
              },
              {
                "duration": 0.3000000000000007,
                "durationTicks": 120,
                "midi": 53,
                "name": "F3",
                "ticks": 12480,
                "time": 31.2,
                "velocity": 0.5039370078740157
              },
              {
                "duration": 0.29999999999999716,
                "durationTicks": 120,
                "midi": 50,
                "name": "D3",
                "ticks": 12600,
                "time": 31.5,
                "velocity": 0.5039370078740157
              },
              {
                "duration": 0.7250000000000014,
                "durationTicks": 290,
                "midi": 59,
                "name": "B3",
                "ticks": 12720,
                "time": 31.799999999999997,
                "velocity": 0.5039370078740157
              },
              {
                "duration": 0.14999999999999858,
                "durationTicks": 60,
                "midi": 60,
                "name": "C4",
                "ticks": 13020,
                "time": 32.55,
                "velocity": 0.5039370078740157
              },
              {
                "duration": 0.15000000000000568,
                "durationTicks": 60,
                "midi": 62,
                "name": "D4",
                "ticks": 13080,
                "time": 32.699999999999996,
                "velocity": 0.5039370078740157
              },
              {
                "duration": 0.14999999999999858,
                "durationTicks": 60,
                "midi": 63,
                "name": "D#4",
                "ticks": 13140,
                "time": 32.85,
                "velocity": 0.5039370078740157
              },
              {
                "duration": 0.29999999999999716,
                "durationTicks": 120,
                "midi": 65,
                "name": "F4",
                "ticks": 13200,
                "time": 33,
                "velocity": 0.5039370078740157
              },
              {
                "duration": 0.14999999999999858,
                "durationTicks": 60,
                "midi": 62,
                "name": "D4",
                "ticks": 13320,
                "time": 33.3,
                "velocity": 0.5039370078740157
              },
              {
                "duration": 0.15000000000000568,
                "durationTicks": 60,
                "midi": 59,
                "name": "B3",
                "ticks": 13380,
                "time": 33.449999999999996,
                "velocity": 0.5039370078740157
              },
              {
                "duration": 0.29999999999999716,
                "durationTicks": 120,
                "midi": 56,
                "name": "G#3",
                "ticks": 13440,
                "time": 33.6,
                "velocity": 0.5039370078740157
              },
              {
                "duration": 0.29999999999999716,
                "durationTicks": 120,
                "midi": 55,
                "name": "G3",
                "ticks": 13560,
                "time": 33.9,
                "velocity": 0.5039370078740157
              },
              {
                "duration": 0.15000000000000568,
                "durationTicks": 60,
                "midi": 53,
                "name": "F3",
                "ticks": 13680,
                "time": 34.199999999999996,
                "velocity": 0.5039370078740157
              },
              {
                "duration": 0.14999999999999858,
                "durationTicks": 60,
                "midi": 51,
                "name": "D#3",
                "ticks": 13740,
                "time": 34.35,
                "velocity": 0.5039370078740157
              },
              {
                "duration": 0.14999999999999858,
                "durationTicks": 60,
                "midi": 50,
                "name": "D3",
                "ticks": 13800,
                "time": 34.5,
                "velocity": 0.5039370078740157
              },
              {
                "duration": 0.14999999999999858,
                "durationTicks": 60,
                "midi": 51,
                "name": "D#3",
                "ticks": 13860,
                "time": 34.65,
                "velocity": 0.5039370078740157
              },
              {
                "duration": 0.14999999999999858,
                "durationTicks": 60,
                "midi": 53,
                "name": "F3",
                "ticks": 13920,
                "time": 34.8,
                "velocity": 0.5039370078740157
              },
              {
                "duration": 0.15000000000000568,
                "durationTicks": 60,
                "midi": 56,
                "name": "G#3",
                "ticks": 13980,
                "time": 34.949999999999996,
                "velocity": 0.5039370078740157
              },
              {
                "duration": 0.14999999999999858,
                "durationTicks": 60,
                "midi": 55,
                "name": "G3",
                "ticks": 14040,
                "time": 35.1,
                "velocity": 0.5039370078740157
              },
              {
                "duration": 0.14999999999999858,
                "durationTicks": 60,
                "midi": 53,
                "name": "F3",
                "ticks": 14100,
                "time": 35.25,
                "velocity": 0.5039370078740157
              },
              {
                "duration": 0.14999999999999858,
                "durationTicks": 60,
                "midi": 51,
                "name": "D#3",
                "ticks": 14160,
                "time": 35.4,
                "velocity": 0.5039370078740157
              },
              {
                "duration": 0.14999999999999858,
                "durationTicks": 60,
                "midi": 50,
                "name": "D3",
                "ticks": 14220,
                "time": 35.55,
                "velocity": 0.5039370078740157
              },
              {
                "duration": 0.15000000000000568,
                "durationTicks": 60,
                "midi": 48,
                "name": "C3",
                "ticks": 14280,
                "time": 35.699999999999996,
                "velocity": 0.5039370078740157
              },
              {
                "duration": 0.14999999999999858,
                "durationTicks": 60,
                "midi": 46,
                "name": "A#2",
                "ticks": 14340,
                "time": 35.85,
                "velocity": 0.5039370078740157
              },
              {
                "duration": 0.29999999999999716,
                "durationTicks": 120,
                "midi": 45,
                "name": "A2",
                "ticks": 14400,
                "time": 36,
                "velocity": 0.5039370078740157
              },
              {
                "duration": 0.45000000000000284,
                "durationTicks": 180,
                "midi": 60,
                "name": "C4",
                "ticks": 14520,
                "time": 36.3,
                "velocity": 0.5039370078740157
              },
              {
                "duration": 0.14999999999999858,
                "durationTicks": 60,
                "midi": 58,
                "name": "A#3",
                "ticks": 14700,
                "time": 36.75,
                "velocity": 0.5039370078740157
              },
              {
                "duration": 0.14999999999999858,
                "durationTicks": 60,
                "midi": 57,
                "name": "A3",
                "ticks": 14760,
                "time": 36.9,
                "velocity": 0.5039370078740157
              },
              {
                "duration": 0.14999999999999858,
                "durationTicks": 60,
                "midi": 55,
                "name": "G3",
                "ticks": 14820,
                "time": 37.05,
                "velocity": 0.5039370078740157
              },
              {
                "duration": 0.15000000000000568,
                "durationTicks": 60,
                "midi": 53,
                "name": "F3",
                "ticks": 14880,
                "time": 37.199999999999996,
                "velocity": 0.5039370078740157
              },
              {
                "duration": 0.14999999999999858,
                "durationTicks": 60,
                "midi": 51,
                "name": "D#3",
                "ticks": 14940,
                "time": 37.35,
                "velocity": 0.5039370078740157
              },
              {
                "duration": 0.14999999999999858,
                "durationTicks": 60,
                "midi": 49,
                "name": "C#3",
                "ticks": 15000,
                "time": 37.5,
                "velocity": 0.5039370078740157
              },
              {
                "duration": 0.14999999999999858,
                "durationTicks": 60,
                "midi": 48,
                "name": "C3",
                "ticks": 15060,
                "time": 37.65,
                "velocity": 0.5039370078740157
              },
              {
                "duration": 0.30000000000000426,
                "durationTicks": 120,
                "midi": 46,
                "name": "A#2",
                "ticks": 15120,
                "time": 37.8,
                "velocity": 0.5039370078740157
              },
              {
                "duration": 0.29999999999999716,
                "durationTicks": 120,
                "midi": 49,
                "name": "C#3",
                "ticks": 15240,
                "time": 38.1,
                "velocity": 0.5039370078740157
              },
              {
                "duration": 0.29999999999999716,
                "durationTicks": 120,
                "midi": 53,
                "name": "F3",
                "ticks": 15360,
                "time": 38.4,
                "velocity": 0.5039370078740157
              },
              {
                "duration": 0.30000000000000426,
                "durationTicks": 120,
                "midi": 57,
                "name": "A3",
                "ticks": 15480,
                "time": 38.699999999999996,
                "velocity": 0.5039370078740157
              },
              {
                "duration": 0.7249999999999943,
                "durationTicks": 290,
                "midi": 58,
                "name": "A#3",
                "ticks": 15600,
                "time": 39,
                "velocity": 0.5039370078740157
              },
              {
                "duration": 0.14999999999999858,
                "durationTicks": 60,
                "midi": 56,
                "name": "G#3",
                "ticks": 15900,
                "time": 39.75,
                "velocity": 0.5039370078740157
              },
              {
                "duration": 0.14999999999999858,
                "durationTicks": 60,
                "midi": 55,
                "name": "G3",
                "ticks": 15960,
                "time": 39.9,
                "velocity": 0.5039370078740157
              },
              {
                "duration": 0.14999999999999858,
                "durationTicks": 60,
                "midi": 53,
                "name": "F3",
                "ticks": 16020,
                "time": 40.05,
                "velocity": 0.5039370078740157
              },
              {
                "duration": 0.30000000000000426,
                "durationTicks": 120,
                "midi": 55,
                "name": "G3",
                "ticks": 16080,
                "time": 40.199999999999996,
                "velocity": 0.5039370078740157
              },
              {
                "duration": 0.29999999999999716,
                "durationTicks": 120,
                "midi": 51,
                "name": "D#3",
                "ticks": 16200,
                "time": 40.5,
                "velocity": 0.5039370078740157
              },
              {
                "duration": 0.7250000000000014,
                "durationTicks": 290,
                "midi": 61,
                "name": "C#4",
                "ticks": 16320,
                "time": 40.8,
                "velocity": 0.5039370078740157
              },
              {
                "duration": 0.14999999999999858,
                "durationTicks": 60,
                "midi": 60,
                "name": "C4",
                "ticks": 16620,
                "time": 41.55,
                "velocity": 0.5039370078740157
              },
              {
                "duration": 0.15000000000000568,
                "durationTicks": 60,
                "midi": 58,
                "name": "A#3",
                "ticks": 16680,
                "time": 41.699999999999996,
                "velocity": 0.5039370078740157
              },
              {
                "duration": 0.14999999999999858,
                "durationTicks": 60,
                "midi": 60,
                "name": "C4",
                "ticks": 16740,
                "time": 41.85,
                "velocity": 0.5039370078740157
              },
              {
                "duration": 0.14999999999999858,
                "durationTicks": 60,
                "midi": 61,
                "name": "C#4",
                "ticks": 16800,
                "time": 42,
                "velocity": 0.5039370078740157
              },
              {
                "duration": 0.14999999999999858,
                "durationTicks": 60,
                "midi": 65,
                "name": "F4",
                "ticks": 16860,
                "time": 42.15,
                "velocity": 0.5039370078740157
              },
              {
                "duration": 0.14999999999999858,
                "durationTicks": 60,
                "midi": 63,
                "name": "D#4",
                "ticks": 16920,
                "time": 42.3,
                "velocity": 0.5039370078740157
              },
              {
                "duration": 0.15000000000000568,
                "durationTicks": 60,
                "midi": 61,
                "name": "C#4",
                "ticks": 16980,
                "time": 42.449999999999996,
                "velocity": 0.5039370078740157
              },
              {
                "duration": 0.14999999999999858,
                "durationTicks": 60,
                "midi": 60,
                "name": "C4",
                "ticks": 17040,
                "time": 42.6,
                "velocity": 0.5039370078740157
              },
              {
                "duration": 0.14999999999999858,
                "durationTicks": 60,
                "midi": 58,
                "name": "A#3",
                "ticks": 17100,
                "time": 42.75,
                "velocity": 0.5039370078740157
              },
              {
                "duration": 0.14999999999999858,
                "durationTicks": 60,
                "midi": 56,
                "name": "G#3",
                "ticks": 17160,
                "time": 42.9,
                "velocity": 0.5039370078740157
              },
              {
                "duration": 0.14999999999999858,
                "durationTicks": 60,
                "midi": 55,
                "name": "G3",
                "ticks": 17220,
                "time": 43.05,
                "velocity": 0.5039370078740157
              },
              {
                "duration": 0.30000000000000426,
                "durationTicks": 120,
                "midi": 53,
                "name": "F3",
                "ticks": 17280,
                "time": 43.199999999999996,
                "velocity": 0.5039370078740157
              },
              {
                "duration": 0.44999999999999574,
                "durationTicks": 180,
                "midi": 65,
                "name": "F4",
                "ticks": 17400,
                "time": 43.5,
                "velocity": 0.5039370078740157
              },
              {
                "duration": 0.15000000000000568,
                "durationTicks": 60,
                "midi": 63,
                "name": "D#4",
                "ticks": 17580,
                "time": 43.949999999999996,
                "velocity": 0.5039370078740157
              },
              {
                "duration": 0.14999999999999858,
                "durationTicks": 60,
                "midi": 61,
                "name": "C#4",
                "ticks": 17640,
                "time": 44.1,
                "velocity": 0.5039370078740157
              },
              {
                "duration": 0.14999999999999858,
                "durationTicks": 60,
                "midi": 60,
                "name": "C4",
                "ticks": 17700,
                "time": 44.25,
                "velocity": 0.5039370078740157
              },
              {
                "duration": 0.14999999999999858,
                "durationTicks": 60,
                "midi": 58,
                "name": "A#3",
                "ticks": 17760,
                "time": 44.4,
                "velocity": 0.5039370078740157
              },
              {
                "duration": 0.14999999999999858,
                "durationTicks": 60,
                "midi": 56,
                "name": "G#3",
                "ticks": 17820,
                "time": 44.55,
                "velocity": 0.5039370078740157
              },
              {
                "duration": 0.15000000000000568,
                "durationTicks": 60,
                "midi": 55,
                "name": "G3",
                "ticks": 17880,
                "time": 44.699999999999996,
                "velocity": 0.5039370078740157
              },
              {
                "duration": 0.14999999999999858,
                "durationTicks": 60,
                "midi": 58,
                "name": "A#3",
                "ticks": 17940,
                "time": 44.85,
                "velocity": 0.5039370078740157
              },
              {
                "duration": 0.29999999999999716,
                "durationTicks": 120,
                "midi": 51,
                "name": "D#3",
                "ticks": 18000,
                "time": 45,
                "velocity": 0.5039370078740157
              },
              {
                "duration": 0.45000000000000284,
                "durationTicks": 180,
                "midi": 63,
                "name": "D#4",
                "ticks": 18120,
                "time": 45.3,
                "velocity": 0.5039370078740157
              },
              {
                "duration": 0.14999999999999858,
                "durationTicks": 60,
                "midi": 61,
                "name": "C#4",
                "ticks": 18300,
                "time": 45.75,
                "velocity": 0.5039370078740157
              },
              {
                "duration": 0.14999999999999858,
                "durationTicks": 60,
                "midi": 60,
                "name": "C4",
                "ticks": 18360,
                "time": 45.9,
                "velocity": 0.5039370078740157
              },
              {
                "duration": 0.14999999999999858,
                "durationTicks": 60,
                "midi": 58,
                "name": "A#3",
                "ticks": 18420,
                "time": 46.05,
                "velocity": 0.5039370078740157
              },
              {
                "duration": 0.15000000000000568,
                "durationTicks": 60,
                "midi": 56,
                "name": "G#3",
                "ticks": 18480,
                "time": 46.199999999999996,
                "velocity": 0.5039370078740157
              },
              {
                "duration": 0.14999999999999858,
                "durationTicks": 60,
                "midi": 54,
                "name": "F#3",
                "ticks": 18540,
                "time": 46.35,
                "velocity": 0.5039370078740157
              },
              {
                "duration": 0.14999999999999858,
                "durationTicks": 60,
                "midi": 53,
                "name": "F3",
                "ticks": 18600,
                "time": 46.5,
                "velocity": 0.5039370078740157
              },
              {
                "duration": 0.14999999999999858,
                "durationTicks": 60,
                "midi": 56,
                "name": "G#3",
                "ticks": 18660,
                "time": 46.65,
                "velocity": 0.5039370078740157
              },
              {
                "duration": 0.30000000000000426,
                "durationTicks": 120,
                "midi": 49,
                "name": "C#3",
                "ticks": 18720,
                "time": 46.8,
                "velocity": 0.5039370078740157
              },
              {
                "duration": 0.44999999999999574,
                "durationTicks": 180,
                "midi": 61,
                "name": "C#4",
                "ticks": 18840,
                "time": 47.1,
                "velocity": 0.5039370078740157
              },
              {
                "duration": 0.14999999999999858,
                "durationTicks": 60,
                "midi": 60,
                "name": "C4",
                "ticks": 19020,
                "time": 47.55,
                "velocity": 0.5039370078740157
              },
              {
                "duration": 0.15000000000000568,
                "durationTicks": 60,
                "midi": 58,
                "name": "A#3",
                "ticks": 19080,
                "time": 47.699999999999996,
                "velocity": 0.5039370078740157
              },
              {
                "duration": 0.14999999999999858,
                "durationTicks": 60,
                "midi": 56,
                "name": "G#3",
                "ticks": 19140,
                "time": 47.85,
                "velocity": 0.5039370078740157
              },
              {
                "duration": 0.14999999999999858,
                "durationTicks": 60,
                "midi": 55,
                "name": "G3",
                "ticks": 19200,
                "time": 48,
                "velocity": 0.5039370078740157
              },
              {
                "duration": 0.14999999999999858,
                "durationTicks": 60,
                "midi": 53,
                "name": "F3",
                "ticks": 19260,
                "time": 48.15,
                "velocity": 0.5039370078740157
              },
              {
                "duration": 0.14999999999999858,
                "durationTicks": 60,
                "midi": 52,
                "name": "E3",
                "ticks": 19320,
                "time": 48.3,
                "velocity": 0.5039370078740157
              },
              {
                "duration": 0.15000000000000568,
                "durationTicks": 60,
                "midi": 55,
                "name": "G3",
                "ticks": 19380,
                "time": 48.449999999999996,
                "velocity": 0.5039370078740157
              },
              {
                "duration": 0.7249999999999943,
                "durationTicks": 290,
                "midi": 48,
                "name": "C3",
                "ticks": 19440,
                "time": 48.6,
                "velocity": 0.5039370078740157
              },
              {
                "duration": 0.14999999999999858,
                "durationTicks": 60,
                "midi": 50,
                "name": "D3",
                "ticks": 19740,
                "time": 49.35,
                "velocity": 0.5039370078740157
              },
              {
                "duration": 0.14999999999999858,
                "durationTicks": 60,
                "midi": 52,
                "name": "E3",
                "ticks": 19800,
                "time": 49.5,
                "velocity": 0.5039370078740157
              },
              {
                "duration": 0.14999999999999858,
                "durationTicks": 60,
                "midi": 53,
                "name": "F3",
                "ticks": 19860,
                "time": 49.65,
                "velocity": 0.5039370078740157
              },
              {
                "duration": 0.14999999999999858,
                "durationTicks": 60,
                "midi": 55,
                "name": "G3",
                "ticks": 19920,
                "time": 49.8,
                "velocity": 0.5039370078740157
              },
              {
                "duration": 0.15000000000000568,
                "durationTicks": 60,
                "midi": 56,
                "name": "G#3",
                "ticks": 19980,
                "time": 49.949999999999996,
                "velocity": 0.5039370078740157
              },
              {
                "duration": 0.14999999999999858,
                "durationTicks": 60,
                "midi": 58,
                "name": "A#3",
                "ticks": 20040,
                "time": 50.1,
                "velocity": 0.5039370078740157
              },
              {
                "duration": 0.14999999999999858,
                "durationTicks": 60,
                "midi": 55,
                "name": "G3",
                "ticks": 20100,
                "time": 50.25,
                "velocity": 0.5039370078740157
              },
              {
                "duration": 0.14999999999999858,
                "durationTicks": 60,
                "midi": 56,
                "name": "G#3",
                "ticks": 20160,
                "time": 50.4,
                "velocity": 0.5039370078740157
              },
              {
                "duration": 0.14999999999999858,
                "durationTicks": 60,
                "midi": 58,
                "name": "A#3",
                "ticks": 20220,
                "time": 50.55,
                "velocity": 0.5039370078740157
              },
              {
                "duration": 0.45000000000000284,
                "durationTicks": 180,
                "midi": 60,
                "name": "C4",
                "ticks": 20280,
                "time": 50.699999999999996,
                "velocity": 0.5039370078740157
              },
              {
                "duration": 0.14999999999999858,
                "durationTicks": 60,
                "midi": 58,
                "name": "A#3",
                "ticks": 20460,
                "time": 51.15,
                "velocity": 0.5039370078740157
              },
              {
                "duration": 0.14999999999999858,
                "durationTicks": 60,
                "midi": 56,
                "name": "G#3",
                "ticks": 20520,
                "time": 51.3,
                "velocity": 0.5039370078740157
              },
              {
                "duration": 0.15000000000000568,
                "durationTicks": 60,
                "midi": 55,
                "name": "G3",
                "ticks": 20580,
                "time": 51.449999999999996,
                "velocity": 0.5039370078740157
              },
              {
                "duration": 0.14999999999999858,
                "durationTicks": 60,
                "midi": 53,
                "name": "F3",
                "ticks": 20640,
                "time": 51.6,
                "velocity": 0.5039370078740157
              },
              {
                "duration": 0.14999999999999858,
                "durationTicks": 60,
                "midi": 51,
                "name": "D#3",
                "ticks": 20700,
                "time": 51.75,
                "velocity": 0.5039370078740157
              },
              {
                "duration": 0.14999999999999858,
                "durationTicks": 60,
                "midi": 49,
                "name": "C#3",
                "ticks": 20760,
                "time": 51.9,
                "velocity": 0.5039370078740157
              },
              {
                "duration": 0.14999999999999858,
                "durationTicks": 60,
                "midi": 48,
                "name": "C3",
                "ticks": 20820,
                "time": 52.05,
                "velocity": 0.5039370078740157
              },
              {
                "duration": 0.15000000000000568,
                "durationTicks": 60,
                "midi": 46,
                "name": "A#2",
                "ticks": 20880,
                "time": 52.199999999999996,
                "velocity": 0.5039370078740157
              },
              {
                "duration": 0.14999999999999858,
                "durationTicks": 60,
                "midi": 48,
                "name": "C3",
                "ticks": 20940,
                "time": 52.35,
                "velocity": 0.5039370078740157
              },
              {
                "duration": 0.44999999999999574,
                "durationTicks": 180,
                "midi": 49,
                "name": "C#3",
                "ticks": 21000,
                "time": 52.5,
                "velocity": 0.5039370078740157
              },
              {
                "duration": 0.15000000000000568,
                "durationTicks": 60,
                "midi": 48,
                "name": "C3",
                "ticks": 21180,
                "time": 52.949999999999996,
                "velocity": 0.5039370078740157
              },
              {
                "duration": 0.14999999999999858,
                "durationTicks": 60,
                "midi": 46,
                "name": "A#2",
                "ticks": 21240,
                "time": 53.1,
                "velocity": 0.5039370078740157
              },
              {
                "duration": 0.14999999999999858,
                "durationTicks": 60,
                "midi": 44,
                "name": "G#2",
                "ticks": 21300,
                "time": 53.25,
                "velocity": 0.5039370078740157
              },
              {
                "duration": 0.14999999999999858,
                "durationTicks": 60,
                "midi": 43,
                "name": "G2",
                "ticks": 21360,
                "time": 53.4,
                "velocity": 0.5039370078740157
              },
              {
                "duration": 0.14999999999999858,
                "durationTicks": 60,
                "midi": 41,
                "name": "F2",
                "ticks": 21420,
                "time": 53.55,
                "velocity": 0.5039370078740157
              },
              {
                "duration": 0.15000000000000568,
                "durationTicks": 60,
                "midi": 40,
                "name": "E2",
                "ticks": 21480,
                "time": 53.699999999999996,
                "velocity": 0.5039370078740157
              },
              {
                "duration": 0.14999999999999858,
                "durationTicks": 60,
                "midi": 38,
                "name": "D2",
                "ticks": 21540,
                "time": 53.85,
                "velocity": 0.5039370078740157
              },
              {
                "duration": 0.14999999999999858,
                "durationTicks": 60,
                "midi": 36,
                "name": "C2",
                "ticks": 21600,
                "time": 54,
                "velocity": 0.5039370078740157
              },
              {
                "duration": 0.14999999999999858,
                "durationTicks": 60,
                "midi": 38,
                "name": "D2",
                "ticks": 21660,
                "time": 54.15,
                "velocity": 0.5039370078740157
              },
              {
                "duration": 0.14999999999999858,
                "durationTicks": 60,
                "midi": 40,
                "name": "E2",
                "ticks": 21720,
                "time": 54.3,
                "velocity": 0.5039370078740157
              },
              {
                "duration": 0.15000000000000568,
                "durationTicks": 60,
                "midi": 41,
                "name": "F2",
                "ticks": 21780,
                "time": 54.449999999999996,
                "velocity": 0.5039370078740157
              },
              {
                "duration": 0.14999999999999858,
                "durationTicks": 60,
                "midi": 43,
                "name": "G2",
                "ticks": 21840,
                "time": 54.6,
                "velocity": 0.5039370078740157
              },
              {
                "duration": 0.14999999999999858,
                "durationTicks": 60,
                "midi": 44,
                "name": "G#2",
                "ticks": 21900,
                "time": 54.75,
                "velocity": 0.5039370078740157
              },
              {
                "duration": 0.14999999999999858,
                "durationTicks": 60,
                "midi": 46,
                "name": "A#2",
                "ticks": 21960,
                "time": 54.9,
                "velocity": 0.5039370078740157
              },
              {
                "duration": 0.14999999999999858,
                "durationTicks": 60,
                "midi": 43,
                "name": "G2",
                "ticks": 22020,
                "time": 55.05,
                "velocity": 0.5039370078740157
              },
              {
                "duration": 0.15000000000000568,
                "durationTicks": 60,
                "midi": 41,
                "name": "F2",
                "ticks": 22080,
                "time": 55.199999999999996,
                "velocity": 0.5039370078740157
              },
              {
                "duration": 0.14999999999999858,
                "durationTicks": 60,
                "midi": 40,
                "name": "E2",
                "ticks": 22140,
                "time": 55.35,
                "velocity": 0.5039370078740157
              },
              {
                "duration": 0.14999999999999858,
                "durationTicks": 60,
                "midi": 41,
                "name": "F2",
                "ticks": 22200,
                "time": 55.5,
                "velocity": 0.5039370078740157
              },
              {
                "duration": 0.14999999999999858,
                "durationTicks": 60,
                "midi": 40,
                "name": "E2",
                "ticks": 22260,
                "time": 55.65,
                "velocity": 0.5039370078740157
              },
              {
                "duration": 0.6000000000000014,
                "durationTicks": 240,
                "midi": 41,
                "name": "F2",
                "ticks": 22320,
                "time": 55.8,
                "velocity": 0.5039370078740157
              },
              {
                "duration": 0.14999999999999858,
                "durationTicks": 60,
                "midi": 48,
                "name": "C3",
                "ticks": 22620,
                "time": 56.55,
                "velocity": 0.5039370078740157
              },
              {
                "duration": 0.15000000000000568,
                "durationTicks": 60,
                "midi": 50,
                "name": "D3",
                "ticks": 22680,
                "time": 56.699999999999996,
                "velocity": 0.5039370078740157
              },
              {
                "duration": 0.14999999999999858,
                "durationTicks": 60,
                "midi": 52,
                "name": "E3",
                "ticks": 22740,
                "time": 56.85,
                "velocity": 0.5039370078740157
              },
              {
                "duration": 0.14999999999999858,
                "durationTicks": 60,
                "midi": 53,
                "name": "F3",
                "ticks": 22800,
                "time": 57,
                "velocity": 0.5039370078740157
              },
              {
                "duration": 0.14999999999999858,
                "durationTicks": 60,
                "midi": 52,
                "name": "E3",
                "ticks": 22860,
                "time": 57.15,
                "velocity": 0.5039370078740157
              },
              {
                "duration": 0.14999999999999858,
                "durationTicks": 60,
                "midi": 53,
                "name": "F3",
                "ticks": 22920,
                "time": 57.3,
                "velocity": 0.5039370078740157
              },
              {
                "duration": 0.14999999999999858,
                "durationTicks": 60,
                "midi": 55,
                "name": "G3",
                "ticks": 22980,
                "time": 57.449999999999996,
                "velocity": 0.5039370078740157
              },
              {
                "duration": 0.15000000000000568,
                "durationTicks": 60,
                "midi": 56,
                "name": "G#3",
                "ticks": 23040,
                "time": 57.599999999999994,
                "velocity": 0.5039370078740157
              },
              {
                "duration": 0.14999999999999858,
                "durationTicks": 60,
                "midi": 55,
                "name": "G3",
                "ticks": 23100,
                "time": 57.75,
                "velocity": 0.5039370078740157
              },
              {
                "duration": 0.14999999999999858,
                "durationTicks": 60,
                "midi": 56,
                "name": "G#3",
                "ticks": 23160,
                "time": 57.9,
                "velocity": 0.5039370078740157
              },
              {
                "duration": 0.14999999999999858,
                "durationTicks": 60,
                "midi": 58,
                "name": "A#3",
                "ticks": 23220,
                "time": 58.05,
                "velocity": 0.5039370078740157
              },
              {
                "duration": 0.30000000000000426,
                "durationTicks": 120,
                "midi": 60,
                "name": "C4",
                "ticks": 23280,
                "time": 58.199999999999996,
                "velocity": 0.5039370078740157
              },
              {
                "duration": 0.29999999999999716,
                "durationTicks": 120,
                "midi": 58,
                "name": "A#3",
                "ticks": 23400,
                "time": 58.5,
                "velocity": 0.5039370078740157
              },
              {
                "duration": 0.29999999999999716,
                "durationTicks": 120,
                "midi": 60,
                "name": "C4",
                "ticks": 23520,
                "time": 58.8,
                "velocity": 0.5039370078740157
              },
              {
                "duration": 0.30000000000000426,
                "durationTicks": 120,
                "midi": 48,
                "name": "C3",
                "ticks": 23640,
                "time": 59.099999999999994,
                "velocity": 0.5039370078740157
              },
              {
                "duration": 1.7999999999999972,
                "durationTicks": 720,
                "midi": 41,
                "name": "F2",
                "ticks": 23760,
                "time": 59.4,
                "velocity": 0.5039370078740157
              }
            ],
            "endOfTrackTicks": 24480
          }
        ]
    },

    "invention-10" : {
        "header": {
          "keySignatures": [],
          "meta": [],
          "name": "Invention 10 in G Major",
          "ppq": 240,
          "tempos": [
            {
              "bpm": 198.000198000198,
              "ticks": 0
            }
          ],
          "timeSignatures": [
            {
              "ticks": 0,
              "timeSignature": [
                9,
                8
              ],
              "measures": 0
            }
          ]
        },
        "tracks": [
          {
            "channel": 0,
            "controlChanges": {},
            "pitchBends": [],
            "instrument": {
              "family": "piano",
              "number": 0,
              "name": "acoustic grand piano"
            },
            "name": "",
            "notes": [
              {
                "duration": 0.151515,
                "durationTicks": 120,
                "midi": 67,
                "name": "G4",
                "ticks": 0,
                "time": 0,
                "velocity": 0.5039370078740157
              },
              {
                "duration": 0.151515,
                "durationTicks": 120,
                "midi": 71,
                "name": "B4",
                "ticks": 120,
                "time": 0.151515,
                "velocity": 0.5039370078740157
              },
              {
                "duration": 0.151515,
                "durationTicks": 120,
                "midi": 74,
                "name": "D5",
                "ticks": 240,
                "time": 0.30303,
                "velocity": 0.5039370078740157
              },
              {
                "duration": 0.151515,
                "durationTicks": 120,
                "midi": 71,
                "name": "B4",
                "ticks": 360,
                "time": 0.45454500000000003,
                "velocity": 0.5039370078740157
              },
              {
                "duration": 0.15151500000000007,
                "durationTicks": 120,
                "midi": 67,
                "name": "G4",
                "ticks": 480,
                "time": 0.60606,
                "velocity": 0.5039370078740157
              },
              {
                "duration": 0.15151499999999996,
                "durationTicks": 120,
                "midi": 74,
                "name": "D5",
                "ticks": 600,
                "time": 0.7575750000000001,
                "velocity": 0.5039370078740157
              },
              {
                "duration": 0.15151499999999996,
                "durationTicks": 120,
                "midi": 71,
                "name": "B4",
                "ticks": 720,
                "time": 0.9090900000000001,
                "velocity": 0.5039370078740157
              },
              {
                "duration": 0.15151500000000007,
                "durationTicks": 120,
                "midi": 67,
                "name": "G4",
                "ticks": 840,
                "time": 1.060605,
                "velocity": 0.5039370078740157
              },
              {
                "duration": 0.15151500000000007,
                "durationTicks": 120,
                "midi": 79,
                "name": "G5",
                "ticks": 960,
                "time": 1.21212,
                "velocity": 0.5039370078740157
              },
              {
                "duration": 0.07575749999999992,
                "durationTicks": 60,
                "midi": 78,
                "name": "F#5",
                "ticks": 1080,
                "time": 1.3636350000000002,
                "velocity": 0.5039370078740157
              },
              {
                "duration": 0.07575750000000014,
                "durationTicks": 60,
                "midi": 79,
                "name": "G5",
                "ticks": 1140,
                "time": 1.4393925,
                "velocity": 0.4409448818897638
              },
              {
                "duration": 0.15151499999999984,
                "durationTicks": 120,
                "midi": 78,
                "name": "F#5",
                "ticks": 1200,
                "time": 1.5151500000000002,
                "velocity": 0.5039370078740157
              },
              {
                "duration": 0.15151500000000007,
                "durationTicks": 120,
                "midi": 74,
                "name": "D5",
                "ticks": 1320,
                "time": 1.666665,
                "velocity": 0.5039370078740157
              },
              {
                "duration": 0.15151500000000007,
                "durationTicks": 120,
                "midi": 81,
                "name": "A5",
                "ticks": 1440,
                "time": 1.8181800000000001,
                "velocity": 0.5039370078740157
              },
              {
                "duration": 0.15151499999999984,
                "durationTicks": 120,
                "midi": 78,
                "name": "F#5",
                "ticks": 1560,
                "time": 1.9696950000000002,
                "velocity": 0.5039370078740157
              },
              {
                "duration": 0.1515150000000003,
                "durationTicks": 120,
                "midi": 74,
                "name": "D5",
                "ticks": 1680,
                "time": 2.12121,
                "velocity": 0.5039370078740157
              },
              {
                "duration": 0.15151499999999984,
                "durationTicks": 120,
                "midi": 81,
                "name": "A5",
                "ticks": 1800,
                "time": 2.2727250000000003,
                "velocity": 0.5039370078740157
              },
              {
                "duration": 0.15151499999999984,
                "durationTicks": 120,
                "midi": 78,
                "name": "F#5",
                "ticks": 1920,
                "time": 2.42424,
                "velocity": 0.5039370078740157
              },
              {
                "duration": 0.1515150000000003,
                "durationTicks": 120,
                "midi": 74,
                "name": "D5",
                "ticks": 2040,
                "time": 2.575755,
                "velocity": 0.5039370078740157
              },
              {
                "duration": 0.15151499999999984,
                "durationTicks": 120,
                "midi": 79,
                "name": "G5",
                "ticks": 2160,
                "time": 2.7272700000000003,
                "velocity": 0.5039370078740157
              },
              {
                "duration": 0.1515150000000003,
                "durationTicks": 120,
                "midi": 74,
                "name": "D5",
                "ticks": 2280,
                "time": 2.878785,
                "velocity": 0.5039370078740157
              },
              {
                "duration": 0.15151499999999984,
                "durationTicks": 120,
                "midi": 71,
                "name": "B4",
                "ticks": 2400,
                "time": 3.0303000000000004,
                "velocity": 0.5039370078740157
              },
              {
                "duration": 0.15151499999999984,
                "durationTicks": 120,
                "midi": 77,
                "name": "F5",
                "ticks": 2520,
                "time": 3.1818150000000003,
                "velocity": 0.5039370078740157
              },
              {
                "duration": 0.1515150000000003,
                "durationTicks": 120,
                "midi": 74,
                "name": "D5",
                "ticks": 2640,
                "time": 3.33333,
                "velocity": 0.5039370078740157
              },
              {
                "duration": 0.15151499999999984,
                "durationTicks": 120,
                "midi": 71,
                "name": "B4",
                "ticks": 2760,
                "time": 3.4848450000000004,
                "velocity": 0.5039370078740157
              },
              {
                "duration": 0.15151499999999984,
                "durationTicks": 120,
                "midi": 77,
                "name": "F5",
                "ticks": 2880,
                "time": 3.6363600000000003,
                "velocity": 0.5039370078740157
              },
              {
                "duration": 0.1515150000000003,
                "durationTicks": 120,
                "midi": 74,
                "name": "D5",
                "ticks": 3000,
                "time": 3.787875,
                "velocity": 0.5039370078740157
              },
              {
                "duration": 0.15151499999999984,
                "durationTicks": 120,
                "midi": 71,
                "name": "B4",
                "ticks": 3120,
                "time": 3.9393900000000004,
                "velocity": 0.5039370078740157
              },
              {
                "duration": 0.15151499999999984,
                "durationTicks": 120,
                "midi": 76,
                "name": "E5",
                "ticks": 3240,
                "time": 4.090905,
                "velocity": 0.5039370078740157
              },
              {
                "duration": 0.15151499999999984,
                "durationTicks": 120,
                "midi": 72,
                "name": "C5",
                "ticks": 3360,
                "time": 4.24242,
                "velocity": 0.5039370078740157
              },
              {
                "duration": 0.15151500000000073,
                "durationTicks": 120,
                "midi": 69,
                "name": "A4",
                "ticks": 3480,
                "time": 4.393935,
                "velocity": 0.5039370078740157
              },
              {
                "duration": 0.15151499999999984,
                "durationTicks": 120,
                "midi": 66,
                "name": "F#4",
                "ticks": 3600,
                "time": 4.545450000000001,
                "velocity": 0.5039370078740157
              },
              {
                "duration": 0.15151499999999984,
                "durationTicks": 120,
                "midi": 69,
                "name": "A4",
                "ticks": 3720,
                "time": 4.6969650000000005,
                "velocity": 0.5039370078740157
              },
              {
                "duration": 0.15151499999999984,
                "durationTicks": 120,
                "midi": 72,
                "name": "C5",
                "ticks": 3840,
                "time": 4.84848,
                "velocity": 0.5039370078740157
              },
              {
                "duration": 0.15151499999999984,
                "durationTicks": 120,
                "midi": 76,
                "name": "E5",
                "ticks": 3960,
                "time": 4.999995,
                "velocity": 0.5039370078740157
              },
              {
                "duration": 0.15151500000000073,
                "durationTicks": 120,
                "midi": 74,
                "name": "D5",
                "ticks": 4080,
                "time": 5.15151,
                "velocity": 0.5039370078740157
              },
              {
                "duration": 0.15151499999999984,
                "durationTicks": 120,
                "midi": 72,
                "name": "C5",
                "ticks": 4200,
                "time": 5.303025000000001,
                "velocity": 0.5039370078740157
              },
              {
                "duration": 0.15151499999999984,
                "durationTicks": 120,
                "midi": 74,
                "name": "D5",
                "ticks": 4320,
                "time": 5.454540000000001,
                "velocity": 0.5039370078740157
              },
              {
                "duration": 0.15151499999999984,
                "durationTicks": 120,
                "midi": 71,
                "name": "B4",
                "ticks": 4440,
                "time": 5.6060550000000005,
                "velocity": 0.5039370078740157
              },
              {
                "duration": 0.15151499999999984,
                "durationTicks": 120,
                "midi": 67,
                "name": "G4",
                "ticks": 4560,
                "time": 5.75757,
                "velocity": 0.5039370078740157
              },
              {
                "duration": 0.15151500000000073,
                "durationTicks": 120,
                "midi": 64,
                "name": "E4",
                "ticks": 4680,
                "time": 5.909085,
                "velocity": 0.5039370078740157
              },
              {
                "duration": 0.15151499999999984,
                "durationTicks": 120,
                "midi": 67,
                "name": "G4",
                "ticks": 4800,
                "time": 6.060600000000001,
                "velocity": 0.5039370078740157
              },
              {
                "duration": 0.15151499999999984,
                "durationTicks": 120,
                "midi": 71,
                "name": "B4",
                "ticks": 4920,
                "time": 6.212115000000001,
                "velocity": 0.5039370078740157
              },
              {
                "duration": 0.15151499999999984,
                "durationTicks": 120,
                "midi": 74,
                "name": "D5",
                "ticks": 5040,
                "time": 6.363630000000001,
                "velocity": 0.5039370078740157
              },
              {
                "duration": 0.15151499999999984,
                "durationTicks": 120,
                "midi": 72,
                "name": "C5",
                "ticks": 5160,
                "time": 6.515145,
                "velocity": 0.5039370078740157
              },
              {
                "duration": 0.15151499999999984,
                "durationTicks": 120,
                "midi": 71,
                "name": "B4",
                "ticks": 5280,
                "time": 6.66666,
                "velocity": 0.5039370078740157
              },
              {
                "duration": 0.15151500000000073,
                "durationTicks": 120,
                "midi": 72,
                "name": "C5",
                "ticks": 5400,
                "time": 6.818175,
                "velocity": 0.5039370078740157
              },
              {
                "duration": 0.15151499999999984,
                "durationTicks": 120,
                "midi": 69,
                "name": "A4",
                "ticks": 5520,
                "time": 6.969690000000001,
                "velocity": 0.5039370078740157
              },
              {
                "duration": 0.15151499999999984,
                "durationTicks": 120,
                "midi": 66,
                "name": "F#4",
                "ticks": 5640,
                "time": 7.121205000000001,
                "velocity": 0.5039370078740157
              },
              {
                "duration": 0.15151499999999984,
                "durationTicks": 120,
                "midi": 62,
                "name": "D4",
                "ticks": 5760,
                "time": 7.2727200000000005,
                "velocity": 0.5039370078740157
              },
              {
                "duration": 0.15151499999999984,
                "durationTicks": 120,
                "midi": 66,
                "name": "F#4",
                "ticks": 5880,
                "time": 7.424235,
                "velocity": 0.5039370078740157
              },
              {
                "duration": 0.15151500000000073,
                "durationTicks": 120,
                "midi": 69,
                "name": "A4",
                "ticks": 6000,
                "time": 7.57575,
                "velocity": 0.5039370078740157
              },
              {
                "duration": 0.15151499999999984,
                "durationTicks": 120,
                "midi": 72,
                "name": "C5",
                "ticks": 6120,
                "time": 7.727265000000001,
                "velocity": 0.5039370078740157
              },
              {
                "duration": 0.15151499999999984,
                "durationTicks": 120,
                "midi": 71,
                "name": "B4",
                "ticks": 6240,
                "time": 7.878780000000001,
                "velocity": 0.5039370078740157
              },
              {
                "duration": 0.15151499999999984,
                "durationTicks": 120,
                "midi": 69,
                "name": "A4",
                "ticks": 6360,
                "time": 8.030295,
                "velocity": 0.5039370078740157
              },
              {
                "duration": 0.15151499999999984,
                "durationTicks": 120,
                "midi": 71,
                "name": "B4",
                "ticks": 6480,
                "time": 8.18181,
                "velocity": 0.5039370078740157
              },
              {
                "duration": 0.15151499999999984,
                "durationTicks": 120,
                "midi": 72,
                "name": "C5",
                "ticks": 6600,
                "time": 8.333325,
                "velocity": 0.5039370078740157
              },
              {
                "duration": 0.15151499999999984,
                "durationTicks": 120,
                "midi": 74,
                "name": "D5",
                "ticks": 6720,
                "time": 8.48484,
                "velocity": 0.5039370078740157
              },
              {
                "duration": 0.15151499999999984,
                "durationTicks": 120,
                "midi": 76,
                "name": "E5",
                "ticks": 6840,
                "time": 8.636355,
                "velocity": 0.5039370078740157
              },
              {
                "duration": 0.15151500000000162,
                "durationTicks": 120,
                "midi": 71,
                "name": "B4",
                "ticks": 6960,
                "time": 8.78787,
                "velocity": 0.5039370078740157
              },
              {
                "duration": 0.15151499999999984,
                "durationTicks": 120,
                "midi": 79,
                "name": "G5",
                "ticks": 7080,
                "time": 8.939385000000001,
                "velocity": 0.5039370078740157
              },
              {
                "duration": 0.15151499999999984,
                "durationTicks": 120,
                "midi": 76,
                "name": "E5",
                "ticks": 7200,
                "time": 9.090900000000001,
                "velocity": 0.5039370078740157
              },
              {
                "duration": 0.15151499999999984,
                "durationTicks": 120,
                "midi": 71,
                "name": "B4",
                "ticks": 7320,
                "time": 9.242415000000001,
                "velocity": 0.5039370078740157
              },
              {
                "duration": 0.15151499999999984,
                "durationTicks": 120,
                "midi": 79,
                "name": "G5",
                "ticks": 7440,
                "time": 9.393930000000001,
                "velocity": 0.5039370078740157
              },
              {
                "duration": 0.15151499999999984,
                "durationTicks": 120,
                "midi": 69,
                "name": "A4",
                "ticks": 7560,
                "time": 9.545445,
                "velocity": 0.5039370078740157
              },
              {
                "duration": 0.15151499999999984,
                "durationTicks": 120,
                "midi": 71,
                "name": "B4",
                "ticks": 7680,
                "time": 9.69696,
                "velocity": 0.5039370078740157
              },
              {
                "duration": 0.15151499999999984,
                "durationTicks": 120,
                "midi": 73,
                "name": "C#5",
                "ticks": 7800,
                "time": 9.848475,
                "velocity": 0.5039370078740157
              },
              {
                "duration": 0.15151499999999984,
                "durationTicks": 120,
                "midi": 74,
                "name": "D5",
                "ticks": 7920,
                "time": 9.99999,
                "velocity": 0.5039370078740157
              },
              {
                "duration": 0.15151499999999984,
                "durationTicks": 120,
                "midi": 69,
                "name": "A4",
                "ticks": 8040,
                "time": 10.151505,
                "velocity": 0.5039370078740157
              },
              {
                "duration": 0.15151499999999984,
                "durationTicks": 120,
                "midi": 78,
                "name": "F#5",
                "ticks": 8160,
                "time": 10.30302,
                "velocity": 0.5039370078740157
              },
              {
                "duration": 0.15151500000000162,
                "durationTicks": 120,
                "midi": 74,
                "name": "D5",
                "ticks": 8280,
                "time": 10.454535,
                "velocity": 0.5039370078740157
              },
              {
                "duration": 0.15151499999999984,
                "durationTicks": 120,
                "midi": 69,
                "name": "A4",
                "ticks": 8400,
                "time": 10.606050000000002,
                "velocity": 0.5039370078740157
              },
              {
                "duration": 0.15151499999999984,
                "durationTicks": 120,
                "midi": 78,
                "name": "F#5",
                "ticks": 8520,
                "time": 10.757565000000001,
                "velocity": 0.5039370078740157
              },
              {
                "duration": 0.07575749999999992,
                "durationTicks": 60,
                "midi": 67,
                "name": "G4",
                "ticks": 8640,
                "time": 10.909080000000001,
                "velocity": 0.5039370078740157
              },
              {
                "duration": 0.07575749999999992,
                "durationTicks": 60,
                "midi": 66,
                "name": "F#4",
                "ticks": 8700,
                "time": 10.984837500000001,
                "velocity": 0.4409448818897638
              },
              {
                "duration": 0.45454499999999953,
                "durationTicks": 360,
                "midi": 67,
                "name": "G4",
                "ticks": 8760,
                "time": 11.060595000000001,
                "velocity": 0.5039370078740157
              },
              {
                "duration": 0.15151499999999984,
                "durationTicks": 120,
                "midi": 69,
                "name": "A4",
                "ticks": 9120,
                "time": 11.51514,
                "velocity": 0.5039370078740157
              },
              {
                "duration": 0.15151499999999984,
                "durationTicks": 120,
                "midi": 67,
                "name": "G4",
                "ticks": 9240,
                "time": 11.666655,
                "velocity": 0.5039370078740157
              },
              {
                "duration": 0.15151499999999984,
                "durationTicks": 120,
                "midi": 66,
                "name": "F#4",
                "ticks": 9360,
                "time": 11.81817,
                "velocity": 0.5039370078740157
              },
              {
                "duration": 0.15151500000000162,
                "durationTicks": 120,
                "midi": 67,
                "name": "G4",
                "ticks": 9480,
                "time": 11.969685,
                "velocity": 0.5039370078740157
              },
              {
                "duration": 0.15151499999999984,
                "durationTicks": 120,
                "midi": 64,
                "name": "E4",
                "ticks": 9600,
                "time": 12.121200000000002,
                "velocity": 0.5039370078740157
              },
              {
                "duration": 0.15151499999999984,
                "durationTicks": 120,
                "midi": 66,
                "name": "F#4",
                "ticks": 9720,
                "time": 12.272715000000002,
                "velocity": 0.5039370078740157
              },
              {
                "duration": 0.15151499999999984,
                "durationTicks": 120,
                "midi": 67,
                "name": "G4",
                "ticks": 9840,
                "time": 12.424230000000001,
                "velocity": 0.5039370078740157
              },
              {
                "duration": 0.15151499999999984,
                "durationTicks": 120,
                "midi": 66,
                "name": "F#4",
                "ticks": 9960,
                "time": 12.575745000000001,
                "velocity": 0.5039370078740157
              },
              {
                "duration": 0.15151499999999984,
                "durationTicks": 120,
                "midi": 64,
                "name": "E4",
                "ticks": 10080,
                "time": 12.727260000000001,
                "velocity": 0.5039370078740157
              },
              {
                "duration": 0.15151499999999984,
                "durationTicks": 120,
                "midi": 66,
                "name": "F#4",
                "ticks": 10200,
                "time": 12.878775000000001,
                "velocity": 0.5039370078740157
              },
              {
                "duration": 0.15151499999999984,
                "durationTicks": 120,
                "midi": 62,
                "name": "D4",
                "ticks": 10320,
                "time": 13.03029,
                "velocity": 0.5039370078740157
              },
              {
                "duration": 0.15151499999999984,
                "durationTicks": 120,
                "midi": 69,
                "name": "A4",
                "ticks": 10440,
                "time": 13.181805,
                "velocity": 0.5039370078740157
              },
              {
                "duration": 0.15151499999999984,
                "durationTicks": 120,
                "midi": 71,
                "name": "B4",
                "ticks": 10560,
                "time": 13.33332,
                "velocity": 0.5039370078740157
              },
              {
                "duration": 0.15151499999999984,
                "durationTicks": 120,
                "midi": 72,
                "name": "C5",
                "ticks": 10680,
                "time": 13.484835,
                "velocity": 0.5039370078740157
              },
              {
                "duration": 0.15151500000000162,
                "durationTicks": 120,
                "midi": 71,
                "name": "B4",
                "ticks": 10800,
                "time": 13.63635,
                "velocity": 0.5039370078740157
              },
              {
                "duration": 0.15151499999999984,
                "durationTicks": 120,
                "midi": 72,
                "name": "C5",
                "ticks": 10920,
                "time": 13.787865000000002,
                "velocity": 0.5039370078740157
              },
              {
                "duration": 0.15151499999999984,
                "durationTicks": 120,
                "midi": 71,
                "name": "B4",
                "ticks": 11040,
                "time": 13.939380000000002,
                "velocity": 0.5039370078740157
              },
              {
                "duration": 0.15151499999999984,
                "durationTicks": 120,
                "midi": 69,
                "name": "A4",
                "ticks": 11160,
                "time": 14.090895000000002,
                "velocity": 0.5039370078740157
              },
              {
                "duration": 0.15151499999999984,
                "durationTicks": 120,
                "midi": 71,
                "name": "B4",
                "ticks": 11280,
                "time": 14.242410000000001,
                "velocity": 0.5039370078740157
              },
              {
                "duration": 0.15151499999999984,
                "durationTicks": 120,
                "midi": 67,
                "name": "G4",
                "ticks": 11400,
                "time": 14.393925000000001,
                "velocity": 0.5039370078740157
              },
              {
                "duration": 0.15151499999999984,
                "durationTicks": 120,
                "midi": 76,
                "name": "E5",
                "ticks": 11520,
                "time": 14.545440000000001,
                "velocity": 0.5039370078740157
              },
              {
                "duration": 0.15151499999999984,
                "durationTicks": 120,
                "midi": 78,
                "name": "F#5",
                "ticks": 11640,
                "time": 14.696955,
                "velocity": 0.5039370078740157
              },
              {
                "duration": 0.15151499999999984,
                "durationTicks": 120,
                "midi": 79,
                "name": "G5",
                "ticks": 11760,
                "time": 14.84847,
                "velocity": 0.5039370078740157
              },
              {
                "duration": 0.15151499999999984,
                "durationTicks": 120,
                "midi": 73,
                "name": "C#5",
                "ticks": 11880,
                "time": 14.999985,
                "velocity": 0.5039370078740157
              },
              {
                "duration": 0.15151499999999984,
                "durationTicks": 120,
                "midi": 74,
                "name": "D5",
                "ticks": 12000,
                "time": 15.1515,
                "velocity": 0.5039370078740157
              },
              {
                "duration": 0.15151500000000162,
                "durationTicks": 120,
                "midi": 73,
                "name": "C#5",
                "ticks": 12120,
                "time": 15.303015,
                "velocity": 0.5039370078740157
              },
              {
                "duration": 0.15151499999999984,
                "durationTicks": 120,
                "midi": 71,
                "name": "B4",
                "ticks": 12240,
                "time": 15.454530000000002,
                "velocity": 0.5039370078740157
              },
              {
                "duration": 0.15151499999999984,
                "durationTicks": 120,
                "midi": 73,
                "name": "C#5",
                "ticks": 12360,
                "time": 15.606045000000002,
                "velocity": 0.5039370078740157
              },
              {
                "duration": 0.15151499999999984,
                "durationTicks": 120,
                "midi": 69,
                "name": "A4",
                "ticks": 12480,
                "time": 15.757560000000002,
                "velocity": 0.5039370078740157
              },
              {
                "duration": 0.15151499999999984,
                "durationTicks": 120,
                "midi": 79,
                "name": "G5",
                "ticks": 12600,
                "time": 15.909075000000001,
                "velocity": 0.5039370078740157
              },
              {
                "duration": 0.15151499999999984,
                "durationTicks": 120,
                "midi": 81,
                "name": "A5",
                "ticks": 12720,
                "time": 16.06059,
                "velocity": 0.5039370078740157
              },
              {
                "duration": 0.15151499999999984,
                "durationTicks": 120,
                "midi": 83,
                "name": "B5",
                "ticks": 12840,
                "time": 16.212105,
                "velocity": 0.5039370078740157
              },
              {
                "duration": 0.15151499999999984,
                "durationTicks": 120,
                "midi": 81,
                "name": "A5",
                "ticks": 12960,
                "time": 16.36362,
                "velocity": 0.5039370078740157
              },
              {
                "duration": 0.15151499999999984,
                "durationTicks": 120,
                "midi": 79,
                "name": "G5",
                "ticks": 13080,
                "time": 16.515135,
                "velocity": 0.5039370078740157
              },
              {
                "duration": 0.15151499999999984,
                "durationTicks": 120,
                "midi": 78,
                "name": "F#5",
                "ticks": 13200,
                "time": 16.66665,
                "velocity": 0.5039370078740157
              },
              {
                "duration": 0.15151499999999984,
                "durationTicks": 120,
                "midi": 76,
                "name": "E5",
                "ticks": 13320,
                "time": 16.818165,
                "velocity": 0.5039370078740157
              },
              {
                "duration": 0.15151499999999984,
                "durationTicks": 120,
                "midi": 78,
                "name": "F#5",
                "ticks": 13440,
                "time": 16.96968,
                "velocity": 0.5039370078740157
              },
              {
                "duration": 0.15151499999999984,
                "durationTicks": 120,
                "midi": 74,
                "name": "D5",
                "ticks": 13560,
                "time": 17.121195,
                "velocity": 0.5039370078740157
              },
              {
                "duration": 0.15151499999999984,
                "durationTicks": 120,
                "midi": 69,
                "name": "A4",
                "ticks": 13680,
                "time": 17.27271,
                "velocity": 0.5039370078740157
              },
              {
                "duration": 0.15151499999999984,
                "durationTicks": 120,
                "midi": 74,
                "name": "D5",
                "ticks": 13800,
                "time": 17.424225,
                "velocity": 0.5039370078740157
              },
              {
                "duration": 0.15151499999999984,
                "durationTicks": 120,
                "midi": 73,
                "name": "C#5",
                "ticks": 13920,
                "time": 17.57574,
                "velocity": 0.5039370078740157
              },
              {
                "duration": 0.0757575000000017,
                "durationTicks": 60,
                "midi": 74,
                "name": "D5",
                "ticks": 14040,
                "time": 17.727255,
                "velocity": 0.5039370078740157
              },
              {
                "duration": 0.0757575000000017,
                "durationTicks": 60,
                "midi": 73,
                "name": "C#5",
                "ticks": 14100,
                "time": 17.8030125,
                "velocity": 0.4409448818897638
              },
              {
                "duration": 0.3030299999999997,
                "durationTicks": 240,
                "midi": 74,
                "name": "D5",
                "ticks": 14160,
                "time": 17.878770000000003,
                "velocity": 0.5039370078740157
              },
              {
                "duration": 0.15151499999999984,
                "durationTicks": 120,
                "midi": 69,
                "name": "A4",
                "ticks": 15120,
                "time": 19.09089,
                "velocity": 0.5039370078740157
              },
              {
                "duration": 0.15151499999999984,
                "durationTicks": 120,
                "midi": 73,
                "name": "C#5",
                "ticks": 15240,
                "time": 19.242405,
                "velocity": 0.5039370078740157
              },
              {
                "duration": 0.15151499999999984,
                "durationTicks": 120,
                "midi": 76,
                "name": "E5",
                "ticks": 15360,
                "time": 19.39392,
                "velocity": 0.5039370078740157
              },
              {
                "duration": 0.15151499999999984,
                "durationTicks": 120,
                "midi": 73,
                "name": "C#5",
                "ticks": 15480,
                "time": 19.545435,
                "velocity": 0.5039370078740157
              },
              {
                "duration": 0.15151499999999984,
                "durationTicks": 120,
                "midi": 69,
                "name": "A4",
                "ticks": 15600,
                "time": 19.69695,
                "velocity": 0.5039370078740157
              },
              {
                "duration": 0.15151499999999984,
                "durationTicks": 120,
                "midi": 76,
                "name": "E5",
                "ticks": 15720,
                "time": 19.848465,
                "velocity": 0.5039370078740157
              },
              {
                "duration": 0.15151499999999984,
                "durationTicks": 120,
                "midi": 73,
                "name": "C#5",
                "ticks": 15840,
                "time": 19.99998,
                "velocity": 0.5039370078740157
              },
              {
                "duration": 0.15151499999999984,
                "durationTicks": 120,
                "midi": 69,
                "name": "A4",
                "ticks": 15960,
                "time": 20.151495,
                "velocity": 0.5039370078740157
              },
              {
                "duration": 0.15151499999999984,
                "durationTicks": 120,
                "midi": 79,
                "name": "G5",
                "ticks": 16080,
                "time": 20.30301,
                "velocity": 0.5039370078740157
              },
              {
                "duration": 0.0757575000000017,
                "durationTicks": 60,
                "midi": 78,
                "name": "F#5",
                "ticks": 16200,
                "time": 20.454525,
                "velocity": 0.5039370078740157
              },
              {
                "duration": 0.07575749999999815,
                "durationTicks": 60,
                "midi": 79,
                "name": "G5",
                "ticks": 16260,
                "time": 20.530282500000002,
                "velocity": 0.4409448818897638
              },
              {
                "duration": 0.3030299999999997,
                "durationTicks": 240,
                "midi": 78,
                "name": "F#5",
                "ticks": 16320,
                "time": 20.60604,
                "velocity": 0.5039370078740157
              },
              {
                "duration": 0.4545450000000031,
                "durationTicks": 360,
                "midi": 74,
                "name": "D5",
                "ticks": 16560,
                "time": 20.90907,
                "velocity": 0.5039370078740157
              },
              {
                "duration": 0.15151499999999984,
                "durationTicks": 120,
                "midi": 67,
                "name": "G4",
                "ticks": 17280,
                "time": 21.818160000000002,
                "velocity": 0.5039370078740157
              },
              {
                "duration": 0.15151499999999984,
                "durationTicks": 120,
                "midi": 71,
                "name": "B4",
                "ticks": 17400,
                "time": 21.969675000000002,
                "velocity": 0.5039370078740157
              },
              {
                "duration": 0.15151499999999984,
                "durationTicks": 120,
                "midi": 74,
                "name": "D5",
                "ticks": 17520,
                "time": 22.121190000000002,
                "velocity": 0.5039370078740157
              },
              {
                "duration": 0.15151499999999984,
                "durationTicks": 120,
                "midi": 71,
                "name": "B4",
                "ticks": 17640,
                "time": 22.272705000000002,
                "velocity": 0.5039370078740157
              },
              {
                "duration": 0.15151499999999984,
                "durationTicks": 120,
                "midi": 67,
                "name": "G4",
                "ticks": 17760,
                "time": 22.424220000000002,
                "velocity": 0.5039370078740157
              },
              {
                "duration": 0.15151499999999984,
                "durationTicks": 120,
                "midi": 74,
                "name": "D5",
                "ticks": 17880,
                "time": 22.575735,
                "velocity": 0.5039370078740157
              },
              {
                "duration": 0.15151499999999984,
                "durationTicks": 120,
                "midi": 71,
                "name": "B4",
                "ticks": 18000,
                "time": 22.72725,
                "velocity": 0.5039370078740157
              },
              {
                "duration": 0.15151499999999984,
                "durationTicks": 120,
                "midi": 67,
                "name": "G4",
                "ticks": 18120,
                "time": 22.878765,
                "velocity": 0.5039370078740157
              },
              {
                "duration": 0.15151499999999984,
                "durationTicks": 120,
                "midi": 77,
                "name": "F5",
                "ticks": 18240,
                "time": 23.03028,
                "velocity": 0.5039370078740157
              },
              {
                "duration": 0.15151499999999984,
                "durationTicks": 120,
                "midi": 76,
                "name": "E5",
                "ticks": 18360,
                "time": 23.181795,
                "velocity": 0.5039370078740157
              },
              {
                "duration": 0.15151499999999984,
                "durationTicks": 120,
                "midi": 72,
                "name": "C5",
                "ticks": 18480,
                "time": 23.33331,
                "velocity": 0.5039370078740157
              },
              {
                "duration": 0.15151499999999984,
                "durationTicks": 120,
                "midi": 69,
                "name": "A4",
                "ticks": 18600,
                "time": 23.484825,
                "velocity": 0.5039370078740157
              },
              {
                "duration": 0.15151499999999984,
                "durationTicks": 120,
                "midi": 81,
                "name": "A5",
                "ticks": 18720,
                "time": 23.63634,
                "velocity": 0.5039370078740157
              },
              {
                "duration": 0.15151499999999984,
                "durationTicks": 120,
                "midi": 76,
                "name": "E5",
                "ticks": 18840,
                "time": 23.787855,
                "velocity": 0.5039370078740157
              },
              {
                "duration": 0.15151499999999984,
                "durationTicks": 120,
                "midi": 72,
                "name": "C5",
                "ticks": 18960,
                "time": 23.93937,
                "velocity": 0.5039370078740157
              },
              {
                "duration": 0.1515150000000034,
                "durationTicks": 120,
                "midi": 69,
                "name": "A4",
                "ticks": 19080,
                "time": 24.090885,
                "velocity": 0.5039370078740157
              },
              {
                "duration": 0.15151499999999984,
                "durationTicks": 120,
                "midi": 71,
                "name": "B4",
                "ticks": 19200,
                "time": 24.242400000000004,
                "velocity": 0.5039370078740157
              },
              {
                "duration": 0.15151499999999984,
                "durationTicks": 120,
                "midi": 72,
                "name": "C5",
                "ticks": 19320,
                "time": 24.393915000000003,
                "velocity": 0.5039370078740157
              },
              {
                "duration": 0.15151499999999984,
                "durationTicks": 120,
                "midi": 74,
                "name": "D5",
                "ticks": 19440,
                "time": 24.545430000000003,
                "velocity": 0.5039370078740157
              },
              {
                "duration": 0.15151499999999984,
                "durationTicks": 120,
                "midi": 71,
                "name": "B4",
                "ticks": 19560,
                "time": 24.696945000000003,
                "velocity": 0.5039370078740157
              },
              {
                "duration": 0.15151499999999984,
                "durationTicks": 120,
                "midi": 67,
                "name": "G4",
                "ticks": 19680,
                "time": 24.848460000000003,
                "velocity": 0.5039370078740157
              },
              {
                "duration": 0.15151499999999984,
                "durationTicks": 120,
                "midi": 79,
                "name": "G5",
                "ticks": 19800,
                "time": 24.999975000000003,
                "velocity": 0.5039370078740157
              },
              {
                "duration": 0.15151499999999984,
                "durationTicks": 120,
                "midi": 74,
                "name": "D5",
                "ticks": 19920,
                "time": 25.151490000000003,
                "velocity": 0.5039370078740157
              },
              {
                "duration": 0.15151499999999984,
                "durationTicks": 120,
                "midi": 71,
                "name": "B4",
                "ticks": 20040,
                "time": 25.303005000000002,
                "velocity": 0.5039370078740157
              },
              {
                "duration": 0.15151499999999984,
                "durationTicks": 120,
                "midi": 67,
                "name": "G4",
                "ticks": 20160,
                "time": 25.454520000000002,
                "velocity": 0.5039370078740157
              },
              {
                "duration": 0.15151499999999984,
                "durationTicks": 120,
                "midi": 69,
                "name": "A4",
                "ticks": 20280,
                "time": 25.606035000000002,
                "velocity": 0.5039370078740157
              },
              {
                "duration": 0.15151499999999984,
                "durationTicks": 120,
                "midi": 71,
                "name": "B4",
                "ticks": 20400,
                "time": 25.757550000000002,
                "velocity": 0.5039370078740157
              },
              {
                "duration": 0.0757575000000017,
                "durationTicks": 60,
                "midi": 72,
                "name": "C5",
                "ticks": 20520,
                "time": 25.909065000000002,
                "velocity": 0.5039370078740157
              },
              {
                "duration": 0.08333324999999903,
                "durationTicks": 66,
                "midi": 74,
                "name": "D5",
                "ticks": 20580,
                "time": 25.984822500000003,
                "velocity": 0.3779527559055118
              },
              {
                "duration": 0.08333325000000258,
                "durationTicks": 66,
                "midi": 72,
                "name": "C5",
                "ticks": 20640,
                "time": 26.06058,
                "velocity": 0.3779527559055118
              },
              {
                "duration": 0.08333324999999903,
                "durationTicks": 66,
                "midi": 74,
                "name": "D5",
                "ticks": 20700,
                "time": 26.136337500000003,
                "velocity": 0.3779527559055118
              },
              {
                "duration": 0.08333325000000258,
                "durationTicks": 66,
                "midi": 72,
                "name": "C5",
                "ticks": 20760,
                "time": 26.212095,
                "velocity": 0.3858267716535433
              },
              {
                "duration": 0.08333324999999903,
                "durationTicks": 66,
                "midi": 74,
                "name": "D5",
                "ticks": 20820,
                "time": 26.287852500000003,
                "velocity": 0.3858267716535433
              },
              {
                "duration": 0.08333325000000258,
                "durationTicks": 66,
                "midi": 72,
                "name": "C5",
                "ticks": 20880,
                "time": 26.36361,
                "velocity": 0.3858267716535433
              },
              {
                "duration": 0.08333324999999903,
                "durationTicks": 66,
                "midi": 74,
                "name": "D5",
                "ticks": 20940,
                "time": 26.439367500000003,
                "velocity": 0.3937007874015748
              },
              {
                "duration": 0.08333325000000258,
                "durationTicks": 66,
                "midi": 72,
                "name": "C5",
                "ticks": 21000,
                "time": 26.515125,
                "velocity": 0.3937007874015748
              },
              {
                "duration": 0.08333324999999903,
                "durationTicks": 66,
                "midi": 74,
                "name": "D5",
                "ticks": 21060,
                "time": 26.590882500000003,
                "velocity": 0.3937007874015748
              },
              {
                "duration": 0.08333325000000258,
                "durationTicks": 66,
                "midi": 72,
                "name": "C5",
                "ticks": 21120,
                "time": 26.66664,
                "velocity": 0.4015748031496063
              },
              {
                "duration": 0.08333325000000258,
                "durationTicks": 66,
                "midi": 74,
                "name": "D5",
                "ticks": 21180,
                "time": 26.742397500000003,
                "velocity": 0.4015748031496063
              },
              {
                "duration": 0.08333325000000258,
                "durationTicks": 66,
                "midi": 72,
                "name": "C5",
                "ticks": 21240,
                "time": 26.818155,
                "velocity": 0.4015748031496063
              },
              {
                "duration": 0.08333325000000258,
                "durationTicks": 66,
                "midi": 74,
                "name": "D5",
                "ticks": 21300,
                "time": 26.893912500000003,
                "velocity": 0.4094488188976378
              },
              {
                "duration": 0.08333325000000258,
                "durationTicks": 66,
                "midi": 72,
                "name": "C5",
                "ticks": 21360,
                "time": 26.96967,
                "velocity": 0.4094488188976378
              },
              {
                "duration": 0.08333325000000258,
                "durationTicks": 66,
                "midi": 74,
                "name": "D5",
                "ticks": 21420,
                "time": 27.045427500000002,
                "velocity": 0.4094488188976378
              },
              {
                "duration": 0.08333325000000258,
                "durationTicks": 66,
                "midi": 72,
                "name": "C5",
                "ticks": 21480,
                "time": 27.121185,
                "velocity": 0.41732283464566927
              },
              {
                "duration": 0.08333325000000258,
                "durationTicks": 66,
                "midi": 74,
                "name": "D5",
                "ticks": 21540,
                "time": 27.196942500000002,
                "velocity": 0.41732283464566927
              },
              {
                "duration": 0.08333325000000258,
                "durationTicks": 66,
                "midi": 72,
                "name": "C5",
                "ticks": 21600,
                "time": 27.2727,
                "velocity": 0.4251968503937008
              },
              {
                "duration": 0.08333325000000258,
                "durationTicks": 66,
                "midi": 74,
                "name": "D5",
                "ticks": 21660,
                "time": 27.348457500000002,
                "velocity": 0.4251968503937008
              },
              {
                "duration": 0.08333325000000258,
                "durationTicks": 66,
                "midi": 72,
                "name": "C5",
                "ticks": 21720,
                "time": 27.424215,
                "velocity": 0.4251968503937008
              },
              {
                "duration": 0.08333325000000258,
                "durationTicks": 66,
                "midi": 74,
                "name": "D5",
                "ticks": 21780,
                "time": 27.499972500000002,
                "velocity": 0.4330708661417323
              },
              {
                "duration": 0.08333324999999903,
                "durationTicks": 66,
                "midi": 72,
                "name": "C5",
                "ticks": 21840,
                "time": 27.575730000000004,
                "velocity": 0.4330708661417323
              },
              {
                "duration": 0.08333325000000258,
                "durationTicks": 66,
                "midi": 74,
                "name": "D5",
                "ticks": 21900,
                "time": 27.6514875,
                "velocity": 0.4330708661417323
              },
              {
                "duration": 0.08333324999999903,
                "durationTicks": 66,
                "midi": 72,
                "name": "C5",
                "ticks": 21960,
                "time": 27.727245000000003,
                "velocity": 0.4409448818897638
              },
              {
                "duration": 0.08333325000000258,
                "durationTicks": 66,
                "midi": 74,
                "name": "D5",
                "ticks": 22020,
                "time": 27.8030025,
                "velocity": 0.4409448818897638
              },
              {
                "duration": 0.08333324999999903,
                "durationTicks": 66,
                "midi": 72,
                "name": "C5",
                "ticks": 22080,
                "time": 27.878760000000003,
                "velocity": 0.4409448818897638
              },
              {
                "duration": 0.08333325000000258,
                "durationTicks": 66,
                "midi": 74,
                "name": "D5",
                "ticks": 22140,
                "time": 27.9545175,
                "velocity": 0.44881889763779526
              },
              {
                "duration": 0.08333324999999903,
                "durationTicks": 66,
                "midi": 72,
                "name": "C5",
                "ticks": 22200,
                "time": 28.030275000000003,
                "velocity": 0.44881889763779526
              },
              {
                "duration": 0.08333325000000258,
                "durationTicks": 66,
                "midi": 74,
                "name": "D5",
                "ticks": 22260,
                "time": 28.1060325,
                "velocity": 0.44881889763779526
              },
              {
                "duration": 0.08333324999999903,
                "durationTicks": 66,
                "midi": 72,
                "name": "C5",
                "ticks": 22320,
                "time": 28.181790000000003,
                "velocity": 0.4566929133858268
              },
              {
                "duration": 0.08333325000000258,
                "durationTicks": 66,
                "midi": 74,
                "name": "D5",
                "ticks": 22380,
                "time": 28.2575475,
                "velocity": 0.4566929133858268
              },
              {
                "duration": 0.08333325000000258,
                "durationTicks": 66,
                "midi": 72,
                "name": "C5",
                "ticks": 22440,
                "time": 28.333305000000003,
                "velocity": 0.4566929133858268
              },
              {
                "duration": 0.08333325000000258,
                "durationTicks": 66,
                "midi": 74,
                "name": "D5",
                "ticks": 22500,
                "time": 28.4090625,
                "velocity": 0.4645669291338583
              },
              {
                "duration": 0.08333325000000258,
                "durationTicks": 66,
                "midi": 72,
                "name": "C5",
                "ticks": 22560,
                "time": 28.484820000000003,
                "velocity": 0.4645669291338583
              },
              {
                "duration": 0.08333325000000258,
                "durationTicks": 66,
                "midi": 74,
                "name": "D5",
                "ticks": 22620,
                "time": 28.5605775,
                "velocity": 0.4645669291338583
              },
              {
                "duration": 0.08333325000000258,
                "durationTicks": 66,
                "midi": 71,
                "name": "B4",
                "ticks": 22680,
                "time": 28.636335000000003,
                "velocity": 0.5039370078740157
              },
              {
                "duration": 0.08333325000000258,
                "durationTicks": 66,
                "midi": 72,
                "name": "C5",
                "ticks": 22740,
                "time": 28.7120925,
                "velocity": 0.3779527559055118
              },
              {
                "duration": 0.08333325000000258,
                "durationTicks": 66,
                "midi": 71,
                "name": "B4",
                "ticks": 22800,
                "time": 28.787850000000002,
                "velocity": 0.3779527559055118
              },
              {
                "duration": 0.08333325000000258,
                "durationTicks": 66,
                "midi": 72,
                "name": "C5",
                "ticks": 22860,
                "time": 28.8636075,
                "velocity": 0.3779527559055118
              },
              {
                "duration": 0.08333325000000258,
                "durationTicks": 66,
                "midi": 71,
                "name": "B4",
                "ticks": 22920,
                "time": 28.939365000000002,
                "velocity": 0.3858267716535433
              },
              {
                "duration": 0.08333325000000258,
                "durationTicks": 66,
                "midi": 72,
                "name": "C5",
                "ticks": 22980,
                "time": 29.0151225,
                "velocity": 0.3858267716535433
              },
              {
                "duration": 0.08333325000000258,
                "durationTicks": 66,
                "midi": 71,
                "name": "B4",
                "ticks": 23040,
                "time": 29.090880000000002,
                "velocity": 0.3858267716535433
              },
              {
                "duration": 0.08333324999999903,
                "durationTicks": 66,
                "midi": 72,
                "name": "C5",
                "ticks": 23100,
                "time": 29.166637500000004,
                "velocity": 0.3937007874015748
              },
              {
                "duration": 0.08333325000000258,
                "durationTicks": 66,
                "midi": 71,
                "name": "B4",
                "ticks": 23160,
                "time": 29.242395000000002,
                "velocity": 0.3937007874015748
              },
              {
                "duration": 0.08333324999999903,
                "durationTicks": 66,
                "midi": 72,
                "name": "C5",
                "ticks": 23220,
                "time": 29.318152500000004,
                "velocity": 0.3937007874015748
              },
              {
                "duration": 0.08333325000000258,
                "durationTicks": 66,
                "midi": 71,
                "name": "B4",
                "ticks": 23280,
                "time": 29.39391,
                "velocity": 0.4015748031496063
              },
              {
                "duration": 0.08333324999999903,
                "durationTicks": 66,
                "midi": 72,
                "name": "C5",
                "ticks": 23340,
                "time": 29.469667500000003,
                "velocity": 0.4015748031496063
              },
              {
                "duration": 0.08333325000000258,
                "durationTicks": 66,
                "midi": 71,
                "name": "B4",
                "ticks": 23400,
                "time": 29.545425,
                "velocity": 0.4015748031496063
              },
              {
                "duration": 0.08333324999999903,
                "durationTicks": 66,
                "midi": 72,
                "name": "C5",
                "ticks": 23460,
                "time": 29.621182500000003,
                "velocity": 0.4094488188976378
              },
              {
                "duration": 0.08333325000000258,
                "durationTicks": 66,
                "midi": 71,
                "name": "B4",
                "ticks": 23520,
                "time": 29.69694,
                "velocity": 0.4094488188976378
              },
              {
                "duration": 0.08333324999999903,
                "durationTicks": 66,
                "midi": 72,
                "name": "C5",
                "ticks": 23580,
                "time": 29.772697500000003,
                "velocity": 0.4094488188976378
              },
              {
                "duration": 0.08333325000000258,
                "durationTicks": 66,
                "midi": 71,
                "name": "B4",
                "ticks": 23640,
                "time": 29.848455,
                "velocity": 0.41732283464566927
              },
              {
                "duration": 0.08333325000000258,
                "durationTicks": 66,
                "midi": 72,
                "name": "C5",
                "ticks": 23700,
                "time": 29.924212500000003,
                "velocity": 0.41732283464566927
              },
              {
                "duration": 0.08333325000000258,
                "durationTicks": 66,
                "midi": 71,
                "name": "B4",
                "ticks": 23760,
                "time": 29.99997,
                "velocity": 0.4251968503937008
              },
              {
                "duration": 0.08333325000000258,
                "durationTicks": 66,
                "midi": 72,
                "name": "C5",
                "ticks": 23820,
                "time": 30.075727500000003,
                "velocity": 0.4251968503937008
              },
              {
                "duration": 0.08333325000000258,
                "durationTicks": 66,
                "midi": 71,
                "name": "B4",
                "ticks": 23880,
                "time": 30.151485,
                "velocity": 0.4251968503937008
              },
              {
                "duration": 0.08333325000000258,
                "durationTicks": 66,
                "midi": 72,
                "name": "C5",
                "ticks": 23940,
                "time": 30.227242500000003,
                "velocity": 0.4330708661417323
              },
              {
                "duration": 0.08333325000000258,
                "durationTicks": 66,
                "midi": 71,
                "name": "B4",
                "ticks": 24000,
                "time": 30.303,
                "velocity": 0.4330708661417323
              },
              {
                "duration": 0.08333325000000258,
                "durationTicks": 66,
                "midi": 72,
                "name": "C5",
                "ticks": 24060,
                "time": 30.378757500000003,
                "velocity": 0.4330708661417323
              },
              {
                "duration": 0.08333325000000258,
                "durationTicks": 66,
                "midi": 71,
                "name": "B4",
                "ticks": 24120,
                "time": 30.454515,
                "velocity": 0.4409448818897638
              },
              {
                "duration": 0.08333325000000258,
                "durationTicks": 66,
                "midi": 72,
                "name": "C5",
                "ticks": 24180,
                "time": 30.530272500000002,
                "velocity": 0.4409448818897638
              },
              {
                "duration": 0.08333325000000258,
                "durationTicks": 66,
                "midi": 71,
                "name": "B4",
                "ticks": 24240,
                "time": 30.60603,
                "velocity": 0.4409448818897638
              },
              {
                "duration": 0.08333325000000258,
                "durationTicks": 66,
                "midi": 72,
                "name": "C5",
                "ticks": 24300,
                "time": 30.681787500000002,
                "velocity": 0.44881889763779526
              },
              {
                "duration": 0.08333324999999903,
                "durationTicks": 66,
                "midi": 71,
                "name": "B4",
                "ticks": 24360,
                "time": 30.757545000000004,
                "velocity": 0.44881889763779526
              },
              {
                "duration": 0.08333325000000258,
                "durationTicks": 66,
                "midi": 72,
                "name": "C5",
                "ticks": 24420,
                "time": 30.833302500000002,
                "velocity": 0.44881889763779526
              },
              {
                "duration": 0.08333324999999903,
                "durationTicks": 66,
                "midi": 71,
                "name": "B4",
                "ticks": 24480,
                "time": 30.909060000000004,
                "velocity": 0.4566929133858268
              },
              {
                "duration": 0.08333325000000258,
                "durationTicks": 66,
                "midi": 72,
                "name": "C5",
                "ticks": 24540,
                "time": 30.984817500000002,
                "velocity": 0.4566929133858268
              },
              {
                "duration": 0.08333324999999903,
                "durationTicks": 66,
                "midi": 71,
                "name": "B4",
                "ticks": 24600,
                "time": 31.060575000000004,
                "velocity": 0.4566929133858268
              },
              {
                "duration": 0.08333325000000258,
                "durationTicks": 66,
                "midi": 72,
                "name": "C5",
                "ticks": 24660,
                "time": 31.1363325,
                "velocity": 0.4645669291338583
              },
              {
                "duration": 0.08333324999999903,
                "durationTicks": 66,
                "midi": 71,
                "name": "B4",
                "ticks": 24720,
                "time": 31.212090000000003,
                "velocity": 0.4645669291338583
              },
              {
                "duration": 0.08333325000000258,
                "durationTicks": 66,
                "midi": 72,
                "name": "C5",
                "ticks": 24780,
                "time": 31.2878475,
                "velocity": 0.4645669291338583
              },
              {
                "duration": 0.15151499999999984,
                "durationTicks": 120,
                "midi": 71,
                "name": "B4",
                "ticks": 24840,
                "time": 31.363605000000003,
                "velocity": 0.5039370078740157
              },
              {
                "duration": 0.15151499999999984,
                "durationTicks": 120,
                "midi": 76,
                "name": "E5",
                "ticks": 24960,
                "time": 31.515120000000003,
                "velocity": 0.5039370078740157
              },
              {
                "duration": 0.15151499999999984,
                "durationTicks": 120,
                "midi": 74,
                "name": "D5",
                "ticks": 25080,
                "time": 31.666635000000003,
                "velocity": 0.5039370078740157
              },
              {
                "duration": 0.15151499999999984,
                "durationTicks": 120,
                "midi": 72,
                "name": "C5",
                "ticks": 25200,
                "time": 31.818150000000003,
                "velocity": 0.5039370078740157
              },
              {
                "duration": 0.15151499999999984,
                "durationTicks": 120,
                "midi": 74,
                "name": "D5",
                "ticks": 25320,
                "time": 31.969665000000003,
                "velocity": 0.5039370078740157
              },
              {
                "duration": 0.1515149999999963,
                "durationTicks": 120,
                "midi": 71,
                "name": "B4",
                "ticks": 25440,
                "time": 32.12118,
                "velocity": 0.5039370078740157
              },
              {
                "duration": 0.1515150000000034,
                "durationTicks": 120,
                "midi": 69,
                "name": "A4",
                "ticks": 25560,
                "time": 32.272695,
                "velocity": 0.5039370078740157
              },
              {
                "duration": 0.1515150000000034,
                "durationTicks": 120,
                "midi": 71,
                "name": "B4",
                "ticks": 25680,
                "time": 32.42421,
                "velocity": 0.5039370078740157
              },
              {
                "duration": 0.1515149999999963,
                "durationTicks": 120,
                "midi": 67,
                "name": "G4",
                "ticks": 25800,
                "time": 32.575725000000006,
                "velocity": 0.5039370078740157
              },
              {
                "duration": 0.1515150000000034,
                "durationTicks": 120,
                "midi": 69,
                "name": "A4",
                "ticks": 25920,
                "time": 32.72724,
                "velocity": 0.5039370078740157
              },
              {
                "duration": 0.1515149999999963,
                "durationTicks": 120,
                "midi": 72,
                "name": "C5",
                "ticks": 26040,
                "time": 32.878755000000005,
                "velocity": 0.5039370078740157
              },
              {
                "duration": 0.1515150000000034,
                "durationTicks": 120,
                "midi": 71,
                "name": "B4",
                "ticks": 26160,
                "time": 33.03027,
                "velocity": 0.5039370078740157
              },
              {
                "duration": 0.1515149999999963,
                "durationTicks": 120,
                "midi": 69,
                "name": "A4",
                "ticks": 26280,
                "time": 33.181785000000005,
                "velocity": 0.5039370078740157
              },
              {
                "duration": 0.1515150000000034,
                "durationTicks": 120,
                "midi": 71,
                "name": "B4",
                "ticks": 26400,
                "time": 33.3333,
                "velocity": 0.5039370078740157
              },
              {
                "duration": 0.1515149999999963,
                "durationTicks": 120,
                "midi": 67,
                "name": "G4",
                "ticks": 26520,
                "time": 33.484815000000005,
                "velocity": 0.5039370078740157
              },
              {
                "duration": 0.1515150000000034,
                "durationTicks": 120,
                "midi": 66,
                "name": "F#4",
                "ticks": 26640,
                "time": 33.63633,
                "velocity": 0.5039370078740157
              },
              {
                "duration": 0.1515149999999963,
                "durationTicks": 120,
                "midi": 67,
                "name": "G4",
                "ticks": 26760,
                "time": 33.787845000000004,
                "velocity": 0.5039370078740157
              },
              {
                "duration": 0.1515150000000034,
                "durationTicks": 120,
                "midi": 64,
                "name": "E4",
                "ticks": 26880,
                "time": 33.93936,
                "velocity": 0.5039370078740157
              },
              {
                "duration": 0.0757575000000017,
                "durationTicks": 60,
                "midi": 66,
                "name": "F#4",
                "ticks": 27000,
                "time": 34.090875000000004,
                "velocity": 0.5039370078740157
              },
              {
                "duration": 0.07575749999999459,
                "durationTicks": 60,
                "midi": 67,
                "name": "G4",
                "ticks": 27060,
                "time": 34.166632500000006,
                "velocity": 0.4409448818897638
              },
              {
                "duration": 0.1515150000000034,
                "durationTicks": 120,
                "midi": 66,
                "name": "F#4",
                "ticks": 27120,
                "time": 34.24239,
                "velocity": 0.5039370078740157
              },
              {
                "duration": 0.1515149999999963,
                "durationTicks": 120,
                "midi": 62,
                "name": "D4",
                "ticks": 27240,
                "time": 34.393905000000004,
                "velocity": 0.5039370078740157
              },
              {
                "duration": 0.0757575000000017,
                "durationTicks": 60,
                "midi": 69,
                "name": "A4",
                "ticks": 27360,
                "time": 34.54542,
                "velocity": 0.5039370078740157
              },
              {
                "duration": 0.0757575000000017,
                "durationTicks": 60,
                "midi": 71,
                "name": "B4",
                "ticks": 27420,
                "time": 34.6211775,
                "velocity": 0.4409448818897638
              },
              {
                "duration": 0.1515149999999963,
                "durationTicks": 120,
                "midi": 69,
                "name": "A4",
                "ticks": 27480,
                "time": 34.696935,
                "velocity": 0.5039370078740157
              },
              {
                "duration": 0.1515150000000034,
                "durationTicks": 120,
                "midi": 66,
                "name": "F#4",
                "ticks": 27600,
                "time": 34.84845,
                "velocity": 0.5039370078740157
              },
              {
                "duration": 0.0757575000000017,
                "durationTicks": 60,
                "midi": 74,
                "name": "D5",
                "ticks": 27720,
                "time": 34.999965,
                "velocity": 0.5039370078740157
              },
              {
                "duration": 0.07575749999999459,
                "durationTicks": 60,
                "midi": 76,
                "name": "E5",
                "ticks": 27780,
                "time": 35.075722500000005,
                "velocity": 0.4409448818897638
              },
              {
                "duration": 0.1515150000000034,
                "durationTicks": 120,
                "midi": 74,
                "name": "D5",
                "ticks": 27840,
                "time": 35.15148,
                "velocity": 0.5039370078740157
              },
              {
                "duration": 0.1515149999999963,
                "durationTicks": 120,
                "midi": 66,
                "name": "F#4",
                "ticks": 27960,
                "time": 35.302995,
                "velocity": 0.5039370078740157
              },
              {
                "duration": 0.1515150000000034,
                "durationTicks": 120,
                "midi": 67,
                "name": "G4",
                "ticks": 28080,
                "time": 35.45451,
                "velocity": 0.6771653543307087
              },
              {
                "duration": 0.1515150000000034,
                "durationTicks": 120,
                "midi": 71,
                "name": "B4",
                "ticks": 28200,
                "time": 35.606025,
                "velocity": 0.6377952755905512
              },
              {
                "duration": 0.1515149999999963,
                "durationTicks": 120,
                "midi": 74,
                "name": "D5",
                "ticks": 28320,
                "time": 35.757540000000006,
                "velocity": 0.5984251968503937
              },
              {
                "duration": 0.1515150000000034,
                "durationTicks": 120,
                "midi": 71,
                "name": "B4",
                "ticks": 28440,
                "time": 35.909055,
                "velocity": 0.6771653543307087
              },
              {
                "duration": 0.1515149999999963,
                "durationTicks": 120,
                "midi": 67,
                "name": "G4",
                "ticks": 28560,
                "time": 36.060570000000006,
                "velocity": 0.6299212598425197
              },
              {
                "duration": 0.1515150000000034,
                "durationTicks": 120,
                "midi": 74,
                "name": "D5",
                "ticks": 28680,
                "time": 36.212085,
                "velocity": 0.6614173228346457
              },
              {
                "duration": 0.1515149999999963,
                "durationTicks": 120,
                "midi": 71,
                "name": "B4",
                "ticks": 28800,
                "time": 36.363600000000005,
                "velocity": 0.6614173228346457
              },
              {
                "duration": 0.1515150000000034,
                "durationTicks": 120,
                "midi": 67,
                "name": "G4",
                "ticks": 28920,
                "time": 36.515115,
                "velocity": 0.6299212598425197
              },
              {
                "duration": 0.1515149999999963,
                "durationTicks": 120,
                "midi": 79,
                "name": "G5",
                "ticks": 29040,
                "time": 36.666630000000005,
                "velocity": 0.6299212598425197
              },
              {
                "duration": 0.1515150000000034,
                "durationTicks": 120,
                "midi": 74,
                "name": "D5",
                "ticks": 29160,
                "time": 36.818145,
                "velocity": 0.6377952755905512
              },
              {
                "duration": 0.1515149999999963,
                "durationTicks": 120,
                "midi": 78,
                "name": "F#5",
                "ticks": 29280,
                "time": 36.969660000000005,
                "velocity": 0.6692913385826772
              },
              {
                "duration": 0.1515150000000034,
                "durationTicks": 120,
                "midi": 81,
                "name": "A5",
                "ticks": 29400,
                "time": 37.121175,
                "velocity": 0.6299212598425197
              },
              {
                "duration": 0.1515149999999963,
                "durationTicks": 120,
                "midi": 78,
                "name": "F#5",
                "ticks": 29520,
                "time": 37.272690000000004,
                "velocity": 0.5433070866141733
              },
              {
                "duration": 0.1515150000000034,
                "durationTicks": 120,
                "midi": 74,
                "name": "D5",
                "ticks": 29640,
                "time": 37.424205,
                "velocity": 0.6299212598425197
              },
              {
                "duration": 0.1515149999999963,
                "durationTicks": 120,
                "midi": 81,
                "name": "A5",
                "ticks": 29760,
                "time": 37.575720000000004,
                "velocity": 0.6771653543307087
              },
              {
                "duration": 0.1515150000000034,
                "durationTicks": 120,
                "midi": 78,
                "name": "F#5",
                "ticks": 29880,
                "time": 37.727235,
                "velocity": 0.5669291338582677
              },
              {
                "duration": 0.1515149999999963,
                "durationTicks": 120,
                "midi": 74,
                "name": "D5",
                "ticks": 30000,
                "time": 37.878750000000004,
                "velocity": 0.6456692913385826
              },
              {
                "duration": 0.1515150000000034,
                "durationTicks": 120,
                "midi": 84,
                "name": "C6",
                "ticks": 30120,
                "time": 38.030265,
                "velocity": 0.6456692913385826
              },
              {
                "duration": 0.1515149999999963,
                "durationTicks": 120,
                "midi": 83,
                "name": "B5",
                "ticks": 30240,
                "time": 38.18178,
                "velocity": 0.5039370078740157
              },
              {
                "duration": 0.1515150000000034,
                "durationTicks": 120,
                "midi": 81,
                "name": "A5",
                "ticks": 30360,
                "time": 38.333295,
                "velocity": 0.5039370078740157
              },
              {
                "duration": 0.1515149999999963,
                "durationTicks": 120,
                "midi": 79,
                "name": "G5",
                "ticks": 30480,
                "time": 38.48481,
                "velocity": 0.5039370078740157
              },
              {
                "duration": 0.1515150000000034,
                "durationTicks": 120,
                "midi": 78,
                "name": "F#5",
                "ticks": 30600,
                "time": 38.636325,
                "velocity": 0.5039370078740157
              },
              {
                "duration": 0.1515150000000034,
                "durationTicks": 120,
                "midi": 79,
                "name": "G5",
                "ticks": 30720,
                "time": 38.78784,
                "velocity": 0.5039370078740157
              },
              {
                "duration": 0.1515149999999963,
                "durationTicks": 120,
                "midi": 81,
                "name": "A5",
                "ticks": 30840,
                "time": 38.939355000000006,
                "velocity": 0.5039370078740157
              },
              {
                "duration": 0.1515150000000034,
                "durationTicks": 120,
                "midi": 74,
                "name": "D5",
                "ticks": 30960,
                "time": 39.09087,
                "velocity": 0.5039370078740157
              },
              {
                "duration": 0.1515149999999963,
                "durationTicks": 120,
                "midi": 79,
                "name": "G5",
                "ticks": 31080,
                "time": 39.242385000000006,
                "velocity": 0.5039370078740157
              },
              {
                "duration": 0.1515150000000034,
                "durationTicks": 120,
                "midi": 78,
                "name": "F#5",
                "ticks": 31200,
                "time": 39.3939,
                "velocity": 0.5039370078740157
              },
              {
                "duration": 0.1515149999999963,
                "durationTicks": 120,
                "midi": 79,
                "name": "G5",
                "ticks": 31320,
                "time": 39.545415000000006,
                "velocity": 0.5039370078740157
              },
              {
                "duration": 0.1515150000000034,
                "durationTicks": 120,
                "midi": 78,
                "name": "F#5",
                "ticks": 31440,
                "time": 39.69693,
                "velocity": 0.5039370078740157
              },
              {
                "duration": 0.1515149999999963,
                "durationTicks": 120,
                "midi": 76,
                "name": "E5",
                "ticks": 31560,
                "time": 39.848445000000005,
                "velocity": 0.5039370078740157
              },
              {
                "duration": 0.1515150000000034,
                "durationTicks": 120,
                "midi": 74,
                "name": "D5",
                "ticks": 31680,
                "time": 39.99996,
                "velocity": 0.5039370078740157
              },
              {
                "duration": 0.1515149999999963,
                "durationTicks": 120,
                "midi": 72,
                "name": "C5",
                "ticks": 31800,
                "time": 40.151475000000005,
                "velocity": 0.5039370078740157
              },
              {
                "duration": 0.1515150000000034,
                "durationTicks": 120,
                "midi": 71,
                "name": "B4",
                "ticks": 31920,
                "time": 40.30299,
                "velocity": 0.5039370078740157
              },
              {
                "duration": 0.1515149999999963,
                "durationTicks": 120,
                "midi": 69,
                "name": "A4",
                "ticks": 32040,
                "time": 40.454505000000005,
                "velocity": 0.5039370078740157
              },
              {
                "duration": 0.1515150000000034,
                "durationTicks": 120,
                "midi": 71,
                "name": "B4",
                "ticks": 32160,
                "time": 40.60602,
                "velocity": 0.5039370078740157
              },
              {
                "duration": 0.1515149999999963,
                "durationTicks": 120,
                "midi": 72,
                "name": "C5",
                "ticks": 32280,
                "time": 40.757535000000004,
                "velocity": 0.5039370078740157
              },
              {
                "duration": 0.1515150000000034,
                "durationTicks": 120,
                "midi": 71,
                "name": "B4",
                "ticks": 32400,
                "time": 40.90905,
                "velocity": 0.5039370078740157
              },
              {
                "duration": 0.1515149999999963,
                "durationTicks": 120,
                "midi": 69,
                "name": "A4",
                "ticks": 32520,
                "time": 41.060565000000004,
                "velocity": 0.5039370078740157
              },
              {
                "duration": 0.1515150000000034,
                "durationTicks": 120,
                "midi": 67,
                "name": "G4",
                "ticks": 32640,
                "time": 41.21208,
                "velocity": 0.5039370078740157
              },
              {
                "duration": 0.1515149999999963,
                "durationTicks": 120,
                "midi": 66,
                "name": "F#4",
                "ticks": 32760,
                "time": 41.363595000000004,
                "velocity": 0.5039370078740157
              },
              {
                "duration": 0.1515150000000034,
                "durationTicks": 120,
                "midi": 67,
                "name": "G4",
                "ticks": 32880,
                "time": 41.51511,
                "velocity": 0.5039370078740157
              },
              {
                "duration": 0.1515149999999963,
                "durationTicks": 120,
                "midi": 69,
                "name": "A4",
                "ticks": 33000,
                "time": 41.666625,
                "velocity": 0.5039370078740157
              },
              {
                "duration": 0.1515150000000034,
                "durationTicks": 120,
                "midi": 62,
                "name": "D4",
                "ticks": 33120,
                "time": 41.81814,
                "velocity": 0.5039370078740157
              },
              {
                "duration": 0.1515150000000034,
                "durationTicks": 120,
                "midi": 67,
                "name": "G4",
                "ticks": 33240,
                "time": 41.969655,
                "velocity": 0.5039370078740157
              },
              {
                "duration": 0.1515149999999963,
                "durationTicks": 120,
                "midi": 66,
                "name": "F#4",
                "ticks": 33360,
                "time": 42.121170000000006,
                "velocity": 0.5039370078740157
              },
              {
                "duration": 0.1515150000000034,
                "durationTicks": 120,
                "midi": 67,
                "name": "G4",
                "ticks": 33480,
                "time": 42.272685,
                "velocity": 0.5039370078740157
              },
              {
                "duration": 0.1515149999999963,
                "durationTicks": 120,
                "midi": 62,
                "name": "D4",
                "ticks": 33600,
                "time": 42.424200000000006,
                "velocity": 0.5039370078740157
              },
              {
                "duration": 0.1515150000000034,
                "durationTicks": 120,
                "midi": 59,
                "name": "B3",
                "ticks": 33720,
                "time": 42.575715,
                "velocity": 0.5039370078740157
              },
              {
                "duration": 1.136362499999997,
                "durationTicks": 900,
                "midi": 55,
                "name": "G3",
                "ticks": 33840,
                "time": 42.727230000000006,
                "velocity": 0.5039370078740157
              }
            ],
            "endOfTrackTicks": 34740
          },
          {
            "channel": 1,
            "controlChanges": {},
            "pitchBends": [],
            "instrument": {
              "family": "piano",
              "number": 0,
              "name": "acoustic grand piano"
            },
            "name": "",
            "notes": [
              {
                "duration": 0.15151500000000007,
                "durationTicks": 120,
                "midi": 50,
                "name": "D3",
                "ticks": 1080,
                "time": 1.3636350000000002,
                "velocity": 0.5039370078740157
              },
              {
                "duration": 0.15151499999999984,
                "durationTicks": 120,
                "midi": 54,
                "name": "F#3",
                "ticks": 1200,
                "time": 1.5151500000000002,
                "velocity": 0.5039370078740157
              },
              {
                "duration": 0.15151500000000007,
                "durationTicks": 120,
                "midi": 57,
                "name": "A3",
                "ticks": 1320,
                "time": 1.666665,
                "velocity": 0.5039370078740157
              },
              {
                "duration": 0.15151500000000007,
                "durationTicks": 120,
                "midi": 54,
                "name": "F#3",
                "ticks": 1440,
                "time": 1.8181800000000001,
                "velocity": 0.5039370078740157
              },
              {
                "duration": 0.15151499999999984,
                "durationTicks": 120,
                "midi": 50,
                "name": "D3",
                "ticks": 1560,
                "time": 1.9696950000000002,
                "velocity": 0.5039370078740157
              },
              {
                "duration": 0.1515150000000003,
                "durationTicks": 120,
                "midi": 57,
                "name": "A3",
                "ticks": 1680,
                "time": 2.12121,
                "velocity": 0.5039370078740157
              },
              {
                "duration": 0.15151499999999984,
                "durationTicks": 120,
                "midi": 54,
                "name": "F#3",
                "ticks": 1800,
                "time": 2.2727250000000003,
                "velocity": 0.5039370078740157
              },
              {
                "duration": 0.15151499999999984,
                "durationTicks": 120,
                "midi": 50,
                "name": "D3",
                "ticks": 1920,
                "time": 2.42424,
                "velocity": 0.5039370078740157
              },
              {
                "duration": 0.1515150000000003,
                "durationTicks": 120,
                "midi": 60,
                "name": "C4",
                "ticks": 2040,
                "time": 2.575755,
                "velocity": 0.5039370078740157
              },
              {
                "duration": 0.07575749999999992,
                "durationTicks": 60,
                "midi": 59,
                "name": "B3",
                "ticks": 2160,
                "time": 2.7272700000000003,
                "velocity": 0.5039370078740157
              },
              {
                "duration": 0.07575749999999992,
                "durationTicks": 60,
                "midi": 60,
                "name": "C4",
                "ticks": 2220,
                "time": 2.8030275000000002,
                "velocity": 0.4409448818897638
              },
              {
                "duration": 0.1515150000000003,
                "durationTicks": 120,
                "midi": 59,
                "name": "B3",
                "ticks": 2280,
                "time": 2.878785,
                "velocity": 0.5039370078740157
              },
              {
                "duration": 0.15151499999999984,
                "durationTicks": 120,
                "midi": 55,
                "name": "G3",
                "ticks": 2400,
                "time": 3.0303000000000004,
                "velocity": 0.5039370078740157
              },
              {
                "duration": 0.15151499999999984,
                "durationTicks": 120,
                "midi": 62,
                "name": "D4",
                "ticks": 2520,
                "time": 3.1818150000000003,
                "velocity": 0.5039370078740157
              },
              {
                "duration": 0.1515150000000003,
                "durationTicks": 120,
                "midi": 59,
                "name": "B3",
                "ticks": 2640,
                "time": 3.33333,
                "velocity": 0.5039370078740157
              },
              {
                "duration": 0.15151499999999984,
                "durationTicks": 120,
                "midi": 55,
                "name": "G3",
                "ticks": 2760,
                "time": 3.4848450000000004,
                "velocity": 0.5039370078740157
              },
              {
                "duration": 0.15151499999999984,
                "durationTicks": 120,
                "midi": 62,
                "name": "D4",
                "ticks": 2880,
                "time": 3.6363600000000003,
                "velocity": 0.5039370078740157
              },
              {
                "duration": 0.1515150000000003,
                "durationTicks": 120,
                "midi": 59,
                "name": "B3",
                "ticks": 3000,
                "time": 3.787875,
                "velocity": 0.5039370078740157
              },
              {
                "duration": 0.15151499999999984,
                "durationTicks": 120,
                "midi": 55,
                "name": "G3",
                "ticks": 3120,
                "time": 3.9393900000000004,
                "velocity": 0.5039370078740157
              },
              {
                "duration": 0.15151499999999984,
                "durationTicks": 120,
                "midi": 60,
                "name": "C4",
                "ticks": 3240,
                "time": 4.090905,
                "velocity": 0.5039370078740157
              },
              {
                "duration": 0.15151499999999984,
                "durationTicks": 120,
                "midi": 64,
                "name": "E4",
                "ticks": 3360,
                "time": 4.24242,
                "velocity": 0.5039370078740157
              },
              {
                "duration": 0.15151500000000073,
                "durationTicks": 120,
                "midi": 60,
                "name": "C4",
                "ticks": 3480,
                "time": 4.393935,
                "velocity": 0.5039370078740157
              },
              {
                "duration": 0.15151499999999984,
                "durationTicks": 120,
                "midi": 57,
                "name": "A3",
                "ticks": 3600,
                "time": 4.545450000000001,
                "velocity": 0.5039370078740157
              },
              {
                "duration": 0.15151499999999984,
                "durationTicks": 120,
                "midi": 60,
                "name": "C4",
                "ticks": 3720,
                "time": 4.6969650000000005,
                "velocity": 0.5039370078740157
              },
              {
                "duration": 0.15151499999999984,
                "durationTicks": 120,
                "midi": 57,
                "name": "A3",
                "ticks": 3840,
                "time": 4.84848,
                "velocity": 0.5039370078740157
              },
              {
                "duration": 0.15151499999999984,
                "durationTicks": 120,
                "midi": 54,
                "name": "F#3",
                "ticks": 3960,
                "time": 4.999995,
                "velocity": 0.5039370078740157
              },
              {
                "duration": 0.15151500000000073,
                "durationTicks": 120,
                "midi": 55,
                "name": "G3",
                "ticks": 4080,
                "time": 5.15151,
                "velocity": 0.5039370078740157
              },
              {
                "duration": 0.15151499999999984,
                "durationTicks": 120,
                "midi": 57,
                "name": "A3",
                "ticks": 4200,
                "time": 5.303025000000001,
                "velocity": 0.5039370078740157
              },
              {
                "duration": 0.15151499999999984,
                "durationTicks": 120,
                "midi": 59,
                "name": "B3",
                "ticks": 4320,
                "time": 5.454540000000001,
                "velocity": 0.5039370078740157
              },
              {
                "duration": 0.15151499999999984,
                "durationTicks": 120,
                "midi": 62,
                "name": "D4",
                "ticks": 4440,
                "time": 5.6060550000000005,
                "velocity": 0.5039370078740157
              },
              {
                "duration": 0.15151499999999984,
                "durationTicks": 120,
                "midi": 59,
                "name": "B3",
                "ticks": 4560,
                "time": 5.75757,
                "velocity": 0.5039370078740157
              },
              {
                "duration": 0.15151500000000073,
                "durationTicks": 120,
                "midi": 55,
                "name": "G3",
                "ticks": 4680,
                "time": 5.909085,
                "velocity": 0.5039370078740157
              },
              {
                "duration": 0.15151499999999984,
                "durationTicks": 120,
                "midi": 59,
                "name": "B3",
                "ticks": 4800,
                "time": 6.060600000000001,
                "velocity": 0.5039370078740157
              },
              {
                "duration": 0.15151499999999984,
                "durationTicks": 120,
                "midi": 55,
                "name": "G3",
                "ticks": 4920,
                "time": 6.212115000000001,
                "velocity": 0.5039370078740157
              },
              {
                "duration": 0.15151499999999984,
                "durationTicks": 120,
                "midi": 52,
                "name": "E3",
                "ticks": 5040,
                "time": 6.363630000000001,
                "velocity": 0.5039370078740157
              },
              {
                "duration": 0.15151499999999984,
                "durationTicks": 120,
                "midi": 54,
                "name": "F#3",
                "ticks": 5160,
                "time": 6.515145,
                "velocity": 0.5039370078740157
              },
              {
                "duration": 0.15151499999999984,
                "durationTicks": 120,
                "midi": 55,
                "name": "G3",
                "ticks": 5280,
                "time": 6.66666,
                "velocity": 0.5039370078740157
              },
              {
                "duration": 0.15151500000000073,
                "durationTicks": 120,
                "midi": 57,
                "name": "A3",
                "ticks": 5400,
                "time": 6.818175,
                "velocity": 0.5039370078740157
              },
              {
                "duration": 0.15151499999999984,
                "durationTicks": 120,
                "midi": 60,
                "name": "C4",
                "ticks": 5520,
                "time": 6.969690000000001,
                "velocity": 0.5039370078740157
              },
              {
                "duration": 0.15151499999999984,
                "durationTicks": 120,
                "midi": 57,
                "name": "A3",
                "ticks": 5640,
                "time": 7.121205000000001,
                "velocity": 0.5039370078740157
              },
              {
                "duration": 0.15151499999999984,
                "durationTicks": 120,
                "midi": 54,
                "name": "F#3",
                "ticks": 5760,
                "time": 7.2727200000000005,
                "velocity": 0.5039370078740157
              },
              {
                "duration": 0.15151499999999984,
                "durationTicks": 120,
                "midi": 57,
                "name": "A3",
                "ticks": 5880,
                "time": 7.424235,
                "velocity": 0.5039370078740157
              },
              {
                "duration": 0.15151500000000073,
                "durationTicks": 120,
                "midi": 54,
                "name": "F#3",
                "ticks": 6000,
                "time": 7.57575,
                "velocity": 0.5039370078740157
              },
              {
                "duration": 0.15151499999999984,
                "durationTicks": 120,
                "midi": 50,
                "name": "D3",
                "ticks": 6120,
                "time": 7.727265000000001,
                "velocity": 0.5039370078740157
              },
              {
                "duration": 0.15151499999999984,
                "durationTicks": 120,
                "midi": 52,
                "name": "E3",
                "ticks": 6240,
                "time": 7.878780000000001,
                "velocity": 0.5039370078740157
              },
              {
                "duration": 0.15151499999999984,
                "durationTicks": 120,
                "midi": 54,
                "name": "F#3",
                "ticks": 6360,
                "time": 8.030295,
                "velocity": 0.5039370078740157
              },
              {
                "duration": 0.07575749999999992,
                "durationTicks": 60,
                "midi": 55,
                "name": "G3",
                "ticks": 6480,
                "time": 8.18181,
                "velocity": 0.5039370078740157
              },
              {
                "duration": 0.07575749999999992,
                "durationTicks": 60,
                "midi": 54,
                "name": "F#3",
                "ticks": 6540,
                "time": 8.2575675,
                "velocity": 0.4409448818897638
              },
              {
                "duration": 0.45454499999999953,
                "durationTicks": 360,
                "midi": 55,
                "name": "G3",
                "ticks": 6600,
                "time": 8.333325,
                "velocity": 0.5039370078740157
              },
              {
                "duration": 0.15151500000000162,
                "durationTicks": 120,
                "midi": 54,
                "name": "F#3",
                "ticks": 6960,
                "time": 8.78787,
                "velocity": 0.5039370078740157
              },
              {
                "duration": 0.15151499999999984,
                "durationTicks": 120,
                "midi": 52,
                "name": "E3",
                "ticks": 7080,
                "time": 8.939385000000001,
                "velocity": 0.5039370078740157
              },
              {
                "duration": 0.15151499999999984,
                "durationTicks": 120,
                "midi": 50,
                "name": "D3",
                "ticks": 7200,
                "time": 9.090900000000001,
                "velocity": 0.5039370078740157
              },
              {
                "duration": 0.15151499999999984,
                "durationTicks": 120,
                "midi": 52,
                "name": "E3",
                "ticks": 7320,
                "time": 9.242415000000001,
                "velocity": 0.5039370078740157
              },
              {
                "duration": 0.15151499999999984,
                "durationTicks": 120,
                "midi": 49,
                "name": "C#3",
                "ticks": 7440,
                "time": 9.393930000000001,
                "velocity": 0.5039370078740157
              },
              {
                "duration": 0.07575749999999992,
                "durationTicks": 60,
                "midi": 54,
                "name": "F#3",
                "ticks": 7560,
                "time": 9.545445,
                "velocity": 0.5039370078740157
              },
              {
                "duration": 0.07575749999999992,
                "durationTicks": 60,
                "midi": 52,
                "name": "E3",
                "ticks": 7620,
                "time": 9.6212025,
                "velocity": 0.4409448818897638
              },
              {
                "duration": 0.45454499999999953,
                "durationTicks": 360,
                "midi": 54,
                "name": "F#3",
                "ticks": 7680,
                "time": 9.69696,
                "velocity": 0.5039370078740157
              },
              {
                "duration": 0.15151499999999984,
                "durationTicks": 120,
                "midi": 52,
                "name": "E3",
                "ticks": 8040,
                "time": 10.151505,
                "velocity": 0.5039370078740157
              },
              {
                "duration": 0.15151499999999984,
                "durationTicks": 120,
                "midi": 50,
                "name": "D3",
                "ticks": 8160,
                "time": 10.30302,
                "velocity": 0.5039370078740157
              },
              {
                "duration": 0.15151500000000162,
                "durationTicks": 120,
                "midi": 49,
                "name": "C#3",
                "ticks": 8280,
                "time": 10.454535,
                "velocity": 0.5039370078740157
              },
              {
                "duration": 0.15151499999999984,
                "durationTicks": 120,
                "midi": 50,
                "name": "D3",
                "ticks": 8400,
                "time": 10.606050000000002,
                "velocity": 0.5039370078740157
              },
              {
                "duration": 0.15151499999999984,
                "durationTicks": 120,
                "midi": 47,
                "name": "B2",
                "ticks": 8520,
                "time": 10.757565000000001,
                "velocity": 0.5039370078740157
              },
              {
                "duration": 0.15151499999999984,
                "durationTicks": 120,
                "midi": 52,
                "name": "E3",
                "ticks": 8640,
                "time": 10.909080000000001,
                "velocity": 0.5039370078740157
              },
              {
                "duration": 0.15151499999999984,
                "durationTicks": 120,
                "midi": 54,
                "name": "F#3",
                "ticks": 8760,
                "time": 11.060595000000001,
                "velocity": 0.5039370078740157
              },
              {
                "duration": 0.15151499999999984,
                "durationTicks": 120,
                "midi": 55,
                "name": "G3",
                "ticks": 8880,
                "time": 11.212110000000001,
                "velocity": 0.5039370078740157
              },
              {
                "duration": 0.15151499999999984,
                "durationTicks": 120,
                "midi": 57,
                "name": "A3",
                "ticks": 9000,
                "time": 11.363625,
                "velocity": 0.5039370078740157
              },
              {
                "duration": 0.15151499999999984,
                "durationTicks": 120,
                "midi": 52,
                "name": "E3",
                "ticks": 9120,
                "time": 11.51514,
                "velocity": 0.5039370078740157
              },
              {
                "duration": 0.15151499999999984,
                "durationTicks": 120,
                "midi": 61,
                "name": "C#4",
                "ticks": 9240,
                "time": 11.666655,
                "velocity": 0.5039370078740157
              },
              {
                "duration": 0.15151499999999984,
                "durationTicks": 120,
                "midi": 57,
                "name": "A3",
                "ticks": 9360,
                "time": 11.81817,
                "velocity": 0.5039370078740157
              },
              {
                "duration": 0.15151500000000162,
                "durationTicks": 120,
                "midi": 52,
                "name": "E3",
                "ticks": 9480,
                "time": 11.969685,
                "velocity": 0.5039370078740157
              },
              {
                "duration": 0.15151499999999984,
                "durationTicks": 120,
                "midi": 61,
                "name": "C#4",
                "ticks": 9600,
                "time": 12.121200000000002,
                "velocity": 0.5039370078740157
              },
              {
                "duration": 0.07575749999999992,
                "durationTicks": 60,
                "midi": 62,
                "name": "D4",
                "ticks": 9720,
                "time": 12.272715000000002,
                "velocity": 0.5039370078740157
              },
              {
                "duration": 0.07575749999999992,
                "durationTicks": 60,
                "midi": 61,
                "name": "C#4",
                "ticks": 9780,
                "time": 12.348472500000002,
                "velocity": 0.4409448818897638
              },
              {
                "duration": 0.45454499999999953,
                "durationTicks": 360,
                "midi": 62,
                "name": "D4",
                "ticks": 9840,
                "time": 12.424230000000001,
                "velocity": 0.5039370078740157
              },
              {
                "duration": 0.15151499999999984,
                "durationTicks": 120,
                "midi": 50,
                "name": "D3",
                "ticks": 10200,
                "time": 12.878775000000001,
                "velocity": 0.5039370078740157
              },
              {
                "duration": 0.15151499999999984,
                "durationTicks": 120,
                "midi": 52,
                "name": "E3",
                "ticks": 10320,
                "time": 13.03029,
                "velocity": 0.5039370078740157
              },
              {
                "duration": 0.15151499999999984,
                "durationTicks": 120,
                "midi": 54,
                "name": "F#3",
                "ticks": 10440,
                "time": 13.181805,
                "velocity": 0.5039370078740157
              },
              {
                "duration": 0.15151499999999984,
                "durationTicks": 120,
                "midi": 52,
                "name": "E3",
                "ticks": 10560,
                "time": 13.33332,
                "velocity": 0.5039370078740157
              },
              {
                "duration": 0.15151499999999984,
                "durationTicks": 120,
                "midi": 50,
                "name": "D3",
                "ticks": 10680,
                "time": 13.484835,
                "velocity": 0.5039370078740157
              },
              {
                "duration": 0.07575749999999992,
                "durationTicks": 60,
                "midi": 55,
                "name": "G3",
                "ticks": 10800,
                "time": 13.63635,
                "velocity": 0.5039370078740157
              },
              {
                "duration": 0.0757575000000017,
                "durationTicks": 60,
                "midi": 54,
                "name": "F#3",
                "ticks": 10860,
                "time": 13.7121075,
                "velocity": 0.4409448818897638
              },
              {
                "duration": 0.45454499999999953,
                "durationTicks": 360,
                "midi": 55,
                "name": "G3",
                "ticks": 10920,
                "time": 13.787865000000002,
                "velocity": 0.5039370078740157
              },
              {
                "duration": 0.15151499999999984,
                "durationTicks": 120,
                "midi": 52,
                "name": "E3",
                "ticks": 11280,
                "time": 14.242410000000001,
                "velocity": 0.5039370078740157
              },
              {
                "duration": 0.15151499999999984,
                "durationTicks": 120,
                "midi": 54,
                "name": "F#3",
                "ticks": 11400,
                "time": 14.393925000000001,
                "velocity": 0.5039370078740157
              },
              {
                "duration": 0.15151499999999984,
                "durationTicks": 120,
                "midi": 55,
                "name": "G3",
                "ticks": 11520,
                "time": 14.545440000000001,
                "velocity": 0.5039370078740157
              },
              {
                "duration": 0.15151499999999984,
                "durationTicks": 120,
                "midi": 54,
                "name": "F#3",
                "ticks": 11640,
                "time": 14.696955,
                "velocity": 0.5039370078740157
              },
              {
                "duration": 0.15151499999999984,
                "durationTicks": 120,
                "midi": 52,
                "name": "E3",
                "ticks": 11760,
                "time": 14.84847,
                "velocity": 0.5039370078740157
              },
              {
                "duration": 0.07575749999999992,
                "durationTicks": 60,
                "midi": 57,
                "name": "A3",
                "ticks": 11880,
                "time": 14.999985,
                "velocity": 0.5039370078740157
              },
              {
                "duration": 0.07575749999999992,
                "durationTicks": 60,
                "midi": 55,
                "name": "G3",
                "ticks": 11940,
                "time": 15.0757425,
                "velocity": 0.4409448818897638
              },
              {
                "duration": 0.4545450000000013,
                "durationTicks": 360,
                "midi": 57,
                "name": "A3",
                "ticks": 12000,
                "time": 15.1515,
                "velocity": 0.5039370078740157
              },
              {
                "duration": 0.15151499999999984,
                "durationTicks": 120,
                "midi": 55,
                "name": "G3",
                "ticks": 12360,
                "time": 15.606045000000002,
                "velocity": 0.5039370078740157
              },
              {
                "duration": 0.15151499999999984,
                "durationTicks": 120,
                "midi": 54,
                "name": "F#3",
                "ticks": 12480,
                "time": 15.757560000000002,
                "velocity": 0.5039370078740157
              },
              {
                "duration": 0.15151499999999984,
                "durationTicks": 120,
                "midi": 52,
                "name": "E3",
                "ticks": 12600,
                "time": 15.909075000000001,
                "velocity": 0.5039370078740157
              },
              {
                "duration": 0.15151499999999984,
                "durationTicks": 120,
                "midi": 50,
                "name": "D3",
                "ticks": 12720,
                "time": 16.06059,
                "velocity": 0.5039370078740157
              },
              {
                "duration": 0.15151499999999984,
                "durationTicks": 120,
                "midi": 49,
                "name": "C#3",
                "ticks": 12840,
                "time": 16.212105,
                "velocity": 0.5039370078740157
              },
              {
                "duration": 0.15151499999999984,
                "durationTicks": 120,
                "midi": 50,
                "name": "D3",
                "ticks": 12960,
                "time": 16.36362,
                "velocity": 0.5039370078740157
              },
              {
                "duration": 0.15151499999999984,
                "durationTicks": 120,
                "midi": 52,
                "name": "E3",
                "ticks": 13080,
                "time": 16.515135,
                "velocity": 0.5039370078740157
              },
              {
                "duration": 0.15151499999999984,
                "durationTicks": 120,
                "midi": 54,
                "name": "F#3",
                "ticks": 13200,
                "time": 16.66665,
                "velocity": 0.5039370078740157
              },
              {
                "duration": 0.15151499999999984,
                "durationTicks": 120,
                "midi": 55,
                "name": "G3",
                "ticks": 13320,
                "time": 16.818165,
                "velocity": 0.5039370078740157
              },
              {
                "duration": 0.15151499999999984,
                "durationTicks": 120,
                "midi": 57,
                "name": "A3",
                "ticks": 13440,
                "time": 16.96968,
                "velocity": 0.5039370078740157
              },
              {
                "duration": 0.15151499999999984,
                "durationTicks": 120,
                "midi": 59,
                "name": "B3",
                "ticks": 13560,
                "time": 17.121195,
                "velocity": 0.5039370078740157
              },
              {
                "duration": 0.3030299999999997,
                "durationTicks": 240,
                "midi": 57,
                "name": "A3",
                "ticks": 13680,
                "time": 17.27271,
                "velocity": 0.5039370078740157
              },
              {
                "duration": 0.15151499999999984,
                "durationTicks": 120,
                "midi": 45,
                "name": "A2",
                "ticks": 13920,
                "time": 17.57574,
                "velocity": 0.5039370078740157
              },
              {
                "duration": 0.1515150000000034,
                "durationTicks": 120,
                "midi": 50,
                "name": "D3",
                "ticks": 14040,
                "time": 17.727255,
                "velocity": 0.5039370078740157
              },
              {
                "duration": 0.15151499999999984,
                "durationTicks": 120,
                "midi": 54,
                "name": "F#3",
                "ticks": 14160,
                "time": 17.878770000000003,
                "velocity": 0.5039370078740157
              },
              {
                "duration": 0.15151499999999984,
                "durationTicks": 120,
                "midi": 57,
                "name": "A3",
                "ticks": 14280,
                "time": 18.030285000000003,
                "velocity": 0.5039370078740157
              },
              {
                "duration": 0.15151499999999984,
                "durationTicks": 120,
                "midi": 54,
                "name": "F#3",
                "ticks": 14400,
                "time": 18.181800000000003,
                "velocity": 0.5039370078740157
              },
              {
                "duration": 0.15151499999999984,
                "durationTicks": 120,
                "midi": 50,
                "name": "D3",
                "ticks": 14520,
                "time": 18.333315000000002,
                "velocity": 0.5039370078740157
              },
              {
                "duration": 0.15151499999999984,
                "durationTicks": 120,
                "midi": 57,
                "name": "A3",
                "ticks": 14640,
                "time": 18.484830000000002,
                "velocity": 0.5039370078740157
              },
              {
                "duration": 0.15151499999999984,
                "durationTicks": 120,
                "midi": 54,
                "name": "F#3",
                "ticks": 14760,
                "time": 18.636345000000002,
                "velocity": 0.5039370078740157
              },
              {
                "duration": 0.15151499999999984,
                "durationTicks": 120,
                "midi": 50,
                "name": "D3",
                "ticks": 14880,
                "time": 18.787860000000002,
                "velocity": 0.5039370078740157
              },
              {
                "duration": 0.15151499999999984,
                "durationTicks": 120,
                "midi": 62,
                "name": "D4",
                "ticks": 15000,
                "time": 18.939375000000002,
                "velocity": 0.5039370078740157
              },
              {
                "duration": 0.07575749999999815,
                "durationTicks": 60,
                "midi": 61,
                "name": "C#4",
                "ticks": 15120,
                "time": 19.09089,
                "velocity": 0.5039370078740157
              },
              {
                "duration": 0.0757575000000017,
                "durationTicks": 60,
                "midi": 62,
                "name": "D4",
                "ticks": 15180,
                "time": 19.1666475,
                "velocity": 0.4409448818897638
              },
              {
                "duration": 0.3030299999999997,
                "durationTicks": 240,
                "midi": 61,
                "name": "C#4",
                "ticks": 15240,
                "time": 19.242405,
                "velocity": 0.5039370078740157
              },
              {
                "duration": 0.45454499999999953,
                "durationTicks": 360,
                "midi": 57,
                "name": "A3",
                "ticks": 15480,
                "time": 19.545435,
                "velocity": 0.5039370078740157
              },
              {
                "duration": 0.15151499999999984,
                "durationTicks": 120,
                "midi": 50,
                "name": "D3",
                "ticks": 16200,
                "time": 20.454525,
                "velocity": 0.5039370078740157
              },
              {
                "duration": 0.15151499999999984,
                "durationTicks": 120,
                "midi": 54,
                "name": "F#3",
                "ticks": 16320,
                "time": 20.60604,
                "velocity": 0.5039370078740157
              },
              {
                "duration": 0.15151499999999984,
                "durationTicks": 120,
                "midi": 57,
                "name": "A3",
                "ticks": 16440,
                "time": 20.757555,
                "velocity": 0.5039370078740157
              },
              {
                "duration": 0.1515150000000034,
                "durationTicks": 120,
                "midi": 54,
                "name": "F#3",
                "ticks": 16560,
                "time": 20.90907,
                "velocity": 0.5039370078740157
              },
              {
                "duration": 0.15151499999999984,
                "durationTicks": 120,
                "midi": 50,
                "name": "D3",
                "ticks": 16680,
                "time": 21.060585000000003,
                "velocity": 0.5039370078740157
              },
              {
                "duration": 0.15151499999999984,
                "durationTicks": 120,
                "midi": 57,
                "name": "A3",
                "ticks": 16800,
                "time": 21.212100000000003,
                "velocity": 0.5039370078740157
              },
              {
                "duration": 0.15151499999999984,
                "durationTicks": 120,
                "midi": 54,
                "name": "F#3",
                "ticks": 16920,
                "time": 21.363615000000003,
                "velocity": 0.5039370078740157
              },
              {
                "duration": 0.15151499999999984,
                "durationTicks": 120,
                "midi": 50,
                "name": "D3",
                "ticks": 17040,
                "time": 21.515130000000003,
                "velocity": 0.5039370078740157
              },
              {
                "duration": 0.15151499999999984,
                "durationTicks": 120,
                "midi": 60,
                "name": "C4",
                "ticks": 17160,
                "time": 21.666645000000003,
                "velocity": 0.5039370078740157
              },
              {
                "duration": 0.07575749999999815,
                "durationTicks": 60,
                "midi": 59,
                "name": "B3",
                "ticks": 17280,
                "time": 21.818160000000002,
                "velocity": 0.5039370078740157
              },
              {
                "duration": 0.0757575000000017,
                "durationTicks": 60,
                "midi": 60,
                "name": "C4",
                "ticks": 17340,
                "time": 21.8939175,
                "velocity": 0.4409448818897638
              },
              {
                "duration": 0.3030299999999997,
                "durationTicks": 240,
                "midi": 59,
                "name": "B3",
                "ticks": 17400,
                "time": 21.969675000000002,
                "velocity": 0.5039370078740157
              },
              {
                "duration": 0.45454499999999953,
                "durationTicks": 360,
                "midi": 55,
                "name": "G3",
                "ticks": 17640,
                "time": 22.272705000000002,
                "velocity": 0.5039370078740157
              },
              {
                "duration": 0.0757575000000017,
                "durationTicks": 60,
                "midi": 48,
                "name": "C3",
                "ticks": 18360,
                "time": 23.181795,
                "velocity": 0.5039370078740157
              },
              {
                "duration": 0.07575749999999815,
                "durationTicks": 60,
                "midi": 47,
                "name": "B2",
                "ticks": 18420,
                "time": 23.257552500000003,
                "velocity": 0.4409448818897638
              },
              {
                "duration": 0.45454499999999953,
                "durationTicks": 360,
                "midi": 48,
                "name": "C3",
                "ticks": 18480,
                "time": 23.33331,
                "velocity": 0.5039370078740157
              },
              {
                "duration": 0.15151499999999984,
                "durationTicks": 120,
                "midi": 50,
                "name": "D3",
                "ticks": 18840,
                "time": 23.787855,
                "velocity": 0.5039370078740157
              },
              {
                "duration": 0.15151499999999984,
                "durationTicks": 120,
                "midi": 52,
                "name": "E3",
                "ticks": 18960,
                "time": 23.93937,
                "velocity": 0.5039370078740157
              },
              {
                "duration": 0.1515150000000034,
                "durationTicks": 120,
                "midi": 42,
                "name": "F#2",
                "ticks": 19080,
                "time": 24.090885,
                "velocity": 0.5039370078740157
              },
              {
                "duration": 0.15151499999999984,
                "durationTicks": 120,
                "midi": 43,
                "name": "G2",
                "ticks": 19200,
                "time": 24.242400000000004,
                "velocity": 0.5039370078740157
              },
              {
                "duration": 0.15151499999999984,
                "durationTicks": 120,
                "midi": 45,
                "name": "A2",
                "ticks": 19320,
                "time": 24.393915000000003,
                "velocity": 0.5039370078740157
              },
              {
                "duration": 0.07575749999999815,
                "durationTicks": 60,
                "midi": 47,
                "name": "B2",
                "ticks": 19440,
                "time": 24.545430000000003,
                "velocity": 0.5039370078740157
              },
              {
                "duration": 0.0757575000000017,
                "durationTicks": 60,
                "midi": 45,
                "name": "A2",
                "ticks": 19500,
                "time": 24.6211875,
                "velocity": 0.4409448818897638
              },
              {
                "duration": 0.45454499999999953,
                "durationTicks": 360,
                "midi": 47,
                "name": "B2",
                "ticks": 19560,
                "time": 24.696945000000003,
                "velocity": 0.5039370078740157
              },
              {
                "duration": 0.15151499999999984,
                "durationTicks": 120,
                "midi": 48,
                "name": "C3",
                "ticks": 19920,
                "time": 25.151490000000003,
                "velocity": 0.5039370078740157
              },
              {
                "duration": 0.15151499999999984,
                "durationTicks": 120,
                "midi": 50,
                "name": "D3",
                "ticks": 20040,
                "time": 25.303005000000002,
                "velocity": 0.5039370078740157
              },
              {
                "duration": 0.15151499999999984,
                "durationTicks": 120,
                "midi": 40,
                "name": "E2",
                "ticks": 20160,
                "time": 25.454520000000002,
                "velocity": 0.5039370078740157
              },
              {
                "duration": 0.15151499999999984,
                "durationTicks": 120,
                "midi": 42,
                "name": "F#2",
                "ticks": 20280,
                "time": 25.606035000000002,
                "velocity": 0.5039370078740157
              },
              {
                "duration": 0.15151499999999984,
                "durationTicks": 120,
                "midi": 43,
                "name": "G2",
                "ticks": 20400,
                "time": 25.757550000000002,
                "velocity": 0.5039370078740157
              },
              {
                "duration": 0.15151499999999984,
                "durationTicks": 120,
                "midi": 45,
                "name": "A2",
                "ticks": 20520,
                "time": 25.909065000000002,
                "velocity": 0.5039370078740157
              },
              {
                "duration": 0.15151499999999984,
                "durationTicks": 120,
                "midi": 48,
                "name": "C3",
                "ticks": 20640,
                "time": 26.06058,
                "velocity": 0.5039370078740157
              },
              {
                "duration": 0.15151499999999984,
                "durationTicks": 120,
                "midi": 52,
                "name": "E3",
                "ticks": 20760,
                "time": 26.212095,
                "velocity": 0.5039370078740157
              },
              {
                "duration": 0.15151499999999984,
                "durationTicks": 120,
                "midi": 57,
                "name": "A3",
                "ticks": 20880,
                "time": 26.36361,
                "velocity": 0.5039370078740157
              },
              {
                "duration": 0.15151499999999984,
                "durationTicks": 120,
                "midi": 52,
                "name": "E3",
                "ticks": 21000,
                "time": 26.515125,
                "velocity": 0.5039370078740157
              },
              {
                "duration": 0.15151499999999984,
                "durationTicks": 120,
                "midi": 48,
                "name": "C3",
                "ticks": 21120,
                "time": 26.66664,
                "velocity": 0.5039370078740157
              },
              {
                "duration": 0.15151499999999984,
                "durationTicks": 120,
                "midi": 45,
                "name": "A2",
                "ticks": 21240,
                "time": 26.818155,
                "velocity": 0.5039370078740157
              },
              {
                "duration": 0.15151499999999984,
                "durationTicks": 120,
                "midi": 47,
                "name": "B2",
                "ticks": 21360,
                "time": 26.96967,
                "velocity": 0.5039370078740157
              },
              {
                "duration": 0.15151499999999984,
                "durationTicks": 120,
                "midi": 48,
                "name": "C3",
                "ticks": 21480,
                "time": 27.121185,
                "velocity": 0.5039370078740157
              },
              {
                "duration": 0.15151499999999984,
                "durationTicks": 120,
                "midi": 50,
                "name": "D3",
                "ticks": 21600,
                "time": 27.2727,
                "velocity": 0.5039370078740157
              },
              {
                "duration": 0.1515150000000034,
                "durationTicks": 120,
                "midi": 54,
                "name": "F#3",
                "ticks": 21720,
                "time": 27.424215,
                "velocity": 0.5039370078740157
              },
              {
                "duration": 0.15151499999999984,
                "durationTicks": 120,
                "midi": 57,
                "name": "A3",
                "ticks": 21840,
                "time": 27.575730000000004,
                "velocity": 0.5039370078740157
              },
              {
                "duration": 0.15151499999999984,
                "durationTicks": 120,
                "midi": 62,
                "name": "D4",
                "ticks": 21960,
                "time": 27.727245000000003,
                "velocity": 0.5039370078740157
              },
              {
                "duration": 0.15151499999999984,
                "durationTicks": 120,
                "midi": 57,
                "name": "A3",
                "ticks": 22080,
                "time": 27.878760000000003,
                "velocity": 0.5039370078740157
              },
              {
                "duration": 0.15151499999999984,
                "durationTicks": 120,
                "midi": 54,
                "name": "F#3",
                "ticks": 22200,
                "time": 28.030275000000003,
                "velocity": 0.5039370078740157
              },
              {
                "duration": 0.15151499999999984,
                "durationTicks": 120,
                "midi": 50,
                "name": "D3",
                "ticks": 22320,
                "time": 28.181790000000003,
                "velocity": 0.5039370078740157
              },
              {
                "duration": 0.15151499999999984,
                "durationTicks": 120,
                "midi": 52,
                "name": "E3",
                "ticks": 22440,
                "time": 28.333305000000003,
                "velocity": 0.5039370078740157
              },
              {
                "duration": 0.15151499999999984,
                "durationTicks": 120,
                "midi": 54,
                "name": "F#3",
                "ticks": 22560,
                "time": 28.484820000000003,
                "velocity": 0.5039370078740157
              },
              {
                "duration": 0.15151499999999984,
                "durationTicks": 120,
                "midi": 55,
                "name": "G3",
                "ticks": 22680,
                "time": 28.636335000000003,
                "velocity": 0.5039370078740157
              },
              {
                "duration": 0.15151499999999984,
                "durationTicks": 120,
                "midi": 59,
                "name": "B3",
                "ticks": 22800,
                "time": 28.787850000000002,
                "velocity": 0.5039370078740157
              },
              {
                "duration": 0.15151499999999984,
                "durationTicks": 120,
                "midi": 62,
                "name": "D4",
                "ticks": 22920,
                "time": 28.939365000000002,
                "velocity": 0.5039370078740157
              },
              {
                "duration": 0.15151499999999984,
                "durationTicks": 120,
                "midi": 67,
                "name": "G4",
                "ticks": 23040,
                "time": 29.090880000000002,
                "velocity": 0.5039370078740157
              },
              {
                "duration": 0.15151499999999984,
                "durationTicks": 120,
                "midi": 62,
                "name": "D4",
                "ticks": 23160,
                "time": 29.242395000000002,
                "velocity": 0.5039370078740157
              },
              {
                "duration": 0.15151499999999984,
                "durationTicks": 120,
                "midi": 59,
                "name": "B3",
                "ticks": 23280,
                "time": 29.39391,
                "velocity": 0.5039370078740157
              },
              {
                "duration": 0.15151499999999984,
                "durationTicks": 120,
                "midi": 55,
                "name": "G3",
                "ticks": 23400,
                "time": 29.545425,
                "velocity": 0.5039370078740157
              },
              {
                "duration": 0.15151499999999984,
                "durationTicks": 120,
                "midi": 57,
                "name": "A3",
                "ticks": 23520,
                "time": 29.69694,
                "velocity": 0.5039370078740157
              },
              {
                "duration": 0.15151499999999984,
                "durationTicks": 120,
                "midi": 59,
                "name": "B3",
                "ticks": 23640,
                "time": 29.848455,
                "velocity": 0.5039370078740157
              },
              {
                "duration": 0.15151499999999984,
                "durationTicks": 120,
                "midi": 52,
                "name": "E3",
                "ticks": 23760,
                "time": 29.99997,
                "velocity": 0.5039370078740157
              },
              {
                "duration": 0.15151499999999984,
                "durationTicks": 120,
                "midi": 55,
                "name": "G3",
                "ticks": 23880,
                "time": 30.151485,
                "velocity": 0.5039370078740157
              },
              {
                "duration": 0.15151499999999984,
                "durationTicks": 120,
                "midi": 59,
                "name": "B3",
                "ticks": 24000,
                "time": 30.303,
                "velocity": 0.5039370078740157
              },
              {
                "duration": 0.15151499999999984,
                "durationTicks": 120,
                "midi": 64,
                "name": "E4",
                "ticks": 24120,
                "time": 30.454515,
                "velocity": 0.5039370078740157
              },
              {
                "duration": 0.1515150000000034,
                "durationTicks": 120,
                "midi": 59,
                "name": "B3",
                "ticks": 24240,
                "time": 30.60603,
                "velocity": 0.5039370078740157
              },
              {
                "duration": 0.15151499999999984,
                "durationTicks": 120,
                "midi": 55,
                "name": "G3",
                "ticks": 24360,
                "time": 30.757545000000004,
                "velocity": 0.5039370078740157
              },
              {
                "duration": 0.15151499999999984,
                "durationTicks": 120,
                "midi": 52,
                "name": "E3",
                "ticks": 24480,
                "time": 30.909060000000004,
                "velocity": 0.5039370078740157
              },
              {
                "duration": 0.15151499999999984,
                "durationTicks": 120,
                "midi": 54,
                "name": "F#3",
                "ticks": 24600,
                "time": 31.060575000000004,
                "velocity": 0.5039370078740157
              },
              {
                "duration": 0.15151499999999984,
                "durationTicks": 120,
                "midi": 55,
                "name": "G3",
                "ticks": 24720,
                "time": 31.212090000000003,
                "velocity": 0.5039370078740157
              },
              {
                "duration": 0.08333324999999903,
                "durationTicks": 66,
                "midi": 48,
                "name": "C3",
                "ticks": 24840,
                "time": 31.363605000000003,
                "velocity": 0.5039370078740157
              },
              {
                "duration": 0.08333325000000258,
                "durationTicks": 66,
                "midi": 50,
                "name": "D3",
                "ticks": 24900,
                "time": 31.4393625,
                "velocity": 0.5039370078740157
              },
              {
                "duration": 0.08333325000000258,
                "durationTicks": 66,
                "midi": 48,
                "name": "C3",
                "ticks": 24960,
                "time": 31.515120000000003,
                "velocity": 0.3779527559055118
              },
              {
                "duration": 0.08333325000000258,
                "durationTicks": 66,
                "midi": 50,
                "name": "D3",
                "ticks": 25020,
                "time": 31.5908775,
                "velocity": 0.3779527559055118
              },
              {
                "duration": 0.08333325000000258,
                "durationTicks": 66,
                "midi": 48,
                "name": "C3",
                "ticks": 25080,
                "time": 31.666635000000003,
                "velocity": 0.3779527559055118
              },
              {
                "duration": 0.08333325000000258,
                "durationTicks": 66,
                "midi": 50,
                "name": "D3",
                "ticks": 25140,
                "time": 31.7423925,
                "velocity": 0.3858267716535433
              },
              {
                "duration": 0.08333325000000258,
                "durationTicks": 66,
                "midi": 48,
                "name": "C3",
                "ticks": 25200,
                "time": 31.818150000000003,
                "velocity": 0.3858267716535433
              },
              {
                "duration": 0.08333325000000258,
                "durationTicks": 66,
                "midi": 50,
                "name": "D3",
                "ticks": 25260,
                "time": 31.8939075,
                "velocity": 0.3858267716535433
              },
              {
                "duration": 0.08333324999999903,
                "durationTicks": 66,
                "midi": 48,
                "name": "C3",
                "ticks": 25320,
                "time": 31.969665000000003,
                "velocity": 0.3937007874015748
              },
              {
                "duration": 0.08333325000000258,
                "durationTicks": 66,
                "midi": 50,
                "name": "D3",
                "ticks": 25380,
                "time": 32.0454225,
                "velocity": 0.3937007874015748
              },
              {
                "duration": 0.08333325000000258,
                "durationTicks": 66,
                "midi": 48,
                "name": "C3",
                "ticks": 25440,
                "time": 32.12118,
                "velocity": 0.4015748031496063
              },
              {
                "duration": 0.08333325000000258,
                "durationTicks": 66,
                "midi": 50,
                "name": "D3",
                "ticks": 25500,
                "time": 32.196937500000004,
                "velocity": 0.4015748031496063
              },
              {
                "duration": 0.08333325000000258,
                "durationTicks": 66,
                "midi": 48,
                "name": "C3",
                "ticks": 25560,
                "time": 32.272695,
                "velocity": 0.4015748031496063
              },
              {
                "duration": 0.08333325000000258,
                "durationTicks": 66,
                "midi": 50,
                "name": "D3",
                "ticks": 25620,
                "time": 32.3484525,
                "velocity": 0.4094488188976378
              },
              {
                "duration": 0.08333325000000258,
                "durationTicks": 66,
                "midi": 48,
                "name": "C3",
                "ticks": 25680,
                "time": 32.42421,
                "velocity": 0.4094488188976378
              },
              {
                "duration": 0.08333325000000258,
                "durationTicks": 66,
                "midi": 50,
                "name": "D3",
                "ticks": 25740,
                "time": 32.499967500000004,
                "velocity": 0.4094488188976378
              },
              {
                "duration": 0.08333324999999547,
                "durationTicks": 66,
                "midi": 48,
                "name": "C3",
                "ticks": 25800,
                "time": 32.575725000000006,
                "velocity": 0.41732283464566927
              },
              {
                "duration": 0.08333325000000258,
                "durationTicks": 66,
                "midi": 50,
                "name": "D3",
                "ticks": 25860,
                "time": 32.6514825,
                "velocity": 0.41732283464566927
              },
              {
                "duration": 0.08333325000000258,
                "durationTicks": 66,
                "midi": 48,
                "name": "C3",
                "ticks": 25920,
                "time": 32.72724,
                "velocity": 0.41732283464566927
              },
              {
                "duration": 0.08333325000000258,
                "durationTicks": 66,
                "midi": 50,
                "name": "D3",
                "ticks": 25980,
                "time": 32.802997500000004,
                "velocity": 0.4251968503937008
              },
              {
                "duration": 0.08333324999999547,
                "durationTicks": 66,
                "midi": 48,
                "name": "C3",
                "ticks": 26040,
                "time": 32.878755000000005,
                "velocity": 0.4251968503937008
              },
              {
                "duration": 0.08333325000000258,
                "durationTicks": 66,
                "midi": 50,
                "name": "D3",
                "ticks": 26100,
                "time": 32.9545125,
                "velocity": 0.4251968503937008
              },
              {
                "duration": 0.08333325000000258,
                "durationTicks": 66,
                "midi": 48,
                "name": "C3",
                "ticks": 26160,
                "time": 33.03027,
                "velocity": 0.4330708661417323
              },
              {
                "duration": 0.08333325000000258,
                "durationTicks": 66,
                "midi": 50,
                "name": "D3",
                "ticks": 26220,
                "time": 33.1060275,
                "velocity": 0.4330708661417323
              },
              {
                "duration": 0.08333325000000258,
                "durationTicks": 66,
                "midi": 48,
                "name": "C3",
                "ticks": 26280,
                "time": 33.181785000000005,
                "velocity": 0.4409448818897638
              },
              {
                "duration": 0.08333325000000258,
                "durationTicks": 66,
                "midi": 50,
                "name": "D3",
                "ticks": 26340,
                "time": 33.2575425,
                "velocity": 0.4409448818897638
              },
              {
                "duration": 0.08333325000000258,
                "durationTicks": 66,
                "midi": 48,
                "name": "C3",
                "ticks": 26400,
                "time": 33.3333,
                "velocity": 0.4409448818897638
              },
              {
                "duration": 0.08333325000000258,
                "durationTicks": 66,
                "midi": 50,
                "name": "D3",
                "ticks": 26460,
                "time": 33.4090575,
                "velocity": 0.44881889763779526
              },
              {
                "duration": 0.08333325000000258,
                "durationTicks": 66,
                "midi": 48,
                "name": "C3",
                "ticks": 26520,
                "time": 33.484815000000005,
                "velocity": 0.44881889763779526
              },
              {
                "duration": 0.08333325000000258,
                "durationTicks": 66,
                "midi": 50,
                "name": "D3",
                "ticks": 26580,
                "time": 33.5605725,
                "velocity": 0.44881889763779526
              },
              {
                "duration": 0.08333325000000258,
                "durationTicks": 66,
                "midi": 48,
                "name": "C3",
                "ticks": 26640,
                "time": 33.63633,
                "velocity": 0.4566929133858268
              },
              {
                "duration": 0.08333325000000258,
                "durationTicks": 66,
                "midi": 50,
                "name": "D3",
                "ticks": 26700,
                "time": 33.7120875,
                "velocity": 0.4566929133858268
              },
              {
                "duration": 0.08333325000000258,
                "durationTicks": 66,
                "midi": 48,
                "name": "C3",
                "ticks": 26760,
                "time": 33.787845000000004,
                "velocity": 0.4566929133858268
              },
              {
                "duration": 0.08333325000000258,
                "durationTicks": 66,
                "midi": 50,
                "name": "D3",
                "ticks": 26820,
                "time": 33.8636025,
                "velocity": 0.4645669291338583
              },
              {
                "duration": 0.08333325000000258,
                "durationTicks": 66,
                "midi": 48,
                "name": "C3",
                "ticks": 26880,
                "time": 33.93936,
                "velocity": 0.4645669291338583
              },
              {
                "duration": 0.08333325000000258,
                "durationTicks": 66,
                "midi": 50,
                "name": "D3",
                "ticks": 26940,
                "time": 34.0151175,
                "velocity": 0.4645669291338583
              },
              {
                "duration": 0.1515149999999963,
                "durationTicks": 120,
                "midi": 48,
                "name": "C3",
                "ticks": 27000,
                "time": 34.090875000000004,
                "velocity": 0.5039370078740157
              },
              {
                "duration": 0.1515150000000034,
                "durationTicks": 120,
                "midi": 50,
                "name": "D3",
                "ticks": 27120,
                "time": 34.24239,
                "velocity": 0.5039370078740157
              },
              {
                "duration": 0.1515149999999963,
                "durationTicks": 120,
                "midi": 54,
                "name": "F#3",
                "ticks": 27240,
                "time": 34.393905000000004,
                "velocity": 0.5039370078740157
              },
              {
                "duration": 0.1515150000000034,
                "durationTicks": 120,
                "midi": 57,
                "name": "A3",
                "ticks": 27360,
                "time": 34.54542,
                "velocity": 0.5039370078740157
              },
              {
                "duration": 0.1515149999999963,
                "durationTicks": 120,
                "midi": 54,
                "name": "F#3",
                "ticks": 27480,
                "time": 34.696935,
                "velocity": 0.5039370078740157
              },
              {
                "duration": 0.1515150000000034,
                "durationTicks": 120,
                "midi": 50,
                "name": "D3",
                "ticks": 27600,
                "time": 34.84845,
                "velocity": 0.5039370078740157
              },
              {
                "duration": 0.1515149999999963,
                "durationTicks": 120,
                "midi": 48,
                "name": "C3",
                "ticks": 27720,
                "time": 34.999965,
                "velocity": 0.5039370078740157
              },
              {
                "duration": 0.1515150000000034,
                "durationTicks": 120,
                "midi": 47,
                "name": "B2",
                "ticks": 27840,
                "time": 35.15148,
                "velocity": 0.5039370078740157
              },
              {
                "duration": 0.1515149999999963,
                "durationTicks": 120,
                "midi": 57,
                "name": "A3",
                "ticks": 27960,
                "time": 35.302995,
                "velocity": 0.5039370078740157
              },
              {
                "duration": 0.1515150000000034,
                "durationTicks": 120,
                "midi": 47,
                "name": "B2",
                "ticks": 28080,
                "time": 35.45451,
                "velocity": 0.5039370078740157
              },
              {
                "duration": 0.1515150000000034,
                "durationTicks": 120,
                "midi": 43,
                "name": "G2",
                "ticks": 28200,
                "time": 35.606025,
                "velocity": 0.5039370078740157
              },
              {
                "duration": 0.1515149999999963,
                "durationTicks": 120,
                "midi": 47,
                "name": "B2",
                "ticks": 28320,
                "time": 35.757540000000006,
                "velocity": 0.5039370078740157
              },
              {
                "duration": 0.1515150000000034,
                "durationTicks": 120,
                "midi": 50,
                "name": "D3",
                "ticks": 28440,
                "time": 35.909055,
                "velocity": 0.5039370078740157
              },
              {
                "duration": 0.1515149999999963,
                "durationTicks": 120,
                "midi": 47,
                "name": "B2",
                "ticks": 28560,
                "time": 36.060570000000006,
                "velocity": 0.5039370078740157
              },
              {
                "duration": 0.1515150000000034,
                "durationTicks": 120,
                "midi": 43,
                "name": "G2",
                "ticks": 28680,
                "time": 36.212085,
                "velocity": 0.5039370078740157
              },
              {
                "duration": 0.1515149999999963,
                "durationTicks": 120,
                "midi": 50,
                "name": "D3",
                "ticks": 28800,
                "time": 36.363600000000005,
                "velocity": 0.5039370078740157
              },
              {
                "duration": 0.1515150000000034,
                "durationTicks": 120,
                "midi": 47,
                "name": "B2",
                "ticks": 28920,
                "time": 36.515115,
                "velocity": 0.5039370078740157
              },
              {
                "duration": 0.1515149999999963,
                "durationTicks": 120,
                "midi": 43,
                "name": "G2",
                "ticks": 29040,
                "time": 36.666630000000005,
                "velocity": 0.5039370078740157
              },
              {
                "duration": 0.1515150000000034,
                "durationTicks": 120,
                "midi": 42,
                "name": "F#2",
                "ticks": 29160,
                "time": 36.818145,
                "velocity": 0.5039370078740157
              },
              {
                "duration": 0.1515149999999963,
                "durationTicks": 120,
                "midi": 38,
                "name": "D2",
                "ticks": 29280,
                "time": 36.969660000000005,
                "velocity": 0.5039370078740157
              },
              {
                "duration": 0.1515150000000034,
                "durationTicks": 120,
                "midi": 42,
                "name": "F#2",
                "ticks": 29400,
                "time": 37.121175,
                "velocity": 0.5039370078740157
              },
              {
                "duration": 0.1515149999999963,
                "durationTicks": 120,
                "midi": 45,
                "name": "A2",
                "ticks": 29520,
                "time": 37.272690000000004,
                "velocity": 0.5039370078740157
              },
              {
                "duration": 0.1515150000000034,
                "durationTicks": 120,
                "midi": 42,
                "name": "F#2",
                "ticks": 29640,
                "time": 37.424205,
                "velocity": 0.5039370078740157
              },
              {
                "duration": 0.1515149999999963,
                "durationTicks": 120,
                "midi": 38,
                "name": "D2",
                "ticks": 29760,
                "time": 37.575720000000004,
                "velocity": 0.5039370078740157
              },
              {
                "duration": 0.1515150000000034,
                "durationTicks": 120,
                "midi": 45,
                "name": "A2",
                "ticks": 29880,
                "time": 37.727235,
                "velocity": 0.5039370078740157
              },
              {
                "duration": 0.1515149999999963,
                "durationTicks": 120,
                "midi": 42,
                "name": "F#2",
                "ticks": 30000,
                "time": 37.878750000000004,
                "velocity": 0.5039370078740157
              },
              {
                "duration": 0.1515150000000034,
                "durationTicks": 120,
                "midi": 38,
                "name": "D2",
                "ticks": 30120,
                "time": 38.030265,
                "velocity": 0.5039370078740157
              },
              {
                "duration": 0.1515149999999963,
                "durationTicks": 120,
                "midi": 43,
                "name": "G2",
                "ticks": 30240,
                "time": 38.18178,
                "velocity": 0.5039370078740157
              },
              {
                "duration": 0.1515150000000034,
                "durationTicks": 120,
                "midi": 45,
                "name": "A2",
                "ticks": 30360,
                "time": 38.333295,
                "velocity": 0.5039370078740157
              },
              {
                "duration": 0.1515149999999963,
                "durationTicks": 120,
                "midi": 47,
                "name": "B2",
                "ticks": 30480,
                "time": 38.48481,
                "velocity": 0.5039370078740157
              },
              {
                "duration": 0.1515150000000034,
                "durationTicks": 120,
                "midi": 45,
                "name": "A2",
                "ticks": 30600,
                "time": 38.636325,
                "velocity": 0.5039370078740157
              },
              {
                "duration": 0.1515150000000034,
                "durationTicks": 120,
                "midi": 47,
                "name": "B2",
                "ticks": 30720,
                "time": 38.78784,
                "velocity": 0.5039370078740157
              },
              {
                "duration": 0.1515149999999963,
                "durationTicks": 120,
                "midi": 48,
                "name": "C3",
                "ticks": 30840,
                "time": 38.939355000000006,
                "velocity": 0.5039370078740157
              },
              {
                "duration": 0.1515150000000034,
                "durationTicks": 120,
                "midi": 47,
                "name": "B2",
                "ticks": 30960,
                "time": 39.09087,
                "velocity": 0.5039370078740157
              },
              {
                "duration": 0.1515149999999963,
                "durationTicks": 120,
                "midi": 48,
                "name": "C3",
                "ticks": 31080,
                "time": 39.242385000000006,
                "velocity": 0.5039370078740157
              },
              {
                "duration": 0.1515150000000034,
                "durationTicks": 120,
                "midi": 50,
                "name": "D3",
                "ticks": 31200,
                "time": 39.3939,
                "velocity": 0.5039370078740157
              },
              {
                "duration": 0.6060599999999994,
                "durationTicks": 480,
                "midi": 40,
                "name": "E2",
                "ticks": 31320,
                "time": 39.545415000000006,
                "velocity": 0.5039370078740157
              },
              {
                "duration": 0.1515150000000034,
                "durationTicks": 120,
                "midi": 52,
                "name": "E3",
                "ticks": 31920,
                "time": 40.30299,
                "velocity": 0.5039370078740157
              },
              {
                "duration": 0.1515149999999963,
                "durationTicks": 120,
                "midi": 54,
                "name": "F#3",
                "ticks": 32040,
                "time": 40.454505000000005,
                "velocity": 0.5039370078740157
              },
              {
                "duration": 0.1515150000000034,
                "durationTicks": 120,
                "midi": 52,
                "name": "E3",
                "ticks": 32160,
                "time": 40.60602,
                "velocity": 0.5039370078740157
              },
              {
                "duration": 0.1515149999999963,
                "durationTicks": 120,
                "midi": 50,
                "name": "D3",
                "ticks": 32280,
                "time": 40.757535000000004,
                "velocity": 0.5039370078740157
              },
              {
                "duration": 0.0757575000000017,
                "durationTicks": 60,
                "midi": 55,
                "name": "G3",
                "ticks": 32400,
                "time": 40.90905,
                "velocity": 0.5039370078740157
              },
              {
                "duration": 0.0757575000000017,
                "durationTicks": 60,
                "midi": 54,
                "name": "F#3",
                "ticks": 32460,
                "time": 40.9848075,
                "velocity": 0.5039370078740157
              },
              {
                "duration": 0.1515149999999963,
                "durationTicks": 120,
                "midi": 55,
                "name": "G3",
                "ticks": 32520,
                "time": 41.060565000000004,
                "velocity": 0.5039370078740157
              },
              {
                "duration": 0.1515150000000034,
                "durationTicks": 120,
                "midi": 47,
                "name": "B2",
                "ticks": 32640,
                "time": 41.21208,
                "velocity": 0.5039370078740157
              },
              {
                "duration": 0.1515149999999963,
                "durationTicks": 120,
                "midi": 52,
                "name": "E3",
                "ticks": 32760,
                "time": 41.363595000000004,
                "velocity": 0.5039370078740157
              },
              {
                "duration": 0.1515150000000034,
                "durationTicks": 120,
                "midi": 50,
                "name": "D3",
                "ticks": 32880,
                "time": 41.51511,
                "velocity": 0.5039370078740157
              },
              {
                "duration": 0.1515149999999963,
                "durationTicks": 120,
                "midi": 48,
                "name": "C3",
                "ticks": 33000,
                "time": 41.666625,
                "velocity": 0.5039370078740157
              },
              {
                "duration": 0.0757575000000017,
                "durationTicks": 60,
                "midi": 50,
                "name": "D3",
                "ticks": 33120,
                "time": 41.81814,
                "velocity": 0.5039370078740157
              },
              {
                "duration": 0.0757575000000017,
                "durationTicks": 60,
                "midi": 48,
                "name": "C3",
                "ticks": 33180,
                "time": 41.8938975,
                "velocity": 0.5039370078740157
              },
              {
                "duration": 0.1515150000000034,
                "durationTicks": 120,
                "midi": 50,
                "name": "D3",
                "ticks": 33240,
                "time": 41.969655,
                "velocity": 0.5039370078740157
              },
              {
                "duration": 0.1515149999999963,
                "durationTicks": 120,
                "midi": 38,
                "name": "D2",
                "ticks": 33360,
                "time": 42.121170000000006,
                "velocity": 0.5039370078740157
              },
              {
                "duration": 0.6060599999999994,
                "durationTicks": 480,
                "midi": 43,
                "name": "G2",
                "ticks": 33480,
                "time": 42.272685,
                "velocity": 0.5039370078740157
              },
              {
                "duration": 0.1515150000000034,
                "durationTicks": 120,
                "midi": 47,
                "name": "B2",
                "ticks": 33960,
                "time": 42.878745,
                "velocity": 0.5039370078740157
              },
              {
                "duration": 0.1515149999999963,
                "durationTicks": 120,
                "midi": 50,
                "name": "D3",
                "ticks": 34080,
                "time": 43.030260000000006,
                "velocity": 0.5039370078740157
              },
              {
                "duration": 0.6818175000000011,
                "durationTicks": 540,
                "midi": 55,
                "name": "G3",
                "ticks": 34200,
                "time": 43.181775,
                "velocity": 0.5039370078740157
              }
            ],
            "endOfTrackTicks": 34740
          }
        ]
    },

    "invention-11" : {
        "header": {
          "keySignatures": [],
          "meta": [],
          "name": "Invention 11 in G Minor",
          "ppq": 240,
          "tempos": [
            {
              "bpm": 83.99996640001343,
              "ticks": 0
            }
          ],
          "timeSignatures": [
            {
              "ticks": 0,
              "timeSignature": [
                4,
                4
              ],
              "measures": 0
            }
          ]
        },
        "tracks": [
          {
            "channel": 0,
            "controlChanges": {},
            "pitchBends": [],
            "instrument": {
              "family": "piano",
              "number": 0,
              "name": "acoustic grand piano"
            },
            "name": "",
            "notes": [
              {
                "duration": 0.17857150000000002,
                "durationTicks": 60,
                "midi": 62,
                "name": "D4",
                "ticks": 60,
                "time": 0.17857150000000002,
                "velocity": 0.5039370078740157
              },
              {
                "duration": 0.17857150000000005,
                "durationTicks": 60,
                "midi": 64,
                "name": "E4",
                "ticks": 120,
                "time": 0.35714300000000004,
                "velocity": 0.5039370078740157
              },
              {
                "duration": 0.1785715,
                "durationTicks": 60,
                "midi": 66,
                "name": "F#4",
                "ticks": 180,
                "time": 0.5357145000000001,
                "velocity": 0.5039370078740157
              },
              {
                "duration": 0.1785715,
                "durationTicks": 60,
                "midi": 67,
                "name": "G4",
                "ticks": 240,
                "time": 0.7142860000000001,
                "velocity": 0.5039370078740157
              },
              {
                "duration": 0.1785715000000001,
                "durationTicks": 60,
                "midi": 69,
                "name": "A4",
                "ticks": 300,
                "time": 0.8928575000000001,
                "velocity": 0.5039370078740157
              },
              {
                "duration": 0.17857149999999988,
                "durationTicks": 60,
                "midi": 70,
                "name": "A#4",
                "ticks": 360,
                "time": 1.0714290000000002,
                "velocity": 0.5039370078740157
              },
              {
                "duration": 0.1785715000000001,
                "durationTicks": 60,
                "midi": 67,
                "name": "G4",
                "ticks": 420,
                "time": 1.2500005,
                "velocity": 0.5039370078740157
              },
              {
                "duration": 0.1785715000000001,
                "durationTicks": 60,
                "midi": 69,
                "name": "A4",
                "ticks": 480,
                "time": 1.4285720000000002,
                "velocity": 0.5039370078740157
              },
              {
                "duration": 0.17857149999999988,
                "durationTicks": 60,
                "midi": 67,
                "name": "G4",
                "ticks": 540,
                "time": 1.6071435000000003,
                "velocity": 0.5039370078740157
              },
              {
                "duration": 0.1785715000000001,
                "durationTicks": 60,
                "midi": 66,
                "name": "F#4",
                "ticks": 600,
                "time": 1.7857150000000002,
                "velocity": 0.5039370078740157
              },
              {
                "duration": 0.1785715000000001,
                "durationTicks": 60,
                "midi": 64,
                "name": "E4",
                "ticks": 660,
                "time": 1.9642865000000003,
                "velocity": 0.5039370078740157
              },
              {
                "duration": 0.17857149999999988,
                "durationTicks": 60,
                "midi": 62,
                "name": "D4",
                "ticks": 720,
                "time": 2.1428580000000004,
                "velocity": 0.5039370078740157
              },
              {
                "duration": 0.17857149999999988,
                "durationTicks": 60,
                "midi": 72,
                "name": "C5",
                "ticks": 780,
                "time": 2.3214295000000003,
                "velocity": 0.5039370078740157
              },
              {
                "duration": 0.17857150000000033,
                "durationTicks": 60,
                "midi": 70,
                "name": "A#4",
                "ticks": 840,
                "time": 2.500001,
                "velocity": 0.5039370078740157
              },
              {
                "duration": 0.17857149999999988,
                "durationTicks": 60,
                "midi": 69,
                "name": "A4",
                "ticks": 900,
                "time": 2.6785725000000005,
                "velocity": 0.5039370078740157
              },
              {
                "duration": 0.17857149999999988,
                "durationTicks": 60,
                "midi": 67,
                "name": "G4",
                "ticks": 960,
                "time": 2.8571440000000004,
                "velocity": 0.5039370078740157
              },
              {
                "duration": 0.17857150000000033,
                "durationTicks": 60,
                "midi": 65,
                "name": "F4",
                "ticks": 1020,
                "time": 3.0357155000000002,
                "velocity": 0.5039370078740157
              },
              {
                "duration": 0.17857149999999988,
                "durationTicks": 60,
                "midi": 64,
                "name": "E4",
                "ticks": 1080,
                "time": 3.2142870000000006,
                "velocity": 0.5039370078740157
              },
              {
                "duration": 0.17857149999999988,
                "durationTicks": 60,
                "midi": 62,
                "name": "D4",
                "ticks": 1140,
                "time": 3.3928585000000004,
                "velocity": 0.5039370078740157
              },
              {
                "duration": 0.17857150000000033,
                "durationTicks": 60,
                "midi": 60,
                "name": "C4",
                "ticks": 1200,
                "time": 3.5714300000000003,
                "velocity": 0.5039370078740157
              },
              {
                "duration": 0.17857149999999988,
                "durationTicks": 60,
                "midi": 70,
                "name": "A#4",
                "ticks": 1260,
                "time": 3.7500015000000007,
                "velocity": 0.5039370078740157
              },
              {
                "duration": 0.17857149999999988,
                "durationTicks": 60,
                "midi": 69,
                "name": "A4",
                "ticks": 1320,
                "time": 3.9285730000000005,
                "velocity": 0.5039370078740157
              },
              {
                "duration": 0.17857150000000033,
                "durationTicks": 60,
                "midi": 67,
                "name": "G4",
                "ticks": 1380,
                "time": 4.1071445,
                "velocity": 0.5039370078740157
              },
              {
                "duration": 0.17857149999999944,
                "durationTicks": 60,
                "midi": 74,
                "name": "D5",
                "ticks": 1440,
                "time": 4.285716000000001,
                "velocity": 0.5039370078740157
              },
              {
                "duration": 0.17857150000000033,
                "durationTicks": 60,
                "midi": 72,
                "name": "C5",
                "ticks": 1500,
                "time": 4.4642875,
                "velocity": 0.5039370078740157
              },
              {
                "duration": 0.17857150000000033,
                "durationTicks": 60,
                "midi": 70,
                "name": "A#4",
                "ticks": 1560,
                "time": 4.6428590000000005,
                "velocity": 0.5039370078740157
              },
              {
                "duration": 0.17857149999999944,
                "durationTicks": 60,
                "midi": 74,
                "name": "D5",
                "ticks": 1620,
                "time": 4.821430500000001,
                "velocity": 0.5039370078740157
              },
              {
                "duration": 0.17857150000000033,
                "durationTicks": 60,
                "midi": 72,
                "name": "C5",
                "ticks": 1680,
                "time": 5.000002,
                "velocity": 0.5039370078740157
              },
              {
                "duration": 0.17857150000000033,
                "durationTicks": 60,
                "midi": 70,
                "name": "A#4",
                "ticks": 1740,
                "time": 5.178573500000001,
                "velocity": 0.5039370078740157
              },
              {
                "duration": 0.17857149999999944,
                "durationTicks": 60,
                "midi": 69,
                "name": "A4",
                "ticks": 1800,
                "time": 5.357145000000001,
                "velocity": 0.5039370078740157
              },
              {
                "duration": 0.17857150000000033,
                "durationTicks": 60,
                "midi": 72,
                "name": "C5",
                "ticks": 1860,
                "time": 5.5357165,
                "velocity": 0.5039370078740157
              },
              {
                "duration": 0.17857150000000033,
                "durationTicks": 60,
                "midi": 70,
                "name": "A#4",
                "ticks": 1920,
                "time": 5.714288000000001,
                "velocity": 0.5039370078740157
              },
              {
                "duration": 0.17857149999999944,
                "durationTicks": 60,
                "midi": 69,
                "name": "A4",
                "ticks": 1980,
                "time": 5.892859500000001,
                "velocity": 0.5039370078740157
              },
              {
                "duration": 0.17857150000000033,
                "durationTicks": 60,
                "midi": 67,
                "name": "G4",
                "ticks": 2040,
                "time": 6.0714310000000005,
                "velocity": 0.5039370078740157
              },
              {
                "duration": 0.17857150000000033,
                "durationTicks": 60,
                "midi": 69,
                "name": "A4",
                "ticks": 2100,
                "time": 6.250002500000001,
                "velocity": 0.5039370078740157
              },
              {
                "duration": 0.17857149999999944,
                "durationTicks": 60,
                "midi": 70,
                "name": "A#4",
                "ticks": 2160,
                "time": 6.428574000000001,
                "velocity": 0.5039370078740157
              },
              {
                "duration": 0.17857150000000033,
                "durationTicks": 60,
                "midi": 72,
                "name": "C5",
                "ticks": 2220,
                "time": 6.607145500000001,
                "velocity": 0.5039370078740157
              },
              {
                "duration": 0.17857150000000033,
                "durationTicks": 60,
                "midi": 74,
                "name": "D5",
                "ticks": 2280,
                "time": 6.785717000000001,
                "velocity": 0.5039370078740157
              },
              {
                "duration": 0.17857149999999944,
                "durationTicks": 60,
                "midi": 76,
                "name": "E5",
                "ticks": 2340,
                "time": 6.964288500000001,
                "velocity": 0.5039370078740157
              },
              {
                "duration": 0.35714300000000065,
                "durationTicks": 120,
                "midi": 77,
                "name": "F5",
                "ticks": 2400,
                "time": 7.142860000000001,
                "velocity": 0.5039370078740157
              },
              {
                "duration": 0.35714299999999977,
                "durationTicks": 120,
                "midi": 74,
                "name": "D5",
                "ticks": 2520,
                "time": 7.500003000000001,
                "velocity": 0.5039370078740157
              },
              {
                "duration": 0.35714300000000065,
                "durationTicks": 120,
                "midi": 74,
                "name": "D5",
                "ticks": 2760,
                "time": 8.214289,
                "velocity": 0.5039370078740157
              },
              {
                "duration": 0.17857150000000033,
                "durationTicks": 60,
                "midi": 75,
                "name": "D#5",
                "ticks": 2880,
                "time": 8.571432000000001,
                "velocity": 0.5039370078740157
              },
              {
                "duration": 0.17857149999999855,
                "durationTicks": 60,
                "midi": 74,
                "name": "D5",
                "ticks": 2940,
                "time": 8.750003500000002,
                "velocity": 0.5039370078740157
              },
              {
                "duration": 0.17857150000000033,
                "durationTicks": 60,
                "midi": 72,
                "name": "C5",
                "ticks": 3000,
                "time": 8.928575,
                "velocity": 0.5039370078740157
              },
              {
                "duration": 0.17857150000000033,
                "durationTicks": 60,
                "midi": 74,
                "name": "D5",
                "ticks": 3060,
                "time": 9.1071465,
                "velocity": 0.5039370078740157
              },
              {
                "duration": 0.35714300000000065,
                "durationTicks": 120,
                "midi": 75,
                "name": "D#5",
                "ticks": 3120,
                "time": 9.285718000000001,
                "velocity": 0.5039370078740157
              },
              {
                "duration": 0.3571429999999989,
                "durationTicks": 120,
                "midi": 76,
                "name": "E5",
                "ticks": 3240,
                "time": 9.642861000000002,
                "velocity": 0.5039370078740157
              },
              {
                "duration": 0.17857150000000033,
                "durationTicks": 60,
                "midi": 77,
                "name": "F5",
                "ticks": 3360,
                "time": 10.000004,
                "velocity": 0.5039370078740157
              },
              {
                "duration": 0.17857150000000033,
                "durationTicks": 60,
                "midi": 76,
                "name": "E5",
                "ticks": 3420,
                "time": 10.1785755,
                "velocity": 0.5039370078740157
              },
              {
                "duration": 0.17857150000000033,
                "durationTicks": 60,
                "midi": 74,
                "name": "D5",
                "ticks": 3480,
                "time": 10.357147000000001,
                "velocity": 0.5039370078740157
              },
              {
                "duration": 0.17857150000000033,
                "durationTicks": 60,
                "midi": 76,
                "name": "E5",
                "ticks": 3540,
                "time": 10.535718500000002,
                "velocity": 0.5039370078740157
              },
              {
                "duration": 0.3571429999999989,
                "durationTicks": 120,
                "midi": 77,
                "name": "F5",
                "ticks": 3600,
                "time": 10.714290000000002,
                "velocity": 0.5039370078740157
              },
              {
                "duration": 0.35714300000000065,
                "durationTicks": 120,
                "midi": 78,
                "name": "F#5",
                "ticks": 3720,
                "time": 11.071433,
                "velocity": 0.5039370078740157
              },
              {
                "duration": 0.35714300000000065,
                "durationTicks": 120,
                "midi": 79,
                "name": "G5",
                "ticks": 3840,
                "time": 11.428576000000001,
                "velocity": 0.5039370078740157
              },
              {
                "duration": 0.17857149999999855,
                "durationTicks": 60,
                "midi": 70,
                "name": "A#4",
                "ticks": 3960,
                "time": 11.785719000000002,
                "velocity": 0.5039370078740157
              },
              {
                "duration": 0.17857150000000033,
                "durationTicks": 60,
                "midi": 72,
                "name": "C5",
                "ticks": 4020,
                "time": 11.9642905,
                "velocity": 0.5039370078740157
              },
              {
                "duration": 0.17857150000000033,
                "durationTicks": 60,
                "midi": 74,
                "name": "D5",
                "ticks": 4080,
                "time": 12.142862000000001,
                "velocity": 0.5039370078740157
              },
              {
                "duration": 0.17857150000000033,
                "durationTicks": 60,
                "midi": 75,
                "name": "D#5",
                "ticks": 4140,
                "time": 12.321433500000001,
                "velocity": 0.5039370078740157
              },
              {
                "duration": 0.17857150000000033,
                "durationTicks": 60,
                "midi": 77,
                "name": "F5",
                "ticks": 4200,
                "time": 12.500005000000002,
                "velocity": 0.5039370078740157
              },
              {
                "duration": 0.17857150000000033,
                "durationTicks": 60,
                "midi": 74,
                "name": "D5",
                "ticks": 4260,
                "time": 12.678576500000002,
                "velocity": 0.5039370078740157
              },
              {
                "duration": 0.17857149999999855,
                "durationTicks": 60,
                "midi": 75,
                "name": "D#5",
                "ticks": 4320,
                "time": 12.857148000000002,
                "velocity": 0.5039370078740157
              },
              {
                "duration": 0.17857150000000033,
                "durationTicks": 60,
                "midi": 74,
                "name": "D5",
                "ticks": 4380,
                "time": 13.0357195,
                "velocity": 0.5039370078740157
              },
              {
                "duration": 0.17857150000000033,
                "durationTicks": 60,
                "midi": 72,
                "name": "C5",
                "ticks": 4440,
                "time": 13.214291000000001,
                "velocity": 0.5039370078740157
              },
              {
                "duration": 0.17857150000000033,
                "durationTicks": 60,
                "midi": 70,
                "name": "A#4",
                "ticks": 4500,
                "time": 13.392862500000001,
                "velocity": 0.5039370078740157
              },
              {
                "duration": 0.17857150000000033,
                "durationTicks": 60,
                "midi": 69,
                "name": "A4",
                "ticks": 4560,
                "time": 13.571434000000002,
                "velocity": 0.5039370078740157
              },
              {
                "duration": 0.17857150000000033,
                "durationTicks": 60,
                "midi": 79,
                "name": "G5",
                "ticks": 4620,
                "time": 13.750005500000002,
                "velocity": 0.5039370078740157
              },
              {
                "duration": 0.17857149999999855,
                "durationTicks": 60,
                "midi": 77,
                "name": "F5",
                "ticks": 4680,
                "time": 13.928577000000002,
                "velocity": 0.5039370078740157
              },
              {
                "duration": 0.17857150000000033,
                "durationTicks": 60,
                "midi": 75,
                "name": "D#5",
                "ticks": 4740,
                "time": 14.107148500000001,
                "velocity": 0.5039370078740157
              },
              {
                "duration": 0.17857150000000033,
                "durationTicks": 60,
                "midi": 74,
                "name": "D5",
                "ticks": 4800,
                "time": 14.285720000000001,
                "velocity": 0.5039370078740157
              },
              {
                "duration": 0.17857150000000033,
                "durationTicks": 60,
                "midi": 72,
                "name": "C5",
                "ticks": 4860,
                "time": 14.464291500000002,
                "velocity": 0.5039370078740157
              },
              {
                "duration": 0.17857150000000033,
                "durationTicks": 60,
                "midi": 74,
                "name": "D5",
                "ticks": 4920,
                "time": 14.642863000000002,
                "velocity": 0.5039370078740157
              },
              {
                "duration": 0.17857150000000033,
                "durationTicks": 60,
                "midi": 76,
                "name": "E5",
                "ticks": 4980,
                "time": 14.821434500000002,
                "velocity": 0.5039370078740157
              },
              {
                "duration": 0.17857149999999855,
                "durationTicks": 60,
                "midi": 77,
                "name": "F5",
                "ticks": 5040,
                "time": 15.000006000000003,
                "velocity": 0.5039370078740157
              },
              {
                "duration": 0.17857150000000033,
                "durationTicks": 60,
                "midi": 79,
                "name": "G5",
                "ticks": 5100,
                "time": 15.178577500000001,
                "velocity": 0.5039370078740157
              },
              {
                "duration": 0.17857150000000033,
                "durationTicks": 60,
                "midi": 81,
                "name": "A5",
                "ticks": 5160,
                "time": 15.357149000000001,
                "velocity": 0.5039370078740157
              },
              {
                "duration": 0.17857150000000033,
                "durationTicks": 60,
                "midi": 77,
                "name": "F5",
                "ticks": 5220,
                "time": 15.535720500000002,
                "velocity": 0.5039370078740157
              },
              {
                "duration": 0.17857150000000033,
                "durationTicks": 60,
                "midi": 79,
                "name": "G5",
                "ticks": 5280,
                "time": 15.714292000000002,
                "velocity": 0.5039370078740157
              },
              {
                "duration": 0.17857149999999855,
                "durationTicks": 60,
                "midi": 77,
                "name": "F5",
                "ticks": 5340,
                "time": 15.892863500000002,
                "velocity": 0.5039370078740157
              },
              {
                "duration": 0.17857150000000033,
                "durationTicks": 60,
                "midi": 76,
                "name": "E5",
                "ticks": 5400,
                "time": 16.071435,
                "velocity": 0.5039370078740157
              },
              {
                "duration": 0.17857150000000033,
                "durationTicks": 60,
                "midi": 74,
                "name": "D5",
                "ticks": 5460,
                "time": 16.2500065,
                "velocity": 0.5039370078740157
              },
              {
                "duration": 0.17857150000000033,
                "durationTicks": 60,
                "midi": 73,
                "name": "C#5",
                "ticks": 5520,
                "time": 16.428578,
                "velocity": 0.5039370078740157
              },
              {
                "duration": 0.17857150000000033,
                "durationTicks": 60,
                "midi": 82,
                "name": "A#5",
                "ticks": 5580,
                "time": 16.607149500000002,
                "velocity": 0.5039370078740157
              },
              {
                "duration": 0.17857150000000033,
                "durationTicks": 60,
                "midi": 81,
                "name": "A5",
                "ticks": 5640,
                "time": 16.785721000000002,
                "velocity": 0.5039370078740157
              },
              {
                "duration": 0.17857150000000033,
                "durationTicks": 60,
                "midi": 79,
                "name": "G5",
                "ticks": 5700,
                "time": 16.964292500000003,
                "velocity": 0.5039370078740157
              },
              {
                "duration": 0.08928574999999839,
                "durationTicks": 30,
                "midi": 77,
                "name": "F5",
                "ticks": 5760,
                "time": 17.142864000000003,
                "velocity": 0.5039370078740157
              },
              {
                "duration": 0.08928575000000194,
                "durationTicks": 30,
                "midi": 79,
                "name": "G5",
                "ticks": 5790,
                "time": 17.23214975,
                "velocity": 0.5039370078740157
              },
              {
                "duration": 0.5357144999999974,
                "durationTicks": 180,
                "midi": 77,
                "name": "F5",
                "ticks": 5820,
                "time": 17.321435500000003,
                "velocity": 0.5039370078740157
              },
              {
                "duration": 0.17857150000000033,
                "durationTicks": 60,
                "midi": 79,
                "name": "G5",
                "ticks": 6060,
                "time": 18.0357215,
                "velocity": 0.5039370078740157
              },
              {
                "duration": 0.17857150000000033,
                "durationTicks": 60,
                "midi": 81,
                "name": "A5",
                "ticks": 6120,
                "time": 18.214293,
                "velocity": 0.5039370078740157
              },
              {
                "duration": 0.17857150000000033,
                "durationTicks": 60,
                "midi": 82,
                "name": "A#5",
                "ticks": 6180,
                "time": 18.3928645,
                "velocity": 0.5039370078740157
              },
              {
                "duration": 0.17857150000000033,
                "durationTicks": 60,
                "midi": 73,
                "name": "C#5",
                "ticks": 6240,
                "time": 18.571436000000002,
                "velocity": 0.5039370078740157
              },
              {
                "duration": 0.17857150000000033,
                "durationTicks": 60,
                "midi": 74,
                "name": "D5",
                "ticks": 6300,
                "time": 18.750007500000002,
                "velocity": 0.5039370078740157
              },
              {
                "duration": 0.17857150000000033,
                "durationTicks": 60,
                "midi": 76,
                "name": "E5",
                "ticks": 6360,
                "time": 18.928579000000003,
                "velocity": 0.5039370078740157
              },
              {
                "duration": 0.17857150000000033,
                "durationTicks": 60,
                "midi": 74,
                "name": "D5",
                "ticks": 6420,
                "time": 19.107150500000003,
                "velocity": 0.5039370078740157
              },
              {
                "duration": 0.35714300000000065,
                "durationTicks": 120,
                "midi": 73,
                "name": "C#5",
                "ticks": 6480,
                "time": 19.285722000000003,
                "velocity": 0.5039370078740157
              },
              {
                "duration": 0.3571429999999971,
                "durationTicks": 120,
                "midi": 72,
                "name": "C5",
                "ticks": 6600,
                "time": 19.642865000000004,
                "velocity": 0.5039370078740157
              },
              {
                "duration": 0.17857150000000033,
                "durationTicks": 60,
                "midi": 71,
                "name": "B4",
                "ticks": 6720,
                "time": 20.000008,
                "velocity": 0.5039370078740157
              },
              {
                "duration": 0.17857150000000033,
                "durationTicks": 60,
                "midi": 72,
                "name": "C5",
                "ticks": 6780,
                "time": 20.1785795,
                "velocity": 0.5039370078740157
              },
              {
                "duration": 0.17857150000000033,
                "durationTicks": 60,
                "midi": 74,
                "name": "D5",
                "ticks": 6840,
                "time": 20.357151,
                "velocity": 0.5039370078740157
              },
              {
                "duration": 0.17857150000000033,
                "durationTicks": 60,
                "midi": 72,
                "name": "C5",
                "ticks": 6900,
                "time": 20.535722500000002,
                "velocity": 0.5039370078740157
              },
              {
                "duration": 0.35714300000000065,
                "durationTicks": 120,
                "midi": 71,
                "name": "B4",
                "ticks": 6960,
                "time": 20.714294000000002,
                "velocity": 0.5039370078740157
              },
              {
                "duration": 0.35714300000000065,
                "durationTicks": 120,
                "midi": 70,
                "name": "A#4",
                "ticks": 7080,
                "time": 21.071437000000003,
                "velocity": 0.5039370078740157
              },
              {
                "duration": 0.35714300000000065,
                "durationTicks": 120,
                "midi": 69,
                "name": "A4",
                "ticks": 7200,
                "time": 21.428580000000004,
                "velocity": 0.5039370078740157
              },
              {
                "duration": 0.08928574999999839,
                "durationTicks": 30,
                "midi": 74,
                "name": "D5",
                "ticks": 7320,
                "time": 21.785723000000004,
                "velocity": 0.5039370078740157
              },
              {
                "duration": 0.08928574999999839,
                "durationTicks": 30,
                "midi": 76,
                "name": "E5",
                "ticks": 7350,
                "time": 21.875008750000003,
                "velocity": 0.5039370078740157
              },
              {
                "duration": 0.535714500000001,
                "durationTicks": 180,
                "midi": 74,
                "name": "D5",
                "ticks": 7380,
                "time": 21.9642945,
                "velocity": 0.5039370078740157
              },
              {
                "duration": 0.32738108333333216,
                "durationTicks": 110,
                "midi": 73,
                "name": "C#5",
                "ticks": 7560,
                "time": 22.500009000000002,
                "velocity": 0.5039370078740157
              },
              {
                "duration": 0.35714300000000065,
                "durationTicks": 120,
                "midi": 69,
                "name": "A4",
                "ticks": 7680,
                "time": 22.857152000000003,
                "velocity": 0.5039370078740157
              },
              {
                "duration": 0.08928574999999839,
                "durationTicks": 30,
                "midi": 77,
                "name": "F5",
                "ticks": 7800,
                "time": 23.214295000000003,
                "velocity": 0.5039370078740157
              },
              {
                "duration": 0.08928575000000194,
                "durationTicks": 30,
                "midi": 79,
                "name": "G5",
                "ticks": 7830,
                "time": 23.303580750000002,
                "velocity": 0.4409448818897638
              },
              {
                "duration": 0.5357144999999974,
                "durationTicks": 180,
                "midi": 77,
                "name": "F5",
                "ticks": 7860,
                "time": 23.392866500000004,
                "velocity": 0.5039370078740157
              },
              {
                "duration": 0.35714300000000065,
                "durationTicks": 120,
                "midi": 76,
                "name": "E5",
                "ticks": 8040,
                "time": 23.928581,
                "velocity": 0.5039370078740157
              },
              {
                "duration": 0.35714300000000065,
                "durationTicks": 120,
                "midi": 69,
                "name": "A4",
                "ticks": 8160,
                "time": 24.285724000000002,
                "velocity": 0.5039370078740157
              },
              {
                "duration": 0.08928575000000194,
                "durationTicks": 30,
                "midi": 81,
                "name": "A5",
                "ticks": 8280,
                "time": 24.642867000000003,
                "velocity": 0.5039370078740157
              },
              {
                "duration": 0.08928574999999839,
                "durationTicks": 30,
                "midi": 82,
                "name": "A#5",
                "ticks": 8310,
                "time": 24.732152750000004,
                "velocity": 0.4409448818897638
              },
              {
                "duration": 0.535714500000001,
                "durationTicks": 180,
                "midi": 81,
                "name": "A5",
                "ticks": 8340,
                "time": 24.821438500000003,
                "velocity": 0.5039370078740157
              },
              {
                "duration": 0.7142859999999978,
                "durationTicks": 240,
                "midi": 79,
                "name": "G5",
                "ticks": 8520,
                "time": 25.357153000000004,
                "velocity": 0.5039370078740157
              },
              {
                "duration": 0.17857150000000033,
                "durationTicks": 60,
                "midi": 77,
                "name": "F5",
                "ticks": 8760,
                "time": 26.071439,
                "velocity": 0.5039370078740157
              },
              {
                "duration": 0.17857150000000033,
                "durationTicks": 60,
                "midi": 76,
                "name": "E5",
                "ticks": 8820,
                "time": 26.250010500000002,
                "velocity": 0.5039370078740157
              },
              {
                "duration": 0.17857150000000033,
                "durationTicks": 60,
                "midi": 77,
                "name": "F5",
                "ticks": 8880,
                "time": 26.428582000000002,
                "velocity": 0.5039370078740157
              },
              {
                "duration": 0.17857150000000033,
                "durationTicks": 60,
                "midi": 74,
                "name": "D5",
                "ticks": 8940,
                "time": 26.607153500000003,
                "velocity": 0.5039370078740157
              },
              {
                "duration": 0.17857150000000033,
                "durationTicks": 60,
                "midi": 76,
                "name": "E5",
                "ticks": 9000,
                "time": 26.785725000000003,
                "velocity": 0.5039370078740157
              },
              {
                "duration": 0.17857150000000033,
                "durationTicks": 60,
                "midi": 73,
                "name": "C#5",
                "ticks": 9060,
                "time": 26.964296500000003,
                "velocity": 0.5039370078740157
              },
              {
                "duration": 0.14880958333333538,
                "durationTicks": 50,
                "midi": 74,
                "name": "D5",
                "ticks": 9120,
                "time": 27.142868000000004,
                "velocity": 0.5039370078740157
              },
              {
                "duration": 0.05952383333333344,
                "durationTicks": 20,
                "midi": 76,
                "name": "E5",
                "ticks": 9180,
                "time": 27.321439500000004,
                "velocity": 0.4645669291338583
              },
              {
                "duration": 0.05952383333332989,
                "durationTicks": 20,
                "midi": 74,
                "name": "D5",
                "ticks": 9200,
                "time": 27.380963333333337,
                "velocity": 0.4881889763779528
              },
              {
                "duration": 0.059523833333336995,
                "durationTicks": 20,
                "midi": 73,
                "name": "C#5",
                "ticks": 9220,
                "time": 27.440487166666667,
                "velocity": 0.5039370078740157
              },
              {
                "duration": 0.17857150000000033,
                "durationTicks": 60,
                "midi": 74,
                "name": "D5",
                "ticks": 9240,
                "time": 27.500011000000004,
                "velocity": 0.5039370078740157
              },
              {
                "duration": 0.14880958333333538,
                "durationTicks": 50,
                "midi": 76,
                "name": "E5",
                "ticks": 9300,
                "time": 27.678582500000005,
                "velocity": 0.5039370078740157
              },
              {
                "duration": 0.05952383333333344,
                "durationTicks": 20,
                "midi": 76,
                "name": "E5",
                "ticks": 9360,
                "time": 27.857154000000005,
                "velocity": 0.5039370078740157
              },
              {
                "duration": 0.05952383333332989,
                "durationTicks": 20,
                "midi": 77,
                "name": "F5",
                "ticks": 9380,
                "time": 27.91667783333334,
                "velocity": 0.4409448818897638
              },
              {
                "duration": 0.059523833333336995,
                "durationTicks": 20,
                "midi": 76,
                "name": "E5",
                "ticks": 9400,
                "time": 27.976201666666668,
                "velocity": 0.4566929133858268
              },
              {
                "duration": 0.05952383333333344,
                "durationTicks": 20,
                "midi": 77,
                "name": "F5",
                "ticks": 9420,
                "time": 28.035725500000005,
                "velocity": 0.4645669291338583
              },
              {
                "duration": 0.05952383333332989,
                "durationTicks": 20,
                "midi": 76,
                "name": "E5",
                "ticks": 9440,
                "time": 28.09524933333334,
                "velocity": 0.47244094488188976
              },
              {
                "duration": 0.05952383333333344,
                "durationTicks": 20,
                "midi": 77,
                "name": "F5",
                "ticks": 9460,
                "time": 28.15477316666667,
                "velocity": 0.4881889763779528
              },
              {
                "duration": 0.17857150000000033,
                "durationTicks": 60,
                "midi": 76,
                "name": "E5",
                "ticks": 9480,
                "time": 28.214297000000002,
                "velocity": 0.49606299212598426
              },
              {
                "duration": 0.17857150000000033,
                "durationTicks": 60,
                "midi": 74,
                "name": "D5",
                "ticks": 9540,
                "time": 28.392868500000002,
                "velocity": 0.5039370078740157
              },
              {
                "duration": 0.35714300000000065,
                "durationTicks": 120,
                "midi": 74,
                "name": "D5",
                "ticks": 9600,
                "time": 28.571440000000003,
                "velocity": 0.5039370078740157
              },
              {
                "duration": 0.17857150000000033,
                "durationTicks": 60,
                "midi": 72,
                "name": "C5",
                "ticks": 9720,
                "time": 28.928583000000003,
                "velocity": 0.5039370078740157
              },
              {
                "duration": 0.17857150000000033,
                "durationTicks": 60,
                "midi": 70,
                "name": "A#4",
                "ticks": 9780,
                "time": 29.107154500000004,
                "velocity": 0.5039370078740157
              },
              {
                "duration": 0.17857150000000033,
                "durationTicks": 60,
                "midi": 69,
                "name": "A4",
                "ticks": 9840,
                "time": 29.285726000000004,
                "velocity": 0.5039370078740157
              },
              {
                "duration": 0.17857150000000033,
                "durationTicks": 60,
                "midi": 70,
                "name": "A#4",
                "ticks": 9900,
                "time": 29.464297500000004,
                "velocity": 0.5039370078740157
              },
              {
                "duration": 0.17857150000000033,
                "durationTicks": 60,
                "midi": 72,
                "name": "C5",
                "ticks": 9960,
                "time": 29.642869000000005,
                "velocity": 0.5039370078740157
              },
              {
                "duration": 0.17857150000000033,
                "durationTicks": 60,
                "midi": 69,
                "name": "A4",
                "ticks": 10020,
                "time": 29.821440500000005,
                "velocity": 0.5039370078740157
              },
              {
                "duration": 0.17857149999999677,
                "durationTicks": 60,
                "midi": 70,
                "name": "A#4",
                "ticks": 10080,
                "time": 30.000012000000005,
                "velocity": 0.5039370078740157
              },
              {
                "duration": 0.17857150000000033,
                "durationTicks": 60,
                "midi": 69,
                "name": "A4",
                "ticks": 10140,
                "time": 30.178583500000002,
                "velocity": 0.5039370078740157
              },
              {
                "duration": 0.17857150000000033,
                "durationTicks": 60,
                "midi": 67,
                "name": "G4",
                "ticks": 10200,
                "time": 30.357155000000002,
                "velocity": 0.5039370078740157
              },
              {
                "duration": 0.17857150000000033,
                "durationTicks": 60,
                "midi": 65,
                "name": "F4",
                "ticks": 10260,
                "time": 30.535726500000003,
                "velocity": 0.5039370078740157
              },
              {
                "duration": 0.17857150000000033,
                "durationTicks": 60,
                "midi": 64,
                "name": "E4",
                "ticks": 10320,
                "time": 30.714298000000003,
                "velocity": 0.5039370078740157
              },
              {
                "duration": 0.17857150000000033,
                "durationTicks": 60,
                "midi": 74,
                "name": "D5",
                "ticks": 10380,
                "time": 30.892869500000003,
                "velocity": 0.5039370078740157
              },
              {
                "duration": 0.17857150000000033,
                "durationTicks": 60,
                "midi": 72,
                "name": "C5",
                "ticks": 10440,
                "time": 31.071441000000004,
                "velocity": 0.5039370078740157
              },
              {
                "duration": 0.17857150000000033,
                "durationTicks": 60,
                "midi": 70,
                "name": "A#4",
                "ticks": 10500,
                "time": 31.250012500000004,
                "velocity": 0.5039370078740157
              },
              {
                "duration": 0.17857150000000033,
                "durationTicks": 60,
                "midi": 69,
                "name": "A4",
                "ticks": 10560,
                "time": 31.428584000000004,
                "velocity": 0.5039370078740157
              },
              {
                "duration": 0.17857150000000033,
                "durationTicks": 60,
                "midi": 67,
                "name": "G4",
                "ticks": 10620,
                "time": 31.607155500000005,
                "velocity": 0.5039370078740157
              },
              {
                "duration": 0.17857150000000033,
                "durationTicks": 60,
                "midi": 69,
                "name": "A4",
                "ticks": 10680,
                "time": 31.785727000000005,
                "velocity": 0.5039370078740157
              },
              {
                "duration": 0.17857149999999677,
                "durationTicks": 60,
                "midi": 71,
                "name": "B4",
                "ticks": 10740,
                "time": 31.964298500000005,
                "velocity": 0.5039370078740157
              },
              {
                "duration": 0.08928575000000194,
                "durationTicks": 30,
                "midi": 72,
                "name": "C5",
                "ticks": 10800,
                "time": 32.14287,
                "velocity": 0.5039370078740157
              },
              {
                "duration": 0.08928575000000194,
                "durationTicks": 30,
                "midi": 71,
                "name": "B4",
                "ticks": 10830,
                "time": 32.232155750000004,
                "velocity": 0.4409448818897638
              },
              {
                "duration": 0.5357144999999974,
                "durationTicks": 180,
                "midi": 72,
                "name": "C5",
                "ticks": 10860,
                "time": 32.321441500000006,
                "velocity": 0.5039370078740157
              },
              {
                "duration": 0.17857149999999677,
                "durationTicks": 60,
                "midi": 69,
                "name": "A4",
                "ticks": 11100,
                "time": 33.03572750000001,
                "velocity": 0.5039370078740157
              },
              {
                "duration": 0.17857149999999677,
                "durationTicks": 60,
                "midi": 71,
                "name": "B4",
                "ticks": 11160,
                "time": 33.214299000000004,
                "velocity": 0.5039370078740157
              },
              {
                "duration": 0.17857150000000388,
                "durationTicks": 60,
                "midi": 72,
                "name": "C5",
                "ticks": 11220,
                "time": 33.3928705,
                "velocity": 0.5039370078740157
              },
              {
                "duration": 0.08928575000000194,
                "durationTicks": 30,
                "midi": 74,
                "name": "D5",
                "ticks": 11280,
                "time": 33.571442000000005,
                "velocity": 0.5039370078740157
              },
              {
                "duration": 0.08928574999999483,
                "durationTicks": 30,
                "midi": 72,
                "name": "C5",
                "ticks": 11310,
                "time": 33.66072775000001,
                "velocity": 0.4409448818897638
              },
              {
                "duration": 0.5357145000000045,
                "durationTicks": 180,
                "midi": 74,
                "name": "D5",
                "ticks": 11340,
                "time": 33.7500135,
                "velocity": 0.5039370078740157
              },
              {
                "duration": 0.17857150000000388,
                "durationTicks": 60,
                "midi": 67,
                "name": "G4",
                "ticks": 11580,
                "time": 34.4642995,
                "velocity": 0.5039370078740157
              },
              {
                "duration": 0.17857149999999677,
                "durationTicks": 60,
                "midi": 69,
                "name": "A4",
                "ticks": 11640,
                "time": 34.64287100000001,
                "velocity": 0.5039370078740157
              },
              {
                "duration": 0.17857150000000388,
                "durationTicks": 60,
                "midi": 71,
                "name": "B4",
                "ticks": 11700,
                "time": 34.8214425,
                "velocity": 0.5039370078740157
              },
              {
                "duration": 0.17857149999999677,
                "durationTicks": 60,
                "midi": 72,
                "name": "C5",
                "ticks": 11760,
                "time": 35.00001400000001,
                "velocity": 0.5039370078740157
              },
              {
                "duration": 0.17857149999999677,
                "durationTicks": 60,
                "midi": 74,
                "name": "D5",
                "ticks": 11820,
                "time": 35.178585500000004,
                "velocity": 0.5039370078740157
              },
              {
                "duration": 0.17857150000000388,
                "durationTicks": 60,
                "midi": 75,
                "name": "D#5",
                "ticks": 11880,
                "time": 35.357157,
                "velocity": 0.5039370078740157
              },
              {
                "duration": 0.17857149999999677,
                "durationTicks": 60,
                "midi": 72,
                "name": "C5",
                "ticks": 11940,
                "time": 35.535728500000005,
                "velocity": 0.5039370078740157
              },
              {
                "duration": 0.17857150000000388,
                "durationTicks": 60,
                "midi": 74,
                "name": "D5",
                "ticks": 12000,
                "time": 35.7143,
                "velocity": 0.5039370078740157
              },
              {
                "duration": 0.17857149999999677,
                "durationTicks": 60,
                "midi": 72,
                "name": "C5",
                "ticks": 12060,
                "time": 35.892871500000005,
                "velocity": 0.5039370078740157
              },
              {
                "duration": 0.17857150000000388,
                "durationTicks": 60,
                "midi": 70,
                "name": "A#4",
                "ticks": 12120,
                "time": 36.071443,
                "velocity": 0.5039370078740157
              },
              {
                "duration": 0.17857149999999677,
                "durationTicks": 60,
                "midi": 69,
                "name": "A4",
                "ticks": 12180,
                "time": 36.250014500000006,
                "velocity": 0.5039370078740157
              },
              {
                "duration": 0.17857150000000388,
                "durationTicks": 60,
                "midi": 67,
                "name": "G4",
                "ticks": 12240,
                "time": 36.428586,
                "velocity": 0.5039370078740157
              },
              {
                "duration": 0.17857149999999677,
                "durationTicks": 60,
                "midi": 77,
                "name": "F5",
                "ticks": 12300,
                "time": 36.60715750000001,
                "velocity": 0.5039370078740157
              },
              {
                "duration": 0.17857150000000388,
                "durationTicks": 60,
                "midi": 75,
                "name": "D#5",
                "ticks": 12360,
                "time": 36.785729,
                "velocity": 0.5039370078740157
              },
              {
                "duration": 0.17857149999999677,
                "durationTicks": 60,
                "midi": 74,
                "name": "D5",
                "ticks": 12420,
                "time": 36.96430050000001,
                "velocity": 0.5039370078740157
              },
              {
                "duration": 0.17857150000000388,
                "durationTicks": 60,
                "midi": 72,
                "name": "C5",
                "ticks": 12480,
                "time": 37.142872000000004,
                "velocity": 0.5039370078740157
              },
              {
                "duration": 0.17857149999999677,
                "durationTicks": 60,
                "midi": 70,
                "name": "A#4",
                "ticks": 12540,
                "time": 37.32144350000001,
                "velocity": 0.5039370078740157
              },
              {
                "duration": 0.17857149999999677,
                "durationTicks": 60,
                "midi": 68,
                "name": "G#4",
                "ticks": 12600,
                "time": 37.500015000000005,
                "velocity": 0.5039370078740157
              },
              {
                "duration": 0.17857150000000388,
                "durationTicks": 60,
                "midi": 67,
                "name": "G4",
                "ticks": 12660,
                "time": 37.6785865,
                "velocity": 0.5039370078740157
              },
              {
                "duration": 0.17857149999999677,
                "durationTicks": 60,
                "midi": 65,
                "name": "F4",
                "ticks": 12720,
                "time": 37.857158000000005,
                "velocity": 0.5039370078740157
              },
              {
                "duration": 0.17857150000000388,
                "durationTicks": 60,
                "midi": 75,
                "name": "D#5",
                "ticks": 12780,
                "time": 38.0357295,
                "velocity": 0.5039370078740157
              },
              {
                "duration": 0.17857149999999677,
                "durationTicks": 60,
                "midi": 74,
                "name": "D5",
                "ticks": 12840,
                "time": 38.214301000000006,
                "velocity": 0.5039370078740157
              },
              {
                "duration": 0.17857150000000388,
                "durationTicks": 60,
                "midi": 72,
                "name": "C5",
                "ticks": 12900,
                "time": 38.3928725,
                "velocity": 0.5039370078740157
              },
              {
                "duration": 0.17857149999999677,
                "durationTicks": 60,
                "midi": 79,
                "name": "G5",
                "ticks": 12960,
                "time": 38.57144400000001,
                "velocity": 0.5039370078740157
              },
              {
                "duration": 0.17857150000000388,
                "durationTicks": 60,
                "midi": 77,
                "name": "F5",
                "ticks": 13020,
                "time": 38.7500155,
                "velocity": 0.5039370078740157
              },
              {
                "duration": 0.17857149999999677,
                "durationTicks": 60,
                "midi": 75,
                "name": "D#5",
                "ticks": 13080,
                "time": 38.92858700000001,
                "velocity": 0.5039370078740157
              },
              {
                "duration": 0.17857150000000388,
                "durationTicks": 60,
                "midi": 79,
                "name": "G5",
                "ticks": 13140,
                "time": 39.107158500000004,
                "velocity": 0.5039370078740157
              },
              {
                "duration": 0.17857149999999677,
                "durationTicks": 60,
                "midi": 77,
                "name": "F5",
                "ticks": 13200,
                "time": 39.28573000000001,
                "velocity": 0.5039370078740157
              },
              {
                "duration": 0.17857149999999677,
                "durationTicks": 60,
                "midi": 75,
                "name": "D#5",
                "ticks": 13260,
                "time": 39.464301500000005,
                "velocity": 0.5039370078740157
              },
              {
                "duration": 0.17857150000000388,
                "durationTicks": 60,
                "midi": 74,
                "name": "D5",
                "ticks": 13320,
                "time": 39.642873,
                "velocity": 0.5039370078740157
              },
              {
                "duration": 0.17857149999999677,
                "durationTicks": 60,
                "midi": 77,
                "name": "F5",
                "ticks": 13380,
                "time": 39.821444500000005,
                "velocity": 0.5039370078740157
              },
              {
                "duration": 0.17857150000000388,
                "durationTicks": 60,
                "midi": 75,
                "name": "D#5",
                "ticks": 13440,
                "time": 40.000016,
                "velocity": 0.5039370078740157
              },
              {
                "duration": 0.17857149999999677,
                "durationTicks": 60,
                "midi": 74,
                "name": "D5",
                "ticks": 13500,
                "time": 40.178587500000006,
                "velocity": 0.5039370078740157
              },
              {
                "duration": 0.17857150000000388,
                "durationTicks": 60,
                "midi": 72,
                "name": "C5",
                "ticks": 13560,
                "time": 40.357159,
                "velocity": 0.5039370078740157
              },
              {
                "duration": 0.17857149999999677,
                "durationTicks": 60,
                "midi": 74,
                "name": "D5",
                "ticks": 13620,
                "time": 40.53573050000001,
                "velocity": 0.5039370078740157
              },
              {
                "duration": 0.17857150000000388,
                "durationTicks": 60,
                "midi": 75,
                "name": "D#5",
                "ticks": 13680,
                "time": 40.714302,
                "velocity": 0.5039370078740157
              },
              {
                "duration": 0.17857149999999677,
                "durationTicks": 60,
                "midi": 77,
                "name": "F5",
                "ticks": 13740,
                "time": 40.89287350000001,
                "velocity": 0.5039370078740157
              },
              {
                "duration": 0.17857150000000388,
                "durationTicks": 60,
                "midi": 79,
                "name": "G5",
                "ticks": 13800,
                "time": 41.071445000000004,
                "velocity": 0.5039370078740157
              },
              {
                "duration": 0.17857149999999677,
                "durationTicks": 60,
                "midi": 80,
                "name": "G#5",
                "ticks": 13860,
                "time": 41.25001650000001,
                "velocity": 0.5039370078740157
              },
              {
                "duration": 0.35714300000000065,
                "durationTicks": 120,
                "midi": 71,
                "name": "B4",
                "ticks": 13920,
                "time": 41.428588000000005,
                "velocity": 0.5039370078740157
              },
              {
                "duration": 0.35714300000000065,
                "durationTicks": 120,
                "midi": 74,
                "name": "D5",
                "ticks": 14040,
                "time": 41.785731000000006,
                "velocity": 0.5039370078740157
              },
              {
                "duration": 0.7142860000000013,
                "durationTicks": 240,
                "midi": 65,
                "name": "F4",
                "ticks": 14280,
                "time": 42.50001700000001,
                "velocity": 0.5039370078740157
              },
              {
                "duration": 0.35714300000000065,
                "durationTicks": 120,
                "midi": 72,
                "name": "C5",
                "ticks": 14520,
                "time": 43.21430300000001,
                "velocity": 0.5039370078740157
              },
              {
                "duration": 0.35714299999999355,
                "durationTicks": 120,
                "midi": 62,
                "name": "D4",
                "ticks": 14640,
                "time": 43.57144600000001,
                "velocity": 0.5039370078740157
              },
              {
                "duration": 0.059523833333336995,
                "durationTicks": 20,
                "midi": 71,
                "name": "B4",
                "ticks": 14760,
                "time": 43.928589,
                "velocity": 0.5039370078740157
              },
              {
                "duration": 0.05952383333332989,
                "durationTicks": 20,
                "midi": 72,
                "name": "C5",
                "ticks": 14780,
                "time": 43.98811283333334,
                "velocity": 0.4409448818897638
              },
              {
                "duration": 0.059523833333336995,
                "durationTicks": 20,
                "midi": 71,
                "name": "B4",
                "ticks": 14800,
                "time": 44.04763666666667,
                "velocity": 0.4566929133858268
              },
              {
                "duration": 0.08928575000000194,
                "durationTicks": 30,
                "midi": 69,
                "name": "A4",
                "ticks": 14820,
                "time": 44.107160500000006,
                "velocity": 0.47244094488188976
              },
              {
                "duration": 0.08928574999999483,
                "durationTicks": 30,
                "midi": 71,
                "name": "B4",
                "ticks": 14850,
                "time": 44.19644625000001,
                "velocity": 0.49606299212598426
              },
              {
                "duration": 0.17857150000000388,
                "durationTicks": 60,
                "midi": 72,
                "name": "C5",
                "ticks": 14880,
                "time": 44.285732,
                "velocity": 0.5039370078740157
              },
              {
                "duration": 0.17857149999999677,
                "durationTicks": 60,
                "midi": 67,
                "name": "G4",
                "ticks": 14940,
                "time": 44.46430350000001,
                "velocity": 0.5039370078740157
              },
              {
                "duration": 0.17857150000000388,
                "durationTicks": 60,
                "midi": 72,
                "name": "C5",
                "ticks": 15000,
                "time": 44.642875000000004,
                "velocity": 0.5039370078740157
              },
              {
                "duration": 0.17857149999999677,
                "durationTicks": 60,
                "midi": 74,
                "name": "D5",
                "ticks": 15060,
                "time": 44.82144650000001,
                "velocity": 0.5039370078740157
              },
              {
                "duration": 0.08928575000000194,
                "durationTicks": 30,
                "midi": 75,
                "name": "D#5",
                "ticks": 15120,
                "time": 45.000018000000004,
                "velocity": 0.5039370078740157
              },
              {
                "duration": 0.08928575000000194,
                "durationTicks": 30,
                "midi": 74,
                "name": "D5",
                "ticks": 15150,
                "time": 45.089303750000006,
                "velocity": 0.4409448818897638
              },
              {
                "duration": 0.5357144999999974,
                "durationTicks": 180,
                "midi": 75,
                "name": "D#5",
                "ticks": 15180,
                "time": 45.17858950000001,
                "velocity": 0.5039370078740157
              },
              {
                "duration": 0.17857150000000388,
                "durationTicks": 60,
                "midi": 72,
                "name": "C5",
                "ticks": 15420,
                "time": 45.8928755,
                "velocity": 0.5039370078740157
              },
              {
                "duration": 0.17857149999999677,
                "durationTicks": 60,
                "midi": 74,
                "name": "D5",
                "ticks": 15480,
                "time": 46.071447000000006,
                "velocity": 0.5039370078740157
              },
              {
                "duration": 0.17857150000000388,
                "durationTicks": 60,
                "midi": 75,
                "name": "D#5",
                "ticks": 15540,
                "time": 46.2500185,
                "velocity": 0.5039370078740157
              },
              {
                "duration": 0.08928575000000194,
                "durationTicks": 30,
                "midi": 77,
                "name": "F5",
                "ticks": 15600,
                "time": 46.42859000000001,
                "velocity": 0.5039370078740157
              },
              {
                "duration": 0.08928574999999483,
                "durationTicks": 30,
                "midi": 75,
                "name": "D#5",
                "ticks": 15630,
                "time": 46.51787575000001,
                "velocity": 0.4409448818897638
              },
              {
                "duration": 0.8630955833333331,
                "durationTicks": 290,
                "midi": 77,
                "name": "F5",
                "ticks": 15660,
                "time": 46.607161500000004,
                "velocity": 0.5039370078740157
              },
              {
                "duration": 0.05952383333332989,
                "durationTicks": 20,
                "midi": 75,
                "name": "D#5",
                "ticks": 15960,
                "time": 47.50001900000001,
                "velocity": 0.4645669291338583
              },
              {
                "duration": 0.059523833333336995,
                "durationTicks": 20,
                "midi": 77,
                "name": "F5",
                "ticks": 15980,
                "time": 47.55954283333334,
                "velocity": 0.48031496062992124
              },
              {
                "duration": 0.05952383333332989,
                "durationTicks": 20,
                "midi": 75,
                "name": "D#5",
                "ticks": 16000,
                "time": 47.619066666666676,
                "velocity": 0.5039370078740157
              },
              {
                "duration": 0.17857149999999677,
                "durationTicks": 60,
                "midi": 74,
                "name": "D5",
                "ticks": 16020,
                "time": 47.678590500000006,
                "velocity": 0.5039370078740157
              },
              {
                "duration": 0.08928575000000194,
                "durationTicks": 30,
                "midi": 79,
                "name": "G5",
                "ticks": 16080,
                "time": 47.857162,
                "velocity": 0.5039370078740157
              },
              {
                "duration": 0.08928575000000194,
                "durationTicks": 30,
                "midi": 77,
                "name": "F5",
                "ticks": 16110,
                "time": 47.946447750000004,
                "velocity": 0.4409448818897638
              },
              {
                "duration": 0.35714300000000065,
                "durationTicks": 120,
                "midi": 79,
                "name": "G5",
                "ticks": 16140,
                "time": 48.035733500000006,
                "velocity": 0.5039370078740157
              },
              {
                "duration": 0.17857149999999677,
                "durationTicks": 60,
                "midi": 77,
                "name": "F5",
                "ticks": 16260,
                "time": 48.39287650000001,
                "velocity": 0.5039370078740157
              },
              {
                "duration": 0.17857150000000388,
                "durationTicks": 60,
                "midi": 75,
                "name": "D#5",
                "ticks": 16320,
                "time": 48.571448000000004,
                "velocity": 0.5039370078740157
              },
              {
                "duration": 0.17857149999999677,
                "durationTicks": 60,
                "midi": 74,
                "name": "D5",
                "ticks": 16380,
                "time": 48.75001950000001,
                "velocity": 0.5039370078740157
              },
              {
                "duration": 0.17857150000000388,
                "durationTicks": 60,
                "midi": 72,
                "name": "C5",
                "ticks": 16440,
                "time": 48.928591000000004,
                "velocity": 0.5039370078740157
              },
              {
                "duration": 0.17857149999999677,
                "durationTicks": 60,
                "midi": 70,
                "name": "A#4",
                "ticks": 16500,
                "time": 49.10716250000001,
                "velocity": 0.5039370078740157
              },
              {
                "duration": 0.17857150000000388,
                "durationTicks": 60,
                "midi": 69,
                "name": "A4",
                "ticks": 16560,
                "time": 49.285734000000005,
                "velocity": 0.5039370078740157
              },
              {
                "duration": 0.17857149999999677,
                "durationTicks": 60,
                "midi": 67,
                "name": "G4",
                "ticks": 16620,
                "time": 49.46430550000001,
                "velocity": 0.5039370078740157
              },
              {
                "duration": 0.17857150000000388,
                "durationTicks": 60,
                "midi": 66,
                "name": "F#4",
                "ticks": 16680,
                "time": 49.642877000000006,
                "velocity": 0.5039370078740157
              },
              {
                "duration": 0.17857149999999677,
                "durationTicks": 60,
                "midi": 69,
                "name": "A4",
                "ticks": 16740,
                "time": 49.82144850000001,
                "velocity": 0.5039370078740157
              },
              {
                "duration": 0.17857149999999677,
                "durationTicks": 60,
                "midi": 63,
                "name": "D#4",
                "ticks": 16800,
                "time": 50.000020000000006,
                "velocity": 0.5039370078740157
              },
              {
                "duration": 0.17857150000000388,
                "durationTicks": 60,
                "midi": 62,
                "name": "D4",
                "ticks": 16860,
                "time": 50.1785915,
                "velocity": 0.5039370078740157
              },
              {
                "duration": 0.17857149999999677,
                "durationTicks": 60,
                "midi": 64,
                "name": "E4",
                "ticks": 16920,
                "time": 50.35716300000001,
                "velocity": 0.5039370078740157
              },
              {
                "duration": 0.17857150000000388,
                "durationTicks": 60,
                "midi": 66,
                "name": "F#4",
                "ticks": 16980,
                "time": 50.535734500000004,
                "velocity": 0.5039370078740157
              },
              {
                "duration": 0.17857149999999677,
                "durationTicks": 60,
                "midi": 67,
                "name": "G4",
                "ticks": 17040,
                "time": 50.71430600000001,
                "velocity": 0.5039370078740157
              },
              {
                "duration": 0.17857150000000388,
                "durationTicks": 60,
                "midi": 69,
                "name": "A4",
                "ticks": 17100,
                "time": 50.892877500000004,
                "velocity": 0.5039370078740157
              },
              {
                "duration": 0.17857149999999677,
                "durationTicks": 60,
                "midi": 70,
                "name": "A#4",
                "ticks": 17160,
                "time": 51.07144900000001,
                "velocity": 0.5039370078740157
              },
              {
                "duration": 0.17857150000000388,
                "durationTicks": 60,
                "midi": 67,
                "name": "G4",
                "ticks": 17220,
                "time": 51.250020500000005,
                "velocity": 0.5039370078740157
              },
              {
                "duration": 0.17857149999999677,
                "durationTicks": 60,
                "midi": 69,
                "name": "A4",
                "ticks": 17280,
                "time": 51.42859200000001,
                "velocity": 0.5039370078740157
              },
              {
                "duration": 0.17857150000000388,
                "durationTicks": 60,
                "midi": 67,
                "name": "G4",
                "ticks": 17340,
                "time": 51.607163500000006,
                "velocity": 0.5039370078740157
              },
              {
                "duration": 0.17857149999999677,
                "durationTicks": 60,
                "midi": 66,
                "name": "F#4",
                "ticks": 17400,
                "time": 51.78573500000001,
                "velocity": 0.5039370078740157
              },
              {
                "duration": 0.17857149999999677,
                "durationTicks": 60,
                "midi": 64,
                "name": "E4",
                "ticks": 17460,
                "time": 51.964306500000006,
                "velocity": 0.5039370078740157
              },
              {
                "duration": 0.17857150000000388,
                "durationTicks": 60,
                "midi": 62,
                "name": "D4",
                "ticks": 17520,
                "time": 52.142878,
                "velocity": 0.5039370078740157
              },
              {
                "duration": 0.17857149999999677,
                "durationTicks": 60,
                "midi": 72,
                "name": "C5",
                "ticks": 17580,
                "time": 52.32144950000001,
                "velocity": 0.5039370078740157
              },
              {
                "duration": 0.17857150000000388,
                "durationTicks": 60,
                "midi": 70,
                "name": "A#4",
                "ticks": 17640,
                "time": 52.500021000000004,
                "velocity": 0.5039370078740157
              },
              {
                "duration": 0.17857149999999677,
                "durationTicks": 60,
                "midi": 69,
                "name": "A4",
                "ticks": 17700,
                "time": 52.67859250000001,
                "velocity": 0.5039370078740157
              },
              {
                "duration": 0.17857150000000388,
                "durationTicks": 60,
                "midi": 67,
                "name": "G4",
                "ticks": 17760,
                "time": 52.857164000000004,
                "velocity": 0.5039370078740157
              },
              {
                "duration": 0.17857149999999677,
                "durationTicks": 60,
                "midi": 65,
                "name": "F4",
                "ticks": 17820,
                "time": 53.03573550000001,
                "velocity": 0.5039370078740157
              },
              {
                "duration": 0.17857150000000388,
                "durationTicks": 60,
                "midi": 63,
                "name": "D#4",
                "ticks": 17880,
                "time": 53.214307000000005,
                "velocity": 0.5039370078740157
              },
              {
                "duration": 0.17857149999999677,
                "durationTicks": 60,
                "midi": 62,
                "name": "D4",
                "ticks": 17940,
                "time": 53.39287850000001,
                "velocity": 0.5039370078740157
              },
              {
                "duration": 0.17857150000000388,
                "durationTicks": 60,
                "midi": 60,
                "name": "C4",
                "ticks": 18000,
                "time": 53.571450000000006,
                "velocity": 0.5039370078740157
              },
              {
                "duration": 0.17857149999999677,
                "durationTicks": 60,
                "midi": 70,
                "name": "A#4",
                "ticks": 18060,
                "time": 53.75002150000001,
                "velocity": 0.5039370078740157
              },
              {
                "duration": 0.17857149999999677,
                "durationTicks": 60,
                "midi": 69,
                "name": "A4",
                "ticks": 18120,
                "time": 53.928593000000006,
                "velocity": 0.5039370078740157
              },
              {
                "duration": 0.17857150000000388,
                "durationTicks": 60,
                "midi": 67,
                "name": "G4",
                "ticks": 18180,
                "time": 54.1071645,
                "velocity": 0.5039370078740157
              },
              {
                "duration": 0.17857149999999677,
                "durationTicks": 60,
                "midi": 74,
                "name": "D5",
                "ticks": 18240,
                "time": 54.28573600000001,
                "velocity": 0.5039370078740157
              },
              {
                "duration": 0.17857150000000388,
                "durationTicks": 60,
                "midi": 72,
                "name": "C5",
                "ticks": 18300,
                "time": 54.464307500000004,
                "velocity": 0.5039370078740157
              },
              {
                "duration": 0.17857149999999677,
                "durationTicks": 60,
                "midi": 70,
                "name": "A#4",
                "ticks": 18360,
                "time": 54.64287900000001,
                "velocity": 0.5039370078740157
              },
              {
                "duration": 0.17857150000000388,
                "durationTicks": 60,
                "midi": 74,
                "name": "D5",
                "ticks": 18420,
                "time": 54.821450500000005,
                "velocity": 0.5039370078740157
              },
              {
                "duration": 0.17857149999999677,
                "durationTicks": 60,
                "midi": 72,
                "name": "C5",
                "ticks": 18480,
                "time": 55.00002200000001,
                "velocity": 0.5039370078740157
              },
              {
                "duration": 0.17857150000000388,
                "durationTicks": 60,
                "midi": 70,
                "name": "A#4",
                "ticks": 18540,
                "time": 55.178593500000005,
                "velocity": 0.5039370078740157
              },
              {
                "duration": 0.17857149999999677,
                "durationTicks": 60,
                "midi": 69,
                "name": "A4",
                "ticks": 18600,
                "time": 55.35716500000001,
                "velocity": 0.5039370078740157
              },
              {
                "duration": 0.17857150000000388,
                "durationTicks": 60,
                "midi": 72,
                "name": "C5",
                "ticks": 18660,
                "time": 55.535736500000006,
                "velocity": 0.5039370078740157
              },
              {
                "duration": 0.17857149999999677,
                "durationTicks": 60,
                "midi": 70,
                "name": "A#4",
                "ticks": 18720,
                "time": 55.71430800000001,
                "velocity": 0.5039370078740157
              },
              {
                "duration": 0.17857150000000388,
                "durationTicks": 60,
                "midi": 69,
                "name": "A4",
                "ticks": 18780,
                "time": 55.89287950000001,
                "velocity": 0.5039370078740157
              },
              {
                "duration": 0.17857149999999677,
                "durationTicks": 60,
                "midi": 67,
                "name": "G4",
                "ticks": 18840,
                "time": 56.07145100000001,
                "velocity": 0.5039370078740157
              },
              {
                "duration": 0.17857149999999677,
                "durationTicks": 60,
                "midi": 70,
                "name": "A#4",
                "ticks": 18900,
                "time": 56.25002250000001,
                "velocity": 0.5039370078740157
              },
              {
                "duration": 0.17857150000000388,
                "durationTicks": 60,
                "midi": 69,
                "name": "A4",
                "ticks": 18960,
                "time": 56.428594000000004,
                "velocity": 0.5039370078740157
              },
              {
                "duration": 0.17857149999999677,
                "durationTicks": 60,
                "midi": 67,
                "name": "G4",
                "ticks": 19020,
                "time": 56.60716550000001,
                "velocity": 0.5039370078740157
              },
              {
                "duration": 0.17857150000000388,
                "durationTicks": 60,
                "midi": 66,
                "name": "F#4",
                "ticks": 19080,
                "time": 56.785737000000005,
                "velocity": 0.5039370078740157
              },
              {
                "duration": 0.17857149999999677,
                "durationTicks": 60,
                "midi": 69,
                "name": "A4",
                "ticks": 19140,
                "time": 56.96430850000001,
                "velocity": 0.5039370078740157
              },
              {
                "duration": 0.17857150000000388,
                "durationTicks": 60,
                "midi": 67,
                "name": "G4",
                "ticks": 19200,
                "time": 57.142880000000005,
                "velocity": 0.5039370078740157
              },
              {
                "duration": 0.17857149999999677,
                "durationTicks": 60,
                "midi": 69,
                "name": "A4",
                "ticks": 19260,
                "time": 57.32145150000001,
                "velocity": 0.5039370078740157
              },
              {
                "duration": 0.17857150000000388,
                "durationTicks": 60,
                "midi": 70,
                "name": "A#4",
                "ticks": 19320,
                "time": 57.500023000000006,
                "velocity": 0.5039370078740157
              },
              {
                "duration": 0.17857149999999677,
                "durationTicks": 60,
                "midi": 72,
                "name": "C5",
                "ticks": 19380,
                "time": 57.67859450000001,
                "velocity": 0.5039370078740157
              },
              {
                "duration": 0.17857150000000388,
                "durationTicks": 60,
                "midi": 74,
                "name": "D5",
                "ticks": 19440,
                "time": 57.85716600000001,
                "velocity": 0.5039370078740157
              },
              {
                "duration": 0.17857149999999677,
                "durationTicks": 60,
                "midi": 76,
                "name": "E5",
                "ticks": 19500,
                "time": 58.03573750000001,
                "velocity": 0.5039370078740157
              },
              {
                "duration": 0.17857149999999677,
                "durationTicks": 60,
                "midi": 78,
                "name": "F#5",
                "ticks": 19560,
                "time": 58.21430900000001,
                "velocity": 0.5039370078740157
              },
              {
                "duration": 0.17857150000000388,
                "durationTicks": 60,
                "midi": 79,
                "name": "G5",
                "ticks": 19620,
                "time": 58.392880500000004,
                "velocity": 0.5039370078740157
              },
              {
                "duration": 0.17857149999999677,
                "durationTicks": 60,
                "midi": 81,
                "name": "A5",
                "ticks": 19680,
                "time": 58.57145200000001,
                "velocity": 0.5039370078740157
              },
              {
                "duration": 0.17857150000000388,
                "durationTicks": 60,
                "midi": 78,
                "name": "F#5",
                "ticks": 19740,
                "time": 58.750023500000005,
                "velocity": 0.5039370078740157
              },
              {
                "duration": 0.17857149999999677,
                "durationTicks": 60,
                "midi": 79,
                "name": "G5",
                "ticks": 19800,
                "time": 58.92859500000001,
                "velocity": 0.5039370078740157
              },
              {
                "duration": 0.17857150000000388,
                "durationTicks": 60,
                "midi": 81,
                "name": "A5",
                "ticks": 19860,
                "time": 59.107166500000005,
                "velocity": 0.5039370078740157
              },
              {
                "duration": 0.7142860000000013,
                "durationTicks": 240,
                "midi": 74,
                "name": "D5",
                "ticks": 19920,
                "time": 59.28573800000001,
                "velocity": 0.5039370078740157
              },
              {
                "duration": 0.17857149999999677,
                "durationTicks": 60,
                "midi": 72,
                "name": "C5",
                "ticks": 20220,
                "time": 60.17859550000001,
                "velocity": 0.5039370078740157
              },
              {
                "duration": 0.17857150000000388,
                "durationTicks": 60,
                "midi": 75,
                "name": "D#5",
                "ticks": 20280,
                "time": 60.357167000000004,
                "velocity": 0.5039370078740157
              },
              {
                "duration": 0.17857149999999677,
                "durationTicks": 60,
                "midi": 74,
                "name": "D5",
                "ticks": 20340,
                "time": 60.53573850000001,
                "velocity": 0.5039370078740157
              },
              {
                "duration": 0.17857150000000388,
                "durationTicks": 60,
                "midi": 72,
                "name": "C5",
                "ticks": 20400,
                "time": 60.714310000000005,
                "velocity": 0.5039370078740157
              },
              {
                "duration": 0.17857149999999677,
                "durationTicks": 60,
                "midi": 70,
                "name": "A#4",
                "ticks": 20460,
                "time": 60.89288150000001,
                "velocity": 0.5039370078740157
              },
              {
                "duration": 0.17857150000000388,
                "durationTicks": 60,
                "midi": 69,
                "name": "A4",
                "ticks": 20520,
                "time": 61.071453000000005,
                "velocity": 0.5039370078740157
              },
              {
                "duration": 0.17857149999999677,
                "durationTicks": 60,
                "midi": 72,
                "name": "C5",
                "ticks": 20580,
                "time": 61.25002450000001,
                "velocity": 0.5039370078740157
              },
              {
                "duration": 0.17857150000000388,
                "durationTicks": 60,
                "midi": 66,
                "name": "F#4",
                "ticks": 20640,
                "time": 61.428596000000006,
                "velocity": 0.5039370078740157
              },
              {
                "duration": 0.17857149999999677,
                "durationTicks": 60,
                "midi": 69,
                "name": "A4",
                "ticks": 20700,
                "time": 61.60716750000001,
                "velocity": 0.5039370078740157
              },
              {
                "duration": 0.17857150000000388,
                "durationTicks": 60,
                "midi": 70,
                "name": "A#4",
                "ticks": 20760,
                "time": 61.78573900000001,
                "velocity": 0.5039370078740157
              },
              {
                "duration": 0.17857149999999677,
                "durationTicks": 60,
                "midi": 69,
                "name": "A4",
                "ticks": 20820,
                "time": 61.96431050000001,
                "velocity": 0.5039370078740157
              },
              {
                "duration": 0.17857150000000388,
                "durationTicks": 60,
                "midi": 67,
                "name": "G4",
                "ticks": 20880,
                "time": 62.14288200000001,
                "velocity": 0.5039370078740157
              },
              {
                "duration": 0.17857149999999677,
                "durationTicks": 60,
                "midi": 65,
                "name": "F4",
                "ticks": 20940,
                "time": 62.32145350000001,
                "velocity": 0.5039370078740157
              },
              {
                "duration": 0.17857149999999677,
                "durationTicks": 60,
                "midi": 63,
                "name": "D#4",
                "ticks": 21000,
                "time": 62.50002500000001,
                "velocity": 0.5039370078740157
              },
              {
                "duration": 0.17857150000000388,
                "durationTicks": 60,
                "midi": 67,
                "name": "G4",
                "ticks": 21060,
                "time": 62.678596500000005,
                "velocity": 0.5039370078740157
              },
              {
                "duration": 0.17857149999999677,
                "durationTicks": 60,
                "midi": 61,
                "name": "C#4",
                "ticks": 21120,
                "time": 62.85716800000001,
                "velocity": 0.5039370078740157
              },
              {
                "duration": 0.17857150000000388,
                "durationTicks": 60,
                "midi": 67,
                "name": "G4",
                "ticks": 21180,
                "time": 63.035739500000005,
                "velocity": 0.5039370078740157
              },
              {
                "duration": 0.17857149999999677,
                "durationTicks": 60,
                "midi": 69,
                "name": "A4",
                "ticks": 21240,
                "time": 63.21431100000001,
                "velocity": 0.5039370078740157
              },
              {
                "duration": 0.17857150000000388,
                "durationTicks": 60,
                "midi": 70,
                "name": "A#4",
                "ticks": 21300,
                "time": 63.392882500000006,
                "velocity": 0.5039370078740157
              },
              {
                "duration": 0.17857149999999677,
                "durationTicks": 60,
                "midi": 62,
                "name": "D4",
                "ticks": 21360,
                "time": 63.57145400000001,
                "velocity": 0.5039370078740157
              },
              {
                "duration": 0.17857150000000388,
                "durationTicks": 60,
                "midi": 69,
                "name": "A4",
                "ticks": 21420,
                "time": 63.75002550000001,
                "velocity": 0.5039370078740157
              },
              {
                "duration": 0.17857150000000388,
                "durationTicks": 60,
                "midi": 67,
                "name": "G4",
                "ticks": 21480,
                "time": 63.92859700000001,
                "velocity": 0.5039370078740157
              },
              {
                "duration": 0.17857149999998967,
                "durationTicks": 60,
                "midi": 66,
                "name": "F#4",
                "ticks": 21540,
                "time": 64.10716850000001,
                "velocity": 0.5039370078740157
              },
              {
                "duration": 2.8571440000000052,
                "durationTicks": 960,
                "midi": 67,
                "name": "G4",
                "ticks": 21600,
                "time": 64.28574,
                "velocity": 0.5039370078740157
              }
            ],
            "endOfTrackTicks": 22560
          },
          {
            "channel": 1,
            "controlChanges": {},
            "pitchBends": [],
            "instrument": {
              "family": "piano",
              "number": 0,
              "name": "acoustic grand piano"
            },
            "name": "",
            "notes": [
              {
                "duration": 0.7142860000000001,
                "durationTicks": 240,
                "midi": 43,
                "name": "G2",
                "ticks": 0,
                "time": 0,
                "velocity": 0.5039370078740157
              },
              {
                "duration": 0.357143,
                "durationTicks": 120,
                "midi": 55,
                "name": "G3",
                "ticks": 360,
                "time": 1.0714290000000002,
                "velocity": 0.5039370078740157
              },
              {
                "duration": 0.1785715000000001,
                "durationTicks": 60,
                "midi": 54,
                "name": "F#3",
                "ticks": 480,
                "time": 1.4285720000000002,
                "velocity": 0.5039370078740157
              },
              {
                "duration": 0.17857149999999988,
                "durationTicks": 60,
                "midi": 55,
                "name": "G3",
                "ticks": 540,
                "time": 1.6071435000000003,
                "velocity": 0.5039370078740157
              },
              {
                "duration": 0.1785715000000001,
                "durationTicks": 60,
                "midi": 57,
                "name": "A3",
                "ticks": 600,
                "time": 1.7857150000000002,
                "velocity": 0.5039370078740157
              },
              {
                "duration": 0.1785715000000001,
                "durationTicks": 60,
                "midi": 55,
                "name": "G3",
                "ticks": 660,
                "time": 1.9642865000000003,
                "velocity": 0.5039370078740157
              },
              {
                "duration": 0.35714299999999977,
                "durationTicks": 120,
                "midi": 54,
                "name": "F#3",
                "ticks": 720,
                "time": 2.1428580000000004,
                "velocity": 0.5039370078740157
              },
              {
                "duration": 0.3571430000000002,
                "durationTicks": 120,
                "midi": 53,
                "name": "F3",
                "ticks": 840,
                "time": 2.500001,
                "velocity": 0.5039370078740157
              },
              {
                "duration": 0.17857149999999988,
                "durationTicks": 60,
                "midi": 52,
                "name": "E3",
                "ticks": 960,
                "time": 2.8571440000000004,
                "velocity": 0.5039370078740157
              },
              {
                "duration": 0.17857150000000033,
                "durationTicks": 60,
                "midi": 53,
                "name": "F3",
                "ticks": 1020,
                "time": 3.0357155000000002,
                "velocity": 0.5039370078740157
              },
              {
                "duration": 0.17857149999999988,
                "durationTicks": 60,
                "midi": 55,
                "name": "G3",
                "ticks": 1080,
                "time": 3.2142870000000006,
                "velocity": 0.5039370078740157
              },
              {
                "duration": 0.17857149999999988,
                "durationTicks": 60,
                "midi": 53,
                "name": "F3",
                "ticks": 1140,
                "time": 3.3928585000000004,
                "velocity": 0.5039370078740157
              },
              {
                "duration": 0.3571430000000002,
                "durationTicks": 120,
                "midi": 52,
                "name": "E3",
                "ticks": 1200,
                "time": 3.5714300000000003,
                "velocity": 0.5039370078740157
              },
              {
                "duration": 0.3571430000000002,
                "durationTicks": 120,
                "midi": 51,
                "name": "D#3",
                "ticks": 1320,
                "time": 3.9285730000000005,
                "velocity": 0.5039370078740157
              },
              {
                "duration": 0.35714299999999977,
                "durationTicks": 120,
                "midi": 50,
                "name": "D3",
                "ticks": 1440,
                "time": 4.285716000000001,
                "velocity": 0.5039370078740157
              },
              {
                "duration": 0.08928575000000016,
                "durationTicks": 30,
                "midi": 55,
                "name": "G3",
                "ticks": 1560,
                "time": 4.6428590000000005,
                "velocity": 0.5039370078740157
              },
              {
                "duration": 0.08928575000000016,
                "durationTicks": 30,
                "midi": 57,
                "name": "A3",
                "ticks": 1590,
                "time": 4.732144750000001,
                "velocity": 0.4409448818897638
              },
              {
                "duration": 0.5357145000000001,
                "durationTicks": 180,
                "midi": 55,
                "name": "G3",
                "ticks": 1620,
                "time": 4.821430500000001,
                "velocity": 0.5039370078740157
              },
              {
                "duration": 0.35714299999999977,
                "durationTicks": 120,
                "midi": 54,
                "name": "F#3",
                "ticks": 1800,
                "time": 5.357145000000001,
                "velocity": 0.5039370078740157
              },
              {
                "duration": 0.17857150000000033,
                "durationTicks": 60,
                "midi": 55,
                "name": "G3",
                "ticks": 1920,
                "time": 5.714288000000001,
                "velocity": 0.5039370078740157
              },
              {
                "duration": 0.17857149999999944,
                "durationTicks": 60,
                "midi": 50,
                "name": "D3",
                "ticks": 1980,
                "time": 5.892859500000001,
                "velocity": 0.5039370078740157
              },
              {
                "duration": 0.17857150000000033,
                "durationTicks": 60,
                "midi": 52,
                "name": "E3",
                "ticks": 2040,
                "time": 6.0714310000000005,
                "velocity": 0.5039370078740157
              },
              {
                "duration": 0.17857150000000033,
                "durationTicks": 60,
                "midi": 54,
                "name": "F#3",
                "ticks": 2100,
                "time": 6.250002500000001,
                "velocity": 0.5039370078740157
              },
              {
                "duration": 0.17857149999999944,
                "durationTicks": 60,
                "midi": 55,
                "name": "G3",
                "ticks": 2160,
                "time": 6.428574000000001,
                "velocity": 0.5039370078740157
              },
              {
                "duration": 0.17857150000000033,
                "durationTicks": 60,
                "midi": 57,
                "name": "A3",
                "ticks": 2220,
                "time": 6.607145500000001,
                "velocity": 0.5039370078740157
              },
              {
                "duration": 0.17857150000000033,
                "durationTicks": 60,
                "midi": 58,
                "name": "A#3",
                "ticks": 2280,
                "time": 6.785717000000001,
                "velocity": 0.5039370078740157
              },
              {
                "duration": 0.17857149999999944,
                "durationTicks": 60,
                "midi": 55,
                "name": "G3",
                "ticks": 2340,
                "time": 6.964288500000001,
                "velocity": 0.5039370078740157
              },
              {
                "duration": 0.17857150000000033,
                "durationTicks": 60,
                "midi": 57,
                "name": "A3",
                "ticks": 2400,
                "time": 7.142860000000001,
                "velocity": 0.5039370078740157
              },
              {
                "duration": 0.17857150000000033,
                "durationTicks": 60,
                "midi": 55,
                "name": "G3",
                "ticks": 2460,
                "time": 7.321431500000001,
                "velocity": 0.5039370078740157
              },
              {
                "duration": 0.17857149999999944,
                "durationTicks": 60,
                "midi": 53,
                "name": "F3",
                "ticks": 2520,
                "time": 7.500003000000001,
                "velocity": 0.5039370078740157
              },
              {
                "duration": 0.17857150000000033,
                "durationTicks": 60,
                "midi": 52,
                "name": "E3",
                "ticks": 2580,
                "time": 7.678574500000001,
                "velocity": 0.5039370078740157
              },
              {
                "duration": 0.17857149999999944,
                "durationTicks": 60,
                "midi": 50,
                "name": "D3",
                "ticks": 2640,
                "time": 7.857146000000001,
                "velocity": 0.5039370078740157
              },
              {
                "duration": 0.17857150000000033,
                "durationTicks": 60,
                "midi": 60,
                "name": "C4",
                "ticks": 2700,
                "time": 8.0357175,
                "velocity": 0.5039370078740157
              },
              {
                "duration": 0.17857150000000033,
                "durationTicks": 60,
                "midi": 58,
                "name": "A#3",
                "ticks": 2760,
                "time": 8.214289,
                "velocity": 0.5039370078740157
              },
              {
                "duration": 0.17857150000000033,
                "durationTicks": 60,
                "midi": 57,
                "name": "A3",
                "ticks": 2820,
                "time": 8.392860500000001,
                "velocity": 0.5039370078740157
              },
              {
                "duration": 0.17857150000000033,
                "durationTicks": 60,
                "midi": 55,
                "name": "G3",
                "ticks": 2880,
                "time": 8.571432000000001,
                "velocity": 0.5039370078740157
              },
              {
                "duration": 0.17857149999999855,
                "durationTicks": 60,
                "midi": 53,
                "name": "F3",
                "ticks": 2940,
                "time": 8.750003500000002,
                "velocity": 0.5039370078740157
              },
              {
                "duration": 0.17857150000000033,
                "durationTicks": 60,
                "midi": 51,
                "name": "D#3",
                "ticks": 3000,
                "time": 8.928575,
                "velocity": 0.5039370078740157
              },
              {
                "duration": 0.17857150000000033,
                "durationTicks": 60,
                "midi": 50,
                "name": "D3",
                "ticks": 3060,
                "time": 9.1071465,
                "velocity": 0.5039370078740157
              },
              {
                "duration": 0.17857150000000033,
                "durationTicks": 60,
                "midi": 48,
                "name": "C3",
                "ticks": 3120,
                "time": 9.285718000000001,
                "velocity": 0.5039370078740157
              },
              {
                "duration": 0.17857150000000033,
                "durationTicks": 60,
                "midi": 58,
                "name": "A#3",
                "ticks": 3180,
                "time": 9.464289500000001,
                "velocity": 0.5039370078740157
              },
              {
                "duration": 0.17857150000000033,
                "durationTicks": 60,
                "midi": 57,
                "name": "A3",
                "ticks": 3240,
                "time": 9.642861000000002,
                "velocity": 0.5039370078740157
              },
              {
                "duration": 0.17857149999999855,
                "durationTicks": 60,
                "midi": 55,
                "name": "G3",
                "ticks": 3300,
                "time": 9.821432500000002,
                "velocity": 0.5039370078740157
              },
              {
                "duration": 0.17857150000000033,
                "durationTicks": 60,
                "midi": 62,
                "name": "D4",
                "ticks": 3360,
                "time": 10.000004,
                "velocity": 0.5039370078740157
              },
              {
                "duration": 0.17857150000000033,
                "durationTicks": 60,
                "midi": 60,
                "name": "C4",
                "ticks": 3420,
                "time": 10.1785755,
                "velocity": 0.5039370078740157
              },
              {
                "duration": 0.17857150000000033,
                "durationTicks": 60,
                "midi": 58,
                "name": "A#3",
                "ticks": 3480,
                "time": 10.357147000000001,
                "velocity": 0.5039370078740157
              },
              {
                "duration": 0.17857150000000033,
                "durationTicks": 60,
                "midi": 62,
                "name": "D4",
                "ticks": 3540,
                "time": 10.535718500000002,
                "velocity": 0.5039370078740157
              },
              {
                "duration": 0.17857150000000033,
                "durationTicks": 60,
                "midi": 60,
                "name": "C4",
                "ticks": 3600,
                "time": 10.714290000000002,
                "velocity": 0.5039370078740157
              },
              {
                "duration": 0.17857149999999855,
                "durationTicks": 60,
                "midi": 58,
                "name": "A#3",
                "ticks": 3660,
                "time": 10.892861500000002,
                "velocity": 0.5039370078740157
              },
              {
                "duration": 0.17857150000000033,
                "durationTicks": 60,
                "midi": 57,
                "name": "A3",
                "ticks": 3720,
                "time": 11.071433,
                "velocity": 0.5039370078740157
              },
              {
                "duration": 0.17857150000000033,
                "durationTicks": 60,
                "midi": 60,
                "name": "C4",
                "ticks": 3780,
                "time": 11.250004500000001,
                "velocity": 0.5039370078740157
              },
              {
                "duration": 0.17857150000000033,
                "durationTicks": 60,
                "midi": 58,
                "name": "A#3",
                "ticks": 3840,
                "time": 11.428576000000001,
                "velocity": 0.5039370078740157
              },
              {
                "duration": 0.17857150000000033,
                "durationTicks": 60,
                "midi": 57,
                "name": "A3",
                "ticks": 3900,
                "time": 11.607147500000002,
                "velocity": 0.5039370078740157
              },
              {
                "duration": 0.17857149999999855,
                "durationTicks": 60,
                "midi": 55,
                "name": "G3",
                "ticks": 3960,
                "time": 11.785719000000002,
                "velocity": 0.5039370078740157
              },
              {
                "duration": 0.17857150000000033,
                "durationTicks": 60,
                "midi": 57,
                "name": "A3",
                "ticks": 4020,
                "time": 11.9642905,
                "velocity": 0.5039370078740157
              },
              {
                "duration": 0.17857150000000033,
                "durationTicks": 60,
                "midi": 58,
                "name": "A#3",
                "ticks": 4080,
                "time": 12.142862000000001,
                "velocity": 0.5039370078740157
              },
              {
                "duration": 0.17857150000000033,
                "durationTicks": 60,
                "midi": 60,
                "name": "C4",
                "ticks": 4140,
                "time": 12.321433500000001,
                "velocity": 0.5039370078740157
              },
              {
                "duration": 0.17857150000000033,
                "durationTicks": 60,
                "midi": 62,
                "name": "D4",
                "ticks": 4200,
                "time": 12.500005000000002,
                "velocity": 0.5039370078740157
              },
              {
                "duration": 0.17857150000000033,
                "durationTicks": 60,
                "midi": 58,
                "name": "A#3",
                "ticks": 4260,
                "time": 12.678576500000002,
                "velocity": 0.5039370078740157
              },
              {
                "duration": 0.3571429999999989,
                "durationTicks": 120,
                "midi": 60,
                "name": "C4",
                "ticks": 4320,
                "time": 12.857148000000002,
                "velocity": 0.5039370078740157
              },
              {
                "duration": 0.35714300000000065,
                "durationTicks": 120,
                "midi": 51,
                "name": "D#3",
                "ticks": 4440,
                "time": 13.214291000000001,
                "velocity": 0.5039370078740157
              },
              {
                "duration": 0.35714300000000065,
                "durationTicks": 120,
                "midi": 53,
                "name": "F3",
                "ticks": 4560,
                "time": 13.571434000000002,
                "velocity": 0.5039370078740157
              },
              {
                "duration": 0.3571429999999989,
                "durationTicks": 120,
                "midi": 41,
                "name": "F2",
                "ticks": 4680,
                "time": 13.928577000000002,
                "velocity": 0.5039370078740157
              },
              {
                "duration": 0.35714300000000065,
                "durationTicks": 120,
                "midi": 46,
                "name": "A#2",
                "ticks": 4800,
                "time": 14.285720000000001,
                "velocity": 0.5039370078740157
              },
              {
                "duration": 0.35714300000000065,
                "durationTicks": 120,
                "midi": 58,
                "name": "A#3",
                "ticks": 4920,
                "time": 14.642863000000002,
                "velocity": 0.5039370078740157
              },
              {
                "duration": 0.3571429999999989,
                "durationTicks": 120,
                "midi": 57,
                "name": "A3",
                "ticks": 5040,
                "time": 15.000006000000003,
                "velocity": 0.5039370078740157
              },
              {
                "duration": 0.35714300000000065,
                "durationTicks": 120,
                "midi": 62,
                "name": "D4",
                "ticks": 5160,
                "time": 15.357149000000001,
                "velocity": 0.5039370078740157
              },
              {
                "duration": 0.3571429999999989,
                "durationTicks": 120,
                "midi": 58,
                "name": "A#3",
                "ticks": 5280,
                "time": 15.714292000000002,
                "velocity": 0.5039370078740157
              },
              {
                "duration": 0.35714300000000065,
                "durationTicks": 120,
                "midi": 55,
                "name": "G3",
                "ticks": 5400,
                "time": 16.071435,
                "velocity": 0.5039370078740157
              },
              {
                "duration": 0.08928575000000194,
                "durationTicks": 30,
                "midi": 57,
                "name": "A3",
                "ticks": 5520,
                "time": 16.428578,
                "velocity": 0.5039370078740157
              },
              {
                "duration": 0.08928574999999839,
                "durationTicks": 30,
                "midi": 55,
                "name": "G3",
                "ticks": 5550,
                "time": 16.517863750000004,
                "velocity": 0.4409448818897638
              },
              {
                "duration": 0.17857150000000033,
                "durationTicks": 60,
                "midi": 57,
                "name": "A3",
                "ticks": 5580,
                "time": 16.607149500000002,
                "velocity": 0.5039370078740157
              },
              {
                "duration": 0.35714300000000065,
                "durationTicks": 120,
                "midi": 45,
                "name": "A2",
                "ticks": 5640,
                "time": 16.785721000000002,
                "velocity": 0.5039370078740157
              },
              {
                "duration": 0.17857150000000033,
                "durationTicks": 60,
                "midi": 38,
                "name": "D2",
                "ticks": 5760,
                "time": 17.142864000000003,
                "velocity": 0.5039370078740157
              },
              {
                "duration": 0.17857150000000033,
                "durationTicks": 60,
                "midi": 45,
                "name": "A2",
                "ticks": 5820,
                "time": 17.321435500000003,
                "velocity": 0.5039370078740157
              },
              {
                "duration": 0.17857149999999677,
                "durationTicks": 60,
                "midi": 47,
                "name": "B2",
                "ticks": 5880,
                "time": 17.500007000000004,
                "velocity": 0.5039370078740157
              },
              {
                "duration": 0.17857150000000033,
                "durationTicks": 60,
                "midi": 49,
                "name": "C#3",
                "ticks": 5940,
                "time": 17.6785785,
                "velocity": 0.5039370078740157
              },
              {
                "duration": 0.17857150000000033,
                "durationTicks": 60,
                "midi": 50,
                "name": "D3",
                "ticks": 6000,
                "time": 17.85715,
                "velocity": 0.5039370078740157
              },
              {
                "duration": 0.17857150000000033,
                "durationTicks": 60,
                "midi": 52,
                "name": "E3",
                "ticks": 6060,
                "time": 18.0357215,
                "velocity": 0.5039370078740157
              },
              {
                "duration": 0.17857150000000033,
                "durationTicks": 60,
                "midi": 53,
                "name": "F3",
                "ticks": 6120,
                "time": 18.214293,
                "velocity": 0.5039370078740157
              },
              {
                "duration": 0.17857150000000033,
                "durationTicks": 60,
                "midi": 50,
                "name": "D3",
                "ticks": 6180,
                "time": 18.3928645,
                "velocity": 0.5039370078740157
              },
              {
                "duration": 0.17857150000000033,
                "durationTicks": 60,
                "midi": 52,
                "name": "E3",
                "ticks": 6240,
                "time": 18.571436000000002,
                "velocity": 0.5039370078740157
              },
              {
                "duration": 0.17857150000000033,
                "durationTicks": 60,
                "midi": 50,
                "name": "D3",
                "ticks": 6300,
                "time": 18.750007500000002,
                "velocity": 0.5039370078740157
              },
              {
                "duration": 0.17857150000000033,
                "durationTicks": 60,
                "midi": 49,
                "name": "C#3",
                "ticks": 6360,
                "time": 18.928579000000003,
                "velocity": 0.5039370078740157
              },
              {
                "duration": 0.17857150000000033,
                "durationTicks": 60,
                "midi": 47,
                "name": "B2",
                "ticks": 6420,
                "time": 19.107150500000003,
                "velocity": 0.5039370078740157
              },
              {
                "duration": 0.17857150000000033,
                "durationTicks": 60,
                "midi": 45,
                "name": "A2",
                "ticks": 6480,
                "time": 19.285722000000003,
                "velocity": 0.5039370078740157
              },
              {
                "duration": 0.17857150000000033,
                "durationTicks": 60,
                "midi": 55,
                "name": "G3",
                "ticks": 6540,
                "time": 19.464293500000004,
                "velocity": 0.5039370078740157
              },
              {
                "duration": 0.17857149999999677,
                "durationTicks": 60,
                "midi": 53,
                "name": "F3",
                "ticks": 6600,
                "time": 19.642865000000004,
                "velocity": 0.5039370078740157
              },
              {
                "duration": 0.17857150000000033,
                "durationTicks": 60,
                "midi": 52,
                "name": "E3",
                "ticks": 6660,
                "time": 19.8214365,
                "velocity": 0.5039370078740157
              },
              {
                "duration": 0.17857150000000033,
                "durationTicks": 60,
                "midi": 50,
                "name": "D3",
                "ticks": 6720,
                "time": 20.000008,
                "velocity": 0.5039370078740157
              },
              {
                "duration": 0.17857150000000033,
                "durationTicks": 60,
                "midi": 48,
                "name": "C3",
                "ticks": 6780,
                "time": 20.1785795,
                "velocity": 0.5039370078740157
              },
              {
                "duration": 0.17857150000000033,
                "durationTicks": 60,
                "midi": 47,
                "name": "B2",
                "ticks": 6840,
                "time": 20.357151,
                "velocity": 0.5039370078740157
              },
              {
                "duration": 0.17857150000000033,
                "durationTicks": 60,
                "midi": 45,
                "name": "A2",
                "ticks": 6900,
                "time": 20.535722500000002,
                "velocity": 0.5039370078740157
              },
              {
                "duration": 0.17857150000000033,
                "durationTicks": 60,
                "midi": 43,
                "name": "G2",
                "ticks": 6960,
                "time": 20.714294000000002,
                "velocity": 0.5039370078740157
              },
              {
                "duration": 0.17857150000000033,
                "durationTicks": 60,
                "midi": 53,
                "name": "F3",
                "ticks": 7020,
                "time": 20.892865500000003,
                "velocity": 0.5039370078740157
              },
              {
                "duration": 0.17857150000000033,
                "durationTicks": 60,
                "midi": 52,
                "name": "E3",
                "ticks": 7080,
                "time": 21.071437000000003,
                "velocity": 0.5039370078740157
              },
              {
                "duration": 0.17857150000000033,
                "durationTicks": 60,
                "midi": 50,
                "name": "D3",
                "ticks": 7140,
                "time": 21.250008500000003,
                "velocity": 0.5039370078740157
              },
              {
                "duration": 0.17857150000000033,
                "durationTicks": 60,
                "midi": 57,
                "name": "A3",
                "ticks": 7200,
                "time": 21.428580000000004,
                "velocity": 0.5039370078740157
              },
              {
                "duration": 0.17857150000000033,
                "durationTicks": 60,
                "midi": 55,
                "name": "G3",
                "ticks": 7260,
                "time": 21.607151500000004,
                "velocity": 0.5039370078740157
              },
              {
                "duration": 0.17857149999999677,
                "durationTicks": 60,
                "midi": 53,
                "name": "F3",
                "ticks": 7320,
                "time": 21.785723000000004,
                "velocity": 0.5039370078740157
              },
              {
                "duration": 0.17857150000000033,
                "durationTicks": 60,
                "midi": 57,
                "name": "A3",
                "ticks": 7380,
                "time": 21.9642945,
                "velocity": 0.5039370078740157
              },
              {
                "duration": 0.17857150000000033,
                "durationTicks": 60,
                "midi": 55,
                "name": "G3",
                "ticks": 7440,
                "time": 22.142866,
                "velocity": 0.5039370078740157
              },
              {
                "duration": 0.17857150000000033,
                "durationTicks": 60,
                "midi": 53,
                "name": "F3",
                "ticks": 7500,
                "time": 22.321437500000002,
                "velocity": 0.5039370078740157
              },
              {
                "duration": 0.17857150000000033,
                "durationTicks": 60,
                "midi": 52,
                "name": "E3",
                "ticks": 7560,
                "time": 22.500009000000002,
                "velocity": 0.5039370078740157
              },
              {
                "duration": 0.17857150000000033,
                "durationTicks": 60,
                "midi": 55,
                "name": "G3",
                "ticks": 7620,
                "time": 22.678580500000002,
                "velocity": 0.5039370078740157
              },
              {
                "duration": 0.17857150000000033,
                "durationTicks": 60,
                "midi": 53,
                "name": "F3",
                "ticks": 7680,
                "time": 22.857152000000003,
                "velocity": 0.5039370078740157
              },
              {
                "duration": 0.17857150000000033,
                "durationTicks": 60,
                "midi": 52,
                "name": "E3",
                "ticks": 7740,
                "time": 23.035723500000003,
                "velocity": 0.5039370078740157
              },
              {
                "duration": 0.17857150000000033,
                "durationTicks": 60,
                "midi": 50,
                "name": "D3",
                "ticks": 7800,
                "time": 23.214295000000003,
                "velocity": 0.5039370078740157
              },
              {
                "duration": 0.17857150000000033,
                "durationTicks": 60,
                "midi": 53,
                "name": "F3",
                "ticks": 7860,
                "time": 23.392866500000004,
                "velocity": 0.5039370078740157
              },
              {
                "duration": 0.17857150000000033,
                "durationTicks": 60,
                "midi": 52,
                "name": "E3",
                "ticks": 7920,
                "time": 23.571438000000004,
                "velocity": 0.5039370078740157
              },
              {
                "duration": 0.17857149999999677,
                "durationTicks": 60,
                "midi": 50,
                "name": "D3",
                "ticks": 7980,
                "time": 23.750009500000004,
                "velocity": 0.5039370078740157
              },
              {
                "duration": 0.17857150000000033,
                "durationTicks": 60,
                "midi": 49,
                "name": "C#3",
                "ticks": 8040,
                "time": 23.928581,
                "velocity": 0.5039370078740157
              },
              {
                "duration": 0.17857150000000033,
                "durationTicks": 60,
                "midi": 52,
                "name": "E3",
                "ticks": 8100,
                "time": 24.1071525,
                "velocity": 0.5039370078740157
              },
              {
                "duration": 0.17857150000000033,
                "durationTicks": 60,
                "midi": 50,
                "name": "D3",
                "ticks": 8160,
                "time": 24.285724000000002,
                "velocity": 0.5039370078740157
              },
              {
                "duration": 0.17857150000000033,
                "durationTicks": 60,
                "midi": 52,
                "name": "E3",
                "ticks": 8220,
                "time": 24.464295500000002,
                "velocity": 0.5039370078740157
              },
              {
                "duration": 0.17857150000000033,
                "durationTicks": 60,
                "midi": 53,
                "name": "F3",
                "ticks": 8280,
                "time": 24.642867000000003,
                "velocity": 0.5039370078740157
              },
              {
                "duration": 0.17857150000000033,
                "durationTicks": 60,
                "midi": 50,
                "name": "D3",
                "ticks": 8340,
                "time": 24.821438500000003,
                "velocity": 0.5039370078740157
              },
              {
                "duration": 0.17857150000000033,
                "durationTicks": 60,
                "midi": 55,
                "name": "G3",
                "ticks": 8400,
                "time": 25.000010000000003,
                "velocity": 0.5039370078740157
              },
              {
                "duration": 0.17857150000000033,
                "durationTicks": 60,
                "midi": 57,
                "name": "A3",
                "ticks": 8460,
                "time": 25.178581500000004,
                "velocity": 0.5039370078740157
              },
              {
                "duration": 0.17857150000000033,
                "durationTicks": 60,
                "midi": 58,
                "name": "A#3",
                "ticks": 8520,
                "time": 25.357153000000004,
                "velocity": 0.5039370078740157
              },
              {
                "duration": 0.17857150000000033,
                "durationTicks": 60,
                "midi": 55,
                "name": "G3",
                "ticks": 8580,
                "time": 25.535724500000004,
                "velocity": 0.5039370078740157
              },
              {
                "duration": 0.17857150000000033,
                "durationTicks": 60,
                "midi": 61,
                "name": "C#4",
                "ticks": 8640,
                "time": 25.714296000000004,
                "velocity": 0.5039370078740157
              },
              {
                "duration": 0.17857149999999677,
                "durationTicks": 60,
                "midi": 57,
                "name": "A3",
                "ticks": 8700,
                "time": 25.892867500000005,
                "velocity": 0.5039370078740157
              },
              {
                "duration": 0.17857150000000033,
                "durationTicks": 60,
                "midi": 59,
                "name": "B3",
                "ticks": 8760,
                "time": 26.071439,
                "velocity": 0.5039370078740157
              },
              {
                "duration": 0.17857150000000033,
                "durationTicks": 60,
                "midi": 61,
                "name": "C#4",
                "ticks": 8820,
                "time": 26.250010500000002,
                "velocity": 0.5039370078740157
              },
              {
                "duration": 0.17857150000000033,
                "durationTicks": 60,
                "midi": 62,
                "name": "D4",
                "ticks": 8880,
                "time": 26.428582000000002,
                "velocity": 0.5039370078740157
              },
              {
                "duration": 0.17857150000000033,
                "durationTicks": 60,
                "midi": 53,
                "name": "F3",
                "ticks": 8940,
                "time": 26.607153500000003,
                "velocity": 0.5039370078740157
              },
              {
                "duration": 0.17857150000000033,
                "durationTicks": 60,
                "midi": 55,
                "name": "G3",
                "ticks": 9000,
                "time": 26.785725000000003,
                "velocity": 0.5039370078740157
              },
              {
                "duration": 0.17857150000000033,
                "durationTicks": 60,
                "midi": 57,
                "name": "A3",
                "ticks": 9060,
                "time": 26.964296500000003,
                "velocity": 0.5039370078740157
              },
              {
                "duration": 0.17857150000000033,
                "durationTicks": 60,
                "midi": 58,
                "name": "A#3",
                "ticks": 9120,
                "time": 27.142868000000004,
                "velocity": 0.5039370078740157
              },
              {
                "duration": 0.17857150000000033,
                "durationTicks": 60,
                "midi": 52,
                "name": "E3",
                "ticks": 9180,
                "time": 27.321439500000004,
                "velocity": 0.5039370078740157
              },
              {
                "duration": 0.17857150000000033,
                "durationTicks": 60,
                "midi": 53,
                "name": "F3",
                "ticks": 9240,
                "time": 27.500011000000004,
                "velocity": 0.5039370078740157
              },
              {
                "duration": 0.17857150000000033,
                "durationTicks": 60,
                "midi": 55,
                "name": "G3",
                "ticks": 9300,
                "time": 27.678582500000005,
                "velocity": 0.5039370078740157
              },
              {
                "duration": 0.3571429999999971,
                "durationTicks": 120,
                "midi": 57,
                "name": "A3",
                "ticks": 9360,
                "time": 27.857154000000005,
                "velocity": 0.5039370078740157
              },
              {
                "duration": 0.35714300000000065,
                "durationTicks": 120,
                "midi": 45,
                "name": "A2",
                "ticks": 9480,
                "time": 28.214297000000002,
                "velocity": 0.5039370078740157
              },
              {
                "duration": 0.7142860000000013,
                "durationTicks": 240,
                "midi": 50,
                "name": "D3",
                "ticks": 9600,
                "time": 28.571440000000003,
                "velocity": 0.5039370078740157
              },
              {
                "duration": 0.17857150000000033,
                "durationTicks": 60,
                "midi": 50,
                "name": "D3",
                "ticks": 9900,
                "time": 29.464297500000004,
                "velocity": 0.5039370078740157
              },
              {
                "duration": 0.17857150000000033,
                "durationTicks": 60,
                "midi": 52,
                "name": "E3",
                "ticks": 9960,
                "time": 29.642869000000005,
                "velocity": 0.5039370078740157
              },
              {
                "duration": 0.17857150000000033,
                "durationTicks": 60,
                "midi": 53,
                "name": "F3",
                "ticks": 10020,
                "time": 29.821440500000005,
                "velocity": 0.5039370078740157
              },
              {
                "duration": 0.17857149999999677,
                "durationTicks": 60,
                "midi": 55,
                "name": "G3",
                "ticks": 10080,
                "time": 30.000012000000005,
                "velocity": 0.5039370078740157
              },
              {
                "duration": 0.17857150000000033,
                "durationTicks": 60,
                "midi": 57,
                "name": "A3",
                "ticks": 10140,
                "time": 30.178583500000002,
                "velocity": 0.5039370078740157
              },
              {
                "duration": 0.17857150000000033,
                "durationTicks": 60,
                "midi": 58,
                "name": "A#3",
                "ticks": 10200,
                "time": 30.357155000000002,
                "velocity": 0.5039370078740157
              },
              {
                "duration": 0.17857150000000033,
                "durationTicks": 60,
                "midi": 55,
                "name": "G3",
                "ticks": 10260,
                "time": 30.535726500000003,
                "velocity": 0.5039370078740157
              },
              {
                "duration": 0.08928575000000194,
                "durationTicks": 30,
                "midi": 60,
                "name": "C4",
                "ticks": 10320,
                "time": 30.714298000000003,
                "velocity": 0.5039370078740157
              },
              {
                "duration": 0.08928574999999839,
                "durationTicks": 30,
                "midi": 58,
                "name": "A#3",
                "ticks": 10350,
                "time": 30.803583750000005,
                "velocity": 0.4409448818897638
              },
              {
                "duration": 0.17857150000000033,
                "durationTicks": 60,
                "midi": 60,
                "name": "C4",
                "ticks": 10380,
                "time": 30.892869500000003,
                "velocity": 0.5039370078740157
              },
              {
                "duration": 0.35714300000000065,
                "durationTicks": 120,
                "midi": 48,
                "name": "C3",
                "ticks": 10440,
                "time": 31.071441000000004,
                "velocity": 0.5039370078740157
              },
              {
                "duration": 0.35714300000000065,
                "durationTicks": 120,
                "midi": 53,
                "name": "F3",
                "ticks": 10560,
                "time": 31.428584000000004,
                "velocity": 0.5039370078740157
              },
              {
                "duration": 0.17857150000000033,
                "durationTicks": 60,
                "midi": 51,
                "name": "D#3",
                "ticks": 10680,
                "time": 31.785727000000005,
                "velocity": 0.5039370078740157
              },
              {
                "duration": 0.17857149999999677,
                "durationTicks": 60,
                "midi": 50,
                "name": "D3",
                "ticks": 10740,
                "time": 31.964298500000005,
                "velocity": 0.5039370078740157
              },
              {
                "duration": 0.17857150000000388,
                "durationTicks": 60,
                "midi": 51,
                "name": "D#3",
                "ticks": 10800,
                "time": 32.14287,
                "velocity": 0.5039370078740157
              },
              {
                "duration": 0.17857149999999677,
                "durationTicks": 60,
                "midi": 53,
                "name": "F3",
                "ticks": 10860,
                "time": 32.321441500000006,
                "velocity": 0.5039370078740157
              },
              {
                "duration": 0.17857150000000388,
                "durationTicks": 60,
                "midi": 55,
                "name": "G3",
                "ticks": 10920,
                "time": 32.500013,
                "velocity": 0.5039370078740157
              },
              {
                "duration": 0.17857149999999677,
                "durationTicks": 60,
                "midi": 51,
                "name": "D#3",
                "ticks": 10980,
                "time": 32.67858450000001,
                "velocity": 0.5039370078740157
              },
              {
                "duration": 0.17857150000000388,
                "durationTicks": 60,
                "midi": 53,
                "name": "F3",
                "ticks": 11040,
                "time": 32.857156,
                "velocity": 0.5039370078740157
              },
              {
                "duration": 0.17857149999999677,
                "durationTicks": 60,
                "midi": 51,
                "name": "D#3",
                "ticks": 11100,
                "time": 33.03572750000001,
                "velocity": 0.5039370078740157
              },
              {
                "duration": 0.17857149999999677,
                "durationTicks": 60,
                "midi": 50,
                "name": "D3",
                "ticks": 11160,
                "time": 33.214299000000004,
                "velocity": 0.5039370078740157
              },
              {
                "duration": 0.17857150000000388,
                "durationTicks": 60,
                "midi": 48,
                "name": "C3",
                "ticks": 11220,
                "time": 33.3928705,
                "velocity": 0.5039370078740157
              },
              {
                "duration": 0.17857149999999677,
                "durationTicks": 60,
                "midi": 47,
                "name": "B2",
                "ticks": 11280,
                "time": 33.571442000000005,
                "velocity": 0.5039370078740157
              },
              {
                "duration": 0.17857150000000388,
                "durationTicks": 60,
                "midi": 56,
                "name": "G#3",
                "ticks": 11340,
                "time": 33.7500135,
                "velocity": 0.5039370078740157
              },
              {
                "duration": 0.17857149999999677,
                "durationTicks": 60,
                "midi": 55,
                "name": "G3",
                "ticks": 11400,
                "time": 33.928585000000005,
                "velocity": 0.5039370078740157
              },
              {
                "duration": 0.17857150000000388,
                "durationTicks": 60,
                "midi": 53,
                "name": "F3",
                "ticks": 11460,
                "time": 34.1071565,
                "velocity": 0.5039370078740157
              },
              {
                "duration": 0.17857149999999677,
                "durationTicks": 60,
                "midi": 51,
                "name": "D#3",
                "ticks": 11520,
                "time": 34.285728000000006,
                "velocity": 0.5039370078740157
              },
              {
                "duration": 0.17857150000000388,
                "durationTicks": 60,
                "midi": 50,
                "name": "D3",
                "ticks": 11580,
                "time": 34.4642995,
                "velocity": 0.5039370078740157
              },
              {
                "duration": 0.17857149999999677,
                "durationTicks": 60,
                "midi": 48,
                "name": "C3",
                "ticks": 11640,
                "time": 34.64287100000001,
                "velocity": 0.5039370078740157
              },
              {
                "duration": 0.17857150000000388,
                "durationTicks": 60,
                "midi": 50,
                "name": "D3",
                "ticks": 11700,
                "time": 34.8214425,
                "velocity": 0.5039370078740157
              },
              {
                "duration": 0.17857149999999677,
                "durationTicks": 60,
                "midi": 51,
                "name": "D#3",
                "ticks": 11760,
                "time": 35.00001400000001,
                "velocity": 0.5039370078740157
              },
              {
                "duration": 0.17857149999999677,
                "durationTicks": 60,
                "midi": 53,
                "name": "F3",
                "ticks": 11820,
                "time": 35.178585500000004,
                "velocity": 0.5039370078740157
              },
              {
                "duration": 0.17857150000000388,
                "durationTicks": 60,
                "midi": 55,
                "name": "G3",
                "ticks": 11880,
                "time": 35.357157,
                "velocity": 0.5039370078740157
              },
              {
                "duration": 0.17857149999999677,
                "durationTicks": 60,
                "midi": 56,
                "name": "G#3",
                "ticks": 11940,
                "time": 35.535728500000005,
                "velocity": 0.5039370078740157
              },
              {
                "duration": 0.35714300000000065,
                "durationTicks": 120,
                "midi": 47,
                "name": "B2",
                "ticks": 12000,
                "time": 35.7143,
                "velocity": 0.5039370078740157
              },
              {
                "duration": 0.35714300000000065,
                "durationTicks": 120,
                "midi": 43,
                "name": "G2",
                "ticks": 12120,
                "time": 36.071443,
                "velocity": 0.5039370078740157
              },
              {
                "duration": 0.35714300000000065,
                "durationTicks": 120,
                "midi": 43,
                "name": "G2",
                "ticks": 12360,
                "time": 36.785729,
                "velocity": 0.5039370078740157
              },
              {
                "duration": 0.17857150000000388,
                "durationTicks": 60,
                "midi": 44,
                "name": "G#2",
                "ticks": 12480,
                "time": 37.142872000000004,
                "velocity": 0.5039370078740157
              },
              {
                "duration": 0.17857149999999677,
                "durationTicks": 60,
                "midi": 43,
                "name": "G2",
                "ticks": 12540,
                "time": 37.32144350000001,
                "velocity": 0.5039370078740157
              },
              {
                "duration": 0.17857149999999677,
                "durationTicks": 60,
                "midi": 41,
                "name": "F2",
                "ticks": 12600,
                "time": 37.500015000000005,
                "velocity": 0.5039370078740157
              },
              {
                "duration": 0.17857150000000388,
                "durationTicks": 60,
                "midi": 43,
                "name": "G2",
                "ticks": 12660,
                "time": 37.6785865,
                "velocity": 0.5039370078740157
              },
              {
                "duration": 0.35714300000000065,
                "durationTicks": 120,
                "midi": 44,
                "name": "G#2",
                "ticks": 12720,
                "time": 37.857158000000005,
                "velocity": 0.5039370078740157
              },
              {
                "duration": 0.35714300000000065,
                "durationTicks": 120,
                "midi": 45,
                "name": "A2",
                "ticks": 12840,
                "time": 38.214301000000006,
                "velocity": 0.5039370078740157
              },
              {
                "duration": 0.17857149999999677,
                "durationTicks": 60,
                "midi": 46,
                "name": "A#2",
                "ticks": 12960,
                "time": 38.57144400000001,
                "velocity": 0.5039370078740157
              },
              {
                "duration": 0.17857150000000388,
                "durationTicks": 60,
                "midi": 45,
                "name": "A2",
                "ticks": 13020,
                "time": 38.7500155,
                "velocity": 0.5039370078740157
              },
              {
                "duration": 0.17857149999999677,
                "durationTicks": 60,
                "midi": 43,
                "name": "G2",
                "ticks": 13080,
                "time": 38.92858700000001,
                "velocity": 0.5039370078740157
              },
              {
                "duration": 0.17857150000000388,
                "durationTicks": 60,
                "midi": 45,
                "name": "A2",
                "ticks": 13140,
                "time": 39.107158500000004,
                "velocity": 0.5039370078740157
              },
              {
                "duration": 0.35714299999999355,
                "durationTicks": 120,
                "midi": 46,
                "name": "A#2",
                "ticks": 13200,
                "time": 39.28573000000001,
                "velocity": 0.5039370078740157
              },
              {
                "duration": 0.35714300000000065,
                "durationTicks": 120,
                "midi": 47,
                "name": "B2",
                "ticks": 13320,
                "time": 39.642873,
                "velocity": 0.5039370078740157
              },
              {
                "duration": 0.17857150000000388,
                "durationTicks": 60,
                "midi": 48,
                "name": "C3",
                "ticks": 13440,
                "time": 40.000016,
                "velocity": 0.5039370078740157
              },
              {
                "duration": 0.17857149999999677,
                "durationTicks": 60,
                "midi": 43,
                "name": "G2",
                "ticks": 13500,
                "time": 40.178587500000006,
                "velocity": 0.5039370078740157
              },
              {
                "duration": 0.17857150000000388,
                "durationTicks": 60,
                "midi": 45,
                "name": "A2",
                "ticks": 13560,
                "time": 40.357159,
                "velocity": 0.5039370078740157
              },
              {
                "duration": 0.17857149999999677,
                "durationTicks": 60,
                "midi": 47,
                "name": "B2",
                "ticks": 13620,
                "time": 40.53573050000001,
                "velocity": 0.5039370078740157
              },
              {
                "duration": 0.17857150000000388,
                "durationTicks": 60,
                "midi": 48,
                "name": "C3",
                "ticks": 13680,
                "time": 40.714302,
                "velocity": 0.5039370078740157
              },
              {
                "duration": 0.17857149999999677,
                "durationTicks": 60,
                "midi": 50,
                "name": "D3",
                "ticks": 13740,
                "time": 40.89287350000001,
                "velocity": 0.5039370078740157
              },
              {
                "duration": 0.17857150000000388,
                "durationTicks": 60,
                "midi": 51,
                "name": "D#3",
                "ticks": 13800,
                "time": 41.071445000000004,
                "velocity": 0.5039370078740157
              },
              {
                "duration": 0.17857149999999677,
                "durationTicks": 60,
                "midi": 48,
                "name": "C3",
                "ticks": 13860,
                "time": 41.25001650000001,
                "velocity": 0.5039370078740157
              },
              {
                "duration": 0.17857149999999677,
                "durationTicks": 60,
                "midi": 50,
                "name": "D3",
                "ticks": 13920,
                "time": 41.428588000000005,
                "velocity": 0.5039370078740157
              },
              {
                "duration": 0.17857150000000388,
                "durationTicks": 60,
                "midi": 48,
                "name": "C3",
                "ticks": 13980,
                "time": 41.6071595,
                "velocity": 0.5039370078740157
              },
              {
                "duration": 0.17857149999999677,
                "durationTicks": 60,
                "midi": 47,
                "name": "B2",
                "ticks": 14040,
                "time": 41.785731000000006,
                "velocity": 0.5039370078740157
              },
              {
                "duration": 0.17857150000000388,
                "durationTicks": 60,
                "midi": 45,
                "name": "A2",
                "ticks": 14100,
                "time": 41.9643025,
                "velocity": 0.5039370078740157
              },
              {
                "duration": 0.17857149999999677,
                "durationTicks": 60,
                "midi": 43,
                "name": "G2",
                "ticks": 14160,
                "time": 42.142874000000006,
                "velocity": 0.5039370078740157
              },
              {
                "duration": 0.17857150000000388,
                "durationTicks": 60,
                "midi": 53,
                "name": "F3",
                "ticks": 14220,
                "time": 42.3214455,
                "velocity": 0.5039370078740157
              },
              {
                "duration": 0.17857149999999677,
                "durationTicks": 60,
                "midi": 51,
                "name": "D#3",
                "ticks": 14280,
                "time": 42.50001700000001,
                "velocity": 0.5039370078740157
              },
              {
                "duration": 0.17857150000000388,
                "durationTicks": 60,
                "midi": 50,
                "name": "D3",
                "ticks": 14340,
                "time": 42.678588500000004,
                "velocity": 0.5039370078740157
              },
              {
                "duration": 0.17857149999999677,
                "durationTicks": 60,
                "midi": 48,
                "name": "C3",
                "ticks": 14400,
                "time": 42.85716000000001,
                "velocity": 0.5039370078740157
              },
              {
                "duration": 0.17857150000000388,
                "durationTicks": 60,
                "midi": 46,
                "name": "A#2",
                "ticks": 14460,
                "time": 43.035731500000004,
                "velocity": 0.5039370078740157
              },
              {
                "duration": 0.17857149999999677,
                "durationTicks": 60,
                "midi": 44,
                "name": "G#2",
                "ticks": 14520,
                "time": 43.21430300000001,
                "velocity": 0.5039370078740157
              },
              {
                "duration": 0.17857150000000388,
                "durationTicks": 60,
                "midi": 43,
                "name": "G2",
                "ticks": 14580,
                "time": 43.392874500000005,
                "velocity": 0.5039370078740157
              },
              {
                "duration": 0.17857149999999677,
                "durationTicks": 60,
                "midi": 41,
                "name": "F2",
                "ticks": 14640,
                "time": 43.57144600000001,
                "velocity": 0.5039370078740157
              },
              {
                "duration": 0.17857149999999677,
                "durationTicks": 60,
                "midi": 39,
                "name": "D#2",
                "ticks": 14700,
                "time": 43.750017500000006,
                "velocity": 0.5039370078740157
              },
              {
                "duration": 0.17857150000000388,
                "durationTicks": 60,
                "midi": 41,
                "name": "F2",
                "ticks": 14760,
                "time": 43.928589,
                "velocity": 0.5039370078740157
              },
              {
                "duration": 0.17857149999999677,
                "durationTicks": 60,
                "midi": 43,
                "name": "G2",
                "ticks": 14820,
                "time": 44.107160500000006,
                "velocity": 0.5039370078740157
              },
              {
                "duration": 0.17857150000000388,
                "durationTicks": 60,
                "midi": 36,
                "name": "C2",
                "ticks": 14880,
                "time": 44.285732,
                "velocity": 0.5039370078740157
              },
              {
                "duration": 0.17857149999999677,
                "durationTicks": 60,
                "midi": 50,
                "name": "D3",
                "ticks": 14940,
                "time": 44.46430350000001,
                "velocity": 0.5039370078740157
              },
              {
                "duration": 0.17857150000000388,
                "durationTicks": 60,
                "midi": 51,
                "name": "D#3",
                "ticks": 15000,
                "time": 44.642875000000004,
                "velocity": 0.5039370078740157
              },
              {
                "duration": 0.17857149999999677,
                "durationTicks": 60,
                "midi": 53,
                "name": "F3",
                "ticks": 15060,
                "time": 44.82144650000001,
                "velocity": 0.5039370078740157
              },
              {
                "duration": 0.17857150000000388,
                "durationTicks": 60,
                "midi": 55,
                "name": "G3",
                "ticks": 15120,
                "time": 45.000018000000004,
                "velocity": 0.5039370078740157
              },
              {
                "duration": 0.17857149999999677,
                "durationTicks": 60,
                "midi": 56,
                "name": "G#3",
                "ticks": 15180,
                "time": 45.17858950000001,
                "velocity": 0.5039370078740157
              },
              {
                "duration": 0.17857150000000388,
                "durationTicks": 60,
                "midi": 58,
                "name": "A#3",
                "ticks": 15240,
                "time": 45.357161000000005,
                "velocity": 0.5039370078740157
              },
              {
                "duration": 0.17857149999999677,
                "durationTicks": 60,
                "midi": 55,
                "name": "G3",
                "ticks": 15300,
                "time": 45.53573250000001,
                "velocity": 0.5039370078740157
              },
              {
                "duration": 0.17857149999999677,
                "durationTicks": 60,
                "midi": 56,
                "name": "G#3",
                "ticks": 15360,
                "time": 45.714304000000006,
                "velocity": 0.5039370078740157
              },
              {
                "duration": 0.17857150000000388,
                "durationTicks": 60,
                "midi": 55,
                "name": "G3",
                "ticks": 15420,
                "time": 45.8928755,
                "velocity": 0.5039370078740157
              },
              {
                "duration": 0.17857149999999677,
                "durationTicks": 60,
                "midi": 53,
                "name": "F3",
                "ticks": 15480,
                "time": 46.071447000000006,
                "velocity": 0.5039370078740157
              },
              {
                "duration": 0.17857150000000388,
                "durationTicks": 60,
                "midi": 51,
                "name": "D#3",
                "ticks": 15540,
                "time": 46.2500185,
                "velocity": 0.5039370078740157
              },
              {
                "duration": 0.17857149999999677,
                "durationTicks": 60,
                "midi": 50,
                "name": "D3",
                "ticks": 15600,
                "time": 46.42859000000001,
                "velocity": 0.5039370078740157
              },
              {
                "duration": 0.17857150000000388,
                "durationTicks": 60,
                "midi": 60,
                "name": "C4",
                "ticks": 15660,
                "time": 46.607161500000004,
                "velocity": 0.5039370078740157
              },
              {
                "duration": 0.17857149999999677,
                "durationTicks": 60,
                "midi": 58,
                "name": "A#3",
                "ticks": 15720,
                "time": 46.78573300000001,
                "velocity": 0.5039370078740157
              },
              {
                "duration": 0.17857150000000388,
                "durationTicks": 60,
                "midi": 57,
                "name": "A3",
                "ticks": 15780,
                "time": 46.964304500000004,
                "velocity": 0.5039370078740157
              },
              {
                "duration": 0.17857149999999677,
                "durationTicks": 60,
                "midi": 55,
                "name": "G3",
                "ticks": 15840,
                "time": 47.14287600000001,
                "velocity": 0.5039370078740157
              },
              {
                "duration": 0.17857150000000388,
                "durationTicks": 60,
                "midi": 53,
                "name": "F3",
                "ticks": 15900,
                "time": 47.321447500000005,
                "velocity": 0.5039370078740157
              },
              {
                "duration": 0.17857149999999677,
                "durationTicks": 60,
                "midi": 55,
                "name": "G3",
                "ticks": 15960,
                "time": 47.50001900000001,
                "velocity": 0.5039370078740157
              },
              {
                "duration": 0.17857149999999677,
                "durationTicks": 60,
                "midi": 57,
                "name": "A3",
                "ticks": 16020,
                "time": 47.678590500000006,
                "velocity": 0.5039370078740157
              },
              {
                "duration": 0.17857150000000388,
                "durationTicks": 60,
                "midi": 58,
                "name": "A#3",
                "ticks": 16080,
                "time": 47.857162,
                "velocity": 0.5039370078740157
              },
              {
                "duration": 0.17857149999999677,
                "durationTicks": 60,
                "midi": 60,
                "name": "C4",
                "ticks": 16140,
                "time": 48.035733500000006,
                "velocity": 0.5039370078740157
              },
              {
                "duration": 0.17857150000000388,
                "durationTicks": 60,
                "midi": 62,
                "name": "D4",
                "ticks": 16200,
                "time": 48.214305,
                "velocity": 0.5039370078740157
              },
              {
                "duration": 0.17857149999999677,
                "durationTicks": 60,
                "midi": 58,
                "name": "A#3",
                "ticks": 16260,
                "time": 48.39287650000001,
                "velocity": 0.5039370078740157
              },
              {
                "duration": 0.17857150000000388,
                "durationTicks": 60,
                "midi": 60,
                "name": "C4",
                "ticks": 16320,
                "time": 48.571448000000004,
                "velocity": 0.5039370078740157
              },
              {
                "duration": 0.17857149999999677,
                "durationTicks": 60,
                "midi": 58,
                "name": "A#3",
                "ticks": 16380,
                "time": 48.75001950000001,
                "velocity": 0.5039370078740157
              },
              {
                "duration": 0.17857150000000388,
                "durationTicks": 60,
                "midi": 57,
                "name": "A3",
                "ticks": 16440,
                "time": 48.928591000000004,
                "velocity": 0.5039370078740157
              },
              {
                "duration": 0.17857149999999677,
                "durationTicks": 60,
                "midi": 55,
                "name": "G3",
                "ticks": 16500,
                "time": 49.10716250000001,
                "velocity": 0.5039370078740157
              },
              {
                "duration": 0.17857150000000388,
                "durationTicks": 60,
                "midi": 54,
                "name": "F#3",
                "ticks": 16560,
                "time": 49.285734000000005,
                "velocity": 0.5039370078740157
              },
              {
                "duration": 0.17857149999999677,
                "durationTicks": 60,
                "midi": 63,
                "name": "D#4",
                "ticks": 16620,
                "time": 49.46430550000001,
                "velocity": 0.5039370078740157
              },
              {
                "duration": 0.17857150000000388,
                "durationTicks": 60,
                "midi": 62,
                "name": "D4",
                "ticks": 16680,
                "time": 49.642877000000006,
                "velocity": 0.5039370078740157
              },
              {
                "duration": 0.17857149999999677,
                "durationTicks": 60,
                "midi": 60,
                "name": "C4",
                "ticks": 16740,
                "time": 49.82144850000001,
                "velocity": 0.5039370078740157
              },
              {
                "duration": 0.7142860000000013,
                "durationTicks": 240,
                "midi": 58,
                "name": "A#3",
                "ticks": 16800,
                "time": 50.000020000000006,
                "velocity": 0.5039370078740157
              },
              {
                "duration": 0.17857150000000388,
                "durationTicks": 60,
                "midi": 60,
                "name": "C4",
                "ticks": 17100,
                "time": 50.892877500000004,
                "velocity": 0.5039370078740157
              },
              {
                "duration": 0.17857149999999677,
                "durationTicks": 60,
                "midi": 62,
                "name": "D4",
                "ticks": 17160,
                "time": 51.07144900000001,
                "velocity": 0.5039370078740157
              },
              {
                "duration": 0.17857150000000388,
                "durationTicks": 60,
                "midi": 63,
                "name": "D#4",
                "ticks": 17220,
                "time": 51.250020500000005,
                "velocity": 0.5039370078740157
              },
              {
                "duration": 0.17857149999999677,
                "durationTicks": 60,
                "midi": 54,
                "name": "F#3",
                "ticks": 17280,
                "time": 51.42859200000001,
                "velocity": 0.5039370078740157
              },
              {
                "duration": 0.17857150000000388,
                "durationTicks": 60,
                "midi": 55,
                "name": "G3",
                "ticks": 17340,
                "time": 51.607163500000006,
                "velocity": 0.5039370078740157
              },
              {
                "duration": 0.17857149999999677,
                "durationTicks": 60,
                "midi": 57,
                "name": "A3",
                "ticks": 17400,
                "time": 51.78573500000001,
                "velocity": 0.5039370078740157
              },
              {
                "duration": 0.17857149999999677,
                "durationTicks": 60,
                "midi": 55,
                "name": "G3",
                "ticks": 17460,
                "time": 51.964306500000006,
                "velocity": 0.5039370078740157
              },
              {
                "duration": 0.35714300000000065,
                "durationTicks": 120,
                "midi": 54,
                "name": "F#3",
                "ticks": 17520,
                "time": 52.142878,
                "velocity": 0.5039370078740157
              },
              {
                "duration": 0.35714300000000065,
                "durationTicks": 120,
                "midi": 53,
                "name": "F3",
                "ticks": 17640,
                "time": 52.500021000000004,
                "velocity": 0.5039370078740157
              },
              {
                "duration": 0.17857150000000388,
                "durationTicks": 60,
                "midi": 52,
                "name": "E3",
                "ticks": 17760,
                "time": 52.857164000000004,
                "velocity": 0.5039370078740157
              },
              {
                "duration": 0.17857149999999677,
                "durationTicks": 60,
                "midi": 53,
                "name": "F3",
                "ticks": 17820,
                "time": 53.03573550000001,
                "velocity": 0.5039370078740157
              },
              {
                "duration": 0.17857150000000388,
                "durationTicks": 60,
                "midi": 55,
                "name": "G3",
                "ticks": 17880,
                "time": 53.214307000000005,
                "velocity": 0.5039370078740157
              },
              {
                "duration": 0.17857149999999677,
                "durationTicks": 60,
                "midi": 53,
                "name": "F3",
                "ticks": 17940,
                "time": 53.39287850000001,
                "velocity": 0.5039370078740157
              },
              {
                "duration": 0.35714300000000065,
                "durationTicks": 120,
                "midi": 52,
                "name": "E3",
                "ticks": 18000,
                "time": 53.571450000000006,
                "velocity": 0.5039370078740157
              },
              {
                "duration": 0.35714300000000065,
                "durationTicks": 120,
                "midi": 51,
                "name": "D#3",
                "ticks": 18120,
                "time": 53.928593000000006,
                "velocity": 0.5039370078740157
              },
              {
                "duration": 0.35714300000000065,
                "durationTicks": 120,
                "midi": 50,
                "name": "D3",
                "ticks": 18240,
                "time": 54.28573600000001,
                "velocity": 0.5039370078740157
              },
              {
                "duration": 0.08928575000000194,
                "durationTicks": 30,
                "midi": 55,
                "name": "G3",
                "ticks": 18360,
                "time": 54.64287900000001,
                "velocity": 0.5039370078740157
              },
              {
                "duration": 0.08928574999999483,
                "durationTicks": 30,
                "midi": 57,
                "name": "A3",
                "ticks": 18390,
                "time": 54.73216475000001,
                "velocity": 0.4409448818897638
              },
              {
                "duration": 0.5357145000000045,
                "durationTicks": 180,
                "midi": 55,
                "name": "G3",
                "ticks": 18420,
                "time": 54.821450500000005,
                "velocity": 0.5039370078740157
              },
              {
                "duration": 0.35714300000000065,
                "durationTicks": 120,
                "midi": 54,
                "name": "F#3",
                "ticks": 18600,
                "time": 55.35716500000001,
                "velocity": 0.5039370078740157
              },
              {
                "duration": 0.35714300000000065,
                "durationTicks": 120,
                "midi": 50,
                "name": "D3",
                "ticks": 18720,
                "time": 55.71430800000001,
                "velocity": 0.5039370078740157
              },
              {
                "duration": 0.08928574999999483,
                "durationTicks": 30,
                "midi": 58,
                "name": "A#3",
                "ticks": 18840,
                "time": 56.07145100000001,
                "velocity": 0.5039370078740157
              },
              {
                "duration": 0.08928575000000194,
                "durationTicks": 30,
                "midi": 60,
                "name": "C4",
                "ticks": 18870,
                "time": 56.160736750000005,
                "velocity": 0.4409448818897638
              },
              {
                "duration": 0.5357144999999974,
                "durationTicks": 180,
                "midi": 58,
                "name": "A#3",
                "ticks": 18900,
                "time": 56.25002250000001,
                "velocity": 0.5039370078740157
              },
              {
                "duration": 0.35714300000000065,
                "durationTicks": 120,
                "midi": 57,
                "name": "A3",
                "ticks": 19080,
                "time": 56.785737000000005,
                "velocity": 0.5039370078740157
              },
              {
                "duration": 0.35714300000000065,
                "durationTicks": 120,
                "midi": 50,
                "name": "D3",
                "ticks": 19200,
                "time": 57.142880000000005,
                "velocity": 0.5039370078740157
              },
              {
                "duration": 0.08928575000000194,
                "durationTicks": 30,
                "midi": 62,
                "name": "D4",
                "ticks": 19320,
                "time": 57.500023000000006,
                "velocity": 0.5039370078740157
              },
              {
                "duration": 0.08928575000000194,
                "durationTicks": 30,
                "midi": 63,
                "name": "D#4",
                "ticks": 19350,
                "time": 57.58930875000001,
                "velocity": 0.4409448818897638
              },
              {
                "duration": 0.5357144999999974,
                "durationTicks": 180,
                "midi": 62,
                "name": "D4",
                "ticks": 19380,
                "time": 57.67859450000001,
                "velocity": 0.5039370078740157
              },
              {
                "duration": 0.5357144999999974,
                "durationTicks": 180,
                "midi": 60,
                "name": "C4",
                "ticks": 19560,
                "time": 58.21430900000001,
                "velocity": 0.5039370078740157
              },
              {
                "duration": 0.17857150000000388,
                "durationTicks": 60,
                "midi": 63,
                "name": "D#4",
                "ticks": 19740,
                "time": 58.750023500000005,
                "velocity": 0.5039370078740157
              },
              {
                "duration": 0.17857149999999677,
                "durationTicks": 60,
                "midi": 62,
                "name": "D4",
                "ticks": 19800,
                "time": 58.92859500000001,
                "velocity": 0.5039370078740157
              },
              {
                "duration": 0.17857150000000388,
                "durationTicks": 60,
                "midi": 60,
                "name": "C4",
                "ticks": 19860,
                "time": 59.107166500000005,
                "velocity": 0.5039370078740157
              },
              {
                "duration": 0.17857149999999677,
                "durationTicks": 60,
                "midi": 58,
                "name": "A#3",
                "ticks": 19920,
                "time": 59.28573800000001,
                "velocity": 0.5039370078740157
              },
              {
                "duration": 0.17857150000000388,
                "durationTicks": 60,
                "midi": 57,
                "name": "A3",
                "ticks": 19980,
                "time": 59.464309500000006,
                "velocity": 0.5039370078740157
              },
              {
                "duration": 0.17857149999999677,
                "durationTicks": 60,
                "midi": 55,
                "name": "G3",
                "ticks": 20040,
                "time": 59.64288100000001,
                "velocity": 0.5039370078740157
              },
              {
                "duration": 0.17857150000000388,
                "durationTicks": 60,
                "midi": 58,
                "name": "A#3",
                "ticks": 20100,
                "time": 59.82145250000001,
                "velocity": 0.5039370078740157
              },
              {
                "duration": 0.863095583333326,
                "durationTicks": 290,
                "midi": 51,
                "name": "D#3",
                "ticks": 20160,
                "time": 60.00002400000001,
                "velocity": 0.5039370078740157
              },
              {
                "duration": 0.17857149999999677,
                "durationTicks": 60,
                "midi": 50,
                "name": "D3",
                "ticks": 20460,
                "time": 60.89288150000001,
                "velocity": 0.5039370078740157
              },
              {
                "duration": 0.17857150000000388,
                "durationTicks": 60,
                "midi": 48,
                "name": "C3",
                "ticks": 20520,
                "time": 61.071453000000005,
                "velocity": 0.5039370078740157
              },
              {
                "duration": 0.17857149999999677,
                "durationTicks": 60,
                "midi": 51,
                "name": "D#3",
                "ticks": 20580,
                "time": 61.25002450000001,
                "velocity": 0.5039370078740157
              },
              {
                "duration": 0.35714300000000065,
                "durationTicks": 120,
                "midi": 45,
                "name": "A2",
                "ticks": 20640,
                "time": 61.428596000000006,
                "velocity": 0.5039370078740157
              },
              {
                "duration": 0.08928575000000194,
                "durationTicks": 30,
                "midi": 50,
                "name": "D3",
                "ticks": 20760,
                "time": 61.78573900000001,
                "velocity": 0.5039370078740157
              },
              {
                "duration": 0.08928575000000194,
                "durationTicks": 30,
                "midi": 51,
                "name": "D#3",
                "ticks": 20790,
                "time": 61.87502475000001,
                "velocity": 0.4409448818897638
              },
              {
                "duration": 0.5357144999999974,
                "durationTicks": 180,
                "midi": 50,
                "name": "D3",
                "ticks": 20820,
                "time": 61.96431050000001,
                "velocity": 0.5039370078740157
              },
              {
                "duration": 0.35714300000000065,
                "durationTicks": 120,
                "midi": 48,
                "name": "C3",
                "ticks": 21000,
                "time": 62.50002500000001,
                "velocity": 0.5039370078740157
              },
              {
                "duration": 0.35714300000000065,
                "durationTicks": 120,
                "midi": 46,
                "name": "A#2",
                "ticks": 21120,
                "time": 62.85716800000001,
                "velocity": 0.5039370078740157
              },
              {
                "duration": 0.17857149999999677,
                "durationTicks": 60,
                "midi": 45,
                "name": "A2",
                "ticks": 21240,
                "time": 63.21431100000001,
                "velocity": 0.5039370078740157
              },
              {
                "duration": 0.17857150000000388,
                "durationTicks": 60,
                "midi": 43,
                "name": "G2",
                "ticks": 21300,
                "time": 63.392882500000006,
                "velocity": 0.5039370078740157
              },
              {
                "duration": 0.08928574999999483,
                "durationTicks": 30,
                "midi": 50,
                "name": "D3",
                "ticks": 21360,
                "time": 63.57145400000001,
                "velocity": 0.5039370078740157
              },
              {
                "duration": 0.08928575000000194,
                "durationTicks": 30,
                "midi": 48,
                "name": "C3",
                "ticks": 21390,
                "time": 63.660739750000005,
                "velocity": 0.4409448818897638
              },
              {
                "duration": 0.17857150000000388,
                "durationTicks": 60,
                "midi": 50,
                "name": "D3",
                "ticks": 21420,
                "time": 63.75002550000001,
                "velocity": 0.5039370078740157
              },
              {
                "duration": 0.35714299999999355,
                "durationTicks": 120,
                "midi": 38,
                "name": "D2",
                "ticks": 21480,
                "time": 63.92859700000001,
                "velocity": 0.5039370078740157
              },
              {
                "duration": 2.8571440000000052,
                "durationTicks": 960,
                "midi": 43,
                "name": "G2",
                "ticks": 21600,
                "time": 64.28574,
                "velocity": 0.5039370078740157
              }
            ],
            "endOfTrackTicks": 22560
          }
        ]
    },

    "invention-12" : {
        "header": {
          "keySignatures": [],
          "meta": [],
          "name": "Invention 12 in A Major",
          "ppq": 240,
          "tempos": [
            {
              "bpm": 109.99990833340972,
              "ticks": 0
            }
          ],
          "timeSignatures": [
            {
              "ticks": 0,
              "timeSignature": [
                12,
                8
              ],
              "measures": 0
            }
          ]
        },
        "tracks": [
          {
            "channel": 0,
            "controlChanges": {},
            "pitchBends": [],
            "instrument": {
              "family": "piano",
              "number": 0,
              "name": "acoustic grand piano"
            },
            "name": "",
            "notes": [
              {
                "duration": 0.068181875,
                "durationTicks": 30,
                "midi": 69,
                "name": "A4",
                "ticks": 0,
                "time": 0,
                "velocity": 0.5039370078740157
              },
              {
                "duration": 0.068181875,
                "durationTicks": 30,
                "midi": 68,
                "name": "G#4",
                "ticks": 30,
                "time": 0.068181875,
                "velocity": 0.4409448818897638
              },
              {
                "duration": 0.38636395833333337,
                "durationTicks": 170,
                "midi": 69,
                "name": "A4",
                "ticks": 60,
                "time": 0.13636375,
                "velocity": 0.5039370078740157
              },
              {
                "duration": 0.2727275,
                "durationTicks": 120,
                "midi": 69,
                "name": "A4",
                "ticks": 240,
                "time": 0.545455,
                "velocity": 0.5039370078740157
              },
              {
                "duration": 0.06818187500000006,
                "durationTicks": 30,
                "midi": 69,
                "name": "A4",
                "ticks": 360,
                "time": 0.8181825,
                "velocity": 0.5039370078740157
              },
              {
                "duration": 0.06818187499999995,
                "durationTicks": 30,
                "midi": 68,
                "name": "G#4",
                "ticks": 390,
                "time": 0.8863643750000001,
                "velocity": 0.4409448818897638
              },
              {
                "duration": 0.3863639583333335,
                "durationTicks": 170,
                "midi": 69,
                "name": "A4",
                "ticks": 420,
                "time": 0.95454625,
                "velocity": 0.5039370078740157
              },
              {
                "duration": 0.2727275,
                "durationTicks": 120,
                "midi": 69,
                "name": "A4",
                "ticks": 600,
                "time": 1.3636375,
                "velocity": 0.5039370078740157
              },
              {
                "duration": 0.0909091666666666,
                "durationTicks": 40,
                "midi": 71,
                "name": "B4",
                "ticks": 720,
                "time": 1.636365,
                "velocity": 0.5039370078740157
              },
              {
                "duration": 0.10909100000000005,
                "durationTicks": 48,
                "midi": 69,
                "name": "A4",
                "ticks": 760,
                "time": 1.7272741666666667,
                "velocity": 0.3779527559055118
              },
              {
                "duration": 0.10909099999999983,
                "durationTicks": 48,
                "midi": 71,
                "name": "B4",
                "ticks": 800,
                "time": 1.8181833333333335,
                "velocity": 0.3858267716535433
              },
              {
                "duration": 0.10909100000000005,
                "durationTicks": 48,
                "midi": 73,
                "name": "C#5",
                "ticks": 840,
                "time": 1.9090925,
                "velocity": 0.3937007874015748
              },
              {
                "duration": 0.10909100000000027,
                "durationTicks": 48,
                "midi": 71,
                "name": "B4",
                "ticks": 880,
                "time": 2.0000016666666665,
                "velocity": 0.4015748031496063
              },
              {
                "duration": 0.10909099999999983,
                "durationTicks": 48,
                "midi": 73,
                "name": "C#5",
                "ticks": 920,
                "time": 2.0909108333333335,
                "velocity": 0.4094488188976378
              },
              {
                "duration": 0.10909100000000027,
                "durationTicks": 48,
                "midi": 71,
                "name": "B4",
                "ticks": 960,
                "time": 2.18182,
                "velocity": 0.41732283464566927
              },
              {
                "duration": 0.10909099999999938,
                "durationTicks": 48,
                "midi": 73,
                "name": "C#5",
                "ticks": 1000,
                "time": 2.272729166666667,
                "velocity": 0.41732283464566927
              },
              {
                "duration": 0.10909100000000027,
                "durationTicks": 48,
                "midi": 71,
                "name": "B4",
                "ticks": 1040,
                "time": 2.3636383333333333,
                "velocity": 0.4251968503937008
              },
              {
                "duration": 0.10909099999999983,
                "durationTicks": 48,
                "midi": 73,
                "name": "C#5",
                "ticks": 1080,
                "time": 2.4545475000000003,
                "velocity": 0.4330708661417323
              },
              {
                "duration": 0.10909099999999983,
                "durationTicks": 48,
                "midi": 71,
                "name": "B4",
                "ticks": 1120,
                "time": 2.545456666666667,
                "velocity": 0.4409448818897638
              },
              {
                "duration": 0.10909100000000027,
                "durationTicks": 48,
                "midi": 73,
                "name": "C#5",
                "ticks": 1160,
                "time": 2.636365833333333,
                "velocity": 0.44881889763779526
              },
              {
                "duration": 0.10909100000000027,
                "durationTicks": 48,
                "midi": 71,
                "name": "B4",
                "ticks": 1200,
                "time": 2.727275,
                "velocity": 0.4566929133858268
              },
              {
                "duration": 0.10909099999999938,
                "durationTicks": 48,
                "midi": 73,
                "name": "C#5",
                "ticks": 1240,
                "time": 2.818184166666667,
                "velocity": 0.4645669291338583
              },
              {
                "duration": 0.10909100000000027,
                "durationTicks": 48,
                "midi": 71,
                "name": "B4",
                "ticks": 1280,
                "time": 2.9090933333333333,
                "velocity": 0.47244094488188976
              },
              {
                "duration": 0.10909100000000027,
                "durationTicks": 48,
                "midi": 73,
                "name": "C#5",
                "ticks": 1320,
                "time": 3.0000025,
                "velocity": 0.48031496062992124
              },
              {
                "duration": 0.10909099999999983,
                "durationTicks": 48,
                "midi": 71,
                "name": "B4",
                "ticks": 1360,
                "time": 3.090911666666667,
                "velocity": 0.4881889763779528
              },
              {
                "duration": 0.10909100000000027,
                "durationTicks": 48,
                "midi": 73,
                "name": "C#5",
                "ticks": 1400,
                "time": 3.181820833333333,
                "velocity": 0.49606299212598426
              },
              {
                "duration": 0.13636375000000012,
                "durationTicks": 60,
                "midi": 71,
                "name": "B4",
                "ticks": 1440,
                "time": 3.27273,
                "velocity": 0.5039370078740157
              },
              {
                "duration": 0.13636375000000012,
                "durationTicks": 60,
                "midi": 69,
                "name": "A4",
                "ticks": 1500,
                "time": 3.4090937500000003,
                "velocity": 0.5039370078740157
              },
              {
                "duration": 0.13636374999999967,
                "durationTicks": 60,
                "midi": 68,
                "name": "G#4",
                "ticks": 1560,
                "time": 3.5454575000000004,
                "velocity": 0.5039370078740157
              },
              {
                "duration": 0.13636375000000012,
                "durationTicks": 60,
                "midi": 69,
                "name": "A4",
                "ticks": 1620,
                "time": 3.68182125,
                "velocity": 0.5039370078740157
              },
              {
                "duration": 0.13636375000000012,
                "durationTicks": 60,
                "midi": 71,
                "name": "B4",
                "ticks": 1680,
                "time": 3.818185,
                "velocity": 0.5039370078740157
              },
              {
                "duration": 0.13636374999999967,
                "durationTicks": 60,
                "midi": 73,
                "name": "C#5",
                "ticks": 1740,
                "time": 3.9545487500000003,
                "velocity": 0.5039370078740157
              },
              {
                "duration": 0.13636375000000012,
                "durationTicks": 60,
                "midi": 74,
                "name": "D5",
                "ticks": 1800,
                "time": 4.0909125,
                "velocity": 0.5039370078740157
              },
              {
                "duration": 0.13636375000000012,
                "durationTicks": 60,
                "midi": 73,
                "name": "C#5",
                "ticks": 1860,
                "time": 4.22727625,
                "velocity": 0.5039370078740157
              },
              {
                "duration": 0.13636375000000012,
                "durationTicks": 60,
                "midi": 74,
                "name": "D5",
                "ticks": 1920,
                "time": 4.36364,
                "velocity": 0.5039370078740157
              },
              {
                "duration": 0.13636375000000012,
                "durationTicks": 60,
                "midi": 78,
                "name": "F#5",
                "ticks": 1980,
                "time": 4.50000375,
                "velocity": 0.5039370078740157
              },
              {
                "duration": 0.13636375000000012,
                "durationTicks": 60,
                "midi": 76,
                "name": "E5",
                "ticks": 2040,
                "time": 4.6363675,
                "velocity": 0.5039370078740157
              },
              {
                "duration": 0.13636375000000012,
                "durationTicks": 60,
                "midi": 74,
                "name": "D5",
                "ticks": 2100,
                "time": 4.7727312500000005,
                "velocity": 0.5039370078740157
              },
              {
                "duration": 0.13636374999999923,
                "durationTicks": 60,
                "midi": 73,
                "name": "C#5",
                "ticks": 2160,
                "time": 4.909095000000001,
                "velocity": 0.5039370078740157
              },
              {
                "duration": 0.13636375000000012,
                "durationTicks": 60,
                "midi": 69,
                "name": "A4",
                "ticks": 2220,
                "time": 5.04545875,
                "velocity": 0.5039370078740157
              },
              {
                "duration": 0.13636375000000012,
                "durationTicks": 60,
                "midi": 73,
                "name": "C#5",
                "ticks": 2280,
                "time": 5.1818225,
                "velocity": 0.5039370078740157
              },
              {
                "duration": 0.13636375000000012,
                "durationTicks": 60,
                "midi": 76,
                "name": "E5",
                "ticks": 2340,
                "time": 5.31818625,
                "velocity": 0.5039370078740157
              },
              {
                "duration": 0.13636375000000012,
                "durationTicks": 60,
                "midi": 81,
                "name": "A5",
                "ticks": 2400,
                "time": 5.45455,
                "velocity": 0.5039370078740157
              },
              {
                "duration": 0.13636375000000012,
                "durationTicks": 60,
                "midi": 78,
                "name": "F#5",
                "ticks": 2460,
                "time": 5.59091375,
                "velocity": 0.5039370078740157
              },
              {
                "duration": 0.13636375000000012,
                "durationTicks": 60,
                "midi": 75,
                "name": "D#5",
                "ticks": 2520,
                "time": 5.7272775000000005,
                "velocity": 0.5039370078740157
              },
              {
                "duration": 0.13636374999999923,
                "durationTicks": 60,
                "midi": 71,
                "name": "B4",
                "ticks": 2580,
                "time": 5.863641250000001,
                "velocity": 0.5039370078740157
              },
              {
                "duration": 0.13636375000000012,
                "durationTicks": 60,
                "midi": 75,
                "name": "D#5",
                "ticks": 2640,
                "time": 6.000005,
                "velocity": 0.5039370078740157
              },
              {
                "duration": 0.13636375000000012,
                "durationTicks": 60,
                "midi": 78,
                "name": "F#5",
                "ticks": 2700,
                "time": 6.13636875,
                "velocity": 0.5039370078740157
              },
              {
                "duration": 0.13636375000000012,
                "durationTicks": 60,
                "midi": 81,
                "name": "A5",
                "ticks": 2760,
                "time": 6.2727325,
                "velocity": 0.5039370078740157
              },
              {
                "duration": 0.13636375000000012,
                "durationTicks": 60,
                "midi": 78,
                "name": "F#5",
                "ticks": 2820,
                "time": 6.40909625,
                "velocity": 0.5039370078740157
              },
              {
                "duration": 0.13636375000000012,
                "durationTicks": 60,
                "midi": 80,
                "name": "G#5",
                "ticks": 2880,
                "time": 6.54546,
                "velocity": 0.5039370078740157
              },
              {
                "duration": 0.13636375000000012,
                "durationTicks": 60,
                "midi": 81,
                "name": "A5",
                "ticks": 2940,
                "time": 6.68182375,
                "velocity": 0.5039370078740157
              },
              {
                "duration": 0.13636375000000012,
                "durationTicks": 60,
                "midi": 80,
                "name": "G#5",
                "ticks": 3000,
                "time": 6.8181875000000005,
                "velocity": 0.5039370078740157
              },
              {
                "duration": 0.13636375000000012,
                "durationTicks": 60,
                "midi": 78,
                "name": "F#5",
                "ticks": 3060,
                "time": 6.954551250000001,
                "velocity": 0.5039370078740157
              },
              {
                "duration": 0.13636374999999923,
                "durationTicks": 60,
                "midi": 76,
                "name": "E5",
                "ticks": 3120,
                "time": 7.090915000000001,
                "velocity": 0.5039370078740157
              },
              {
                "duration": 0.13636375000000012,
                "durationTicks": 60,
                "midi": 75,
                "name": "D#5",
                "ticks": 3180,
                "time": 7.22727875,
                "velocity": 0.5039370078740157
              },
              {
                "duration": 0.13636375000000012,
                "durationTicks": 60,
                "midi": 73,
                "name": "C#5",
                "ticks": 3240,
                "time": 7.3636425,
                "velocity": 0.5039370078740157
              },
              {
                "duration": 0.13636375000000012,
                "durationTicks": 60,
                "midi": 75,
                "name": "D#5",
                "ticks": 3300,
                "time": 7.50000625,
                "velocity": 0.5039370078740157
              },
              {
                "duration": 0.13636375000000012,
                "durationTicks": 60,
                "midi": 76,
                "name": "E5",
                "ticks": 3360,
                "time": 7.63637,
                "velocity": 0.5039370078740157
              },
              {
                "duration": 0.13636375000000012,
                "durationTicks": 60,
                "midi": 75,
                "name": "D#5",
                "ticks": 3420,
                "time": 7.77273375,
                "velocity": 0.5039370078740157
              },
              {
                "duration": 0.13636375000000012,
                "durationTicks": 60,
                "midi": 73,
                "name": "C#5",
                "ticks": 3480,
                "time": 7.909097500000001,
                "velocity": 0.5039370078740157
              },
              {
                "duration": 0.13636374999999923,
                "durationTicks": 60,
                "midi": 71,
                "name": "B4",
                "ticks": 3540,
                "time": 8.04546125,
                "velocity": 0.5039370078740157
              },
              {
                "duration": 0.136363750000001,
                "durationTicks": 60,
                "midi": 69,
                "name": "A4",
                "ticks": 3600,
                "time": 8.181825,
                "velocity": 0.5039370078740157
              },
              {
                "duration": 0.13636374999999923,
                "durationTicks": 60,
                "midi": 73,
                "name": "C#5",
                "ticks": 3660,
                "time": 8.318188750000001,
                "velocity": 0.5039370078740157
              },
              {
                "duration": 0.136363750000001,
                "durationTicks": 60,
                "midi": 76,
                "name": "E5",
                "ticks": 3720,
                "time": 8.4545525,
                "velocity": 0.5039370078740157
              },
              {
                "duration": 0.13636374999999923,
                "durationTicks": 60,
                "midi": 73,
                "name": "C#5",
                "ticks": 3780,
                "time": 8.590916250000001,
                "velocity": 0.5039370078740157
              },
              {
                "duration": 0.13636374999999923,
                "durationTicks": 60,
                "midi": 69,
                "name": "A4",
                "ticks": 3840,
                "time": 8.72728,
                "velocity": 0.5039370078740157
              },
              {
                "duration": 0.136363750000001,
                "durationTicks": 60,
                "midi": 73,
                "name": "C#5",
                "ticks": 3900,
                "time": 8.86364375,
                "velocity": 0.5039370078740157
              },
              {
                "duration": 0.13636374999999923,
                "durationTicks": 60,
                "midi": 66,
                "name": "F#4",
                "ticks": 3960,
                "time": 9.0000075,
                "velocity": 0.5039370078740157
              },
              {
                "duration": 0.136363750000001,
                "durationTicks": 60,
                "midi": 69,
                "name": "A4",
                "ticks": 4020,
                "time": 9.13637125,
                "velocity": 0.5039370078740157
              },
              {
                "duration": 0.13636374999999923,
                "durationTicks": 60,
                "midi": 73,
                "name": "C#5",
                "ticks": 4080,
                "time": 9.272735,
                "velocity": 0.5039370078740157
              },
              {
                "duration": 0.136363750000001,
                "durationTicks": 60,
                "midi": 69,
                "name": "A4",
                "ticks": 4140,
                "time": 9.40909875,
                "velocity": 0.5039370078740157
              },
              {
                "duration": 0.13636374999999923,
                "durationTicks": 60,
                "midi": 66,
                "name": "F#4",
                "ticks": 4200,
                "time": 9.545462500000001,
                "velocity": 0.5039370078740157
              },
              {
                "duration": 0.136363750000001,
                "durationTicks": 60,
                "midi": 69,
                "name": "A4",
                "ticks": 4260,
                "time": 9.68182625,
                "velocity": 0.5039370078740157
              },
              {
                "duration": 0.27272749999999846,
                "durationTicks": 120,
                "midi": 63,
                "name": "D#4",
                "ticks": 4320,
                "time": 9.818190000000001,
                "velocity": 0.5039370078740157
              },
              {
                "duration": 0.27272750000000023,
                "durationTicks": 120,
                "midi": 66,
                "name": "F#4",
                "ticks": 4440,
                "time": 10.0909175,
                "velocity": 0.5039370078740157
              },
              {
                "duration": 0.27272750000000023,
                "durationTicks": 120,
                "midi": 63,
                "name": "D#4",
                "ticks": 4560,
                "time": 10.363645,
                "velocity": 0.5039370078740157
              },
              {
                "duration": 0.136363750000001,
                "durationTicks": 60,
                "midi": 59,
                "name": "B3",
                "ticks": 4680,
                "time": 10.6363725,
                "velocity": 0.5039370078740157
              },
              {
                "duration": 0.13636374999999923,
                "durationTicks": 60,
                "midi": 63,
                "name": "D#4",
                "ticks": 4740,
                "time": 10.772736250000001,
                "velocity": 0.5039370078740157
              },
              {
                "duration": 0.13636374999999923,
                "durationTicks": 60,
                "midi": 66,
                "name": "F#4",
                "ticks": 4800,
                "time": 10.9091,
                "velocity": 0.5039370078740157
              },
              {
                "duration": 0.136363750000001,
                "durationTicks": 60,
                "midi": 69,
                "name": "A4",
                "ticks": 4860,
                "time": 11.04546375,
                "velocity": 0.5039370078740157
              },
              {
                "duration": 0.13636374999999923,
                "durationTicks": 60,
                "midi": 68,
                "name": "G#4",
                "ticks": 4920,
                "time": 11.1818275,
                "velocity": 0.5039370078740157
              },
              {
                "duration": 0.136363750000001,
                "durationTicks": 60,
                "midi": 66,
                "name": "F#4",
                "ticks": 4980,
                "time": 11.31819125,
                "velocity": 0.5039370078740157
              },
              {
                "duration": 0.13636374999999923,
                "durationTicks": 60,
                "midi": 64,
                "name": "E4",
                "ticks": 5040,
                "time": 11.454555000000001,
                "velocity": 0.5039370078740157
              },
              {
                "duration": 0.136363750000001,
                "durationTicks": 60,
                "midi": 68,
                "name": "G#4",
                "ticks": 5100,
                "time": 11.59091875,
                "velocity": 0.5039370078740157
              },
              {
                "duration": 0.13636374999999923,
                "durationTicks": 60,
                "midi": 71,
                "name": "B4",
                "ticks": 5160,
                "time": 11.727282500000001,
                "velocity": 0.5039370078740157
              },
              {
                "duration": 0.13636374999999923,
                "durationTicks": 60,
                "midi": 76,
                "name": "E5",
                "ticks": 5220,
                "time": 11.86364625,
                "velocity": 0.5039370078740157
              },
              {
                "duration": 0.136363750000001,
                "durationTicks": 60,
                "midi": 71,
                "name": "B4",
                "ticks": 5280,
                "time": 12.00001,
                "velocity": 0.5039370078740157
              },
              {
                "duration": 0.13636374999999923,
                "durationTicks": 60,
                "midi": 68,
                "name": "G#4",
                "ticks": 5340,
                "time": 12.13637375,
                "velocity": 0.5039370078740157
              },
              {
                "duration": 0.5454550000000005,
                "durationTicks": 240,
                "midi": 64,
                "name": "E4",
                "ticks": 5400,
                "time": 12.2727375,
                "velocity": 0.5039370078740157
              },
              {
                "duration": 0.0681818750000005,
                "durationTicks": 30,
                "midi": 76,
                "name": "E5",
                "ticks": 5760,
                "time": 13.09092,
                "velocity": 0.5039370078740157
              },
              {
                "duration": 0.06818187499999873,
                "durationTicks": 30,
                "midi": 75,
                "name": "D#5",
                "ticks": 5790,
                "time": 13.159101875000001,
                "velocity": 0.4409448818897638
              },
              {
                "duration": 0.3863639583333338,
                "durationTicks": 170,
                "midi": 76,
                "name": "E5",
                "ticks": 5820,
                "time": 13.22728375,
                "velocity": 0.5039370078740157
              },
              {
                "duration": 0.27272750000000023,
                "durationTicks": 120,
                "midi": 76,
                "name": "E5",
                "ticks": 6000,
                "time": 13.636375000000001,
                "velocity": 0.5039370078740157
              },
              {
                "duration": 0.06818187499999873,
                "durationTicks": 30,
                "midi": 76,
                "name": "E5",
                "ticks": 6120,
                "time": 13.909102500000001,
                "velocity": 0.5039370078740157
              },
              {
                "duration": 0.0681818750000005,
                "durationTicks": 30,
                "midi": 75,
                "name": "D#5",
                "ticks": 6150,
                "time": 13.977284375,
                "velocity": 0.4409448818897638
              },
              {
                "duration": 0.38636395833333204,
                "durationTicks": 170,
                "midi": 76,
                "name": "E5",
                "ticks": 6180,
                "time": 14.04546625,
                "velocity": 0.5039370078740157
              },
              {
                "duration": 0.27272750000000023,
                "durationTicks": 120,
                "midi": 76,
                "name": "E5",
                "ticks": 6360,
                "time": 14.4545575,
                "velocity": 0.5039370078740157
              },
              {
                "duration": 0.136363750000001,
                "durationTicks": 60,
                "midi": 76,
                "name": "E5",
                "ticks": 6480,
                "time": 14.727285,
                "velocity": 0.5039370078740157
              },
              {
                "duration": 0.13636374999999923,
                "durationTicks": 60,
                "midi": 81,
                "name": "A5",
                "ticks": 6540,
                "time": 14.863648750000001,
                "velocity": 0.5039370078740157
              },
              {
                "duration": 0.136363750000001,
                "durationTicks": 60,
                "midi": 76,
                "name": "E5",
                "ticks": 6600,
                "time": 15.0000125,
                "velocity": 0.5039370078740157
              },
              {
                "duration": 0.13636374999999923,
                "durationTicks": 60,
                "midi": 73,
                "name": "C#5",
                "ticks": 6660,
                "time": 15.136376250000001,
                "velocity": 0.5039370078740157
              },
              {
                "duration": 0.13636374999999923,
                "durationTicks": 60,
                "midi": 69,
                "name": "A4",
                "ticks": 6720,
                "time": 15.27274,
                "velocity": 0.5039370078740157
              },
              {
                "duration": 0.136363750000001,
                "durationTicks": 60,
                "midi": 73,
                "name": "C#5",
                "ticks": 6780,
                "time": 15.40910375,
                "velocity": 0.5039370078740157
              },
              {
                "duration": 0.13636374999999923,
                "durationTicks": 60,
                "midi": 76,
                "name": "E5",
                "ticks": 6840,
                "time": 15.5454675,
                "velocity": 0.5039370078740157
              },
              {
                "duration": 0.136363750000001,
                "durationTicks": 60,
                "midi": 81,
                "name": "A5",
                "ticks": 6900,
                "time": 15.68183125,
                "velocity": 0.5039370078740157
              },
              {
                "duration": 0.13636374999999923,
                "durationTicks": 60,
                "midi": 76,
                "name": "E5",
                "ticks": 6960,
                "time": 15.818195000000001,
                "velocity": 0.5039370078740157
              },
              {
                "duration": 0.136363750000001,
                "durationTicks": 60,
                "midi": 73,
                "name": "C#5",
                "ticks": 7020,
                "time": 15.95455875,
                "velocity": 0.5039370078740157
              },
              {
                "duration": 0.136363750000001,
                "durationTicks": 60,
                "midi": 69,
                "name": "A4",
                "ticks": 7080,
                "time": 16.0909225,
                "velocity": 0.5039370078740157
              },
              {
                "duration": 0.13636374999999745,
                "durationTicks": 60,
                "midi": 73,
                "name": "C#5",
                "ticks": 7140,
                "time": 16.227286250000002,
                "velocity": 0.5039370078740157
              },
              {
                "duration": 0.0681818750000005,
                "durationTicks": 30,
                "midi": 74,
                "name": "D5",
                "ticks": 7200,
                "time": 16.36365,
                "velocity": 0.5039370078740157
              },
              {
                "duration": 0.0681818750000005,
                "durationTicks": 30,
                "midi": 73,
                "name": "C#5",
                "ticks": 7230,
                "time": 16.431831875,
                "velocity": 0.4409448818897638
              },
              {
                "duration": 0.3863639583333338,
                "durationTicks": 170,
                "midi": 74,
                "name": "D5",
                "ticks": 7260,
                "time": 16.50001375,
                "velocity": 0.5039370078740157
              },
              {
                "duration": 0.272727500000002,
                "durationTicks": 120,
                "midi": 74,
                "name": "D5",
                "ticks": 7440,
                "time": 16.909105,
                "velocity": 0.5039370078740157
              },
              {
                "duration": 0.06818187499999695,
                "durationTicks": 30,
                "midi": 74,
                "name": "D5",
                "ticks": 7560,
                "time": 17.181832500000002,
                "velocity": 0.5039370078740157
              },
              {
                "duration": 0.0681818750000005,
                "durationTicks": 30,
                "midi": 73,
                "name": "C#5",
                "ticks": 7590,
                "time": 17.250014375,
                "velocity": 0.4409448818897638
              },
              {
                "duration": 0.38636395833333737,
                "durationTicks": 170,
                "midi": 74,
                "name": "D5",
                "ticks": 7620,
                "time": 17.31819625,
                "velocity": 0.5039370078740157
              },
              {
                "duration": 0.272727500000002,
                "durationTicks": 120,
                "midi": 74,
                "name": "D5",
                "ticks": 7800,
                "time": 17.7272875,
                "velocity": 0.5039370078740157
              },
              {
                "duration": 0.136363750000001,
                "durationTicks": 60,
                "midi": 74,
                "name": "D5",
                "ticks": 7920,
                "time": 18.000015,
                "velocity": 0.5039370078740157
              },
              {
                "duration": 0.13636374999999745,
                "durationTicks": 60,
                "midi": 83,
                "name": "B5",
                "ticks": 7980,
                "time": 18.136378750000002,
                "velocity": 0.5039370078740157
              },
              {
                "duration": 0.136363750000001,
                "durationTicks": 60,
                "midi": 80,
                "name": "G#5",
                "ticks": 8040,
                "time": 18.2727425,
                "velocity": 0.5039370078740157
              },
              {
                "duration": 0.136363750000001,
                "durationTicks": 60,
                "midi": 74,
                "name": "D5",
                "ticks": 8100,
                "time": 18.40910625,
                "velocity": 0.5039370078740157
              },
              {
                "duration": 0.13636374999999745,
                "durationTicks": 60,
                "midi": 71,
                "name": "B4",
                "ticks": 8160,
                "time": 18.54547,
                "velocity": 0.5039370078740157
              },
              {
                "duration": 0.136363750000001,
                "durationTicks": 60,
                "midi": 74,
                "name": "D5",
                "ticks": 8220,
                "time": 18.68183375,
                "velocity": 0.5039370078740157
              },
              {
                "duration": 0.136363750000001,
                "durationTicks": 60,
                "midi": 80,
                "name": "G#5",
                "ticks": 8280,
                "time": 18.8181975,
                "velocity": 0.5039370078740157
              },
              {
                "duration": 0.136363750000001,
                "durationTicks": 60,
                "midi": 83,
                "name": "B5",
                "ticks": 8340,
                "time": 18.95456125,
                "velocity": 0.5039370078740157
              },
              {
                "duration": 0.13636374999999745,
                "durationTicks": 60,
                "midi": 80,
                "name": "G#5",
                "ticks": 8400,
                "time": 19.090925000000002,
                "velocity": 0.5039370078740157
              },
              {
                "duration": 0.136363750000001,
                "durationTicks": 60,
                "midi": 74,
                "name": "D5",
                "ticks": 8460,
                "time": 19.22728875,
                "velocity": 0.5039370078740157
              },
              {
                "duration": 0.136363750000001,
                "durationTicks": 60,
                "midi": 71,
                "name": "B4",
                "ticks": 8520,
                "time": 19.3636525,
                "velocity": 0.5039370078740157
              },
              {
                "duration": 0.136363750000001,
                "durationTicks": 60,
                "midi": 74,
                "name": "D5",
                "ticks": 8580,
                "time": 19.50001625,
                "velocity": 0.5039370078740157
              },
              {
                "duration": 0.27272749999999846,
                "durationTicks": 120,
                "midi": 73,
                "name": "C#5",
                "ticks": 8640,
                "time": 19.636380000000003,
                "velocity": 0.5039370078740157
              },
              {
                "duration": 0.13636374999999745,
                "durationTicks": 60,
                "midi": 62,
                "name": "D4",
                "ticks": 9060,
                "time": 20.590926250000003,
                "velocity": 0.5039370078740157
              },
              {
                "duration": 0.136363750000001,
                "durationTicks": 60,
                "midi": 66,
                "name": "F#4",
                "ticks": 9120,
                "time": 20.72729,
                "velocity": 0.5039370078740157
              },
              {
                "duration": 0.136363750000001,
                "durationTicks": 60,
                "midi": 69,
                "name": "A4",
                "ticks": 9180,
                "time": 20.86365375,
                "velocity": 0.5039370078740157
              },
              {
                "duration": 0.13636374999999745,
                "durationTicks": 60,
                "midi": 74,
                "name": "D5",
                "ticks": 9240,
                "time": 21.000017500000002,
                "velocity": 0.5039370078740157
              },
              {
                "duration": 0.136363750000001,
                "durationTicks": 60,
                "midi": 73,
                "name": "C#5",
                "ticks": 9300,
                "time": 21.13638125,
                "velocity": 0.5039370078740157
              },
              {
                "duration": 0.272727500000002,
                "durationTicks": 120,
                "midi": 71,
                "name": "B4",
                "ticks": 9360,
                "time": 21.272745,
                "velocity": 0.5039370078740157
              },
              {
                "duration": 0.136363750000001,
                "durationTicks": 60,
                "midi": 61,
                "name": "C#4",
                "ticks": 9780,
                "time": 22.22729125,
                "velocity": 0.5039370078740157
              },
              {
                "duration": 0.136363750000001,
                "durationTicks": 60,
                "midi": 65,
                "name": "F4",
                "ticks": 9840,
                "time": 22.363655,
                "velocity": 0.5039370078740157
              },
              {
                "duration": 0.13636374999999745,
                "durationTicks": 60,
                "midi": 68,
                "name": "G#4",
                "ticks": 9900,
                "time": 22.500018750000002,
                "velocity": 0.5039370078740157
              },
              {
                "duration": 0.136363750000001,
                "durationTicks": 60,
                "midi": 73,
                "name": "C#5",
                "ticks": 9960,
                "time": 22.6363825,
                "velocity": 0.5039370078740157
              },
              {
                "duration": 0.136363750000001,
                "durationTicks": 60,
                "midi": 71,
                "name": "B4",
                "ticks": 10020,
                "time": 22.77274625,
                "velocity": 0.5039370078740157
              },
              {
                "duration": 0.27272749999999846,
                "durationTicks": 120,
                "midi": 69,
                "name": "A4",
                "ticks": 10080,
                "time": 22.909110000000002,
                "velocity": 0.5039370078740157
              },
              {
                "duration": 0.13636374999999745,
                "durationTicks": 60,
                "midi": 59,
                "name": "B3",
                "ticks": 10500,
                "time": 23.863656250000002,
                "velocity": 0.5039370078740157
              },
              {
                "duration": 0.136363750000001,
                "durationTicks": 60,
                "midi": 62,
                "name": "D4",
                "ticks": 10560,
                "time": 24.00002,
                "velocity": 0.5039370078740157
              },
              {
                "duration": 0.136363750000001,
                "durationTicks": 60,
                "midi": 66,
                "name": "F#4",
                "ticks": 10620,
                "time": 24.13638375,
                "velocity": 0.5039370078740157
              },
              {
                "duration": 0.136363750000001,
                "durationTicks": 60,
                "midi": 71,
                "name": "B4",
                "ticks": 10680,
                "time": 24.2727475,
                "velocity": 0.5039370078740157
              },
              {
                "duration": 0.13636374999999745,
                "durationTicks": 60,
                "midi": 69,
                "name": "A4",
                "ticks": 10740,
                "time": 24.409111250000002,
                "velocity": 0.5039370078740157
              },
              {
                "duration": 0.136363750000001,
                "durationTicks": 60,
                "midi": 68,
                "name": "G#4",
                "ticks": 10800,
                "time": 24.545475,
                "velocity": 0.5039370078740157
              },
              {
                "duration": 0.136363750000001,
                "durationTicks": 60,
                "midi": 66,
                "name": "F#4",
                "ticks": 10860,
                "time": 24.68183875,
                "velocity": 0.5039370078740157
              },
              {
                "duration": 0.136363750000001,
                "durationTicks": 60,
                "midi": 71,
                "name": "B4",
                "ticks": 10920,
                "time": 24.8182025,
                "velocity": 0.5039370078740157
              },
              {
                "duration": 0.13636374999999745,
                "durationTicks": 60,
                "midi": 69,
                "name": "A4",
                "ticks": 10980,
                "time": 24.954566250000003,
                "velocity": 0.5039370078740157
              },
              {
                "duration": 0.136363750000001,
                "durationTicks": 60,
                "midi": 68,
                "name": "G#4",
                "ticks": 11040,
                "time": 25.09093,
                "velocity": 0.5039370078740157
              },
              {
                "duration": 0.136363750000001,
                "durationTicks": 60,
                "midi": 66,
                "name": "F#4",
                "ticks": 11100,
                "time": 25.22729375,
                "velocity": 0.5039370078740157
              },
              {
                "duration": 0.13636374999999745,
                "durationTicks": 60,
                "midi": 65,
                "name": "F4",
                "ticks": 11160,
                "time": 25.363657500000002,
                "velocity": 0.5039370078740157
              },
              {
                "duration": 0.136363750000001,
                "durationTicks": 60,
                "midi": 68,
                "name": "G#4",
                "ticks": 11220,
                "time": 25.50002125,
                "velocity": 0.5039370078740157
              },
              {
                "duration": 0.136363750000001,
                "durationTicks": 60,
                "midi": 73,
                "name": "C#5",
                "ticks": 11280,
                "time": 25.636385,
                "velocity": 0.5039370078740157
              },
              {
                "duration": 0.136363750000001,
                "durationTicks": 60,
                "midi": 71,
                "name": "B4",
                "ticks": 11340,
                "time": 25.77274875,
                "velocity": 0.5039370078740157
              },
              {
                "duration": 0.13636374999999745,
                "durationTicks": 60,
                "midi": 69,
                "name": "A4",
                "ticks": 11400,
                "time": 25.909112500000003,
                "velocity": 0.5039370078740157
              },
              {
                "duration": 0.136363750000001,
                "durationTicks": 60,
                "midi": 68,
                "name": "G#4",
                "ticks": 11460,
                "time": 26.04547625,
                "velocity": 0.5039370078740157
              },
              {
                "duration": 0.27272749999999846,
                "durationTicks": 120,
                "midi": 66,
                "name": "F#4",
                "ticks": 11520,
                "time": 26.18184,
                "velocity": 0.5039370078740157
              },
              {
                "duration": 0.272727500000002,
                "durationTicks": 120,
                "midi": 78,
                "name": "F#5",
                "ticks": 11640,
                "time": 26.4545675,
                "velocity": 0.5039370078740157
              },
              {
                "duration": 0.27272749999999846,
                "durationTicks": 120,
                "midi": 66,
                "name": "F#4",
                "ticks": 11760,
                "time": 26.727295,
                "velocity": 0.5039370078740157
              },
              {
                "duration": 0.272727500000002,
                "durationTicks": 120,
                "midi": 66,
                "name": "F#4",
                "ticks": 11880,
                "time": 27.0000225,
                "velocity": 0.5039370078740157
              },
              {
                "duration": 0.27272749999999846,
                "durationTicks": 120,
                "midi": 61,
                "name": "C#4",
                "ticks": 12000,
                "time": 27.272750000000002,
                "velocity": 0.5039370078740157
              },
              {
                "duration": 0.272727500000002,
                "durationTicks": 120,
                "midi": 66,
                "name": "F#4",
                "ticks": 12120,
                "time": 27.5454775,
                "velocity": 0.5039370078740157
              },
              {
                "duration": 0.0909091666666626,
                "durationTicks": 40,
                "midi": 68,
                "name": "G#4",
                "ticks": 12240,
                "time": 27.818205000000003,
                "velocity": 0.5039370078740157
              },
              {
                "duration": 0.0909091666666697,
                "durationTicks": 40,
                "midi": 66,
                "name": "F#4",
                "ticks": 12280,
                "time": 27.909114166666665,
                "velocity": 0.5039370078740157
              },
              {
                "duration": 0.10000008333333099,
                "durationTicks": 44,
                "midi": 68,
                "name": "G#4",
                "ticks": 12320,
                "time": 28.000023333333335,
                "velocity": 0.4409448818897638
              },
              {
                "duration": 0.10000008333333099,
                "durationTicks": 44,
                "midi": 69,
                "name": "A4",
                "ticks": 12360,
                "time": 28.0909325,
                "velocity": 0.4409448818897638
              },
              {
                "duration": 0.10000008333333454,
                "durationTicks": 44,
                "midi": 68,
                "name": "G#4",
                "ticks": 12400,
                "time": 28.181841666666667,
                "velocity": 0.44881889763779526
              },
              {
                "duration": 0.10000008333333099,
                "durationTicks": 44,
                "midi": 69,
                "name": "A4",
                "ticks": 12440,
                "time": 28.272750833333337,
                "velocity": 0.44881889763779526
              },
              {
                "duration": 0.10000008333333099,
                "durationTicks": 44,
                "midi": 68,
                "name": "G#4",
                "ticks": 12480,
                "time": 28.363660000000003,
                "velocity": 0.4566929133858268
              },
              {
                "duration": 0.1000000833333381,
                "durationTicks": 44,
                "midi": 69,
                "name": "A4",
                "ticks": 12520,
                "time": 28.454569166666666,
                "velocity": 0.4566929133858268
              },
              {
                "duration": 0.10000008333333099,
                "durationTicks": 44,
                "midi": 68,
                "name": "G#4",
                "ticks": 12560,
                "time": 28.545478333333335,
                "velocity": 0.4645669291338583
              },
              {
                "duration": 0.10000008333333099,
                "durationTicks": 44,
                "midi": 69,
                "name": "A4",
                "ticks": 12600,
                "time": 28.6363875,
                "velocity": 0.4645669291338583
              },
              {
                "duration": 0.10000008333333454,
                "durationTicks": 44,
                "midi": 68,
                "name": "G#4",
                "ticks": 12640,
                "time": 28.727296666666668,
                "velocity": 0.47244094488188976
              },
              {
                "duration": 0.10000008333333099,
                "durationTicks": 44,
                "midi": 69,
                "name": "A4",
                "ticks": 12680,
                "time": 28.818205833333337,
                "velocity": 0.47244094488188976
              },
              {
                "duration": 0.10000008333333454,
                "durationTicks": 44,
                "midi": 68,
                "name": "G#4",
                "ticks": 12720,
                "time": 28.909115,
                "velocity": 0.48031496062992124
              },
              {
                "duration": 0.10000008333333454,
                "durationTicks": 44,
                "midi": 69,
                "name": "A4",
                "ticks": 12760,
                "time": 29.000024166666666,
                "velocity": 0.48031496062992124
              },
              {
                "duration": 0.10000008333333099,
                "durationTicks": 44,
                "midi": 68,
                "name": "G#4",
                "ticks": 12800,
                "time": 29.090933333333336,
                "velocity": 0.4881889763779528
              },
              {
                "duration": 0.10000008333333099,
                "durationTicks": 44,
                "midi": 69,
                "name": "A4",
                "ticks": 12840,
                "time": 29.181842500000002,
                "velocity": 0.4881889763779528
              },
              {
                "duration": 0.10000008333333454,
                "durationTicks": 44,
                "midi": 68,
                "name": "G#4",
                "ticks": 12880,
                "time": 29.272751666666668,
                "velocity": 0.49606299212598426
              },
              {
                "duration": 0.10000008333333454,
                "durationTicks": 44,
                "midi": 69,
                "name": "A4",
                "ticks": 12920,
                "time": 29.363660833333334,
                "velocity": 0.49606299212598426
              },
              {
                "duration": 0.136363750000001,
                "durationTicks": 60,
                "midi": 68,
                "name": "G#4",
                "ticks": 12960,
                "time": 29.45457,
                "velocity": 0.5039370078740157
              },
              {
                "duration": 0.136363750000001,
                "durationTicks": 60,
                "midi": 66,
                "name": "F#4",
                "ticks": 13020,
                "time": 29.59093375,
                "velocity": 0.5039370078740157
              },
              {
                "duration": 0.13636374999999745,
                "durationTicks": 60,
                "midi": 65,
                "name": "F4",
                "ticks": 13080,
                "time": 29.727297500000002,
                "velocity": 0.5039370078740157
              },
              {
                "duration": 0.136363750000001,
                "durationTicks": 60,
                "midi": 66,
                "name": "F#4",
                "ticks": 13140,
                "time": 29.86366125,
                "velocity": 0.5039370078740157
              },
              {
                "duration": 0.136363750000001,
                "durationTicks": 60,
                "midi": 68,
                "name": "G#4",
                "ticks": 13200,
                "time": 30.000025,
                "velocity": 0.5039370078740157
              },
              {
                "duration": 0.136363750000001,
                "durationTicks": 60,
                "midi": 69,
                "name": "A4",
                "ticks": 13260,
                "time": 30.136388750000002,
                "velocity": 0.5039370078740157
              },
              {
                "duration": 0.13636374999999745,
                "durationTicks": 60,
                "midi": 71,
                "name": "B4",
                "ticks": 13320,
                "time": 30.272752500000003,
                "velocity": 0.5039370078740157
              },
              {
                "duration": 0.136363750000001,
                "durationTicks": 60,
                "midi": 69,
                "name": "A4",
                "ticks": 13380,
                "time": 30.40911625,
                "velocity": 0.5039370078740157
              },
              {
                "duration": 0.136363750000001,
                "durationTicks": 60,
                "midi": 71,
                "name": "B4",
                "ticks": 13440,
                "time": 30.54548,
                "velocity": 0.5039370078740157
              },
              {
                "duration": 0.13636374999999745,
                "durationTicks": 60,
                "midi": 74,
                "name": "D5",
                "ticks": 13500,
                "time": 30.681843750000002,
                "velocity": 0.5039370078740157
              },
              {
                "duration": 0.136363750000001,
                "durationTicks": 60,
                "midi": 73,
                "name": "C#5",
                "ticks": 13560,
                "time": 30.8182075,
                "velocity": 0.5039370078740157
              },
              {
                "duration": 0.136363750000001,
                "durationTicks": 60,
                "midi": 71,
                "name": "B4",
                "ticks": 13620,
                "time": 30.95457125,
                "velocity": 0.5039370078740157
              },
              {
                "duration": 0.136363750000001,
                "durationTicks": 60,
                "midi": 69,
                "name": "A4",
                "ticks": 13680,
                "time": 31.090935,
                "velocity": 0.5039370078740157
              },
              {
                "duration": 0.13636374999999745,
                "durationTicks": 60,
                "midi": 66,
                "name": "F#4",
                "ticks": 13740,
                "time": 31.227298750000003,
                "velocity": 0.5039370078740157
              },
              {
                "duration": 0.136363750000001,
                "durationTicks": 60,
                "midi": 69,
                "name": "A4",
                "ticks": 13800,
                "time": 31.3636625,
                "velocity": 0.5039370078740157
              },
              {
                "duration": 0.136363750000001,
                "durationTicks": 60,
                "midi": 73,
                "name": "C#5",
                "ticks": 13860,
                "time": 31.50002625,
                "velocity": 0.5039370078740157
              },
              {
                "duration": 0.13636374999999745,
                "durationTicks": 60,
                "midi": 78,
                "name": "F#5",
                "ticks": 13920,
                "time": 31.636390000000002,
                "velocity": 0.5039370078740157
              },
              {
                "duration": 0.136363750000001,
                "durationTicks": 60,
                "midi": 75,
                "name": "D#5",
                "ticks": 13980,
                "time": 31.77275375,
                "velocity": 0.5039370078740157
              },
              {
                "duration": 0.136363750000001,
                "durationTicks": 60,
                "midi": 72,
                "name": "C5",
                "ticks": 14040,
                "time": 31.9091175,
                "velocity": 0.5039370078740157
              },
              {
                "duration": 0.136363750000001,
                "durationTicks": 60,
                "midi": 68,
                "name": "G#4",
                "ticks": 14100,
                "time": 32.04548125,
                "velocity": 0.5039370078740157
              },
              {
                "duration": 0.136363750000001,
                "durationTicks": 60,
                "midi": 72,
                "name": "C5",
                "ticks": 14160,
                "time": 32.181845,
                "velocity": 0.5039370078740157
              },
              {
                "duration": 0.136363750000001,
                "durationTicks": 60,
                "midi": 75,
                "name": "D#5",
                "ticks": 14220,
                "time": 32.318208750000004,
                "velocity": 0.5039370078740157
              },
              {
                "duration": 0.1363637499999939,
                "durationTicks": 60,
                "midi": 78,
                "name": "F#5",
                "ticks": 14280,
                "time": 32.454572500000005,
                "velocity": 0.5039370078740157
              },
              {
                "duration": 0.136363750000001,
                "durationTicks": 60,
                "midi": 75,
                "name": "D#5",
                "ticks": 14340,
                "time": 32.59093625,
                "velocity": 0.5039370078740157
              },
              {
                "duration": 0.136363750000001,
                "durationTicks": 60,
                "midi": 76,
                "name": "E5",
                "ticks": 14400,
                "time": 32.7273,
                "velocity": 0.5039370078740157
              },
              {
                "duration": 0.136363750000001,
                "durationTicks": 60,
                "midi": 78,
                "name": "F#5",
                "ticks": 14460,
                "time": 32.86366375,
                "velocity": 0.5039370078740157
              },
              {
                "duration": 0.136363750000001,
                "durationTicks": 60,
                "midi": 76,
                "name": "E5",
                "ticks": 14520,
                "time": 33.0000275,
                "velocity": 0.5039370078740157
              },
              {
                "duration": 0.136363750000001,
                "durationTicks": 60,
                "midi": 75,
                "name": "D#5",
                "ticks": 14580,
                "time": 33.13639125,
                "velocity": 0.5039370078740157
              },
              {
                "duration": 0.136363750000001,
                "durationTicks": 60,
                "midi": 73,
                "name": "C#5",
                "ticks": 14640,
                "time": 33.272755000000004,
                "velocity": 0.5039370078740157
              },
              {
                "duration": 0.1363637499999939,
                "durationTicks": 60,
                "midi": 71,
                "name": "B4",
                "ticks": 14700,
                "time": 33.409118750000005,
                "velocity": 0.5039370078740157
              },
              {
                "duration": 0.136363750000001,
                "durationTicks": 60,
                "midi": 69,
                "name": "A4",
                "ticks": 14760,
                "time": 33.5454825,
                "velocity": 0.5039370078740157
              },
              {
                "duration": 0.136363750000001,
                "durationTicks": 60,
                "midi": 71,
                "name": "B4",
                "ticks": 14820,
                "time": 33.68184625,
                "velocity": 0.5039370078740157
              },
              {
                "duration": 0.136363750000001,
                "durationTicks": 60,
                "midi": 73,
                "name": "C#5",
                "ticks": 14880,
                "time": 33.81821,
                "velocity": 0.5039370078740157
              },
              {
                "duration": 0.136363750000001,
                "durationTicks": 60,
                "midi": 71,
                "name": "B4",
                "ticks": 14940,
                "time": 33.95457375,
                "velocity": 0.5039370078740157
              },
              {
                "duration": 0.136363750000001,
                "durationTicks": 60,
                "midi": 69,
                "name": "A4",
                "ticks": 15000,
                "time": 34.0909375,
                "velocity": 0.5039370078740157
              },
              {
                "duration": 0.136363750000001,
                "durationTicks": 60,
                "midi": 68,
                "name": "G#4",
                "ticks": 15060,
                "time": 34.227301250000004,
                "velocity": 0.5039370078740157
              },
              {
                "duration": 0.1363637499999939,
                "durationTicks": 60,
                "midi": 66,
                "name": "F#4",
                "ticks": 15120,
                "time": 34.363665000000005,
                "velocity": 0.5039370078740157
              },
              {
                "duration": 0.136363750000001,
                "durationTicks": 60,
                "midi": 69,
                "name": "A4",
                "ticks": 15180,
                "time": 34.50002875,
                "velocity": 0.5039370078740157
              },
              {
                "duration": 0.136363750000001,
                "durationTicks": 60,
                "midi": 73,
                "name": "C#5",
                "ticks": 15240,
                "time": 34.6363925,
                "velocity": 0.5039370078740157
              },
              {
                "duration": 0.136363750000001,
                "durationTicks": 60,
                "midi": 69,
                "name": "A4",
                "ticks": 15300,
                "time": 34.77275625,
                "velocity": 0.5039370078740157
              },
              {
                "duration": 0.136363750000001,
                "durationTicks": 60,
                "midi": 66,
                "name": "F#4",
                "ticks": 15360,
                "time": 34.90912,
                "velocity": 0.5039370078740157
              },
              {
                "duration": 0.136363750000001,
                "durationTicks": 60,
                "midi": 69,
                "name": "A4",
                "ticks": 15420,
                "time": 35.04548375,
                "velocity": 0.5039370078740157
              },
              {
                "duration": 0.136363750000001,
                "durationTicks": 60,
                "midi": 63,
                "name": "D#4",
                "ticks": 15480,
                "time": 35.1818475,
                "velocity": 0.5039370078740157
              },
              {
                "duration": 0.1363637499999939,
                "durationTicks": 60,
                "midi": 66,
                "name": "F#4",
                "ticks": 15540,
                "time": 35.318211250000004,
                "velocity": 0.5039370078740157
              },
              {
                "duration": 0.136363750000001,
                "durationTicks": 60,
                "midi": 69,
                "name": "A4",
                "ticks": 15600,
                "time": 35.454575,
                "velocity": 0.5039370078740157
              },
              {
                "duration": 0.136363750000001,
                "durationTicks": 60,
                "midi": 66,
                "name": "F#4",
                "ticks": 15660,
                "time": 35.59093875,
                "velocity": 0.5039370078740157
              },
              {
                "duration": 0.136363750000001,
                "durationTicks": 60,
                "midi": 63,
                "name": "D#4",
                "ticks": 15720,
                "time": 35.7273025,
                "velocity": 0.5039370078740157
              },
              {
                "duration": 0.136363750000001,
                "durationTicks": 60,
                "midi": 66,
                "name": "F#4",
                "ticks": 15780,
                "time": 35.86366625,
                "velocity": 0.5039370078740157
              },
              {
                "duration": 0.272727500000002,
                "durationTicks": 120,
                "midi": 60,
                "name": "C4",
                "ticks": 15840,
                "time": 36.00003,
                "velocity": 0.5039370078740157
              },
              {
                "duration": 0.2727274999999949,
                "durationTicks": 120,
                "midi": 63,
                "name": "D#4",
                "ticks": 15960,
                "time": 36.272757500000004,
                "velocity": 0.5039370078740157
              },
              {
                "duration": 0.272727500000002,
                "durationTicks": 120,
                "midi": 66,
                "name": "F#4",
                "ticks": 16080,
                "time": 36.545485,
                "velocity": 0.5039370078740157
              },
              {
                "duration": 0.272727500000002,
                "durationTicks": 120,
                "midi": 69,
                "name": "A4",
                "ticks": 16200,
                "time": 36.8182125,
                "velocity": 0.5039370078740157
              },
              {
                "duration": 0.2727274999999949,
                "durationTicks": 120,
                "midi": 68,
                "name": "G#4",
                "ticks": 16320,
                "time": 37.09094,
                "velocity": 0.5039370078740157
              },
              {
                "duration": 0.272727500000002,
                "durationTicks": 120,
                "midi": 72,
                "name": "C5",
                "ticks": 16440,
                "time": 37.3636675,
                "velocity": 0.5039370078740157
              },
              {
                "duration": 0.136363750000001,
                "durationTicks": 60,
                "midi": 73,
                "name": "C#5",
                "ticks": 16560,
                "time": 37.636395,
                "velocity": 0.5039370078740157
              },
              {
                "duration": 0.136363750000001,
                "durationTicks": 60,
                "midi": 76,
                "name": "E5",
                "ticks": 16620,
                "time": 37.77275875,
                "velocity": 0.5039370078740157
              },
              {
                "duration": 0.136363750000001,
                "durationTicks": 60,
                "midi": 80,
                "name": "G#5",
                "ticks": 16680,
                "time": 37.9091225,
                "velocity": 0.5039370078740157
              },
              {
                "duration": 0.136363750000001,
                "durationTicks": 60,
                "midi": 76,
                "name": "E5",
                "ticks": 16740,
                "time": 38.04548625,
                "velocity": 0.5039370078740157
              },
              {
                "duration": 0.1363637499999939,
                "durationTicks": 60,
                "midi": 73,
                "name": "C#5",
                "ticks": 16800,
                "time": 38.181850000000004,
                "velocity": 0.5039370078740157
              },
              {
                "duration": 0.136363750000001,
                "durationTicks": 60,
                "midi": 76,
                "name": "E5",
                "ticks": 16860,
                "time": 38.31821375,
                "velocity": 0.5039370078740157
              },
              {
                "duration": 0.136363750000001,
                "durationTicks": 60,
                "midi": 80,
                "name": "G#5",
                "ticks": 16920,
                "time": 38.4545775,
                "velocity": 0.5039370078740157
              },
              {
                "duration": 0.136363750000001,
                "durationTicks": 60,
                "midi": 76,
                "name": "E5",
                "ticks": 16980,
                "time": 38.59094125,
                "velocity": 0.5039370078740157
              },
              {
                "duration": 0.136363750000001,
                "durationTicks": 60,
                "midi": 73,
                "name": "C#5",
                "ticks": 17040,
                "time": 38.727305,
                "velocity": 0.5039370078740157
              },
              {
                "duration": 0.136363750000001,
                "durationTicks": 60,
                "midi": 76,
                "name": "E5",
                "ticks": 17100,
                "time": 38.86366875,
                "velocity": 0.5039370078740157
              },
              {
                "duration": 0.136363750000001,
                "durationTicks": 60,
                "midi": 80,
                "name": "G#5",
                "ticks": 17160,
                "time": 39.0000325,
                "velocity": 0.5039370078740157
              },
              {
                "duration": 0.136363750000001,
                "durationTicks": 60,
                "midi": 76,
                "name": "E5",
                "ticks": 17220,
                "time": 39.136396250000004,
                "velocity": 0.5039370078740157
              },
              {
                "duration": 0.1363637499999939,
                "durationTicks": 60,
                "midi": 73,
                "name": "C#5",
                "ticks": 17280,
                "time": 39.272760000000005,
                "velocity": 0.5039370078740157
              },
              {
                "duration": 0.136363750000001,
                "durationTicks": 60,
                "midi": 76,
                "name": "E5",
                "ticks": 17340,
                "time": 39.40912375,
                "velocity": 0.5039370078740157
              },
              {
                "duration": 0.136363750000001,
                "durationTicks": 60,
                "midi": 78,
                "name": "F#5",
                "ticks": 17400,
                "time": 39.5454875,
                "velocity": 0.5039370078740157
              },
              {
                "duration": 0.136363750000001,
                "durationTicks": 60,
                "midi": 76,
                "name": "E5",
                "ticks": 17460,
                "time": 39.68185125,
                "velocity": 0.5039370078740157
              },
              {
                "duration": 0.136363750000001,
                "durationTicks": 60,
                "midi": 73,
                "name": "C#5",
                "ticks": 17520,
                "time": 39.818215,
                "velocity": 0.5039370078740157
              },
              {
                "duration": 0.136363750000001,
                "durationTicks": 60,
                "midi": 76,
                "name": "E5",
                "ticks": 17580,
                "time": 39.95457875,
                "velocity": 0.5039370078740157
              },
              {
                "duration": 0.136363750000001,
                "durationTicks": 60,
                "midi": 78,
                "name": "F#5",
                "ticks": 17640,
                "time": 40.090942500000004,
                "velocity": 0.5039370078740157
              },
              {
                "duration": 0.1363637499999939,
                "durationTicks": 60,
                "midi": 76,
                "name": "E5",
                "ticks": 17700,
                "time": 40.227306250000005,
                "velocity": 0.5039370078740157
              },
              {
                "duration": 0.136363750000001,
                "durationTicks": 60,
                "midi": 73,
                "name": "C#5",
                "ticks": 17760,
                "time": 40.36367,
                "velocity": 0.5039370078740157
              },
              {
                "duration": 0.136363750000001,
                "durationTicks": 60,
                "midi": 76,
                "name": "E5",
                "ticks": 17820,
                "time": 40.50003375,
                "velocity": 0.5039370078740157
              },
              {
                "duration": 0.136363750000001,
                "durationTicks": 60,
                "midi": 78,
                "name": "F#5",
                "ticks": 17880,
                "time": 40.6363975,
                "velocity": 0.5039370078740157
              },
              {
                "duration": 0.136363750000001,
                "durationTicks": 60,
                "midi": 70,
                "name": "A#4",
                "ticks": 17940,
                "time": 40.77276125,
                "velocity": 0.5039370078740157
              },
              {
                "duration": 0.136363750000001,
                "durationTicks": 60,
                "midi": 71,
                "name": "B4",
                "ticks": 18000,
                "time": 40.909125,
                "velocity": 0.5039370078740157
              },
              {
                "duration": 0.136363750000001,
                "durationTicks": 60,
                "midi": 74,
                "name": "D5",
                "ticks": 18060,
                "time": 41.045488750000004,
                "velocity": 0.5039370078740157
              },
              {
                "duration": 0.1363637499999939,
                "durationTicks": 60,
                "midi": 78,
                "name": "F#5",
                "ticks": 18120,
                "time": 41.181852500000005,
                "velocity": 0.5039370078740157
              },
              {
                "duration": 0.136363750000001,
                "durationTicks": 60,
                "midi": 74,
                "name": "D5",
                "ticks": 18180,
                "time": 41.31821625,
                "velocity": 0.5039370078740157
              },
              {
                "duration": 0.136363750000001,
                "durationTicks": 60,
                "midi": 71,
                "name": "B4",
                "ticks": 18240,
                "time": 41.45458,
                "velocity": 0.5039370078740157
              },
              {
                "duration": 0.136363750000001,
                "durationTicks": 60,
                "midi": 74,
                "name": "D5",
                "ticks": 18300,
                "time": 41.59094375,
                "velocity": 0.5039370078740157
              },
              {
                "duration": 0.136363750000001,
                "durationTicks": 60,
                "midi": 78,
                "name": "F#5",
                "ticks": 18360,
                "time": 41.7273075,
                "velocity": 0.5039370078740157
              },
              {
                "duration": 0.136363750000001,
                "durationTicks": 60,
                "midi": 74,
                "name": "D5",
                "ticks": 18420,
                "time": 41.86367125,
                "velocity": 0.5039370078740157
              },
              {
                "duration": 0.136363750000001,
                "durationTicks": 60,
                "midi": 71,
                "name": "B4",
                "ticks": 18480,
                "time": 42.000035000000004,
                "velocity": 0.5039370078740157
              },
              {
                "duration": 0.1363637499999939,
                "durationTicks": 60,
                "midi": 74,
                "name": "D5",
                "ticks": 18540,
                "time": 42.136398750000005,
                "velocity": 0.5039370078740157
              },
              {
                "duration": 0.136363750000001,
                "durationTicks": 60,
                "midi": 78,
                "name": "F#5",
                "ticks": 18600,
                "time": 42.2727625,
                "velocity": 0.5039370078740157
              },
              {
                "duration": 0.136363750000001,
                "durationTicks": 60,
                "midi": 74,
                "name": "D5",
                "ticks": 18660,
                "time": 42.40912625,
                "velocity": 0.5039370078740157
              },
              {
                "duration": 0.136363750000001,
                "durationTicks": 60,
                "midi": 71,
                "name": "B4",
                "ticks": 18720,
                "time": 42.54549,
                "velocity": 0.5039370078740157
              },
              {
                "duration": 0.136363750000001,
                "durationTicks": 60,
                "midi": 74,
                "name": "D5",
                "ticks": 18780,
                "time": 42.68185375,
                "velocity": 0.5039370078740157
              },
              {
                "duration": 0.136363750000001,
                "durationTicks": 60,
                "midi": 76,
                "name": "E5",
                "ticks": 18840,
                "time": 42.8182175,
                "velocity": 0.5039370078740157
              },
              {
                "duration": 0.136363750000001,
                "durationTicks": 60,
                "midi": 74,
                "name": "D5",
                "ticks": 18900,
                "time": 42.954581250000004,
                "velocity": 0.5039370078740157
              },
              {
                "duration": 0.1363637499999939,
                "durationTicks": 60,
                "midi": 71,
                "name": "B4",
                "ticks": 18960,
                "time": 43.090945000000005,
                "velocity": 0.5039370078740157
              },
              {
                "duration": 0.136363750000001,
                "durationTicks": 60,
                "midi": 74,
                "name": "D5",
                "ticks": 19020,
                "time": 43.22730875,
                "velocity": 0.5039370078740157
              },
              {
                "duration": 0.136363750000001,
                "durationTicks": 60,
                "midi": 76,
                "name": "E5",
                "ticks": 19080,
                "time": 43.3636725,
                "velocity": 0.5039370078740157
              },
              {
                "duration": 0.136363750000001,
                "durationTicks": 60,
                "midi": 74,
                "name": "D5",
                "ticks": 19140,
                "time": 43.50003625,
                "velocity": 0.5039370078740157
              },
              {
                "duration": 0.136363750000001,
                "durationTicks": 60,
                "midi": 71,
                "name": "B4",
                "ticks": 19200,
                "time": 43.6364,
                "velocity": 0.5039370078740157
              },
              {
                "duration": 0.136363750000001,
                "durationTicks": 60,
                "midi": 74,
                "name": "D5",
                "ticks": 19260,
                "time": 43.77276375,
                "velocity": 0.5039370078740157
              },
              {
                "duration": 0.136363750000001,
                "durationTicks": 60,
                "midi": 76,
                "name": "E5",
                "ticks": 19320,
                "time": 43.909127500000004,
                "velocity": 0.5039370078740157
              },
              {
                "duration": 0.1363637499999939,
                "durationTicks": 60,
                "midi": 68,
                "name": "G#4",
                "ticks": 19380,
                "time": 44.045491250000005,
                "velocity": 0.5039370078740157
              },
              {
                "duration": 0.0681818750000005,
                "durationTicks": 30,
                "midi": 69,
                "name": "A4",
                "ticks": 19440,
                "time": 44.181855,
                "velocity": 0.5039370078740157
              },
              {
                "duration": 0.0681818750000005,
                "durationTicks": 30,
                "midi": 68,
                "name": "G#4",
                "ticks": 19470,
                "time": 44.250036875,
                "velocity": 0.4409448818897638
              },
              {
                "duration": 0.3863639583333338,
                "durationTicks": 170,
                "midi": 69,
                "name": "A4",
                "ticks": 19500,
                "time": 44.31821875,
                "velocity": 0.5039370078740157
              },
              {
                "duration": 0.272727500000002,
                "durationTicks": 120,
                "midi": 69,
                "name": "A4",
                "ticks": 19680,
                "time": 44.72731,
                "velocity": 0.5039370078740157
              },
              {
                "duration": 0.0681818750000005,
                "durationTicks": 30,
                "midi": 69,
                "name": "A4",
                "ticks": 19800,
                "time": 45.000037500000005,
                "velocity": 0.5039370078740157
              },
              {
                "duration": 0.0681818749999934,
                "durationTicks": 30,
                "midi": 68,
                "name": "G#4",
                "ticks": 19830,
                "time": 45.068219375000005,
                "velocity": 0.4409448818897638
              },
              {
                "duration": 0.3863639583333338,
                "durationTicks": 170,
                "midi": 69,
                "name": "A4",
                "ticks": 19860,
                "time": 45.13640125,
                "velocity": 0.5039370078740157
              },
              {
                "duration": 0.272727500000002,
                "durationTicks": 120,
                "midi": 69,
                "name": "A4",
                "ticks": 20040,
                "time": 45.5454925,
                "velocity": 0.5039370078740157
              },
              {
                "duration": 0.136363750000001,
                "durationTicks": 60,
                "midi": 69,
                "name": "A4",
                "ticks": 20160,
                "time": 45.818220000000004,
                "velocity": 0.5039370078740157
              },
              {
                "duration": 0.1363637499999939,
                "durationTicks": 60,
                "midi": 75,
                "name": "D#5",
                "ticks": 20220,
                "time": 45.954583750000005,
                "velocity": 0.5039370078740157
              },
              {
                "duration": 0.136363750000001,
                "durationTicks": 60,
                "midi": 71,
                "name": "B4",
                "ticks": 20280,
                "time": 46.0909475,
                "velocity": 0.5039370078740157
              },
              {
                "duration": 0.136363750000001,
                "durationTicks": 60,
                "midi": 69,
                "name": "A4",
                "ticks": 20340,
                "time": 46.22731125,
                "velocity": 0.5039370078740157
              },
              {
                "duration": 0.136363750000001,
                "durationTicks": 60,
                "midi": 66,
                "name": "F#4",
                "ticks": 20400,
                "time": 46.363675,
                "velocity": 0.5039370078740157
              },
              {
                "duration": 0.136363750000001,
                "durationTicks": 60,
                "midi": 69,
                "name": "A4",
                "ticks": 20460,
                "time": 46.50003875,
                "velocity": 0.5039370078740157
              },
              {
                "duration": 0.136363750000001,
                "durationTicks": 60,
                "midi": 71,
                "name": "B4",
                "ticks": 20520,
                "time": 46.6364025,
                "velocity": 0.5039370078740157
              },
              {
                "duration": 0.136363750000001,
                "durationTicks": 60,
                "midi": 75,
                "name": "D#5",
                "ticks": 20580,
                "time": 46.772766250000004,
                "velocity": 0.5039370078740157
              },
              {
                "duration": 0.1363637499999939,
                "durationTicks": 60,
                "midi": 71,
                "name": "B4",
                "ticks": 20640,
                "time": 46.909130000000005,
                "velocity": 0.5039370078740157
              },
              {
                "duration": 0.136363750000001,
                "durationTicks": 60,
                "midi": 69,
                "name": "A4",
                "ticks": 20700,
                "time": 47.04549375,
                "velocity": 0.5039370078740157
              },
              {
                "duration": 0.136363750000001,
                "durationTicks": 60,
                "midi": 66,
                "name": "F#4",
                "ticks": 20760,
                "time": 47.1818575,
                "velocity": 0.5039370078740157
              },
              {
                "duration": 0.136363750000001,
                "durationTicks": 60,
                "midi": 69,
                "name": "A4",
                "ticks": 20820,
                "time": 47.31822125,
                "velocity": 0.5039370078740157
              },
              {
                "duration": 0.0681818750000005,
                "durationTicks": 30,
                "midi": 67,
                "name": "G4",
                "ticks": 20880,
                "time": 47.454585,
                "velocity": 0.5039370078740157
              },
              {
                "duration": 0.0681818750000005,
                "durationTicks": 30,
                "midi": 66,
                "name": "F#4",
                "ticks": 20910,
                "time": 47.522766875,
                "velocity": 0.4409448818897638
              },
              {
                "duration": 0.3863639583333267,
                "durationTicks": 170,
                "midi": 67,
                "name": "G4",
                "ticks": 20940,
                "time": 47.59094875,
                "velocity": 0.5039370078740157
              },
              {
                "duration": 0.272727500000002,
                "durationTicks": 120,
                "midi": 67,
                "name": "G4",
                "ticks": 21120,
                "time": 48.00004,
                "velocity": 0.5039370078740157
              },
              {
                "duration": 0.0681818750000005,
                "durationTicks": 30,
                "midi": 67,
                "name": "G4",
                "ticks": 21240,
                "time": 48.2727675,
                "velocity": 0.5039370078740157
              },
              {
                "duration": 0.0681818750000005,
                "durationTicks": 30,
                "midi": 66,
                "name": "F#4",
                "ticks": 21270,
                "time": 48.340949375,
                "velocity": 0.4409448818897638
              },
              {
                "duration": 0.3863639583333338,
                "durationTicks": 170,
                "midi": 67,
                "name": "G4",
                "ticks": 21300,
                "time": 48.40913125,
                "velocity": 0.5039370078740157
              },
              {
                "duration": 0.2727274999999949,
                "durationTicks": 120,
                "midi": 67,
                "name": "G4",
                "ticks": 21480,
                "time": 48.818222500000005,
                "velocity": 0.5039370078740157
              },
              {
                "duration": 0.136363750000001,
                "durationTicks": 60,
                "midi": 67,
                "name": "G4",
                "ticks": 21600,
                "time": 49.09095,
                "velocity": 0.5039370078740157
              },
              {
                "duration": 0.136363750000001,
                "durationTicks": 60,
                "midi": 76,
                "name": "E5",
                "ticks": 21660,
                "time": 49.22731375,
                "velocity": 0.5039370078740157
              },
              {
                "duration": 0.136363750000001,
                "durationTicks": 60,
                "midi": 73,
                "name": "C#5",
                "ticks": 21720,
                "time": 49.3636775,
                "velocity": 0.5039370078740157
              },
              {
                "duration": 0.136363750000001,
                "durationTicks": 60,
                "midi": 67,
                "name": "G4",
                "ticks": 21780,
                "time": 49.50004125,
                "velocity": 0.5039370078740157
              },
              {
                "duration": 0.136363750000001,
                "durationTicks": 60,
                "midi": 64,
                "name": "E4",
                "ticks": 21840,
                "time": 49.636405,
                "velocity": 0.5039370078740157
              },
              {
                "duration": 0.136363750000001,
                "durationTicks": 60,
                "midi": 67,
                "name": "G4",
                "ticks": 21900,
                "time": 49.772768750000004,
                "velocity": 0.5039370078740157
              },
              {
                "duration": 0.1363637499999939,
                "durationTicks": 60,
                "midi": 73,
                "name": "C#5",
                "ticks": 21960,
                "time": 49.909132500000005,
                "velocity": 0.5039370078740157
              },
              {
                "duration": 0.136363750000001,
                "durationTicks": 60,
                "midi": 76,
                "name": "E5",
                "ticks": 22020,
                "time": 50.04549625,
                "velocity": 0.5039370078740157
              },
              {
                "duration": 0.136363750000001,
                "durationTicks": 60,
                "midi": 73,
                "name": "C#5",
                "ticks": 22080,
                "time": 50.18186,
                "velocity": 0.5039370078740157
              },
              {
                "duration": 0.136363750000001,
                "durationTicks": 60,
                "midi": 67,
                "name": "G4",
                "ticks": 22140,
                "time": 50.31822375,
                "velocity": 0.5039370078740157
              },
              {
                "duration": 0.136363750000001,
                "durationTicks": 60,
                "midi": 64,
                "name": "E4",
                "ticks": 22200,
                "time": 50.4545875,
                "velocity": 0.5039370078740157
              },
              {
                "duration": 0.136363750000001,
                "durationTicks": 60,
                "midi": 67,
                "name": "G4",
                "ticks": 22260,
                "time": 50.59095125,
                "velocity": 0.5039370078740157
              },
              {
                "duration": 0.2727274999999949,
                "durationTicks": 120,
                "midi": 66,
                "name": "F#4",
                "ticks": 22320,
                "time": 50.727315000000004,
                "velocity": 0.5039370078740157
              },
              {
                "duration": 0.136363750000001,
                "durationTicks": 60,
                "midi": 56,
                "name": "G#3",
                "ticks": 22740,
                "time": 51.681861250000004,
                "velocity": 0.5039370078740157
              },
              {
                "duration": 0.1363637499999939,
                "durationTicks": 60,
                "midi": 59,
                "name": "B3",
                "ticks": 22800,
                "time": 51.818225000000005,
                "velocity": 0.5039370078740157
              },
              {
                "duration": 0.136363750000001,
                "durationTicks": 60,
                "midi": 62,
                "name": "D4",
                "ticks": 22860,
                "time": 51.95458875,
                "velocity": 0.5039370078740157
              },
              {
                "duration": 0.136363750000001,
                "durationTicks": 60,
                "midi": 68,
                "name": "G#4",
                "ticks": 22920,
                "time": 52.0909525,
                "velocity": 0.5039370078740157
              },
              {
                "duration": 0.136363750000001,
                "durationTicks": 60,
                "midi": 66,
                "name": "F#4",
                "ticks": 22980,
                "time": 52.22731625,
                "velocity": 0.5039370078740157
              },
              {
                "duration": 0.272727500000002,
                "durationTicks": 120,
                "midi": 64,
                "name": "E4",
                "ticks": 23040,
                "time": 52.36368,
                "velocity": 0.5039370078740157
              },
              {
                "duration": 0.136363750000001,
                "durationTicks": 60,
                "midi": 54,
                "name": "F#3",
                "ticks": 23460,
                "time": 53.31822625,
                "velocity": 0.5039370078740157
              },
              {
                "duration": 0.136363750000001,
                "durationTicks": 60,
                "midi": 57,
                "name": "A3",
                "ticks": 23520,
                "time": 53.45459,
                "velocity": 0.5039370078740157
              },
              {
                "duration": 0.136363750000001,
                "durationTicks": 60,
                "midi": 61,
                "name": "C#4",
                "ticks": 23580,
                "time": 53.590953750000004,
                "velocity": 0.5039370078740157
              },
              {
                "duration": 0.1363637499999939,
                "durationTicks": 60,
                "midi": 66,
                "name": "F#4",
                "ticks": 23640,
                "time": 53.727317500000005,
                "velocity": 0.5039370078740157
              },
              {
                "duration": 0.136363750000001,
                "durationTicks": 60,
                "midi": 64,
                "name": "E4",
                "ticks": 23700,
                "time": 53.86368125,
                "velocity": 0.5039370078740157
              },
              {
                "duration": 0.272727500000002,
                "durationTicks": 120,
                "midi": 62,
                "name": "D4",
                "ticks": 23760,
                "time": 54.000045,
                "velocity": 0.5039370078740157
              },
              {
                "duration": 0.136363750000001,
                "durationTicks": 60,
                "midi": 52,
                "name": "E3",
                "ticks": 24180,
                "time": 54.95459125,
                "velocity": 0.5039370078740157
              },
              {
                "duration": 0.136363750000001,
                "durationTicks": 60,
                "midi": 56,
                "name": "G#3",
                "ticks": 24240,
                "time": 55.090955,
                "velocity": 0.5039370078740157
              },
              {
                "duration": 0.136363750000001,
                "durationTicks": 60,
                "midi": 59,
                "name": "B3",
                "ticks": 24300,
                "time": 55.22731875,
                "velocity": 0.5039370078740157
              },
              {
                "duration": 0.136363750000001,
                "durationTicks": 60,
                "midi": 64,
                "name": "E4",
                "ticks": 24360,
                "time": 55.3636825,
                "velocity": 0.5039370078740157
              },
              {
                "duration": 0.136363750000001,
                "durationTicks": 60,
                "midi": 62,
                "name": "D4",
                "ticks": 24420,
                "time": 55.500046250000004,
                "velocity": 0.5039370078740157
              },
              {
                "duration": 0.1363637499999939,
                "durationTicks": 60,
                "midi": 61,
                "name": "C#4",
                "ticks": 24480,
                "time": 55.636410000000005,
                "velocity": 0.5039370078740157
              },
              {
                "duration": 0.136363750000001,
                "durationTicks": 60,
                "midi": 57,
                "name": "A3",
                "ticks": 24540,
                "time": 55.77277375,
                "velocity": 0.5039370078740157
              },
              {
                "duration": 0.136363750000001,
                "durationTicks": 60,
                "midi": 61,
                "name": "C#4",
                "ticks": 24600,
                "time": 55.9091375,
                "velocity": 0.5039370078740157
              },
              {
                "duration": 0.136363750000001,
                "durationTicks": 60,
                "midi": 64,
                "name": "E4",
                "ticks": 24660,
                "time": 56.04550125,
                "velocity": 0.5039370078740157
              },
              {
                "duration": 0.136363750000001,
                "durationTicks": 60,
                "midi": 69,
                "name": "A4",
                "ticks": 24720,
                "time": 56.181865,
                "velocity": 0.5039370078740157
              },
              {
                "duration": 0.136363750000001,
                "durationTicks": 60,
                "midi": 64,
                "name": "E4",
                "ticks": 24780,
                "time": 56.31822875,
                "velocity": 0.5039370078740157
              },
              {
                "duration": 0.136363750000001,
                "durationTicks": 60,
                "midi": 73,
                "name": "C#5",
                "ticks": 24840,
                "time": 56.454592500000004,
                "velocity": 0.5039370078740157
              },
              {
                "duration": 0.136363750000001,
                "durationTicks": 60,
                "midi": 69,
                "name": "A4",
                "ticks": 24900,
                "time": 56.590956250000005,
                "velocity": 0.5039370078740157
              },
              {
                "duration": 0.1363637499999939,
                "durationTicks": 60,
                "midi": 73,
                "name": "C#5",
                "ticks": 24960,
                "time": 56.727320000000006,
                "velocity": 0.5039370078740157
              },
              {
                "duration": 0.136363750000001,
                "durationTicks": 60,
                "midi": 76,
                "name": "E5",
                "ticks": 25020,
                "time": 56.86368375,
                "velocity": 0.5039370078740157
              },
              {
                "duration": 0.136363750000001,
                "durationTicks": 60,
                "midi": 81,
                "name": "A5",
                "ticks": 25080,
                "time": 57.0000475,
                "velocity": 0.5039370078740157
              },
              {
                "duration": 0.136363750000001,
                "durationTicks": 60,
                "midi": 73,
                "name": "C#5",
                "ticks": 25140,
                "time": 57.13641125,
                "velocity": 0.5039370078740157
              },
              {
                "duration": 0.136363750000001,
                "durationTicks": 60,
                "midi": 74,
                "name": "D5",
                "ticks": 25200,
                "time": 57.272775,
                "velocity": 0.5039370078740157
              },
              {
                "duration": 0.136363750000001,
                "durationTicks": 60,
                "midi": 78,
                "name": "F#5",
                "ticks": 25260,
                "time": 57.409138750000004,
                "velocity": 0.5039370078740157
              },
              {
                "duration": 0.136363750000001,
                "durationTicks": 60,
                "midi": 81,
                "name": "A5",
                "ticks": 25320,
                "time": 57.545502500000005,
                "velocity": 0.5039370078740157
              },
              {
                "duration": 0.1363637499999939,
                "durationTicks": 60,
                "midi": 78,
                "name": "F#5",
                "ticks": 25380,
                "time": 57.681866250000006,
                "velocity": 0.5039370078740157
              },
              {
                "duration": 0.136363750000001,
                "durationTicks": 60,
                "midi": 74,
                "name": "D5",
                "ticks": 25440,
                "time": 57.81823,
                "velocity": 0.5039370078740157
              },
              {
                "duration": 0.136363750000001,
                "durationTicks": 60,
                "midi": 78,
                "name": "F#5",
                "ticks": 25500,
                "time": 57.95459375,
                "velocity": 0.5039370078740157
              },
              {
                "duration": 0.136363750000001,
                "durationTicks": 60,
                "midi": 71,
                "name": "B4",
                "ticks": 25560,
                "time": 58.0909575,
                "velocity": 0.5039370078740157
              },
              {
                "duration": 0.136363750000001,
                "durationTicks": 60,
                "midi": 74,
                "name": "D5",
                "ticks": 25620,
                "time": 58.22732125,
                "velocity": 0.5039370078740157
              },
              {
                "duration": 0.136363750000001,
                "durationTicks": 60,
                "midi": 78,
                "name": "F#5",
                "ticks": 25680,
                "time": 58.363685000000004,
                "velocity": 0.5039370078740157
              },
              {
                "duration": 0.136363750000001,
                "durationTicks": 60,
                "midi": 74,
                "name": "D5",
                "ticks": 25740,
                "time": 58.500048750000005,
                "velocity": 0.5039370078740157
              },
              {
                "duration": 0.1363637499999939,
                "durationTicks": 60,
                "midi": 71,
                "name": "B4",
                "ticks": 25800,
                "time": 58.636412500000006,
                "velocity": 0.5039370078740157
              },
              {
                "duration": 0.136363750000001,
                "durationTicks": 60,
                "midi": 74,
                "name": "D5",
                "ticks": 25860,
                "time": 58.77277625,
                "velocity": 0.5039370078740157
              },
              {
                "duration": 0.272727500000002,
                "durationTicks": 120,
                "midi": 68,
                "name": "G#4",
                "ticks": 25920,
                "time": 58.90914,
                "velocity": 0.5039370078740157
              },
              {
                "duration": 0.272727500000002,
                "durationTicks": 120,
                "midi": 71,
                "name": "B4",
                "ticks": 26040,
                "time": 59.1818675,
                "velocity": 0.5039370078740157
              },
              {
                "duration": 0.2727274999999949,
                "durationTicks": 120,
                "midi": 74,
                "name": "D5",
                "ticks": 26160,
                "time": 59.454595000000005,
                "velocity": 0.5039370078740157
              },
              {
                "duration": 0.272727500000002,
                "durationTicks": 120,
                "midi": 78,
                "name": "F#5",
                "ticks": 26280,
                "time": 59.7273225,
                "velocity": 0.5039370078740157
              },
              {
                "duration": 0.272727500000002,
                "durationTicks": 120,
                "midi": 76,
                "name": "E5",
                "ticks": 26400,
                "time": 60.00005,
                "velocity": 0.5039370078740157
              },
              {
                "duration": 0.272727500000002,
                "durationTicks": 120,
                "midi": 71,
                "name": "B4",
                "ticks": 26520,
                "time": 60.272777500000004,
                "velocity": 0.5039370078740157
              },
              {
                "duration": 0.2727274999999949,
                "durationTicks": 120,
                "midi": 78,
                "name": "F#5",
                "ticks": 26640,
                "time": 60.545505000000006,
                "velocity": 0.5039370078740157
              },
              {
                "duration": 0.272727500000002,
                "durationTicks": 120,
                "midi": 76,
                "name": "E5",
                "ticks": 26760,
                "time": 60.8182325,
                "velocity": 0.5039370078740157
              },
              {
                "duration": 0.272727500000002,
                "durationTicks": 120,
                "midi": 69,
                "name": "A4",
                "ticks": 26880,
                "time": 61.09096,
                "velocity": 0.5039370078740157
              },
              {
                "duration": 0.2727274999999949,
                "durationTicks": 120,
                "midi": 76,
                "name": "E5",
                "ticks": 27000,
                "time": 61.363687500000005,
                "velocity": 0.5039370078740157
              },
              {
                "duration": 0.272727500000002,
                "durationTicks": 120,
                "midi": 74,
                "name": "D5",
                "ticks": 27120,
                "time": 61.636415,
                "velocity": 0.5039370078740157
              },
              {
                "duration": 0.272727500000002,
                "durationTicks": 120,
                "midi": 68,
                "name": "G#4",
                "ticks": 27240,
                "time": 61.9091425,
                "velocity": 0.5039370078740157
              },
              {
                "duration": 0.272727500000002,
                "durationTicks": 120,
                "midi": 74,
                "name": "D5",
                "ticks": 27360,
                "time": 62.18187,
                "velocity": 0.5039370078740157
              },
              {
                "duration": 0.2727274999999949,
                "durationTicks": 120,
                "midi": 73,
                "name": "C#5",
                "ticks": 27480,
                "time": 62.454597500000006,
                "velocity": 0.5039370078740157
              },
              {
                "duration": 0.272727500000002,
                "durationTicks": 120,
                "midi": 64,
                "name": "E4",
                "ticks": 27600,
                "time": 62.727325,
                "velocity": 0.5039370078740157
              },
              {
                "duration": 0.136363750000001,
                "durationTicks": 60,
                "midi": 66,
                "name": "F#4",
                "ticks": 27720,
                "time": 63.0000525,
                "velocity": 0.5039370078740157
              },
              {
                "duration": 0.136363750000001,
                "durationTicks": 60,
                "midi": 68,
                "name": "G#4",
                "ticks": 27780,
                "time": 63.13641625,
                "velocity": 0.5039370078740157
              },
              {
                "duration": 0.136363750000001,
                "durationTicks": 60,
                "midi": 69,
                "name": "A4",
                "ticks": 27840,
                "time": 63.272780000000004,
                "velocity": 0.5039370078740157
              },
              {
                "duration": 0.1363637499999939,
                "durationTicks": 60,
                "midi": 71,
                "name": "B4",
                "ticks": 27900,
                "time": 63.409143750000005,
                "velocity": 0.5039370078740157
              },
              {
                "duration": 0.136363750000001,
                "durationTicks": 60,
                "midi": 73,
                "name": "C#5",
                "ticks": 27960,
                "time": 63.5455075,
                "velocity": 0.5039370078740157
              },
              {
                "duration": 0.136363750000001,
                "durationTicks": 60,
                "midi": 74,
                "name": "D5",
                "ticks": 28020,
                "time": 63.68187125,
                "velocity": 0.5039370078740157
              },
              {
                "duration": 0.136363750000001,
                "durationTicks": 60,
                "midi": 68,
                "name": "G#4",
                "ticks": 28080,
                "time": 63.818235,
                "velocity": 0.5039370078740157
              },
              {
                "duration": 0.136363750000001,
                "durationTicks": 60,
                "midi": 64,
                "name": "E4",
                "ticks": 28140,
                "time": 63.95459875,
                "velocity": 0.5039370078740157
              },
              {
                "duration": 0.136363750000001,
                "durationTicks": 60,
                "midi": 68,
                "name": "G#4",
                "ticks": 28200,
                "time": 64.0909625,
                "velocity": 0.5039370078740157
              },
              {
                "duration": 0.136363750000001,
                "durationTicks": 60,
                "midi": 71,
                "name": "B4",
                "ticks": 28260,
                "time": 64.22732625,
                "velocity": 0.5039370078740157
              },
              {
                "duration": 0.136363750000001,
                "durationTicks": 60,
                "midi": 76,
                "name": "E5",
                "ticks": 28320,
                "time": 64.36369,
                "velocity": 0.5039370078740157
              },
              {
                "duration": 0.136363750000001,
                "durationTicks": 60,
                "midi": 71,
                "name": "B4",
                "ticks": 28380,
                "time": 64.50005375,
                "velocity": 0.5039370078740157
              },
              {
                "duration": 0.136363750000001,
                "durationTicks": 60,
                "midi": 80,
                "name": "G#5",
                "ticks": 28440,
                "time": 64.63641750000001,
                "velocity": 0.5039370078740157
              },
              {
                "duration": 0.136363750000001,
                "durationTicks": 60,
                "midi": 76,
                "name": "E5",
                "ticks": 28500,
                "time": 64.77278125000001,
                "velocity": 0.5039370078740157
              },
              {
                "duration": 0.1363637499999868,
                "durationTicks": 60,
                "midi": 83,
                "name": "B5",
                "ticks": 28560,
                "time": 64.90914500000001,
                "velocity": 0.5039370078740157
              },
              {
                "duration": 0.136363750000001,
                "durationTicks": 60,
                "midi": 80,
                "name": "G#5",
                "ticks": 28620,
                "time": 65.04550875,
                "velocity": 0.5039370078740157
              },
              {
                "duration": 0.136363750000001,
                "durationTicks": 60,
                "midi": 76,
                "name": "E5",
                "ticks": 28680,
                "time": 65.1818725,
                "velocity": 0.5039370078740157
              },
              {
                "duration": 0.136363750000001,
                "durationTicks": 60,
                "midi": 80,
                "name": "G#5",
                "ticks": 28740,
                "time": 65.31823625,
                "velocity": 0.5039370078740157
              },
              {
                "duration": 0.272727500000002,
                "durationTicks": 120,
                "midi": 81,
                "name": "A5",
                "ticks": 28800,
                "time": 65.4546,
                "velocity": 0.5039370078740157
              },
              {
                "duration": 0.272727500000002,
                "durationTicks": 120,
                "midi": 76,
                "name": "E5",
                "ticks": 28920,
                "time": 65.7273275,
                "velocity": 0.5039370078740157
              },
              {
                "duration": 0.272727500000002,
                "durationTicks": 120,
                "midi": 73,
                "name": "C#5",
                "ticks": 29040,
                "time": 66.000055,
                "velocity": 0.5039370078740157
              },
              {
                "duration": 0.136363750000001,
                "durationTicks": 60,
                "midi": 69,
                "name": "A4",
                "ticks": 29160,
                "time": 66.2727825,
                "velocity": 0.5039370078740157
              },
              {
                "duration": 0.136363750000001,
                "durationTicks": 60,
                "midi": 74,
                "name": "D5",
                "ticks": 29220,
                "time": 66.40914625,
                "velocity": 0.5039370078740157
              },
              {
                "duration": 0.136363750000001,
                "durationTicks": 60,
                "midi": 73,
                "name": "C#5",
                "ticks": 29280,
                "time": 66.54551000000001,
                "velocity": 0.5039370078740157
              },
              {
                "duration": 0.136363750000001,
                "durationTicks": 60,
                "midi": 71,
                "name": "B4",
                "ticks": 29340,
                "time": 66.68187375000001,
                "velocity": 0.5039370078740157
              },
              {
                "duration": 0.4090912499999888,
                "durationTicks": 180,
                "midi": 76,
                "name": "E5",
                "ticks": 29400,
                "time": 66.81823750000001,
                "velocity": 0.5039370078740157
              },
              {
                "duration": 0.136363750000001,
                "durationTicks": 60,
                "midi": 78,
                "name": "F#5",
                "ticks": 29580,
                "time": 67.22732875,
                "velocity": 0.5039370078740157
              },
              {
                "duration": 0.272727500000002,
                "durationTicks": 120,
                "midi": 73,
                "name": "C#5",
                "ticks": 29640,
                "time": 67.3636925,
                "velocity": 0.5039370078740157
              },
              {
                "duration": 0.136363750000001,
                "durationTicks": 60,
                "midi": 71,
                "name": "B4",
                "ticks": 29760,
                "time": 67.63642,
                "velocity": 0.5039370078740157
              },
              {
                "duration": 0.136363750000001,
                "durationTicks": 60,
                "midi": 69,
                "name": "A4",
                "ticks": 29820,
                "time": 67.77278375,
                "velocity": 0.5039370078740157
              },
              {
                "duration": 0.818182500000006,
                "durationTicks": 360,
                "midi": 69,
                "name": "A4",
                "ticks": 29880,
                "time": 67.9091475,
                "velocity": 0.5039370078740157
              }
            ],
            "endOfTrackTicks": 30240
          },
          {
            "channel": 1,
            "controlChanges": {},
            "pitchBends": [],
            "instrument": {
              "family": "piano",
              "number": 0,
              "name": "acoustic grand piano"
            },
            "name": "",
            "notes": [
              {
                "duration": 0.13636375,
                "durationTicks": 60,
                "midi": 57,
                "name": "A3",
                "ticks": 0,
                "time": 0,
                "velocity": 0.5039370078740157
              },
              {
                "duration": 0.13636375,
                "durationTicks": 60,
                "midi": 59,
                "name": "B3",
                "ticks": 60,
                "time": 0.13636375,
                "velocity": 0.5039370078740157
              },
              {
                "duration": 0.13636375,
                "durationTicks": 60,
                "midi": 61,
                "name": "C#4",
                "ticks": 120,
                "time": 0.2727275,
                "velocity": 0.5039370078740157
              },
              {
                "duration": 0.13636375,
                "durationTicks": 60,
                "midi": 59,
                "name": "B3",
                "ticks": 180,
                "time": 0.40909125,
                "velocity": 0.5039370078740157
              },
              {
                "duration": 0.13636375,
                "durationTicks": 60,
                "midi": 57,
                "name": "A3",
                "ticks": 240,
                "time": 0.545455,
                "velocity": 0.5039370078740157
              },
              {
                "duration": 0.13636375,
                "durationTicks": 60,
                "midi": 56,
                "name": "G#3",
                "ticks": 300,
                "time": 0.68181875,
                "velocity": 0.5039370078740157
              },
              {
                "duration": 0.13636375,
                "durationTicks": 60,
                "midi": 54,
                "name": "F#3",
                "ticks": 360,
                "time": 0.8181825,
                "velocity": 0.5039370078740157
              },
              {
                "duration": 0.13636375,
                "durationTicks": 60,
                "midi": 56,
                "name": "G#3",
                "ticks": 420,
                "time": 0.95454625,
                "velocity": 0.5039370078740157
              },
              {
                "duration": 0.13636375000000012,
                "durationTicks": 60,
                "midi": 57,
                "name": "A3",
                "ticks": 480,
                "time": 1.09091,
                "velocity": 0.5039370078740157
              },
              {
                "duration": 0.1363637499999999,
                "durationTicks": 60,
                "midi": 56,
                "name": "G#3",
                "ticks": 540,
                "time": 1.2272737500000002,
                "velocity": 0.5039370078740157
              },
              {
                "duration": 0.1363637499999999,
                "durationTicks": 60,
                "midi": 54,
                "name": "F#3",
                "ticks": 600,
                "time": 1.3636375,
                "velocity": 0.5039370078740157
              },
              {
                "duration": 0.13636375000000012,
                "durationTicks": 60,
                "midi": 52,
                "name": "E3",
                "ticks": 660,
                "time": 1.50000125,
                "velocity": 0.5039370078740157
              },
              {
                "duration": 0.13636375000000012,
                "durationTicks": 60,
                "midi": 50,
                "name": "D3",
                "ticks": 720,
                "time": 1.636365,
                "velocity": 0.5039370078740157
              },
              {
                "duration": 0.1363637499999999,
                "durationTicks": 60,
                "midi": 54,
                "name": "F#3",
                "ticks": 780,
                "time": 1.7727287500000002,
                "velocity": 0.5039370078740157
              },
              {
                "duration": 0.1363637499999999,
                "durationTicks": 60,
                "midi": 57,
                "name": "A3",
                "ticks": 840,
                "time": 1.9090925,
                "velocity": 0.5039370078740157
              },
              {
                "duration": 0.13636375000000012,
                "durationTicks": 60,
                "midi": 54,
                "name": "F#3",
                "ticks": 900,
                "time": 2.04545625,
                "velocity": 0.5039370078740157
              },
              {
                "duration": 0.13636375000000012,
                "durationTicks": 60,
                "midi": 50,
                "name": "D3",
                "ticks": 960,
                "time": 2.18182,
                "velocity": 0.5039370078740157
              },
              {
                "duration": 0.13636375000000012,
                "durationTicks": 60,
                "midi": 54,
                "name": "F#3",
                "ticks": 1020,
                "time": 2.31818375,
                "velocity": 0.5039370078740157
              },
              {
                "duration": 0.13636374999999967,
                "durationTicks": 60,
                "midi": 47,
                "name": "B2",
                "ticks": 1080,
                "time": 2.4545475000000003,
                "velocity": 0.5039370078740157
              },
              {
                "duration": 0.13636375000000012,
                "durationTicks": 60,
                "midi": 50,
                "name": "D3",
                "ticks": 1140,
                "time": 2.59091125,
                "velocity": 0.5039370078740157
              },
              {
                "duration": 0.13636375000000012,
                "durationTicks": 60,
                "midi": 54,
                "name": "F#3",
                "ticks": 1200,
                "time": 2.727275,
                "velocity": 0.5039370078740157
              },
              {
                "duration": 0.13636374999999967,
                "durationTicks": 60,
                "midi": 50,
                "name": "D3",
                "ticks": 1260,
                "time": 2.8636387500000002,
                "velocity": 0.5039370078740157
              },
              {
                "duration": 0.13636375000000012,
                "durationTicks": 60,
                "midi": 47,
                "name": "B2",
                "ticks": 1320,
                "time": 3.0000025,
                "velocity": 0.5039370078740157
              },
              {
                "duration": 0.13636375000000012,
                "durationTicks": 60,
                "midi": 50,
                "name": "D3",
                "ticks": 1380,
                "time": 3.13636625,
                "velocity": 0.5039370078740157
              },
              {
                "duration": 0.27272750000000023,
                "durationTicks": 120,
                "midi": 44,
                "name": "G#2",
                "ticks": 1440,
                "time": 3.27273,
                "velocity": 0.5039370078740157
              },
              {
                "duration": 0.2727274999999998,
                "durationTicks": 120,
                "midi": 47,
                "name": "B2",
                "ticks": 1560,
                "time": 3.5454575000000004,
                "velocity": 0.5039370078740157
              },
              {
                "duration": 0.2727274999999998,
                "durationTicks": 120,
                "midi": 44,
                "name": "G#2",
                "ticks": 1680,
                "time": 3.818185,
                "velocity": 0.5039370078740157
              },
              {
                "duration": 0.27272750000000023,
                "durationTicks": 120,
                "midi": 40,
                "name": "E2",
                "ticks": 1800,
                "time": 4.0909125,
                "velocity": 0.5039370078740157
              },
              {
                "duration": 0.27272750000000023,
                "durationTicks": 120,
                "midi": 42,
                "name": "F#2",
                "ticks": 1920,
                "time": 4.36364,
                "velocity": 0.5039370078740157
              },
              {
                "duration": 0.27272750000000023,
                "durationTicks": 120,
                "midi": 44,
                "name": "G#2",
                "ticks": 2040,
                "time": 4.6363675,
                "velocity": 0.5039370078740157
              },
              {
                "duration": 0.5454549999999996,
                "durationTicks": 240,
                "midi": 45,
                "name": "A2",
                "ticks": 2160,
                "time": 4.909095000000001,
                "velocity": 0.5039370078740157
              },
              {
                "duration": 0.06818187499999961,
                "durationTicks": 30,
                "midi": 52,
                "name": "E3",
                "ticks": 2880,
                "time": 6.54546,
                "velocity": 0.5039370078740157
              },
              {
                "duration": 0.0681818750000005,
                "durationTicks": 30,
                "midi": 51,
                "name": "D#3",
                "ticks": 2910,
                "time": 6.613641875,
                "velocity": 0.4409448818897638
              },
              {
                "duration": 0.3863639583333338,
                "durationTicks": 170,
                "midi": 52,
                "name": "E3",
                "ticks": 2940,
                "time": 6.68182375,
                "velocity": 0.5039370078740157
              },
              {
                "duration": 0.27272749999999935,
                "durationTicks": 120,
                "midi": 52,
                "name": "E3",
                "ticks": 3120,
                "time": 7.090915000000001,
                "velocity": 0.5039370078740157
              },
              {
                "duration": 0.0681818750000005,
                "durationTicks": 30,
                "midi": 52,
                "name": "E3",
                "ticks": 3240,
                "time": 7.3636425,
                "velocity": 0.5039370078740157
              },
              {
                "duration": 0.06818187499999961,
                "durationTicks": 30,
                "midi": 51,
                "name": "D#3",
                "ticks": 3270,
                "time": 7.431824375000001,
                "velocity": 0.4409448818897638
              },
              {
                "duration": 0.3863639583333338,
                "durationTicks": 170,
                "midi": 52,
                "name": "E3",
                "ticks": 3300,
                "time": 7.50000625,
                "velocity": 0.5039370078740157
              },
              {
                "duration": 0.27272749999999935,
                "durationTicks": 120,
                "midi": 52,
                "name": "E3",
                "ticks": 3480,
                "time": 7.909097500000001,
                "velocity": 0.5039370078740157
              },
              {
                "duration": 0.09090916666666615,
                "durationTicks": 40,
                "midi": 54,
                "name": "F#3",
                "ticks": 3600,
                "time": 8.181825,
                "velocity": 0.5039370078740157
              },
              {
                "duration": 0.10909100000000116,
                "durationTicks": 48,
                "midi": 52,
                "name": "E3",
                "ticks": 3640,
                "time": 8.272734166666666,
                "velocity": 0.3779527559055118
              },
              {
                "duration": 0.10909099999999938,
                "durationTicks": 48,
                "midi": 54,
                "name": "F#3",
                "ticks": 3680,
                "time": 8.363643333333334,
                "velocity": 0.3858267716535433
              },
              {
                "duration": 0.10909099999999938,
                "durationTicks": 48,
                "midi": 56,
                "name": "G#3",
                "ticks": 3720,
                "time": 8.4545525,
                "velocity": 0.3937007874015748
              },
              {
                "duration": 0.10909100000000116,
                "durationTicks": 48,
                "midi": 54,
                "name": "F#3",
                "ticks": 3760,
                "time": 8.545461666666666,
                "velocity": 0.4015748031496063
              },
              {
                "duration": 0.10909100000000116,
                "durationTicks": 48,
                "midi": 56,
                "name": "G#3",
                "ticks": 3800,
                "time": 8.636370833333334,
                "velocity": 0.4094488188976378
              },
              {
                "duration": 0.10909099999999938,
                "durationTicks": 48,
                "midi": 54,
                "name": "F#3",
                "ticks": 3840,
                "time": 8.72728,
                "velocity": 0.4094488188976378
              },
              {
                "duration": 0.10909099999999938,
                "durationTicks": 48,
                "midi": 56,
                "name": "G#3",
                "ticks": 3880,
                "time": 8.818189166666668,
                "velocity": 0.41732283464566927
              },
              {
                "duration": 0.10909100000000116,
                "durationTicks": 48,
                "midi": 54,
                "name": "F#3",
                "ticks": 3920,
                "time": 8.909098333333333,
                "velocity": 0.4251968503937008
              },
              {
                "duration": 0.10909099999999938,
                "durationTicks": 48,
                "midi": 56,
                "name": "G#3",
                "ticks": 3960,
                "time": 9.0000075,
                "velocity": 0.4330708661417323
              },
              {
                "duration": 0.10909099999999938,
                "durationTicks": 48,
                "midi": 54,
                "name": "F#3",
                "ticks": 4000,
                "time": 9.090916666666669,
                "velocity": 0.4409448818897638
              },
              {
                "duration": 0.10909100000000116,
                "durationTicks": 48,
                "midi": 56,
                "name": "G#3",
                "ticks": 4040,
                "time": 9.181825833333333,
                "velocity": 0.44881889763779526
              },
              {
                "duration": 0.10909099999999938,
                "durationTicks": 48,
                "midi": 54,
                "name": "F#3",
                "ticks": 4080,
                "time": 9.272735,
                "velocity": 0.4566929133858268
              },
              {
                "duration": 0.10909100000000116,
                "durationTicks": 48,
                "midi": 56,
                "name": "G#3",
                "ticks": 4120,
                "time": 9.363644166666667,
                "velocity": 0.4645669291338583
              },
              {
                "duration": 0.10909100000000116,
                "durationTicks": 48,
                "midi": 54,
                "name": "F#3",
                "ticks": 4160,
                "time": 9.454553333333333,
                "velocity": 0.47244094488188976
              },
              {
                "duration": 0.10909099999999938,
                "durationTicks": 48,
                "midi": 56,
                "name": "G#3",
                "ticks": 4200,
                "time": 9.545462500000001,
                "velocity": 0.48031496062992124
              },
              {
                "duration": 0.10909099999999938,
                "durationTicks": 48,
                "midi": 54,
                "name": "F#3",
                "ticks": 4240,
                "time": 9.636371666666667,
                "velocity": 0.4881889763779528
              },
              {
                "duration": 0.10909100000000116,
                "durationTicks": 48,
                "midi": 56,
                "name": "G#3",
                "ticks": 4280,
                "time": 9.727280833333333,
                "velocity": 0.49606299212598426
              },
              {
                "duration": 0.13636374999999923,
                "durationTicks": 60,
                "midi": 54,
                "name": "F#3",
                "ticks": 4320,
                "time": 9.818190000000001,
                "velocity": 0.5039370078740157
              },
              {
                "duration": 0.13636374999999923,
                "durationTicks": 60,
                "midi": 52,
                "name": "E3",
                "ticks": 4380,
                "time": 9.95455375,
                "velocity": 0.5039370078740157
              },
              {
                "duration": 0.136363750000001,
                "durationTicks": 60,
                "midi": 51,
                "name": "D#3",
                "ticks": 4440,
                "time": 10.0909175,
                "velocity": 0.5039370078740157
              },
              {
                "duration": 0.13636374999999923,
                "durationTicks": 60,
                "midi": 52,
                "name": "E3",
                "ticks": 4500,
                "time": 10.22728125,
                "velocity": 0.5039370078740157
              },
              {
                "duration": 0.136363750000001,
                "durationTicks": 60,
                "midi": 54,
                "name": "F#3",
                "ticks": 4560,
                "time": 10.363645,
                "velocity": 0.5039370078740157
              },
              {
                "duration": 0.13636374999999923,
                "durationTicks": 60,
                "midi": 56,
                "name": "G#3",
                "ticks": 4620,
                "time": 10.500008750000001,
                "velocity": 0.5039370078740157
              },
              {
                "duration": 0.136363750000001,
                "durationTicks": 60,
                "midi": 57,
                "name": "A3",
                "ticks": 4680,
                "time": 10.6363725,
                "velocity": 0.5039370078740157
              },
              {
                "duration": 0.13636374999999923,
                "durationTicks": 60,
                "midi": 56,
                "name": "G#3",
                "ticks": 4740,
                "time": 10.772736250000001,
                "velocity": 0.5039370078740157
              },
              {
                "duration": 0.13636374999999923,
                "durationTicks": 60,
                "midi": 57,
                "name": "A3",
                "ticks": 4800,
                "time": 10.9091,
                "velocity": 0.5039370078740157
              },
              {
                "duration": 0.136363750000001,
                "durationTicks": 60,
                "midi": 61,
                "name": "C#4",
                "ticks": 4860,
                "time": 11.04546375,
                "velocity": 0.5039370078740157
              },
              {
                "duration": 0.13636374999999923,
                "durationTicks": 60,
                "midi": 59,
                "name": "B3",
                "ticks": 4920,
                "time": 11.1818275,
                "velocity": 0.5039370078740157
              },
              {
                "duration": 0.136363750000001,
                "durationTicks": 60,
                "midi": 57,
                "name": "A3",
                "ticks": 4980,
                "time": 11.31819125,
                "velocity": 0.5039370078740157
              },
              {
                "duration": 0.13636374999999923,
                "durationTicks": 60,
                "midi": 56,
                "name": "G#3",
                "ticks": 5040,
                "time": 11.454555000000001,
                "velocity": 0.5039370078740157
              },
              {
                "duration": 0.136363750000001,
                "durationTicks": 60,
                "midi": 52,
                "name": "E3",
                "ticks": 5100,
                "time": 11.59091875,
                "velocity": 0.5039370078740157
              },
              {
                "duration": 0.13636374999999923,
                "durationTicks": 60,
                "midi": 56,
                "name": "G#3",
                "ticks": 5160,
                "time": 11.727282500000001,
                "velocity": 0.5039370078740157
              },
              {
                "duration": 0.13636374999999923,
                "durationTicks": 60,
                "midi": 59,
                "name": "B3",
                "ticks": 5220,
                "time": 11.86364625,
                "velocity": 0.5039370078740157
              },
              {
                "duration": 0.136363750000001,
                "durationTicks": 60,
                "midi": 64,
                "name": "E4",
                "ticks": 5280,
                "time": 12.00001,
                "velocity": 0.5039370078740157
              },
              {
                "duration": 0.13636374999999923,
                "durationTicks": 60,
                "midi": 59,
                "name": "B3",
                "ticks": 5340,
                "time": 12.13637375,
                "velocity": 0.5039370078740157
              },
              {
                "duration": 0.136363750000001,
                "durationTicks": 60,
                "midi": 56,
                "name": "G#3",
                "ticks": 5400,
                "time": 12.2727375,
                "velocity": 0.5039370078740157
              },
              {
                "duration": 0.13636374999999923,
                "durationTicks": 60,
                "midi": 52,
                "name": "E3",
                "ticks": 5460,
                "time": 12.40910125,
                "velocity": 0.5039370078740157
              },
              {
                "duration": 0.136363750000001,
                "durationTicks": 60,
                "midi": 56,
                "name": "G#3",
                "ticks": 5520,
                "time": 12.545465,
                "velocity": 0.5039370078740157
              },
              {
                "duration": 0.13636374999999923,
                "durationTicks": 60,
                "midi": 59,
                "name": "B3",
                "ticks": 5580,
                "time": 12.681828750000001,
                "velocity": 0.5039370078740157
              },
              {
                "duration": 0.136363750000001,
                "durationTicks": 60,
                "midi": 62,
                "name": "D4",
                "ticks": 5640,
                "time": 12.8181925,
                "velocity": 0.5039370078740157
              },
              {
                "duration": 0.13636374999999923,
                "durationTicks": 60,
                "midi": 59,
                "name": "B3",
                "ticks": 5700,
                "time": 12.954556250000001,
                "velocity": 0.5039370078740157
              },
              {
                "duration": 0.13636374999999923,
                "durationTicks": 60,
                "midi": 61,
                "name": "C#4",
                "ticks": 5760,
                "time": 13.09092,
                "velocity": 0.5039370078740157
              },
              {
                "duration": 0.136363750000001,
                "durationTicks": 60,
                "midi": 62,
                "name": "D4",
                "ticks": 5820,
                "time": 13.22728375,
                "velocity": 0.5039370078740157
              },
              {
                "duration": 0.13636374999999923,
                "durationTicks": 60,
                "midi": 64,
                "name": "E4",
                "ticks": 5880,
                "time": 13.3636475,
                "velocity": 0.5039370078740157
              },
              {
                "duration": 0.136363750000001,
                "durationTicks": 60,
                "midi": 62,
                "name": "D4",
                "ticks": 5940,
                "time": 13.50001125,
                "velocity": 0.5039370078740157
              },
              {
                "duration": 0.13636374999999923,
                "durationTicks": 60,
                "midi": 61,
                "name": "C#4",
                "ticks": 6000,
                "time": 13.636375000000001,
                "velocity": 0.5039370078740157
              },
              {
                "duration": 0.136363750000001,
                "durationTicks": 60,
                "midi": 59,
                "name": "B3",
                "ticks": 6060,
                "time": 13.77273875,
                "velocity": 0.5039370078740157
              },
              {
                "duration": 0.13636374999999923,
                "durationTicks": 60,
                "midi": 57,
                "name": "A3",
                "ticks": 6120,
                "time": 13.909102500000001,
                "velocity": 0.5039370078740157
              },
              {
                "duration": 0.136363750000001,
                "durationTicks": 60,
                "midi": 59,
                "name": "B3",
                "ticks": 6180,
                "time": 14.04546625,
                "velocity": 0.5039370078740157
              },
              {
                "duration": 0.13636374999999923,
                "durationTicks": 60,
                "midi": 61,
                "name": "C#4",
                "ticks": 6240,
                "time": 14.181830000000001,
                "velocity": 0.5039370078740157
              },
              {
                "duration": 0.13636374999999923,
                "durationTicks": 60,
                "midi": 59,
                "name": "B3",
                "ticks": 6300,
                "time": 14.31819375,
                "velocity": 0.5039370078740157
              },
              {
                "duration": 0.136363750000001,
                "durationTicks": 60,
                "midi": 57,
                "name": "A3",
                "ticks": 6360,
                "time": 14.4545575,
                "velocity": 0.5039370078740157
              },
              {
                "duration": 0.13636374999999923,
                "durationTicks": 60,
                "midi": 56,
                "name": "G#3",
                "ticks": 6420,
                "time": 14.590921250000001,
                "velocity": 0.5039370078740157
              },
              {
                "duration": 0.27272750000000023,
                "durationTicks": 120,
                "midi": 54,
                "name": "F#3",
                "ticks": 6480,
                "time": 14.727285,
                "velocity": 0.5039370078740157
              },
              {
                "duration": 0.27272750000000023,
                "durationTicks": 120,
                "midi": 66,
                "name": "F#4",
                "ticks": 6600,
                "time": 15.0000125,
                "velocity": 0.5039370078740157
              },
              {
                "duration": 0.27272750000000023,
                "durationTicks": 120,
                "midi": 61,
                "name": "C#4",
                "ticks": 6720,
                "time": 15.27274,
                "velocity": 0.5039370078740157
              },
              {
                "duration": 0.27272750000000023,
                "durationTicks": 120,
                "midi": 57,
                "name": "A3",
                "ticks": 6840,
                "time": 15.5454675,
                "velocity": 0.5039370078740157
              },
              {
                "duration": 0.27272750000000023,
                "durationTicks": 120,
                "midi": 54,
                "name": "F#3",
                "ticks": 6960,
                "time": 15.818195000000001,
                "velocity": 0.5039370078740157
              },
              {
                "duration": 0.27272749999999846,
                "durationTicks": 120,
                "midi": 57,
                "name": "A3",
                "ticks": 7080,
                "time": 16.0909225,
                "velocity": 0.5039370078740157
              },
              {
                "duration": 0.136363750000001,
                "durationTicks": 60,
                "midi": 59,
                "name": "B3",
                "ticks": 7200,
                "time": 16.36365,
                "velocity": 0.5039370078740157
              },
              {
                "duration": 0.136363750000001,
                "durationTicks": 60,
                "midi": 61,
                "name": "C#4",
                "ticks": 7260,
                "time": 16.50001375,
                "velocity": 0.5039370078740157
              },
              {
                "duration": 0.13636374999999745,
                "durationTicks": 60,
                "midi": 62,
                "name": "D4",
                "ticks": 7320,
                "time": 16.636377500000002,
                "velocity": 0.5039370078740157
              },
              {
                "duration": 0.136363750000001,
                "durationTicks": 60,
                "midi": 61,
                "name": "C#4",
                "ticks": 7380,
                "time": 16.77274125,
                "velocity": 0.5039370078740157
              },
              {
                "duration": 0.136363750000001,
                "durationTicks": 60,
                "midi": 59,
                "name": "B3",
                "ticks": 7440,
                "time": 16.909105,
                "velocity": 0.5039370078740157
              },
              {
                "duration": 0.136363750000001,
                "durationTicks": 60,
                "midi": 57,
                "name": "A3",
                "ticks": 7500,
                "time": 17.04546875,
                "velocity": 0.5039370078740157
              },
              {
                "duration": 0.13636374999999745,
                "durationTicks": 60,
                "midi": 56,
                "name": "G#3",
                "ticks": 7560,
                "time": 17.181832500000002,
                "velocity": 0.5039370078740157
              },
              {
                "duration": 0.136363750000001,
                "durationTicks": 60,
                "midi": 57,
                "name": "A3",
                "ticks": 7620,
                "time": 17.31819625,
                "velocity": 0.5039370078740157
              },
              {
                "duration": 0.136363750000001,
                "durationTicks": 60,
                "midi": 59,
                "name": "B3",
                "ticks": 7680,
                "time": 17.45456,
                "velocity": 0.5039370078740157
              },
              {
                "duration": 0.13636374999999745,
                "durationTicks": 60,
                "midi": 57,
                "name": "A3",
                "ticks": 7740,
                "time": 17.59092375,
                "velocity": 0.5039370078740157
              },
              {
                "duration": 0.136363750000001,
                "durationTicks": 60,
                "midi": 56,
                "name": "G#3",
                "ticks": 7800,
                "time": 17.7272875,
                "velocity": 0.5039370078740157
              },
              {
                "duration": 0.136363750000001,
                "durationTicks": 60,
                "midi": 54,
                "name": "F#3",
                "ticks": 7860,
                "time": 17.86365125,
                "velocity": 0.5039370078740157
              },
              {
                "duration": 0.27272749999999846,
                "durationTicks": 120,
                "midi": 52,
                "name": "E3",
                "ticks": 7920,
                "time": 18.000015,
                "velocity": 0.5039370078740157
              },
              {
                "duration": 0.272727500000002,
                "durationTicks": 120,
                "midi": 47,
                "name": "B2",
                "ticks": 8040,
                "time": 18.2727425,
                "velocity": 0.5039370078740157
              },
              {
                "duration": 0.27272749999999846,
                "durationTicks": 120,
                "midi": 44,
                "name": "G#2",
                "ticks": 8160,
                "time": 18.54547,
                "velocity": 0.5039370078740157
              },
              {
                "duration": 0.5454550000000005,
                "durationTicks": 240,
                "midi": 40,
                "name": "E2",
                "ticks": 8280,
                "time": 18.8181975,
                "velocity": 0.5039370078740157
              },
              {
                "duration": 0.136363750000001,
                "durationTicks": 60,
                "midi": 57,
                "name": "A3",
                "ticks": 8700,
                "time": 19.77274375,
                "velocity": 0.5039370078740157
              },
              {
                "duration": 0.136363750000001,
                "durationTicks": 60,
                "midi": 61,
                "name": "C#4",
                "ticks": 8760,
                "time": 19.9091075,
                "velocity": 0.5039370078740157
              },
              {
                "duration": 0.13636374999999745,
                "durationTicks": 60,
                "midi": 64,
                "name": "E4",
                "ticks": 8820,
                "time": 20.045471250000002,
                "velocity": 0.5039370078740157
              },
              {
                "duration": 0.136363750000001,
                "durationTicks": 60,
                "midi": 69,
                "name": "A4",
                "ticks": 8880,
                "time": 20.181835,
                "velocity": 0.5039370078740157
              },
              {
                "duration": 0.136363750000001,
                "durationTicks": 60,
                "midi": 68,
                "name": "G#4",
                "ticks": 8940,
                "time": 20.31819875,
                "velocity": 0.5039370078740157
              },
              {
                "duration": 0.27272749999999846,
                "durationTicks": 120,
                "midi": 66,
                "name": "F#4",
                "ticks": 9000,
                "time": 20.4545625,
                "velocity": 0.5039370078740157
              },
              {
                "duration": 0.136363750000001,
                "durationTicks": 60,
                "midi": 56,
                "name": "G#3",
                "ticks": 9420,
                "time": 21.40910875,
                "velocity": 0.5039370078740157
              },
              {
                "duration": 0.13636374999999745,
                "durationTicks": 60,
                "midi": 59,
                "name": "B3",
                "ticks": 9480,
                "time": 21.545472500000002,
                "velocity": 0.5039370078740157
              },
              {
                "duration": 0.136363750000001,
                "durationTicks": 60,
                "midi": 63,
                "name": "D#4",
                "ticks": 9540,
                "time": 21.68183625,
                "velocity": 0.5039370078740157
              },
              {
                "duration": 0.136363750000001,
                "durationTicks": 60,
                "midi": 68,
                "name": "G#4",
                "ticks": 9600,
                "time": 21.8182,
                "velocity": 0.5039370078740157
              },
              {
                "duration": 0.13636374999999745,
                "durationTicks": 60,
                "midi": 66,
                "name": "F#4",
                "ticks": 9660,
                "time": 21.954563750000002,
                "velocity": 0.5039370078740157
              },
              {
                "duration": 0.272727500000002,
                "durationTicks": 120,
                "midi": 65,
                "name": "F4",
                "ticks": 9720,
                "time": 22.0909275,
                "velocity": 0.5039370078740157
              },
              {
                "duration": 0.136363750000001,
                "durationTicks": 60,
                "midi": 54,
                "name": "F#3",
                "ticks": 10140,
                "time": 23.04547375,
                "velocity": 0.5039370078740157
              },
              {
                "duration": 0.136363750000001,
                "durationTicks": 60,
                "midi": 57,
                "name": "A3",
                "ticks": 10200,
                "time": 23.1818375,
                "velocity": 0.5039370078740157
              },
              {
                "duration": 0.136363750000001,
                "durationTicks": 60,
                "midi": 61,
                "name": "C#4",
                "ticks": 10260,
                "time": 23.31820125,
                "velocity": 0.5039370078740157
              },
              {
                "duration": 0.13636374999999745,
                "durationTicks": 60,
                "midi": 66,
                "name": "F#4",
                "ticks": 10320,
                "time": 23.454565000000002,
                "velocity": 0.5039370078740157
              },
              {
                "duration": 0.136363750000001,
                "durationTicks": 60,
                "midi": 64,
                "name": "E4",
                "ticks": 10380,
                "time": 23.59092875,
                "velocity": 0.5039370078740157
              },
              {
                "duration": 0.27272749999999846,
                "durationTicks": 120,
                "midi": 62,
                "name": "D4",
                "ticks": 10440,
                "time": 23.7272925,
                "velocity": 0.5039370078740157
              },
              {
                "duration": 0.136363750000001,
                "durationTicks": 60,
                "midi": 47,
                "name": "B2",
                "ticks": 10860,
                "time": 24.68183875,
                "velocity": 0.5039370078740157
              },
              {
                "duration": 0.136363750000001,
                "durationTicks": 60,
                "midi": 50,
                "name": "D3",
                "ticks": 10920,
                "time": 24.8182025,
                "velocity": 0.5039370078740157
              },
              {
                "duration": 0.13636374999999745,
                "durationTicks": 60,
                "midi": 54,
                "name": "F#3",
                "ticks": 10980,
                "time": 24.954566250000003,
                "velocity": 0.5039370078740157
              },
              {
                "duration": 0.136363750000001,
                "durationTicks": 60,
                "midi": 59,
                "name": "B3",
                "ticks": 11040,
                "time": 25.09093,
                "velocity": 0.5039370078740157
              },
              {
                "duration": 0.136363750000001,
                "durationTicks": 60,
                "midi": 57,
                "name": "A3",
                "ticks": 11100,
                "time": 25.22729375,
                "velocity": 0.5039370078740157
              },
              {
                "duration": 0.13636374999999745,
                "durationTicks": 60,
                "midi": 56,
                "name": "G#3",
                "ticks": 11160,
                "time": 25.363657500000002,
                "velocity": 0.5039370078740157
              },
              {
                "duration": 0.136363750000001,
                "durationTicks": 60,
                "midi": 49,
                "name": "C#3",
                "ticks": 11220,
                "time": 25.50002125,
                "velocity": 0.5039370078740157
              },
              {
                "duration": 0.136363750000001,
                "durationTicks": 60,
                "midi": 53,
                "name": "F3",
                "ticks": 11280,
                "time": 25.636385,
                "velocity": 0.5039370078740157
              },
              {
                "duration": 0.136363750000001,
                "durationTicks": 60,
                "midi": 56,
                "name": "G#3",
                "ticks": 11340,
                "time": 25.77274875,
                "velocity": 0.5039370078740157
              },
              {
                "duration": 0.13636374999999745,
                "durationTicks": 60,
                "midi": 61,
                "name": "C#4",
                "ticks": 11400,
                "time": 25.909112500000003,
                "velocity": 0.5039370078740157
              },
              {
                "duration": 0.136363750000001,
                "durationTicks": 60,
                "midi": 59,
                "name": "B3",
                "ticks": 11460,
                "time": 26.04547625,
                "velocity": 0.5039370078740157
              },
              {
                "duration": 0.136363750000001,
                "durationTicks": 60,
                "midi": 57,
                "name": "A3",
                "ticks": 11520,
                "time": 26.18184,
                "velocity": 0.5039370078740157
              },
              {
                "duration": 0.13636374999999745,
                "durationTicks": 60,
                "midi": 59,
                "name": "B3",
                "ticks": 11580,
                "time": 26.318203750000002,
                "velocity": 0.5039370078740157
              },
              {
                "duration": 0.136363750000001,
                "durationTicks": 60,
                "midi": 57,
                "name": "A3",
                "ticks": 11640,
                "time": 26.4545675,
                "velocity": 0.5039370078740157
              },
              {
                "duration": 0.136363750000001,
                "durationTicks": 60,
                "midi": 56,
                "name": "G#3",
                "ticks": 11700,
                "time": 26.59093125,
                "velocity": 0.5039370078740157
              },
              {
                "duration": 0.136363750000001,
                "durationTicks": 60,
                "midi": 54,
                "name": "F#3",
                "ticks": 11760,
                "time": 26.727295,
                "velocity": 0.5039370078740157
              },
              {
                "duration": 0.13636374999999745,
                "durationTicks": 60,
                "midi": 52,
                "name": "E3",
                "ticks": 11820,
                "time": 26.863658750000003,
                "velocity": 0.5039370078740157
              },
              {
                "duration": 0.136363750000001,
                "durationTicks": 60,
                "midi": 50,
                "name": "D3",
                "ticks": 11880,
                "time": 27.0000225,
                "velocity": 0.5039370078740157
              },
              {
                "duration": 0.136363750000001,
                "durationTicks": 60,
                "midi": 52,
                "name": "E3",
                "ticks": 11940,
                "time": 27.13638625,
                "velocity": 0.5039370078740157
              },
              {
                "duration": 0.13636374999999745,
                "durationTicks": 60,
                "midi": 54,
                "name": "F#3",
                "ticks": 12000,
                "time": 27.272750000000002,
                "velocity": 0.5039370078740157
              },
              {
                "duration": 0.136363750000001,
                "durationTicks": 60,
                "midi": 52,
                "name": "E3",
                "ticks": 12060,
                "time": 27.40911375,
                "velocity": 0.5039370078740157
              },
              {
                "duration": 0.136363750000001,
                "durationTicks": 60,
                "midi": 50,
                "name": "D3",
                "ticks": 12120,
                "time": 27.5454775,
                "velocity": 0.5039370078740157
              },
              {
                "duration": 0.136363750000001,
                "durationTicks": 60,
                "midi": 49,
                "name": "C#3",
                "ticks": 12180,
                "time": 27.68184125,
                "velocity": 0.5039370078740157
              },
              {
                "duration": 0.13636374999999745,
                "durationTicks": 60,
                "midi": 47,
                "name": "B2",
                "ticks": 12240,
                "time": 27.818205000000003,
                "velocity": 0.5039370078740157
              },
              {
                "duration": 0.136363750000001,
                "durationTicks": 60,
                "midi": 50,
                "name": "D3",
                "ticks": 12300,
                "time": 27.95456875,
                "velocity": 0.5039370078740157
              },
              {
                "duration": 0.136363750000001,
                "durationTicks": 60,
                "midi": 54,
                "name": "F#3",
                "ticks": 12360,
                "time": 28.0909325,
                "velocity": 0.5039370078740157
              },
              {
                "duration": 0.136363750000001,
                "durationTicks": 60,
                "midi": 50,
                "name": "D3",
                "ticks": 12420,
                "time": 28.227296250000002,
                "velocity": 0.5039370078740157
              },
              {
                "duration": 0.13636374999999745,
                "durationTicks": 60,
                "midi": 47,
                "name": "B2",
                "ticks": 12480,
                "time": 28.363660000000003,
                "velocity": 0.5039370078740157
              },
              {
                "duration": 0.136363750000001,
                "durationTicks": 60,
                "midi": 50,
                "name": "D3",
                "ticks": 12540,
                "time": 28.50002375,
                "velocity": 0.5039370078740157
              },
              {
                "duration": 0.136363750000001,
                "durationTicks": 60,
                "midi": 44,
                "name": "G#2",
                "ticks": 12600,
                "time": 28.6363875,
                "velocity": 0.5039370078740157
              },
              {
                "duration": 0.13636374999999745,
                "durationTicks": 60,
                "midi": 47,
                "name": "B2",
                "ticks": 12660,
                "time": 28.772751250000002,
                "velocity": 0.5039370078740157
              },
              {
                "duration": 0.136363750000001,
                "durationTicks": 60,
                "midi": 50,
                "name": "D3",
                "ticks": 12720,
                "time": 28.909115,
                "velocity": 0.5039370078740157
              },
              {
                "duration": 0.136363750000001,
                "durationTicks": 60,
                "midi": 47,
                "name": "B2",
                "ticks": 12780,
                "time": 29.04547875,
                "velocity": 0.5039370078740157
              },
              {
                "duration": 0.136363750000001,
                "durationTicks": 60,
                "midi": 44,
                "name": "G#2",
                "ticks": 12840,
                "time": 29.181842500000002,
                "velocity": 0.5039370078740157
              },
              {
                "duration": 0.13636374999999745,
                "durationTicks": 60,
                "midi": 47,
                "name": "B2",
                "ticks": 12900,
                "time": 29.318206250000003,
                "velocity": 0.5039370078740157
              },
              {
                "duration": 0.272727500000002,
                "durationTicks": 120,
                "midi": 41,
                "name": "F2",
                "ticks": 12960,
                "time": 29.45457,
                "velocity": 0.5039370078740157
              },
              {
                "duration": 0.27272749999999846,
                "durationTicks": 120,
                "midi": 44,
                "name": "G#2",
                "ticks": 13080,
                "time": 29.727297500000002,
                "velocity": 0.5039370078740157
              },
              {
                "duration": 0.272727500000002,
                "durationTicks": 120,
                "midi": 41,
                "name": "F2",
                "ticks": 13200,
                "time": 30.000025,
                "velocity": 0.5039370078740157
              },
              {
                "duration": 0.27272749999999846,
                "durationTicks": 120,
                "midi": 37,
                "name": "C#2",
                "ticks": 13320,
                "time": 30.272752500000003,
                "velocity": 0.5039370078740157
              },
              {
                "duration": 0.27272749999999846,
                "durationTicks": 120,
                "midi": 39,
                "name": "D#2",
                "ticks": 13440,
                "time": 30.54548,
                "velocity": 0.5039370078740157
              },
              {
                "duration": 0.272727500000002,
                "durationTicks": 120,
                "midi": 41,
                "name": "F2",
                "ticks": 13560,
                "time": 30.8182075,
                "velocity": 0.5039370078740157
              },
              {
                "duration": 0.27272749999999846,
                "durationTicks": 120,
                "midi": 42,
                "name": "F#2",
                "ticks": 13680,
                "time": 31.090935,
                "velocity": 0.5039370078740157
              },
              {
                "duration": 0.272727500000002,
                "durationTicks": 120,
                "midi": 54,
                "name": "F#3",
                "ticks": 13800,
                "time": 31.3636625,
                "velocity": 0.5039370078740157
              },
              {
                "duration": 0.27272749999999846,
                "durationTicks": 120,
                "midi": 51,
                "name": "D#3",
                "ticks": 13920,
                "time": 31.636390000000002,
                "velocity": 0.5039370078740157
              },
              {
                "duration": 0.272727500000002,
                "durationTicks": 120,
                "midi": 56,
                "name": "G#3",
                "ticks": 14040,
                "time": 31.9091175,
                "velocity": 0.5039370078740157
              },
              {
                "duration": 0.272727500000002,
                "durationTicks": 120,
                "midi": 54,
                "name": "F#3",
                "ticks": 14160,
                "time": 32.181845,
                "velocity": 0.5039370078740157
              },
              {
                "duration": 0.2727274999999949,
                "durationTicks": 120,
                "midi": 56,
                "name": "G#3",
                "ticks": 14280,
                "time": 32.454572500000005,
                "velocity": 0.5039370078740157
              },
              {
                "duration": 0.0681818750000005,
                "durationTicks": 30,
                "midi": 49,
                "name": "C#3",
                "ticks": 14400,
                "time": 32.7273,
                "velocity": 0.5039370078740157
              },
              {
                "duration": 0.0681818750000005,
                "durationTicks": 30,
                "midi": 48,
                "name": "C3",
                "ticks": 14430,
                "time": 32.795481875,
                "velocity": 0.4409448818897638
              },
              {
                "duration": 0.3863639583333338,
                "durationTicks": 170,
                "midi": 49,
                "name": "C#3",
                "ticks": 14460,
                "time": 32.86366375,
                "velocity": 0.5039370078740157
              },
              {
                "duration": 0.2727274999999949,
                "durationTicks": 120,
                "midi": 49,
                "name": "C#3",
                "ticks": 14640,
                "time": 33.272755000000004,
                "velocity": 0.5039370078740157
              },
              {
                "duration": 0.0681818750000005,
                "durationTicks": 30,
                "midi": 49,
                "name": "C#3",
                "ticks": 14760,
                "time": 33.5454825,
                "velocity": 0.5039370078740157
              },
              {
                "duration": 0.0681818750000005,
                "durationTicks": 30,
                "midi": 48,
                "name": "C3",
                "ticks": 14790,
                "time": 33.613664375,
                "velocity": 0.4409448818897638
              },
              {
                "duration": 0.3863639583333338,
                "durationTicks": 170,
                "midi": 49,
                "name": "C#3",
                "ticks": 14820,
                "time": 33.68184625,
                "velocity": 0.5039370078740157
              },
              {
                "duration": 0.272727500000002,
                "durationTicks": 120,
                "midi": 49,
                "name": "C#3",
                "ticks": 15000,
                "time": 34.0909375,
                "velocity": 0.5039370078740157
              },
              {
                "duration": 0.0909091666666626,
                "durationTicks": 40,
                "midi": 51,
                "name": "D#3",
                "ticks": 15120,
                "time": 34.363665000000005,
                "velocity": 0.5039370078740157
              },
              {
                "duration": 0.0909091666666697,
                "durationTicks": 40,
                "midi": 49,
                "name": "C#3",
                "ticks": 15160,
                "time": 34.45457416666667,
                "velocity": 0.4409448818897638
              },
              {
                "duration": 0.10000008333332744,
                "durationTicks": 44,
                "midi": 51,
                "name": "D#3",
                "ticks": 15200,
                "time": 34.54548333333334,
                "velocity": 0.4409448818897638
              },
              {
                "duration": 0.10000008333333454,
                "durationTicks": 44,
                "midi": 52,
                "name": "E3",
                "ticks": 15240,
                "time": 34.6363925,
                "velocity": 0.44881889763779526
              },
              {
                "duration": 0.10000008333333454,
                "durationTicks": 44,
                "midi": 51,
                "name": "D#3",
                "ticks": 15280,
                "time": 34.72730166666667,
                "velocity": 0.44881889763779526
              },
              {
                "duration": 0.10000008333332744,
                "durationTicks": 44,
                "midi": 52,
                "name": "E3",
                "ticks": 15320,
                "time": 34.81821083333334,
                "velocity": 0.4566929133858268
              },
              {
                "duration": 0.10000008333333454,
                "durationTicks": 44,
                "midi": 51,
                "name": "D#3",
                "ticks": 15360,
                "time": 34.90912,
                "velocity": 0.4566929133858268
              },
              {
                "duration": 0.10000008333332744,
                "durationTicks": 44,
                "midi": 52,
                "name": "E3",
                "ticks": 15400,
                "time": 35.00002916666667,
                "velocity": 0.4566929133858268
              },
              {
                "duration": 0.10000008333333454,
                "durationTicks": 44,
                "midi": 51,
                "name": "D#3",
                "ticks": 15440,
                "time": 35.090938333333334,
                "velocity": 0.4645669291338583
              },
              {
                "duration": 0.10000008333333454,
                "durationTicks": 44,
                "midi": 52,
                "name": "E3",
                "ticks": 15480,
                "time": 35.1818475,
                "velocity": 0.4645669291338583
              },
              {
                "duration": 0.10000008333332744,
                "durationTicks": 44,
                "midi": 51,
                "name": "D#3",
                "ticks": 15520,
                "time": 35.27275666666667,
                "velocity": 0.47244094488188976
              },
              {
                "duration": 0.10000008333333454,
                "durationTicks": 44,
                "midi": 52,
                "name": "E3",
                "ticks": 15560,
                "time": 35.363665833333336,
                "velocity": 0.47244094488188976
              },
              {
                "duration": 0.10000008333334165,
                "durationTicks": 44,
                "midi": 51,
                "name": "D#3",
                "ticks": 15600,
                "time": 35.454575,
                "velocity": 0.48031496062992124
              },
              {
                "duration": 0.10000008333332744,
                "durationTicks": 44,
                "midi": 52,
                "name": "E3",
                "ticks": 15640,
                "time": 35.54548416666667,
                "velocity": 0.48031496062992124
              },
              {
                "duration": 0.10000008333333454,
                "durationTicks": 44,
                "midi": 51,
                "name": "D#3",
                "ticks": 15680,
                "time": 35.63639333333333,
                "velocity": 0.4881889763779528
              },
              {
                "duration": 0.10000008333333454,
                "durationTicks": 44,
                "midi": 52,
                "name": "E3",
                "ticks": 15720,
                "time": 35.7273025,
                "velocity": 0.4881889763779528
              },
              {
                "duration": 0.10000008333332744,
                "durationTicks": 44,
                "midi": 51,
                "name": "D#3",
                "ticks": 15760,
                "time": 35.81821166666667,
                "velocity": 0.49606299212598426
              },
              {
                "duration": 0.10000008333333454,
                "durationTicks": 44,
                "midi": 52,
                "name": "E3",
                "ticks": 15800,
                "time": 35.90912083333333,
                "velocity": 0.49606299212598426
              },
              {
                "duration": 0.136363750000001,
                "durationTicks": 60,
                "midi": 51,
                "name": "D#3",
                "ticks": 15840,
                "time": 36.00003,
                "velocity": 0.5039370078740157
              },
              {
                "duration": 0.136363750000001,
                "durationTicks": 60,
                "midi": 49,
                "name": "C#3",
                "ticks": 15900,
                "time": 36.13639375,
                "velocity": 0.5039370078740157
              },
              {
                "duration": 0.1363637499999939,
                "durationTicks": 60,
                "midi": 48,
                "name": "C3",
                "ticks": 15960,
                "time": 36.272757500000004,
                "velocity": 0.5039370078740157
              },
              {
                "duration": 0.136363750000001,
                "durationTicks": 60,
                "midi": 49,
                "name": "C#3",
                "ticks": 16020,
                "time": 36.40912125,
                "velocity": 0.5039370078740157
              },
              {
                "duration": 0.136363750000001,
                "durationTicks": 60,
                "midi": 51,
                "name": "D#3",
                "ticks": 16080,
                "time": 36.545485,
                "velocity": 0.5039370078740157
              },
              {
                "duration": 0.136363750000001,
                "durationTicks": 60,
                "midi": 52,
                "name": "E3",
                "ticks": 16140,
                "time": 36.68184875,
                "velocity": 0.5039370078740157
              },
              {
                "duration": 0.136363750000001,
                "durationTicks": 60,
                "midi": 54,
                "name": "F#3",
                "ticks": 16200,
                "time": 36.8182125,
                "velocity": 0.5039370078740157
              },
              {
                "duration": 0.136363750000001,
                "durationTicks": 60,
                "midi": 52,
                "name": "E3",
                "ticks": 16260,
                "time": 36.95457625,
                "velocity": 0.5039370078740157
              },
              {
                "duration": 0.136363750000001,
                "durationTicks": 60,
                "midi": 54,
                "name": "F#3",
                "ticks": 16320,
                "time": 37.09094,
                "velocity": 0.5039370078740157
              },
              {
                "duration": 0.1363637499999939,
                "durationTicks": 60,
                "midi": 57,
                "name": "A3",
                "ticks": 16380,
                "time": 37.227303750000004,
                "velocity": 0.5039370078740157
              },
              {
                "duration": 0.136363750000001,
                "durationTicks": 60,
                "midi": 56,
                "name": "G#3",
                "ticks": 16440,
                "time": 37.3636675,
                "velocity": 0.5039370078740157
              },
              {
                "duration": 0.136363750000001,
                "durationTicks": 60,
                "midi": 54,
                "name": "F#3",
                "ticks": 16500,
                "time": 37.50003125,
                "velocity": 0.5039370078740157
              },
              {
                "duration": 0.136363750000001,
                "durationTicks": 60,
                "midi": 52,
                "name": "E3",
                "ticks": 16560,
                "time": 37.636395,
                "velocity": 0.5039370078740157
              },
              {
                "duration": 0.136363750000001,
                "durationTicks": 60,
                "midi": 49,
                "name": "C#3",
                "ticks": 16620,
                "time": 37.77275875,
                "velocity": 0.5039370078740157
              },
              {
                "duration": 0.136363750000001,
                "durationTicks": 60,
                "midi": 52,
                "name": "E3",
                "ticks": 16680,
                "time": 37.9091225,
                "velocity": 0.5039370078740157
              },
              {
                "duration": 0.136363750000001,
                "durationTicks": 60,
                "midi": 56,
                "name": "G#3",
                "ticks": 16740,
                "time": 38.04548625,
                "velocity": 0.5039370078740157
              },
              {
                "duration": 0.1363637499999939,
                "durationTicks": 60,
                "midi": 61,
                "name": "C#4",
                "ticks": 16800,
                "time": 38.181850000000004,
                "velocity": 0.5039370078740157
              },
              {
                "duration": 0.136363750000001,
                "durationTicks": 60,
                "midi": 56,
                "name": "G#3",
                "ticks": 16860,
                "time": 38.31821375,
                "velocity": 0.5039370078740157
              },
              {
                "duration": 0.136363750000001,
                "durationTicks": 60,
                "midi": 52,
                "name": "E3",
                "ticks": 16920,
                "time": 38.4545775,
                "velocity": 0.5039370078740157
              },
              {
                "duration": 0.136363750000001,
                "durationTicks": 60,
                "midi": 49,
                "name": "C#3",
                "ticks": 16980,
                "time": 38.59094125,
                "velocity": 0.5039370078740157
              },
              {
                "duration": 0.136363750000001,
                "durationTicks": 60,
                "midi": 52,
                "name": "E3",
                "ticks": 17040,
                "time": 38.727305,
                "velocity": 0.5039370078740157
              },
              {
                "duration": 0.136363750000001,
                "durationTicks": 60,
                "midi": 56,
                "name": "G#3",
                "ticks": 17100,
                "time": 38.86366875,
                "velocity": 0.5039370078740157
              },
              {
                "duration": 0.136363750000001,
                "durationTicks": 60,
                "midi": 61,
                "name": "C#4",
                "ticks": 17160,
                "time": 39.0000325,
                "velocity": 0.5039370078740157
              },
              {
                "duration": 0.136363750000001,
                "durationTicks": 60,
                "midi": 59,
                "name": "B3",
                "ticks": 17220,
                "time": 39.136396250000004,
                "velocity": 0.5039370078740157
              },
              {
                "duration": 0.1363637499999939,
                "durationTicks": 60,
                "midi": 58,
                "name": "A#3",
                "ticks": 17280,
                "time": 39.272760000000005,
                "velocity": 0.5039370078740157
              },
              {
                "duration": 0.136363750000001,
                "durationTicks": 60,
                "midi": 54,
                "name": "F#3",
                "ticks": 17340,
                "time": 39.40912375,
                "velocity": 0.5039370078740157
              },
              {
                "duration": 0.136363750000001,
                "durationTicks": 60,
                "midi": 58,
                "name": "A#3",
                "ticks": 17400,
                "time": 39.5454875,
                "velocity": 0.5039370078740157
              },
              {
                "duration": 0.136363750000001,
                "durationTicks": 60,
                "midi": 61,
                "name": "C#4",
                "ticks": 17460,
                "time": 39.68185125,
                "velocity": 0.5039370078740157
              },
              {
                "duration": 0.136363750000001,
                "durationTicks": 60,
                "midi": 66,
                "name": "F#4",
                "ticks": 17520,
                "time": 39.818215,
                "velocity": 0.5039370078740157
              },
              {
                "duration": 0.136363750000001,
                "durationTicks": 60,
                "midi": 61,
                "name": "C#4",
                "ticks": 17580,
                "time": 39.95457875,
                "velocity": 0.5039370078740157
              },
              {
                "duration": 0.136363750000001,
                "durationTicks": 60,
                "midi": 58,
                "name": "A#3",
                "ticks": 17640,
                "time": 40.090942500000004,
                "velocity": 0.5039370078740157
              },
              {
                "duration": 0.1363637499999939,
                "durationTicks": 60,
                "midi": 54,
                "name": "F#3",
                "ticks": 17700,
                "time": 40.227306250000005,
                "velocity": 0.5039370078740157
              },
              {
                "duration": 0.136363750000001,
                "durationTicks": 60,
                "midi": 58,
                "name": "A#3",
                "ticks": 17760,
                "time": 40.36367,
                "velocity": 0.5039370078740157
              },
              {
                "duration": 0.136363750000001,
                "durationTicks": 60,
                "midi": 61,
                "name": "C#4",
                "ticks": 17820,
                "time": 40.50003375,
                "velocity": 0.5039370078740157
              },
              {
                "duration": 0.136363750000001,
                "durationTicks": 60,
                "midi": 66,
                "name": "F#4",
                "ticks": 17880,
                "time": 40.6363975,
                "velocity": 0.5039370078740157
              },
              {
                "duration": 0.136363750000001,
                "durationTicks": 60,
                "midi": 64,
                "name": "E4",
                "ticks": 17940,
                "time": 40.77276125,
                "velocity": 0.5039370078740157
              },
              {
                "duration": 0.136363750000001,
                "durationTicks": 60,
                "midi": 63,
                "name": "D#4",
                "ticks": 18000,
                "time": 40.909125,
                "velocity": 0.5039370078740157
              },
              {
                "duration": 0.136363750000001,
                "durationTicks": 60,
                "midi": 47,
                "name": "B2",
                "ticks": 18060,
                "time": 41.045488750000004,
                "velocity": 0.5039370078740157
              },
              {
                "duration": 0.1363637499999939,
                "durationTicks": 60,
                "midi": 50,
                "name": "D3",
                "ticks": 18120,
                "time": 41.181852500000005,
                "velocity": 0.5039370078740157
              },
              {
                "duration": 0.136363750000001,
                "durationTicks": 60,
                "midi": 54,
                "name": "F#3",
                "ticks": 18180,
                "time": 41.31821625,
                "velocity": 0.5039370078740157
              },
              {
                "duration": 0.136363750000001,
                "durationTicks": 60,
                "midi": 59,
                "name": "B3",
                "ticks": 18240,
                "time": 41.45458,
                "velocity": 0.5039370078740157
              },
              {
                "duration": 0.136363750000001,
                "durationTicks": 60,
                "midi": 54,
                "name": "F#3",
                "ticks": 18300,
                "time": 41.59094375,
                "velocity": 0.5039370078740157
              },
              {
                "duration": 0.136363750000001,
                "durationTicks": 60,
                "midi": 50,
                "name": "D3",
                "ticks": 18360,
                "time": 41.7273075,
                "velocity": 0.5039370078740157
              },
              {
                "duration": 0.136363750000001,
                "durationTicks": 60,
                "midi": 47,
                "name": "B2",
                "ticks": 18420,
                "time": 41.86367125,
                "velocity": 0.5039370078740157
              },
              {
                "duration": 0.136363750000001,
                "durationTicks": 60,
                "midi": 50,
                "name": "D3",
                "ticks": 18480,
                "time": 42.000035000000004,
                "velocity": 0.5039370078740157
              },
              {
                "duration": 0.1363637499999939,
                "durationTicks": 60,
                "midi": 54,
                "name": "F#3",
                "ticks": 18540,
                "time": 42.136398750000005,
                "velocity": 0.5039370078740157
              },
              {
                "duration": 0.136363750000001,
                "durationTicks": 60,
                "midi": 59,
                "name": "B3",
                "ticks": 18600,
                "time": 42.2727625,
                "velocity": 0.5039370078740157
              },
              {
                "duration": 0.136363750000001,
                "durationTicks": 60,
                "midi": 57,
                "name": "A3",
                "ticks": 18660,
                "time": 42.40912625,
                "velocity": 0.5039370078740157
              },
              {
                "duration": 0.136363750000001,
                "durationTicks": 60,
                "midi": 56,
                "name": "G#3",
                "ticks": 18720,
                "time": 42.54549,
                "velocity": 0.5039370078740157
              },
              {
                "duration": 0.136363750000001,
                "durationTicks": 60,
                "midi": 52,
                "name": "E3",
                "ticks": 18780,
                "time": 42.68185375,
                "velocity": 0.5039370078740157
              },
              {
                "duration": 0.136363750000001,
                "durationTicks": 60,
                "midi": 56,
                "name": "G#3",
                "ticks": 18840,
                "time": 42.8182175,
                "velocity": 0.5039370078740157
              },
              {
                "duration": 0.136363750000001,
                "durationTicks": 60,
                "midi": 59,
                "name": "B3",
                "ticks": 18900,
                "time": 42.954581250000004,
                "velocity": 0.5039370078740157
              },
              {
                "duration": 0.1363637499999939,
                "durationTicks": 60,
                "midi": 64,
                "name": "E4",
                "ticks": 18960,
                "time": 43.090945000000005,
                "velocity": 0.5039370078740157
              },
              {
                "duration": 0.136363750000001,
                "durationTicks": 60,
                "midi": 59,
                "name": "B3",
                "ticks": 19020,
                "time": 43.22730875,
                "velocity": 0.5039370078740157
              },
              {
                "duration": 0.136363750000001,
                "durationTicks": 60,
                "midi": 56,
                "name": "G#3",
                "ticks": 19080,
                "time": 43.3636725,
                "velocity": 0.5039370078740157
              },
              {
                "duration": 0.136363750000001,
                "durationTicks": 60,
                "midi": 52,
                "name": "E3",
                "ticks": 19140,
                "time": 43.50003625,
                "velocity": 0.5039370078740157
              },
              {
                "duration": 0.136363750000001,
                "durationTicks": 60,
                "midi": 56,
                "name": "G#3",
                "ticks": 19200,
                "time": 43.6364,
                "velocity": 0.5039370078740157
              },
              {
                "duration": 0.136363750000001,
                "durationTicks": 60,
                "midi": 59,
                "name": "B3",
                "ticks": 19260,
                "time": 43.77276375,
                "velocity": 0.5039370078740157
              },
              {
                "duration": 0.136363750000001,
                "durationTicks": 60,
                "midi": 64,
                "name": "E4",
                "ticks": 19320,
                "time": 43.909127500000004,
                "velocity": 0.5039370078740157
              },
              {
                "duration": 0.1363637499999939,
                "durationTicks": 60,
                "midi": 62,
                "name": "D4",
                "ticks": 19380,
                "time": 44.045491250000005,
                "velocity": 0.5039370078740157
              },
              {
                "duration": 0.136363750000001,
                "durationTicks": 60,
                "midi": 61,
                "name": "C#4",
                "ticks": 19440,
                "time": 44.181855,
                "velocity": 0.5039370078740157
              },
              {
                "duration": 0.136363750000001,
                "durationTicks": 60,
                "midi": 62,
                "name": "D4",
                "ticks": 19500,
                "time": 44.31821875,
                "velocity": 0.5039370078740157
              },
              {
                "duration": 0.136363750000001,
                "durationTicks": 60,
                "midi": 64,
                "name": "E4",
                "ticks": 19560,
                "time": 44.4545825,
                "velocity": 0.5039370078740157
              },
              {
                "duration": 0.136363750000001,
                "durationTicks": 60,
                "midi": 62,
                "name": "D4",
                "ticks": 19620,
                "time": 44.59094625,
                "velocity": 0.5039370078740157
              },
              {
                "duration": 0.136363750000001,
                "durationTicks": 60,
                "midi": 61,
                "name": "C#4",
                "ticks": 19680,
                "time": 44.72731,
                "velocity": 0.5039370078740157
              },
              {
                "duration": 0.136363750000001,
                "durationTicks": 60,
                "midi": 59,
                "name": "B3",
                "ticks": 19740,
                "time": 44.863673750000004,
                "velocity": 0.5039370078740157
              },
              {
                "duration": 0.1363637499999939,
                "durationTicks": 60,
                "midi": 57,
                "name": "A3",
                "ticks": 19800,
                "time": 45.000037500000005,
                "velocity": 0.5039370078740157
              },
              {
                "duration": 0.136363750000001,
                "durationTicks": 60,
                "midi": 59,
                "name": "B3",
                "ticks": 19860,
                "time": 45.13640125,
                "velocity": 0.5039370078740157
              },
              {
                "duration": 0.136363750000001,
                "durationTicks": 60,
                "midi": 61,
                "name": "C#4",
                "ticks": 19920,
                "time": 45.272765,
                "velocity": 0.5039370078740157
              },
              {
                "duration": 0.136363750000001,
                "durationTicks": 60,
                "midi": 59,
                "name": "B3",
                "ticks": 19980,
                "time": 45.40912875,
                "velocity": 0.5039370078740157
              },
              {
                "duration": 0.136363750000001,
                "durationTicks": 60,
                "midi": 57,
                "name": "A3",
                "ticks": 20040,
                "time": 45.5454925,
                "velocity": 0.5039370078740157
              },
              {
                "duration": 0.136363750000001,
                "durationTicks": 60,
                "midi": 56,
                "name": "G#3",
                "ticks": 20100,
                "time": 45.68185625,
                "velocity": 0.5039370078740157
              },
              {
                "duration": 0.2727274999999949,
                "durationTicks": 120,
                "midi": 54,
                "name": "F#3",
                "ticks": 20160,
                "time": 45.818220000000004,
                "velocity": 0.5039370078740157
              },
              {
                "duration": 0.272727500000002,
                "durationTicks": 120,
                "midi": 57,
                "name": "A3",
                "ticks": 20280,
                "time": 46.0909475,
                "velocity": 0.5039370078740157
              },
              {
                "duration": 0.545455000000004,
                "durationTicks": 240,
                "midi": 63,
                "name": "D#4",
                "ticks": 20400,
                "time": 46.363675,
                "velocity": 0.5039370078740157
              },
              {
                "duration": 0.2727274999999949,
                "durationTicks": 120,
                "midi": 61,
                "name": "C#4",
                "ticks": 20640,
                "time": 46.909130000000005,
                "velocity": 0.5039370078740157
              },
              {
                "duration": 0.272727500000002,
                "durationTicks": 120,
                "midi": 59,
                "name": "B3",
                "ticks": 20760,
                "time": 47.1818575,
                "velocity": 0.5039370078740157
              },
              {
                "duration": 0.136363750000001,
                "durationTicks": 60,
                "midi": 64,
                "name": "E4",
                "ticks": 20880,
                "time": 47.454585,
                "velocity": 0.5039370078740157
              },
              {
                "duration": 0.136363750000001,
                "durationTicks": 60,
                "midi": 66,
                "name": "F#4",
                "ticks": 20940,
                "time": 47.59094875,
                "velocity": 0.5039370078740157
              },
              {
                "duration": 0.136363750000001,
                "durationTicks": 60,
                "midi": 67,
                "name": "G4",
                "ticks": 21000,
                "time": 47.727312500000004,
                "velocity": 0.5039370078740157
              },
              {
                "duration": 0.1363637499999939,
                "durationTicks": 60,
                "midi": 66,
                "name": "F#4",
                "ticks": 21060,
                "time": 47.863676250000005,
                "velocity": 0.5039370078740157
              },
              {
                "duration": 0.136363750000001,
                "durationTicks": 60,
                "midi": 64,
                "name": "E4",
                "ticks": 21120,
                "time": 48.00004,
                "velocity": 0.5039370078740157
              },
              {
                "duration": 0.136363750000001,
                "durationTicks": 60,
                "midi": 62,
                "name": "D4",
                "ticks": 21180,
                "time": 48.13640375,
                "velocity": 0.5039370078740157
              },
              {
                "duration": 0.136363750000001,
                "durationTicks": 60,
                "midi": 61,
                "name": "C#4",
                "ticks": 21240,
                "time": 48.2727675,
                "velocity": 0.5039370078740157
              },
              {
                "duration": 0.136363750000001,
                "durationTicks": 60,
                "midi": 62,
                "name": "D4",
                "ticks": 21300,
                "time": 48.40913125,
                "velocity": 0.5039370078740157
              },
              {
                "duration": 0.136363750000001,
                "durationTicks": 60,
                "midi": 64,
                "name": "E4",
                "ticks": 21360,
                "time": 48.545495,
                "velocity": 0.5039370078740157
              },
              {
                "duration": 0.136363750000001,
                "durationTicks": 60,
                "midi": 62,
                "name": "D4",
                "ticks": 21420,
                "time": 48.68185875,
                "velocity": 0.5039370078740157
              },
              {
                "duration": 0.136363750000001,
                "durationTicks": 60,
                "midi": 61,
                "name": "C#4",
                "ticks": 21480,
                "time": 48.818222500000005,
                "velocity": 0.5039370078740157
              },
              {
                "duration": 0.1363637499999939,
                "durationTicks": 60,
                "midi": 59,
                "name": "B3",
                "ticks": 21540,
                "time": 48.954586250000006,
                "velocity": 0.5039370078740157
              },
              {
                "duration": 0.272727500000002,
                "durationTicks": 120,
                "midi": 57,
                "name": "A3",
                "ticks": 21600,
                "time": 49.09095,
                "velocity": 0.5039370078740157
              },
              {
                "duration": 0.272727500000002,
                "durationTicks": 120,
                "midi": 52,
                "name": "E3",
                "ticks": 21720,
                "time": 49.3636775,
                "velocity": 0.5039370078740157
              },
              {
                "duration": 0.272727500000002,
                "durationTicks": 120,
                "midi": 49,
                "name": "C#3",
                "ticks": 21840,
                "time": 49.636405,
                "velocity": 0.5039370078740157
              },
              {
                "duration": 0.5454549999999969,
                "durationTicks": 240,
                "midi": 45,
                "name": "A2",
                "ticks": 21960,
                "time": 49.909132500000005,
                "velocity": 0.5039370078740157
              },
              {
                "duration": 0.1363637499999939,
                "durationTicks": 60,
                "midi": 50,
                "name": "D3",
                "ticks": 22380,
                "time": 50.863678750000005,
                "velocity": 0.5039370078740157
              },
              {
                "duration": 0.136363750000001,
                "durationTicks": 60,
                "midi": 54,
                "name": "F#3",
                "ticks": 22440,
                "time": 51.0000425,
                "velocity": 0.5039370078740157
              },
              {
                "duration": 0.136363750000001,
                "durationTicks": 60,
                "midi": 57,
                "name": "A3",
                "ticks": 22500,
                "time": 51.13640625,
                "velocity": 0.5039370078740157
              },
              {
                "duration": 0.136363750000001,
                "durationTicks": 60,
                "midi": 62,
                "name": "D4",
                "ticks": 22560,
                "time": 51.27277,
                "velocity": 0.5039370078740157
              },
              {
                "duration": 0.136363750000001,
                "durationTicks": 60,
                "midi": 61,
                "name": "C#4",
                "ticks": 22620,
                "time": 51.40913375,
                "velocity": 0.5039370078740157
              },
              {
                "duration": 0.272727500000002,
                "durationTicks": 120,
                "midi": 59,
                "name": "B3",
                "ticks": 22680,
                "time": 51.5454975,
                "velocity": 0.5039370078740157
              },
              {
                "duration": 0.136363750000001,
                "durationTicks": 60,
                "midi": 49,
                "name": "C#3",
                "ticks": 23100,
                "time": 52.50004375,
                "velocity": 0.5039370078740157
              },
              {
                "duration": 0.136363750000001,
                "durationTicks": 60,
                "midi": 52,
                "name": "E3",
                "ticks": 23160,
                "time": 52.636407500000004,
                "velocity": 0.5039370078740157
              },
              {
                "duration": 0.1363637499999939,
                "durationTicks": 60,
                "midi": 56,
                "name": "G#3",
                "ticks": 23220,
                "time": 52.772771250000005,
                "velocity": 0.5039370078740157
              },
              {
                "duration": 0.136363750000001,
                "durationTicks": 60,
                "midi": 61,
                "name": "C#4",
                "ticks": 23280,
                "time": 52.909135,
                "velocity": 0.5039370078740157
              },
              {
                "duration": 0.136363750000001,
                "durationTicks": 60,
                "midi": 59,
                "name": "B3",
                "ticks": 23340,
                "time": 53.04549875,
                "velocity": 0.5039370078740157
              },
              {
                "duration": 0.272727500000002,
                "durationTicks": 120,
                "midi": 57,
                "name": "A3",
                "ticks": 23400,
                "time": 53.1818625,
                "velocity": 0.5039370078740157
              },
              {
                "duration": 0.136363750000001,
                "durationTicks": 60,
                "midi": 47,
                "name": "B2",
                "ticks": 23820,
                "time": 54.13640875,
                "velocity": 0.5039370078740157
              },
              {
                "duration": 0.136363750000001,
                "durationTicks": 60,
                "midi": 50,
                "name": "D3",
                "ticks": 23880,
                "time": 54.2727725,
                "velocity": 0.5039370078740157
              },
              {
                "duration": 0.136363750000001,
                "durationTicks": 60,
                "midi": 54,
                "name": "F#3",
                "ticks": 23940,
                "time": 54.40913625,
                "velocity": 0.5039370078740157
              },
              {
                "duration": 0.136363750000001,
                "durationTicks": 60,
                "midi": 59,
                "name": "B3",
                "ticks": 24000,
                "time": 54.545500000000004,
                "velocity": 0.5039370078740157
              },
              {
                "duration": 0.1363637499999939,
                "durationTicks": 60,
                "midi": 57,
                "name": "A3",
                "ticks": 24060,
                "time": 54.681863750000005,
                "velocity": 0.5039370078740157
              },
              {
                "duration": 0.272727500000002,
                "durationTicks": 120,
                "midi": 56,
                "name": "G#3",
                "ticks": 24120,
                "time": 54.8182275,
                "velocity": 0.5039370078740157
              },
              {
                "duration": 0.0681818750000005,
                "durationTicks": 30,
                "midi": 45,
                "name": "A2",
                "ticks": 24480,
                "time": 55.636410000000005,
                "velocity": 0.5039370078740157
              },
              {
                "duration": 0.0681818749999934,
                "durationTicks": 30,
                "midi": 44,
                "name": "G#2",
                "ticks": 24510,
                "time": 55.704591875000006,
                "velocity": 0.4409448818897638
              },
              {
                "duration": 0.3863639583333338,
                "durationTicks": 170,
                "midi": 45,
                "name": "A2",
                "ticks": 24540,
                "time": 55.77277375,
                "velocity": 0.5039370078740157
              },
              {
                "duration": 0.272727500000002,
                "durationTicks": 120,
                "midi": 45,
                "name": "A2",
                "ticks": 24720,
                "time": 56.181865,
                "velocity": 0.5039370078740157
              },
              {
                "duration": 0.0681818750000005,
                "durationTicks": 30,
                "midi": 45,
                "name": "A2",
                "ticks": 24840,
                "time": 56.454592500000004,
                "velocity": 0.5039370078740157
              },
              {
                "duration": 0.0681818750000005,
                "durationTicks": 30,
                "midi": 44,
                "name": "G#2",
                "ticks": 24870,
                "time": 56.522774375000004,
                "velocity": 0.4409448818897638
              },
              {
                "duration": 0.3863639583333267,
                "durationTicks": 170,
                "midi": 45,
                "name": "A2",
                "ticks": 24900,
                "time": 56.590956250000005,
                "velocity": 0.5039370078740157
              },
              {
                "duration": 0.272727500000002,
                "durationTicks": 120,
                "midi": 45,
                "name": "A2",
                "ticks": 25080,
                "time": 57.0000475,
                "velocity": 0.5039370078740157
              },
              {
                "duration": 0.0909091666666697,
                "durationTicks": 40,
                "midi": 47,
                "name": "B2",
                "ticks": 25200,
                "time": 57.272775,
                "velocity": 0.5039370078740157
              },
              {
                "duration": 0.0909091666666626,
                "durationTicks": 40,
                "midi": 45,
                "name": "A2",
                "ticks": 25240,
                "time": 57.36368416666667,
                "velocity": 0.4409448818897638
              },
              {
                "duration": 0.0909091666666697,
                "durationTicks": 40,
                "midi": 47,
                "name": "B2",
                "ticks": 25280,
                "time": 57.454593333333335,
                "velocity": 0.4409448818897638
              },
              {
                "duration": 0.0909091666666697,
                "durationTicks": 40,
                "midi": 49,
                "name": "C#3",
                "ticks": 25320,
                "time": 57.545502500000005,
                "velocity": 0.44881889763779526
              },
              {
                "duration": 0.0909091666666555,
                "durationTicks": 40,
                "midi": 47,
                "name": "B2",
                "ticks": 25360,
                "time": 57.636411666666675,
                "velocity": 0.44881889763779526
              },
              {
                "duration": 0.0909091666666697,
                "durationTicks": 40,
                "midi": 49,
                "name": "C#3",
                "ticks": 25400,
                "time": 57.72732083333333,
                "velocity": 0.4566929133858268
              },
              {
                "duration": 0.0909091666666697,
                "durationTicks": 40,
                "midi": 47,
                "name": "B2",
                "ticks": 25440,
                "time": 57.81823,
                "velocity": 0.4566929133858268
              },
              {
                "duration": 0.0909091666666626,
                "durationTicks": 40,
                "midi": 49,
                "name": "C#3",
                "ticks": 25480,
                "time": 57.90913916666667,
                "velocity": 0.4645669291338583
              },
              {
                "duration": 0.0909091666666697,
                "durationTicks": 40,
                "midi": 47,
                "name": "B2",
                "ticks": 25520,
                "time": 58.00004833333333,
                "velocity": 0.4645669291338583
              },
              {
                "duration": 0.0909091666666697,
                "durationTicks": 40,
                "midi": 49,
                "name": "C#3",
                "ticks": 25560,
                "time": 58.0909575,
                "velocity": 0.47244094488188976
              },
              {
                "duration": 0.0909091666666626,
                "durationTicks": 40,
                "midi": 47,
                "name": "B2",
                "ticks": 25600,
                "time": 58.18186666666667,
                "velocity": 0.47244094488188976
              },
              {
                "duration": 0.0909091666666697,
                "durationTicks": 40,
                "midi": 49,
                "name": "C#3",
                "ticks": 25640,
                "time": 58.272775833333334,
                "velocity": 0.47244094488188976
              },
              {
                "duration": 0.0909091666666697,
                "durationTicks": 40,
                "midi": 47,
                "name": "B2",
                "ticks": 25680,
                "time": 58.363685000000004,
                "velocity": 0.48031496062992124
              },
              {
                "duration": 0.0909091666666626,
                "durationTicks": 40,
                "midi": 49,
                "name": "C#3",
                "ticks": 25720,
                "time": 58.45459416666667,
                "velocity": 0.48031496062992124
              },
              {
                "duration": 0.0909091666666697,
                "durationTicks": 40,
                "midi": 47,
                "name": "B2",
                "ticks": 25760,
                "time": 58.545503333333336,
                "velocity": 0.4881889763779528
              },
              {
                "duration": 0.0909091666666626,
                "durationTicks": 40,
                "midi": 49,
                "name": "C#3",
                "ticks": 25800,
                "time": 58.636412500000006,
                "velocity": 0.4881889763779528
              },
              {
                "duration": 0.0909091666666626,
                "durationTicks": 40,
                "midi": 47,
                "name": "B2",
                "ticks": 25840,
                "time": 58.72732166666667,
                "velocity": 0.49606299212598426
              },
              {
                "duration": 0.0909091666666697,
                "durationTicks": 40,
                "midi": 49,
                "name": "C#3",
                "ticks": 25880,
                "time": 58.81823083333333,
                "velocity": 0.49606299212598426
              },
              {
                "duration": 0.136363750000001,
                "durationTicks": 60,
                "midi": 47,
                "name": "B2",
                "ticks": 25920,
                "time": 58.90914,
                "velocity": 0.5039370078740157
              },
              {
                "duration": 0.136363750000001,
                "durationTicks": 60,
                "midi": 45,
                "name": "A2",
                "ticks": 25980,
                "time": 59.04550375,
                "velocity": 0.5039370078740157
              },
              {
                "duration": 0.136363750000001,
                "durationTicks": 60,
                "midi": 44,
                "name": "G#2",
                "ticks": 26040,
                "time": 59.1818675,
                "velocity": 0.5039370078740157
              },
              {
                "duration": 0.136363750000001,
                "durationTicks": 60,
                "midi": 45,
                "name": "A2",
                "ticks": 26100,
                "time": 59.318231250000004,
                "velocity": 0.5039370078740157
              },
              {
                "duration": 0.136363750000001,
                "durationTicks": 60,
                "midi": 47,
                "name": "B2",
                "ticks": 26160,
                "time": 59.454595000000005,
                "velocity": 0.5039370078740157
              },
              {
                "duration": 0.1363637499999939,
                "durationTicks": 60,
                "midi": 49,
                "name": "C#3",
                "ticks": 26220,
                "time": 59.590958750000006,
                "velocity": 0.5039370078740157
              },
              {
                "duration": 0.136363750000001,
                "durationTicks": 60,
                "midi": 50,
                "name": "D3",
                "ticks": 26280,
                "time": 59.7273225,
                "velocity": 0.5039370078740157
              },
              {
                "duration": 0.136363750000001,
                "durationTicks": 60,
                "midi": 49,
                "name": "C#3",
                "ticks": 26340,
                "time": 59.86368625,
                "velocity": 0.5039370078740157
              },
              {
                "duration": 0.136363750000001,
                "durationTicks": 60,
                "midi": 50,
                "name": "D3",
                "ticks": 26400,
                "time": 60.00005,
                "velocity": 0.5039370078740157
              },
              {
                "duration": 0.136363750000001,
                "durationTicks": 60,
                "midi": 54,
                "name": "F#3",
                "ticks": 26460,
                "time": 60.13641375,
                "velocity": 0.5039370078740157
              },
              {
                "duration": 0.136363750000001,
                "durationTicks": 60,
                "midi": 52,
                "name": "E3",
                "ticks": 26520,
                "time": 60.272777500000004,
                "velocity": 0.5039370078740157
              },
              {
                "duration": 0.136363750000001,
                "durationTicks": 60,
                "midi": 50,
                "name": "D3",
                "ticks": 26580,
                "time": 60.409141250000005,
                "velocity": 0.5039370078740157
              },
              {
                "duration": 0.1363637499999939,
                "durationTicks": 60,
                "midi": 49,
                "name": "C#3",
                "ticks": 26640,
                "time": 60.545505000000006,
                "velocity": 0.5039370078740157
              },
              {
                "duration": 0.136363750000001,
                "durationTicks": 60,
                "midi": 47,
                "name": "B2",
                "ticks": 26700,
                "time": 60.68186875,
                "velocity": 0.5039370078740157
              },
              {
                "duration": 0.136363750000001,
                "durationTicks": 60,
                "midi": 49,
                "name": "C#3",
                "ticks": 26760,
                "time": 60.8182325,
                "velocity": 0.5039370078740157
              },
              {
                "duration": 0.136363750000001,
                "durationTicks": 60,
                "midi": 52,
                "name": "E3",
                "ticks": 26820,
                "time": 60.95459625,
                "velocity": 0.5039370078740157
              },
              {
                "duration": 0.136363750000001,
                "durationTicks": 60,
                "midi": 50,
                "name": "D3",
                "ticks": 26880,
                "time": 61.09096,
                "velocity": 0.5039370078740157
              },
              {
                "duration": 0.136363750000001,
                "durationTicks": 60,
                "midi": 49,
                "name": "C#3",
                "ticks": 26940,
                "time": 61.227323750000004,
                "velocity": 0.5039370078740157
              },
              {
                "duration": 0.136363750000001,
                "durationTicks": 60,
                "midi": 47,
                "name": "B2",
                "ticks": 27000,
                "time": 61.363687500000005,
                "velocity": 0.5039370078740157
              },
              {
                "duration": 0.1363637499999939,
                "durationTicks": 60,
                "midi": 45,
                "name": "A2",
                "ticks": 27060,
                "time": 61.500051250000006,
                "velocity": 0.5039370078740157
              },
              {
                "duration": 0.136363750000001,
                "durationTicks": 60,
                "midi": 47,
                "name": "B2",
                "ticks": 27120,
                "time": 61.636415,
                "velocity": 0.5039370078740157
              },
              {
                "duration": 0.136363750000001,
                "durationTicks": 60,
                "midi": 50,
                "name": "D3",
                "ticks": 27180,
                "time": 61.77277875,
                "velocity": 0.5039370078740157
              },
              {
                "duration": 0.136363750000001,
                "durationTicks": 60,
                "midi": 49,
                "name": "C#3",
                "ticks": 27240,
                "time": 61.9091425,
                "velocity": 0.5039370078740157
              },
              {
                "duration": 0.136363750000001,
                "durationTicks": 60,
                "midi": 47,
                "name": "B2",
                "ticks": 27300,
                "time": 62.04550625,
                "velocity": 0.5039370078740157
              },
              {
                "duration": 0.136363750000001,
                "durationTicks": 60,
                "midi": 45,
                "name": "A2",
                "ticks": 27360,
                "time": 62.18187,
                "velocity": 0.5039370078740157
              },
              {
                "duration": 0.136363750000001,
                "durationTicks": 60,
                "midi": 44,
                "name": "G#2",
                "ticks": 27420,
                "time": 62.318233750000005,
                "velocity": 0.5039370078740157
              },
              {
                "duration": 0.1363637499999939,
                "durationTicks": 60,
                "midi": 45,
                "name": "A2",
                "ticks": 27480,
                "time": 62.454597500000006,
                "velocity": 0.5039370078740157
              },
              {
                "duration": 0.136363750000001,
                "durationTicks": 60,
                "midi": 47,
                "name": "B2",
                "ticks": 27540,
                "time": 62.59096125,
                "velocity": 0.5039370078740157
              },
              {
                "duration": 0.136363750000001,
                "durationTicks": 60,
                "midi": 49,
                "name": "C#3",
                "ticks": 27600,
                "time": 62.727325,
                "velocity": 0.5039370078740157
              },
              {
                "duration": 0.136363750000001,
                "durationTicks": 60,
                "midi": 45,
                "name": "A2",
                "ticks": 27660,
                "time": 62.86368875,
                "velocity": 0.5039370078740157
              },
              {
                "duration": 0.0681818750000005,
                "durationTicks": 30,
                "midi": 50,
                "name": "D3",
                "ticks": 27720,
                "time": 63.0000525,
                "velocity": 0.5039370078740157
              },
              {
                "duration": 0.0681818750000005,
                "durationTicks": 30,
                "midi": 49,
                "name": "C#3",
                "ticks": 27750,
                "time": 63.068234375,
                "velocity": 0.4409448818897638
              },
              {
                "duration": 0.3863639583333267,
                "durationTicks": 170,
                "midi": 50,
                "name": "D3",
                "ticks": 27780,
                "time": 63.13641625,
                "velocity": 0.5039370078740157
              },
              {
                "duration": 0.272727500000002,
                "durationTicks": 120,
                "midi": 50,
                "name": "D3",
                "ticks": 27960,
                "time": 63.5455075,
                "velocity": 0.5039370078740157
              },
              {
                "duration": 0.0909091666666697,
                "durationTicks": 40,
                "midi": 49,
                "name": "C#3",
                "ticks": 28080,
                "time": 63.818235,
                "velocity": 0.4409448818897638
              },
              {
                "duration": 0.0909091666666555,
                "durationTicks": 40,
                "midi": 50,
                "name": "D3",
                "ticks": 28120,
                "time": 63.90914416666667,
                "velocity": 0.5039370078740157
              },
              {
                "duration": 0.09090916666667681,
                "durationTicks": 40,
                "midi": 52,
                "name": "E3",
                "ticks": 28160,
                "time": 64.00005333333333,
                "velocity": 0.5039370078740157
              },
              {
                "duration": 0.0909091666666626,
                "durationTicks": 40,
                "midi": 50,
                "name": "D3",
                "ticks": 28200,
                "time": 64.0909625,
                "velocity": 0.4409448818897638
              },
              {
                "duration": 0.0909091666666626,
                "durationTicks": 40,
                "midi": 52,
                "name": "E3",
                "ticks": 28240,
                "time": 64.18187166666667,
                "velocity": 0.4409448818897638
              },
              {
                "duration": 0.09090916666667681,
                "durationTicks": 40,
                "midi": 50,
                "name": "D3",
                "ticks": 28280,
                "time": 64.27278083333333,
                "velocity": 0.44881889763779526
              },
              {
                "duration": 0.0909091666666626,
                "durationTicks": 40,
                "midi": 52,
                "name": "E3",
                "ticks": 28320,
                "time": 64.36369,
                "velocity": 0.44881889763779526
              },
              {
                "duration": 0.0909091666666626,
                "durationTicks": 40,
                "midi": 50,
                "name": "D3",
                "ticks": 28360,
                "time": 64.45459916666667,
                "velocity": 0.4566929133858268
              },
              {
                "duration": 0.09090916666667681,
                "durationTicks": 40,
                "midi": 52,
                "name": "E3",
                "ticks": 28400,
                "time": 64.54550833333333,
                "velocity": 0.4566929133858268
              },
              {
                "duration": 0.0909091666666626,
                "durationTicks": 40,
                "midi": 50,
                "name": "D3",
                "ticks": 28440,
                "time": 64.63641750000001,
                "velocity": 0.4645669291338583
              },
              {
                "duration": 0.0909091666666626,
                "durationTicks": 40,
                "midi": 52,
                "name": "E3",
                "ticks": 28480,
                "time": 64.72732666666667,
                "velocity": 0.47244094488188976
              },
              {
                "duration": 0.09090916666667681,
                "durationTicks": 40,
                "midi": 50,
                "name": "D3",
                "ticks": 28520,
                "time": 64.81823583333333,
                "velocity": 0.47244094488188976
              },
              {
                "duration": 0.0909091666666626,
                "durationTicks": 40,
                "midi": 52,
                "name": "E3",
                "ticks": 28560,
                "time": 64.90914500000001,
                "velocity": 0.48031496062992124
              },
              {
                "duration": 0.0909091666666626,
                "durationTicks": 40,
                "midi": 50,
                "name": "D3",
                "ticks": 28600,
                "time": 65.00005416666667,
                "velocity": 0.48031496062992124
              },
              {
                "duration": 0.0909091666666626,
                "durationTicks": 40,
                "midi": 52,
                "name": "E3",
                "ticks": 28640,
                "time": 65.09096333333333,
                "velocity": 0.4881889763779528
              },
              {
                "duration": 0.09090916666667681,
                "durationTicks": 40,
                "midi": 50,
                "name": "D3",
                "ticks": 28680,
                "time": 65.1818725,
                "velocity": 0.4881889763779528
              },
              {
                "duration": 0.0909091666666626,
                "durationTicks": 40,
                "midi": 52,
                "name": "E3",
                "ticks": 28720,
                "time": 65.27278166666667,
                "velocity": 0.49606299212598426
              },
              {
                "duration": 0.0909091666666626,
                "durationTicks": 40,
                "midi": 50,
                "name": "D3",
                "ticks": 28760,
                "time": 65.36369083333334,
                "velocity": 0.49606299212598426
              },
              {
                "duration": 0.136363750000001,
                "durationTicks": 60,
                "midi": 49,
                "name": "C#3",
                "ticks": 28800,
                "time": 65.4546,
                "velocity": 0.5039370078740157
              },
              {
                "duration": 0.136363750000001,
                "durationTicks": 60,
                "midi": 50,
                "name": "D3",
                "ticks": 28860,
                "time": 65.59096375,
                "velocity": 0.5039370078740157
              },
              {
                "duration": 0.136363750000001,
                "durationTicks": 60,
                "midi": 49,
                "name": "C#3",
                "ticks": 28920,
                "time": 65.7273275,
                "velocity": 0.5039370078740157
              },
              {
                "duration": 0.136363750000001,
                "durationTicks": 60,
                "midi": 47,
                "name": "B2",
                "ticks": 28980,
                "time": 65.86369125,
                "velocity": 0.5039370078740157
              },
              {
                "duration": 0.136363750000001,
                "durationTicks": 60,
                "midi": 45,
                "name": "A2",
                "ticks": 29040,
                "time": 66.000055,
                "velocity": 0.5039370078740157
              },
              {
                "duration": 0.136363750000001,
                "durationTicks": 60,
                "midi": 44,
                "name": "G#2",
                "ticks": 29100,
                "time": 66.13641875,
                "velocity": 0.5039370078740157
              },
              {
                "duration": 0.136363750000001,
                "durationTicks": 60,
                "midi": 42,
                "name": "F#2",
                "ticks": 29160,
                "time": 66.2727825,
                "velocity": 0.5039370078740157
              },
              {
                "duration": 0.136363750000001,
                "durationTicks": 60,
                "midi": 54,
                "name": "F#3",
                "ticks": 29220,
                "time": 66.40914625,
                "velocity": 0.5039370078740157
              },
              {
                "duration": 0.136363750000001,
                "durationTicks": 60,
                "midi": 52,
                "name": "E3",
                "ticks": 29280,
                "time": 66.54551000000001,
                "velocity": 0.5039370078740157
              },
              {
                "duration": 0.136363750000001,
                "durationTicks": 60,
                "midi": 50,
                "name": "D3",
                "ticks": 29340,
                "time": 66.68187375000001,
                "velocity": 0.5039370078740157
              },
              {
                "duration": 0.1363637499999868,
                "durationTicks": 60,
                "midi": 49,
                "name": "C#3",
                "ticks": 29400,
                "time": 66.81823750000001,
                "velocity": 0.5039370078740157
              },
              {
                "duration": 0.136363750000001,
                "durationTicks": 60,
                "midi": 47,
                "name": "B2",
                "ticks": 29460,
                "time": 66.95460125,
                "velocity": 0.5039370078740157
              },
              {
                "duration": 0.136363750000001,
                "durationTicks": 60,
                "midi": 49,
                "name": "C#3",
                "ticks": 29520,
                "time": 67.090965,
                "velocity": 0.5039370078740157
              },
              {
                "duration": 0.136363750000001,
                "durationTicks": 60,
                "midi": 50,
                "name": "D3",
                "ticks": 29580,
                "time": 67.22732875,
                "velocity": 0.5039370078740157
              },
              {
                "duration": 0.272727500000002,
                "durationTicks": 120,
                "midi": 52,
                "name": "E3",
                "ticks": 29640,
                "time": 67.3636925,
                "velocity": 0.5039370078740157
              },
              {
                "duration": 0.272727500000002,
                "durationTicks": 120,
                "midi": 40,
                "name": "E2",
                "ticks": 29760,
                "time": 67.63642,
                "velocity": 0.5039370078740157
              },
              {
                "duration": 0.818182500000006,
                "durationTicks": 360,
                "midi": 45,
                "name": "A2",
                "ticks": 29880,
                "time": 67.9091475,
                "velocity": 0.5039370078740157
              }
            ],
            "endOfTrackTicks": 30240
          }
        ]
      },

    "invention-13" : {
        "header": {
          "keySignatures": [],
          "meta": [],
          "name": "Invention 13 in A Minor",
          "ppq": 240,
          "tempos": [
            {
              "bpm": 91.99998773333498,
              "ticks": 0
            }
          ],
          "timeSignatures": [
            {
              "ticks": 0,
              "timeSignature": [
                4,
                4
              ],
              "measures": 0
            }
          ]
        },
        "tracks": [
          {
            "channel": 0,
            "controlChanges": {},
            "pitchBends": [],
            "instrument": {
              "family": "piano",
              "number": 0,
              "name": "acoustic grand piano"
            },
            "name": "",
            "notes": [
              {
                "duration": 0.16304349999999998,
                "durationTicks": 60,
                "midi": 64,
                "name": "E4",
                "ticks": 60,
                "time": 0.16304349999999998,
                "velocity": 0.5039370078740157
              },
              {
                "duration": 0.16304349999999995,
                "durationTicks": 60,
                "midi": 69,
                "name": "A4",
                "ticks": 120,
                "time": 0.32608699999999996,
                "velocity": 0.5039370078740157
              },
              {
                "duration": 0.1630435,
                "durationTicks": 60,
                "midi": 72,
                "name": "C5",
                "ticks": 180,
                "time": 0.4891304999999999,
                "velocity": 0.5039370078740157
              },
              {
                "duration": 0.1630435,
                "durationTicks": 60,
                "midi": 71,
                "name": "B4",
                "ticks": 240,
                "time": 0.6521739999999999,
                "velocity": 0.5039370078740157
              },
              {
                "duration": 0.1630434999999999,
                "durationTicks": 60,
                "midi": 64,
                "name": "E4",
                "ticks": 300,
                "time": 0.8152174999999999,
                "velocity": 0.5039370078740157
              },
              {
                "duration": 0.16304350000000012,
                "durationTicks": 60,
                "midi": 71,
                "name": "B4",
                "ticks": 360,
                "time": 0.9782609999999998,
                "velocity": 0.5039370078740157
              },
              {
                "duration": 0.1630434999999999,
                "durationTicks": 60,
                "midi": 74,
                "name": "D5",
                "ticks": 420,
                "time": 1.1413045,
                "velocity": 0.5039370078740157
              },
              {
                "duration": 0.326087,
                "durationTicks": 120,
                "midi": 72,
                "name": "C5",
                "ticks": 480,
                "time": 1.3043479999999998,
                "velocity": 0.5039370078740157
              },
              {
                "duration": 0.3260869999999998,
                "durationTicks": 120,
                "midi": 76,
                "name": "E5",
                "ticks": 600,
                "time": 1.6304349999999999,
                "velocity": 0.5039370078740157
              },
              {
                "duration": 0.32608700000000024,
                "durationTicks": 120,
                "midi": 68,
                "name": "G#4",
                "ticks": 720,
                "time": 1.9565219999999997,
                "velocity": 0.5039370078740157
              },
              {
                "duration": 0.3260869999999998,
                "durationTicks": 120,
                "midi": 76,
                "name": "E5",
                "ticks": 840,
                "time": 2.282609,
                "velocity": 0.5039370078740157
              },
              {
                "duration": 0.16304350000000012,
                "durationTicks": 60,
                "midi": 69,
                "name": "A4",
                "ticks": 960,
                "time": 2.6086959999999997,
                "velocity": 0.5039370078740157
              },
              {
                "duration": 0.16304349999999967,
                "durationTicks": 60,
                "midi": 64,
                "name": "E4",
                "ticks": 1020,
                "time": 2.7717395,
                "velocity": 0.5039370078740157
              },
              {
                "duration": 0.16304350000000012,
                "durationTicks": 60,
                "midi": 69,
                "name": "A4",
                "ticks": 1080,
                "time": 2.9347829999999995,
                "velocity": 0.5039370078740157
              },
              {
                "duration": 0.16304350000000012,
                "durationTicks": 60,
                "midi": 72,
                "name": "C5",
                "ticks": 1140,
                "time": 3.0978264999999996,
                "velocity": 0.5039370078740157
              },
              {
                "duration": 0.16304349999999967,
                "durationTicks": 60,
                "midi": 71,
                "name": "B4",
                "ticks": 1200,
                "time": 3.2608699999999997,
                "velocity": 0.5039370078740157
              },
              {
                "duration": 0.16304350000000012,
                "durationTicks": 60,
                "midi": 64,
                "name": "E4",
                "ticks": 1260,
                "time": 3.4239134999999994,
                "velocity": 0.5039370078740157
              },
              {
                "duration": 0.16304350000000012,
                "durationTicks": 60,
                "midi": 71,
                "name": "B4",
                "ticks": 1320,
                "time": 3.5869569999999995,
                "velocity": 0.5039370078740157
              },
              {
                "duration": 0.16304349999999967,
                "durationTicks": 60,
                "midi": 74,
                "name": "D5",
                "ticks": 1380,
                "time": 3.7500004999999996,
                "velocity": 0.5039370078740157
              },
              {
                "duration": 0.32608700000000024,
                "durationTicks": 120,
                "midi": 72,
                "name": "C5",
                "ticks": 1440,
                "time": 3.9130439999999993,
                "velocity": 0.5039370078740157
              },
              {
                "duration": 0.32608700000000024,
                "durationTicks": 120,
                "midi": 69,
                "name": "A4",
                "ticks": 1560,
                "time": 4.2391309999999995,
                "velocity": 0.5039370078740157
              },
              {
                "duration": 0.16304350000000056,
                "durationTicks": 60,
                "midi": 76,
                "name": "E5",
                "ticks": 1980,
                "time": 5.380435499999999,
                "velocity": 0.5039370078740157
              },
              {
                "duration": 0.16304349999999967,
                "durationTicks": 60,
                "midi": 72,
                "name": "C5",
                "ticks": 2040,
                "time": 5.543479,
                "velocity": 0.5039370078740157
              },
              {
                "duration": 0.16304349999999967,
                "durationTicks": 60,
                "midi": 76,
                "name": "E5",
                "ticks": 2100,
                "time": 5.706522499999999,
                "velocity": 0.5039370078740157
              },
              {
                "duration": 0.16304350000000056,
                "durationTicks": 60,
                "midi": 69,
                "name": "A4",
                "ticks": 2160,
                "time": 5.869565999999999,
                "velocity": 0.5039370078740157
              },
              {
                "duration": 0.16304349999999967,
                "durationTicks": 60,
                "midi": 72,
                "name": "C5",
                "ticks": 2220,
                "time": 6.0326094999999995,
                "velocity": 0.5039370078740157
              },
              {
                "duration": 0.16304349999999967,
                "durationTicks": 60,
                "midi": 64,
                "name": "E4",
                "ticks": 2280,
                "time": 6.195652999999999,
                "velocity": 0.5039370078740157
              },
              {
                "duration": 0.16304350000000056,
                "durationTicks": 60,
                "midi": 67,
                "name": "G4",
                "ticks": 2340,
                "time": 6.358696499999999,
                "velocity": 0.5039370078740157
              },
              {
                "duration": 0.32608699999999935,
                "durationTicks": 120,
                "midi": 65,
                "name": "F4",
                "ticks": 2400,
                "time": 6.521739999999999,
                "velocity": 0.5039370078740157
              },
              {
                "duration": 0.32608700000000024,
                "durationTicks": 120,
                "midi": 69,
                "name": "A4",
                "ticks": 2520,
                "time": 6.847826999999999,
                "velocity": 0.5039370078740157
              },
              {
                "duration": 0.32608700000000024,
                "durationTicks": 120,
                "midi": 74,
                "name": "D5",
                "ticks": 2640,
                "time": 7.173913999999999,
                "velocity": 0.5039370078740157
              },
              {
                "duration": 0.4891304999999999,
                "durationTicks": 180,
                "midi": 77,
                "name": "F5",
                "ticks": 2760,
                "time": 7.500000999999999,
                "velocity": 0.5039370078740157
              },
              {
                "duration": 0.16304350000000056,
                "durationTicks": 60,
                "midi": 74,
                "name": "D5",
                "ticks": 2940,
                "time": 7.989131499999999,
                "velocity": 0.5039370078740157
              },
              {
                "duration": 0.1630434999999988,
                "durationTicks": 60,
                "midi": 71,
                "name": "B4",
                "ticks": 3000,
                "time": 8.152175,
                "velocity": 0.5039370078740157
              },
              {
                "duration": 0.16304350000000056,
                "durationTicks": 60,
                "midi": 74,
                "name": "D5",
                "ticks": 3060,
                "time": 8.315218499999999,
                "velocity": 0.5039370078740157
              },
              {
                "duration": 0.16304350000000056,
                "durationTicks": 60,
                "midi": 67,
                "name": "G4",
                "ticks": 3120,
                "time": 8.478261999999999,
                "velocity": 0.5039370078740157
              },
              {
                "duration": 0.1630434999999988,
                "durationTicks": 60,
                "midi": 71,
                "name": "B4",
                "ticks": 3180,
                "time": 8.6413055,
                "velocity": 0.5039370078740157
              },
              {
                "duration": 0.16304350000000056,
                "durationTicks": 60,
                "midi": 62,
                "name": "D4",
                "ticks": 3240,
                "time": 8.804348999999998,
                "velocity": 0.5039370078740157
              },
              {
                "duration": 0.16304350000000056,
                "durationTicks": 60,
                "midi": 65,
                "name": "F4",
                "ticks": 3300,
                "time": 8.967392499999999,
                "velocity": 0.5039370078740157
              },
              {
                "duration": 0.32608699999999935,
                "durationTicks": 120,
                "midi": 64,
                "name": "E4",
                "ticks": 3360,
                "time": 9.130436,
                "velocity": 0.5039370078740157
              },
              {
                "duration": 0.32608699999999935,
                "durationTicks": 120,
                "midi": 67,
                "name": "G4",
                "ticks": 3480,
                "time": 9.456522999999999,
                "velocity": 0.5039370078740157
              },
              {
                "duration": 0.3260870000000011,
                "durationTicks": 120,
                "midi": 72,
                "name": "C5",
                "ticks": 3600,
                "time": 9.782609999999998,
                "velocity": 0.5039370078740157
              },
              {
                "duration": 0.4891304999999999,
                "durationTicks": 180,
                "midi": 76,
                "name": "E5",
                "ticks": 3720,
                "time": 10.108697,
                "velocity": 0.5039370078740157
              },
              {
                "duration": 0.1630434999999988,
                "durationTicks": 60,
                "midi": 72,
                "name": "C5",
                "ticks": 3900,
                "time": 10.5978275,
                "velocity": 0.5039370078740157
              },
              {
                "duration": 0.16304350000000056,
                "durationTicks": 60,
                "midi": 69,
                "name": "A4",
                "ticks": 3960,
                "time": 10.760870999999998,
                "velocity": 0.5039370078740157
              },
              {
                "duration": 0.16304350000000056,
                "durationTicks": 60,
                "midi": 72,
                "name": "C5",
                "ticks": 4020,
                "time": 10.923914499999999,
                "velocity": 0.5039370078740157
              },
              {
                "duration": 0.32608699999999935,
                "durationTicks": 120,
                "midi": 65,
                "name": "F4",
                "ticks": 4080,
                "time": 11.086958,
                "velocity": 0.5039370078740157
              },
              {
                "duration": 0.4891304999999999,
                "durationTicks": 180,
                "midi": 74,
                "name": "D5",
                "ticks": 4200,
                "time": 11.413044999999999,
                "velocity": 0.5039370078740157
              },
              {
                "duration": 0.16304350000000056,
                "durationTicks": 60,
                "midi": 71,
                "name": "B4",
                "ticks": 4380,
                "time": 11.902175499999998,
                "velocity": 0.5039370078740157
              },
              {
                "duration": 0.1630434999999988,
                "durationTicks": 60,
                "midi": 67,
                "name": "G4",
                "ticks": 4440,
                "time": 12.065218999999999,
                "velocity": 0.5039370078740157
              },
              {
                "duration": 0.16304350000000056,
                "durationTicks": 60,
                "midi": 71,
                "name": "B4",
                "ticks": 4500,
                "time": 12.228262499999998,
                "velocity": 0.5039370078740157
              },
              {
                "duration": 0.32608699999999935,
                "durationTicks": 120,
                "midi": 64,
                "name": "E4",
                "ticks": 4560,
                "time": 12.391305999999998,
                "velocity": 0.5039370078740157
              },
              {
                "duration": 0.4891304999999999,
                "durationTicks": 180,
                "midi": 72,
                "name": "C5",
                "ticks": 4680,
                "time": 12.717392999999998,
                "velocity": 0.5039370078740157
              },
              {
                "duration": 0.16304350000000056,
                "durationTicks": 60,
                "midi": 69,
                "name": "A4",
                "ticks": 4860,
                "time": 13.206523499999998,
                "velocity": 0.5039370078740157
              },
              {
                "duration": 0.16304350000000056,
                "durationTicks": 60,
                "midi": 65,
                "name": "F4",
                "ticks": 4920,
                "time": 13.369566999999998,
                "velocity": 0.5039370078740157
              },
              {
                "duration": 0.1630434999999988,
                "durationTicks": 60,
                "midi": 69,
                "name": "A4",
                "ticks": 4980,
                "time": 13.532610499999999,
                "velocity": 0.5039370078740157
              },
              {
                "duration": 0.3260870000000011,
                "durationTicks": 120,
                "midi": 62,
                "name": "D4",
                "ticks": 5040,
                "time": 13.695653999999998,
                "velocity": 0.5039370078740157
              },
              {
                "duration": 0.32608699999999935,
                "durationTicks": 120,
                "midi": 71,
                "name": "B4",
                "ticks": 5160,
                "time": 14.021740999999999,
                "velocity": 0.5039370078740157
              },
              {
                "duration": 0.32608699999999935,
                "durationTicks": 120,
                "midi": 72,
                "name": "C5",
                "ticks": 5280,
                "time": 14.347827999999998,
                "velocity": 0.5039370078740157
              },
              {
                "duration": 0.16304350000000056,
                "durationTicks": 60,
                "midi": 67,
                "name": "G4",
                "ticks": 5820,
                "time": 15.815219499999998,
                "velocity": 0.5039370078740157
              },
              {
                "duration": 0.16304350000000056,
                "durationTicks": 60,
                "midi": 72,
                "name": "C5",
                "ticks": 5880,
                "time": 15.978262999999998,
                "velocity": 0.5039370078740157
              },
              {
                "duration": 0.16304350000000056,
                "durationTicks": 60,
                "midi": 76,
                "name": "E5",
                "ticks": 5940,
                "time": 16.1413065,
                "velocity": 0.5039370078740157
              },
              {
                "duration": 0.163043499999997,
                "durationTicks": 60,
                "midi": 74,
                "name": "D5",
                "ticks": 6000,
                "time": 16.30435,
                "velocity": 0.5039370078740157
              },
              {
                "duration": 0.16304350000000056,
                "durationTicks": 60,
                "midi": 67,
                "name": "G4",
                "ticks": 6060,
                "time": 16.467393499999996,
                "velocity": 0.5039370078740157
              },
              {
                "duration": 0.16304350000000056,
                "durationTicks": 60,
                "midi": 74,
                "name": "D5",
                "ticks": 6120,
                "time": 16.630436999999997,
                "velocity": 0.5039370078740157
              },
              {
                "duration": 0.16304350000000056,
                "durationTicks": 60,
                "midi": 77,
                "name": "F5",
                "ticks": 6180,
                "time": 16.793480499999998,
                "velocity": 0.5039370078740157
              },
              {
                "duration": 0.3260870000000011,
                "durationTicks": 120,
                "midi": 76,
                "name": "E5",
                "ticks": 6240,
                "time": 16.956523999999998,
                "velocity": 0.5039370078740157
              },
              {
                "duration": 0.3260869999999976,
                "durationTicks": 120,
                "midi": 79,
                "name": "G5",
                "ticks": 6360,
                "time": 17.282611,
                "velocity": 0.5039370078740157
              },
              {
                "duration": 0.3260870000000011,
                "durationTicks": 120,
                "midi": 71,
                "name": "B4",
                "ticks": 6480,
                "time": 17.608697999999997,
                "velocity": 0.5039370078740157
              },
              {
                "duration": 0.3260870000000011,
                "durationTicks": 120,
                "midi": 79,
                "name": "G5",
                "ticks": 6600,
                "time": 17.934784999999998,
                "velocity": 0.5039370078740157
              },
              {
                "duration": 0.163043499999997,
                "durationTicks": 60,
                "midi": 72,
                "name": "C5",
                "ticks": 6720,
                "time": 18.260872,
                "velocity": 0.5039370078740157
              },
              {
                "duration": 0.16304350000000056,
                "durationTicks": 60,
                "midi": 67,
                "name": "G4",
                "ticks": 6780,
                "time": 18.423915499999996,
                "velocity": 0.5039370078740157
              },
              {
                "duration": 0.16304350000000056,
                "durationTicks": 60,
                "midi": 72,
                "name": "C5",
                "ticks": 6840,
                "time": 18.586958999999997,
                "velocity": 0.5039370078740157
              },
              {
                "duration": 0.16304350000000056,
                "durationTicks": 60,
                "midi": 76,
                "name": "E5",
                "ticks": 6900,
                "time": 18.750002499999997,
                "velocity": 0.5039370078740157
              },
              {
                "duration": 0.16304350000000056,
                "durationTicks": 60,
                "midi": 74,
                "name": "D5",
                "ticks": 6960,
                "time": 18.913045999999998,
                "velocity": 0.5039370078740157
              },
              {
                "duration": 0.16304350000000056,
                "durationTicks": 60,
                "midi": 67,
                "name": "G4",
                "ticks": 7020,
                "time": 19.0760895,
                "velocity": 0.5039370078740157
              },
              {
                "duration": 0.163043499999997,
                "durationTicks": 60,
                "midi": 74,
                "name": "D5",
                "ticks": 7080,
                "time": 19.239133,
                "velocity": 0.5039370078740157
              },
              {
                "duration": 0.16304350000000056,
                "durationTicks": 60,
                "midi": 77,
                "name": "F5",
                "ticks": 7140,
                "time": 19.402176499999996,
                "velocity": 0.5039370078740157
              },
              {
                "duration": 0.3260870000000011,
                "durationTicks": 120,
                "midi": 76,
                "name": "E5",
                "ticks": 7200,
                "time": 19.565219999999997,
                "velocity": 0.5039370078740157
              },
              {
                "duration": 0.3260870000000011,
                "durationTicks": 120,
                "midi": 72,
                "name": "C5",
                "ticks": 7320,
                "time": 19.891306999999998,
                "velocity": 0.5039370078740157
              },
              {
                "duration": 0.3260869999999976,
                "durationTicks": 120,
                "midi": 79,
                "name": "G5",
                "ticks": 7440,
                "time": 20.217394,
                "velocity": 0.5039370078740157
              },
              {
                "duration": 0.3260870000000011,
                "durationTicks": 120,
                "midi": 76,
                "name": "E5",
                "ticks": 7560,
                "time": 20.543480999999996,
                "velocity": 0.5039370078740157
              },
              {
                "duration": 0.16304350000000056,
                "durationTicks": 60,
                "midi": 84,
                "name": "C6",
                "ticks": 7680,
                "time": 20.869567999999997,
                "velocity": 0.5039370078740157
              },
              {
                "duration": 0.16304350000000056,
                "durationTicks": 60,
                "midi": 81,
                "name": "A5",
                "ticks": 7740,
                "time": 21.032611499999998,
                "velocity": 0.5039370078740157
              },
              {
                "duration": 0.16304350000000056,
                "durationTicks": 60,
                "midi": 76,
                "name": "E5",
                "ticks": 7800,
                "time": 21.195655,
                "velocity": 0.5039370078740157
              },
              {
                "duration": 0.163043499999997,
                "durationTicks": 60,
                "midi": 81,
                "name": "A5",
                "ticks": 7860,
                "time": 21.3586985,
                "velocity": 0.5039370078740157
              },
              {
                "duration": 0.16304350000000056,
                "durationTicks": 60,
                "midi": 72,
                "name": "C5",
                "ticks": 7920,
                "time": 21.521741999999996,
                "velocity": 0.5039370078740157
              },
              {
                "duration": 0.16304350000000056,
                "durationTicks": 60,
                "midi": 76,
                "name": "E5",
                "ticks": 7980,
                "time": 21.684785499999997,
                "velocity": 0.5039370078740157
              },
              {
                "duration": 0.16304350000000056,
                "durationTicks": 60,
                "midi": 69,
                "name": "A4",
                "ticks": 8040,
                "time": 21.847828999999997,
                "velocity": 0.5039370078740157
              },
              {
                "duration": 0.16304350000000056,
                "durationTicks": 60,
                "midi": 72,
                "name": "C5",
                "ticks": 8100,
                "time": 22.010872499999998,
                "velocity": 0.5039370078740157
              },
              {
                "duration": 0.3260869999999976,
                "durationTicks": 120,
                "midi": 74,
                "name": "D5",
                "ticks": 8160,
                "time": 22.173916,
                "velocity": 0.5039370078740157
              },
              {
                "duration": 0.3260870000000011,
                "durationTicks": 120,
                "midi": 78,
                "name": "F#5",
                "ticks": 8280,
                "time": 22.500002999999996,
                "velocity": 0.5039370078740157
              },
              {
                "duration": 0.3260870000000011,
                "durationTicks": 120,
                "midi": 81,
                "name": "A5",
                "ticks": 8400,
                "time": 22.826089999999997,
                "velocity": 0.5039370078740157
              },
              {
                "duration": 0.3260869999999976,
                "durationTicks": 120,
                "midi": 84,
                "name": "C6",
                "ticks": 8520,
                "time": 23.152177,
                "velocity": 0.5039370078740157
              },
              {
                "duration": 0.16304350000000056,
                "durationTicks": 60,
                "midi": 83,
                "name": "B5",
                "ticks": 8640,
                "time": 23.478263999999996,
                "velocity": 0.5039370078740157
              },
              {
                "duration": 0.16304350000000056,
                "durationTicks": 60,
                "midi": 79,
                "name": "G5",
                "ticks": 8700,
                "time": 23.641307499999996,
                "velocity": 0.5039370078740157
              },
              {
                "duration": 0.16304350000000056,
                "durationTicks": 60,
                "midi": 74,
                "name": "D5",
                "ticks": 8760,
                "time": 23.804350999999997,
                "velocity": 0.5039370078740157
              },
              {
                "duration": 0.16304350000000056,
                "durationTicks": 60,
                "midi": 79,
                "name": "G5",
                "ticks": 8820,
                "time": 23.967394499999997,
                "velocity": 0.5039370078740157
              },
              {
                "duration": 0.16304350000000056,
                "durationTicks": 60,
                "midi": 71,
                "name": "B4",
                "ticks": 8880,
                "time": 24.130437999999998,
                "velocity": 0.5039370078740157
              },
              {
                "duration": 0.163043499999997,
                "durationTicks": 60,
                "midi": 74,
                "name": "D5",
                "ticks": 8940,
                "time": 24.2934815,
                "velocity": 0.5039370078740157
              },
              {
                "duration": 0.16304350000000056,
                "durationTicks": 60,
                "midi": 67,
                "name": "G4",
                "ticks": 9000,
                "time": 24.456524999999996,
                "velocity": 0.5039370078740157
              },
              {
                "duration": 0.16304350000000056,
                "durationTicks": 60,
                "midi": 71,
                "name": "B4",
                "ticks": 9060,
                "time": 24.619568499999996,
                "velocity": 0.5039370078740157
              },
              {
                "duration": 0.3260870000000011,
                "durationTicks": 120,
                "midi": 72,
                "name": "C5",
                "ticks": 9120,
                "time": 24.782611999999997,
                "velocity": 0.5039370078740157
              },
              {
                "duration": 0.3260869999999976,
                "durationTicks": 120,
                "midi": 76,
                "name": "E5",
                "ticks": 9240,
                "time": 25.108698999999998,
                "velocity": 0.5039370078740157
              },
              {
                "duration": 0.3260870000000011,
                "durationTicks": 120,
                "midi": 79,
                "name": "G5",
                "ticks": 9360,
                "time": 25.434785999999995,
                "velocity": 0.5039370078740157
              },
              {
                "duration": 0.3260870000000011,
                "durationTicks": 120,
                "midi": 83,
                "name": "B5",
                "ticks": 9480,
                "time": 25.760872999999997,
                "velocity": 0.5039370078740157
              },
              {
                "duration": 0.16304350000000056,
                "durationTicks": 60,
                "midi": 81,
                "name": "A5",
                "ticks": 9600,
                "time": 26.086959999999998,
                "velocity": 0.5039370078740157
              },
              {
                "duration": 0.163043499999997,
                "durationTicks": 60,
                "midi": 78,
                "name": "F#5",
                "ticks": 9660,
                "time": 26.2500035,
                "velocity": 0.5039370078740157
              },
              {
                "duration": 0.16304350000000056,
                "durationTicks": 60,
                "midi": 75,
                "name": "D#5",
                "ticks": 9720,
                "time": 26.413046999999995,
                "velocity": 0.5039370078740157
              },
              {
                "duration": 0.16304350000000056,
                "durationTicks": 60,
                "midi": 78,
                "name": "F#5",
                "ticks": 9780,
                "time": 26.576090499999996,
                "velocity": 0.5039370078740157
              },
              {
                "duration": 0.16304350000000056,
                "durationTicks": 60,
                "midi": 71,
                "name": "B4",
                "ticks": 9840,
                "time": 26.739133999999996,
                "velocity": 0.5039370078740157
              },
              {
                "duration": 0.16304350000000056,
                "durationTicks": 60,
                "midi": 75,
                "name": "D#5",
                "ticks": 9900,
                "time": 26.902177499999997,
                "velocity": 0.5039370078740157
              },
              {
                "duration": 0.16304350000000056,
                "durationTicks": 60,
                "midi": 66,
                "name": "F#4",
                "ticks": 9960,
                "time": 27.065220999999998,
                "velocity": 0.5039370078740157
              },
              {
                "duration": 0.163043499999997,
                "durationTicks": 60,
                "midi": 69,
                "name": "A4",
                "ticks": 10020,
                "time": 27.228264499999998,
                "velocity": 0.5039370078740157
              },
              {
                "duration": 0.3260870000000011,
                "durationTicks": 120,
                "midi": 67,
                "name": "G4",
                "ticks": 10080,
                "time": 27.391307999999995,
                "velocity": 0.5039370078740157
              },
              {
                "duration": 0.4891305000000017,
                "durationTicks": 180,
                "midi": 79,
                "name": "G5",
                "ticks": 10200,
                "time": 27.717394999999996,
                "velocity": 0.5039370078740157
              },
              {
                "duration": 0.163043499999997,
                "durationTicks": 60,
                "midi": 76,
                "name": "E5",
                "ticks": 10380,
                "time": 28.206525499999998,
                "velocity": 0.5039370078740157
              },
              {
                "duration": 0.16304350000000056,
                "durationTicks": 60,
                "midi": 72,
                "name": "C5",
                "ticks": 10440,
                "time": 28.369568999999995,
                "velocity": 0.5039370078740157
              },
              {
                "duration": 0.16304350000000056,
                "durationTicks": 60,
                "midi": 76,
                "name": "E5",
                "ticks": 10500,
                "time": 28.532612499999995,
                "velocity": 0.5039370078740157
              },
              {
                "duration": 0.3260870000000011,
                "durationTicks": 120,
                "midi": 69,
                "name": "A4",
                "ticks": 10560,
                "time": 28.695655999999996,
                "velocity": 0.5039370078740157
              },
              {
                "duration": 0.48913049999999814,
                "durationTicks": 180,
                "midi": 78,
                "name": "F#5",
                "ticks": 10680,
                "time": 29.021742999999997,
                "velocity": 0.5039370078740157
              },
              {
                "duration": 0.16304350000000056,
                "durationTicks": 60,
                "midi": 74,
                "name": "D5",
                "ticks": 10860,
                "time": 29.510873499999995,
                "velocity": 0.5039370078740157
              },
              {
                "duration": 0.16304350000000056,
                "durationTicks": 60,
                "midi": 71,
                "name": "B4",
                "ticks": 10920,
                "time": 29.673916999999996,
                "velocity": 0.5039370078740157
              },
              {
                "duration": 0.16304350000000056,
                "durationTicks": 60,
                "midi": 74,
                "name": "D5",
                "ticks": 10980,
                "time": 29.836960499999996,
                "velocity": 0.5039370078740157
              },
              {
                "duration": 0.3260869999999976,
                "durationTicks": 120,
                "midi": 67,
                "name": "G4",
                "ticks": 11040,
                "time": 30.000003999999997,
                "velocity": 0.5039370078740157
              },
              {
                "duration": 0.4891305000000017,
                "durationTicks": 180,
                "midi": 76,
                "name": "E5",
                "ticks": 11160,
                "time": 30.326090999999995,
                "velocity": 0.5039370078740157
              },
              {
                "duration": 0.16304350000000056,
                "durationTicks": 60,
                "midi": 72,
                "name": "C5",
                "ticks": 11340,
                "time": 30.815221499999996,
                "velocity": 0.5039370078740157
              },
              {
                "duration": 0.16304350000000056,
                "durationTicks": 60,
                "midi": 69,
                "name": "A4",
                "ticks": 11400,
                "time": 30.978264999999997,
                "velocity": 0.5039370078740157
              },
              {
                "duration": 0.163043499999997,
                "durationTicks": 60,
                "midi": 72,
                "name": "C5",
                "ticks": 11460,
                "time": 31.141308499999997,
                "velocity": 0.5039370078740157
              },
              {
                "duration": 0.16304350000000056,
                "durationTicks": 60,
                "midi": 66,
                "name": "F#4",
                "ticks": 11520,
                "time": 31.304351999999994,
                "velocity": 0.5039370078740157
              },
              {
                "duration": 0.16304350000000056,
                "durationTicks": 60,
                "midi": 79,
                "name": "G5",
                "ticks": 11580,
                "time": 31.467395499999995,
                "velocity": 0.5039370078740157
              },
              {
                "duration": 0.16304350000000056,
                "durationTicks": 60,
                "midi": 78,
                "name": "F#5",
                "ticks": 11640,
                "time": 31.630438999999996,
                "velocity": 0.5039370078740157
              },
              {
                "duration": 0.16304350000000056,
                "durationTicks": 60,
                "midi": 76,
                "name": "E5",
                "ticks": 11700,
                "time": 31.793482499999996,
                "velocity": 0.5039370078740157
              },
              {
                "duration": 0.16304350000000056,
                "durationTicks": 60,
                "midi": 75,
                "name": "D#5",
                "ticks": 11760,
                "time": 31.956525999999997,
                "velocity": 0.5039370078740157
              },
              {
                "duration": 0.16304350000000056,
                "durationTicks": 60,
                "midi": 78,
                "name": "F#5",
                "ticks": 11820,
                "time": 32.1195695,
                "velocity": 0.5039370078740157
              },
              {
                "duration": 0.16304350000000056,
                "durationTicks": 60,
                "midi": 71,
                "name": "B4",
                "ticks": 11880,
                "time": 32.282613,
                "velocity": 0.5039370078740157
              },
              {
                "duration": 0.16304350000000056,
                "durationTicks": 60,
                "midi": 75,
                "name": "D#5",
                "ticks": 11940,
                "time": 32.4456565,
                "velocity": 0.5039370078740157
              },
              {
                "duration": 0.326086999999994,
                "durationTicks": 120,
                "midi": 76,
                "name": "E5",
                "ticks": 12000,
                "time": 32.6087,
                "velocity": 0.5039370078740157
              },
              {
                "duration": 0.16304350000000056,
                "durationTicks": 60,
                "midi": 79,
                "name": "G5",
                "ticks": 12540,
                "time": 34.0760915,
                "velocity": 0.5039370078740157
              },
              {
                "duration": 0.16304350000000056,
                "durationTicks": 60,
                "midi": 82,
                "name": "A#5",
                "ticks": 12600,
                "time": 34.239135,
                "velocity": 0.5039370078740157
              },
              {
                "duration": 0.16304350000000056,
                "durationTicks": 60,
                "midi": 79,
                "name": "G5",
                "ticks": 12660,
                "time": 34.4021785,
                "velocity": 0.5039370078740157
              },
              {
                "duration": 0.16304350000000056,
                "durationTicks": 60,
                "midi": 76,
                "name": "E5",
                "ticks": 12720,
                "time": 34.565222,
                "velocity": 0.5039370078740157
              },
              {
                "duration": 0.16304349999999346,
                "durationTicks": 60,
                "midi": 79,
                "name": "G5",
                "ticks": 12780,
                "time": 34.7282655,
                "velocity": 0.5039370078740157
              },
              {
                "duration": 0.16304350000000056,
                "durationTicks": 60,
                "midi": 73,
                "name": "C#5",
                "ticks": 12840,
                "time": 34.89130899999999,
                "velocity": 0.5039370078740157
              },
              {
                "duration": 0.16304350000000056,
                "durationTicks": 60,
                "midi": 76,
                "name": "E5",
                "ticks": 12900,
                "time": 35.05435249999999,
                "velocity": 0.5039370078740157
              },
              {
                "duration": 0.16304350000000056,
                "durationTicks": 60,
                "midi": 79,
                "name": "G5",
                "ticks": 12960,
                "time": 35.217395999999994,
                "velocity": 0.5039370078740157
              },
              {
                "duration": 0.16304350000000056,
                "durationTicks": 60,
                "midi": 76,
                "name": "E5",
                "ticks": 13020,
                "time": 35.380439499999994,
                "velocity": 0.5039370078740157
              },
              {
                "duration": 0.16304350000000056,
                "durationTicks": 60,
                "midi": 73,
                "name": "C#5",
                "ticks": 13080,
                "time": 35.543482999999995,
                "velocity": 0.5039370078740157
              },
              {
                "duration": 0.16304350000000056,
                "durationTicks": 60,
                "midi": 76,
                "name": "E5",
                "ticks": 13140,
                "time": 35.706526499999995,
                "velocity": 0.5039370078740157
              },
              {
                "duration": 0.16304350000000056,
                "durationTicks": 60,
                "midi": 69,
                "name": "A4",
                "ticks": 13200,
                "time": 35.869569999999996,
                "velocity": 0.5039370078740157
              },
              {
                "duration": 0.16304349999999346,
                "durationTicks": 60,
                "midi": 77,
                "name": "F5",
                "ticks": 13500,
                "time": 36.6847875,
                "velocity": 0.5039370078740157
              },
              {
                "duration": 0.16304350000000056,
                "durationTicks": 60,
                "midi": 81,
                "name": "A5",
                "ticks": 13560,
                "time": 36.84783099999999,
                "velocity": 0.5039370078740157
              },
              {
                "duration": 0.16304350000000056,
                "durationTicks": 60,
                "midi": 77,
                "name": "F5",
                "ticks": 13620,
                "time": 37.01087449999999,
                "velocity": 0.5039370078740157
              },
              {
                "duration": 0.16304350000000056,
                "durationTicks": 60,
                "midi": 74,
                "name": "D5",
                "ticks": 13680,
                "time": 37.17391799999999,
                "velocity": 0.5039370078740157
              },
              {
                "duration": 0.16304350000000056,
                "durationTicks": 60,
                "midi": 77,
                "name": "F5",
                "ticks": 13740,
                "time": 37.336961499999994,
                "velocity": 0.5039370078740157
              },
              {
                "duration": 0.16304350000000056,
                "durationTicks": 60,
                "midi": 71,
                "name": "B4",
                "ticks": 13800,
                "time": 37.500004999999994,
                "velocity": 0.5039370078740157
              },
              {
                "duration": 0.16304350000000056,
                "durationTicks": 60,
                "midi": 74,
                "name": "D5",
                "ticks": 13860,
                "time": 37.663048499999995,
                "velocity": 0.5039370078740157
              },
              {
                "duration": 0.16304350000000056,
                "durationTicks": 60,
                "midi": 77,
                "name": "F5",
                "ticks": 13920,
                "time": 37.826091999999996,
                "velocity": 0.5039370078740157
              },
              {
                "duration": 0.16304350000000056,
                "durationTicks": 60,
                "midi": 74,
                "name": "D5",
                "ticks": 13980,
                "time": 37.989135499999996,
                "velocity": 0.5039370078740157
              },
              {
                "duration": 0.16304350000000056,
                "durationTicks": 60,
                "midi": 71,
                "name": "B4",
                "ticks": 14040,
                "time": 38.152179,
                "velocity": 0.5039370078740157
              },
              {
                "duration": 0.16304350000000056,
                "durationTicks": 60,
                "midi": 74,
                "name": "D5",
                "ticks": 14100,
                "time": 38.3152225,
                "velocity": 0.5039370078740157
              },
              {
                "duration": 0.16304350000000056,
                "durationTicks": 60,
                "midi": 67,
                "name": "G4",
                "ticks": 14160,
                "time": 38.478266,
                "velocity": 0.5039370078740157
              },
              {
                "duration": 0.16304350000000056,
                "durationTicks": 60,
                "midi": 76,
                "name": "E5",
                "ticks": 14460,
                "time": 39.293483499999994,
                "velocity": 0.5039370078740157
              },
              {
                "duration": 0.16304350000000056,
                "durationTicks": 60,
                "midi": 79,
                "name": "G5",
                "ticks": 14520,
                "time": 39.456526999999994,
                "velocity": 0.5039370078740157
              },
              {
                "duration": 0.16304350000000056,
                "durationTicks": 60,
                "midi": 76,
                "name": "E5",
                "ticks": 14580,
                "time": 39.619570499999995,
                "velocity": 0.5039370078740157
              },
              {
                "duration": 0.16304350000000056,
                "durationTicks": 60,
                "midi": 72,
                "name": "C5",
                "ticks": 14640,
                "time": 39.782613999999995,
                "velocity": 0.5039370078740157
              },
              {
                "duration": 0.16304350000000056,
                "durationTicks": 60,
                "midi": 76,
                "name": "E5",
                "ticks": 14700,
                "time": 39.945657499999996,
                "velocity": 0.5039370078740157
              },
              {
                "duration": 0.16304350000000056,
                "durationTicks": 60,
                "midi": 69,
                "name": "A4",
                "ticks": 14760,
                "time": 40.108700999999996,
                "velocity": 0.5039370078740157
              },
              {
                "duration": 0.16304350000000056,
                "durationTicks": 60,
                "midi": 72,
                "name": "C5",
                "ticks": 14820,
                "time": 40.2717445,
                "velocity": 0.5039370078740157
              },
              {
                "duration": 0.16304350000000056,
                "durationTicks": 60,
                "midi": 75,
                "name": "D#5",
                "ticks": 14880,
                "time": 40.434788,
                "velocity": 0.5039370078740157
              },
              {
                "duration": 0.16304349999999346,
                "durationTicks": 60,
                "midi": 72,
                "name": "C5",
                "ticks": 14940,
                "time": 40.5978315,
                "velocity": 0.5039370078740157
              },
              {
                "duration": 0.16304350000000056,
                "durationTicks": 60,
                "midi": 69,
                "name": "A4",
                "ticks": 15000,
                "time": 40.76087499999999,
                "velocity": 0.5039370078740157
              },
              {
                "duration": 0.16304350000000056,
                "durationTicks": 60,
                "midi": 72,
                "name": "C5",
                "ticks": 15060,
                "time": 40.92391849999999,
                "velocity": 0.5039370078740157
              },
              {
                "duration": 0.16304350000000056,
                "durationTicks": 60,
                "midi": 66,
                "name": "F#4",
                "ticks": 15120,
                "time": 41.08696199999999,
                "velocity": 0.5039370078740157
              },
              {
                "duration": 0.16304350000000056,
                "durationTicks": 60,
                "midi": 74,
                "name": "D5",
                "ticks": 15420,
                "time": 41.902179499999995,
                "velocity": 0.5039370078740157
              },
              {
                "duration": 0.16304350000000056,
                "durationTicks": 60,
                "midi": 77,
                "name": "F5",
                "ticks": 15480,
                "time": 42.065222999999996,
                "velocity": 0.5039370078740157
              },
              {
                "duration": 0.16304350000000056,
                "durationTicks": 60,
                "midi": 74,
                "name": "D5",
                "ticks": 15540,
                "time": 42.2282665,
                "velocity": 0.5039370078740157
              },
              {
                "duration": 0.16304350000000056,
                "durationTicks": 60,
                "midi": 71,
                "name": "B4",
                "ticks": 15600,
                "time": 42.39131,
                "velocity": 0.5039370078740157
              },
              {
                "duration": 0.16304350000000056,
                "durationTicks": 60,
                "midi": 74,
                "name": "D5",
                "ticks": 15660,
                "time": 42.5543535,
                "velocity": 0.5039370078740157
              },
              {
                "duration": 0.16304349999999346,
                "durationTicks": 60,
                "midi": 68,
                "name": "G#4",
                "ticks": 15720,
                "time": 42.717397,
                "velocity": 0.5039370078740157
              },
              {
                "duration": 0.16304350000000056,
                "durationTicks": 60,
                "midi": 71,
                "name": "B4",
                "ticks": 15780,
                "time": 42.88044049999999,
                "velocity": 0.5039370078740157
              },
              {
                "duration": 0.16304350000000056,
                "durationTicks": 60,
                "midi": 74,
                "name": "D5",
                "ticks": 15840,
                "time": 43.04348399999999,
                "velocity": 0.5039370078740157
              },
              {
                "duration": 0.16304350000000056,
                "durationTicks": 60,
                "midi": 71,
                "name": "B4",
                "ticks": 15900,
                "time": 43.20652749999999,
                "velocity": 0.5039370078740157
              },
              {
                "duration": 0.16304350000000056,
                "durationTicks": 60,
                "midi": 68,
                "name": "G#4",
                "ticks": 15960,
                "time": 43.36957099999999,
                "velocity": 0.5039370078740157
              },
              {
                "duration": 0.16304350000000056,
                "durationTicks": 60,
                "midi": 71,
                "name": "B4",
                "ticks": 16020,
                "time": 43.532614499999994,
                "velocity": 0.5039370078740157
              },
              {
                "duration": 0.16304350000000056,
                "durationTicks": 60,
                "midi": 64,
                "name": "E4",
                "ticks": 16080,
                "time": 43.695657999999995,
                "velocity": 0.5039370078740157
              },
              {
                "duration": 0.16304350000000056,
                "durationTicks": 60,
                "midi": 64,
                "name": "E4",
                "ticks": 16380,
                "time": 44.5108755,
                "velocity": 0.5039370078740157
              },
              {
                "duration": 0.16304349999999346,
                "durationTicks": 60,
                "midi": 69,
                "name": "A4",
                "ticks": 16440,
                "time": 44.673919,
                "velocity": 0.5039370078740157
              },
              {
                "duration": 0.16304350000000056,
                "durationTicks": 60,
                "midi": 72,
                "name": "C5",
                "ticks": 16500,
                "time": 44.83696249999999,
                "velocity": 0.5039370078740157
              },
              {
                "duration": 0.16304350000000056,
                "durationTicks": 60,
                "midi": 71,
                "name": "B4",
                "ticks": 16560,
                "time": 45.00000599999999,
                "velocity": 0.5039370078740157
              },
              {
                "duration": 0.16304350000000056,
                "durationTicks": 60,
                "midi": 64,
                "name": "E4",
                "ticks": 16620,
                "time": 45.16304949999999,
                "velocity": 0.5039370078740157
              },
              {
                "duration": 0.16304350000000056,
                "durationTicks": 60,
                "midi": 71,
                "name": "B4",
                "ticks": 16680,
                "time": 45.32609299999999,
                "velocity": 0.5039370078740157
              },
              {
                "duration": 0.16304350000000056,
                "durationTicks": 60,
                "midi": 74,
                "name": "D5",
                "ticks": 16740,
                "time": 45.489136499999994,
                "velocity": 0.5039370078740157
              },
              {
                "duration": 0.3260870000000011,
                "durationTicks": 120,
                "midi": 72,
                "name": "C5",
                "ticks": 16800,
                "time": 45.652179999999994,
                "velocity": 0.5039370078740157
              },
              {
                "duration": 0.3260870000000011,
                "durationTicks": 120,
                "midi": 69,
                "name": "A4",
                "ticks": 16920,
                "time": 45.978266999999995,
                "velocity": 0.5039370078740157
              },
              {
                "duration": 0.3260870000000011,
                "durationTicks": 120,
                "midi": 68,
                "name": "G#4",
                "ticks": 17040,
                "time": 46.304354,
                "velocity": 0.5039370078740157
              },
              {
                "duration": 0.326086999999994,
                "durationTicks": 120,
                "midi": 64,
                "name": "E4",
                "ticks": 17160,
                "time": 46.630441,
                "velocity": 0.5039370078740157
              },
              {
                "duration": 0.16304350000000056,
                "durationTicks": 60,
                "midi": 69,
                "name": "A4",
                "ticks": 17280,
                "time": 46.95652799999999,
                "velocity": 0.5039370078740157
              },
              {
                "duration": 0.16304350000000056,
                "durationTicks": 60,
                "midi": 72,
                "name": "C5",
                "ticks": 17340,
                "time": 47.11957149999999,
                "velocity": 0.5039370078740157
              },
              {
                "duration": 0.16304350000000056,
                "durationTicks": 60,
                "midi": 76,
                "name": "E5",
                "ticks": 17400,
                "time": 47.28261499999999,
                "velocity": 0.5039370078740157
              },
              {
                "duration": 0.16304350000000056,
                "durationTicks": 60,
                "midi": 72,
                "name": "C5",
                "ticks": 17460,
                "time": 47.44565849999999,
                "velocity": 0.5039370078740157
              },
              {
                "duration": 0.16304350000000056,
                "durationTicks": 60,
                "midi": 69,
                "name": "A4",
                "ticks": 17520,
                "time": 47.608701999999994,
                "velocity": 0.5039370078740157
              },
              {
                "duration": 0.16304350000000056,
                "durationTicks": 60,
                "midi": 72,
                "name": "C5",
                "ticks": 17580,
                "time": 47.771745499999994,
                "velocity": 0.5039370078740157
              },
              {
                "duration": 0.16304350000000056,
                "durationTicks": 60,
                "midi": 66,
                "name": "F#4",
                "ticks": 17640,
                "time": 47.934788999999995,
                "velocity": 0.5039370078740157
              },
              {
                "duration": 0.16304350000000056,
                "durationTicks": 60,
                "midi": 69,
                "name": "A4",
                "ticks": 17700,
                "time": 48.097832499999996,
                "velocity": 0.5039370078740157
              },
              {
                "duration": 0.16304350000000056,
                "durationTicks": 60,
                "midi": 72,
                "name": "C5",
                "ticks": 17760,
                "time": 48.260875999999996,
                "velocity": 0.5039370078740157
              },
              {
                "duration": 0.16304350000000056,
                "durationTicks": 60,
                "midi": 69,
                "name": "A4",
                "ticks": 17820,
                "time": 48.4239195,
                "velocity": 0.5039370078740157
              },
              {
                "duration": 0.16304349999999346,
                "durationTicks": 60,
                "midi": 66,
                "name": "F#4",
                "ticks": 17880,
                "time": 48.586963,
                "velocity": 0.5039370078740157
              },
              {
                "duration": 0.16304350000000056,
                "durationTicks": 60,
                "midi": 69,
                "name": "A4",
                "ticks": 17940,
                "time": 48.75000649999999,
                "velocity": 0.5039370078740157
              },
              {
                "duration": 0.16304350000000056,
                "durationTicks": 60,
                "midi": 63,
                "name": "D#4",
                "ticks": 18000,
                "time": 48.91304999999999,
                "velocity": 0.5039370078740157
              },
              {
                "duration": 0.16304350000000056,
                "durationTicks": 60,
                "midi": 72,
                "name": "C5",
                "ticks": 18060,
                "time": 49.07609349999999,
                "velocity": 0.5039370078740157
              },
              {
                "duration": 0.16304350000000056,
                "durationTicks": 60,
                "midi": 71,
                "name": "B4",
                "ticks": 18120,
                "time": 49.23913699999999,
                "velocity": 0.5039370078740157
              },
              {
                "duration": 0.16304350000000056,
                "durationTicks": 60,
                "midi": 69,
                "name": "A4",
                "ticks": 18180,
                "time": 49.40218049999999,
                "velocity": 0.5039370078740157
              },
              {
                "duration": 0.16304350000000056,
                "durationTicks": 60,
                "midi": 68,
                "name": "G#4",
                "ticks": 18240,
                "time": 49.56522399999999,
                "velocity": 0.5039370078740157
              },
              {
                "duration": 0.16304350000000056,
                "durationTicks": 60,
                "midi": 71,
                "name": "B4",
                "ticks": 18300,
                "time": 49.728267499999994,
                "velocity": 0.5039370078740157
              },
              {
                "duration": 0.16304350000000056,
                "durationTicks": 60,
                "midi": 74,
                "name": "D5",
                "ticks": 18360,
                "time": 49.891310999999995,
                "velocity": 0.5039370078740157
              },
              {
                "duration": 0.16304350000000056,
                "durationTicks": 60,
                "midi": 71,
                "name": "B4",
                "ticks": 18420,
                "time": 50.054354499999995,
                "velocity": 0.5039370078740157
              },
              {
                "duration": 0.16304350000000056,
                "durationTicks": 60,
                "midi": 68,
                "name": "G#4",
                "ticks": 18480,
                "time": 50.217397999999996,
                "velocity": 0.5039370078740157
              },
              {
                "duration": 0.16304350000000056,
                "durationTicks": 60,
                "midi": 71,
                "name": "B4",
                "ticks": 18540,
                "time": 50.380441499999996,
                "velocity": 0.5039370078740157
              },
              {
                "duration": 0.16304349999999346,
                "durationTicks": 60,
                "midi": 62,
                "name": "D4",
                "ticks": 18600,
                "time": 50.543485,
                "velocity": 0.5039370078740157
              },
              {
                "duration": 0.16304350000000056,
                "durationTicks": 60,
                "midi": 65,
                "name": "F4",
                "ticks": 18660,
                "time": 50.70652849999999,
                "velocity": 0.5039370078740157
              },
              {
                "duration": 0.16304350000000056,
                "durationTicks": 60,
                "midi": 68,
                "name": "G#4",
                "ticks": 18720,
                "time": 50.86957199999999,
                "velocity": 0.5039370078740157
              },
              {
                "duration": 0.16304350000000056,
                "durationTicks": 60,
                "midi": 65,
                "name": "F4",
                "ticks": 18780,
                "time": 51.03261549999999,
                "velocity": 0.5039370078740157
              },
              {
                "duration": 0.16304350000000056,
                "durationTicks": 60,
                "midi": 62,
                "name": "D4",
                "ticks": 18840,
                "time": 51.19565899999999,
                "velocity": 0.5039370078740157
              },
              {
                "duration": 0.16304350000000056,
                "durationTicks": 60,
                "midi": 65,
                "name": "F4",
                "ticks": 18900,
                "time": 51.35870249999999,
                "velocity": 0.5039370078740157
              },
              {
                "duration": 0.16304350000000056,
                "durationTicks": 60,
                "midi": 59,
                "name": "B3",
                "ticks": 18960,
                "time": 51.52174599999999,
                "velocity": 0.5039370078740157
              },
              {
                "duration": 0.16304350000000056,
                "durationTicks": 60,
                "midi": 65,
                "name": "F4",
                "ticks": 19020,
                "time": 51.684789499999994,
                "velocity": 0.5039370078740157
              },
              {
                "duration": 0.16304350000000056,
                "durationTicks": 60,
                "midi": 64,
                "name": "E4",
                "ticks": 19080,
                "time": 51.847832999999994,
                "velocity": 0.5039370078740157
              },
              {
                "duration": 0.16304350000000056,
                "durationTicks": 60,
                "midi": 62,
                "name": "D4",
                "ticks": 19140,
                "time": 52.010876499999995,
                "velocity": 0.5039370078740157
              },
              {
                "duration": 0.16304350000000056,
                "durationTicks": 60,
                "midi": 60,
                "name": "C4",
                "ticks": 19200,
                "time": 52.173919999999995,
                "velocity": 0.5039370078740157
              },
              {
                "duration": 0.16304350000000056,
                "durationTicks": 60,
                "midi": 64,
                "name": "E4",
                "ticks": 19260,
                "time": 52.336963499999996,
                "velocity": 0.5039370078740157
              },
              {
                "duration": 0.16304350000000056,
                "durationTicks": 60,
                "midi": 69,
                "name": "A4",
                "ticks": 19320,
                "time": 52.500007,
                "velocity": 0.5039370078740157
              },
              {
                "duration": 0.16304349999999346,
                "durationTicks": 60,
                "midi": 64,
                "name": "E4",
                "ticks": 19380,
                "time": 52.6630505,
                "velocity": 0.5039370078740157
              },
              {
                "duration": 0.16304350000000056,
                "durationTicks": 60,
                "midi": 60,
                "name": "C4",
                "ticks": 19440,
                "time": 52.82609399999999,
                "velocity": 0.5039370078740157
              },
              {
                "duration": 0.16304350000000056,
                "durationTicks": 60,
                "midi": 64,
                "name": "E4",
                "ticks": 19500,
                "time": 52.98913749999999,
                "velocity": 0.5039370078740157
              },
              {
                "duration": 0.16304350000000056,
                "durationTicks": 60,
                "midi": 57,
                "name": "A3",
                "ticks": 19560,
                "time": 53.15218099999999,
                "velocity": 0.5039370078740157
              },
              {
                "duration": 0.16304350000000056,
                "durationTicks": 60,
                "midi": 60,
                "name": "C4",
                "ticks": 19620,
                "time": 53.31522449999999,
                "velocity": 0.5039370078740157
              },
              {
                "duration": 0.16304350000000056,
                "durationTicks": 60,
                "midi": 63,
                "name": "D#4",
                "ticks": 19680,
                "time": 53.47826799999999,
                "velocity": 0.5039370078740157
              },
              {
                "duration": 0.16304350000000056,
                "durationTicks": 60,
                "midi": 60,
                "name": "C4",
                "ticks": 19740,
                "time": 53.64131149999999,
                "velocity": 0.5039370078740157
              },
              {
                "duration": 0.16304350000000056,
                "durationTicks": 60,
                "midi": 57,
                "name": "A3",
                "ticks": 19800,
                "time": 53.804354999999994,
                "velocity": 0.5039370078740157
              },
              {
                "duration": 0.16304350000000056,
                "durationTicks": 60,
                "midi": 60,
                "name": "C4",
                "ticks": 19860,
                "time": 53.967398499999994,
                "velocity": 0.5039370078740157
              },
              {
                "duration": 0.16304350000000056,
                "durationTicks": 60,
                "midi": 54,
                "name": "F#3",
                "ticks": 19920,
                "time": 54.130441999999995,
                "velocity": 0.5039370078740157
              },
              {
                "duration": 0.16304350000000056,
                "durationTicks": 60,
                "midi": 60,
                "name": "C4",
                "ticks": 19980,
                "time": 54.293485499999996,
                "velocity": 0.5039370078740157
              },
              {
                "duration": 0.16304350000000056,
                "durationTicks": 60,
                "midi": 59,
                "name": "B3",
                "ticks": 20040,
                "time": 54.456528999999996,
                "velocity": 0.5039370078740157
              },
              {
                "duration": 0.16304349999999346,
                "durationTicks": 60,
                "midi": 57,
                "name": "A3",
                "ticks": 20100,
                "time": 54.6195725,
                "velocity": 0.5039370078740157
              },
              {
                "duration": 0.3260870000000011,
                "durationTicks": 120,
                "midi": 56,
                "name": "G#3",
                "ticks": 20160,
                "time": 54.78261599999999,
                "velocity": 0.5039370078740157
              },
              {
                "duration": 0.3260870000000011,
                "durationTicks": 120,
                "midi": 71,
                "name": "B4",
                "ticks": 20280,
                "time": 55.10870299999999,
                "velocity": 0.5039370078740157
              },
              {
                "duration": 0.3260870000000011,
                "durationTicks": 120,
                "midi": 68,
                "name": "G#4",
                "ticks": 20400,
                "time": 55.43478999999999,
                "velocity": 0.5039370078740157
              },
              {
                "duration": 0.3260870000000011,
                "durationTicks": 120,
                "midi": 64,
                "name": "E4",
                "ticks": 20520,
                "time": 55.760876999999994,
                "velocity": 0.5039370078740157
              },
              {
                "duration": 0.16304350000000056,
                "durationTicks": 60,
                "midi": 64,
                "name": "E4",
                "ticks": 20700,
                "time": 56.250007499999995,
                "velocity": 0.5039370078740157
              },
              {
                "duration": 0.16304350000000056,
                "durationTicks": 60,
                "midi": 69,
                "name": "A4",
                "ticks": 20760,
                "time": 56.413050999999996,
                "velocity": 0.5039370078740157
              },
              {
                "duration": 0.16304349999999346,
                "durationTicks": 60,
                "midi": 72,
                "name": "C5",
                "ticks": 20820,
                "time": 56.576094499999996,
                "velocity": 0.5039370078740157
              },
              {
                "duration": 0.16304350000000056,
                "durationTicks": 60,
                "midi": 71,
                "name": "B4",
                "ticks": 20880,
                "time": 56.73913799999999,
                "velocity": 0.5039370078740157
              },
              {
                "duration": 0.16304350000000056,
                "durationTicks": 60,
                "midi": 64,
                "name": "E4",
                "ticks": 20940,
                "time": 56.90218149999999,
                "velocity": 0.5039370078740157
              },
              {
                "duration": 0.16304350000000056,
                "durationTicks": 60,
                "midi": 71,
                "name": "B4",
                "ticks": 21000,
                "time": 57.06522499999999,
                "velocity": 0.5039370078740157
              },
              {
                "duration": 0.16304350000000056,
                "durationTicks": 60,
                "midi": 74,
                "name": "D5",
                "ticks": 21060,
                "time": 57.22826849999999,
                "velocity": 0.5039370078740157
              },
              {
                "duration": 0.16304350000000056,
                "durationTicks": 60,
                "midi": 72,
                "name": "C5",
                "ticks": 21120,
                "time": 57.39131199999999,
                "velocity": 0.5039370078740157
              },
              {
                "duration": 0.16304350000000056,
                "durationTicks": 60,
                "midi": 69,
                "name": "A4",
                "ticks": 21180,
                "time": 57.55435549999999,
                "velocity": 0.5039370078740157
              },
              {
                "duration": 0.16304350000000056,
                "durationTicks": 60,
                "midi": 72,
                "name": "C5",
                "ticks": 21240,
                "time": 57.71739899999999,
                "velocity": 0.5039370078740157
              },
              {
                "duration": 0.16304350000000056,
                "durationTicks": 60,
                "midi": 76,
                "name": "E5",
                "ticks": 21300,
                "time": 57.880442499999994,
                "velocity": 0.5039370078740157
              },
              {
                "duration": 0.16304350000000056,
                "durationTicks": 60,
                "midi": 74,
                "name": "D5",
                "ticks": 21360,
                "time": 58.043485999999994,
                "velocity": 0.5039370078740157
              },
              {
                "duration": 0.16304350000000056,
                "durationTicks": 60,
                "midi": 71,
                "name": "B4",
                "ticks": 21420,
                "time": 58.206529499999995,
                "velocity": 0.5039370078740157
              },
              {
                "duration": 0.16304350000000056,
                "durationTicks": 60,
                "midi": 74,
                "name": "D5",
                "ticks": 21480,
                "time": 58.369572999999995,
                "velocity": 0.5039370078740157
              },
              {
                "duration": 0.16304349999999346,
                "durationTicks": 60,
                "midi": 77,
                "name": "F5",
                "ticks": 21540,
                "time": 58.532616499999996,
                "velocity": 0.5039370078740157
              },
              {
                "duration": 0.16304350000000056,
                "durationTicks": 60,
                "midi": 76,
                "name": "E5",
                "ticks": 21600,
                "time": 58.69565999999999,
                "velocity": 0.5039370078740157
              },
              {
                "duration": 0.16304350000000056,
                "durationTicks": 60,
                "midi": 72,
                "name": "C5",
                "ticks": 21660,
                "time": 58.85870349999999,
                "velocity": 0.5039370078740157
              },
              {
                "duration": 0.16304350000000056,
                "durationTicks": 60,
                "midi": 76,
                "name": "E5",
                "ticks": 21720,
                "time": 59.02174699999999,
                "velocity": 0.5039370078740157
              },
              {
                "duration": 0.16304350000000056,
                "durationTicks": 60,
                "midi": 79,
                "name": "G5",
                "ticks": 21780,
                "time": 59.18479049999999,
                "velocity": 0.5039370078740157
              },
              {
                "duration": 0.16304350000000056,
                "durationTicks": 60,
                "midi": 77,
                "name": "F5",
                "ticks": 21840,
                "time": 59.34783399999999,
                "velocity": 0.5039370078740157
              },
              {
                "duration": 0.16304350000000056,
                "durationTicks": 60,
                "midi": 76,
                "name": "E5",
                "ticks": 21900,
                "time": 59.51087749999999,
                "velocity": 0.5039370078740157
              },
              {
                "duration": 0.16304350000000056,
                "durationTicks": 60,
                "midi": 74,
                "name": "D5",
                "ticks": 21960,
                "time": 59.67392099999999,
                "velocity": 0.5039370078740157
              },
              {
                "duration": 0.16304350000000056,
                "durationTicks": 60,
                "midi": 72,
                "name": "C5",
                "ticks": 22020,
                "time": 59.83696449999999,
                "velocity": 0.5039370078740157
              },
              {
                "duration": 0.16304350000000056,
                "durationTicks": 60,
                "midi": 71,
                "name": "B4",
                "ticks": 22080,
                "time": 60.000007999999994,
                "velocity": 0.5039370078740157
              },
              {
                "duration": 0.16304350000000056,
                "durationTicks": 60,
                "midi": 72,
                "name": "C5",
                "ticks": 22140,
                "time": 60.163051499999995,
                "velocity": 0.5039370078740157
              },
              {
                "duration": 0.16304350000000056,
                "durationTicks": 60,
                "midi": 74,
                "name": "D5",
                "ticks": 22200,
                "time": 60.326094999999995,
                "velocity": 0.5039370078740157
              },
              {
                "duration": 0.16304349999999346,
                "durationTicks": 60,
                "midi": 76,
                "name": "E5",
                "ticks": 22260,
                "time": 60.489138499999996,
                "velocity": 0.5039370078740157
              },
              {
                "duration": 0.16304350000000056,
                "durationTicks": 60,
                "midi": 77,
                "name": "F5",
                "ticks": 22320,
                "time": 60.65218199999999,
                "velocity": 0.5039370078740157
              },
              {
                "duration": 0.16304350000000056,
                "durationTicks": 60,
                "midi": 74,
                "name": "D5",
                "ticks": 22380,
                "time": 60.81522549999999,
                "velocity": 0.5039370078740157
              },
              {
                "duration": 0.16304350000000056,
                "durationTicks": 60,
                "midi": 80,
                "name": "G#5",
                "ticks": 22440,
                "time": 60.97826899999999,
                "velocity": 0.5039370078740157
              },
              {
                "duration": 0.16304350000000056,
                "durationTicks": 60,
                "midi": 74,
                "name": "D5",
                "ticks": 22500,
                "time": 61.14131249999999,
                "velocity": 0.5039370078740157
              },
              {
                "duration": 0.16304350000000056,
                "durationTicks": 60,
                "midi": 83,
                "name": "B5",
                "ticks": 22560,
                "time": 61.30435599999999,
                "velocity": 0.5039370078740157
              },
              {
                "duration": 0.16304350000000056,
                "durationTicks": 60,
                "midi": 74,
                "name": "D5",
                "ticks": 22620,
                "time": 61.46739949999999,
                "velocity": 0.5039370078740157
              },
              {
                "duration": 0.16304350000000056,
                "durationTicks": 60,
                "midi": 72,
                "name": "C5",
                "ticks": 22680,
                "time": 61.63044299999999,
                "velocity": 0.5039370078740157
              },
              {
                "duration": 0.16304350000000056,
                "durationTicks": 60,
                "midi": 81,
                "name": "A5",
                "ticks": 22740,
                "time": 61.79348649999999,
                "velocity": 0.5039370078740157
              },
              {
                "duration": 0.16304350000000056,
                "durationTicks": 60,
                "midi": 77,
                "name": "F5",
                "ticks": 22800,
                "time": 61.956529999999994,
                "velocity": 0.5039370078740157
              },
              {
                "duration": 0.16304350000000056,
                "durationTicks": 60,
                "midi": 74,
                "name": "D5",
                "ticks": 22860,
                "time": 62.119573499999994,
                "velocity": 0.5039370078740157
              },
              {
                "duration": 0.16304350000000056,
                "durationTicks": 60,
                "midi": 71,
                "name": "B4",
                "ticks": 22920,
                "time": 62.282616999999995,
                "velocity": 0.5039370078740157
              },
              {
                "duration": 0.16304349999999346,
                "durationTicks": 60,
                "midi": 74,
                "name": "D5",
                "ticks": 22980,
                "time": 62.445660499999995,
                "velocity": 0.5039370078740157
              },
              {
                "duration": 0.16304350000000056,
                "durationTicks": 60,
                "midi": 68,
                "name": "G#4",
                "ticks": 23040,
                "time": 62.60870399999999,
                "velocity": 0.5039370078740157
              },
              {
                "duration": 0.16304350000000056,
                "durationTicks": 60,
                "midi": 71,
                "name": "B4",
                "ticks": 23100,
                "time": 62.77174749999999,
                "velocity": 0.5039370078740157
              },
              {
                "duration": 0.16304350000000056,
                "durationTicks": 60,
                "midi": 72,
                "name": "C5",
                "ticks": 23160,
                "time": 62.93479099999999,
                "velocity": 0.5039370078740157
              },
              {
                "duration": 0.16304350000000056,
                "durationTicks": 60,
                "midi": 69,
                "name": "A4",
                "ticks": 23220,
                "time": 63.09783449999999,
                "velocity": 0.5039370078740157
              },
              {
                "duration": 0.16304350000000056,
                "durationTicks": 60,
                "midi": 64,
                "name": "E4",
                "ticks": 23280,
                "time": 63.26087799999999,
                "velocity": 0.5039370078740157
              },
              {
                "duration": 0.16304350000000056,
                "durationTicks": 60,
                "midi": 69,
                "name": "A4",
                "ticks": 23340,
                "time": 63.42392149999999,
                "velocity": 0.5039370078740157
              },
              {
                "duration": 0.16304350000000056,
                "durationTicks": 60,
                "midi": 71,
                "name": "B4",
                "ticks": 23400,
                "time": 63.58696499999999,
                "velocity": 0.5039370078740157
              },
              {
                "duration": 0.16304350000000056,
                "durationTicks": 60,
                "midi": 68,
                "name": "G#4",
                "ticks": 23460,
                "time": 63.75000849999999,
                "velocity": 0.5039370078740157
              },
              {
                "duration": 0.16304350000000056,
                "durationTicks": 60,
                "midi": 69,
                "name": "A4",
                "ticks": 23520,
                "time": 63.91305199999999,
                "velocity": 0.5039370078740157
              },
              {
                "duration": 0.16304350000000056,
                "durationTicks": 60,
                "midi": 64,
                "name": "E4",
                "ticks": 23580,
                "time": 64.0760955,
                "velocity": 0.5039370078740157
              },
              {
                "duration": 0.16304350000000056,
                "durationTicks": 60,
                "midi": 60,
                "name": "C4",
                "ticks": 23640,
                "time": 64.239139,
                "velocity": 0.5039370078740157
              },
              {
                "duration": 0.16304350000000056,
                "durationTicks": 60,
                "midi": 64,
                "name": "E4",
                "ticks": 23700,
                "time": 64.4021825,
                "velocity": 0.5039370078740157
              },
              {
                "duration": 1.9565219999999925,
                "durationTicks": 720,
                "midi": 57,
                "name": "A3",
                "ticks": 23760,
                "time": 64.565226,
                "velocity": 0.5039370078740157
              }
            ],
            "endOfTrackTicks": 24480
          },
          {
            "channel": 1,
            "controlChanges": {},
            "pitchBends": [],
            "instrument": {
              "family": "piano",
              "number": 0,
              "name": "acoustic grand piano"
            },
            "name": "",
            "notes": [
              {
                "duration": 0.32608699999999996,
                "durationTicks": 120,
                "midi": 45,
                "name": "A2",
                "ticks": 0,
                "time": 0,
                "velocity": 0.5039370078740157
              },
              {
                "duration": 0.6521739999999998,
                "durationTicks": 240,
                "midi": 57,
                "name": "A3",
                "ticks": 120,
                "time": 0.32608699999999996,
                "velocity": 0.5039370078740157
              },
              {
                "duration": 0.326087,
                "durationTicks": 120,
                "midi": 56,
                "name": "G#3",
                "ticks": 360,
                "time": 0.9782609999999998,
                "velocity": 0.5039370078740157
              },
              {
                "duration": 0.1630434999999999,
                "durationTicks": 60,
                "midi": 57,
                "name": "A3",
                "ticks": 480,
                "time": 1.3043479999999998,
                "velocity": 0.5039370078740157
              },
              {
                "duration": 0.16304350000000012,
                "durationTicks": 60,
                "midi": 52,
                "name": "E3",
                "ticks": 540,
                "time": 1.4673914999999997,
                "velocity": 0.5039370078740157
              },
              {
                "duration": 0.1630434999999999,
                "durationTicks": 60,
                "midi": 57,
                "name": "A3",
                "ticks": 600,
                "time": 1.6304349999999999,
                "velocity": 0.5039370078740157
              },
              {
                "duration": 0.1630434999999999,
                "durationTicks": 60,
                "midi": 60,
                "name": "C4",
                "ticks": 660,
                "time": 1.7934784999999998,
                "velocity": 0.5039370078740157
              },
              {
                "duration": 0.16304350000000012,
                "durationTicks": 60,
                "midi": 59,
                "name": "B3",
                "ticks": 720,
                "time": 1.9565219999999997,
                "velocity": 0.5039370078740157
              },
              {
                "duration": 0.16304350000000012,
                "durationTicks": 60,
                "midi": 52,
                "name": "E3",
                "ticks": 780,
                "time": 2.1195654999999998,
                "velocity": 0.5039370078740157
              },
              {
                "duration": 0.16304349999999967,
                "durationTicks": 60,
                "midi": 59,
                "name": "B3",
                "ticks": 840,
                "time": 2.282609,
                "velocity": 0.5039370078740157
              },
              {
                "duration": 0.16304350000000012,
                "durationTicks": 60,
                "midi": 62,
                "name": "D4",
                "ticks": 900,
                "time": 2.4456524999999996,
                "velocity": 0.5039370078740157
              },
              {
                "duration": 0.3260869999999998,
                "durationTicks": 120,
                "midi": 60,
                "name": "C4",
                "ticks": 960,
                "time": 2.6086959999999997,
                "velocity": 0.5039370078740157
              },
              {
                "duration": 0.32608700000000024,
                "durationTicks": 120,
                "midi": 57,
                "name": "A3",
                "ticks": 1080,
                "time": 2.9347829999999995,
                "velocity": 0.5039370078740157
              },
              {
                "duration": 0.3260869999999998,
                "durationTicks": 120,
                "midi": 56,
                "name": "G#3",
                "ticks": 1200,
                "time": 3.2608699999999997,
                "velocity": 0.5039370078740157
              },
              {
                "duration": 0.3260869999999998,
                "durationTicks": 120,
                "midi": 52,
                "name": "E3",
                "ticks": 1320,
                "time": 3.5869569999999995,
                "velocity": 0.5039370078740157
              },
              {
                "duration": 0.16304350000000056,
                "durationTicks": 60,
                "midi": 57,
                "name": "A3",
                "ticks": 1440,
                "time": 3.9130439999999993,
                "velocity": 0.5039370078740157
              },
              {
                "duration": 0.16304349999999967,
                "durationTicks": 60,
                "midi": 52,
                "name": "E3",
                "ticks": 1500,
                "time": 4.0760875,
                "velocity": 0.5039370078740157
              },
              {
                "duration": 0.16304349999999967,
                "durationTicks": 60,
                "midi": 57,
                "name": "A3",
                "ticks": 1560,
                "time": 4.2391309999999995,
                "velocity": 0.5039370078740157
              },
              {
                "duration": 0.16304350000000056,
                "durationTicks": 60,
                "midi": 60,
                "name": "C4",
                "ticks": 1620,
                "time": 4.402174499999999,
                "velocity": 0.5039370078740157
              },
              {
                "duration": 0.16304349999999967,
                "durationTicks": 60,
                "midi": 59,
                "name": "B3",
                "ticks": 1680,
                "time": 4.565218,
                "velocity": 0.5039370078740157
              },
              {
                "duration": 0.16304349999999967,
                "durationTicks": 60,
                "midi": 52,
                "name": "E3",
                "ticks": 1740,
                "time": 4.7282614999999995,
                "velocity": 0.5039370078740157
              },
              {
                "duration": 0.16304350000000056,
                "durationTicks": 60,
                "midi": 59,
                "name": "B3",
                "ticks": 1800,
                "time": 4.891304999999999,
                "velocity": 0.5039370078740157
              },
              {
                "duration": 0.16304349999999967,
                "durationTicks": 60,
                "midi": 62,
                "name": "D4",
                "ticks": 1860,
                "time": 5.0543485,
                "velocity": 0.5039370078740157
              },
              {
                "duration": 0.32608700000000024,
                "durationTicks": 120,
                "midi": 60,
                "name": "C4",
                "ticks": 1920,
                "time": 5.217391999999999,
                "velocity": 0.5039370078740157
              },
              {
                "duration": 0.32608699999999935,
                "durationTicks": 120,
                "midi": 57,
                "name": "A3",
                "ticks": 2040,
                "time": 5.543479,
                "velocity": 0.5039370078740157
              },
              {
                "duration": 0.32608700000000024,
                "durationTicks": 120,
                "midi": 60,
                "name": "C4",
                "ticks": 2160,
                "time": 5.869565999999999,
                "velocity": 0.5039370078740157
              },
              {
                "duration": 0.32608700000000024,
                "durationTicks": 120,
                "midi": 57,
                "name": "A3",
                "ticks": 2280,
                "time": 6.195652999999999,
                "velocity": 0.5039370078740157
              },
              {
                "duration": 0.16304349999999967,
                "durationTicks": 60,
                "midi": 62,
                "name": "D4",
                "ticks": 2400,
                "time": 6.521739999999999,
                "velocity": 0.5039370078740157
              },
              {
                "duration": 0.16304349999999967,
                "durationTicks": 60,
                "midi": 57,
                "name": "A3",
                "ticks": 2460,
                "time": 6.684783499999999,
                "velocity": 0.5039370078740157
              },
              {
                "duration": 0.16304350000000056,
                "durationTicks": 60,
                "midi": 53,
                "name": "F3",
                "ticks": 2520,
                "time": 6.847826999999999,
                "velocity": 0.5039370078740157
              },
              {
                "duration": 0.16304349999999967,
                "durationTicks": 60,
                "midi": 57,
                "name": "A3",
                "ticks": 2580,
                "time": 7.010870499999999,
                "velocity": 0.5039370078740157
              },
              {
                "duration": 0.16304349999999967,
                "durationTicks": 60,
                "midi": 50,
                "name": "D3",
                "ticks": 2640,
                "time": 7.173913999999999,
                "velocity": 0.5039370078740157
              },
              {
                "duration": 0.16304350000000056,
                "durationTicks": 60,
                "midi": 53,
                "name": "F3",
                "ticks": 2700,
                "time": 7.336957499999999,
                "velocity": 0.5039370078740157
              },
              {
                "duration": 0.16304349999999967,
                "durationTicks": 60,
                "midi": 45,
                "name": "A2",
                "ticks": 2760,
                "time": 7.500000999999999,
                "velocity": 0.5039370078740157
              },
              {
                "duration": 0.16304349999999967,
                "durationTicks": 60,
                "midi": 48,
                "name": "C3",
                "ticks": 2820,
                "time": 7.663044499999999,
                "velocity": 0.5039370078740157
              },
              {
                "duration": 0.3260870000000011,
                "durationTicks": 120,
                "midi": 47,
                "name": "B2",
                "ticks": 2880,
                "time": 7.826087999999999,
                "velocity": 0.5039370078740157
              },
              {
                "duration": 0.32608699999999935,
                "durationTicks": 120,
                "midi": 50,
                "name": "D3",
                "ticks": 3000,
                "time": 8.152175,
                "velocity": 0.5039370078740157
              },
              {
                "duration": 0.32608699999999935,
                "durationTicks": 120,
                "midi": 55,
                "name": "G3",
                "ticks": 3120,
                "time": 8.478261999999999,
                "velocity": 0.5039370078740157
              },
              {
                "duration": 0.4891304999999999,
                "durationTicks": 180,
                "midi": 59,
                "name": "B3",
                "ticks": 3240,
                "time": 8.804348999999998,
                "velocity": 0.5039370078740157
              },
              {
                "duration": 0.16304350000000056,
                "durationTicks": 60,
                "midi": 55,
                "name": "G3",
                "ticks": 3420,
                "time": 9.293479499999998,
                "velocity": 0.5039370078740157
              },
              {
                "duration": 0.16304350000000056,
                "durationTicks": 60,
                "midi": 52,
                "name": "E3",
                "ticks": 3480,
                "time": 9.456522999999999,
                "velocity": 0.5039370078740157
              },
              {
                "duration": 0.1630434999999988,
                "durationTicks": 60,
                "midi": 55,
                "name": "G3",
                "ticks": 3540,
                "time": 9.6195665,
                "velocity": 0.5039370078740157
              },
              {
                "duration": 0.16304350000000056,
                "durationTicks": 60,
                "midi": 48,
                "name": "C3",
                "ticks": 3600,
                "time": 9.782609999999998,
                "velocity": 0.5039370078740157
              },
              {
                "duration": 0.16304350000000056,
                "durationTicks": 60,
                "midi": 52,
                "name": "E3",
                "ticks": 3660,
                "time": 9.945653499999999,
                "velocity": 0.5039370078740157
              },
              {
                "duration": 0.1630434999999988,
                "durationTicks": 60,
                "midi": 43,
                "name": "G2",
                "ticks": 3720,
                "time": 10.108697,
                "velocity": 0.5039370078740157
              },
              {
                "duration": 0.16304350000000056,
                "durationTicks": 60,
                "midi": 47,
                "name": "B2",
                "ticks": 3780,
                "time": 10.271740499999998,
                "velocity": 0.5039370078740157
              },
              {
                "duration": 0.32608699999999935,
                "durationTicks": 120,
                "midi": 45,
                "name": "A2",
                "ticks": 3840,
                "time": 10.434783999999999,
                "velocity": 0.5039370078740157
              },
              {
                "duration": 0.3260870000000011,
                "durationTicks": 120,
                "midi": 48,
                "name": "C3",
                "ticks": 3960,
                "time": 10.760870999999998,
                "velocity": 0.5039370078740157
              },
              {
                "duration": 0.1630434999999988,
                "durationTicks": 60,
                "midi": 50,
                "name": "D3",
                "ticks": 4080,
                "time": 11.086958,
                "velocity": 0.5039370078740157
              },
              {
                "duration": 0.16304350000000056,
                "durationTicks": 60,
                "midi": 53,
                "name": "F3",
                "ticks": 4140,
                "time": 11.250001499999998,
                "velocity": 0.5039370078740157
              },
              {
                "duration": 0.16304350000000056,
                "durationTicks": 60,
                "midi": 47,
                "name": "B2",
                "ticks": 4200,
                "time": 11.413044999999999,
                "velocity": 0.5039370078740157
              },
              {
                "duration": 0.1630434999999988,
                "durationTicks": 60,
                "midi": 50,
                "name": "D3",
                "ticks": 4260,
                "time": 11.5760885,
                "velocity": 0.5039370078740157
              },
              {
                "duration": 0.3260870000000011,
                "durationTicks": 120,
                "midi": 43,
                "name": "G2",
                "ticks": 4320,
                "time": 11.739131999999998,
                "velocity": 0.5039370078740157
              },
              {
                "duration": 0.32608699999999935,
                "durationTicks": 120,
                "midi": 47,
                "name": "B2",
                "ticks": 4440,
                "time": 12.065218999999999,
                "velocity": 0.5039370078740157
              },
              {
                "duration": 0.16304350000000056,
                "durationTicks": 60,
                "midi": 48,
                "name": "C3",
                "ticks": 4560,
                "time": 12.391305999999998,
                "velocity": 0.5039370078740157
              },
              {
                "duration": 0.1630434999999988,
                "durationTicks": 60,
                "midi": 52,
                "name": "E3",
                "ticks": 4620,
                "time": 12.554349499999999,
                "velocity": 0.5039370078740157
              },
              {
                "duration": 0.16304350000000056,
                "durationTicks": 60,
                "midi": 45,
                "name": "A2",
                "ticks": 4680,
                "time": 12.717392999999998,
                "velocity": 0.5039370078740157
              },
              {
                "duration": 0.16304350000000056,
                "durationTicks": 60,
                "midi": 48,
                "name": "C3",
                "ticks": 4740,
                "time": 12.880436499999998,
                "velocity": 0.5039370078740157
              },
              {
                "duration": 0.32608699999999935,
                "durationTicks": 120,
                "midi": 41,
                "name": "F2",
                "ticks": 4800,
                "time": 13.043479999999999,
                "velocity": 0.5039370078740157
              },
              {
                "duration": 0.32608699999999935,
                "durationTicks": 120,
                "midi": 38,
                "name": "D2",
                "ticks": 4920,
                "time": 13.369566999999998,
                "velocity": 0.5039370078740157
              },
              {
                "duration": 0.1358695833333332,
                "durationTicks": 50,
                "midi": 43,
                "name": "G2",
                "ticks": 5040,
                "time": 13.695653999999998,
                "velocity": 0.5039370078740157
              },
              {
                "duration": 0.16304350000000056,
                "durationTicks": 60,
                "midi": 55,
                "name": "G3",
                "ticks": 5100,
                "time": 13.858697499999998,
                "velocity": 0.5039370078740157
              },
              {
                "duration": 0.1630434999999988,
                "durationTicks": 60,
                "midi": 53,
                "name": "F3",
                "ticks": 5160,
                "time": 14.021740999999999,
                "velocity": 0.5039370078740157
              },
              {
                "duration": 0.16304350000000056,
                "durationTicks": 60,
                "midi": 55,
                "name": "G3",
                "ticks": 5220,
                "time": 14.184784499999997,
                "velocity": 0.5039370078740157
              },
              {
                "duration": 0.1358695833333332,
                "durationTicks": 50,
                "midi": 48,
                "name": "C3",
                "ticks": 5280,
                "time": 14.347827999999998,
                "velocity": 0.5039370078740157
              },
              {
                "duration": 0.1630434999999988,
                "durationTicks": 60,
                "midi": 55,
                "name": "G3",
                "ticks": 5340,
                "time": 14.510871499999999,
                "velocity": 0.5039370078740157
              },
              {
                "duration": 0.16304350000000056,
                "durationTicks": 60,
                "midi": 60,
                "name": "C4",
                "ticks": 5400,
                "time": 14.673914999999997,
                "velocity": 0.5039370078740157
              },
              {
                "duration": 0.16304350000000056,
                "durationTicks": 60,
                "midi": 64,
                "name": "E4",
                "ticks": 5460,
                "time": 14.836958499999998,
                "velocity": 0.5039370078740157
              },
              {
                "duration": 0.1630434999999988,
                "durationTicks": 60,
                "midi": 62,
                "name": "D4",
                "ticks": 5520,
                "time": 15.000001999999999,
                "velocity": 0.5039370078740157
              },
              {
                "duration": 0.16304350000000056,
                "durationTicks": 60,
                "midi": 55,
                "name": "G3",
                "ticks": 5580,
                "time": 15.163045499999997,
                "velocity": 0.5039370078740157
              },
              {
                "duration": 0.16304350000000056,
                "durationTicks": 60,
                "midi": 62,
                "name": "D4",
                "ticks": 5640,
                "time": 15.326088999999998,
                "velocity": 0.5039370078740157
              },
              {
                "duration": 0.1630434999999988,
                "durationTicks": 60,
                "midi": 65,
                "name": "F4",
                "ticks": 5700,
                "time": 15.489132499999998,
                "velocity": 0.5039370078740157
              },
              {
                "duration": 0.3260870000000011,
                "durationTicks": 120,
                "midi": 64,
                "name": "E4",
                "ticks": 5760,
                "time": 15.652175999999997,
                "velocity": 0.5039370078740157
              },
              {
                "duration": 0.3260870000000011,
                "durationTicks": 120,
                "midi": 60,
                "name": "C4",
                "ticks": 5880,
                "time": 15.978262999999998,
                "velocity": 0.5039370078740157
              },
              {
                "duration": 0.3260869999999976,
                "durationTicks": 120,
                "midi": 59,
                "name": "B3",
                "ticks": 6000,
                "time": 16.30435,
                "velocity": 0.5039370078740157
              },
              {
                "duration": 0.3260870000000011,
                "durationTicks": 120,
                "midi": 55,
                "name": "G3",
                "ticks": 6120,
                "time": 16.630436999999997,
                "velocity": 0.5039370078740157
              },
              {
                "duration": 0.16304350000000056,
                "durationTicks": 60,
                "midi": 60,
                "name": "C4",
                "ticks": 6240,
                "time": 16.956523999999998,
                "velocity": 0.5039370078740157
              },
              {
                "duration": 0.16304350000000056,
                "durationTicks": 60,
                "midi": 55,
                "name": "G3",
                "ticks": 6300,
                "time": 17.1195675,
                "velocity": 0.5039370078740157
              },
              {
                "duration": 0.163043499999997,
                "durationTicks": 60,
                "midi": 60,
                "name": "C4",
                "ticks": 6360,
                "time": 17.282611,
                "velocity": 0.5039370078740157
              },
              {
                "duration": 0.16304350000000056,
                "durationTicks": 60,
                "midi": 64,
                "name": "E4",
                "ticks": 6420,
                "time": 17.445654499999996,
                "velocity": 0.5039370078740157
              },
              {
                "duration": 0.16304350000000056,
                "durationTicks": 60,
                "midi": 62,
                "name": "D4",
                "ticks": 6480,
                "time": 17.608697999999997,
                "velocity": 0.5039370078740157
              },
              {
                "duration": 0.16304350000000056,
                "durationTicks": 60,
                "midi": 55,
                "name": "G3",
                "ticks": 6540,
                "time": 17.771741499999997,
                "velocity": 0.5039370078740157
              },
              {
                "duration": 0.16304350000000056,
                "durationTicks": 60,
                "midi": 62,
                "name": "D4",
                "ticks": 6600,
                "time": 17.934784999999998,
                "velocity": 0.5039370078740157
              },
              {
                "duration": 0.16304350000000056,
                "durationTicks": 60,
                "midi": 65,
                "name": "F4",
                "ticks": 6660,
                "time": 18.0978285,
                "velocity": 0.5039370078740157
              },
              {
                "duration": 0.3260869999999976,
                "durationTicks": 120,
                "midi": 64,
                "name": "E4",
                "ticks": 6720,
                "time": 18.260872,
                "velocity": 0.5039370078740157
              },
              {
                "duration": 0.3260870000000011,
                "durationTicks": 120,
                "midi": 60,
                "name": "C4",
                "ticks": 6840,
                "time": 18.586958999999997,
                "velocity": 0.5039370078740157
              },
              {
                "duration": 0.16304350000000056,
                "durationTicks": 60,
                "midi": 67,
                "name": "G4",
                "ticks": 7260,
                "time": 19.728263499999997,
                "velocity": 0.5039370078740157
              },
              {
                "duration": 0.16304350000000056,
                "durationTicks": 60,
                "midi": 64,
                "name": "E4",
                "ticks": 7320,
                "time": 19.891306999999998,
                "velocity": 0.5039370078740157
              },
              {
                "duration": 0.16304350000000056,
                "durationTicks": 60,
                "midi": 67,
                "name": "G4",
                "ticks": 7380,
                "time": 20.054350499999998,
                "velocity": 0.5039370078740157
              },
              {
                "duration": 0.163043499999997,
                "durationTicks": 60,
                "midi": 60,
                "name": "C4",
                "ticks": 7440,
                "time": 20.217394,
                "velocity": 0.5039370078740157
              },
              {
                "duration": 0.16304350000000056,
                "durationTicks": 60,
                "midi": 64,
                "name": "E4",
                "ticks": 7500,
                "time": 20.380437499999996,
                "velocity": 0.5039370078740157
              },
              {
                "duration": 0.16304350000000056,
                "durationTicks": 60,
                "midi": 55,
                "name": "G3",
                "ticks": 7560,
                "time": 20.543480999999996,
                "velocity": 0.5039370078740157
              },
              {
                "duration": 0.16304350000000056,
                "durationTicks": 60,
                "midi": 59,
                "name": "B3",
                "ticks": 7620,
                "time": 20.706524499999997,
                "velocity": 0.5039370078740157
              },
              {
                "duration": 0.3260870000000011,
                "durationTicks": 120,
                "midi": 57,
                "name": "A3",
                "ticks": 7680,
                "time": 20.869567999999997,
                "velocity": 0.5039370078740157
              },
              {
                "duration": 0.3260869999999976,
                "durationTicks": 120,
                "midi": 60,
                "name": "C4",
                "ticks": 7800,
                "time": 21.195655,
                "velocity": 0.5039370078740157
              },
              {
                "duration": 0.3260870000000011,
                "durationTicks": 120,
                "midi": 64,
                "name": "E4",
                "ticks": 7920,
                "time": 21.521741999999996,
                "velocity": 0.5039370078740157
              },
              {
                "duration": 0.3260870000000011,
                "durationTicks": 120,
                "midi": 67,
                "name": "G4",
                "ticks": 8040,
                "time": 21.847828999999997,
                "velocity": 0.5039370078740157
              },
              {
                "duration": 0.16304350000000056,
                "durationTicks": 60,
                "midi": 66,
                "name": "F#4",
                "ticks": 8160,
                "time": 22.173916,
                "velocity": 0.5039370078740157
              },
              {
                "duration": 0.163043499999997,
                "durationTicks": 60,
                "midi": 69,
                "name": "A4",
                "ticks": 8220,
                "time": 22.3369595,
                "velocity": 0.5039370078740157
              },
              {
                "duration": 0.16304350000000056,
                "durationTicks": 60,
                "midi": 62,
                "name": "D4",
                "ticks": 8280,
                "time": 22.500002999999996,
                "velocity": 0.5039370078740157
              },
              {
                "duration": 0.16304350000000056,
                "durationTicks": 60,
                "midi": 66,
                "name": "F#4",
                "ticks": 8340,
                "time": 22.663046499999997,
                "velocity": 0.5039370078740157
              },
              {
                "duration": 0.16304350000000056,
                "durationTicks": 60,
                "midi": 57,
                "name": "A3",
                "ticks": 8400,
                "time": 22.826089999999997,
                "velocity": 0.5039370078740157
              },
              {
                "duration": 0.16304350000000056,
                "durationTicks": 60,
                "midi": 62,
                "name": "D4",
                "ticks": 8460,
                "time": 22.989133499999998,
                "velocity": 0.5039370078740157
              },
              {
                "duration": 0.16304350000000056,
                "durationTicks": 60,
                "midi": 54,
                "name": "F#3",
                "ticks": 8520,
                "time": 23.152177,
                "velocity": 0.5039370078740157
              },
              {
                "duration": 0.163043499999997,
                "durationTicks": 60,
                "midi": 57,
                "name": "A3",
                "ticks": 8580,
                "time": 23.3152205,
                "velocity": 0.5039370078740157
              },
              {
                "duration": 0.3260870000000011,
                "durationTicks": 120,
                "midi": 55,
                "name": "G3",
                "ticks": 8640,
                "time": 23.478263999999996,
                "velocity": 0.5039370078740157
              },
              {
                "duration": 0.3260870000000011,
                "durationTicks": 120,
                "midi": 59,
                "name": "B3",
                "ticks": 8760,
                "time": 23.804350999999997,
                "velocity": 0.5039370078740157
              },
              {
                "duration": 0.3260869999999976,
                "durationTicks": 120,
                "midi": 62,
                "name": "D4",
                "ticks": 8880,
                "time": 24.130437999999998,
                "velocity": 0.5039370078740157
              },
              {
                "duration": 0.3260870000000011,
                "durationTicks": 120,
                "midi": 66,
                "name": "F#4",
                "ticks": 9000,
                "time": 24.456524999999996,
                "velocity": 0.5039370078740157
              },
              {
                "duration": 0.16304350000000056,
                "durationTicks": 60,
                "midi": 64,
                "name": "E4",
                "ticks": 9120,
                "time": 24.782611999999997,
                "velocity": 0.5039370078740157
              },
              {
                "duration": 0.16304350000000056,
                "durationTicks": 60,
                "midi": 67,
                "name": "G4",
                "ticks": 9180,
                "time": 24.945655499999997,
                "velocity": 0.5039370078740157
              },
              {
                "duration": 0.16304350000000056,
                "durationTicks": 60,
                "midi": 60,
                "name": "C4",
                "ticks": 9240,
                "time": 25.108698999999998,
                "velocity": 0.5039370078740157
              },
              {
                "duration": 0.163043499999997,
                "durationTicks": 60,
                "midi": 64,
                "name": "E4",
                "ticks": 9300,
                "time": 25.2717425,
                "velocity": 0.5039370078740157
              },
              {
                "duration": 0.16304350000000056,
                "durationTicks": 60,
                "midi": 55,
                "name": "G3",
                "ticks": 9360,
                "time": 25.434785999999995,
                "velocity": 0.5039370078740157
              },
              {
                "duration": 0.16304350000000056,
                "durationTicks": 60,
                "midi": 60,
                "name": "C4",
                "ticks": 9420,
                "time": 25.597829499999996,
                "velocity": 0.5039370078740157
              },
              {
                "duration": 0.16304350000000056,
                "durationTicks": 60,
                "midi": 52,
                "name": "E3",
                "ticks": 9480,
                "time": 25.760872999999997,
                "velocity": 0.5039370078740157
              },
              {
                "duration": 0.16304350000000056,
                "durationTicks": 60,
                "midi": 55,
                "name": "G3",
                "ticks": 9540,
                "time": 25.923916499999997,
                "velocity": 0.5039370078740157
              },
              {
                "duration": 0.3260869999999976,
                "durationTicks": 120,
                "midi": 54,
                "name": "F#3",
                "ticks": 9600,
                "time": 26.086959999999998,
                "velocity": 0.5039370078740157
              },
              {
                "duration": 0.3260870000000011,
                "durationTicks": 120,
                "midi": 57,
                "name": "A3",
                "ticks": 9720,
                "time": 26.413046999999995,
                "velocity": 0.5039370078740157
              },
              {
                "duration": 0.3260870000000011,
                "durationTicks": 120,
                "midi": 59,
                "name": "B3",
                "ticks": 9840,
                "time": 26.739133999999996,
                "velocity": 0.5039370078740157
              },
              {
                "duration": 0.3260869999999976,
                "durationTicks": 120,
                "midi": 63,
                "name": "D#4",
                "ticks": 9960,
                "time": 27.065220999999998,
                "velocity": 0.5039370078740157
              },
              {
                "duration": 0.16304350000000056,
                "durationTicks": 60,
                "midi": 64,
                "name": "E4",
                "ticks": 10140,
                "time": 27.554351499999996,
                "velocity": 0.5039370078740157
              },
              {
                "duration": 0.16304350000000056,
                "durationTicks": 60,
                "midi": 60,
                "name": "C4",
                "ticks": 10200,
                "time": 27.717394999999996,
                "velocity": 0.5039370078740157
              },
              {
                "duration": 0.16304350000000056,
                "durationTicks": 60,
                "midi": 64,
                "name": "E4",
                "ticks": 10260,
                "time": 27.880438499999997,
                "velocity": 0.5039370078740157
              },
              {
                "duration": 0.16304350000000056,
                "durationTicks": 60,
                "midi": 57,
                "name": "A3",
                "ticks": 10320,
                "time": 28.043481999999997,
                "velocity": 0.5039370078740157
              },
              {
                "duration": 0.163043499999997,
                "durationTicks": 60,
                "midi": 60,
                "name": "C4",
                "ticks": 10380,
                "time": 28.206525499999998,
                "velocity": 0.5039370078740157
              },
              {
                "duration": 0.16304350000000056,
                "durationTicks": 60,
                "midi": 64,
                "name": "E4",
                "ticks": 10440,
                "time": 28.369568999999995,
                "velocity": 0.5039370078740157
              },
              {
                "duration": 0.16304350000000056,
                "durationTicks": 60,
                "midi": 67,
                "name": "G4",
                "ticks": 10500,
                "time": 28.532612499999995,
                "velocity": 0.5039370078740157
              },
              {
                "duration": 0.16304350000000056,
                "durationTicks": 60,
                "midi": 66,
                "name": "F#4",
                "ticks": 10560,
                "time": 28.695655999999996,
                "velocity": 0.5039370078740157
              },
              {
                "duration": 0.16304350000000056,
                "durationTicks": 60,
                "midi": 62,
                "name": "D4",
                "ticks": 10620,
                "time": 28.858699499999997,
                "velocity": 0.5039370078740157
              },
              {
                "duration": 0.16304350000000056,
                "durationTicks": 60,
                "midi": 59,
                "name": "B3",
                "ticks": 10680,
                "time": 29.021742999999997,
                "velocity": 0.5039370078740157
              },
              {
                "duration": 0.163043499999997,
                "durationTicks": 60,
                "midi": 62,
                "name": "D4",
                "ticks": 10740,
                "time": 29.184786499999998,
                "velocity": 0.5039370078740157
              },
              {
                "duration": 0.16304350000000056,
                "durationTicks": 60,
                "midi": 55,
                "name": "G3",
                "ticks": 10800,
                "time": 29.347829999999995,
                "velocity": 0.5039370078740157
              },
              {
                "duration": 0.16304350000000056,
                "durationTicks": 60,
                "midi": 59,
                "name": "B3",
                "ticks": 10860,
                "time": 29.510873499999995,
                "velocity": 0.5039370078740157
              },
              {
                "duration": 0.16304350000000056,
                "durationTicks": 60,
                "midi": 62,
                "name": "D4",
                "ticks": 10920,
                "time": 29.673916999999996,
                "velocity": 0.5039370078740157
              },
              {
                "duration": 0.16304350000000056,
                "durationTicks": 60,
                "midi": 66,
                "name": "F#4",
                "ticks": 10980,
                "time": 29.836960499999996,
                "velocity": 0.5039370078740157
              },
              {
                "duration": 0.16304350000000056,
                "durationTicks": 60,
                "midi": 64,
                "name": "E4",
                "ticks": 11040,
                "time": 30.000003999999997,
                "velocity": 0.5039370078740157
              },
              {
                "duration": 0.163043499999997,
                "durationTicks": 60,
                "midi": 60,
                "name": "C4",
                "ticks": 11100,
                "time": 30.163047499999998,
                "velocity": 0.5039370078740157
              },
              {
                "duration": 0.16304350000000056,
                "durationTicks": 60,
                "midi": 57,
                "name": "A3",
                "ticks": 11160,
                "time": 30.326090999999995,
                "velocity": 0.5039370078740157
              },
              {
                "duration": 0.16304350000000056,
                "durationTicks": 60,
                "midi": 60,
                "name": "C4",
                "ticks": 11220,
                "time": 30.489134499999995,
                "velocity": 0.5039370078740157
              },
              {
                "duration": 0.16304350000000056,
                "durationTicks": 60,
                "midi": 54,
                "name": "F#3",
                "ticks": 11280,
                "time": 30.652177999999996,
                "velocity": 0.5039370078740157
              },
              {
                "duration": 0.16304350000000056,
                "durationTicks": 60,
                "midi": 57,
                "name": "A3",
                "ticks": 11340,
                "time": 30.815221499999996,
                "velocity": 0.5039370078740157
              },
              {
                "duration": 0.48913049999999814,
                "durationTicks": 180,
                "midi": 60,
                "name": "C4",
                "ticks": 11400,
                "time": 30.978264999999997,
                "velocity": 0.5039370078740157
              },
              {
                "duration": 0.16304350000000056,
                "durationTicks": 60,
                "midi": 59,
                "name": "B3",
                "ticks": 11580,
                "time": 31.467395499999995,
                "velocity": 0.5039370078740157
              },
              {
                "duration": 0.16304350000000056,
                "durationTicks": 60,
                "midi": 60,
                "name": "C4",
                "ticks": 11640,
                "time": 31.630438999999996,
                "velocity": 0.5039370078740157
              },
              {
                "duration": 0.16304350000000056,
                "durationTicks": 60,
                "midi": 57,
                "name": "A3",
                "ticks": 11700,
                "time": 31.793482499999996,
                "velocity": 0.5039370078740157
              },
              {
                "duration": 0.3260870000000011,
                "durationTicks": 120,
                "midi": 59,
                "name": "B3",
                "ticks": 11760,
                "time": 31.956525999999997,
                "velocity": 0.5039370078740157
              },
              {
                "duration": 0.3260870000000011,
                "durationTicks": 120,
                "midi": 47,
                "name": "B2",
                "ticks": 11880,
                "time": 32.282613,
                "velocity": 0.5039370078740157
              },
              {
                "duration": 0.16304350000000056,
                "durationTicks": 60,
                "midi": 52,
                "name": "E3",
                "ticks": 12000,
                "time": 32.6087,
                "velocity": 0.5039370078740157
              },
              {
                "duration": 0.16304349999999346,
                "durationTicks": 60,
                "midi": 64,
                "name": "E4",
                "ticks": 12060,
                "time": 32.7717435,
                "velocity": 0.5039370078740157
              },
              {
                "duration": 0.16304350000000056,
                "durationTicks": 60,
                "midi": 59,
                "name": "B3",
                "ticks": 12120,
                "time": 32.93478699999999,
                "velocity": 0.5039370078740157
              },
              {
                "duration": 0.16304350000000056,
                "durationTicks": 60,
                "midi": 55,
                "name": "G3",
                "ticks": 12180,
                "time": 33.09783049999999,
                "velocity": 0.5039370078740157
              },
              {
                "duration": 0.16304350000000056,
                "durationTicks": 60,
                "midi": 52,
                "name": "E3",
                "ticks": 12240,
                "time": 33.260873999999994,
                "velocity": 0.5039370078740157
              },
              {
                "duration": 0.16304350000000056,
                "durationTicks": 60,
                "midi": 47,
                "name": "B2",
                "ticks": 12300,
                "time": 33.423917499999995,
                "velocity": 0.5039370078740157
              },
              {
                "duration": 0.16304350000000056,
                "durationTicks": 60,
                "midi": 43,
                "name": "G2",
                "ticks": 12360,
                "time": 33.586960999999995,
                "velocity": 0.5039370078740157
              },
              {
                "duration": 0.16304350000000056,
                "durationTicks": 60,
                "midi": 47,
                "name": "B2",
                "ticks": 12420,
                "time": 33.750004499999996,
                "velocity": 0.5039370078740157
              },
              {
                "duration": 0.3260870000000011,
                "durationTicks": 120,
                "midi": 40,
                "name": "E2",
                "ticks": 12480,
                "time": 33.913047999999996,
                "velocity": 0.5039370078740157
              },
              {
                "duration": 0.3260870000000011,
                "durationTicks": 120,
                "midi": 52,
                "name": "E3",
                "ticks": 12600,
                "time": 34.239135,
                "velocity": 0.5039370078740157
              },
              {
                "duration": 0.326086999999994,
                "durationTicks": 120,
                "midi": 55,
                "name": "G3",
                "ticks": 12720,
                "time": 34.565222,
                "velocity": 0.5039370078740157
              },
              {
                "duration": 0.3260870000000011,
                "durationTicks": 120,
                "midi": 58,
                "name": "A#3",
                "ticks": 12840,
                "time": 34.89130899999999,
                "velocity": 0.5039370078740157
              },
              {
                "duration": 0.3260870000000011,
                "durationTicks": 120,
                "midi": 49,
                "name": "C#3",
                "ticks": 12960,
                "time": 35.217395999999994,
                "velocity": 0.5039370078740157
              },
              {
                "duration": 0.16304350000000056,
                "durationTicks": 60,
                "midi": 67,
                "name": "G4",
                "ticks": 13260,
                "time": 36.0326135,
                "velocity": 0.5039370078740157
              },
              {
                "duration": 0.16304350000000056,
                "durationTicks": 60,
                "midi": 66,
                "name": "F#4",
                "ticks": 13320,
                "time": 36.195657,
                "velocity": 0.5039370078740157
              },
              {
                "duration": 0.16304350000000056,
                "durationTicks": 60,
                "midi": 64,
                "name": "E4",
                "ticks": 13380,
                "time": 36.3587005,
                "velocity": 0.5039370078740157
              },
              {
                "duration": 0.326086999999994,
                "durationTicks": 120,
                "midi": 62,
                "name": "D4",
                "ticks": 13440,
                "time": 36.521744,
                "velocity": 0.5039370078740157
              },
              {
                "duration": 0.3260870000000011,
                "durationTicks": 120,
                "midi": 50,
                "name": "D3",
                "ticks": 13560,
                "time": 36.84783099999999,
                "velocity": 0.5039370078740157
              },
              {
                "duration": 0.3260870000000011,
                "durationTicks": 120,
                "midi": 53,
                "name": "F3",
                "ticks": 13680,
                "time": 37.17391799999999,
                "velocity": 0.5039370078740157
              },
              {
                "duration": 0.3260870000000011,
                "durationTicks": 120,
                "midi": 56,
                "name": "G#3",
                "ticks": 13800,
                "time": 37.500004999999994,
                "velocity": 0.5039370078740157
              },
              {
                "duration": 0.3260870000000011,
                "durationTicks": 120,
                "midi": 47,
                "name": "B2",
                "ticks": 13920,
                "time": 37.826091999999996,
                "velocity": 0.5039370078740157
              },
              {
                "duration": 0.16304349999999346,
                "durationTicks": 60,
                "midi": 65,
                "name": "F4",
                "ticks": 14220,
                "time": 38.6413095,
                "velocity": 0.5039370078740157
              },
              {
                "duration": 0.16304350000000056,
                "durationTicks": 60,
                "midi": 64,
                "name": "E4",
                "ticks": 14280,
                "time": 38.80435299999999,
                "velocity": 0.5039370078740157
              },
              {
                "duration": 0.16304350000000056,
                "durationTicks": 60,
                "midi": 62,
                "name": "D4",
                "ticks": 14340,
                "time": 38.96739649999999,
                "velocity": 0.5039370078740157
              },
              {
                "duration": 0.3260870000000011,
                "durationTicks": 120,
                "midi": 60,
                "name": "C4",
                "ticks": 14400,
                "time": 39.13043999999999,
                "velocity": 0.5039370078740157
              },
              {
                "duration": 0.3260870000000011,
                "durationTicks": 120,
                "midi": 48,
                "name": "C3",
                "ticks": 14520,
                "time": 39.456526999999994,
                "velocity": 0.5039370078740157
              },
              {
                "duration": 0.3260870000000011,
                "durationTicks": 120,
                "midi": 52,
                "name": "E3",
                "ticks": 14640,
                "time": 39.782613999999995,
                "velocity": 0.5039370078740157
              },
              {
                "duration": 0.3260870000000011,
                "durationTicks": 120,
                "midi": 54,
                "name": "F#3",
                "ticks": 14760,
                "time": 40.108700999999996,
                "velocity": 0.5039370078740157
              },
              {
                "duration": 0.326086999999994,
                "durationTicks": 120,
                "midi": 45,
                "name": "A2",
                "ticks": 14880,
                "time": 40.434788,
                "velocity": 0.5039370078740157
              },
              {
                "duration": 0.16304350000000056,
                "durationTicks": 60,
                "midi": 64,
                "name": "E4",
                "ticks": 15180,
                "time": 41.25000549999999,
                "velocity": 0.5039370078740157
              },
              {
                "duration": 0.16304350000000056,
                "durationTicks": 60,
                "midi": 63,
                "name": "D#4",
                "ticks": 15240,
                "time": 41.413048999999994,
                "velocity": 0.5039370078740157
              },
              {
                "duration": 0.16304350000000056,
                "durationTicks": 60,
                "midi": 61,
                "name": "C#4",
                "ticks": 15300,
                "time": 41.576092499999994,
                "velocity": 0.5039370078740157
              },
              {
                "duration": 0.3260870000000011,
                "durationTicks": 120,
                "midi": 59,
                "name": "B3",
                "ticks": 15360,
                "time": 41.739135999999995,
                "velocity": 0.5039370078740157
              },
              {
                "duration": 0.3260870000000011,
                "durationTicks": 120,
                "midi": 47,
                "name": "B2",
                "ticks": 15480,
                "time": 42.065222999999996,
                "velocity": 0.5039370078740157
              },
              {
                "duration": 0.3260870000000011,
                "durationTicks": 120,
                "midi": 50,
                "name": "D3",
                "ticks": 15600,
                "time": 42.39131,
                "velocity": 0.5039370078740157
              },
              {
                "duration": 0.326086999999994,
                "durationTicks": 120,
                "midi": 53,
                "name": "F3",
                "ticks": 15720,
                "time": 42.717397,
                "velocity": 0.5039370078740157
              },
              {
                "duration": 0.3260870000000011,
                "durationTicks": 120,
                "midi": 44,
                "name": "G#2",
                "ticks": 15840,
                "time": 43.04348399999999,
                "velocity": 0.5039370078740157
              },
              {
                "duration": 0.16304350000000056,
                "durationTicks": 60,
                "midi": 62,
                "name": "D4",
                "ticks": 16140,
                "time": 43.858701499999995,
                "velocity": 0.5039370078740157
              },
              {
                "duration": 0.16304350000000056,
                "durationTicks": 60,
                "midi": 60,
                "name": "C4",
                "ticks": 16200,
                "time": 44.021744999999996,
                "velocity": 0.5039370078740157
              },
              {
                "duration": 0.16304350000000056,
                "durationTicks": 60,
                "midi": 59,
                "name": "B3",
                "ticks": 16260,
                "time": 44.184788499999996,
                "velocity": 0.5039370078740157
              },
              {
                "duration": 0.3260870000000011,
                "durationTicks": 120,
                "midi": 60,
                "name": "C4",
                "ticks": 16320,
                "time": 44.347832,
                "velocity": 0.5039370078740157
              },
              {
                "duration": 0.326086999999994,
                "durationTicks": 120,
                "midi": 57,
                "name": "A3",
                "ticks": 16440,
                "time": 44.673919,
                "velocity": 0.5039370078740157
              },
              {
                "duration": 0.3260870000000011,
                "durationTicks": 120,
                "midi": 56,
                "name": "G#3",
                "ticks": 16560,
                "time": 45.00000599999999,
                "velocity": 0.5039370078740157
              },
              {
                "duration": 0.3260870000000011,
                "durationTicks": 120,
                "midi": 52,
                "name": "E3",
                "ticks": 16680,
                "time": 45.32609299999999,
                "velocity": 0.5039370078740157
              },
              {
                "duration": 0.16304350000000056,
                "durationTicks": 60,
                "midi": 57,
                "name": "A3",
                "ticks": 16800,
                "time": 45.652179999999994,
                "velocity": 0.5039370078740157
              },
              {
                "duration": 0.16304350000000056,
                "durationTicks": 60,
                "midi": 52,
                "name": "E3",
                "ticks": 16860,
                "time": 45.815223499999995,
                "velocity": 0.5039370078740157
              },
              {
                "duration": 0.16304350000000056,
                "durationTicks": 60,
                "midi": 57,
                "name": "A3",
                "ticks": 16920,
                "time": 45.978266999999995,
                "velocity": 0.5039370078740157
              },
              {
                "duration": 0.16304350000000056,
                "durationTicks": 60,
                "midi": 60,
                "name": "C4",
                "ticks": 16980,
                "time": 46.141310499999996,
                "velocity": 0.5039370078740157
              },
              {
                "duration": 0.16304350000000056,
                "durationTicks": 60,
                "midi": 59,
                "name": "B3",
                "ticks": 17040,
                "time": 46.304354,
                "velocity": 0.5039370078740157
              },
              {
                "duration": 0.16304350000000056,
                "durationTicks": 60,
                "midi": 52,
                "name": "E3",
                "ticks": 17100,
                "time": 46.4673975,
                "velocity": 0.5039370078740157
              },
              {
                "duration": 0.16304349999999346,
                "durationTicks": 60,
                "midi": 59,
                "name": "B3",
                "ticks": 17160,
                "time": 46.630441,
                "velocity": 0.5039370078740157
              },
              {
                "duration": 0.16304350000000056,
                "durationTicks": 60,
                "midi": 62,
                "name": "D4",
                "ticks": 17220,
                "time": 46.79348449999999,
                "velocity": 0.5039370078740157
              },
              {
                "duration": 0.16304350000000056,
                "durationTicks": 60,
                "midi": 60,
                "name": "C4",
                "ticks": 17280,
                "time": 46.95652799999999,
                "velocity": 0.5039370078740157
              },
              {
                "duration": 0.16304350000000056,
                "durationTicks": 60,
                "midi": 64,
                "name": "E4",
                "ticks": 17340,
                "time": 47.11957149999999,
                "velocity": 0.5039370078740157
              },
              {
                "duration": 0.16304350000000056,
                "durationTicks": 60,
                "midi": 69,
                "name": "A4",
                "ticks": 17400,
                "time": 47.28261499999999,
                "velocity": 0.5039370078740157
              },
              {
                "duration": 0.16304350000000056,
                "durationTicks": 60,
                "midi": 64,
                "name": "E4",
                "ticks": 17460,
                "time": 47.44565849999999,
                "velocity": 0.5039370078740157
              },
              {
                "duration": 0.16304350000000056,
                "durationTicks": 60,
                "midi": 60,
                "name": "C4",
                "ticks": 17520,
                "time": 47.608701999999994,
                "velocity": 0.5039370078740157
              },
              {
                "duration": 0.16304350000000056,
                "durationTicks": 60,
                "midi": 64,
                "name": "E4",
                "ticks": 17580,
                "time": 47.771745499999994,
                "velocity": 0.5039370078740157
              },
              {
                "duration": 0.16304350000000056,
                "durationTicks": 60,
                "midi": 57,
                "name": "A3",
                "ticks": 17640,
                "time": 47.934788999999995,
                "velocity": 0.5039370078740157
              },
              {
                "duration": 0.16304350000000056,
                "durationTicks": 60,
                "midi": 60,
                "name": "C4",
                "ticks": 17700,
                "time": 48.097832499999996,
                "velocity": 0.5039370078740157
              },
              {
                "duration": 0.16304350000000056,
                "durationTicks": 60,
                "midi": 54,
                "name": "F#3",
                "ticks": 17760,
                "time": 48.260875999999996,
                "velocity": 0.5039370078740157
              },
              {
                "duration": 0.16304350000000056,
                "durationTicks": 60,
                "midi": 57,
                "name": "A3",
                "ticks": 17820,
                "time": 48.4239195,
                "velocity": 0.5039370078740157
              },
              {
                "duration": 0.16304349999999346,
                "durationTicks": 60,
                "midi": 60,
                "name": "C4",
                "ticks": 17880,
                "time": 48.586963,
                "velocity": 0.5039370078740157
              },
              {
                "duration": 0.16304350000000056,
                "durationTicks": 60,
                "midi": 57,
                "name": "A3",
                "ticks": 17940,
                "time": 48.75000649999999,
                "velocity": 0.5039370078740157
              },
              {
                "duration": 0.16304350000000056,
                "durationTicks": 60,
                "midi": 54,
                "name": "F#3",
                "ticks": 18000,
                "time": 48.91304999999999,
                "velocity": 0.5039370078740157
              },
              {
                "duration": 0.16304350000000056,
                "durationTicks": 60,
                "midi": 57,
                "name": "A3",
                "ticks": 18060,
                "time": 49.07609349999999,
                "velocity": 0.5039370078740157
              },
              {
                "duration": 0.16304350000000056,
                "durationTicks": 60,
                "midi": 51,
                "name": "D#3",
                "ticks": 18120,
                "time": 49.23913699999999,
                "velocity": 0.5039370078740157
              },
              {
                "duration": 0.16304350000000056,
                "durationTicks": 60,
                "midi": 54,
                "name": "F#3",
                "ticks": 18180,
                "time": 49.40218049999999,
                "velocity": 0.5039370078740157
              },
              {
                "duration": 0.3260870000000011,
                "durationTicks": 120,
                "midi": 52,
                "name": "E3",
                "ticks": 18240,
                "time": 49.56522399999999,
                "velocity": 0.5039370078740157
              },
              {
                "duration": 0.3260870000000011,
                "durationTicks": 120,
                "midi": 56,
                "name": "G#3",
                "ticks": 18360,
                "time": 49.891310999999995,
                "velocity": 0.5039370078740157
              },
              {
                "duration": 0.3260870000000011,
                "durationTicks": 120,
                "midi": 59,
                "name": "B3",
                "ticks": 18480,
                "time": 50.217397999999996,
                "velocity": 0.5039370078740157
              },
              {
                "duration": 0.326086999999994,
                "durationTicks": 120,
                "midi": 56,
                "name": "G#3",
                "ticks": 18600,
                "time": 50.543485,
                "velocity": 0.5039370078740157
              },
              {
                "duration": 0.3260870000000011,
                "durationTicks": 120,
                "midi": 52,
                "name": "E3",
                "ticks": 18720,
                "time": 50.86957199999999,
                "velocity": 0.5039370078740157
              },
              {
                "duration": 0.3260870000000011,
                "durationTicks": 120,
                "midi": 47,
                "name": "B2",
                "ticks": 18840,
                "time": 51.19565899999999,
                "velocity": 0.5039370078740157
              },
              {
                "duration": 0.3260870000000011,
                "durationTicks": 120,
                "midi": 44,
                "name": "G#2",
                "ticks": 18960,
                "time": 51.52174599999999,
                "velocity": 0.5039370078740157
              },
              {
                "duration": 0.3260870000000011,
                "durationTicks": 120,
                "midi": 40,
                "name": "E2",
                "ticks": 19080,
                "time": 51.847832999999994,
                "velocity": 0.5039370078740157
              },
              {
                "duration": 0.3260870000000011,
                "durationTicks": 120,
                "midi": 45,
                "name": "A2",
                "ticks": 19200,
                "time": 52.173919999999995,
                "velocity": 0.5039370078740157
              },
              {
                "duration": 0.326086999999994,
                "durationTicks": 120,
                "midi": 48,
                "name": "C3",
                "ticks": 19320,
                "time": 52.500007,
                "velocity": 0.5039370078740157
              },
              {
                "duration": 0.3260870000000011,
                "durationTicks": 120,
                "midi": 52,
                "name": "E3",
                "ticks": 19440,
                "time": 52.82609399999999,
                "velocity": 0.5039370078740157
              },
              {
                "duration": 0.3260870000000011,
                "durationTicks": 120,
                "midi": 48,
                "name": "C3",
                "ticks": 19560,
                "time": 53.15218099999999,
                "velocity": 0.5039370078740157
              },
              {
                "duration": 0.3260870000000011,
                "durationTicks": 120,
                "midi": 45,
                "name": "A2",
                "ticks": 19680,
                "time": 53.47826799999999,
                "velocity": 0.5039370078740157
              },
              {
                "duration": 0.3260870000000011,
                "durationTicks": 120,
                "midi": 48,
                "name": "C3",
                "ticks": 19800,
                "time": 53.804354999999994,
                "velocity": 0.5039370078740157
              },
              {
                "duration": 0.3260870000000011,
                "durationTicks": 120,
                "midi": 39,
                "name": "D#2",
                "ticks": 19920,
                "time": 54.130441999999995,
                "velocity": 0.5039370078740157
              },
              {
                "duration": 0.16304350000000056,
                "durationTicks": 60,
                "midi": 59,
                "name": "B3",
                "ticks": 20220,
                "time": 54.94565949999999,
                "velocity": 0.5039370078740157
              },
              {
                "duration": 0.16304350000000056,
                "durationTicks": 60,
                "midi": 56,
                "name": "G#3",
                "ticks": 20280,
                "time": 55.10870299999999,
                "velocity": 0.5039370078740157
              },
              {
                "duration": 0.16304350000000056,
                "durationTicks": 60,
                "midi": 52,
                "name": "E3",
                "ticks": 20340,
                "time": 55.27174649999999,
                "velocity": 0.5039370078740157
              },
              {
                "duration": 0.16304350000000056,
                "durationTicks": 60,
                "midi": 50,
                "name": "D3",
                "ticks": 20400,
                "time": 55.43478999999999,
                "velocity": 0.5039370078740157
              },
              {
                "duration": 0.16304350000000056,
                "durationTicks": 60,
                "midi": 59,
                "name": "B3",
                "ticks": 20460,
                "time": 55.59783349999999,
                "velocity": 0.5039370078740157
              },
              {
                "duration": 0.16304350000000056,
                "durationTicks": 60,
                "midi": 56,
                "name": "G#3",
                "ticks": 20520,
                "time": 55.760876999999994,
                "velocity": 0.5039370078740157
              },
              {
                "duration": 0.16304350000000056,
                "durationTicks": 60,
                "midi": 50,
                "name": "D3",
                "ticks": 20580,
                "time": 55.923920499999994,
                "velocity": 0.5039370078740157
              },
              {
                "duration": 0.3260870000000011,
                "durationTicks": 120,
                "midi": 48,
                "name": "C3",
                "ticks": 20640,
                "time": 56.086963999999995,
                "velocity": 0.5039370078740157
              },
              {
                "duration": 0.326086999999994,
                "durationTicks": 120,
                "midi": 52,
                "name": "E3",
                "ticks": 20760,
                "time": 56.413050999999996,
                "velocity": 0.5039370078740157
              },
              {
                "duration": 0.3260870000000011,
                "durationTicks": 120,
                "midi": 44,
                "name": "G#2",
                "ticks": 20880,
                "time": 56.73913799999999,
                "velocity": 0.5039370078740157
              },
              {
                "duration": 0.3260870000000011,
                "durationTicks": 120,
                "midi": 52,
                "name": "E3",
                "ticks": 21000,
                "time": 57.06522499999999,
                "velocity": 0.5039370078740157
              },
              {
                "duration": 0.3260870000000011,
                "durationTicks": 120,
                "midi": 45,
                "name": "A2",
                "ticks": 21120,
                "time": 57.39131199999999,
                "velocity": 0.5039370078740157
              },
              {
                "duration": 0.3260870000000011,
                "durationTicks": 120,
                "midi": 54,
                "name": "F#3",
                "ticks": 21240,
                "time": 57.71739899999999,
                "velocity": 0.5039370078740157
              },
              {
                "duration": 0.3260870000000011,
                "durationTicks": 120,
                "midi": 47,
                "name": "B2",
                "ticks": 21360,
                "time": 58.043485999999994,
                "velocity": 0.5039370078740157
              },
              {
                "duration": 0.326086999999994,
                "durationTicks": 120,
                "midi": 56,
                "name": "G#3",
                "ticks": 21480,
                "time": 58.369572999999995,
                "velocity": 0.5039370078740157
              },
              {
                "duration": 0.3260870000000011,
                "durationTicks": 120,
                "midi": 48,
                "name": "C3",
                "ticks": 21600,
                "time": 58.69565999999999,
                "velocity": 0.5039370078740157
              },
              {
                "duration": 0.3260870000000011,
                "durationTicks": 120,
                "midi": 57,
                "name": "A3",
                "ticks": 21720,
                "time": 59.02174699999999,
                "velocity": 0.5039370078740157
              },
              {
                "duration": 0.3260870000000011,
                "durationTicks": 120,
                "midi": 50,
                "name": "D3",
                "ticks": 21840,
                "time": 59.34783399999999,
                "velocity": 0.5039370078740157
              },
              {
                "duration": 0.3260870000000011,
                "durationTicks": 120,
                "midi": 58,
                "name": "A#3",
                "ticks": 21960,
                "time": 59.67392099999999,
                "velocity": 0.5039370078740157
              },
              {
                "duration": 0.3260870000000011,
                "durationTicks": 120,
                "midi": 56,
                "name": "G#3",
                "ticks": 22080,
                "time": 60.000007999999994,
                "velocity": 0.5039370078740157
              },
              {
                "duration": 0.326086999999994,
                "durationTicks": 120,
                "midi": 53,
                "name": "F3",
                "ticks": 22200,
                "time": 60.326094999999995,
                "velocity": 0.5039370078740157
              },
              {
                "duration": 0.3260870000000011,
                "durationTicks": 120,
                "midi": 50,
                "name": "D3",
                "ticks": 22320,
                "time": 60.65218199999999,
                "velocity": 0.5039370078740157
              },
              {
                "duration": 0.3260870000000011,
                "durationTicks": 120,
                "midi": 47,
                "name": "B2",
                "ticks": 22440,
                "time": 60.97826899999999,
                "velocity": 0.5039370078740157
              },
              {
                "duration": 0.3260870000000011,
                "durationTicks": 120,
                "midi": 44,
                "name": "G#2",
                "ticks": 22560,
                "time": 61.30435599999999,
                "velocity": 0.5039370078740157
              },
              {
                "duration": 0.3260870000000011,
                "durationTicks": 120,
                "midi": 45,
                "name": "A2",
                "ticks": 22680,
                "time": 61.63044299999999,
                "velocity": 0.5039370078740157
              },
              {
                "duration": 0.3260870000000011,
                "durationTicks": 120,
                "midi": 38,
                "name": "D2",
                "ticks": 22800,
                "time": 61.956529999999994,
                "velocity": 0.5039370078740157
              },
              {
                "duration": 0.326086999999994,
                "durationTicks": 120,
                "midi": 40,
                "name": "E2",
                "ticks": 22920,
                "time": 62.282616999999995,
                "velocity": 0.5039370078740157
              },
              {
                "duration": 0.3260870000000011,
                "durationTicks": 120,
                "midi": 41,
                "name": "F2",
                "ticks": 23040,
                "time": 62.60870399999999,
                "velocity": 0.5039370078740157
              },
              {
                "duration": 0.3260870000000011,
                "durationTicks": 120,
                "midi": 39,
                "name": "D#2",
                "ticks": 23160,
                "time": 62.93479099999999,
                "velocity": 0.5039370078740157
              },
              {
                "duration": 0.3260870000000011,
                "durationTicks": 120,
                "midi": 40,
                "name": "E2",
                "ticks": 23280,
                "time": 63.26087799999999,
                "velocity": 0.5039370078740157
              },
              {
                "duration": 0.3260870000000011,
                "durationTicks": 120,
                "midi": 52,
                "name": "E3",
                "ticks": 23400,
                "time": 63.58696499999999,
                "velocity": 0.5039370078740157
              },
              {
                "duration": 2.608695999999995,
                "durationTicks": 960,
                "midi": 45,
                "name": "A2",
                "ticks": 23520,
                "time": 63.91305199999999,
                "velocity": 0.5039370078740157
              }
            ],
            "endOfTrackTicks": 24480
          }
        ]
    },

    "invention-14" : {
        "header": {
          "keySignatures": [],
          "meta": [],
          "name": "Invention 14 in Bb Major",
          "ppq": 240,
          "tempos": [
            {
              "bpm": 120,
              "ticks": 0
            }
          ],
          "timeSignatures": [
            {
              "ticks": 0,
              "timeSignature": [
                4,
                4
              ],
              "measures": 0
            }
          ]
        },
        "tracks": [
          {
            "channel": 0,
            "controlChanges": {},
            "pitchBends": [],
            "instrument": {
              "family": "piano",
              "number": 0,
              "name": "acoustic grand piano"
            },
            "name": "",
            "notes": [
              {
                "duration": 0.125,
                "durationTicks": 60,
                "midi": 70,
                "name": "A#4",
                "ticks": 120,
                "time": 0.25,
                "velocity": 0.5039370078740157
              },
              {
                "duration": 0.125,
                "durationTicks": 60,
                "midi": 72,
                "name": "C5",
                "ticks": 180,
                "time": 0.375,
                "velocity": 0.5039370078740157
              },
              {
                "duration": 0.125,
                "durationTicks": 60,
                "midi": 74,
                "name": "D5",
                "ticks": 240,
                "time": 0.5,
                "velocity": 0.5039370078740157
              },
              {
                "duration": 0.125,
                "durationTicks": 60,
                "midi": 72,
                "name": "C5",
                "ticks": 300,
                "time": 0.625,
                "velocity": 0.5039370078740157
              },
              {
                "duration": 0.25,
                "durationTicks": 120,
                "midi": 70,
                "name": "A#4",
                "ticks": 360,
                "time": 0.75,
                "velocity": 0.5039370078740157
              },
              {
                "duration": 0.25,
                "durationTicks": 120,
                "midi": 77,
                "name": "F5",
                "ticks": 480,
                "time": 1,
                "velocity": 0.5039370078740157
              },
              {
                "duration": 0.25,
                "durationTicks": 120,
                "midi": 74,
                "name": "D5",
                "ticks": 600,
                "time": 1.25,
                "velocity": 0.5039370078740157
              },
              {
                "duration": 0.25,
                "durationTicks": 120,
                "midi": 82,
                "name": "A#5",
                "ticks": 720,
                "time": 1.5,
                "velocity": 0.5039370078740157
              },
              {
                "duration": 0.25,
                "durationTicks": 120,
                "midi": 77,
                "name": "F5",
                "ticks": 840,
                "time": 1.75,
                "velocity": 0.5039370078740157
              },
              {
                "duration": 0.25,
                "durationTicks": 120,
                "midi": 74,
                "name": "D5",
                "ticks": 960,
                "time": 2,
                "velocity": 0.5039370078740157
              },
              {
                "duration": 0.125,
                "durationTicks": 60,
                "midi": 77,
                "name": "F5",
                "ticks": 1080,
                "time": 2.25,
                "velocity": 0.5039370078740157
              },
              {
                "duration": 0.125,
                "durationTicks": 60,
                "midi": 75,
                "name": "D#5",
                "ticks": 1140,
                "time": 2.375,
                "velocity": 0.5039370078740157
              },
              {
                "duration": 0.125,
                "durationTicks": 60,
                "midi": 74,
                "name": "D5",
                "ticks": 1200,
                "time": 2.5,
                "velocity": 0.5039370078740157
              },
              {
                "duration": 0.125,
                "durationTicks": 60,
                "midi": 75,
                "name": "D#5",
                "ticks": 1260,
                "time": 2.625,
                "velocity": 0.5039370078740157
              },
              {
                "duration": 0.25,
                "durationTicks": 120,
                "midi": 77,
                "name": "F5",
                "ticks": 1320,
                "time": 2.75,
                "velocity": 0.5039370078740157
              },
              {
                "duration": 0.25,
                "durationTicks": 120,
                "midi": 70,
                "name": "A#4",
                "ticks": 1440,
                "time": 3,
                "velocity": 0.5039370078740157
              },
              {
                "duration": 0.25,
                "durationTicks": 120,
                "midi": 74,
                "name": "D5",
                "ticks": 1560,
                "time": 3.25,
                "velocity": 0.5039370078740157
              },
              {
                "duration": 0.25,
                "durationTicks": 120,
                "midi": 65,
                "name": "F4",
                "ticks": 1680,
                "time": 3.5,
                "velocity": 0.5039370078740157
              },
              {
                "duration": 0.25,
                "durationTicks": 120,
                "midi": 68,
                "name": "G#4",
                "ticks": 1800,
                "time": 3.75,
                "velocity": 0.5039370078740157
              },
              {
                "duration": 0.25,
                "durationTicks": 120,
                "midi": 67,
                "name": "G4",
                "ticks": 1920,
                "time": 4,
                "velocity": 0.5039370078740157
              },
              {
                "duration": 0.125,
                "durationTicks": 60,
                "midi": 63,
                "name": "D#4",
                "ticks": 2040,
                "time": 4.25,
                "velocity": 0.5039370078740157
              },
              {
                "duration": 0.125,
                "durationTicks": 60,
                "midi": 65,
                "name": "F4",
                "ticks": 2100,
                "time": 4.375,
                "velocity": 0.5039370078740157
              },
              {
                "duration": 0.125,
                "durationTicks": 60,
                "midi": 67,
                "name": "G4",
                "ticks": 2160,
                "time": 4.5,
                "velocity": 0.5039370078740157
              },
              {
                "duration": 0.125,
                "durationTicks": 60,
                "midi": 65,
                "name": "F4",
                "ticks": 2220,
                "time": 4.625,
                "velocity": 0.5039370078740157
              },
              {
                "duration": 0.25,
                "durationTicks": 120,
                "midi": 63,
                "name": "D#4",
                "ticks": 2280,
                "time": 4.75,
                "velocity": 0.5039370078740157
              },
              {
                "duration": 0.25,
                "durationTicks": 120,
                "midi": 70,
                "name": "A#4",
                "ticks": 2400,
                "time": 5,
                "velocity": 0.5039370078740157
              },
              {
                "duration": 0.25,
                "durationTicks": 120,
                "midi": 67,
                "name": "G4",
                "ticks": 2520,
                "time": 5.25,
                "velocity": 0.5039370078740157
              },
              {
                "duration": 0.25,
                "durationTicks": 120,
                "midi": 75,
                "name": "D#5",
                "ticks": 2640,
                "time": 5.5,
                "velocity": 0.5039370078740157
              },
              {
                "duration": 0.25,
                "durationTicks": 120,
                "midi": 70,
                "name": "A#4",
                "ticks": 2760,
                "time": 5.75,
                "velocity": 0.5039370078740157
              },
              {
                "duration": 0.25,
                "durationTicks": 120,
                "midi": 67,
                "name": "G4",
                "ticks": 2880,
                "time": 6,
                "velocity": 0.5039370078740157
              },
              {
                "duration": 0.125,
                "durationTicks": 60,
                "midi": 70,
                "name": "A#4",
                "ticks": 3000,
                "time": 6.25,
                "velocity": 0.5039370078740157
              },
              {
                "duration": 0.125,
                "durationTicks": 60,
                "midi": 68,
                "name": "G#4",
                "ticks": 3060,
                "time": 6.375,
                "velocity": 0.5039370078740157
              },
              {
                "duration": 0.125,
                "durationTicks": 60,
                "midi": 67,
                "name": "G4",
                "ticks": 3120,
                "time": 6.5,
                "velocity": 0.5039370078740157
              },
              {
                "duration": 0.125,
                "durationTicks": 60,
                "midi": 68,
                "name": "G#4",
                "ticks": 3180,
                "time": 6.625,
                "velocity": 0.5039370078740157
              },
              {
                "duration": 0.25,
                "durationTicks": 120,
                "midi": 70,
                "name": "A#4",
                "ticks": 3240,
                "time": 6.75,
                "velocity": 0.5039370078740157
              },
              {
                "duration": 0.25,
                "durationTicks": 120,
                "midi": 63,
                "name": "D#4",
                "ticks": 3360,
                "time": 7,
                "velocity": 0.5039370078740157
              },
              {
                "duration": 0.25,
                "durationTicks": 120,
                "midi": 67,
                "name": "G4",
                "ticks": 3480,
                "time": 7.25,
                "velocity": 0.5039370078740157
              },
              {
                "duration": 0.25,
                "durationTicks": 120,
                "midi": 60,
                "name": "C4",
                "ticks": 3600,
                "time": 7.5,
                "velocity": 0.5039370078740157
              },
              {
                "duration": 0.25,
                "durationTicks": 120,
                "midi": 63,
                "name": "D#4",
                "ticks": 3720,
                "time": 7.75,
                "velocity": 0.5039370078740157
              },
              {
                "duration": 0.25,
                "durationTicks": 120,
                "midi": 57,
                "name": "A3",
                "ticks": 3840,
                "time": 8,
                "velocity": 0.5039370078740157
              },
              {
                "duration": 0.125,
                "durationTicks": 60,
                "midi": 60,
                "name": "C4",
                "ticks": 3960,
                "time": 8.25,
                "velocity": 0.5039370078740157
              },
              {
                "duration": 0.125,
                "durationTicks": 60,
                "midi": 62,
                "name": "D4",
                "ticks": 4020,
                "time": 8.375,
                "velocity": 0.5039370078740157
              },
              {
                "duration": 0.125,
                "durationTicks": 60,
                "midi": 63,
                "name": "D#4",
                "ticks": 4080,
                "time": 8.5,
                "velocity": 0.5039370078740157
              },
              {
                "duration": 0.125,
                "durationTicks": 60,
                "midi": 62,
                "name": "D4",
                "ticks": 4140,
                "time": 8.625,
                "velocity": 0.5039370078740157
              },
              {
                "duration": 0.25,
                "durationTicks": 120,
                "midi": 60,
                "name": "C4",
                "ticks": 4200,
                "time": 8.75,
                "velocity": 0.5039370078740157
              },
              {
                "duration": 0.25,
                "durationTicks": 120,
                "midi": 69,
                "name": "A4",
                "ticks": 4320,
                "time": 9,
                "velocity": 0.5039370078740157
              },
              {
                "duration": 0.25,
                "durationTicks": 120,
                "midi": 65,
                "name": "F4",
                "ticks": 4440,
                "time": 9.25,
                "velocity": 0.5039370078740157
              },
              {
                "duration": 0.25,
                "durationTicks": 120,
                "midi": 72,
                "name": "C5",
                "ticks": 4560,
                "time": 9.5,
                "velocity": 0.5039370078740157
              },
              {
                "duration": 0.25,
                "durationTicks": 120,
                "midi": 69,
                "name": "A4",
                "ticks": 4680,
                "time": 9.75,
                "velocity": 0.5039370078740157
              },
              {
                "duration": 0.25,
                "durationTicks": 120,
                "midi": 75,
                "name": "D#5",
                "ticks": 4800,
                "time": 10,
                "velocity": 0.5039370078740157
              },
              {
                "duration": 0.125,
                "durationTicks": 60,
                "midi": 65,
                "name": "F4",
                "ticks": 4920,
                "time": 10.25,
                "velocity": 0.5039370078740157
              },
              {
                "duration": 0.125,
                "durationTicks": 60,
                "midi": 67,
                "name": "G4",
                "ticks": 4980,
                "time": 10.375,
                "velocity": 0.5039370078740157
              },
              {
                "duration": 0.125,
                "durationTicks": 60,
                "midi": 69,
                "name": "A4",
                "ticks": 5040,
                "time": 10.5,
                "velocity": 0.5039370078740157
              },
              {
                "duration": 0.125,
                "durationTicks": 60,
                "midi": 67,
                "name": "G4",
                "ticks": 5100,
                "time": 10.625,
                "velocity": 0.5039370078740157
              },
              {
                "duration": 0.25,
                "durationTicks": 120,
                "midi": 65,
                "name": "F4",
                "ticks": 5160,
                "time": 10.75,
                "velocity": 0.5039370078740157
              },
              {
                "duration": 0.25,
                "durationTicks": 120,
                "midi": 72,
                "name": "C5",
                "ticks": 5280,
                "time": 11,
                "velocity": 0.5039370078740157
              },
              {
                "duration": 0.25,
                "durationTicks": 120,
                "midi": 69,
                "name": "A4",
                "ticks": 5400,
                "time": 11.25,
                "velocity": 0.5039370078740157
              },
              {
                "duration": 0.25,
                "durationTicks": 120,
                "midi": 77,
                "name": "F5",
                "ticks": 5520,
                "time": 11.5,
                "velocity": 0.5039370078740157
              },
              {
                "duration": 0.25,
                "durationTicks": 120,
                "midi": 72,
                "name": "C5",
                "ticks": 5640,
                "time": 11.75,
                "velocity": 0.5039370078740157
              },
              {
                "duration": 0.5,
                "durationTicks": 240,
                "midi": 74,
                "name": "D5",
                "ticks": 5760,
                "time": 12,
                "velocity": 0.5039370078740157
              },
              {
                "duration": 0.125,
                "durationTicks": 60,
                "midi": 79,
                "name": "G5",
                "ticks": 6360,
                "time": 13.25,
                "velocity": 0.5039370078740157
              },
              {
                "duration": 0.125,
                "durationTicks": 60,
                "midi": 77,
                "name": "F5",
                "ticks": 6420,
                "time": 13.375,
                "velocity": 0.5039370078740157
              },
              {
                "duration": 0.125,
                "durationTicks": 60,
                "midi": 75,
                "name": "D#5",
                "ticks": 6480,
                "time": 13.5,
                "velocity": 0.5039370078740157
              },
              {
                "duration": 0.125,
                "durationTicks": 60,
                "midi": 77,
                "name": "F5",
                "ticks": 6540,
                "time": 13.625,
                "velocity": 0.5039370078740157
              },
              {
                "duration": 0.25,
                "durationTicks": 120,
                "midi": 79,
                "name": "G5",
                "ticks": 6600,
                "time": 13.75,
                "velocity": 0.5039370078740157
              },
              {
                "duration": 0.5,
                "durationTicks": 240,
                "midi": 72,
                "name": "C5",
                "ticks": 6720,
                "time": 14,
                "velocity": 0.5039370078740157
              },
              {
                "duration": 0.125,
                "durationTicks": 60,
                "midi": 77,
                "name": "F5",
                "ticks": 7320,
                "time": 15.25,
                "velocity": 0.5039370078740157
              },
              {
                "duration": 0.125,
                "durationTicks": 60,
                "midi": 75,
                "name": "D#5",
                "ticks": 7380,
                "time": 15.375,
                "velocity": 0.5039370078740157
              },
              {
                "duration": 0.125,
                "durationTicks": 60,
                "midi": 74,
                "name": "D5",
                "ticks": 7440,
                "time": 15.5,
                "velocity": 0.5039370078740157
              },
              {
                "duration": 0.125,
                "durationTicks": 60,
                "midi": 75,
                "name": "D#5",
                "ticks": 7500,
                "time": 15.625,
                "velocity": 0.5039370078740157
              },
              {
                "duration": 0.25,
                "durationTicks": 120,
                "midi": 77,
                "name": "F5",
                "ticks": 7560,
                "time": 15.75,
                "velocity": 0.5039370078740157
              },
              {
                "duration": 0.5,
                "durationTicks": 240,
                "midi": 70,
                "name": "A#4",
                "ticks": 7680,
                "time": 16,
                "velocity": 0.5039370078740157
              },
              {
                "duration": 0.125,
                "durationTicks": 60,
                "midi": 75,
                "name": "D#5",
                "ticks": 8280,
                "time": 17.25,
                "velocity": 0.5039370078740157
              },
              {
                "duration": 0.125,
                "durationTicks": 60,
                "midi": 74,
                "name": "D5",
                "ticks": 8340,
                "time": 17.375,
                "velocity": 0.5039370078740157
              },
              {
                "duration": 0.125,
                "durationTicks": 60,
                "midi": 72,
                "name": "C5",
                "ticks": 8400,
                "time": 17.5,
                "velocity": 0.5039370078740157
              },
              {
                "duration": 0.125,
                "durationTicks": 60,
                "midi": 74,
                "name": "D5",
                "ticks": 8460,
                "time": 17.625,
                "velocity": 0.5039370078740157
              },
              {
                "duration": 0.25,
                "durationTicks": 120,
                "midi": 75,
                "name": "D#5",
                "ticks": 8520,
                "time": 17.75,
                "velocity": 0.5039370078740157
              },
              {
                "duration": 0.25,
                "durationTicks": 120,
                "midi": 69,
                "name": "A4",
                "ticks": 8640,
                "time": 18,
                "velocity": 0.5039370078740157
              },
              {
                "duration": 0.125,
                "durationTicks": 60,
                "midi": 72,
                "name": "C5",
                "ticks": 8760,
                "time": 18.25,
                "velocity": 0.5039370078740157
              },
              {
                "duration": 0.125,
                "durationTicks": 60,
                "midi": 70,
                "name": "A#4",
                "ticks": 8820,
                "time": 18.375,
                "velocity": 0.5039370078740157
              },
              {
                "duration": 0.125,
                "durationTicks": 60,
                "midi": 69,
                "name": "A4",
                "ticks": 8880,
                "time": 18.5,
                "velocity": 0.5039370078740157
              },
              {
                "duration": 0.125,
                "durationTicks": 60,
                "midi": 70,
                "name": "A#4",
                "ticks": 8940,
                "time": 18.625,
                "velocity": 0.5039370078740157
              },
              {
                "duration": 0.25,
                "durationTicks": 120,
                "midi": 72,
                "name": "C5",
                "ticks": 9000,
                "time": 18.75,
                "velocity": 0.5039370078740157
              },
              {
                "duration": 0.5,
                "durationTicks": 240,
                "midi": 65,
                "name": "F4",
                "ticks": 9120,
                "time": 19,
                "velocity": 0.5039370078740157
              },
              {
                "duration": 0.5,
                "durationTicks": 240,
                "midi": 77,
                "name": "F5",
                "ticks": 9600,
                "time": 20,
                "velocity": 0.5039370078740157
              },
              {
                "duration": 0.5,
                "durationTicks": 240,
                "midi": 65,
                "name": "F4",
                "ticks": 9840,
                "time": 20.5,
                "velocity": 0.5039370078740157
              },
              {
                "duration": 0.5,
                "durationTicks": 240,
                "midi": 69,
                "name": "A4",
                "ticks": 10080,
                "time": 21,
                "velocity": 0.5039370078740157
              },
              {
                "duration": 0.5,
                "durationTicks": 240,
                "midi": 72,
                "name": "C5",
                "ticks": 10320,
                "time": 21.5,
                "velocity": 0.5039370078740157
              },
              {
                "duration": 1,
                "durationTicks": 480,
                "midi": 77,
                "name": "F5",
                "ticks": 10560,
                "time": 22,
                "velocity": 0.5039370078740157
              },
              {
                "duration": 0.5,
                "durationTicks": 240,
                "midi": 65,
                "name": "F4",
                "ticks": 11760,
                "time": 24.5,
                "velocity": 0.5039370078740157
              },
              {
                "duration": 0.5,
                "durationTicks": 240,
                "midi": 70,
                "name": "A#4",
                "ticks": 12000,
                "time": 25,
                "velocity": 0.5039370078740157
              },
              {
                "duration": 0.5,
                "durationTicks": 240,
                "midi": 74,
                "name": "D5",
                "ticks": 12240,
                "time": 25.5,
                "velocity": 0.5039370078740157
              },
              {
                "duration": 1,
                "durationTicks": 480,
                "midi": 77,
                "name": "F5",
                "ticks": 12480,
                "time": 26,
                "velocity": 0.5039370078740157
              },
              {
                "duration": 0.5,
                "durationTicks": 240,
                "midi": 67,
                "name": "G4",
                "ticks": 13680,
                "time": 28.5,
                "velocity": 0.5039370078740157
              },
              {
                "duration": 0.5,
                "durationTicks": 240,
                "midi": 70,
                "name": "A#4",
                "ticks": 13920,
                "time": 29,
                "velocity": 0.5039370078740157
              },
              {
                "duration": 0.5,
                "durationTicks": 240,
                "midi": 72,
                "name": "C5",
                "ticks": 14160,
                "time": 29.5,
                "velocity": 0.5039370078740157
              },
              {
                "duration": 1,
                "durationTicks": 480,
                "midi": 76,
                "name": "E5",
                "ticks": 14400,
                "time": 30,
                "velocity": 0.5039370078740157
              },
              {
                "duration": 0.125,
                "durationTicks": 60,
                "midi": 65,
                "name": "F4",
                "ticks": 15480,
                "time": 32.25,
                "velocity": 0.5039370078740157
              },
              {
                "duration": 0.125,
                "durationTicks": 60,
                "midi": 67,
                "name": "G4",
                "ticks": 15540,
                "time": 32.375,
                "velocity": 0.5039370078740157
              },
              {
                "duration": 0.125,
                "durationTicks": 60,
                "midi": 69,
                "name": "A4",
                "ticks": 15600,
                "time": 32.5,
                "velocity": 0.5039370078740157
              },
              {
                "duration": 0.125,
                "durationTicks": 60,
                "midi": 67,
                "name": "G4",
                "ticks": 15660,
                "time": 32.625,
                "velocity": 0.5039370078740157
              },
              {
                "duration": 0.25,
                "durationTicks": 120,
                "midi": 65,
                "name": "F4",
                "ticks": 15720,
                "time": 32.75,
                "velocity": 0.5039370078740157
              },
              {
                "duration": 0.25,
                "durationTicks": 120,
                "midi": 72,
                "name": "C5",
                "ticks": 15840,
                "time": 33,
                "velocity": 0.5039370078740157
              },
              {
                "duration": 0.25,
                "durationTicks": 120,
                "midi": 69,
                "name": "A4",
                "ticks": 15960,
                "time": 33.25,
                "velocity": 0.5039370078740157
              },
              {
                "duration": 0.25,
                "durationTicks": 120,
                "midi": 77,
                "name": "F5",
                "ticks": 16080,
                "time": 33.5,
                "velocity": 0.5039370078740157
              },
              {
                "duration": 0.25,
                "durationTicks": 120,
                "midi": 72,
                "name": "C5",
                "ticks": 16200,
                "time": 33.75,
                "velocity": 0.5039370078740157
              },
              {
                "duration": 0.25,
                "durationTicks": 120,
                "midi": 81,
                "name": "A5",
                "ticks": 16320,
                "time": 34,
                "velocity": 0.5039370078740157
              },
              {
                "duration": 0.125,
                "durationTicks": 60,
                "midi": 75,
                "name": "D#5",
                "ticks": 16440,
                "time": 34.25,
                "velocity": 0.5039370078740157
              },
              {
                "duration": 0.125,
                "durationTicks": 60,
                "midi": 74,
                "name": "D5",
                "ticks": 16500,
                "time": 34.375,
                "velocity": 0.5039370078740157
              },
              {
                "duration": 0.125,
                "durationTicks": 60,
                "midi": 72,
                "name": "C5",
                "ticks": 16560,
                "time": 34.5,
                "velocity": 0.5039370078740157
              },
              {
                "duration": 0.125,
                "durationTicks": 60,
                "midi": 74,
                "name": "D5",
                "ticks": 16620,
                "time": 34.625,
                "velocity": 0.5039370078740157
              },
              {
                "duration": 0.25,
                "durationTicks": 120,
                "midi": 75,
                "name": "D#5",
                "ticks": 16680,
                "time": 34.75,
                "velocity": 0.5039370078740157
              },
              {
                "duration": 0.25,
                "durationTicks": 120,
                "midi": 69,
                "name": "A4",
                "ticks": 16800,
                "time": 35,
                "velocity": 0.5039370078740157
              },
              {
                "duration": 0.25,
                "durationTicks": 120,
                "midi": 72,
                "name": "C5",
                "ticks": 16920,
                "time": 35.25,
                "velocity": 0.5039370078740157
              },
              {
                "duration": 0.25,
                "durationTicks": 120,
                "midi": 66,
                "name": "F#4",
                "ticks": 17040,
                "time": 35.5,
                "velocity": 0.5039370078740157
              },
              {
                "duration": 0.25,
                "durationTicks": 120,
                "midi": 74,
                "name": "D5",
                "ticks": 17160,
                "time": 35.75,
                "velocity": 0.5039370078740157
              },
              {
                "duration": 0.5,
                "durationTicks": 240,
                "midi": 70,
                "name": "A#4",
                "ticks": 17280,
                "time": 36,
                "velocity": 0.5039370078740157
              },
              {
                "duration": 0.5,
                "durationTicks": 240,
                "midi": 74,
                "name": "D5",
                "ticks": 17520,
                "time": 36.5,
                "velocity": 0.5039370078740157
              },
              {
                "duration": 0.5,
                "durationTicks": 240,
                "midi": 70,
                "name": "A#4",
                "ticks": 17760,
                "time": 37,
                "velocity": 0.5039370078740157
              },
              {
                "duration": 0.5,
                "durationTicks": 240,
                "midi": 67,
                "name": "G4",
                "ticks": 18000,
                "time": 37.5,
                "velocity": 0.5039370078740157
              },
              {
                "duration": 0.5,
                "durationTicks": 240,
                "midi": 68,
                "name": "G#4",
                "ticks": 18240,
                "time": 38,
                "velocity": 0.5039370078740157
              },
              {
                "duration": 0.5,
                "durationTicks": 240,
                "midi": 77,
                "name": "F5",
                "ticks": 18480,
                "time": 38.5,
                "velocity": 0.5039370078740157
              },
              {
                "duration": 0.5,
                "durationTicks": 240,
                "midi": 68,
                "name": "G#4",
                "ticks": 18720,
                "time": 39,
                "velocity": 0.5039370078740157
              },
              {
                "duration": 0.5,
                "durationTicks": 240,
                "midi": 65,
                "name": "F4",
                "ticks": 18960,
                "time": 39.5,
                "velocity": 0.5039370078740157
              },
              {
                "duration": 0.25,
                "durationTicks": 120,
                "midi": 67,
                "name": "G4",
                "ticks": 19200,
                "time": 40,
                "velocity": 0.5039370078740157
              },
              {
                "duration": 0.125,
                "durationTicks": 60,
                "midi": 60,
                "name": "C4",
                "ticks": 19320,
                "time": 40.25,
                "velocity": 0.5039370078740157
              },
              {
                "duration": 0.125,
                "durationTicks": 60,
                "midi": 62,
                "name": "D4",
                "ticks": 19380,
                "time": 40.375,
                "velocity": 0.5039370078740157
              },
              {
                "duration": 0.125,
                "durationTicks": 60,
                "midi": 63,
                "name": "D#4",
                "ticks": 19440,
                "time": 40.5,
                "velocity": 0.5039370078740157
              },
              {
                "duration": 0.125,
                "durationTicks": 60,
                "midi": 62,
                "name": "D4",
                "ticks": 19500,
                "time": 40.625,
                "velocity": 0.5039370078740157
              },
              {
                "duration": 0.25,
                "durationTicks": 120,
                "midi": 60,
                "name": "C4",
                "ticks": 19560,
                "time": 40.75,
                "velocity": 0.5039370078740157
              },
              {
                "duration": 0.25,
                "durationTicks": 120,
                "midi": 67,
                "name": "G4",
                "ticks": 19680,
                "time": 41,
                "velocity": 0.5039370078740157
              },
              {
                "duration": 0.25,
                "durationTicks": 120,
                "midi": 63,
                "name": "D#4",
                "ticks": 19800,
                "time": 41.25,
                "velocity": 0.5039370078740157
              },
              {
                "duration": 0.25,
                "durationTicks": 120,
                "midi": 72,
                "name": "C5",
                "ticks": 19920,
                "time": 41.5,
                "velocity": 0.5039370078740157
              },
              {
                "duration": 0.25,
                "durationTicks": 120,
                "midi": 67,
                "name": "G4",
                "ticks": 20040,
                "time": 41.75,
                "velocity": 0.5039370078740157
              },
              {
                "duration": 0.25,
                "durationTicks": 120,
                "midi": 74,
                "name": "D5",
                "ticks": 20160,
                "time": 42,
                "velocity": 0.5039370078740157
              },
              {
                "duration": 0.125,
                "durationTicks": 60,
                "midi": 68,
                "name": "G#4",
                "ticks": 20280,
                "time": 42.25,
                "velocity": 0.5039370078740157
              },
              {
                "duration": 0.125,
                "durationTicks": 60,
                "midi": 67,
                "name": "G4",
                "ticks": 20340,
                "time": 42.375,
                "velocity": 0.5039370078740157
              },
              {
                "duration": 0.125,
                "durationTicks": 60,
                "midi": 65,
                "name": "F4",
                "ticks": 20400,
                "time": 42.5,
                "velocity": 0.5039370078740157
              },
              {
                "duration": 0.125,
                "durationTicks": 60,
                "midi": 67,
                "name": "G4",
                "ticks": 20460,
                "time": 42.625,
                "velocity": 0.5039370078740157
              },
              {
                "duration": 0.25,
                "durationTicks": 120,
                "midi": 68,
                "name": "G#4",
                "ticks": 20520,
                "time": 42.75,
                "velocity": 0.5039370078740157
              },
              {
                "duration": 0.25,
                "durationTicks": 120,
                "midi": 62,
                "name": "D4",
                "ticks": 20640,
                "time": 43,
                "velocity": 0.5039370078740157
              },
              {
                "duration": 0.25,
                "durationTicks": 120,
                "midi": 65,
                "name": "F4",
                "ticks": 20760,
                "time": 43.25,
                "velocity": 0.5039370078740157
              },
              {
                "duration": 0.25,
                "durationTicks": 120,
                "midi": 59,
                "name": "B3",
                "ticks": 20880,
                "time": 43.5,
                "velocity": 0.5039370078740157
              },
              {
                "duration": 0.25,
                "durationTicks": 120,
                "midi": 67,
                "name": "G4",
                "ticks": 21000,
                "time": 43.75,
                "velocity": 0.5039370078740157
              },
              {
                "duration": 0.5,
                "durationTicks": 240,
                "midi": 63,
                "name": "D#4",
                "ticks": 21120,
                "time": 44,
                "velocity": 0.5039370078740157
              },
              {
                "duration": 0.125,
                "durationTicks": 60,
                "midi": 60,
                "name": "C4",
                "ticks": 21720,
                "time": 45.25,
                "velocity": 0.5039370078740157
              },
              {
                "duration": 0.125,
                "durationTicks": 60,
                "midi": 62,
                "name": "D4",
                "ticks": 21780,
                "time": 45.375,
                "velocity": 0.5039370078740157
              },
              {
                "duration": 0.125,
                "durationTicks": 60,
                "midi": 63,
                "name": "D#4",
                "ticks": 21840,
                "time": 45.5,
                "velocity": 0.5039370078740157
              },
              {
                "duration": 0.125,
                "durationTicks": 60,
                "midi": 62,
                "name": "D4",
                "ticks": 21900,
                "time": 45.625,
                "velocity": 0.5039370078740157
              },
              {
                "duration": 0.25,
                "durationTicks": 120,
                "midi": 60,
                "name": "C4",
                "ticks": 21960,
                "time": 45.75,
                "velocity": 0.5039370078740157
              },
              {
                "duration": 0.75,
                "durationTicks": 360,
                "midi": 72,
                "name": "C5",
                "ticks": 22080,
                "time": 46,
                "velocity": 0.5039370078740157
              },
              {
                "duration": 0.25,
                "durationTicks": 120,
                "midi": 70,
                "name": "A#4",
                "ticks": 22440,
                "time": 46.75,
                "velocity": 0.5039370078740157
              },
              {
                "duration": 0.25,
                "durationTicks": 120,
                "midi": 69,
                "name": "A4",
                "ticks": 22560,
                "time": 47,
                "velocity": 0.5039370078740157
              },
              {
                "duration": 0.125,
                "durationTicks": 60,
                "midi": 65,
                "name": "F4",
                "ticks": 22680,
                "time": 47.25,
                "velocity": 0.5039370078740157
              },
              {
                "duration": 0.125,
                "durationTicks": 60,
                "midi": 67,
                "name": "G4",
                "ticks": 22740,
                "time": 47.375,
                "velocity": 0.5039370078740157
              },
              {
                "duration": 0.125,
                "durationTicks": 60,
                "midi": 69,
                "name": "A4",
                "ticks": 22800,
                "time": 47.5,
                "velocity": 0.5039370078740157
              },
              {
                "duration": 0.125,
                "durationTicks": 60,
                "midi": 67,
                "name": "G4",
                "ticks": 22860,
                "time": 47.625,
                "velocity": 0.5039370078740157
              },
              {
                "duration": 0.25,
                "durationTicks": 120,
                "midi": 65,
                "name": "F4",
                "ticks": 22920,
                "time": 47.75,
                "velocity": 0.5039370078740157
              },
              {
                "duration": 0.75,
                "durationTicks": 360,
                "midi": 77,
                "name": "F5",
                "ticks": 23040,
                "time": 48,
                "velocity": 0.5039370078740157
              },
              {
                "duration": 0.25,
                "durationTicks": 120,
                "midi": 75,
                "name": "D#5",
                "ticks": 23400,
                "time": 48.75,
                "velocity": 0.5039370078740157
              },
              {
                "duration": 0.25,
                "durationTicks": 120,
                "midi": 74,
                "name": "D5",
                "ticks": 23520,
                "time": 49,
                "velocity": 0.5039370078740157
              },
              {
                "duration": 0.125,
                "durationTicks": 60,
                "midi": 70,
                "name": "A#4",
                "ticks": 23640,
                "time": 49.25,
                "velocity": 0.5039370078740157
              },
              {
                "duration": 0.125,
                "durationTicks": 60,
                "midi": 72,
                "name": "C5",
                "ticks": 23700,
                "time": 49.375,
                "velocity": 0.5039370078740157
              },
              {
                "duration": 0.125,
                "durationTicks": 60,
                "midi": 74,
                "name": "D5",
                "ticks": 23760,
                "time": 49.5,
                "velocity": 0.5039370078740157
              },
              {
                "duration": 0.125,
                "durationTicks": 60,
                "midi": 72,
                "name": "C5",
                "ticks": 23820,
                "time": 49.625,
                "velocity": 0.5039370078740157
              },
              {
                "duration": 0.25,
                "durationTicks": 120,
                "midi": 70,
                "name": "A#4",
                "ticks": 23880,
                "time": 49.75,
                "velocity": 0.5039370078740157
              },
              {
                "duration": 0.75,
                "durationTicks": 360,
                "midi": 82,
                "name": "A#5",
                "ticks": 24000,
                "time": 50,
                "velocity": 0.5039370078740157
              },
              {
                "duration": 0.25,
                "durationTicks": 120,
                "midi": 80,
                "name": "G#5",
                "ticks": 24360,
                "time": 50.75,
                "velocity": 0.5039370078740157
              },
              {
                "duration": 0.25,
                "durationTicks": 120,
                "midi": 79,
                "name": "G5",
                "ticks": 24480,
                "time": 51,
                "velocity": 0.5039370078740157
              },
              {
                "duration": 0.125,
                "durationTicks": 60,
                "midi": 82,
                "name": "A#5",
                "ticks": 24600,
                "time": 51.25,
                "velocity": 0.5039370078740157
              },
              {
                "duration": 0.125,
                "durationTicks": 60,
                "midi": 80,
                "name": "G#5",
                "ticks": 24660,
                "time": 51.375,
                "velocity": 0.5039370078740157
              },
              {
                "duration": 0.125,
                "durationTicks": 60,
                "midi": 79,
                "name": "G5",
                "ticks": 24720,
                "time": 51.5,
                "velocity": 0.5039370078740157
              },
              {
                "duration": 0.125,
                "durationTicks": 60,
                "midi": 80,
                "name": "G#5",
                "ticks": 24780,
                "time": 51.625,
                "velocity": 0.5039370078740157
              },
              {
                "duration": 0.25,
                "durationTicks": 120,
                "midi": 82,
                "name": "A#5",
                "ticks": 24840,
                "time": 51.75,
                "velocity": 0.5039370078740157
              },
              {
                "duration": 0.25,
                "durationTicks": 120,
                "midi": 75,
                "name": "D#5",
                "ticks": 24960,
                "time": 52,
                "velocity": 0.5039370078740157
              },
              {
                "duration": 0.125,
                "durationTicks": 60,
                "midi": 79,
                "name": "G5",
                "ticks": 25080,
                "time": 52.25,
                "velocity": 0.5039370078740157
              },
              {
                "duration": 0.125,
                "durationTicks": 60,
                "midi": 77,
                "name": "F5",
                "ticks": 25140,
                "time": 52.375,
                "velocity": 0.5039370078740157
              },
              {
                "duration": 0.125,
                "durationTicks": 60,
                "midi": 75,
                "name": "D#5",
                "ticks": 25200,
                "time": 52.5,
                "velocity": 0.5039370078740157
              },
              {
                "duration": 0.125,
                "durationTicks": 60,
                "midi": 77,
                "name": "F5",
                "ticks": 25260,
                "time": 52.625,
                "velocity": 0.5039370078740157
              },
              {
                "duration": 0.25,
                "durationTicks": 120,
                "midi": 79,
                "name": "G5",
                "ticks": 25320,
                "time": 52.75,
                "velocity": 0.5039370078740157
              },
              {
                "duration": 0.25,
                "durationTicks": 120,
                "midi": 72,
                "name": "C5",
                "ticks": 25440,
                "time": 53,
                "velocity": 0.5039370078740157
              },
              {
                "duration": 0.125,
                "durationTicks": 60,
                "midi": 75,
                "name": "D#5",
                "ticks": 25560,
                "time": 53.25,
                "velocity": 0.5039370078740157
              },
              {
                "duration": 0.125,
                "durationTicks": 60,
                "midi": 74,
                "name": "D5",
                "ticks": 25620,
                "time": 53.375,
                "velocity": 0.5039370078740157
              },
              {
                "duration": 0.125,
                "durationTicks": 60,
                "midi": 72,
                "name": "C5",
                "ticks": 25680,
                "time": 53.5,
                "velocity": 0.5039370078740157
              },
              {
                "duration": 0.125,
                "durationTicks": 60,
                "midi": 74,
                "name": "D5",
                "ticks": 25740,
                "time": 53.625,
                "velocity": 0.5039370078740157
              },
              {
                "duration": 0.25,
                "durationTicks": 120,
                "midi": 75,
                "name": "D#5",
                "ticks": 25800,
                "time": 53.75,
                "velocity": 0.5039370078740157
              },
              {
                "duration": 0.25,
                "durationTicks": 120,
                "midi": 69,
                "name": "A4",
                "ticks": 25920,
                "time": 54,
                "velocity": 0.5039370078740157
              },
              {
                "duration": 0.125,
                "durationTicks": 60,
                "midi": 72,
                "name": "C5",
                "ticks": 26040,
                "time": 54.25,
                "velocity": 0.5039370078740157
              },
              {
                "duration": 0.125,
                "durationTicks": 60,
                "midi": 74,
                "name": "D5",
                "ticks": 26100,
                "time": 54.375,
                "velocity": 0.5039370078740157
              },
              {
                "duration": 0.125,
                "durationTicks": 60,
                "midi": 75,
                "name": "D#5",
                "ticks": 26160,
                "time": 54.5,
                "velocity": 0.5039370078740157
              },
              {
                "duration": 0.125,
                "durationTicks": 60,
                "midi": 74,
                "name": "D5",
                "ticks": 26220,
                "time": 54.625,
                "velocity": 0.5039370078740157
              },
              {
                "duration": 0.25,
                "durationTicks": 120,
                "midi": 72,
                "name": "C5",
                "ticks": 26280,
                "time": 54.75,
                "velocity": 0.5039370078740157
              },
              {
                "duration": 0.25,
                "durationTicks": 120,
                "midi": 77,
                "name": "F5",
                "ticks": 26400,
                "time": 55,
                "velocity": 0.5039370078740157
              },
              {
                "duration": 0.125,
                "durationTicks": 60,
                "midi": 68,
                "name": "G#4",
                "ticks": 26520,
                "time": 55.25,
                "velocity": 0.5039370078740157
              },
              {
                "duration": 0.125,
                "durationTicks": 60,
                "midi": 67,
                "name": "G4",
                "ticks": 26580,
                "time": 55.375,
                "velocity": 0.5039370078740157
              },
              {
                "duration": 0.125,
                "durationTicks": 60,
                "midi": 65,
                "name": "F4",
                "ticks": 26640,
                "time": 55.5,
                "velocity": 0.5039370078740157
              },
              {
                "duration": 0.125,
                "durationTicks": 60,
                "midi": 67,
                "name": "G4",
                "ticks": 26700,
                "time": 55.625,
                "velocity": 0.5039370078740157
              },
              {
                "duration": 0.25,
                "durationTicks": 120,
                "midi": 68,
                "name": "G#4",
                "ticks": 26760,
                "time": 55.75,
                "velocity": 0.5039370078740157
              },
              {
                "duration": 0.25,
                "durationTicks": 120,
                "midi": 67,
                "name": "G4",
                "ticks": 26880,
                "time": 56,
                "velocity": 0.5039370078740157
              },
              {
                "duration": 0.125,
                "durationTicks": 60,
                "midi": 70,
                "name": "A#4",
                "ticks": 27000,
                "time": 56.25,
                "velocity": 0.5039370078740157
              },
              {
                "duration": 0.125,
                "durationTicks": 60,
                "midi": 72,
                "name": "C5",
                "ticks": 27060,
                "time": 56.375,
                "velocity": 0.5039370078740157
              },
              {
                "duration": 0.125,
                "durationTicks": 60,
                "midi": 74,
                "name": "D5",
                "ticks": 27120,
                "time": 56.5,
                "velocity": 0.5039370078740157
              },
              {
                "duration": 0.125,
                "durationTicks": 60,
                "midi": 72,
                "name": "C5",
                "ticks": 27180,
                "time": 56.625,
                "velocity": 0.5039370078740157
              },
              {
                "duration": 0.25,
                "durationTicks": 120,
                "midi": 70,
                "name": "A#4",
                "ticks": 27240,
                "time": 56.75,
                "velocity": 0.5039370078740157
              },
              {
                "duration": 0.25,
                "durationTicks": 120,
                "midi": 75,
                "name": "D#5",
                "ticks": 27360,
                "time": 57,
                "velocity": 0.5039370078740157
              },
              {
                "duration": 0.125,
                "durationTicks": 60,
                "midi": 67,
                "name": "G4",
                "ticks": 27480,
                "time": 57.25,
                "velocity": 0.5039370078740157
              },
              {
                "duration": 0.125,
                "durationTicks": 60,
                "midi": 65,
                "name": "F4",
                "ticks": 27540,
                "time": 57.375,
                "velocity": 0.5039370078740157
              },
              {
                "duration": 0.125,
                "durationTicks": 60,
                "midi": 63,
                "name": "D#4",
                "ticks": 27600,
                "time": 57.5,
                "velocity": 0.5039370078740157
              },
              {
                "duration": 0.125,
                "durationTicks": 60,
                "midi": 65,
                "name": "F4",
                "ticks": 27660,
                "time": 57.625,
                "velocity": 0.5039370078740157
              },
              {
                "duration": 0.25,
                "durationTicks": 120,
                "midi": 67,
                "name": "G4",
                "ticks": 27720,
                "time": 57.75,
                "velocity": 0.5039370078740157
              },
              {
                "duration": 0.25,
                "durationTicks": 120,
                "midi": 63,
                "name": "D#4",
                "ticks": 27840,
                "time": 58,
                "velocity": 0.5039370078740157
              },
              {
                "duration": 0.125,
                "durationTicks": 60,
                "midi": 69,
                "name": "A4",
                "ticks": 27960,
                "time": 58.25,
                "velocity": 0.5039370078740157
              },
              {
                "duration": 0.125,
                "durationTicks": 60,
                "midi": 70,
                "name": "A#4",
                "ticks": 28020,
                "time": 58.375,
                "velocity": 0.5039370078740157
              },
              {
                "duration": 0.125,
                "durationTicks": 60,
                "midi": 72,
                "name": "C5",
                "ticks": 28080,
                "time": 58.5,
                "velocity": 0.5039370078740157
              },
              {
                "duration": 0.125,
                "durationTicks": 60,
                "midi": 70,
                "name": "A#4",
                "ticks": 28140,
                "time": 58.625,
                "velocity": 0.5039370078740157
              },
              {
                "duration": 0.25,
                "durationTicks": 120,
                "midi": 69,
                "name": "A4",
                "ticks": 28200,
                "time": 58.75,
                "velocity": 0.5039370078740157
              },
              {
                "duration": 0.25,
                "durationTicks": 120,
                "midi": 74,
                "name": "D5",
                "ticks": 28320,
                "time": 59,
                "velocity": 0.5039370078740157
              },
              {
                "duration": 0.125,
                "durationTicks": 60,
                "midi": 65,
                "name": "F4",
                "ticks": 28440,
                "time": 59.25,
                "velocity": 0.5039370078740157
              },
              {
                "duration": 0.125,
                "durationTicks": 60,
                "midi": 63,
                "name": "D#4",
                "ticks": 28500,
                "time": 59.375,
                "velocity": 0.5039370078740157
              },
              {
                "duration": 0.125,
                "durationTicks": 60,
                "midi": 62,
                "name": "D4",
                "ticks": 28560,
                "time": 59.5,
                "velocity": 0.5039370078740157
              },
              {
                "duration": 0.125,
                "durationTicks": 60,
                "midi": 63,
                "name": "D#4",
                "ticks": 28620,
                "time": 59.625,
                "velocity": 0.5039370078740157
              },
              {
                "duration": 0.25,
                "durationTicks": 120,
                "midi": 65,
                "name": "F4",
                "ticks": 28680,
                "time": 59.75,
                "velocity": 0.5039370078740157
              },
              {
                "duration": 0.25,
                "durationTicks": 120,
                "midi": 63,
                "name": "D#4",
                "ticks": 28800,
                "time": 60,
                "velocity": 0.5039370078740157
              },
              {
                "duration": 0.125,
                "durationTicks": 60,
                "midi": 67,
                "name": "G4",
                "ticks": 28920,
                "time": 60.25,
                "velocity": 0.5039370078740157
              },
              {
                "duration": 0.125,
                "durationTicks": 60,
                "midi": 69,
                "name": "A4",
                "ticks": 28980,
                "time": 60.375,
                "velocity": 0.5039370078740157
              },
              {
                "duration": 0.125,
                "durationTicks": 60,
                "midi": 70,
                "name": "A#4",
                "ticks": 29040,
                "time": 60.5,
                "velocity": 0.5039370078740157
              },
              {
                "duration": 0.125,
                "durationTicks": 60,
                "midi": 69,
                "name": "A4",
                "ticks": 29100,
                "time": 60.625,
                "velocity": 0.5039370078740157
              },
              {
                "duration": 0.25,
                "durationTicks": 120,
                "midi": 67,
                "name": "G4",
                "ticks": 29160,
                "time": 60.75,
                "velocity": 0.5039370078740157
              },
              {
                "duration": 0.25,
                "durationTicks": 120,
                "midi": 72,
                "name": "C5",
                "ticks": 29280,
                "time": 61,
                "velocity": 0.5039370078740157
              },
              {
                "duration": 0.125,
                "durationTicks": 60,
                "midi": 63,
                "name": "D#4",
                "ticks": 29400,
                "time": 61.25,
                "velocity": 0.5039370078740157
              },
              {
                "duration": 0.125,
                "durationTicks": 60,
                "midi": 62,
                "name": "D4",
                "ticks": 29460,
                "time": 61.375,
                "velocity": 0.5039370078740157
              },
              {
                "duration": 0.125,
                "durationTicks": 60,
                "midi": 60,
                "name": "C4",
                "ticks": 29520,
                "time": 61.5,
                "velocity": 0.5039370078740157
              },
              {
                "duration": 0.125,
                "durationTicks": 60,
                "midi": 62,
                "name": "D4",
                "ticks": 29580,
                "time": 61.625,
                "velocity": 0.5039370078740157
              },
              {
                "duration": 0.25,
                "durationTicks": 120,
                "midi": 63,
                "name": "D#4",
                "ticks": 29640,
                "time": 61.75,
                "velocity": 0.5039370078740157
              },
              {
                "duration": 0.5,
                "durationTicks": 240,
                "midi": 62,
                "name": "D4",
                "ticks": 29760,
                "time": 62,
                "velocity": 0.5039370078740157
              },
              {
                "duration": 0.125,
                "durationTicks": 60,
                "midi": 70,
                "name": "A#4",
                "ticks": 30360,
                "time": 63.25,
                "velocity": 0.5039370078740157
              },
              {
                "duration": 0.125,
                "durationTicks": 60,
                "midi": 72,
                "name": "C5",
                "ticks": 30420,
                "time": 63.375,
                "velocity": 0.5039370078740157
              },
              {
                "duration": 0.125,
                "durationTicks": 60,
                "midi": 74,
                "name": "D5",
                "ticks": 30480,
                "time": 63.5,
                "velocity": 0.5039370078740157
              },
              {
                "duration": 0.125,
                "durationTicks": 60,
                "midi": 72,
                "name": "C5",
                "ticks": 30540,
                "time": 63.625,
                "velocity": 0.5039370078740157
              },
              {
                "duration": 0.25,
                "durationTicks": 120,
                "midi": 70,
                "name": "A#4",
                "ticks": 30600,
                "time": 63.75,
                "velocity": 0.5039370078740157
              },
              {
                "duration": 0.25,
                "durationTicks": 120,
                "midi": 77,
                "name": "F5",
                "ticks": 30720,
                "time": 64,
                "velocity": 0.5039370078740157
              },
              {
                "duration": 0.25,
                "durationTicks": 120,
                "midi": 74,
                "name": "D5",
                "ticks": 30840,
                "time": 64.25,
                "velocity": 0.5039370078740157
              },
              {
                "duration": 0.25,
                "durationTicks": 120,
                "midi": 82,
                "name": "A#5",
                "ticks": 30960,
                "time": 64.5,
                "velocity": 0.5039370078740157
              },
              {
                "duration": 0.25,
                "durationTicks": 120,
                "midi": 77,
                "name": "F5",
                "ticks": 31080,
                "time": 64.75,
                "velocity": 0.5039370078740157
              },
              {
                "duration": 0.25,
                "durationTicks": 120,
                "midi": 74,
                "name": "D5",
                "ticks": 31200,
                "time": 65,
                "velocity": 0.5039370078740157
              },
              {
                "duration": 0.125,
                "durationTicks": 60,
                "midi": 77,
                "name": "F5",
                "ticks": 31320,
                "time": 65.25,
                "velocity": 0.5039370078740157
              },
              {
                "duration": 0.125,
                "durationTicks": 60,
                "midi": 75,
                "name": "D#5",
                "ticks": 31380,
                "time": 65.375,
                "velocity": 0.5039370078740157
              },
              {
                "duration": 0.125,
                "durationTicks": 60,
                "midi": 74,
                "name": "D5",
                "ticks": 31440,
                "time": 65.5,
                "velocity": 0.5039370078740157
              },
              {
                "duration": 0.125,
                "durationTicks": 60,
                "midi": 75,
                "name": "D#5",
                "ticks": 31500,
                "time": 65.625,
                "velocity": 0.5039370078740157
              },
              {
                "duration": 0.25,
                "durationTicks": 120,
                "midi": 77,
                "name": "F5",
                "ticks": 31560,
                "time": 65.75,
                "velocity": 0.5039370078740157
              },
              {
                "duration": 0.25,
                "durationTicks": 120,
                "midi": 70,
                "name": "A#4",
                "ticks": 31680,
                "time": 66,
                "velocity": 0.5039370078740157
              },
              {
                "duration": 0.25,
                "durationTicks": 120,
                "midi": 75,
                "name": "D#5",
                "ticks": 31800,
                "time": 66.25,
                "velocity": 0.5039370078740157
              },
              {
                "duration": 0.25,
                "durationTicks": 120,
                "midi": 70,
                "name": "A#4",
                "ticks": 31920,
                "time": 66.5,
                "velocity": 0.5039370078740157
              },
              {
                "duration": 0.25,
                "durationTicks": 120,
                "midi": 75,
                "name": "D#5",
                "ticks": 32040,
                "time": 66.75,
                "velocity": 0.5039370078740157
              },
              {
                "duration": 0.25,
                "durationTicks": 120,
                "midi": 67,
                "name": "G4",
                "ticks": 32160,
                "time": 67,
                "velocity": 0.5039370078740157
              },
              {
                "duration": 0.125,
                "durationTicks": 60,
                "midi": 63,
                "name": "D#4",
                "ticks": 32280,
                "time": 67.25,
                "velocity": 0.5039370078740157
              },
              {
                "duration": 0.125,
                "durationTicks": 60,
                "midi": 65,
                "name": "F4",
                "ticks": 32340,
                "time": 67.375,
                "velocity": 0.5039370078740157
              },
              {
                "duration": 0.125,
                "durationTicks": 60,
                "midi": 67,
                "name": "G4",
                "ticks": 32400,
                "time": 67.5,
                "velocity": 0.5039370078740157
              },
              {
                "duration": 0.125,
                "durationTicks": 60,
                "midi": 65,
                "name": "F4",
                "ticks": 32460,
                "time": 67.625,
                "velocity": 0.5039370078740157
              },
              {
                "duration": 0.25,
                "durationTicks": 120,
                "midi": 63,
                "name": "D#4",
                "ticks": 32520,
                "time": 67.75,
                "velocity": 0.5039370078740157
              },
              {
                "duration": 0.25,
                "durationTicks": 120,
                "midi": 70,
                "name": "A#4",
                "ticks": 32640,
                "time": 68,
                "velocity": 0.5039370078740157
              },
              {
                "duration": 0.25,
                "durationTicks": 120,
                "midi": 67,
                "name": "G4",
                "ticks": 32760,
                "time": 68.25,
                "velocity": 0.5039370078740157
              },
              {
                "duration": 0.25,
                "durationTicks": 120,
                "midi": 75,
                "name": "D#5",
                "ticks": 32880,
                "time": 68.5,
                "velocity": 0.5039370078740157
              },
              {
                "duration": 0.25,
                "durationTicks": 120,
                "midi": 70,
                "name": "A#4",
                "ticks": 33000,
                "time": 68.75,
                "velocity": 0.5039370078740157
              },
              {
                "duration": 0.25,
                "durationTicks": 120,
                "midi": 67,
                "name": "G4",
                "ticks": 33120,
                "time": 69,
                "velocity": 0.5039370078740157
              },
              {
                "duration": 0.125,
                "durationTicks": 60,
                "midi": 70,
                "name": "A#4",
                "ticks": 33240,
                "time": 69.25,
                "velocity": 0.5039370078740157
              },
              {
                "duration": 0.125,
                "durationTicks": 60,
                "midi": 68,
                "name": "G#4",
                "ticks": 33300,
                "time": 69.375,
                "velocity": 0.5039370078740157
              },
              {
                "duration": 0.125,
                "durationTicks": 60,
                "midi": 67,
                "name": "G4",
                "ticks": 33360,
                "time": 69.5,
                "velocity": 0.5039370078740157
              },
              {
                "duration": 0.125,
                "durationTicks": 60,
                "midi": 68,
                "name": "G#4",
                "ticks": 33420,
                "time": 69.625,
                "velocity": 0.5039370078740157
              },
              {
                "duration": 0.25,
                "durationTicks": 120,
                "midi": 70,
                "name": "A#4",
                "ticks": 33480,
                "time": 69.75,
                "velocity": 0.5039370078740157
              },
              {
                "duration": 0.5,
                "durationTicks": 240,
                "midi": 63,
                "name": "D#4",
                "ticks": 33600,
                "time": 70,
                "velocity": 0.5039370078740157
              },
              {
                "duration": 0.75,
                "durationTicks": 360,
                "midi": 75,
                "name": "D#5",
                "ticks": 33840,
                "time": 70.5,
                "velocity": 0.5039370078740157
              },
              {
                "duration": 0.125,
                "durationTicks": 60,
                "midi": 75,
                "name": "D#5",
                "ticks": 34200,
                "time": 71.25,
                "velocity": 0.5039370078740157
              },
              {
                "duration": 0.125,
                "durationTicks": 60,
                "midi": 74,
                "name": "D5",
                "ticks": 34260,
                "time": 71.375,
                "velocity": 0.5039370078740157
              },
              {
                "duration": 0.125,
                "durationTicks": 60,
                "midi": 72,
                "name": "C5",
                "ticks": 34320,
                "time": 71.5,
                "velocity": 0.5039370078740157
              },
              {
                "duration": 0.125,
                "durationTicks": 60,
                "midi": 74,
                "name": "D5",
                "ticks": 34380,
                "time": 71.625,
                "velocity": 0.5039370078740157
              },
              {
                "duration": 0.25,
                "durationTicks": 120,
                "midi": 75,
                "name": "D#5",
                "ticks": 34440,
                "time": 71.75,
                "velocity": 0.5039370078740157
              },
              {
                "duration": 0.5,
                "durationTicks": 240,
                "midi": 65,
                "name": "F4",
                "ticks": 34560,
                "time": 72,
                "velocity": 0.5039370078740157
              },
              {
                "duration": 0.75,
                "durationTicks": 360,
                "midi": 75,
                "name": "D#5",
                "ticks": 34800,
                "time": 72.5,
                "velocity": 0.5039370078740157
              },
              {
                "duration": 0.125,
                "durationTicks": 60,
                "midi": 72,
                "name": "C5",
                "ticks": 35160,
                "time": 73.25,
                "velocity": 0.5039370078740157
              },
              {
                "duration": 0.125,
                "durationTicks": 60,
                "midi": 74,
                "name": "D5",
                "ticks": 35220,
                "time": 73.375,
                "velocity": 0.5039370078740157
              },
              {
                "duration": 0.125,
                "durationTicks": 60,
                "midi": 75,
                "name": "D#5",
                "ticks": 35280,
                "time": 73.5,
                "velocity": 0.5039370078740157
              },
              {
                "duration": 0.125,
                "durationTicks": 60,
                "midi": 74,
                "name": "D5",
                "ticks": 35340,
                "time": 73.625,
                "velocity": 0.5039370078740157
              },
              {
                "duration": 0.25,
                "durationTicks": 120,
                "midi": 72,
                "name": "C5",
                "ticks": 35400,
                "time": 73.75,
                "velocity": 0.5039370078740157
              },
              {
                "duration": 0.25,
                "durationTicks": 120,
                "midi": 77,
                "name": "F5",
                "ticks": 35520,
                "time": 74,
                "velocity": 0.5039370078740157
              },
              {
                "duration": 0.125,
                "durationTicks": 60,
                "midi": 74,
                "name": "D5",
                "ticks": 35640,
                "time": 74.25,
                "velocity": 0.5039370078740157
              },
              {
                "duration": 0.125,
                "durationTicks": 60,
                "midi": 72,
                "name": "C5",
                "ticks": 35700,
                "time": 74.375,
                "velocity": 0.5039370078740157
              },
              {
                "duration": 0.125,
                "durationTicks": 60,
                "midi": 70,
                "name": "A#4",
                "ticks": 35760,
                "time": 74.5,
                "velocity": 0.5039370078740157
              },
              {
                "duration": 0.125,
                "durationTicks": 60,
                "midi": 72,
                "name": "C5",
                "ticks": 35820,
                "time": 74.625,
                "velocity": 0.5039370078740157
              },
              {
                "duration": 0.25,
                "durationTicks": 120,
                "midi": 74,
                "name": "D5",
                "ticks": 35880,
                "time": 74.75,
                "velocity": 0.5039370078740157
              },
              {
                "duration": 0.25,
                "durationTicks": 120,
                "midi": 65,
                "name": "F4",
                "ticks": 36000,
                "time": 75,
                "velocity": 0.5039370078740157
              },
              {
                "duration": 0.25,
                "durationTicks": 120,
                "midi": 70,
                "name": "A#4",
                "ticks": 36120,
                "time": 75.25,
                "velocity": 0.5039370078740157
              },
              {
                "duration": 0.25,
                "durationTicks": 120,
                "midi": 72,
                "name": "C5",
                "ticks": 36240,
                "time": 75.5,
                "velocity": 0.5039370078740157
              },
              {
                "duration": 0.25,
                "durationTicks": 120,
                "midi": 69,
                "name": "A4",
                "ticks": 36360,
                "time": 75.75,
                "velocity": 0.5039370078740157
              },
              {
                "duration": 2,
                "durationTicks": 960,
                "midi": 70,
                "name": "A#4",
                "ticks": 36480,
                "time": 76,
                "velocity": 0.5039370078740157
              }
            ],
            "endOfTrackTicks": 37440
          },
          {
            "channel": 1,
            "controlChanges": {},
            "pitchBends": [],
            "instrument": {
              "family": "piano",
              "number": 0,
              "name": "acoustic grand piano"
            },
            "name": "",
            "notes": [
              {
                "duration": 0.5,
                "durationTicks": 240,
                "midi": 58,
                "name": "A#3",
                "ticks": 0,
                "time": 0,
                "velocity": 0.5039370078740157
              },
              {
                "duration": 0.5,
                "durationTicks": 240,
                "midi": 46,
                "name": "A#2",
                "ticks": 240,
                "time": 0.5,
                "velocity": 0.5039370078740157
              },
              {
                "duration": 0.5,
                "durationTicks": 240,
                "midi": 50,
                "name": "D3",
                "ticks": 480,
                "time": 1,
                "velocity": 0.5039370078740157
              },
              {
                "duration": 0.5,
                "durationTicks": 240,
                "midi": 53,
                "name": "F3",
                "ticks": 720,
                "time": 1.5,
                "velocity": 0.5039370078740157
              },
              {
                "duration": 1,
                "durationTicks": 480,
                "midi": 58,
                "name": "A#3",
                "ticks": 960,
                "time": 2,
                "velocity": 0.5039370078740157
              },
              {
                "duration": 0.5,
                "durationTicks": 240,
                "midi": 46,
                "name": "A#2",
                "ticks": 2160,
                "time": 4.5,
                "velocity": 0.5039370078740157
              },
              {
                "duration": 0.5,
                "durationTicks": 240,
                "midi": 51,
                "name": "D#3",
                "ticks": 2400,
                "time": 5,
                "velocity": 0.5039370078740157
              },
              {
                "duration": 0.5,
                "durationTicks": 240,
                "midi": 55,
                "name": "G3",
                "ticks": 2640,
                "time": 5.5,
                "velocity": 0.5039370078740157
              },
              {
                "duration": 1,
                "durationTicks": 480,
                "midi": 58,
                "name": "A#3",
                "ticks": 2880,
                "time": 6,
                "velocity": 0.5039370078740157
              },
              {
                "duration": 0.5,
                "durationTicks": 240,
                "midi": 46,
                "name": "A#2",
                "ticks": 4080,
                "time": 8.5,
                "velocity": 0.5039370078740157
              },
              {
                "duration": 0.5,
                "durationTicks": 240,
                "midi": 48,
                "name": "C3",
                "ticks": 4320,
                "time": 9,
                "velocity": 0.5039370078740157
              },
              {
                "duration": 0.5,
                "durationTicks": 240,
                "midi": 51,
                "name": "D#3",
                "ticks": 4560,
                "time": 9.5,
                "velocity": 0.5039370078740157
              },
              {
                "duration": 1,
                "durationTicks": 480,
                "midi": 57,
                "name": "A3",
                "ticks": 4800,
                "time": 10,
                "velocity": 0.5039370078740157
              },
              {
                "duration": 0.125,
                "durationTicks": 60,
                "midi": 58,
                "name": "A#3",
                "ticks": 5880,
                "time": 12.25,
                "velocity": 0.5039370078740157
              },
              {
                "duration": 0.125,
                "durationTicks": 60,
                "midi": 60,
                "name": "C4",
                "ticks": 5940,
                "time": 12.375,
                "velocity": 0.5039370078740157
              },
              {
                "duration": 0.125,
                "durationTicks": 60,
                "midi": 62,
                "name": "D4",
                "ticks": 6000,
                "time": 12.5,
                "velocity": 0.5039370078740157
              },
              {
                "duration": 0.125,
                "durationTicks": 60,
                "midi": 60,
                "name": "C4",
                "ticks": 6060,
                "time": 12.625,
                "velocity": 0.5039370078740157
              },
              {
                "duration": 0.25,
                "durationTicks": 120,
                "midi": 58,
                "name": "A#3",
                "ticks": 6120,
                "time": 12.75,
                "velocity": 0.5039370078740157
              },
              {
                "duration": 0.5,
                "durationTicks": 240,
                "midi": 63,
                "name": "D#4",
                "ticks": 6240,
                "time": 13,
                "velocity": 0.5039370078740157
              },
              {
                "duration": 0.125,
                "durationTicks": 60,
                "midi": 57,
                "name": "A3",
                "ticks": 6840,
                "time": 14.25,
                "velocity": 0.5039370078740157
              },
              {
                "duration": 0.125,
                "durationTicks": 60,
                "midi": 58,
                "name": "A#3",
                "ticks": 6900,
                "time": 14.375,
                "velocity": 0.5039370078740157
              },
              {
                "duration": 0.125,
                "durationTicks": 60,
                "midi": 60,
                "name": "C4",
                "ticks": 6960,
                "time": 14.5,
                "velocity": 0.5039370078740157
              },
              {
                "duration": 0.125,
                "durationTicks": 60,
                "midi": 58,
                "name": "A#3",
                "ticks": 7020,
                "time": 14.625,
                "velocity": 0.5039370078740157
              },
              {
                "duration": 0.25,
                "durationTicks": 120,
                "midi": 57,
                "name": "A3",
                "ticks": 7080,
                "time": 14.75,
                "velocity": 0.5039370078740157
              },
              {
                "duration": 0.5,
                "durationTicks": 240,
                "midi": 62,
                "name": "D4",
                "ticks": 7200,
                "time": 15,
                "velocity": 0.5039370078740157
              },
              {
                "duration": 0.125,
                "durationTicks": 60,
                "midi": 55,
                "name": "G3",
                "ticks": 7800,
                "time": 16.25,
                "velocity": 0.5039370078740157
              },
              {
                "duration": 0.125,
                "durationTicks": 60,
                "midi": 57,
                "name": "A3",
                "ticks": 7860,
                "time": 16.375,
                "velocity": 0.5039370078740157
              },
              {
                "duration": 0.125,
                "durationTicks": 60,
                "midi": 58,
                "name": "A#3",
                "ticks": 7920,
                "time": 16.5,
                "velocity": 0.5039370078740157
              },
              {
                "duration": 0.125,
                "durationTicks": 60,
                "midi": 57,
                "name": "A3",
                "ticks": 7980,
                "time": 16.625,
                "velocity": 0.5039370078740157
              },
              {
                "duration": 0.25,
                "durationTicks": 120,
                "midi": 55,
                "name": "G3",
                "ticks": 8040,
                "time": 16.75,
                "velocity": 0.5039370078740157
              },
              {
                "duration": 0.25,
                "durationTicks": 120,
                "midi": 60,
                "name": "C4",
                "ticks": 8160,
                "time": 17,
                "velocity": 0.5039370078740157
              },
              {
                "duration": 0.125,
                "durationTicks": 60,
                "midi": 48,
                "name": "C3",
                "ticks": 8280,
                "time": 17.25,
                "velocity": 0.5039370078740157
              },
              {
                "duration": 0.125,
                "durationTicks": 60,
                "midi": 50,
                "name": "D3",
                "ticks": 8340,
                "time": 17.375,
                "velocity": 0.5039370078740157
              },
              {
                "duration": 0.125,
                "durationTicks": 60,
                "midi": 51,
                "name": "D#3",
                "ticks": 8400,
                "time": 17.5,
                "velocity": 0.5039370078740157
              },
              {
                "duration": 0.125,
                "durationTicks": 60,
                "midi": 50,
                "name": "D3",
                "ticks": 8460,
                "time": 17.625,
                "velocity": 0.5039370078740157
              },
              {
                "duration": 0.25,
                "durationTicks": 120,
                "midi": 48,
                "name": "C3",
                "ticks": 8520,
                "time": 17.75,
                "velocity": 0.5039370078740157
              },
              {
                "duration": 0.5,
                "durationTicks": 240,
                "midi": 53,
                "name": "F3",
                "ticks": 8640,
                "time": 18,
                "velocity": 0.5039370078740157
              },
              {
                "duration": 0.5,
                "durationTicks": 240,
                "midi": 41,
                "name": "F2",
                "ticks": 8880,
                "time": 18.5,
                "velocity": 0.5039370078740157
              },
              {
                "duration": 0.25,
                "durationTicks": 120,
                "midi": 60,
                "name": "C4",
                "ticks": 9240,
                "time": 19.25,
                "velocity": 0.5039370078740157
              },
              {
                "duration": 0.25,
                "durationTicks": 120,
                "midi": 57,
                "name": "A3",
                "ticks": 9360,
                "time": 19.5,
                "velocity": 0.5039370078740157
              },
              {
                "duration": 0.25,
                "durationTicks": 120,
                "midi": 53,
                "name": "F3",
                "ticks": 9480,
                "time": 19.75,
                "velocity": 0.5039370078740157
              },
              {
                "duration": 0.125,
                "durationTicks": 60,
                "midi": 53,
                "name": "F3",
                "ticks": 9720,
                "time": 20.25,
                "velocity": 0.5039370078740157
              },
              {
                "duration": 0.125,
                "durationTicks": 60,
                "midi": 55,
                "name": "G3",
                "ticks": 9780,
                "time": 20.375,
                "velocity": 0.5039370078740157
              },
              {
                "duration": 0.125,
                "durationTicks": 60,
                "midi": 57,
                "name": "A3",
                "ticks": 9840,
                "time": 20.5,
                "velocity": 0.5039370078740157
              },
              {
                "duration": 0.125,
                "durationTicks": 60,
                "midi": 55,
                "name": "G3",
                "ticks": 9900,
                "time": 20.625,
                "velocity": 0.5039370078740157
              },
              {
                "duration": 0.25,
                "durationTicks": 120,
                "midi": 53,
                "name": "F3",
                "ticks": 9960,
                "time": 20.75,
                "velocity": 0.5039370078740157
              },
              {
                "duration": 0.25,
                "durationTicks": 120,
                "midi": 60,
                "name": "C4",
                "ticks": 10080,
                "time": 21,
                "velocity": 0.5039370078740157
              },
              {
                "duration": 0.25,
                "durationTicks": 120,
                "midi": 57,
                "name": "A3",
                "ticks": 10200,
                "time": 21.25,
                "velocity": 0.5039370078740157
              },
              {
                "duration": 0.25,
                "durationTicks": 120,
                "midi": 65,
                "name": "F4",
                "ticks": 10320,
                "time": 21.5,
                "velocity": 0.5039370078740157
              },
              {
                "duration": 0.25,
                "durationTicks": 120,
                "midi": 60,
                "name": "C4",
                "ticks": 10440,
                "time": 21.75,
                "velocity": 0.5039370078740157
              },
              {
                "duration": 0.25,
                "durationTicks": 120,
                "midi": 57,
                "name": "A3",
                "ticks": 10560,
                "time": 22,
                "velocity": 0.5039370078740157
              },
              {
                "duration": 0.125,
                "durationTicks": 60,
                "midi": 60,
                "name": "C4",
                "ticks": 10680,
                "time": 22.25,
                "velocity": 0.5039370078740157
              },
              {
                "duration": 0.125,
                "durationTicks": 60,
                "midi": 58,
                "name": "A#3",
                "ticks": 10740,
                "time": 22.375,
                "velocity": 0.5039370078740157
              },
              {
                "duration": 0.125,
                "durationTicks": 60,
                "midi": 57,
                "name": "A3",
                "ticks": 10800,
                "time": 22.5,
                "velocity": 0.5039370078740157
              },
              {
                "duration": 0.125,
                "durationTicks": 60,
                "midi": 58,
                "name": "A#3",
                "ticks": 10860,
                "time": 22.625,
                "velocity": 0.5039370078740157
              },
              {
                "duration": 0.25,
                "durationTicks": 120,
                "midi": 60,
                "name": "C4",
                "ticks": 10920,
                "time": 22.75,
                "velocity": 0.5039370078740157
              },
              {
                "duration": 0.25,
                "durationTicks": 120,
                "midi": 53,
                "name": "F3",
                "ticks": 11040,
                "time": 23,
                "velocity": 0.5039370078740157
              },
              {
                "duration": 0.25,
                "durationTicks": 120,
                "midi": 57,
                "name": "A3",
                "ticks": 11160,
                "time": 23.25,
                "velocity": 0.5039370078740157
              },
              {
                "duration": 0.25,
                "durationTicks": 120,
                "midi": 48,
                "name": "C3",
                "ticks": 11280,
                "time": 23.5,
                "velocity": 0.5039370078740157
              },
              {
                "duration": 0.25,
                "durationTicks": 120,
                "midi": 51,
                "name": "D#3",
                "ticks": 11400,
                "time": 23.75,
                "velocity": 0.5039370078740157
              },
              {
                "duration": 0.25,
                "durationTicks": 120,
                "midi": 50,
                "name": "D3",
                "ticks": 11520,
                "time": 24,
                "velocity": 0.5039370078740157
              },
              {
                "duration": 0.125,
                "durationTicks": 60,
                "midi": 46,
                "name": "A#2",
                "ticks": 11640,
                "time": 24.25,
                "velocity": 0.5039370078740157
              },
              {
                "duration": 0.125,
                "durationTicks": 60,
                "midi": 48,
                "name": "C3",
                "ticks": 11700,
                "time": 24.375,
                "velocity": 0.5039370078740157
              },
              {
                "duration": 0.125,
                "durationTicks": 60,
                "midi": 50,
                "name": "D3",
                "ticks": 11760,
                "time": 24.5,
                "velocity": 0.5039370078740157
              },
              {
                "duration": 0.125,
                "durationTicks": 60,
                "midi": 48,
                "name": "C3",
                "ticks": 11820,
                "time": 24.625,
                "velocity": 0.5039370078740157
              },
              {
                "duration": 0.25,
                "durationTicks": 120,
                "midi": 46,
                "name": "A#2",
                "ticks": 11880,
                "time": 24.75,
                "velocity": 0.5039370078740157
              },
              {
                "duration": 0.25,
                "durationTicks": 120,
                "midi": 53,
                "name": "F3",
                "ticks": 12000,
                "time": 25,
                "velocity": 0.5039370078740157
              },
              {
                "duration": 0.25,
                "durationTicks": 120,
                "midi": 50,
                "name": "D3",
                "ticks": 12120,
                "time": 25.25,
                "velocity": 0.5039370078740157
              },
              {
                "duration": 0.25,
                "durationTicks": 120,
                "midi": 58,
                "name": "A#3",
                "ticks": 12240,
                "time": 25.5,
                "velocity": 0.5039370078740157
              },
              {
                "duration": 0.25,
                "durationTicks": 120,
                "midi": 53,
                "name": "F3",
                "ticks": 12360,
                "time": 25.75,
                "velocity": 0.5039370078740157
              },
              {
                "duration": 0.25,
                "durationTicks": 120,
                "midi": 50,
                "name": "D3",
                "ticks": 12480,
                "time": 26,
                "velocity": 0.5039370078740157
              },
              {
                "duration": 0.125,
                "durationTicks": 60,
                "midi": 53,
                "name": "F3",
                "ticks": 12600,
                "time": 26.25,
                "velocity": 0.5039370078740157
              },
              {
                "duration": 0.125,
                "durationTicks": 60,
                "midi": 51,
                "name": "D#3",
                "ticks": 12660,
                "time": 26.375,
                "velocity": 0.5039370078740157
              },
              {
                "duration": 0.125,
                "durationTicks": 60,
                "midi": 50,
                "name": "D3",
                "ticks": 12720,
                "time": 26.5,
                "velocity": 0.5039370078740157
              },
              {
                "duration": 0.125,
                "durationTicks": 60,
                "midi": 51,
                "name": "D#3",
                "ticks": 12780,
                "time": 26.625,
                "velocity": 0.5039370078740157
              },
              {
                "duration": 0.25,
                "durationTicks": 120,
                "midi": 53,
                "name": "F3",
                "ticks": 12840,
                "time": 26.75,
                "velocity": 0.5039370078740157
              },
              {
                "duration": 0.25,
                "durationTicks": 120,
                "midi": 46,
                "name": "A#2",
                "ticks": 12960,
                "time": 27,
                "velocity": 0.5039370078740157
              },
              {
                "duration": 0.25,
                "durationTicks": 120,
                "midi": 50,
                "name": "D3",
                "ticks": 13080,
                "time": 27.25,
                "velocity": 0.5039370078740157
              },
              {
                "duration": 0.25,
                "durationTicks": 120,
                "midi": 43,
                "name": "G2",
                "ticks": 13200,
                "time": 27.5,
                "velocity": 0.5039370078740157
              },
              {
                "duration": 0.25,
                "durationTicks": 120,
                "midi": 46,
                "name": "A#2",
                "ticks": 13320,
                "time": 27.75,
                "velocity": 0.5039370078740157
              },
              {
                "duration": 0.25,
                "durationTicks": 120,
                "midi": 40,
                "name": "E2",
                "ticks": 13440,
                "time": 28,
                "velocity": 0.5039370078740157
              },
              {
                "duration": 0.125,
                "durationTicks": 60,
                "midi": 43,
                "name": "G2",
                "ticks": 13560,
                "time": 28.25,
                "velocity": 0.5039370078740157
              },
              {
                "duration": 0.125,
                "durationTicks": 60,
                "midi": 45,
                "name": "A2",
                "ticks": 13620,
                "time": 28.375,
                "velocity": 0.5039370078740157
              },
              {
                "duration": 0.125,
                "durationTicks": 60,
                "midi": 46,
                "name": "A#2",
                "ticks": 13680,
                "time": 28.5,
                "velocity": 0.5039370078740157
              },
              {
                "duration": 0.125,
                "durationTicks": 60,
                "midi": 45,
                "name": "A2",
                "ticks": 13740,
                "time": 28.625,
                "velocity": 0.5039370078740157
              },
              {
                "duration": 0.25,
                "durationTicks": 120,
                "midi": 43,
                "name": "G2",
                "ticks": 13800,
                "time": 28.75,
                "velocity": 0.5039370078740157
              },
              {
                "duration": 0.25,
                "durationTicks": 120,
                "midi": 52,
                "name": "E3",
                "ticks": 13920,
                "time": 29,
                "velocity": 0.5039370078740157
              },
              {
                "duration": 0.25,
                "durationTicks": 120,
                "midi": 48,
                "name": "C3",
                "ticks": 14040,
                "time": 29.25,
                "velocity": 0.5039370078740157
              },
              {
                "duration": 0.25,
                "durationTicks": 120,
                "midi": 55,
                "name": "G3",
                "ticks": 14160,
                "time": 29.5,
                "velocity": 0.5039370078740157
              },
              {
                "duration": 0.25,
                "durationTicks": 120,
                "midi": 52,
                "name": "E3",
                "ticks": 14280,
                "time": 29.75,
                "velocity": 0.5039370078740157
              },
              {
                "duration": 0.25,
                "durationTicks": 120,
                "midi": 58,
                "name": "A#3",
                "ticks": 14400,
                "time": 30,
                "velocity": 0.5039370078740157
              },
              {
                "duration": 0.125,
                "durationTicks": 60,
                "midi": 48,
                "name": "C3",
                "ticks": 14520,
                "time": 30.25,
                "velocity": 0.5039370078740157
              },
              {
                "duration": 0.125,
                "durationTicks": 60,
                "midi": 50,
                "name": "D3",
                "ticks": 14580,
                "time": 30.375,
                "velocity": 0.5039370078740157
              },
              {
                "duration": 0.125,
                "durationTicks": 60,
                "midi": 52,
                "name": "E3",
                "ticks": 14640,
                "time": 30.5,
                "velocity": 0.5039370078740157
              },
              {
                "duration": 0.125,
                "durationTicks": 60,
                "midi": 50,
                "name": "D3",
                "ticks": 14700,
                "time": 30.625,
                "velocity": 0.5039370078740157
              },
              {
                "duration": 0.25,
                "durationTicks": 120,
                "midi": 48,
                "name": "C3",
                "ticks": 14760,
                "time": 30.75,
                "velocity": 0.5039370078740157
              },
              {
                "duration": 0.25,
                "durationTicks": 120,
                "midi": 55,
                "name": "G3",
                "ticks": 14880,
                "time": 31,
                "velocity": 0.5039370078740157
              },
              {
                "duration": 0.25,
                "durationTicks": 120,
                "midi": 52,
                "name": "E3",
                "ticks": 15000,
                "time": 31.25,
                "velocity": 0.5039370078740157
              },
              {
                "duration": 0.25,
                "durationTicks": 120,
                "midi": 60,
                "name": "C4",
                "ticks": 15120,
                "time": 31.5,
                "velocity": 0.5039370078740157
              },
              {
                "duration": 0.25,
                "durationTicks": 120,
                "midi": 55,
                "name": "G3",
                "ticks": 15240,
                "time": 31.75,
                "velocity": 0.5039370078740157
              },
              {
                "duration": 0.5,
                "durationTicks": 240,
                "midi": 57,
                "name": "A3",
                "ticks": 15360,
                "time": 32,
                "velocity": 0.5039370078740157
              },
              {
                "duration": 0.5,
                "durationTicks": 240,
                "midi": 60,
                "name": "C4",
                "ticks": 15600,
                "time": 32.5,
                "velocity": 0.5039370078740157
              },
              {
                "duration": 0.5,
                "durationTicks": 240,
                "midi": 57,
                "name": "A3",
                "ticks": 15840,
                "time": 33,
                "velocity": 0.5039370078740157
              },
              {
                "duration": 0.5,
                "durationTicks": 240,
                "midi": 53,
                "name": "F3",
                "ticks": 16080,
                "time": 33.5,
                "velocity": 0.5039370078740157
              },
              {
                "duration": 0.5,
                "durationTicks": 240,
                "midi": 54,
                "name": "F#3",
                "ticks": 16320,
                "time": 34,
                "velocity": 0.5039370078740157
              },
              {
                "duration": 0.5,
                "durationTicks": 240,
                "midi": 57,
                "name": "A3",
                "ticks": 16560,
                "time": 34.5,
                "velocity": 0.5039370078740157
              },
              {
                "duration": 0.5,
                "durationTicks": 240,
                "midi": 54,
                "name": "F#3",
                "ticks": 16800,
                "time": 35,
                "velocity": 0.5039370078740157
              },
              {
                "duration": 0.5,
                "durationTicks": 240,
                "midi": 50,
                "name": "D3",
                "ticks": 17040,
                "time": 35.5,
                "velocity": 0.5039370078740157
              },
              {
                "duration": 0.25,
                "durationTicks": 120,
                "midi": 55,
                "name": "G3",
                "ticks": 17280,
                "time": 36,
                "velocity": 0.5039370078740157
              },
              {
                "duration": 0.125,
                "durationTicks": 60,
                "midi": 43,
                "name": "G2",
                "ticks": 17400,
                "time": 36.25,
                "velocity": 0.5039370078740157
              },
              {
                "duration": 0.125,
                "durationTicks": 60,
                "midi": 45,
                "name": "A2",
                "ticks": 17460,
                "time": 36.375,
                "velocity": 0.5039370078740157
              },
              {
                "duration": 0.125,
                "durationTicks": 60,
                "midi": 46,
                "name": "A#2",
                "ticks": 17520,
                "time": 36.5,
                "velocity": 0.5039370078740157
              },
              {
                "duration": 0.125,
                "durationTicks": 60,
                "midi": 45,
                "name": "A2",
                "ticks": 17580,
                "time": 36.625,
                "velocity": 0.5039370078740157
              },
              {
                "duration": 0.25,
                "durationTicks": 120,
                "midi": 43,
                "name": "G2",
                "ticks": 17640,
                "time": 36.75,
                "velocity": 0.5039370078740157
              },
              {
                "duration": 0.25,
                "durationTicks": 120,
                "midi": 50,
                "name": "D3",
                "ticks": 17760,
                "time": 37,
                "velocity": 0.5039370078740157
              },
              {
                "duration": 0.25,
                "durationTicks": 120,
                "midi": 46,
                "name": "A#2",
                "ticks": 17880,
                "time": 37.25,
                "velocity": 0.5039370078740157
              },
              {
                "duration": 0.25,
                "durationTicks": 120,
                "midi": 55,
                "name": "G3",
                "ticks": 18000,
                "time": 37.5,
                "velocity": 0.5039370078740157
              },
              {
                "duration": 0.25,
                "durationTicks": 120,
                "midi": 50,
                "name": "D3",
                "ticks": 18120,
                "time": 37.75,
                "velocity": 0.5039370078740157
              },
              {
                "duration": 0.25,
                "durationTicks": 120,
                "midi": 58,
                "name": "A#3",
                "ticks": 18240,
                "time": 38,
                "velocity": 0.5039370078740157
              },
              {
                "duration": 0.125,
                "durationTicks": 60,
                "midi": 56,
                "name": "G#3",
                "ticks": 18360,
                "time": 38.25,
                "velocity": 0.5039370078740157
              },
              {
                "duration": 0.125,
                "durationTicks": 60,
                "midi": 55,
                "name": "G3",
                "ticks": 18420,
                "time": 38.375,
                "velocity": 0.5039370078740157
              },
              {
                "duration": 0.125,
                "durationTicks": 60,
                "midi": 53,
                "name": "F3",
                "ticks": 18480,
                "time": 38.5,
                "velocity": 0.5039370078740157
              },
              {
                "duration": 0.125,
                "durationTicks": 60,
                "midi": 55,
                "name": "G3",
                "ticks": 18540,
                "time": 38.625,
                "velocity": 0.5039370078740157
              },
              {
                "duration": 0.25,
                "durationTicks": 120,
                "midi": 56,
                "name": "G#3",
                "ticks": 18600,
                "time": 38.75,
                "velocity": 0.5039370078740157
              },
              {
                "duration": 0.25,
                "durationTicks": 120,
                "midi": 50,
                "name": "D3",
                "ticks": 18720,
                "time": 39,
                "velocity": 0.5039370078740157
              },
              {
                "duration": 0.25,
                "durationTicks": 120,
                "midi": 53,
                "name": "F3",
                "ticks": 18840,
                "time": 39.25,
                "velocity": 0.5039370078740157
              },
              {
                "duration": 0.25,
                "durationTicks": 120,
                "midi": 46,
                "name": "A#2",
                "ticks": 18960,
                "time": 39.5,
                "velocity": 0.5039370078740157
              },
              {
                "duration": 0.25,
                "durationTicks": 120,
                "midi": 50,
                "name": "D3",
                "ticks": 19080,
                "time": 39.75,
                "velocity": 0.5039370078740157
              },
              {
                "duration": 0.5,
                "durationTicks": 240,
                "midi": 51,
                "name": "D#3",
                "ticks": 19200,
                "time": 40,
                "velocity": 0.5039370078740157
              },
              {
                "duration": 0.5,
                "durationTicks": 240,
                "midi": 55,
                "name": "G3",
                "ticks": 19440,
                "time": 40.5,
                "velocity": 0.5039370078740157
              },
              {
                "duration": 0.5,
                "durationTicks": 240,
                "midi": 51,
                "name": "D#3",
                "ticks": 19680,
                "time": 41,
                "velocity": 0.5039370078740157
              },
              {
                "duration": 0.5,
                "durationTicks": 240,
                "midi": 48,
                "name": "C3",
                "ticks": 19920,
                "time": 41.5,
                "velocity": 0.5039370078740157
              },
              {
                "duration": 0.5,
                "durationTicks": 240,
                "midi": 47,
                "name": "B2",
                "ticks": 20160,
                "time": 42,
                "velocity": 0.5039370078740157
              },
              {
                "duration": 0.5,
                "durationTicks": 240,
                "midi": 50,
                "name": "D3",
                "ticks": 20400,
                "time": 42.5,
                "velocity": 0.5039370078740157
              },
              {
                "duration": 0.5,
                "durationTicks": 240,
                "midi": 47,
                "name": "B2",
                "ticks": 20640,
                "time": 43,
                "velocity": 0.5039370078740157
              },
              {
                "duration": 0.5,
                "durationTicks": 240,
                "midi": 43,
                "name": "G2",
                "ticks": 20880,
                "time": 43.5,
                "velocity": 0.5039370078740157
              },
              {
                "duration": 0.25,
                "durationTicks": 120,
                "midi": 48,
                "name": "C3",
                "ticks": 21120,
                "time": 44,
                "velocity": 0.5039370078740157
              },
              {
                "duration": 0.125,
                "durationTicks": 60,
                "midi": 36,
                "name": "C2",
                "ticks": 21240,
                "time": 44.25,
                "velocity": 0.5039370078740157
              },
              {
                "duration": 0.125,
                "durationTicks": 60,
                "midi": 38,
                "name": "D2",
                "ticks": 21300,
                "time": 44.375,
                "velocity": 0.5039370078740157
              },
              {
                "duration": 0.125,
                "durationTicks": 60,
                "midi": 39,
                "name": "D#2",
                "ticks": 21360,
                "time": 44.5,
                "velocity": 0.5039370078740157
              },
              {
                "duration": 0.125,
                "durationTicks": 60,
                "midi": 38,
                "name": "D2",
                "ticks": 21420,
                "time": 44.625,
                "velocity": 0.5039370078740157
              },
              {
                "duration": 0.25,
                "durationTicks": 120,
                "midi": 36,
                "name": "C2",
                "ticks": 21480,
                "time": 44.75,
                "velocity": 0.5039370078740157
              },
              {
                "duration": 0.75,
                "durationTicks": 360,
                "midi": 48,
                "name": "C3",
                "ticks": 21600,
                "time": 45,
                "velocity": 0.5039370078740157
              },
              {
                "duration": 0.25,
                "durationTicks": 120,
                "midi": 46,
                "name": "A#2",
                "ticks": 21960,
                "time": 45.75,
                "velocity": 0.5039370078740157
              },
              {
                "duration": 0.25,
                "durationTicks": 120,
                "midi": 45,
                "name": "A2",
                "ticks": 22080,
                "time": 46,
                "velocity": 0.5039370078740157
              },
              {
                "duration": 0.125,
                "durationTicks": 60,
                "midi": 41,
                "name": "F2",
                "ticks": 22200,
                "time": 46.25,
                "velocity": 0.5039370078740157
              },
              {
                "duration": 0.125,
                "durationTicks": 60,
                "midi": 43,
                "name": "G2",
                "ticks": 22260,
                "time": 46.375,
                "velocity": 0.5039370078740157
              },
              {
                "duration": 0.125,
                "durationTicks": 60,
                "midi": 45,
                "name": "A2",
                "ticks": 22320,
                "time": 46.5,
                "velocity": 0.5039370078740157
              },
              {
                "duration": 0.125,
                "durationTicks": 60,
                "midi": 43,
                "name": "G2",
                "ticks": 22380,
                "time": 46.625,
                "velocity": 0.5039370078740157
              },
              {
                "duration": 0.25,
                "durationTicks": 120,
                "midi": 41,
                "name": "F2",
                "ticks": 22440,
                "time": 46.75,
                "velocity": 0.5039370078740157
              },
              {
                "duration": 0.75,
                "durationTicks": 360,
                "midi": 53,
                "name": "F3",
                "ticks": 22560,
                "time": 47,
                "velocity": 0.5039370078740157
              },
              {
                "duration": 0.25,
                "durationTicks": 120,
                "midi": 51,
                "name": "D#3",
                "ticks": 22920,
                "time": 47.75,
                "velocity": 0.5039370078740157
              },
              {
                "duration": 0.25,
                "durationTicks": 120,
                "midi": 50,
                "name": "D3",
                "ticks": 23040,
                "time": 48,
                "velocity": 0.5039370078740157
              },
              {
                "duration": 0.125,
                "durationTicks": 60,
                "midi": 46,
                "name": "A#2",
                "ticks": 23160,
                "time": 48.25,
                "velocity": 0.5039370078740157
              },
              {
                "duration": 0.125,
                "durationTicks": 60,
                "midi": 48,
                "name": "C3",
                "ticks": 23220,
                "time": 48.375,
                "velocity": 0.5039370078740157
              },
              {
                "duration": 0.125,
                "durationTicks": 60,
                "midi": 50,
                "name": "D3",
                "ticks": 23280,
                "time": 48.5,
                "velocity": 0.5039370078740157
              },
              {
                "duration": 0.125,
                "durationTicks": 60,
                "midi": 48,
                "name": "C3",
                "ticks": 23340,
                "time": 48.625,
                "velocity": 0.5039370078740157
              },
              {
                "duration": 0.25,
                "durationTicks": 120,
                "midi": 46,
                "name": "A#2",
                "ticks": 23400,
                "time": 48.75,
                "velocity": 0.5039370078740157
              },
              {
                "duration": 0.75,
                "durationTicks": 360,
                "midi": 58,
                "name": "A#3",
                "ticks": 23520,
                "time": 49,
                "velocity": 0.5039370078740157
              },
              {
                "duration": 0.25,
                "durationTicks": 120,
                "midi": 56,
                "name": "G#3",
                "ticks": 23880,
                "time": 49.75,
                "velocity": 0.5039370078740157
              },
              {
                "duration": 0.25,
                "durationTicks": 120,
                "midi": 55,
                "name": "G3",
                "ticks": 24000,
                "time": 50,
                "velocity": 0.5039370078740157
              },
              {
                "duration": 0.125,
                "durationTicks": 60,
                "midi": 51,
                "name": "D#3",
                "ticks": 24120,
                "time": 50.25,
                "velocity": 0.5039370078740157
              },
              {
                "duration": 0.125,
                "durationTicks": 60,
                "midi": 53,
                "name": "F3",
                "ticks": 24180,
                "time": 50.375,
                "velocity": 0.5039370078740157
              },
              {
                "duration": 0.125,
                "durationTicks": 60,
                "midi": 55,
                "name": "G3",
                "ticks": 24240,
                "time": 50.5,
                "velocity": 0.5039370078740157
              },
              {
                "duration": 0.125,
                "durationTicks": 60,
                "midi": 53,
                "name": "F3",
                "ticks": 24300,
                "time": 50.625,
                "velocity": 0.5039370078740157
              },
              {
                "duration": 0.25,
                "durationTicks": 120,
                "midi": 51,
                "name": "D#3",
                "ticks": 24360,
                "time": 50.75,
                "velocity": 0.5039370078740157
              },
              {
                "duration": 0.75,
                "durationTicks": 360,
                "midi": 63,
                "name": "D#4",
                "ticks": 24480,
                "time": 51,
                "velocity": 0.5039370078740157
              },
              {
                "duration": 0.25,
                "durationTicks": 120,
                "midi": 62,
                "name": "D4",
                "ticks": 24840,
                "time": 51.75,
                "velocity": 0.5039370078740157
              },
              {
                "duration": 0.25,
                "durationTicks": 120,
                "midi": 60,
                "name": "C4",
                "ticks": 24960,
                "time": 52,
                "velocity": 0.5039370078740157
              },
              {
                "duration": 0.125,
                "durationTicks": 60,
                "midi": 63,
                "name": "D#4",
                "ticks": 25080,
                "time": 52.25,
                "velocity": 0.5039370078740157
              },
              {
                "duration": 0.125,
                "durationTicks": 60,
                "midi": 62,
                "name": "D4",
                "ticks": 25140,
                "time": 52.375,
                "velocity": 0.5039370078740157
              },
              {
                "duration": 0.125,
                "durationTicks": 60,
                "midi": 60,
                "name": "C4",
                "ticks": 25200,
                "time": 52.5,
                "velocity": 0.5039370078740157
              },
              {
                "duration": 0.125,
                "durationTicks": 60,
                "midi": 62,
                "name": "D4",
                "ticks": 25260,
                "time": 52.625,
                "velocity": 0.5039370078740157
              },
              {
                "duration": 0.25,
                "durationTicks": 120,
                "midi": 63,
                "name": "D#4",
                "ticks": 25320,
                "time": 52.75,
                "velocity": 0.5039370078740157
              },
              {
                "duration": 0.25,
                "durationTicks": 120,
                "midi": 57,
                "name": "A3",
                "ticks": 25440,
                "time": 53,
                "velocity": 0.5039370078740157
              },
              {
                "duration": 0.125,
                "durationTicks": 60,
                "midi": 60,
                "name": "C4",
                "ticks": 25560,
                "time": 53.25,
                "velocity": 0.5039370078740157
              },
              {
                "duration": 0.125,
                "durationTicks": 60,
                "midi": 58,
                "name": "A#3",
                "ticks": 25620,
                "time": 53.375,
                "velocity": 0.5039370078740157
              },
              {
                "duration": 0.125,
                "durationTicks": 60,
                "midi": 57,
                "name": "A3",
                "ticks": 25680,
                "time": 53.5,
                "velocity": 0.5039370078740157
              },
              {
                "duration": 0.125,
                "durationTicks": 60,
                "midi": 58,
                "name": "A#3",
                "ticks": 25740,
                "time": 53.625,
                "velocity": 0.5039370078740157
              },
              {
                "duration": 0.25,
                "durationTicks": 120,
                "midi": 60,
                "name": "C4",
                "ticks": 25800,
                "time": 53.75,
                "velocity": 0.5039370078740157
              },
              {
                "duration": 0.25,
                "durationTicks": 120,
                "midi": 53,
                "name": "F3",
                "ticks": 25920,
                "time": 54,
                "velocity": 0.5039370078740157
              },
              {
                "duration": 0.125,
                "durationTicks": 60,
                "midi": 57,
                "name": "A3",
                "ticks": 26040,
                "time": 54.25,
                "velocity": 0.5039370078740157
              },
              {
                "duration": 0.125,
                "durationTicks": 60,
                "midi": 58,
                "name": "A#3",
                "ticks": 26100,
                "time": 54.375,
                "velocity": 0.5039370078740157
              },
              {
                "duration": 0.125,
                "durationTicks": 60,
                "midi": 60,
                "name": "C4",
                "ticks": 26160,
                "time": 54.5,
                "velocity": 0.5039370078740157
              },
              {
                "duration": 0.125,
                "durationTicks": 60,
                "midi": 58,
                "name": "A#3",
                "ticks": 26220,
                "time": 54.625,
                "velocity": 0.5039370078740157
              },
              {
                "duration": 0.25,
                "durationTicks": 120,
                "midi": 57,
                "name": "A3",
                "ticks": 26280,
                "time": 54.75,
                "velocity": 0.5039370078740157
              },
              {
                "duration": 0.25,
                "durationTicks": 120,
                "midi": 62,
                "name": "D4",
                "ticks": 26400,
                "time": 55,
                "velocity": 0.5039370078740157
              },
              {
                "duration": 0.125,
                "durationTicks": 60,
                "midi": 53,
                "name": "F3",
                "ticks": 26520,
                "time": 55.25,
                "velocity": 0.5039370078740157
              },
              {
                "duration": 0.125,
                "durationTicks": 60,
                "midi": 51,
                "name": "D#3",
                "ticks": 26580,
                "time": 55.375,
                "velocity": 0.5039370078740157
              },
              {
                "duration": 0.125,
                "durationTicks": 60,
                "midi": 50,
                "name": "D3",
                "ticks": 26640,
                "time": 55.5,
                "velocity": 0.5039370078740157
              },
              {
                "duration": 0.125,
                "durationTicks": 60,
                "midi": 51,
                "name": "D#3",
                "ticks": 26700,
                "time": 55.625,
                "velocity": 0.5039370078740157
              },
              {
                "duration": 0.25,
                "durationTicks": 120,
                "midi": 53,
                "name": "F3",
                "ticks": 26760,
                "time": 55.75,
                "velocity": 0.5039370078740157
              },
              {
                "duration": 0.25,
                "durationTicks": 120,
                "midi": 51,
                "name": "D#3",
                "ticks": 26880,
                "time": 56,
                "velocity": 0.5039370078740157
              },
              {
                "duration": 0.125,
                "durationTicks": 60,
                "midi": 55,
                "name": "G3",
                "ticks": 27000,
                "time": 56.25,
                "velocity": 0.5039370078740157
              },
              {
                "duration": 0.125,
                "durationTicks": 60,
                "midi": 57,
                "name": "A3",
                "ticks": 27060,
                "time": 56.375,
                "velocity": 0.5039370078740157
              },
              {
                "duration": 0.125,
                "durationTicks": 60,
                "midi": 58,
                "name": "A#3",
                "ticks": 27120,
                "time": 56.5,
                "velocity": 0.5039370078740157
              },
              {
                "duration": 0.125,
                "durationTicks": 60,
                "midi": 57,
                "name": "A3",
                "ticks": 27180,
                "time": 56.625,
                "velocity": 0.5039370078740157
              },
              {
                "duration": 0.25,
                "durationTicks": 120,
                "midi": 55,
                "name": "G3",
                "ticks": 27240,
                "time": 56.75,
                "velocity": 0.5039370078740157
              },
              {
                "duration": 0.25,
                "durationTicks": 120,
                "midi": 60,
                "name": "C4",
                "ticks": 27360,
                "time": 57,
                "velocity": 0.5039370078740157
              },
              {
                "duration": 0.125,
                "durationTicks": 60,
                "midi": 51,
                "name": "D#3",
                "ticks": 27480,
                "time": 57.25,
                "velocity": 0.5039370078740157
              },
              {
                "duration": 0.125,
                "durationTicks": 60,
                "midi": 50,
                "name": "D3",
                "ticks": 27540,
                "time": 57.375,
                "velocity": 0.5039370078740157
              },
              {
                "duration": 0.125,
                "durationTicks": 60,
                "midi": 48,
                "name": "C3",
                "ticks": 27600,
                "time": 57.5,
                "velocity": 0.5039370078740157
              },
              {
                "duration": 0.125,
                "durationTicks": 60,
                "midi": 50,
                "name": "D3",
                "ticks": 27660,
                "time": 57.625,
                "velocity": 0.5039370078740157
              },
              {
                "duration": 0.25,
                "durationTicks": 120,
                "midi": 51,
                "name": "D#3",
                "ticks": 27720,
                "time": 57.75,
                "velocity": 0.5039370078740157
              },
              {
                "duration": 0.25,
                "durationTicks": 120,
                "midi": 50,
                "name": "D3",
                "ticks": 27840,
                "time": 58,
                "velocity": 0.5039370078740157
              },
              {
                "duration": 0.125,
                "durationTicks": 60,
                "midi": 53,
                "name": "F3",
                "ticks": 27960,
                "time": 58.25,
                "velocity": 0.5039370078740157
              },
              {
                "duration": 0.125,
                "durationTicks": 60,
                "midi": 55,
                "name": "G3",
                "ticks": 28020,
                "time": 58.375,
                "velocity": 0.5039370078740157
              },
              {
                "duration": 0.125,
                "durationTicks": 60,
                "midi": 57,
                "name": "A3",
                "ticks": 28080,
                "time": 58.5,
                "velocity": 0.5039370078740157
              },
              {
                "duration": 0.125,
                "durationTicks": 60,
                "midi": 55,
                "name": "G3",
                "ticks": 28140,
                "time": 58.625,
                "velocity": 0.5039370078740157
              },
              {
                "duration": 0.25,
                "durationTicks": 120,
                "midi": 53,
                "name": "F3",
                "ticks": 28200,
                "time": 58.75,
                "velocity": 0.5039370078740157
              },
              {
                "duration": 0.25,
                "durationTicks": 120,
                "midi": 58,
                "name": "A#3",
                "ticks": 28320,
                "time": 59,
                "velocity": 0.5039370078740157
              },
              {
                "duration": 0.125,
                "durationTicks": 60,
                "midi": 50,
                "name": "D3",
                "ticks": 28440,
                "time": 59.25,
                "velocity": 0.5039370078740157
              },
              {
                "duration": 0.125,
                "durationTicks": 60,
                "midi": 48,
                "name": "C3",
                "ticks": 28500,
                "time": 59.375,
                "velocity": 0.5039370078740157
              },
              {
                "duration": 0.125,
                "durationTicks": 60,
                "midi": 46,
                "name": "A#2",
                "ticks": 28560,
                "time": 59.5,
                "velocity": 0.5039370078740157
              },
              {
                "duration": 0.125,
                "durationTicks": 60,
                "midi": 48,
                "name": "C3",
                "ticks": 28620,
                "time": 59.625,
                "velocity": 0.5039370078740157
              },
              {
                "duration": 0.25,
                "durationTicks": 120,
                "midi": 50,
                "name": "D3",
                "ticks": 28680,
                "time": 59.75,
                "velocity": 0.5039370078740157
              },
              {
                "duration": 0.25,
                "durationTicks": 120,
                "midi": 48,
                "name": "C3",
                "ticks": 28800,
                "time": 60,
                "velocity": 0.5039370078740157
              },
              {
                "duration": 0.125,
                "durationTicks": 60,
                "midi": 51,
                "name": "D#3",
                "ticks": 28920,
                "time": 60.25,
                "velocity": 0.5039370078740157
              },
              {
                "duration": 0.125,
                "durationTicks": 60,
                "midi": 53,
                "name": "F3",
                "ticks": 28980,
                "time": 60.375,
                "velocity": 0.5039370078740157
              },
              {
                "duration": 0.125,
                "durationTicks": 60,
                "midi": 55,
                "name": "G3",
                "ticks": 29040,
                "time": 60.5,
                "velocity": 0.5039370078740157
              },
              {
                "duration": 0.125,
                "durationTicks": 60,
                "midi": 53,
                "name": "F3",
                "ticks": 29100,
                "time": 60.625,
                "velocity": 0.5039370078740157
              },
              {
                "duration": 0.25,
                "durationTicks": 120,
                "midi": 51,
                "name": "D#3",
                "ticks": 29160,
                "time": 60.75,
                "velocity": 0.5039370078740157
              },
              {
                "duration": 0.25,
                "durationTicks": 120,
                "midi": 57,
                "name": "A3",
                "ticks": 29280,
                "time": 61,
                "velocity": 0.5039370078740157
              },
              {
                "duration": 0.125,
                "durationTicks": 60,
                "midi": 48,
                "name": "C3",
                "ticks": 29400,
                "time": 61.25,
                "velocity": 0.5039370078740157
              },
              {
                "duration": 0.125,
                "durationTicks": 60,
                "midi": 46,
                "name": "A#2",
                "ticks": 29460,
                "time": 61.375,
                "velocity": 0.5039370078740157
              },
              {
                "duration": 0.125,
                "durationTicks": 60,
                "midi": 45,
                "name": "A2",
                "ticks": 29520,
                "time": 61.5,
                "velocity": 0.5039370078740157
              },
              {
                "duration": 0.125,
                "durationTicks": 60,
                "midi": 46,
                "name": "A#2",
                "ticks": 29580,
                "time": 61.625,
                "velocity": 0.5039370078740157
              },
              {
                "duration": 0.25,
                "durationTicks": 120,
                "midi": 48,
                "name": "C3",
                "ticks": 29640,
                "time": 61.75,
                "velocity": 0.5039370078740157
              },
              {
                "duration": 0.25,
                "durationTicks": 120,
                "midi": 46,
                "name": "A#2",
                "ticks": 29760,
                "time": 62,
                "velocity": 0.5039370078740157
              },
              {
                "duration": 0.125,
                "durationTicks": 60,
                "midi": 58,
                "name": "A#3",
                "ticks": 29880,
                "time": 62.25,
                "velocity": 0.5039370078740157
              },
              {
                "duration": 0.125,
                "durationTicks": 60,
                "midi": 60,
                "name": "C4",
                "ticks": 29940,
                "time": 62.375,
                "velocity": 0.5039370078740157
              },
              {
                "duration": 0.125,
                "durationTicks": 60,
                "midi": 62,
                "name": "D4",
                "ticks": 30000,
                "time": 62.5,
                "velocity": 0.5039370078740157
              },
              {
                "duration": 0.125,
                "durationTicks": 60,
                "midi": 60,
                "name": "C4",
                "ticks": 30060,
                "time": 62.625,
                "velocity": 0.5039370078740157
              },
              {
                "duration": 0.25,
                "durationTicks": 120,
                "midi": 58,
                "name": "A#3",
                "ticks": 30120,
                "time": 62.75,
                "velocity": 0.5039370078740157
              },
              {
                "duration": 0.25,
                "durationTicks": 120,
                "midi": 65,
                "name": "F4",
                "ticks": 30240,
                "time": 63,
                "velocity": 0.5039370078740157
              },
              {
                "duration": 0.25,
                "durationTicks": 120,
                "midi": 62,
                "name": "D4",
                "ticks": 30360,
                "time": 63.25,
                "velocity": 0.5039370078740157
              },
              {
                "duration": 0.25,
                "durationTicks": 120,
                "midi": 70,
                "name": "A#4",
                "ticks": 30480,
                "time": 63.5,
                "velocity": 0.5039370078740157
              },
              {
                "duration": 0.25,
                "durationTicks": 120,
                "midi": 65,
                "name": "F4",
                "ticks": 30600,
                "time": 63.75,
                "velocity": 0.5039370078740157
              },
              {
                "duration": 0.25,
                "durationTicks": 120,
                "midi": 62,
                "name": "D4",
                "ticks": 30720,
                "time": 64,
                "velocity": 0.5039370078740157
              },
              {
                "duration": 0.125,
                "durationTicks": 60,
                "midi": 65,
                "name": "F4",
                "ticks": 30840,
                "time": 64.25,
                "velocity": 0.5039370078740157
              },
              {
                "duration": 0.125,
                "durationTicks": 60,
                "midi": 63,
                "name": "D#4",
                "ticks": 30900,
                "time": 64.375,
                "velocity": 0.5039370078740157
              },
              {
                "duration": 0.125,
                "durationTicks": 60,
                "midi": 62,
                "name": "D4",
                "ticks": 30960,
                "time": 64.5,
                "velocity": 0.5039370078740157
              },
              {
                "duration": 0.125,
                "durationTicks": 60,
                "midi": 63,
                "name": "D#4",
                "ticks": 31020,
                "time": 64.625,
                "velocity": 0.5039370078740157
              },
              {
                "duration": 0.25,
                "durationTicks": 120,
                "midi": 65,
                "name": "F4",
                "ticks": 31080,
                "time": 64.75,
                "velocity": 0.5039370078740157
              },
              {
                "duration": 0.25,
                "durationTicks": 120,
                "midi": 58,
                "name": "A#3",
                "ticks": 31200,
                "time": 65,
                "velocity": 0.5039370078740157
              },
              {
                "duration": 0.25,
                "durationTicks": 120,
                "midi": 62,
                "name": "D4",
                "ticks": 31320,
                "time": 65.25,
                "velocity": 0.5039370078740157
              },
              {
                "duration": 0.25,
                "durationTicks": 120,
                "midi": 53,
                "name": "F3",
                "ticks": 31440,
                "time": 65.5,
                "velocity": 0.5039370078740157
              },
              {
                "duration": 0.25,
                "durationTicks": 120,
                "midi": 56,
                "name": "G#3",
                "ticks": 31560,
                "time": 65.75,
                "velocity": 0.5039370078740157
              },
              {
                "duration": 0.25,
                "durationTicks": 120,
                "midi": 55,
                "name": "G3",
                "ticks": 31680,
                "time": 66,
                "velocity": 0.5039370078740157
              },
              {
                "duration": 0.125,
                "durationTicks": 60,
                "midi": 51,
                "name": "D#3",
                "ticks": 31800,
                "time": 66.25,
                "velocity": 0.5039370078740157
              },
              {
                "duration": 0.125,
                "durationTicks": 60,
                "midi": 53,
                "name": "F3",
                "ticks": 31860,
                "time": 66.375,
                "velocity": 0.5039370078740157
              },
              {
                "duration": 0.125,
                "durationTicks": 60,
                "midi": 55,
                "name": "G3",
                "ticks": 31920,
                "time": 66.5,
                "velocity": 0.5039370078740157
              },
              {
                "duration": 0.125,
                "durationTicks": 60,
                "midi": 53,
                "name": "F3",
                "ticks": 31980,
                "time": 66.625,
                "velocity": 0.5039370078740157
              },
              {
                "duration": 0.25,
                "durationTicks": 120,
                "midi": 51,
                "name": "D#3",
                "ticks": 32040,
                "time": 66.75,
                "velocity": 0.5039370078740157
              },
              {
                "duration": 0.25,
                "durationTicks": 120,
                "midi": 58,
                "name": "A#3",
                "ticks": 32160,
                "time": 67,
                "velocity": 0.5039370078740157
              },
              {
                "duration": 0.25,
                "durationTicks": 120,
                "midi": 55,
                "name": "G3",
                "ticks": 32280,
                "time": 67.25,
                "velocity": 0.5039370078740157
              },
              {
                "duration": 0.25,
                "durationTicks": 120,
                "midi": 63,
                "name": "D#4",
                "ticks": 32400,
                "time": 67.5,
                "velocity": 0.5039370078740157
              },
              {
                "duration": 0.25,
                "durationTicks": 120,
                "midi": 58,
                "name": "A#3",
                "ticks": 32520,
                "time": 67.75,
                "velocity": 0.5039370078740157
              },
              {
                "duration": 0.25,
                "durationTicks": 120,
                "midi": 55,
                "name": "G3",
                "ticks": 32640,
                "time": 68,
                "velocity": 0.5039370078740157
              },
              {
                "duration": 0.125,
                "durationTicks": 60,
                "midi": 58,
                "name": "A#3",
                "ticks": 32760,
                "time": 68.25,
                "velocity": 0.5039370078740157
              },
              {
                "duration": 0.125,
                "durationTicks": 60,
                "midi": 56,
                "name": "G#3",
                "ticks": 32820,
                "time": 68.375,
                "velocity": 0.5039370078740157
              },
              {
                "duration": 0.125,
                "durationTicks": 60,
                "midi": 55,
                "name": "G3",
                "ticks": 32880,
                "time": 68.5,
                "velocity": 0.5039370078740157
              },
              {
                "duration": 0.125,
                "durationTicks": 60,
                "midi": 56,
                "name": "G#3",
                "ticks": 32940,
                "time": 68.625,
                "velocity": 0.5039370078740157
              },
              {
                "duration": 0.25,
                "durationTicks": 120,
                "midi": 58,
                "name": "A#3",
                "ticks": 33000,
                "time": 68.75,
                "velocity": 0.5039370078740157
              },
              {
                "duration": 0.25,
                "durationTicks": 120,
                "midi": 51,
                "name": "D#3",
                "ticks": 33120,
                "time": 69,
                "velocity": 0.5039370078740157
              },
              {
                "duration": 0.25,
                "durationTicks": 120,
                "midi": 55,
                "name": "G3",
                "ticks": 33240,
                "time": 69.25,
                "velocity": 0.5039370078740157
              },
              {
                "duration": 0.25,
                "durationTicks": 120,
                "midi": 46,
                "name": "A#2",
                "ticks": 33360,
                "time": 69.5,
                "velocity": 0.5039370078740157
              },
              {
                "duration": 0.25,
                "durationTicks": 120,
                "midi": 50,
                "name": "D3",
                "ticks": 33480,
                "time": 69.75,
                "velocity": 0.5039370078740157
              },
              {
                "duration": 0.25,
                "durationTicks": 120,
                "midi": 48,
                "name": "C3",
                "ticks": 33600,
                "time": 70,
                "velocity": 0.5039370078740157
              },
              {
                "duration": 0.125,
                "durationTicks": 60,
                "midi": 41,
                "name": "F2",
                "ticks": 33720,
                "time": 70.25,
                "velocity": 0.5039370078740157
              },
              {
                "duration": 0.125,
                "durationTicks": 60,
                "midi": 43,
                "name": "G2",
                "ticks": 33780,
                "time": 70.375,
                "velocity": 0.5039370078740157
              },
              {
                "duration": 0.125,
                "durationTicks": 60,
                "midi": 45,
                "name": "A2",
                "ticks": 33840,
                "time": 70.5,
                "velocity": 0.5039370078740157
              },
              {
                "duration": 0.125,
                "durationTicks": 60,
                "midi": 43,
                "name": "G2",
                "ticks": 33900,
                "time": 70.625,
                "velocity": 0.5039370078740157
              },
              {
                "duration": 0.25,
                "durationTicks": 120,
                "midi": 41,
                "name": "F2",
                "ticks": 33960,
                "time": 70.75,
                "velocity": 0.5039370078740157
              },
              {
                "duration": 0.25,
                "durationTicks": 120,
                "midi": 48,
                "name": "C3",
                "ticks": 34080,
                "time": 71,
                "velocity": 0.5039370078740157
              },
              {
                "duration": 0.25,
                "durationTicks": 120,
                "midi": 45,
                "name": "A2",
                "ticks": 34200,
                "time": 71.25,
                "velocity": 0.5039370078740157
              },
              {
                "duration": 0.25,
                "durationTicks": 120,
                "midi": 51,
                "name": "D#3",
                "ticks": 34320,
                "time": 71.5,
                "velocity": 0.5039370078740157
              },
              {
                "duration": 0.25,
                "durationTicks": 120,
                "midi": 48,
                "name": "C3",
                "ticks": 34440,
                "time": 71.75,
                "velocity": 0.5039370078740157
              },
              {
                "duration": 0.25,
                "durationTicks": 120,
                "midi": 45,
                "name": "A2",
                "ticks": 34560,
                "time": 72,
                "velocity": 0.5039370078740157
              },
              {
                "duration": 0.125,
                "durationTicks": 60,
                "midi": 48,
                "name": "C3",
                "ticks": 34680,
                "time": 72.25,
                "velocity": 0.5039370078740157
              },
              {
                "duration": 0.125,
                "durationTicks": 60,
                "midi": 46,
                "name": "A#2",
                "ticks": 34740,
                "time": 72.375,
                "velocity": 0.5039370078740157
              },
              {
                "duration": 0.125,
                "durationTicks": 60,
                "midi": 45,
                "name": "A2",
                "ticks": 34800,
                "time": 72.5,
                "velocity": 0.5039370078740157
              },
              {
                "duration": 0.125,
                "durationTicks": 60,
                "midi": 46,
                "name": "A#2",
                "ticks": 34860,
                "time": 72.625,
                "velocity": 0.5039370078740157
              },
              {
                "duration": 0.25,
                "durationTicks": 120,
                "midi": 48,
                "name": "C3",
                "ticks": 34920,
                "time": 72.75,
                "velocity": 0.5039370078740157
              },
              {
                "duration": 0.25,
                "durationTicks": 120,
                "midi": 41,
                "name": "F2",
                "ticks": 35040,
                "time": 73,
                "velocity": 0.5039370078740157
              },
              {
                "duration": 0.25,
                "durationTicks": 120,
                "midi": 45,
                "name": "A2",
                "ticks": 35160,
                "time": 73.25,
                "velocity": 0.5039370078740157
              },
              {
                "duration": 0.25,
                "durationTicks": 120,
                "midi": 36,
                "name": "C2",
                "ticks": 35280,
                "time": 73.5,
                "velocity": 0.5039370078740157
              },
              {
                "duration": 0.25,
                "durationTicks": 120,
                "midi": 39,
                "name": "D#2",
                "ticks": 35400,
                "time": 73.75,
                "velocity": 0.5039370078740157
              },
              {
                "duration": 0.25,
                "durationTicks": 120,
                "midi": 38,
                "name": "D2",
                "ticks": 35520,
                "time": 74,
                "velocity": 0.5039370078740157
              },
              {
                "duration": 0.125,
                "durationTicks": 60,
                "midi": 46,
                "name": "A#2",
                "ticks": 35640,
                "time": 74.25,
                "velocity": 0.5039370078740157
              },
              {
                "duration": 0.125,
                "durationTicks": 60,
                "midi": 48,
                "name": "C3",
                "ticks": 35700,
                "time": 74.375,
                "velocity": 0.5039370078740157
              },
              {
                "duration": 0.125,
                "durationTicks": 60,
                "midi": 50,
                "name": "D3",
                "ticks": 35760,
                "time": 74.5,
                "velocity": 0.5039370078740157
              },
              {
                "duration": 0.125,
                "durationTicks": 60,
                "midi": 48,
                "name": "C3",
                "ticks": 35820,
                "time": 74.625,
                "velocity": 0.5039370078740157
              },
              {
                "duration": 0.25,
                "durationTicks": 120,
                "midi": 46,
                "name": "A#2",
                "ticks": 35880,
                "time": 74.75,
                "velocity": 0.5039370078740157
              },
              {
                "duration": 0.5,
                "durationTicks": 240,
                "midi": 53,
                "name": "F3",
                "ticks": 36000,
                "time": 75,
                "velocity": 0.5039370078740157
              },
              {
                "duration": 0.5,
                "durationTicks": 240,
                "midi": 41,
                "name": "F2",
                "ticks": 36240,
                "time": 75.5,
                "velocity": 0.5039370078740157
              },
              {
                "duration": 2,
                "durationTicks": 960,
                "midi": 46,
                "name": "A#2",
                "ticks": 36480,
                "time": 76,
                "velocity": 0.5039370078740157
              }
            ],
            "endOfTrackTicks": 37440
          }
        ]
    },

    "invention-15" : {
        "header": {
          "keySignatures": [],
          "meta": [],
          "name": "Invention 15 in B Minor",
          "ppq": 240,
          "tempos": [
            {
              "bpm": 83.99996640001343,
              "ticks": 0
            }
          ],
          "timeSignatures": [
            {
              "ticks": 0,
              "timeSignature": [
                4,
                4
              ],
              "measures": 0
            }
          ]
        },
        "tracks": [
          {
            "channel": 0,
            "controlChanges": {},
            "pitchBends": [],
            "instrument": {
              "family": "piano",
              "number": 0,
              "name": "acoustic grand piano"
            },
            "name": "",
            "notes": [
              {
                "duration": 0.17857150000000005,
                "durationTicks": 60,
                "midi": 71,
                "name": "B4",
                "ticks": 120,
                "time": 0.35714300000000004,
                "velocity": 0.5039370078740157
              },
              {
                "duration": 0.1785715,
                "durationTicks": 60,
                "midi": 70,
                "name": "A#4",
                "ticks": 180,
                "time": 0.5357145000000001,
                "velocity": 0.5039370078740157
              },
              {
                "duration": 0.3571430000000001,
                "durationTicks": 120,
                "midi": 71,
                "name": "B4",
                "ticks": 240,
                "time": 0.7142860000000001,
                "velocity": 0.5039370078740157
              },
              {
                "duration": 0.357143,
                "durationTicks": 120,
                "midi": 66,
                "name": "F#4",
                "ticks": 360,
                "time": 1.0714290000000002,
                "velocity": 0.5039370078740157
              },
              {
                "duration": 0.08928574999999994,
                "durationTicks": 30,
                "midi": 67,
                "name": "G4",
                "ticks": 480,
                "time": 1.4285720000000002,
                "velocity": 0.5039370078740157
              },
              {
                "duration": 0.08928575000000016,
                "durationTicks": 30,
                "midi": 69,
                "name": "A4",
                "ticks": 510,
                "time": 1.5178577500000001,
                "velocity": 0.5039370078740157
              },
              {
                "duration": 0.17857149999999988,
                "durationTicks": 60,
                "midi": 67,
                "name": "G4",
                "ticks": 540,
                "time": 1.6071435000000003,
                "velocity": 0.5039370078740157
              },
              {
                "duration": 0.3571430000000002,
                "durationTicks": 120,
                "midi": 66,
                "name": "F#4",
                "ticks": 600,
                "time": 1.7857150000000002,
                "velocity": 0.5039370078740157
              },
              {
                "duration": 0.35714299999999977,
                "durationTicks": 120,
                "midi": 71,
                "name": "B4",
                "ticks": 720,
                "time": 2.1428580000000004,
                "velocity": 0.5039370078740157
              },
              {
                "duration": 0.3571430000000002,
                "durationTicks": 120,
                "midi": 66,
                "name": "F#4",
                "ticks": 840,
                "time": 2.500001,
                "velocity": 0.5039370078740157
              },
              {
                "duration": 0.08928575000000016,
                "durationTicks": 30,
                "midi": 66,
                "name": "F#4",
                "ticks": 960,
                "time": 2.8571440000000004,
                "velocity": 0.5039370078740157
              },
              {
                "duration": 0.08928574999999972,
                "durationTicks": 30,
                "midi": 67,
                "name": "G4",
                "ticks": 990,
                "time": 2.9464297500000005,
                "velocity": 0.5039370078740157
              },
              {
                "duration": 0.17857150000000033,
                "durationTicks": 60,
                "midi": 66,
                "name": "F#4",
                "ticks": 1020,
                "time": 3.0357155000000002,
                "velocity": 0.5039370078740157
              },
              {
                "duration": 0.35714299999999977,
                "durationTicks": 120,
                "midi": 64,
                "name": "E4",
                "ticks": 1080,
                "time": 3.2142870000000006,
                "velocity": 0.5039370078740157
              },
              {
                "duration": 0.3571430000000002,
                "durationTicks": 120,
                "midi": 73,
                "name": "C#5",
                "ticks": 1200,
                "time": 3.5714300000000003,
                "velocity": 0.5039370078740157
              },
              {
                "duration": 0.3571430000000002,
                "durationTicks": 120,
                "midi": 64,
                "name": "E4",
                "ticks": 1320,
                "time": 3.9285730000000005,
                "velocity": 0.5039370078740157
              },
              {
                "duration": 0.08928575000000016,
                "durationTicks": 30,
                "midi": 64,
                "name": "E4",
                "ticks": 1440,
                "time": 4.285716000000001,
                "velocity": 0.5039370078740157
              },
              {
                "duration": 0.08928574999999928,
                "durationTicks": 30,
                "midi": 66,
                "name": "F#4",
                "ticks": 1470,
                "time": 4.375001750000001,
                "velocity": 0.5039370078740157
              },
              {
                "duration": 0.17857150000000033,
                "durationTicks": 60,
                "midi": 64,
                "name": "E4",
                "ticks": 1500,
                "time": 4.4642875,
                "velocity": 0.5039370078740157
              },
              {
                "duration": 0.17857150000000033,
                "durationTicks": 60,
                "midi": 62,
                "name": "D4",
                "ticks": 1560,
                "time": 4.6428590000000005,
                "velocity": 0.5039370078740157
              },
              {
                "duration": 0.17857149999999944,
                "durationTicks": 60,
                "midi": 61,
                "name": "C#4",
                "ticks": 1620,
                "time": 4.821430500000001,
                "velocity": 0.5039370078740157
              },
              {
                "duration": 0.17857150000000033,
                "durationTicks": 60,
                "midi": 62,
                "name": "D4",
                "ticks": 1680,
                "time": 5.000002,
                "velocity": 0.5039370078740157
              },
              {
                "duration": 0.17857150000000033,
                "durationTicks": 60,
                "midi": 64,
                "name": "E4",
                "ticks": 1740,
                "time": 5.178573500000001,
                "velocity": 0.5039370078740157
              },
              {
                "duration": 0.17857149999999944,
                "durationTicks": 60,
                "midi": 66,
                "name": "F#4",
                "ticks": 1800,
                "time": 5.357145000000001,
                "velocity": 0.5039370078740157
              },
              {
                "duration": 0.17857150000000033,
                "durationTicks": 60,
                "midi": 64,
                "name": "E4",
                "ticks": 1860,
                "time": 5.5357165,
                "velocity": 0.5039370078740157
              },
              {
                "duration": 0.08928575000000016,
                "durationTicks": 30,
                "midi": 66,
                "name": "F#4",
                "ticks": 1920,
                "time": 5.714288000000001,
                "velocity": 0.5039370078740157
              },
              {
                "duration": 0.08928575000000016,
                "durationTicks": 30,
                "midi": 64,
                "name": "E4",
                "ticks": 1950,
                "time": 5.803573750000001,
                "velocity": 0.5039370078740157
              },
              {
                "duration": 0.35714299999999977,
                "durationTicks": 120,
                "midi": 66,
                "name": "F#4",
                "ticks": 1980,
                "time": 5.892859500000001,
                "velocity": 0.5039370078740157
              },
              {
                "duration": 0.17857150000000033,
                "durationTicks": 60,
                "midi": 69,
                "name": "A4",
                "ticks": 2220,
                "time": 6.607145500000001,
                "velocity": 0.5039370078740157
              },
              {
                "duration": 0.17857150000000033,
                "durationTicks": 60,
                "midi": 68,
                "name": "G#4",
                "ticks": 2280,
                "time": 6.785717000000001,
                "velocity": 0.5039370078740157
              },
              {
                "duration": 0.17857149999999944,
                "durationTicks": 60,
                "midi": 69,
                "name": "A4",
                "ticks": 2340,
                "time": 6.964288500000001,
                "velocity": 0.5039370078740157
              },
              {
                "duration": 0.17857150000000033,
                "durationTicks": 60,
                "midi": 71,
                "name": "B4",
                "ticks": 2400,
                "time": 7.142860000000001,
                "velocity": 0.5039370078740157
              },
              {
                "duration": 0.17857150000000033,
                "durationTicks": 60,
                "midi": 73,
                "name": "C#5",
                "ticks": 2460,
                "time": 7.321431500000001,
                "velocity": 0.5039370078740157
              },
              {
                "duration": 0.17857149999999944,
                "durationTicks": 60,
                "midi": 71,
                "name": "B4",
                "ticks": 2520,
                "time": 7.500003000000001,
                "velocity": 0.5039370078740157
              },
              {
                "duration": 0.17857150000000033,
                "durationTicks": 60,
                "midi": 68,
                "name": "G#4",
                "ticks": 2580,
                "time": 7.678574500000001,
                "velocity": 0.5039370078740157
              },
              {
                "duration": 0.17857149999999944,
                "durationTicks": 60,
                "midi": 69,
                "name": "A4",
                "ticks": 2640,
                "time": 7.857146000000001,
                "velocity": 0.5039370078740157
              },
              {
                "duration": 0.17857150000000033,
                "durationTicks": 60,
                "midi": 71,
                "name": "B4",
                "ticks": 2700,
                "time": 8.0357175,
                "velocity": 0.5039370078740157
              },
              {
                "duration": 0.17857150000000033,
                "durationTicks": 60,
                "midi": 69,
                "name": "A4",
                "ticks": 2760,
                "time": 8.214289,
                "velocity": 0.5039370078740157
              },
              {
                "duration": 0.17857150000000033,
                "durationTicks": 60,
                "midi": 66,
                "name": "F#4",
                "ticks": 2820,
                "time": 8.392860500000001,
                "velocity": 0.5039370078740157
              },
              {
                "duration": 0.17857150000000033,
                "durationTicks": 60,
                "midi": 68,
                "name": "G#4",
                "ticks": 2880,
                "time": 8.571432000000001,
                "velocity": 0.5039370078740157
              },
              {
                "duration": 0.17857149999999855,
                "durationTicks": 60,
                "midi": 69,
                "name": "A4",
                "ticks": 2940,
                "time": 8.750003500000002,
                "velocity": 0.5039370078740157
              },
              {
                "duration": 0.17857150000000033,
                "durationTicks": 60,
                "midi": 68,
                "name": "G#4",
                "ticks": 3000,
                "time": 8.928575,
                "velocity": 0.5039370078740157
              },
              {
                "duration": 0.17857150000000033,
                "durationTicks": 60,
                "midi": 66,
                "name": "F#4",
                "ticks": 3060,
                "time": 9.1071465,
                "velocity": 0.5039370078740157
              },
              {
                "duration": 0.17857150000000033,
                "durationTicks": 60,
                "midi": 65,
                "name": "F4",
                "ticks": 3120,
                "time": 9.285718000000001,
                "velocity": 0.5039370078740157
              },
              {
                "duration": 0.17857150000000033,
                "durationTicks": 60,
                "midi": 68,
                "name": "G#4",
                "ticks": 3180,
                "time": 9.464289500000001,
                "velocity": 0.5039370078740157
              },
              {
                "duration": 0.17857150000000033,
                "durationTicks": 60,
                "midi": 66,
                "name": "F#4",
                "ticks": 3240,
                "time": 9.642861000000002,
                "velocity": 0.5039370078740157
              },
              {
                "duration": 0.17857149999999855,
                "durationTicks": 60,
                "midi": 65,
                "name": "F4",
                "ticks": 3300,
                "time": 9.821432500000002,
                "velocity": 0.5039370078740157
              },
              {
                "duration": 0.35714300000000065,
                "durationTicks": 120,
                "midi": 73,
                "name": "C#5",
                "ticks": 3360,
                "time": 10.000004,
                "velocity": 0.5039370078740157
              },
              {
                "duration": 0.17857150000000033,
                "durationTicks": 60,
                "midi": 66,
                "name": "F#4",
                "ticks": 3480,
                "time": 10.357147000000001,
                "velocity": 0.5039370078740157
              },
              {
                "duration": 0.17857150000000033,
                "durationTicks": 60,
                "midi": 65,
                "name": "F4",
                "ticks": 3540,
                "time": 10.535718500000002,
                "velocity": 0.5039370078740157
              },
              {
                "duration": 0.17857150000000033,
                "durationTicks": 60,
                "midi": 66,
                "name": "F#4",
                "ticks": 3600,
                "time": 10.714290000000002,
                "velocity": 0.5039370078740157
              },
              {
                "duration": 0.17857149999999855,
                "durationTicks": 60,
                "midi": 69,
                "name": "A4",
                "ticks": 3660,
                "time": 10.892861500000002,
                "velocity": 0.5039370078740157
              },
              {
                "duration": 0.17857150000000033,
                "durationTicks": 60,
                "midi": 68,
                "name": "G#4",
                "ticks": 3720,
                "time": 11.071433,
                "velocity": 0.5039370078740157
              },
              {
                "duration": 0.17857150000000033,
                "durationTicks": 60,
                "midi": 71,
                "name": "B4",
                "ticks": 3780,
                "time": 11.250004500000001,
                "velocity": 0.5039370078740157
              },
              {
                "duration": 0.17857150000000033,
                "durationTicks": 60,
                "midi": 69,
                "name": "A4",
                "ticks": 3840,
                "time": 11.428576000000001,
                "velocity": 0.5039370078740157
              },
              {
                "duration": 0.17857150000000033,
                "durationTicks": 60,
                "midi": 71,
                "name": "B4",
                "ticks": 3900,
                "time": 11.607147500000002,
                "velocity": 0.5039370078740157
              },
              {
                "duration": 0.17857149999999855,
                "durationTicks": 60,
                "midi": 73,
                "name": "C#5",
                "ticks": 3960,
                "time": 11.785719000000002,
                "velocity": 0.5039370078740157
              },
              {
                "duration": 0.17857150000000033,
                "durationTicks": 60,
                "midi": 74,
                "name": "D5",
                "ticks": 4020,
                "time": 11.9642905,
                "velocity": 0.5039370078740157
              },
              {
                "duration": 0.08928575000000016,
                "durationTicks": 30,
                "midi": 68,
                "name": "G#4",
                "ticks": 4080,
                "time": 12.142862000000001,
                "velocity": 0.5039370078740157
              },
              {
                "duration": 0.08928575000000016,
                "durationTicks": 30,
                "midi": 69,
                "name": "A4",
                "ticks": 4110,
                "time": 12.232147750000001,
                "velocity": 0.5039370078740157
              },
              {
                "duration": 0.35714300000000065,
                "durationTicks": 120,
                "midi": 68,
                "name": "G#4",
                "ticks": 4140,
                "time": 12.321433500000001,
                "velocity": 0.5039370078740157
              },
              {
                "duration": 0.17857150000000033,
                "durationTicks": 60,
                "midi": 66,
                "name": "F#4",
                "ticks": 4260,
                "time": 12.678576500000002,
                "velocity": 0.5039370078740157
              },
              {
                "duration": 0.3571429999999989,
                "durationTicks": 120,
                "midi": 66,
                "name": "F#4",
                "ticks": 4320,
                "time": 12.857148000000002,
                "velocity": 0.5039370078740157
              },
              {
                "duration": 0.17857150000000033,
                "durationTicks": 60,
                "midi": 78,
                "name": "F#5",
                "ticks": 4440,
                "time": 13.214291000000001,
                "velocity": 0.5039370078740157
              },
              {
                "duration": 0.17857150000000033,
                "durationTicks": 60,
                "midi": 77,
                "name": "F5",
                "ticks": 4500,
                "time": 13.392862500000001,
                "velocity": 0.5039370078740157
              },
              {
                "duration": 0.35714300000000065,
                "durationTicks": 120,
                "midi": 78,
                "name": "F#5",
                "ticks": 4560,
                "time": 13.571434000000002,
                "velocity": 0.5039370078740157
              },
              {
                "duration": 0.3571429999999989,
                "durationTicks": 120,
                "midi": 73,
                "name": "C#5",
                "ticks": 4680,
                "time": 13.928577000000002,
                "velocity": 0.5039370078740157
              },
              {
                "duration": 0.08928575000000016,
                "durationTicks": 30,
                "midi": 74,
                "name": "D5",
                "ticks": 4800,
                "time": 14.285720000000001,
                "velocity": 0.5039370078740157
              },
              {
                "duration": 0.08928575000000016,
                "durationTicks": 30,
                "midi": 76,
                "name": "E5",
                "ticks": 4830,
                "time": 14.375005750000001,
                "velocity": 0.5039370078740157
              },
              {
                "duration": 0.17857150000000033,
                "durationTicks": 60,
                "midi": 74,
                "name": "D5",
                "ticks": 4860,
                "time": 14.464291500000002,
                "velocity": 0.5039370078740157
              },
              {
                "duration": 0.35714300000000065,
                "durationTicks": 120,
                "midi": 73,
                "name": "C#5",
                "ticks": 4920,
                "time": 14.642863000000002,
                "velocity": 0.5039370078740157
              },
              {
                "duration": 0.3571429999999989,
                "durationTicks": 120,
                "midi": 78,
                "name": "F#5",
                "ticks": 5040,
                "time": 15.000006000000003,
                "velocity": 0.5039370078740157
              },
              {
                "duration": 0.35714300000000065,
                "durationTicks": 120,
                "midi": 73,
                "name": "C#5",
                "ticks": 5160,
                "time": 15.357149000000001,
                "velocity": 0.5039370078740157
              },
              {
                "duration": 0.08928575000000016,
                "durationTicks": 30,
                "midi": 73,
                "name": "C#5",
                "ticks": 5280,
                "time": 15.714292000000002,
                "velocity": 0.5039370078740157
              },
              {
                "duration": 0.08928575000000016,
                "durationTicks": 30,
                "midi": 74,
                "name": "D5",
                "ticks": 5310,
                "time": 15.803577750000002,
                "velocity": 0.5039370078740157
              },
              {
                "duration": 0.17857149999999855,
                "durationTicks": 60,
                "midi": 73,
                "name": "C#5",
                "ticks": 5340,
                "time": 15.892863500000002,
                "velocity": 0.5039370078740157
              },
              {
                "duration": 0.35714300000000065,
                "durationTicks": 120,
                "midi": 71,
                "name": "B4",
                "ticks": 5400,
                "time": 16.071435,
                "velocity": 0.5039370078740157
              },
              {
                "duration": 0.35714300000000065,
                "durationTicks": 120,
                "midi": 80,
                "name": "G#5",
                "ticks": 5520,
                "time": 16.428578,
                "velocity": 0.5039370078740157
              },
              {
                "duration": 0.35714300000000065,
                "durationTicks": 120,
                "midi": 71,
                "name": "B4",
                "ticks": 5640,
                "time": 16.785721000000002,
                "velocity": 0.5039370078740157
              },
              {
                "duration": 0.08928574999999839,
                "durationTicks": 30,
                "midi": 71,
                "name": "B4",
                "ticks": 5760,
                "time": 17.142864000000003,
                "velocity": 0.5039370078740157
              },
              {
                "duration": 0.08928575000000194,
                "durationTicks": 30,
                "midi": 73,
                "name": "C#5",
                "ticks": 5790,
                "time": 17.23214975,
                "velocity": 0.5039370078740157
              },
              {
                "duration": 0.17857150000000033,
                "durationTicks": 60,
                "midi": 71,
                "name": "B4",
                "ticks": 5820,
                "time": 17.321435500000003,
                "velocity": 0.5039370078740157
              },
              {
                "duration": 0.17857149999999677,
                "durationTicks": 60,
                "midi": 69,
                "name": "A4",
                "ticks": 5880,
                "time": 17.500007000000004,
                "velocity": 0.5039370078740157
              },
              {
                "duration": 0.17857150000000033,
                "durationTicks": 60,
                "midi": 68,
                "name": "G#4",
                "ticks": 5940,
                "time": 17.6785785,
                "velocity": 0.5039370078740157
              },
              {
                "duration": 0.17857150000000033,
                "durationTicks": 60,
                "midi": 69,
                "name": "A4",
                "ticks": 6000,
                "time": 17.85715,
                "velocity": 0.5039370078740157
              },
              {
                "duration": 0.17857150000000033,
                "durationTicks": 60,
                "midi": 71,
                "name": "B4",
                "ticks": 6060,
                "time": 18.0357215,
                "velocity": 0.5039370078740157
              },
              {
                "duration": 0.17857150000000033,
                "durationTicks": 60,
                "midi": 69,
                "name": "A4",
                "ticks": 6120,
                "time": 18.214293,
                "velocity": 0.5039370078740157
              },
              {
                "duration": 0.17857150000000033,
                "durationTicks": 60,
                "midi": 65,
                "name": "F4",
                "ticks": 6180,
                "time": 18.3928645,
                "velocity": 0.5039370078740157
              },
              {
                "duration": 0.35714300000000065,
                "durationTicks": 120,
                "midi": 66,
                "name": "F#4",
                "ticks": 6240,
                "time": 18.571436000000002,
                "velocity": 0.5039370078740157
              },
              {
                "duration": 0.17857150000000033,
                "durationTicks": 60,
                "midi": 78,
                "name": "F#5",
                "ticks": 6360,
                "time": 18.928579000000003,
                "velocity": 0.5039370078740157
              },
              {
                "duration": 0.17857150000000033,
                "durationTicks": 60,
                "midi": 76,
                "name": "E5",
                "ticks": 6420,
                "time": 19.107150500000003,
                "velocity": 0.5039370078740157
              },
              {
                "duration": 0.35714300000000065,
                "durationTicks": 120,
                "midi": 78,
                "name": "F#5",
                "ticks": 6480,
                "time": 19.285722000000003,
                "velocity": 0.5039370078740157
              },
              {
                "duration": 0.3571429999999971,
                "durationTicks": 120,
                "midi": 73,
                "name": "C#5",
                "ticks": 6600,
                "time": 19.642865000000004,
                "velocity": 0.5039370078740157
              },
              {
                "duration": 0.17857150000000033,
                "durationTicks": 60,
                "midi": 74,
                "name": "D5",
                "ticks": 6720,
                "time": 20.000008,
                "velocity": 0.5039370078740157
              },
              {
                "duration": 0.17857150000000033,
                "durationTicks": 60,
                "midi": 76,
                "name": "E5",
                "ticks": 6780,
                "time": 20.1785795,
                "velocity": 0.5039370078740157
              },
              {
                "duration": 0.17857150000000033,
                "durationTicks": 60,
                "midi": 74,
                "name": "D5",
                "ticks": 6840,
                "time": 20.357151,
                "velocity": 0.5039370078740157
              },
              {
                "duration": 0.17857150000000033,
                "durationTicks": 60,
                "midi": 71,
                "name": "B4",
                "ticks": 6900,
                "time": 20.535722500000002,
                "velocity": 0.5039370078740157
              },
              {
                "duration": 0.17857150000000033,
                "durationTicks": 60,
                "midi": 76,
                "name": "E5",
                "ticks": 6960,
                "time": 20.714294000000002,
                "velocity": 0.5039370078740157
              },
              {
                "duration": 0.17857150000000033,
                "durationTicks": 60,
                "midi": 71,
                "name": "B4",
                "ticks": 7020,
                "time": 20.892865500000003,
                "velocity": 0.5039370078740157
              },
              {
                "duration": 0.17857150000000033,
                "durationTicks": 60,
                "midi": 78,
                "name": "F#5",
                "ticks": 7080,
                "time": 21.071437000000003,
                "velocity": 0.5039370078740157
              },
              {
                "duration": 0.17857150000000033,
                "durationTicks": 60,
                "midi": 71,
                "name": "B4",
                "ticks": 7140,
                "time": 21.250008500000003,
                "velocity": 0.5039370078740157
              },
              {
                "duration": 0.17857150000000033,
                "durationTicks": 60,
                "midi": 79,
                "name": "G5",
                "ticks": 7200,
                "time": 21.428580000000004,
                "velocity": 0.5039370078740157
              },
              {
                "duration": 0.17857150000000033,
                "durationTicks": 60,
                "midi": 81,
                "name": "A5",
                "ticks": 7260,
                "time": 21.607151500000004,
                "velocity": 0.5039370078740157
              },
              {
                "duration": 0.17857149999999677,
                "durationTicks": 60,
                "midi": 79,
                "name": "G5",
                "ticks": 7320,
                "time": 21.785723000000004,
                "velocity": 0.5039370078740157
              },
              {
                "duration": 0.17857150000000033,
                "durationTicks": 60,
                "midi": 76,
                "name": "E5",
                "ticks": 7380,
                "time": 21.9642945,
                "velocity": 0.5039370078740157
              },
              {
                "duration": 0.17857150000000033,
                "durationTicks": 60,
                "midi": 81,
                "name": "A5",
                "ticks": 7440,
                "time": 22.142866,
                "velocity": 0.5039370078740157
              },
              {
                "duration": 0.17857150000000033,
                "durationTicks": 60,
                "midi": 76,
                "name": "E5",
                "ticks": 7500,
                "time": 22.321437500000002,
                "velocity": 0.5039370078740157
              },
              {
                "duration": 0.17857150000000033,
                "durationTicks": 60,
                "midi": 83,
                "name": "B5",
                "ticks": 7560,
                "time": 22.500009000000002,
                "velocity": 0.5039370078740157
              },
              {
                "duration": 0.17857150000000033,
                "durationTicks": 60,
                "midi": 74,
                "name": "D5",
                "ticks": 7620,
                "time": 22.678580500000002,
                "velocity": 0.5039370078740157
              },
              {
                "duration": 0.17857150000000033,
                "durationTicks": 60,
                "midi": 73,
                "name": "C#5",
                "ticks": 7680,
                "time": 22.857152000000003,
                "velocity": 0.5039370078740157
              },
              {
                "duration": 0.17857150000000033,
                "durationTicks": 60,
                "midi": 74,
                "name": "D5",
                "ticks": 7740,
                "time": 23.035723500000003,
                "velocity": 0.5039370078740157
              },
              {
                "duration": 0.17857150000000033,
                "durationTicks": 60,
                "midi": 73,
                "name": "C#5",
                "ticks": 7800,
                "time": 23.214295000000003,
                "velocity": 0.5039370078740157
              },
              {
                "duration": 0.17857150000000033,
                "durationTicks": 60,
                "midi": 69,
                "name": "A4",
                "ticks": 7860,
                "time": 23.392866500000004,
                "velocity": 0.5039370078740157
              },
              {
                "duration": 0.17857150000000033,
                "durationTicks": 60,
                "midi": 74,
                "name": "D5",
                "ticks": 7920,
                "time": 23.571438000000004,
                "velocity": 0.5039370078740157
              },
              {
                "duration": 0.17857149999999677,
                "durationTicks": 60,
                "midi": 69,
                "name": "A4",
                "ticks": 7980,
                "time": 23.750009500000004,
                "velocity": 0.5039370078740157
              },
              {
                "duration": 0.17857150000000033,
                "durationTicks": 60,
                "midi": 76,
                "name": "E5",
                "ticks": 8040,
                "time": 23.928581,
                "velocity": 0.5039370078740157
              },
              {
                "duration": 0.17857150000000033,
                "durationTicks": 60,
                "midi": 69,
                "name": "A4",
                "ticks": 8100,
                "time": 24.1071525,
                "velocity": 0.5039370078740157
              },
              {
                "duration": 0.17857150000000033,
                "durationTicks": 60,
                "midi": 78,
                "name": "F#5",
                "ticks": 8160,
                "time": 24.285724000000002,
                "velocity": 0.5039370078740157
              },
              {
                "duration": 0.17857150000000033,
                "durationTicks": 60,
                "midi": 79,
                "name": "G5",
                "ticks": 8220,
                "time": 24.464295500000002,
                "velocity": 0.5039370078740157
              },
              {
                "duration": 0.17857150000000033,
                "durationTicks": 60,
                "midi": 78,
                "name": "F#5",
                "ticks": 8280,
                "time": 24.642867000000003,
                "velocity": 0.5039370078740157
              },
              {
                "duration": 0.17857150000000033,
                "durationTicks": 60,
                "midi": 74,
                "name": "D5",
                "ticks": 8340,
                "time": 24.821438500000003,
                "velocity": 0.5039370078740157
              },
              {
                "duration": 0.17857150000000033,
                "durationTicks": 60,
                "midi": 79,
                "name": "G5",
                "ticks": 8400,
                "time": 25.000010000000003,
                "velocity": 0.5039370078740157
              },
              {
                "duration": 0.17857150000000033,
                "durationTicks": 60,
                "midi": 74,
                "name": "D5",
                "ticks": 8460,
                "time": 25.178581500000004,
                "velocity": 0.5039370078740157
              },
              {
                "duration": 0.17857150000000033,
                "durationTicks": 60,
                "midi": 81,
                "name": "A5",
                "ticks": 8520,
                "time": 25.357153000000004,
                "velocity": 0.5039370078740157
              },
              {
                "duration": 0.17857150000000033,
                "durationTicks": 60,
                "midi": 74,
                "name": "D5",
                "ticks": 8580,
                "time": 25.535724500000004,
                "velocity": 0.5039370078740157
              },
              {
                "duration": 0.17857150000000033,
                "durationTicks": 60,
                "midi": 83,
                "name": "B5",
                "ticks": 8640,
                "time": 25.714296000000004,
                "velocity": 0.5039370078740157
              },
              {
                "duration": 0.17857149999999677,
                "durationTicks": 60,
                "midi": 84,
                "name": "C6",
                "ticks": 8700,
                "time": 25.892867500000005,
                "velocity": 0.5039370078740157
              },
              {
                "duration": 0.17857150000000033,
                "durationTicks": 60,
                "midi": 83,
                "name": "B5",
                "ticks": 8760,
                "time": 26.071439,
                "velocity": 0.5039370078740157
              },
              {
                "duration": 0.17857150000000033,
                "durationTicks": 60,
                "midi": 76,
                "name": "E5",
                "ticks": 8820,
                "time": 26.250010500000002,
                "velocity": 0.5039370078740157
              },
              {
                "duration": 0.17857150000000033,
                "durationTicks": 60,
                "midi": 81,
                "name": "A5",
                "ticks": 8880,
                "time": 26.428582000000002,
                "velocity": 0.5039370078740157
              },
              {
                "duration": 0.17857150000000033,
                "durationTicks": 60,
                "midi": 83,
                "name": "B5",
                "ticks": 8940,
                "time": 26.607153500000003,
                "velocity": 0.5039370078740157
              },
              {
                "duration": 0.17857150000000033,
                "durationTicks": 60,
                "midi": 81,
                "name": "A5",
                "ticks": 9000,
                "time": 26.785725000000003,
                "velocity": 0.5039370078740157
              },
              {
                "duration": 0.17857150000000033,
                "durationTicks": 60,
                "midi": 74,
                "name": "D5",
                "ticks": 9060,
                "time": 26.964296500000003,
                "velocity": 0.5039370078740157
              },
              {
                "duration": 0.17857150000000033,
                "durationTicks": 60,
                "midi": 79,
                "name": "G5",
                "ticks": 9120,
                "time": 27.142868000000004,
                "velocity": 0.5039370078740157
              },
              {
                "duration": 0.17857150000000033,
                "durationTicks": 60,
                "midi": 81,
                "name": "A5",
                "ticks": 9180,
                "time": 27.321439500000004,
                "velocity": 0.5039370078740157
              },
              {
                "duration": 0.17857150000000033,
                "durationTicks": 60,
                "midi": 79,
                "name": "G5",
                "ticks": 9240,
                "time": 27.500011000000004,
                "velocity": 0.5039370078740157
              },
              {
                "duration": 0.17857150000000033,
                "durationTicks": 60,
                "midi": 73,
                "name": "C#5",
                "ticks": 9300,
                "time": 27.678582500000005,
                "velocity": 0.5039370078740157
              },
              {
                "duration": 0.17857150000000033,
                "durationTicks": 60,
                "midi": 78,
                "name": "F#5",
                "ticks": 9360,
                "time": 27.857154000000005,
                "velocity": 0.5039370078740157
              },
              {
                "duration": 0.17857149999999677,
                "durationTicks": 60,
                "midi": 79,
                "name": "G5",
                "ticks": 9420,
                "time": 28.035725500000005,
                "velocity": 0.5039370078740157
              },
              {
                "duration": 0.17857150000000033,
                "durationTicks": 60,
                "midi": 78,
                "name": "F#5",
                "ticks": 9480,
                "time": 28.214297000000002,
                "velocity": 0.5039370078740157
              },
              {
                "duration": 0.17857150000000033,
                "durationTicks": 60,
                "midi": 74,
                "name": "D5",
                "ticks": 9540,
                "time": 28.392868500000002,
                "velocity": 0.5039370078740157
              },
              {
                "duration": 0.35714300000000065,
                "durationTicks": 120,
                "midi": 76,
                "name": "E5",
                "ticks": 9600,
                "time": 28.571440000000003,
                "velocity": 0.5039370078740157
              },
              {
                "duration": 0.059523833333336995,
                "durationTicks": 20,
                "midi": 67,
                "name": "G4",
                "ticks": 9720,
                "time": 28.928583000000003,
                "velocity": 0.5039370078740157
              },
              {
                "duration": 0.05952383333332989,
                "durationTicks": 20,
                "midi": 69,
                "name": "A4",
                "ticks": 9740,
                "time": 28.98810683333334,
                "velocity": 0.5039370078740157
              },
              {
                "duration": 0.05952383333333344,
                "durationTicks": 20,
                "midi": 67,
                "name": "G4",
                "ticks": 9760,
                "time": 29.04763066666667,
                "velocity": 0.5039370078740157
              },
              {
                "duration": 0.17857150000000033,
                "durationTicks": 60,
                "midi": 66,
                "name": "F#4",
                "ticks": 9780,
                "time": 29.107154500000004,
                "velocity": 0.5039370078740157
              },
              {
                "duration": 0.35714300000000065,
                "durationTicks": 120,
                "midi": 67,
                "name": "G4",
                "ticks": 9840,
                "time": 29.285726000000004,
                "velocity": 0.5039370078740157
              },
              {
                "duration": 0.35714300000000065,
                "durationTicks": 120,
                "midi": 76,
                "name": "E5",
                "ticks": 9960,
                "time": 29.642869000000005,
                "velocity": 0.5039370078740157
              },
              {
                "duration": 0.3571429999999971,
                "durationTicks": 120,
                "midi": 66,
                "name": "F#4",
                "ticks": 10080,
                "time": 30.000012000000005,
                "velocity": 0.5039370078740157
              },
              {
                "duration": 0.35714300000000065,
                "durationTicks": 120,
                "midi": 74,
                "name": "D5",
                "ticks": 10200,
                "time": 30.357155000000002,
                "velocity": 0.5039370078740157
              },
              {
                "duration": 0.35714300000000065,
                "durationTicks": 120,
                "midi": 64,
                "name": "E4",
                "ticks": 10320,
                "time": 30.714298000000003,
                "velocity": 0.5039370078740157
              },
              {
                "duration": 0.35714300000000065,
                "durationTicks": 120,
                "midi": 73,
                "name": "C#5",
                "ticks": 10440,
                "time": 31.071441000000004,
                "velocity": 0.5039370078740157
              },
              {
                "duration": 0.35714300000000065,
                "durationTicks": 120,
                "midi": 74,
                "name": "D5",
                "ticks": 10560,
                "time": 31.428584000000004,
                "velocity": 0.5039370078740157
              },
              {
                "duration": 0.17857149999999677,
                "durationTicks": 60,
                "midi": 66,
                "name": "F#4",
                "ticks": 10860,
                "time": 32.321441500000006,
                "velocity": 0.5039370078740157
              },
              {
                "duration": 0.17857150000000388,
                "durationTicks": 60,
                "midi": 64,
                "name": "E4",
                "ticks": 10920,
                "time": 32.500013,
                "velocity": 0.5039370078740157
              },
              {
                "duration": 0.17857149999999677,
                "durationTicks": 60,
                "midi": 66,
                "name": "F#4",
                "ticks": 10980,
                "time": 32.67858450000001,
                "velocity": 0.5039370078740157
              },
              {
                "duration": 0.17857150000000388,
                "durationTicks": 60,
                "midi": 67,
                "name": "G4",
                "ticks": 11040,
                "time": 32.857156,
                "velocity": 0.5039370078740157
              },
              {
                "duration": 0.17857149999999677,
                "durationTicks": 60,
                "midi": 69,
                "name": "A4",
                "ticks": 11100,
                "time": 33.03572750000001,
                "velocity": 0.5039370078740157
              },
              {
                "duration": 0.17857149999999677,
                "durationTicks": 60,
                "midi": 67,
                "name": "G4",
                "ticks": 11160,
                "time": 33.214299000000004,
                "velocity": 0.5039370078740157
              },
              {
                "duration": 0.17857150000000388,
                "durationTicks": 60,
                "midi": 64,
                "name": "E4",
                "ticks": 11220,
                "time": 33.3928705,
                "velocity": 0.5039370078740157
              },
              {
                "duration": 0.17857149999999677,
                "durationTicks": 60,
                "midi": 66,
                "name": "F#4",
                "ticks": 11280,
                "time": 33.571442000000005,
                "velocity": 0.5039370078740157
              },
              {
                "duration": 0.17857150000000388,
                "durationTicks": 60,
                "midi": 67,
                "name": "G4",
                "ticks": 11340,
                "time": 33.7500135,
                "velocity": 0.5039370078740157
              },
              {
                "duration": 0.17857149999999677,
                "durationTicks": 60,
                "midi": 66,
                "name": "F#4",
                "ticks": 11400,
                "time": 33.928585000000005,
                "velocity": 0.5039370078740157
              },
              {
                "duration": 0.17857150000000388,
                "durationTicks": 60,
                "midi": 62,
                "name": "D4",
                "ticks": 11460,
                "time": 34.1071565,
                "velocity": 0.5039370078740157
              },
              {
                "duration": 0.17857149999999677,
                "durationTicks": 60,
                "midi": 64,
                "name": "E4",
                "ticks": 11520,
                "time": 34.285728000000006,
                "velocity": 0.5039370078740157
              },
              {
                "duration": 0.17857150000000388,
                "durationTicks": 60,
                "midi": 66,
                "name": "F#4",
                "ticks": 11580,
                "time": 34.4642995,
                "velocity": 0.5039370078740157
              },
              {
                "duration": 0.17857149999999677,
                "durationTicks": 60,
                "midi": 64,
                "name": "E4",
                "ticks": 11640,
                "time": 34.64287100000001,
                "velocity": 0.5039370078740157
              },
              {
                "duration": 0.17857150000000388,
                "durationTicks": 60,
                "midi": 62,
                "name": "D4",
                "ticks": 11700,
                "time": 34.8214425,
                "velocity": 0.5039370078740157
              },
              {
                "duration": 0.17857149999999677,
                "durationTicks": 60,
                "midi": 61,
                "name": "C#4",
                "ticks": 11760,
                "time": 35.00001400000001,
                "velocity": 0.5039370078740157
              },
              {
                "duration": 0.17857149999999677,
                "durationTicks": 60,
                "midi": 64,
                "name": "E4",
                "ticks": 11820,
                "time": 35.178585500000004,
                "velocity": 0.5039370078740157
              },
              {
                "duration": 0.17857150000000388,
                "durationTicks": 60,
                "midi": 62,
                "name": "D4",
                "ticks": 11880,
                "time": 35.357157,
                "velocity": 0.5039370078740157
              },
              {
                "duration": 0.17857149999999677,
                "durationTicks": 60,
                "midi": 61,
                "name": "C#4",
                "ticks": 11940,
                "time": 35.535728500000005,
                "velocity": 0.5039370078740157
              },
              {
                "duration": 0.35714300000000065,
                "durationTicks": 120,
                "midi": 62,
                "name": "D4",
                "ticks": 12000,
                "time": 35.7143,
                "velocity": 0.5039370078740157
              },
              {
                "duration": 0.35714300000000065,
                "durationTicks": 120,
                "midi": 69,
                "name": "A4",
                "ticks": 12120,
                "time": 36.071443,
                "velocity": 0.5039370078740157
              },
              {
                "duration": 0.17857150000000388,
                "durationTicks": 60,
                "midi": 74,
                "name": "D5",
                "ticks": 12240,
                "time": 36.428586,
                "velocity": 0.5039370078740157
              },
              {
                "duration": 0.17857149999999677,
                "durationTicks": 60,
                "midi": 73,
                "name": "C#5",
                "ticks": 12300,
                "time": 36.60715750000001,
                "velocity": 0.5039370078740157
              },
              {
                "duration": 0.17857150000000388,
                "durationTicks": 60,
                "midi": 71,
                "name": "B4",
                "ticks": 12360,
                "time": 36.785729,
                "velocity": 0.5039370078740157
              },
              {
                "duration": 0.17857149999999677,
                "durationTicks": 60,
                "midi": 74,
                "name": "D5",
                "ticks": 12420,
                "time": 36.96430050000001,
                "velocity": 0.5039370078740157
              },
              {
                "duration": 0.17857150000000388,
                "durationTicks": 60,
                "midi": 73,
                "name": "C#5",
                "ticks": 12480,
                "time": 37.142872000000004,
                "velocity": 0.5039370078740157
              },
              {
                "duration": 0.17857149999999677,
                "durationTicks": 60,
                "midi": 71,
                "name": "B4",
                "ticks": 12540,
                "time": 37.32144350000001,
                "velocity": 0.5039370078740157
              },
              {
                "duration": 0.17857149999999677,
                "durationTicks": 60,
                "midi": 69,
                "name": "A4",
                "ticks": 12600,
                "time": 37.500015000000005,
                "velocity": 0.5039370078740157
              },
              {
                "duration": 0.17857150000000388,
                "durationTicks": 60,
                "midi": 68,
                "name": "G#4",
                "ticks": 12660,
                "time": 37.6785865,
                "velocity": 0.5039370078740157
              },
              {
                "duration": 0.35714300000000065,
                "durationTicks": 120,
                "midi": 69,
                "name": "A4",
                "ticks": 12720,
                "time": 37.857158000000005,
                "velocity": 0.5039370078740157
              },
              {
                "duration": 0.35714300000000065,
                "durationTicks": 120,
                "midi": 64,
                "name": "E4",
                "ticks": 12840,
                "time": 38.214301000000006,
                "velocity": 0.5039370078740157
              },
              {
                "duration": 0.08928574999999483,
                "durationTicks": 30,
                "midi": 66,
                "name": "F#4",
                "ticks": 12960,
                "time": 38.57144400000001,
                "velocity": 0.5039370078740157
              },
              {
                "duration": 0.08928575000000194,
                "durationTicks": 30,
                "midi": 67,
                "name": "G4",
                "ticks": 12990,
                "time": 38.66072975,
                "velocity": 0.5039370078740157
              },
              {
                "duration": 0.17857150000000388,
                "durationTicks": 60,
                "midi": 66,
                "name": "F#4",
                "ticks": 13020,
                "time": 38.7500155,
                "velocity": 0.5039370078740157
              },
              {
                "duration": 0.35714300000000065,
                "durationTicks": 120,
                "midi": 64,
                "name": "E4",
                "ticks": 13080,
                "time": 38.92858700000001,
                "velocity": 0.5039370078740157
              },
              {
                "duration": 0.35714299999999355,
                "durationTicks": 120,
                "midi": 69,
                "name": "A4",
                "ticks": 13200,
                "time": 39.28573000000001,
                "velocity": 0.5039370078740157
              },
              {
                "duration": 0.35714300000000065,
                "durationTicks": 120,
                "midi": 64,
                "name": "E4",
                "ticks": 13320,
                "time": 39.642873,
                "velocity": 0.5039370078740157
              },
              {
                "duration": 0.08928575000000194,
                "durationTicks": 30,
                "midi": 64,
                "name": "E4",
                "ticks": 13440,
                "time": 40.000016,
                "velocity": 0.5039370078740157
              },
              {
                "duration": 0.08928575000000194,
                "durationTicks": 30,
                "midi": 66,
                "name": "F#4",
                "ticks": 13470,
                "time": 40.089301750000004,
                "velocity": 0.5039370078740157
              },
              {
                "duration": 0.17857149999999677,
                "durationTicks": 60,
                "midi": 64,
                "name": "E4",
                "ticks": 13500,
                "time": 40.178587500000006,
                "velocity": 0.5039370078740157
              },
              {
                "duration": 0.35714300000000065,
                "durationTicks": 120,
                "midi": 62,
                "name": "D4",
                "ticks": 13560,
                "time": 40.357159,
                "velocity": 0.5039370078740157
              },
              {
                "duration": 0.35714300000000065,
                "durationTicks": 120,
                "midi": 71,
                "name": "B4",
                "ticks": 13680,
                "time": 40.714302,
                "velocity": 0.5039370078740157
              },
              {
                "duration": 0.35714300000000065,
                "durationTicks": 120,
                "midi": 62,
                "name": "D4",
                "ticks": 13800,
                "time": 41.071445000000004,
                "velocity": 0.5039370078740157
              },
              {
                "duration": 0.08928575000000194,
                "durationTicks": 30,
                "midi": 62,
                "name": "D4",
                "ticks": 13920,
                "time": 41.428588000000005,
                "velocity": 0.5039370078740157
              },
              {
                "duration": 0.08928574999999483,
                "durationTicks": 30,
                "midi": 64,
                "name": "E4",
                "ticks": 13950,
                "time": 41.51787375000001,
                "velocity": 0.5039370078740157
              },
              {
                "duration": 0.17857150000000388,
                "durationTicks": 60,
                "midi": 62,
                "name": "D4",
                "ticks": 13980,
                "time": 41.6071595,
                "velocity": 0.5039370078740157
              },
              {
                "duration": 0.17857149999999677,
                "durationTicks": 60,
                "midi": 61,
                "name": "C#4",
                "ticks": 14040,
                "time": 41.785731000000006,
                "velocity": 0.5039370078740157
              },
              {
                "duration": 0.17857150000000388,
                "durationTicks": 60,
                "midi": 59,
                "name": "B3",
                "ticks": 14100,
                "time": 41.9643025,
                "velocity": 0.5039370078740157
              },
              {
                "duration": 0.17857149999999677,
                "durationTicks": 60,
                "midi": 61,
                "name": "C#4",
                "ticks": 14160,
                "time": 42.142874000000006,
                "velocity": 0.5039370078740157
              },
              {
                "duration": 0.17857150000000388,
                "durationTicks": 60,
                "midi": 63,
                "name": "D#4",
                "ticks": 14220,
                "time": 42.3214455,
                "velocity": 0.5039370078740157
              },
              {
                "duration": 0.17857149999999677,
                "durationTicks": 60,
                "midi": 64,
                "name": "E4",
                "ticks": 14280,
                "time": 42.50001700000001,
                "velocity": 0.5039370078740157
              },
              {
                "duration": 0.17857150000000388,
                "durationTicks": 60,
                "midi": 63,
                "name": "D#4",
                "ticks": 14340,
                "time": 42.678588500000004,
                "velocity": 0.5039370078740157
              },
              {
                "duration": 0.17857149999999677,
                "durationTicks": 60,
                "midi": 69,
                "name": "A4",
                "ticks": 14400,
                "time": 42.85716000000001,
                "velocity": 0.5039370078740157
              },
              {
                "duration": 0.17857150000000388,
                "durationTicks": 60,
                "midi": 66,
                "name": "F#4",
                "ticks": 14460,
                "time": 43.035731500000004,
                "velocity": 0.5039370078740157
              },
              {
                "duration": 0.17857149999999677,
                "durationTicks": 60,
                "midi": 67,
                "name": "G4",
                "ticks": 14520,
                "time": 43.21430300000001,
                "velocity": 0.5039370078740157
              },
              {
                "duration": 0.17857150000000388,
                "durationTicks": 60,
                "midi": 69,
                "name": "A4",
                "ticks": 14580,
                "time": 43.392874500000005,
                "velocity": 0.5039370078740157
              },
              {
                "duration": 0.17857149999999677,
                "durationTicks": 60,
                "midi": 68,
                "name": "G#4",
                "ticks": 14640,
                "time": 43.57144600000001,
                "velocity": 0.5039370078740157
              },
              {
                "duration": 0.17857149999999677,
                "durationTicks": 60,
                "midi": 70,
                "name": "A#4",
                "ticks": 14700,
                "time": 43.750017500000006,
                "velocity": 0.5039370078740157
              },
              {
                "duration": 0.17857150000000388,
                "durationTicks": 60,
                "midi": 71,
                "name": "B4",
                "ticks": 14760,
                "time": 43.928589,
                "velocity": 0.5039370078740157
              },
              {
                "duration": 0.17857149999999677,
                "durationTicks": 60,
                "midi": 70,
                "name": "A#4",
                "ticks": 14820,
                "time": 44.107160500000006,
                "velocity": 0.5039370078740157
              },
              {
                "duration": 0.17857150000000388,
                "durationTicks": 60,
                "midi": 76,
                "name": "E5",
                "ticks": 14880,
                "time": 44.285732,
                "velocity": 0.5039370078740157
              },
              {
                "duration": 0.17857149999999677,
                "durationTicks": 60,
                "midi": 73,
                "name": "C#5",
                "ticks": 14940,
                "time": 44.46430350000001,
                "velocity": 0.5039370078740157
              },
              {
                "duration": 0.17857150000000388,
                "durationTicks": 60,
                "midi": 74,
                "name": "D5",
                "ticks": 15000,
                "time": 44.642875000000004,
                "velocity": 0.5039370078740157
              },
              {
                "duration": 0.17857149999999677,
                "durationTicks": 60,
                "midi": 76,
                "name": "E5",
                "ticks": 15060,
                "time": 44.82144650000001,
                "velocity": 0.5039370078740157
              },
              {
                "duration": 0.17857150000000388,
                "durationTicks": 60,
                "midi": 75,
                "name": "D#5",
                "ticks": 15120,
                "time": 45.000018000000004,
                "velocity": 0.5039370078740157
              },
              {
                "duration": 0.17857149999999677,
                "durationTicks": 60,
                "midi": 77,
                "name": "F5",
                "ticks": 15180,
                "time": 45.17858950000001,
                "velocity": 0.5039370078740157
              },
              {
                "duration": 0.17857150000000388,
                "durationTicks": 60,
                "midi": 78,
                "name": "F#5",
                "ticks": 15240,
                "time": 45.357161000000005,
                "velocity": 0.5039370078740157
              },
              {
                "duration": 0.17857149999999677,
                "durationTicks": 60,
                "midi": 77,
                "name": "F5",
                "ticks": 15300,
                "time": 45.53573250000001,
                "velocity": 0.5039370078740157
              },
              {
                "duration": 0.17857149999999677,
                "durationTicks": 60,
                "midi": 83,
                "name": "B5",
                "ticks": 15360,
                "time": 45.714304000000006,
                "velocity": 0.5039370078740157
              },
              {
                "duration": 0.17857150000000388,
                "durationTicks": 60,
                "midi": 80,
                "name": "G#5",
                "ticks": 15420,
                "time": 45.8928755,
                "velocity": 0.5039370078740157
              },
              {
                "duration": 0.17857149999999677,
                "durationTicks": 60,
                "midi": 81,
                "name": "A5",
                "ticks": 15480,
                "time": 46.071447000000006,
                "velocity": 0.5039370078740157
              },
              {
                "duration": 0.17857150000000388,
                "durationTicks": 60,
                "midi": 71,
                "name": "B4",
                "ticks": 15540,
                "time": 46.2500185,
                "velocity": 0.5039370078740157
              },
              {
                "duration": 0.17857149999999677,
                "durationTicks": 60,
                "midi": 73,
                "name": "C#5",
                "ticks": 15600,
                "time": 46.42859000000001,
                "velocity": 0.5039370078740157
              },
              {
                "duration": 0.17857150000000388,
                "durationTicks": 60,
                "midi": 75,
                "name": "D#5",
                "ticks": 15660,
                "time": 46.607161500000004,
                "velocity": 0.5039370078740157
              },
              {
                "duration": 0.17857149999999677,
                "durationTicks": 60,
                "midi": 76,
                "name": "E5",
                "ticks": 15720,
                "time": 46.78573300000001,
                "velocity": 0.5039370078740157
              },
              {
                "duration": 0.17857150000000388,
                "durationTicks": 60,
                "midi": 75,
                "name": "D#5",
                "ticks": 15780,
                "time": 46.964304500000004,
                "velocity": 0.5039370078740157
              },
              {
                "duration": 0.17857149999999677,
                "durationTicks": 60,
                "midi": 81,
                "name": "A5",
                "ticks": 15840,
                "time": 47.14287600000001,
                "velocity": 0.5039370078740157
              },
              {
                "duration": 0.17857150000000388,
                "durationTicks": 60,
                "midi": 78,
                "name": "F#5",
                "ticks": 15900,
                "time": 47.321447500000005,
                "velocity": 0.5039370078740157
              },
              {
                "duration": 0.17857149999999677,
                "durationTicks": 60,
                "midi": 79,
                "name": "G5",
                "ticks": 15960,
                "time": 47.50001900000001,
                "velocity": 0.5039370078740157
              },
              {
                "duration": 0.17857149999999677,
                "durationTicks": 60,
                "midi": 69,
                "name": "A4",
                "ticks": 16020,
                "time": 47.678590500000006,
                "velocity": 0.5039370078740157
              },
              {
                "duration": 0.17857150000000388,
                "durationTicks": 60,
                "midi": 71,
                "name": "B4",
                "ticks": 16080,
                "time": 47.857162,
                "velocity": 0.5039370078740157
              },
              {
                "duration": 0.17857149999999677,
                "durationTicks": 60,
                "midi": 73,
                "name": "C#5",
                "ticks": 16140,
                "time": 48.035733500000006,
                "velocity": 0.5039370078740157
              },
              {
                "duration": 0.17857150000000388,
                "durationTicks": 60,
                "midi": 74,
                "name": "D5",
                "ticks": 16200,
                "time": 48.214305,
                "velocity": 0.5039370078740157
              },
              {
                "duration": 0.17857149999999677,
                "durationTicks": 60,
                "midi": 73,
                "name": "C#5",
                "ticks": 16260,
                "time": 48.39287650000001,
                "velocity": 0.5039370078740157
              },
              {
                "duration": 0.17857150000000388,
                "durationTicks": 60,
                "midi": 79,
                "name": "G5",
                "ticks": 16320,
                "time": 48.571448000000004,
                "velocity": 0.5039370078740157
              },
              {
                "duration": 0.17857149999999677,
                "durationTicks": 60,
                "midi": 76,
                "name": "E5",
                "ticks": 16380,
                "time": 48.75001950000001,
                "velocity": 0.5039370078740157
              },
              {
                "duration": 0.17857150000000388,
                "durationTicks": 60,
                "midi": 78,
                "name": "F#5",
                "ticks": 16440,
                "time": 48.928591000000004,
                "velocity": 0.5039370078740157
              },
              {
                "duration": 0.17857149999999677,
                "durationTicks": 60,
                "midi": 73,
                "name": "C#5",
                "ticks": 16500,
                "time": 49.10716250000001,
                "velocity": 0.5039370078740157
              },
              {
                "duration": 0.17857150000000388,
                "durationTicks": 60,
                "midi": 74,
                "name": "D5",
                "ticks": 16560,
                "time": 49.285734000000005,
                "velocity": 0.5039370078740157
              },
              {
                "duration": 0.17857149999999677,
                "durationTicks": 60,
                "midi": 76,
                "name": "E5",
                "ticks": 16620,
                "time": 49.46430550000001,
                "velocity": 0.5039370078740157
              },
              {
                "duration": 0.17857150000000388,
                "durationTicks": 60,
                "midi": 78,
                "name": "F#5",
                "ticks": 16680,
                "time": 49.642877000000006,
                "velocity": 0.5039370078740157
              },
              {
                "duration": 0.17857149999999677,
                "durationTicks": 60,
                "midi": 74,
                "name": "D5",
                "ticks": 16740,
                "time": 49.82144850000001,
                "velocity": 0.5039370078740157
              },
              {
                "duration": 0.17857149999999677,
                "durationTicks": 60,
                "midi": 76,
                "name": "E5",
                "ticks": 16800,
                "time": 50.000020000000006,
                "velocity": 0.5039370078740157
              },
              {
                "duration": 0.17857150000000388,
                "durationTicks": 60,
                "midi": 78,
                "name": "F#5",
                "ticks": 16860,
                "time": 50.1785915,
                "velocity": 0.5039370078740157
              },
              {
                "duration": 0.17857149999999677,
                "durationTicks": 60,
                "midi": 76,
                "name": "E5",
                "ticks": 16920,
                "time": 50.35716300000001,
                "velocity": 0.5039370078740157
              },
              {
                "duration": 0.17857150000000388,
                "durationTicks": 60,
                "midi": 73,
                "name": "C#5",
                "ticks": 16980,
                "time": 50.535734500000004,
                "velocity": 0.5039370078740157
              },
              {
                "duration": 0.17857149999999677,
                "durationTicks": 60,
                "midi": 74,
                "name": "D5",
                "ticks": 17040,
                "time": 50.71430600000001,
                "velocity": 0.5039370078740157
              },
              {
                "duration": 0.17857150000000388,
                "durationTicks": 60,
                "midi": 76,
                "name": "E5",
                "ticks": 17100,
                "time": 50.892877500000004,
                "velocity": 0.5039370078740157
              },
              {
                "duration": 0.17857149999999677,
                "durationTicks": 60,
                "midi": 74,
                "name": "D5",
                "ticks": 17160,
                "time": 51.07144900000001,
                "velocity": 0.5039370078740157
              },
              {
                "duration": 0.17857150000000388,
                "durationTicks": 60,
                "midi": 71,
                "name": "B4",
                "ticks": 17220,
                "time": 51.250020500000005,
                "velocity": 0.5039370078740157
              },
              {
                "duration": 0.17857149999999677,
                "durationTicks": 60,
                "midi": 73,
                "name": "C#5",
                "ticks": 17280,
                "time": 51.42859200000001,
                "velocity": 0.5039370078740157
              },
              {
                "duration": 0.17857150000000388,
                "durationTicks": 60,
                "midi": 74,
                "name": "D5",
                "ticks": 17340,
                "time": 51.607163500000006,
                "velocity": 0.5039370078740157
              },
              {
                "duration": 0.17857149999999677,
                "durationTicks": 60,
                "midi": 73,
                "name": "C#5",
                "ticks": 17400,
                "time": 51.78573500000001,
                "velocity": 0.5039370078740157
              },
              {
                "duration": 0.17857149999999677,
                "durationTicks": 60,
                "midi": 71,
                "name": "B4",
                "ticks": 17460,
                "time": 51.964306500000006,
                "velocity": 0.5039370078740157
              },
              {
                "duration": 0.17857150000000388,
                "durationTicks": 60,
                "midi": 70,
                "name": "A#4",
                "ticks": 17520,
                "time": 52.142878,
                "velocity": 0.5039370078740157
              },
              {
                "duration": 0.17857149999999677,
                "durationTicks": 60,
                "midi": 71,
                "name": "B4",
                "ticks": 17580,
                "time": 52.32144950000001,
                "velocity": 0.5039370078740157
              },
              {
                "duration": 0.17857150000000388,
                "durationTicks": 60,
                "midi": 73,
                "name": "C#5",
                "ticks": 17640,
                "time": 52.500021000000004,
                "velocity": 0.5039370078740157
              },
              {
                "duration": 0.17857149999999677,
                "durationTicks": 60,
                "midi": 70,
                "name": "A#4",
                "ticks": 17700,
                "time": 52.67859250000001,
                "velocity": 0.5039370078740157
              },
              {
                "duration": 0.35714300000000065,
                "durationTicks": 120,
                "midi": 66,
                "name": "F#4",
                "ticks": 17760,
                "time": 52.857164000000004,
                "velocity": 0.5039370078740157
              },
              {
                "duration": 0.17857150000000388,
                "durationTicks": 60,
                "midi": 71,
                "name": "B4",
                "ticks": 17880,
                "time": 53.214307000000005,
                "velocity": 0.5039370078740157
              },
              {
                "duration": 0.17857149999999677,
                "durationTicks": 60,
                "midi": 70,
                "name": "A#4",
                "ticks": 17940,
                "time": 53.39287850000001,
                "velocity": 0.5039370078740157
              },
              {
                "duration": 0.35714300000000065,
                "durationTicks": 120,
                "midi": 71,
                "name": "B4",
                "ticks": 18000,
                "time": 53.571450000000006,
                "velocity": 0.5039370078740157
              },
              {
                "duration": 0.35714300000000065,
                "durationTicks": 120,
                "midi": 66,
                "name": "F#4",
                "ticks": 18120,
                "time": 53.928593000000006,
                "velocity": 0.5039370078740157
              },
              {
                "duration": 0.08928575000000194,
                "durationTicks": 30,
                "midi": 67,
                "name": "G4",
                "ticks": 18240,
                "time": 54.28573600000001,
                "velocity": 0.5039370078740157
              },
              {
                "duration": 0.08928574999999483,
                "durationTicks": 30,
                "midi": 69,
                "name": "A4",
                "ticks": 18270,
                "time": 54.37502175000001,
                "velocity": 0.5039370078740157
              },
              {
                "duration": 0.17857150000000388,
                "durationTicks": 60,
                "midi": 67,
                "name": "G4",
                "ticks": 18300,
                "time": 54.464307500000004,
                "velocity": 0.5039370078740157
              },
              {
                "duration": 0.35714300000000065,
                "durationTicks": 120,
                "midi": 66,
                "name": "F#4",
                "ticks": 18360,
                "time": 54.64287900000001,
                "velocity": 0.5039370078740157
              },
              {
                "duration": 0.35714300000000065,
                "durationTicks": 120,
                "midi": 71,
                "name": "B4",
                "ticks": 18480,
                "time": 55.00002200000001,
                "velocity": 0.5039370078740157
              },
              {
                "duration": 0.35714300000000065,
                "durationTicks": 120,
                "midi": 66,
                "name": "F#4",
                "ticks": 18600,
                "time": 55.35716500000001,
                "velocity": 0.5039370078740157
              },
              {
                "duration": 0.08928574999999483,
                "durationTicks": 30,
                "midi": 66,
                "name": "F#4",
                "ticks": 18720,
                "time": 55.71430800000001,
                "velocity": 0.5039370078740157
              },
              {
                "duration": 0.08928575000000194,
                "durationTicks": 30,
                "midi": 67,
                "name": "G4",
                "ticks": 18750,
                "time": 55.803593750000005,
                "velocity": 0.5039370078740157
              },
              {
                "duration": 0.17857150000000388,
                "durationTicks": 60,
                "midi": 66,
                "name": "F#4",
                "ticks": 18780,
                "time": 55.89287950000001,
                "velocity": 0.5039370078740157
              },
              {
                "duration": 0.35714299999999355,
                "durationTicks": 120,
                "midi": 64,
                "name": "E4",
                "ticks": 18840,
                "time": 56.07145100000001,
                "velocity": 0.5039370078740157
              },
              {
                "duration": 0.35714300000000065,
                "durationTicks": 120,
                "midi": 73,
                "name": "C#5",
                "ticks": 18960,
                "time": 56.428594000000004,
                "velocity": 0.5039370078740157
              },
              {
                "duration": 0.35714300000000065,
                "durationTicks": 120,
                "midi": 64,
                "name": "E4",
                "ticks": 19080,
                "time": 56.785737000000005,
                "velocity": 0.5039370078740157
              },
              {
                "duration": 0.08928575000000194,
                "durationTicks": 30,
                "midi": 64,
                "name": "E4",
                "ticks": 19200,
                "time": 57.142880000000005,
                "velocity": 0.5039370078740157
              },
              {
                "duration": 0.08928575000000194,
                "durationTicks": 30,
                "midi": 66,
                "name": "F#4",
                "ticks": 19230,
                "time": 57.23216575000001,
                "velocity": 0.5039370078740157
              },
              {
                "duration": 0.17857149999999677,
                "durationTicks": 60,
                "midi": 64,
                "name": "E4",
                "ticks": 19260,
                "time": 57.32145150000001,
                "velocity": 0.5039370078740157
              },
              {
                "duration": 0.17857150000000388,
                "durationTicks": 60,
                "midi": 62,
                "name": "D4",
                "ticks": 19320,
                "time": 57.500023000000006,
                "velocity": 0.5039370078740157
              },
              {
                "duration": 0.17857149999999677,
                "durationTicks": 60,
                "midi": 61,
                "name": "C#4",
                "ticks": 19380,
                "time": 57.67859450000001,
                "velocity": 0.5039370078740157
              },
              {
                "duration": 0.17857150000000388,
                "durationTicks": 60,
                "midi": 62,
                "name": "D4",
                "ticks": 19440,
                "time": 57.85716600000001,
                "velocity": 0.5039370078740157
              },
              {
                "duration": 0.17857149999999677,
                "durationTicks": 60,
                "midi": 66,
                "name": "F#4",
                "ticks": 19500,
                "time": 58.03573750000001,
                "velocity": 0.5039370078740157
              },
              {
                "duration": 0.17857149999999677,
                "durationTicks": 60,
                "midi": 64,
                "name": "E4",
                "ticks": 19560,
                "time": 58.21430900000001,
                "velocity": 0.5039370078740157
              },
              {
                "duration": 0.17857150000000388,
                "durationTicks": 60,
                "midi": 67,
                "name": "G4",
                "ticks": 19620,
                "time": 58.392880500000004,
                "velocity": 0.5039370078740157
              },
              {
                "duration": 0.5357144999999974,
                "durationTicks": 180,
                "midi": 66,
                "name": "F#4",
                "ticks": 19680,
                "time": 58.57145200000001,
                "velocity": 0.5039370078740157
              },
              {
                "duration": 0.17857150000000388,
                "durationTicks": 60,
                "midi": 74,
                "name": "D5",
                "ticks": 19860,
                "time": 59.107166500000005,
                "velocity": 0.5039370078740157
              },
              {
                "duration": 0.08928574999999483,
                "durationTicks": 30,
                "midi": 70,
                "name": "A#4",
                "ticks": 19920,
                "time": 59.28573800000001,
                "velocity": 0.5039370078740157
              },
              {
                "duration": 0.08928575000000194,
                "durationTicks": 30,
                "midi": 71,
                "name": "B4",
                "ticks": 19950,
                "time": 59.375023750000004,
                "velocity": 0.5039370078740157
              },
              {
                "duration": 0.35714300000000065,
                "durationTicks": 120,
                "midi": 70,
                "name": "A#4",
                "ticks": 19980,
                "time": 59.464309500000006,
                "velocity": 0.5039370078740157
              },
              {
                "duration": 0.14880958333333183,
                "durationTicks": 50,
                "midi": 71,
                "name": "B4",
                "ticks": 20100,
                "time": 59.82145250000001,
                "velocity": 0.5039370078740157
              },
              {
                "duration": 2.857143999999998,
                "durationTicks": 960,
                "midi": 71,
                "name": "B4",
                "ticks": 20160,
                "time": 60.00002400000001,
                "velocity": 0.5039370078740157
              }
            ],
            "endOfTrackTicks": 21120
          },
          {
            "channel": 1,
            "controlChanges": {},
            "pitchBends": [],
            "instrument": {
              "family": "piano",
              "number": 0,
              "name": "acoustic grand piano"
            },
            "name": "",
            "notes": [
              {
                "duration": 0.35714300000000004,
                "durationTicks": 120,
                "midi": 47,
                "name": "B2",
                "ticks": 0,
                "time": 0,
                "velocity": 0.5039370078740157
              },
              {
                "duration": 0.3571430000000001,
                "durationTicks": 120,
                "midi": 50,
                "name": "D3",
                "ticks": 240,
                "time": 0.7142860000000001,
                "velocity": 0.5039370078740157
              },
              {
                "duration": 0.357143,
                "durationTicks": 120,
                "midi": 52,
                "name": "E3",
                "ticks": 480,
                "time": 1.4285720000000002,
                "velocity": 0.5039370078740157
              },
              {
                "duration": 0.35714299999999977,
                "durationTicks": 120,
                "midi": 50,
                "name": "D3",
                "ticks": 720,
                "time": 2.1428580000000004,
                "velocity": 0.5039370078740157
              },
              {
                "duration": 0.3571430000000002,
                "durationTicks": 120,
                "midi": 49,
                "name": "C#3",
                "ticks": 960,
                "time": 2.8571440000000004,
                "velocity": 0.5039370078740157
              },
              {
                "duration": 0.3571430000000002,
                "durationTicks": 120,
                "midi": 46,
                "name": "A#2",
                "ticks": 1200,
                "time": 3.5714300000000003,
                "velocity": 0.5039370078740157
              },
              {
                "duration": 0.35714299999999977,
                "durationTicks": 120,
                "midi": 47,
                "name": "B2",
                "ticks": 1440,
                "time": 4.285716000000001,
                "velocity": 0.5039370078740157
              },
              {
                "duration": 0.35714300000000065,
                "durationTicks": 120,
                "midi": 43,
                "name": "G2",
                "ticks": 1680,
                "time": 5.000002,
                "velocity": 0.5039370078740157
              },
              {
                "duration": 0.35714299999999977,
                "durationTicks": 120,
                "midi": 42,
                "name": "F#2",
                "ticks": 1920,
                "time": 5.714288000000001,
                "velocity": 0.5039370078740157
              },
              {
                "duration": 0.17857150000000033,
                "durationTicks": 60,
                "midi": 54,
                "name": "F#3",
                "ticks": 2040,
                "time": 6.0714310000000005,
                "velocity": 0.5039370078740157
              },
              {
                "duration": 0.17857150000000033,
                "durationTicks": 60,
                "midi": 53,
                "name": "F3",
                "ticks": 2100,
                "time": 6.250002500000001,
                "velocity": 0.5039370078740157
              },
              {
                "duration": 0.35714299999999977,
                "durationTicks": 120,
                "midi": 54,
                "name": "F#3",
                "ticks": 2160,
                "time": 6.428574000000001,
                "velocity": 0.5039370078740157
              },
              {
                "duration": 0.35714299999999977,
                "durationTicks": 120,
                "midi": 49,
                "name": "C#3",
                "ticks": 2280,
                "time": 6.785717000000001,
                "velocity": 0.5039370078740157
              },
              {
                "duration": 0.08928575000000016,
                "durationTicks": 30,
                "midi": 50,
                "name": "D3",
                "ticks": 2400,
                "time": 7.142860000000001,
                "velocity": 0.5039370078740157
              },
              {
                "duration": 0.08928575000000016,
                "durationTicks": 30,
                "midi": 52,
                "name": "E3",
                "ticks": 2430,
                "time": 7.232145750000001,
                "velocity": 0.5039370078740157
              },
              {
                "duration": 0.17857150000000033,
                "durationTicks": 60,
                "midi": 50,
                "name": "D3",
                "ticks": 2460,
                "time": 7.321431500000001,
                "velocity": 0.5039370078740157
              },
              {
                "duration": 0.35714299999999977,
                "durationTicks": 120,
                "midi": 49,
                "name": "C#3",
                "ticks": 2520,
                "time": 7.500003000000001,
                "velocity": 0.5039370078740157
              },
              {
                "duration": 0.35714299999999977,
                "durationTicks": 120,
                "midi": 54,
                "name": "F#3",
                "ticks": 2640,
                "time": 7.857146000000001,
                "velocity": 0.5039370078740157
              },
              {
                "duration": 0.35714300000000065,
                "durationTicks": 120,
                "midi": 49,
                "name": "C#3",
                "ticks": 2760,
                "time": 8.214289,
                "velocity": 0.5039370078740157
              },
              {
                "duration": 0.08928575000000016,
                "durationTicks": 30,
                "midi": 49,
                "name": "C#3",
                "ticks": 2880,
                "time": 8.571432000000001,
                "velocity": 0.5039370078740157
              },
              {
                "duration": 0.08928575000000016,
                "durationTicks": 30,
                "midi": 50,
                "name": "D3",
                "ticks": 2910,
                "time": 8.660717750000002,
                "velocity": 0.5039370078740157
              },
              {
                "duration": 0.17857149999999855,
                "durationTicks": 60,
                "midi": 49,
                "name": "C#3",
                "ticks": 2940,
                "time": 8.750003500000002,
                "velocity": 0.5039370078740157
              },
              {
                "duration": 0.35714300000000065,
                "durationTicks": 120,
                "midi": 47,
                "name": "B2",
                "ticks": 3000,
                "time": 8.928575,
                "velocity": 0.5039370078740157
              },
              {
                "duration": 0.35714300000000065,
                "durationTicks": 120,
                "midi": 56,
                "name": "G#3",
                "ticks": 3120,
                "time": 9.285718000000001,
                "velocity": 0.5039370078740157
              },
              {
                "duration": 0.3571429999999989,
                "durationTicks": 120,
                "midi": 47,
                "name": "B2",
                "ticks": 3240,
                "time": 9.642861000000002,
                "velocity": 0.5039370078740157
              },
              {
                "duration": 0.08928575000000016,
                "durationTicks": 30,
                "midi": 47,
                "name": "B2",
                "ticks": 3360,
                "time": 10.000004,
                "velocity": 0.5039370078740157
              },
              {
                "duration": 0.08928575000000016,
                "durationTicks": 30,
                "midi": 49,
                "name": "C#3",
                "ticks": 3390,
                "time": 10.08928975,
                "velocity": 0.5039370078740157
              },
              {
                "duration": 0.17857150000000033,
                "durationTicks": 60,
                "midi": 47,
                "name": "B2",
                "ticks": 3420,
                "time": 10.1785755,
                "velocity": 0.5039370078740157
              },
              {
                "duration": 0.17857150000000033,
                "durationTicks": 60,
                "midi": 45,
                "name": "A2",
                "ticks": 3480,
                "time": 10.357147000000001,
                "velocity": 0.5039370078740157
              },
              {
                "duration": 0.17857150000000033,
                "durationTicks": 60,
                "midi": 44,
                "name": "G#2",
                "ticks": 3540,
                "time": 10.535718500000002,
                "velocity": 0.5039370078740157
              },
              {
                "duration": 0.3571429999999989,
                "durationTicks": 120,
                "midi": 45,
                "name": "A2",
                "ticks": 3600,
                "time": 10.714290000000002,
                "velocity": 0.5039370078740157
              },
              {
                "duration": 0.35714300000000065,
                "durationTicks": 120,
                "midi": 47,
                "name": "B2",
                "ticks": 3720,
                "time": 11.071433,
                "velocity": 0.5039370078740157
              },
              {
                "duration": 0.35714300000000065,
                "durationTicks": 120,
                "midi": 49,
                "name": "C#3",
                "ticks": 3840,
                "time": 11.428576000000001,
                "velocity": 0.5039370078740157
              },
              {
                "duration": 0.3571429999999989,
                "durationTicks": 120,
                "midi": 47,
                "name": "B2",
                "ticks": 3960,
                "time": 11.785719000000002,
                "velocity": 0.5039370078740157
              },
              {
                "duration": 0.35714300000000065,
                "durationTicks": 120,
                "midi": 49,
                "name": "C#3",
                "ticks": 4080,
                "time": 12.142862000000001,
                "velocity": 0.5039370078740157
              },
              {
                "duration": 0.35714300000000065,
                "durationTicks": 120,
                "midi": 37,
                "name": "C#2",
                "ticks": 4200,
                "time": 12.500005000000002,
                "velocity": 0.5039370078740157
              },
              {
                "duration": 0.5357144999999992,
                "durationTicks": 180,
                "midi": 42,
                "name": "F#2",
                "ticks": 4320,
                "time": 12.857148000000002,
                "velocity": 0.5039370078740157
              },
              {
                "duration": 0.17857150000000033,
                "durationTicks": 60,
                "midi": 44,
                "name": "G#2",
                "ticks": 4500,
                "time": 13.392862500000001,
                "velocity": 0.5039370078740157
              },
              {
                "duration": 0.17857150000000033,
                "durationTicks": 60,
                "midi": 45,
                "name": "A2",
                "ticks": 4560,
                "time": 13.571434000000002,
                "velocity": 0.5039370078740157
              },
              {
                "duration": 0.17857150000000033,
                "durationTicks": 60,
                "midi": 47,
                "name": "B2",
                "ticks": 4620,
                "time": 13.750005500000002,
                "velocity": 0.5039370078740157
              },
              {
                "duration": 0.17857149999999855,
                "durationTicks": 60,
                "midi": 44,
                "name": "G#2",
                "ticks": 4680,
                "time": 13.928577000000002,
                "velocity": 0.5039370078740157
              },
              {
                "duration": 0.17857150000000033,
                "durationTicks": 60,
                "midi": 45,
                "name": "A2",
                "ticks": 4740,
                "time": 14.107148500000001,
                "velocity": 0.5039370078740157
              },
              {
                "duration": 0.17857150000000033,
                "durationTicks": 60,
                "midi": 47,
                "name": "B2",
                "ticks": 4800,
                "time": 14.285720000000001,
                "velocity": 0.5039370078740157
              },
              {
                "duration": 0.17857150000000033,
                "durationTicks": 60,
                "midi": 49,
                "name": "C#3",
                "ticks": 4860,
                "time": 14.464291500000002,
                "velocity": 0.5039370078740157
              },
              {
                "duration": 0.17857150000000033,
                "durationTicks": 60,
                "midi": 47,
                "name": "B2",
                "ticks": 4920,
                "time": 14.642863000000002,
                "velocity": 0.5039370078740157
              },
              {
                "duration": 0.17857150000000033,
                "durationTicks": 60,
                "midi": 44,
                "name": "G#2",
                "ticks": 4980,
                "time": 14.821434500000002,
                "velocity": 0.5039370078740157
              },
              {
                "duration": 0.17857149999999855,
                "durationTicks": 60,
                "midi": 45,
                "name": "A2",
                "ticks": 5040,
                "time": 15.000006000000003,
                "velocity": 0.5039370078740157
              },
              {
                "duration": 0.17857150000000033,
                "durationTicks": 60,
                "midi": 47,
                "name": "B2",
                "ticks": 5100,
                "time": 15.178577500000001,
                "velocity": 0.5039370078740157
              },
              {
                "duration": 0.17857150000000033,
                "durationTicks": 60,
                "midi": 45,
                "name": "A2",
                "ticks": 5160,
                "time": 15.357149000000001,
                "velocity": 0.5039370078740157
              },
              {
                "duration": 0.17857150000000033,
                "durationTicks": 60,
                "midi": 42,
                "name": "F#2",
                "ticks": 5220,
                "time": 15.535720500000002,
                "velocity": 0.5039370078740157
              },
              {
                "duration": 0.17857150000000033,
                "durationTicks": 60,
                "midi": 44,
                "name": "G#2",
                "ticks": 5280,
                "time": 15.714292000000002,
                "velocity": 0.5039370078740157
              },
              {
                "duration": 0.17857149999999855,
                "durationTicks": 60,
                "midi": 45,
                "name": "A2",
                "ticks": 5340,
                "time": 15.892863500000002,
                "velocity": 0.5039370078740157
              },
              {
                "duration": 0.17857150000000033,
                "durationTicks": 60,
                "midi": 44,
                "name": "G#2",
                "ticks": 5400,
                "time": 16.071435,
                "velocity": 0.5039370078740157
              },
              {
                "duration": 0.17857150000000033,
                "durationTicks": 60,
                "midi": 42,
                "name": "F#2",
                "ticks": 5460,
                "time": 16.2500065,
                "velocity": 0.5039370078740157
              },
              {
                "duration": 0.17857150000000033,
                "durationTicks": 60,
                "midi": 41,
                "name": "F2",
                "ticks": 5520,
                "time": 16.428578,
                "velocity": 0.5039370078740157
              },
              {
                "duration": 0.17857150000000033,
                "durationTicks": 60,
                "midi": 44,
                "name": "G#2",
                "ticks": 5580,
                "time": 16.607149500000002,
                "velocity": 0.5039370078740157
              },
              {
                "duration": 0.17857150000000033,
                "durationTicks": 60,
                "midi": 42,
                "name": "F#2",
                "ticks": 5640,
                "time": 16.785721000000002,
                "velocity": 0.5039370078740157
              },
              {
                "duration": 0.17857150000000033,
                "durationTicks": 60,
                "midi": 41,
                "name": "F2",
                "ticks": 5700,
                "time": 16.964292500000003,
                "velocity": 0.5039370078740157
              },
              {
                "duration": 0.35714300000000065,
                "durationTicks": 120,
                "midi": 42,
                "name": "F#2",
                "ticks": 5760,
                "time": 17.142864000000003,
                "velocity": 0.5039370078740157
              },
              {
                "duration": 0.17857149999999677,
                "durationTicks": 60,
                "midi": 54,
                "name": "F#3",
                "ticks": 5880,
                "time": 17.500007000000004,
                "velocity": 0.5039370078740157
              },
              {
                "duration": 0.17857150000000033,
                "durationTicks": 60,
                "midi": 53,
                "name": "F3",
                "ticks": 5940,
                "time": 17.6785785,
                "velocity": 0.5039370078740157
              },
              {
                "duration": 0.35714300000000065,
                "durationTicks": 120,
                "midi": 54,
                "name": "F#3",
                "ticks": 6000,
                "time": 17.85715,
                "velocity": 0.5039370078740157
              },
              {
                "duration": 0.35714300000000065,
                "durationTicks": 120,
                "midi": 49,
                "name": "C#3",
                "ticks": 6120,
                "time": 18.214293,
                "velocity": 0.5039370078740157
              },
              {
                "duration": 0.35714300000000065,
                "durationTicks": 120,
                "midi": 50,
                "name": "D3",
                "ticks": 6240,
                "time": 18.571436000000002,
                "velocity": 0.5039370078740157
              },
              {
                "duration": 0.17857150000000033,
                "durationTicks": 60,
                "midi": 62,
                "name": "D4",
                "ticks": 6360,
                "time": 18.928579000000003,
                "velocity": 0.5039370078740157
              },
              {
                "duration": 0.17857150000000033,
                "durationTicks": 60,
                "midi": 61,
                "name": "C#4",
                "ticks": 6420,
                "time": 19.107150500000003,
                "velocity": 0.5039370078740157
              },
              {
                "duration": 0.17857150000000033,
                "durationTicks": 60,
                "midi": 62,
                "name": "D4",
                "ticks": 6480,
                "time": 19.285722000000003,
                "velocity": 0.5039370078740157
              },
              {
                "duration": 0.17857150000000033,
                "durationTicks": 60,
                "midi": 64,
                "name": "E4",
                "ticks": 6540,
                "time": 19.464293500000004,
                "velocity": 0.5039370078740157
              },
              {
                "duration": 0.17857149999999677,
                "durationTicks": 60,
                "midi": 62,
                "name": "D4",
                "ticks": 6600,
                "time": 19.642865000000004,
                "velocity": 0.5039370078740157
              },
              {
                "duration": 0.17857150000000033,
                "durationTicks": 60,
                "midi": 58,
                "name": "A#3",
                "ticks": 6660,
                "time": 19.8214365,
                "velocity": 0.5039370078740157
              },
              {
                "duration": 0.35714300000000065,
                "durationTicks": 120,
                "midi": 59,
                "name": "B3",
                "ticks": 6720,
                "time": 20.000008,
                "velocity": 0.5039370078740157
              },
              {
                "duration": 0.35714300000000065,
                "durationTicks": 120,
                "midi": 57,
                "name": "A3",
                "ticks": 6840,
                "time": 20.357151,
                "velocity": 0.5039370078740157
              },
              {
                "duration": 0.35714300000000065,
                "durationTicks": 120,
                "midi": 55,
                "name": "G3",
                "ticks": 6960,
                "time": 20.714294000000002,
                "velocity": 0.5039370078740157
              },
              {
                "duration": 0.35714300000000065,
                "durationTicks": 120,
                "midi": 54,
                "name": "F#3",
                "ticks": 7080,
                "time": 21.071437000000003,
                "velocity": 0.5039370078740157
              },
              {
                "duration": 0.35714300000000065,
                "durationTicks": 120,
                "midi": 52,
                "name": "E3",
                "ticks": 7200,
                "time": 21.428580000000004,
                "velocity": 0.5039370078740157
              },
              {
                "duration": 0.3571429999999971,
                "durationTicks": 120,
                "midi": 40,
                "name": "E2",
                "ticks": 7320,
                "time": 21.785723000000004,
                "velocity": 0.5039370078740157
              },
              {
                "duration": 0.35714300000000065,
                "durationTicks": 120,
                "midi": 42,
                "name": "F#2",
                "ticks": 7440,
                "time": 22.142866,
                "velocity": 0.5039370078740157
              },
              {
                "duration": 0.35714300000000065,
                "durationTicks": 120,
                "midi": 43,
                "name": "G2",
                "ticks": 7560,
                "time": 22.500009000000002,
                "velocity": 0.5039370078740157
              },
              {
                "duration": 0.35714300000000065,
                "durationTicks": 120,
                "midi": 45,
                "name": "A2",
                "ticks": 7680,
                "time": 22.857152000000003,
                "velocity": 0.5039370078740157
              },
              {
                "duration": 0.35714300000000065,
                "durationTicks": 120,
                "midi": 55,
                "name": "G3",
                "ticks": 7800,
                "time": 23.214295000000003,
                "velocity": 0.5039370078740157
              },
              {
                "duration": 0.3571429999999971,
                "durationTicks": 120,
                "midi": 54,
                "name": "F#3",
                "ticks": 7920,
                "time": 23.571438000000004,
                "velocity": 0.5039370078740157
              },
              {
                "duration": 0.35714300000000065,
                "durationTicks": 120,
                "midi": 52,
                "name": "E3",
                "ticks": 8040,
                "time": 23.928581,
                "velocity": 0.5039370078740157
              },
              {
                "duration": 0.35714300000000065,
                "durationTicks": 120,
                "midi": 50,
                "name": "D3",
                "ticks": 8160,
                "time": 24.285724000000002,
                "velocity": 0.5039370078740157
              },
              {
                "duration": 0.35714300000000065,
                "durationTicks": 120,
                "midi": 38,
                "name": "D2",
                "ticks": 8280,
                "time": 24.642867000000003,
                "velocity": 0.5039370078740157
              },
              {
                "duration": 0.35714300000000065,
                "durationTicks": 120,
                "midi": 40,
                "name": "E2",
                "ticks": 8400,
                "time": 25.000010000000003,
                "velocity": 0.5039370078740157
              },
              {
                "duration": 0.35714300000000065,
                "durationTicks": 120,
                "midi": 42,
                "name": "F#2",
                "ticks": 8520,
                "time": 25.357153000000004,
                "velocity": 0.5039370078740157
              },
              {
                "duration": 0.3571429999999971,
                "durationTicks": 120,
                "midi": 43,
                "name": "G2",
                "ticks": 8640,
                "time": 25.714296000000004,
                "velocity": 0.5039370078740157
              },
              {
                "duration": 0.35714300000000065,
                "durationTicks": 120,
                "midi": 55,
                "name": "G3",
                "ticks": 8760,
                "time": 26.071439,
                "velocity": 0.5039370078740157
              },
              {
                "duration": 0.35714300000000065,
                "durationTicks": 120,
                "midi": 54,
                "name": "F#3",
                "ticks": 8880,
                "time": 26.428582000000002,
                "velocity": 0.5039370078740157
              },
              {
                "duration": 0.35714300000000065,
                "durationTicks": 120,
                "midi": 59,
                "name": "B3",
                "ticks": 9000,
                "time": 26.785725000000003,
                "velocity": 0.5039370078740157
              },
              {
                "duration": 0.35714300000000065,
                "durationTicks": 120,
                "midi": 52,
                "name": "E3",
                "ticks": 9120,
                "time": 27.142868000000004,
                "velocity": 0.5039370078740157
              },
              {
                "duration": 0.35714300000000065,
                "durationTicks": 120,
                "midi": 57,
                "name": "A3",
                "ticks": 9240,
                "time": 27.500011000000004,
                "velocity": 0.5039370078740157
              },
              {
                "duration": 0.3571429999999971,
                "durationTicks": 120,
                "midi": 50,
                "name": "D3",
                "ticks": 9360,
                "time": 27.857154000000005,
                "velocity": 0.5039370078740157
              },
              {
                "duration": 0.535714500000001,
                "durationTicks": 180,
                "midi": 62,
                "name": "D4",
                "ticks": 9480,
                "time": 28.214297000000002,
                "velocity": 0.5039370078740157
              },
              {
                "duration": 0.17857150000000033,
                "durationTicks": 60,
                "midi": 64,
                "name": "E4",
                "ticks": 9660,
                "time": 28.750011500000003,
                "velocity": 0.5039370078740157
              },
              {
                "duration": 0.17857150000000033,
                "durationTicks": 60,
                "midi": 62,
                "name": "D4",
                "ticks": 9720,
                "time": 28.928583000000003,
                "velocity": 0.5039370078740157
              },
              {
                "duration": 0.17857150000000033,
                "durationTicks": 60,
                "midi": 59,
                "name": "B3",
                "ticks": 9780,
                "time": 29.107154500000004,
                "velocity": 0.5039370078740157
              },
              {
                "duration": 0.17857150000000033,
                "durationTicks": 60,
                "midi": 61,
                "name": "C#4",
                "ticks": 9840,
                "time": 29.285726000000004,
                "velocity": 0.5039370078740157
              },
              {
                "duration": 0.17857150000000033,
                "durationTicks": 60,
                "midi": 62,
                "name": "D4",
                "ticks": 9900,
                "time": 29.464297500000004,
                "velocity": 0.5039370078740157
              },
              {
                "duration": 0.17857150000000033,
                "durationTicks": 60,
                "midi": 61,
                "name": "C#4",
                "ticks": 9960,
                "time": 29.642869000000005,
                "velocity": 0.5039370078740157
              },
              {
                "duration": 0.17857150000000033,
                "durationTicks": 60,
                "midi": 57,
                "name": "A3",
                "ticks": 10020,
                "time": 29.821440500000005,
                "velocity": 0.5039370078740157
              },
              {
                "duration": 0.17857149999999677,
                "durationTicks": 60,
                "midi": 62,
                "name": "D4",
                "ticks": 10080,
                "time": 30.000012000000005,
                "velocity": 0.5039370078740157
              },
              {
                "duration": 0.17857150000000033,
                "durationTicks": 60,
                "midi": 61,
                "name": "C#4",
                "ticks": 10140,
                "time": 30.178583500000002,
                "velocity": 0.5039370078740157
              },
              {
                "duration": 0.17857150000000033,
                "durationTicks": 60,
                "midi": 59,
                "name": "B3",
                "ticks": 10200,
                "time": 30.357155000000002,
                "velocity": 0.5039370078740157
              },
              {
                "duration": 0.17857150000000033,
                "durationTicks": 60,
                "midi": 57,
                "name": "A3",
                "ticks": 10260,
                "time": 30.535726500000003,
                "velocity": 0.5039370078740157
              },
              {
                "duration": 0.17857150000000033,
                "durationTicks": 60,
                "midi": 55,
                "name": "G3",
                "ticks": 10320,
                "time": 30.714298000000003,
                "velocity": 0.5039370078740157
              },
              {
                "duration": 0.17857150000000033,
                "durationTicks": 60,
                "midi": 54,
                "name": "F#3",
                "ticks": 10380,
                "time": 30.892869500000003,
                "velocity": 0.5039370078740157
              },
              {
                "duration": 0.17857150000000033,
                "durationTicks": 60,
                "midi": 55,
                "name": "G3",
                "ticks": 10440,
                "time": 31.071441000000004,
                "velocity": 0.5039370078740157
              },
              {
                "duration": 0.17857150000000033,
                "durationTicks": 60,
                "midi": 57,
                "name": "A3",
                "ticks": 10500,
                "time": 31.250012500000004,
                "velocity": 0.5039370078740157
              },
              {
                "duration": 0.35714300000000065,
                "durationTicks": 120,
                "midi": 50,
                "name": "D3",
                "ticks": 10560,
                "time": 31.428584000000004,
                "velocity": 0.5039370078740157
              },
              {
                "duration": 0.17857150000000033,
                "durationTicks": 60,
                "midi": 62,
                "name": "D4",
                "ticks": 10680,
                "time": 31.785727000000005,
                "velocity": 0.5039370078740157
              },
              {
                "duration": 0.17857149999999677,
                "durationTicks": 60,
                "midi": 61,
                "name": "C#4",
                "ticks": 10740,
                "time": 31.964298500000005,
                "velocity": 0.5039370078740157
              },
              {
                "duration": 0.35714300000000065,
                "durationTicks": 120,
                "midi": 62,
                "name": "D4",
                "ticks": 10800,
                "time": 32.14287,
                "velocity": 0.5039370078740157
              },
              {
                "duration": 0.35714300000000065,
                "durationTicks": 120,
                "midi": 57,
                "name": "A3",
                "ticks": 10920,
                "time": 32.500013,
                "velocity": 0.5039370078740157
              },
              {
                "duration": 0.08928575000000194,
                "durationTicks": 30,
                "midi": 59,
                "name": "B3",
                "ticks": 11040,
                "time": 32.857156,
                "velocity": 0.5039370078740157
              },
              {
                "duration": 0.08928575000000194,
                "durationTicks": 30,
                "midi": 61,
                "name": "C#4",
                "ticks": 11070,
                "time": 32.946441750000005,
                "velocity": 0.5039370078740157
              },
              {
                "duration": 0.17857149999999677,
                "durationTicks": 60,
                "midi": 59,
                "name": "B3",
                "ticks": 11100,
                "time": 33.03572750000001,
                "velocity": 0.5039370078740157
              },
              {
                "duration": 0.35714300000000065,
                "durationTicks": 120,
                "midi": 57,
                "name": "A3",
                "ticks": 11160,
                "time": 33.214299000000004,
                "velocity": 0.5039370078740157
              },
              {
                "duration": 0.35714300000000065,
                "durationTicks": 120,
                "midi": 62,
                "name": "D4",
                "ticks": 11280,
                "time": 33.571442000000005,
                "velocity": 0.5039370078740157
              },
              {
                "duration": 0.35714300000000065,
                "durationTicks": 120,
                "midi": 57,
                "name": "A3",
                "ticks": 11400,
                "time": 33.928585000000005,
                "velocity": 0.5039370078740157
              },
              {
                "duration": 0.08928574999999483,
                "durationTicks": 30,
                "midi": 57,
                "name": "A3",
                "ticks": 11520,
                "time": 34.285728000000006,
                "velocity": 0.5039370078740157
              },
              {
                "duration": 0.08928575000000194,
                "durationTicks": 30,
                "midi": 59,
                "name": "B3",
                "ticks": 11550,
                "time": 34.37501375,
                "velocity": 0.5039370078740157
              },
              {
                "duration": 0.17857150000000388,
                "durationTicks": 60,
                "midi": 57,
                "name": "A3",
                "ticks": 11580,
                "time": 34.4642995,
                "velocity": 0.5039370078740157
              },
              {
                "duration": 0.35714300000000065,
                "durationTicks": 120,
                "midi": 55,
                "name": "G3",
                "ticks": 11640,
                "time": 34.64287100000001,
                "velocity": 0.5039370078740157
              },
              {
                "duration": 0.35714299999999355,
                "durationTicks": 120,
                "midi": 64,
                "name": "E4",
                "ticks": 11760,
                "time": 35.00001400000001,
                "velocity": 0.5039370078740157
              },
              {
                "duration": 0.35714300000000065,
                "durationTicks": 120,
                "midi": 55,
                "name": "G3",
                "ticks": 11880,
                "time": 35.357157,
                "velocity": 0.5039370078740157
              },
              {
                "duration": 0.08928575000000194,
                "durationTicks": 30,
                "midi": 55,
                "name": "G3",
                "ticks": 12000,
                "time": 35.7143,
                "velocity": 0.5039370078740157
              },
              {
                "duration": 0.08928575000000194,
                "durationTicks": 30,
                "midi": 57,
                "name": "A3",
                "ticks": 12030,
                "time": 35.80358575,
                "velocity": 0.5039370078740157
              },
              {
                "duration": 0.17857149999999677,
                "durationTicks": 60,
                "midi": 55,
                "name": "G3",
                "ticks": 12060,
                "time": 35.892871500000005,
                "velocity": 0.5039370078740157
              },
              {
                "duration": 0.17857150000000388,
                "durationTicks": 60,
                "midi": 54,
                "name": "F#3",
                "ticks": 12120,
                "time": 36.071443,
                "velocity": 0.5039370078740157
              },
              {
                "duration": 0.17857149999999677,
                "durationTicks": 60,
                "midi": 52,
                "name": "E3",
                "ticks": 12180,
                "time": 36.250014500000006,
                "velocity": 0.5039370078740157
              },
              {
                "duration": 0.17857150000000388,
                "durationTicks": 60,
                "midi": 54,
                "name": "F#3",
                "ticks": 12240,
                "time": 36.428586,
                "velocity": 0.5039370078740157
              },
              {
                "duration": 0.17857149999999677,
                "durationTicks": 60,
                "midi": 56,
                "name": "G#3",
                "ticks": 12300,
                "time": 36.60715750000001,
                "velocity": 0.5039370078740157
              },
              {
                "duration": 0.17857150000000388,
                "durationTicks": 60,
                "midi": 57,
                "name": "A3",
                "ticks": 12360,
                "time": 36.785729,
                "velocity": 0.5039370078740157
              },
              {
                "duration": 0.17857149999999677,
                "durationTicks": 60,
                "midi": 56,
                "name": "G#3",
                "ticks": 12420,
                "time": 36.96430050000001,
                "velocity": 0.5039370078740157
              },
              {
                "duration": 0.35714300000000065,
                "durationTicks": 120,
                "midi": 57,
                "name": "A3",
                "ticks": 12480,
                "time": 37.142872000000004,
                "velocity": 0.5039370078740157
              },
              {
                "duration": 0.35714300000000065,
                "durationTicks": 120,
                "midi": 52,
                "name": "E3",
                "ticks": 12600,
                "time": 37.500015000000005,
                "velocity": 0.5039370078740157
              },
              {
                "duration": 0.17857149999999677,
                "durationTicks": 60,
                "midi": 50,
                "name": "D3",
                "ticks": 12720,
                "time": 37.857158000000005,
                "velocity": 0.5039370078740157
              },
              {
                "duration": 0.17857150000000388,
                "durationTicks": 60,
                "midi": 49,
                "name": "C#3",
                "ticks": 12780,
                "time": 38.0357295,
                "velocity": 0.5039370078740157
              },
              {
                "duration": 0.17857149999999677,
                "durationTicks": 60,
                "midi": 47,
                "name": "B2",
                "ticks": 12840,
                "time": 38.214301000000006,
                "velocity": 0.5039370078740157
              },
              {
                "duration": 0.17857150000000388,
                "durationTicks": 60,
                "midi": 45,
                "name": "A2",
                "ticks": 12900,
                "time": 38.3928725,
                "velocity": 0.5039370078740157
              },
              {
                "duration": 0.17857149999999677,
                "durationTicks": 60,
                "midi": 50,
                "name": "D3",
                "ticks": 12960,
                "time": 38.57144400000001,
                "velocity": 0.5039370078740157
              },
              {
                "duration": 0.17857150000000388,
                "durationTicks": 60,
                "midi": 52,
                "name": "E3",
                "ticks": 13020,
                "time": 38.7500155,
                "velocity": 0.5039370078740157
              },
              {
                "duration": 0.17857149999999677,
                "durationTicks": 60,
                "midi": 50,
                "name": "D3",
                "ticks": 13080,
                "time": 38.92858700000001,
                "velocity": 0.5039370078740157
              },
              {
                "duration": 0.17857150000000388,
                "durationTicks": 60,
                "midi": 47,
                "name": "B2",
                "ticks": 13140,
                "time": 39.107158500000004,
                "velocity": 0.5039370078740157
              },
              {
                "duration": 0.17857149999999677,
                "durationTicks": 60,
                "midi": 49,
                "name": "C#3",
                "ticks": 13200,
                "time": 39.28573000000001,
                "velocity": 0.5039370078740157
              },
              {
                "duration": 0.17857149999999677,
                "durationTicks": 60,
                "midi": 50,
                "name": "D3",
                "ticks": 13260,
                "time": 39.464301500000005,
                "velocity": 0.5039370078740157
              },
              {
                "duration": 0.17857150000000388,
                "durationTicks": 60,
                "midi": 49,
                "name": "C#3",
                "ticks": 13320,
                "time": 39.642873,
                "velocity": 0.5039370078740157
              },
              {
                "duration": 0.17857149999999677,
                "durationTicks": 60,
                "midi": 45,
                "name": "A2",
                "ticks": 13380,
                "time": 39.821444500000005,
                "velocity": 0.5039370078740157
              },
              {
                "duration": 0.17857150000000388,
                "durationTicks": 60,
                "midi": 47,
                "name": "B2",
                "ticks": 13440,
                "time": 40.000016,
                "velocity": 0.5039370078740157
              },
              {
                "duration": 0.17857149999999677,
                "durationTicks": 60,
                "midi": 49,
                "name": "C#3",
                "ticks": 13500,
                "time": 40.178587500000006,
                "velocity": 0.5039370078740157
              },
              {
                "duration": 0.17857150000000388,
                "durationTicks": 60,
                "midi": 47,
                "name": "B2",
                "ticks": 13560,
                "time": 40.357159,
                "velocity": 0.5039370078740157
              },
              {
                "duration": 0.17857149999999677,
                "durationTicks": 60,
                "midi": 45,
                "name": "A2",
                "ticks": 13620,
                "time": 40.53573050000001,
                "velocity": 0.5039370078740157
              },
              {
                "duration": 0.17857150000000388,
                "durationTicks": 60,
                "midi": 44,
                "name": "G#2",
                "ticks": 13680,
                "time": 40.714302,
                "velocity": 0.5039370078740157
              },
              {
                "duration": 0.17857149999999677,
                "durationTicks": 60,
                "midi": 47,
                "name": "B2",
                "ticks": 13740,
                "time": 40.89287350000001,
                "velocity": 0.5039370078740157
              },
              {
                "duration": 0.17857150000000388,
                "durationTicks": 60,
                "midi": 45,
                "name": "A2",
                "ticks": 13800,
                "time": 41.071445000000004,
                "velocity": 0.5039370078740157
              },
              {
                "duration": 0.17857149999999677,
                "durationTicks": 60,
                "midi": 44,
                "name": "G#2",
                "ticks": 13860,
                "time": 41.25001650000001,
                "velocity": 0.5039370078740157
              },
              {
                "duration": 0.35714300000000065,
                "durationTicks": 120,
                "midi": 45,
                "name": "A2",
                "ticks": 13920,
                "time": 41.428588000000005,
                "velocity": 0.5039370078740157
              },
              {
                "duration": 0.35714300000000065,
                "durationTicks": 120,
                "midi": 57,
                "name": "A3",
                "ticks": 14040,
                "time": 41.785731000000006,
                "velocity": 0.5039370078740157
              },
              {
                "duration": 0.35714300000000065,
                "durationTicks": 120,
                "midi": 55,
                "name": "G3",
                "ticks": 14160,
                "time": 42.142874000000006,
                "velocity": 0.5039370078740157
              },
              {
                "duration": 0.35714300000000065,
                "durationTicks": 120,
                "midi": 54,
                "name": "F#3",
                "ticks": 14280,
                "time": 42.50001700000001,
                "velocity": 0.5039370078740157
              },
              {
                "duration": 0.35714300000000065,
                "durationTicks": 120,
                "midi": 52,
                "name": "E3",
                "ticks": 14400,
                "time": 42.85716000000001,
                "velocity": 0.5039370078740157
              },
              {
                "duration": 0.35714300000000065,
                "durationTicks": 120,
                "midi": 64,
                "name": "E4",
                "ticks": 14520,
                "time": 43.21430300000001,
                "velocity": 0.5039370078740157
              },
              {
                "duration": 0.35714299999999355,
                "durationTicks": 120,
                "midi": 62,
                "name": "D4",
                "ticks": 14640,
                "time": 43.57144600000001,
                "velocity": 0.5039370078740157
              },
              {
                "duration": 0.35714300000000065,
                "durationTicks": 120,
                "midi": 61,
                "name": "C#4",
                "ticks": 14760,
                "time": 43.928589,
                "velocity": 0.5039370078740157
              },
              {
                "duration": 0.35714300000000065,
                "durationTicks": 120,
                "midi": 59,
                "name": "B3",
                "ticks": 14880,
                "time": 44.285732,
                "velocity": 0.5039370078740157
              },
              {
                "duration": 0.35714300000000065,
                "durationTicks": 120,
                "midi": 47,
                "name": "B2",
                "ticks": 15000,
                "time": 44.642875000000004,
                "velocity": 0.5039370078740157
              },
              {
                "duration": 0.35714300000000065,
                "durationTicks": 120,
                "midi": 45,
                "name": "A2",
                "ticks": 15120,
                "time": 45.000018000000004,
                "velocity": 0.5039370078740157
              },
              {
                "duration": 0.35714300000000065,
                "durationTicks": 120,
                "midi": 44,
                "name": "G#2",
                "ticks": 15240,
                "time": 45.357161000000005,
                "velocity": 0.5039370078740157
              },
              {
                "duration": 0.35714300000000065,
                "durationTicks": 120,
                "midi": 42,
                "name": "F#2",
                "ticks": 15360,
                "time": 45.714304000000006,
                "velocity": 0.5039370078740157
              },
              {
                "duration": 0.17857149999999677,
                "durationTicks": 60,
                "midi": 54,
                "name": "F#3",
                "ticks": 15480,
                "time": 46.071447000000006,
                "velocity": 0.5039370078740157
              },
              {
                "duration": 0.17857150000000388,
                "durationTicks": 60,
                "midi": 55,
                "name": "G3",
                "ticks": 15540,
                "time": 46.2500185,
                "velocity": 0.5039370078740157
              },
              {
                "duration": 0.35714300000000065,
                "durationTicks": 120,
                "midi": 57,
                "name": "A3",
                "ticks": 15600,
                "time": 46.42859000000001,
                "velocity": 0.5039370078740157
              },
              {
                "duration": 0.35714300000000065,
                "durationTicks": 120,
                "midi": 59,
                "name": "B3",
                "ticks": 15720,
                "time": 46.78573300000001,
                "velocity": 0.5039370078740157
              },
              {
                "duration": 0.35714300000000065,
                "durationTicks": 120,
                "midi": 52,
                "name": "E3",
                "ticks": 15840,
                "time": 47.14287600000001,
                "velocity": 0.5039370078740157
              },
              {
                "duration": 0.17857149999999677,
                "durationTicks": 60,
                "midi": 40,
                "name": "E2",
                "ticks": 15960,
                "time": 47.50001900000001,
                "velocity": 0.5039370078740157
              },
              {
                "duration": 0.17857149999999677,
                "durationTicks": 60,
                "midi": 42,
                "name": "F#2",
                "ticks": 16020,
                "time": 47.678590500000006,
                "velocity": 0.5039370078740157
              },
              {
                "duration": 0.35714300000000065,
                "durationTicks": 120,
                "midi": 43,
                "name": "G2",
                "ticks": 16080,
                "time": 47.857162,
                "velocity": 0.5039370078740157
              },
              {
                "duration": 0.35714300000000065,
                "durationTicks": 120,
                "midi": 45,
                "name": "A2",
                "ticks": 16200,
                "time": 48.214305,
                "velocity": 0.5039370078740157
              },
              {
                "duration": 0.35714300000000065,
                "durationTicks": 120,
                "midi": 38,
                "name": "D2",
                "ticks": 16320,
                "time": 48.571448000000004,
                "velocity": 0.5039370078740157
              },
              {
                "duration": 0.17857150000000388,
                "durationTicks": 60,
                "midi": 59,
                "name": "B3",
                "ticks": 16440,
                "time": 48.928591000000004,
                "velocity": 0.5039370078740157
              },
              {
                "duration": 0.17857149999999677,
                "durationTicks": 60,
                "midi": 58,
                "name": "A#3",
                "ticks": 16500,
                "time": 49.10716250000001,
                "velocity": 0.5039370078740157
              },
              {
                "duration": 0.35714300000000065,
                "durationTicks": 120,
                "midi": 59,
                "name": "B3",
                "ticks": 16560,
                "time": 49.285734000000005,
                "velocity": 0.5039370078740157
              },
              {
                "duration": 0.35714300000000065,
                "durationTicks": 120,
                "midi": 54,
                "name": "F#3",
                "ticks": 16680,
                "time": 49.642877000000006,
                "velocity": 0.5039370078740157
              },
              {
                "duration": 0.08928575000000194,
                "durationTicks": 30,
                "midi": 55,
                "name": "G3",
                "ticks": 16800,
                "time": 50.000020000000006,
                "velocity": 0.5039370078740157
              },
              {
                "duration": 0.08928574999999483,
                "durationTicks": 30,
                "midi": 57,
                "name": "A3",
                "ticks": 16830,
                "time": 50.08930575000001,
                "velocity": 0.5039370078740157
              },
              {
                "duration": 0.17857150000000388,
                "durationTicks": 60,
                "midi": 55,
                "name": "G3",
                "ticks": 16860,
                "time": 50.1785915,
                "velocity": 0.5039370078740157
              },
              {
                "duration": 0.35714300000000065,
                "durationTicks": 120,
                "midi": 54,
                "name": "F#3",
                "ticks": 16920,
                "time": 50.35716300000001,
                "velocity": 0.5039370078740157
              },
              {
                "duration": 0.35714300000000065,
                "durationTicks": 120,
                "midi": 59,
                "name": "B3",
                "ticks": 17040,
                "time": 50.71430600000001,
                "velocity": 0.5039370078740157
              },
              {
                "duration": 0.35714300000000065,
                "durationTicks": 120,
                "midi": 54,
                "name": "F#3",
                "ticks": 17160,
                "time": 51.07144900000001,
                "velocity": 0.5039370078740157
              },
              {
                "duration": 0.08928574999999483,
                "durationTicks": 30,
                "midi": 54,
                "name": "F#3",
                "ticks": 17280,
                "time": 51.42859200000001,
                "velocity": 0.5039370078740157
              },
              {
                "duration": 0.08928575000000194,
                "durationTicks": 30,
                "midi": 55,
                "name": "G3",
                "ticks": 17310,
                "time": 51.517877750000004,
                "velocity": 0.5039370078740157
              },
              {
                "duration": 0.17857150000000388,
                "durationTicks": 60,
                "midi": 54,
                "name": "F#3",
                "ticks": 17340,
                "time": 51.607163500000006,
                "velocity": 0.5039370078740157
              },
              {
                "duration": 0.35714299999999355,
                "durationTicks": 120,
                "midi": 52,
                "name": "E3",
                "ticks": 17400,
                "time": 51.78573500000001,
                "velocity": 0.5039370078740157
              },
              {
                "duration": 0.35714300000000065,
                "durationTicks": 120,
                "midi": 61,
                "name": "C#4",
                "ticks": 17520,
                "time": 52.142878,
                "velocity": 0.5039370078740157
              },
              {
                "duration": 0.35714300000000065,
                "durationTicks": 120,
                "midi": 52,
                "name": "E3",
                "ticks": 17640,
                "time": 52.500021000000004,
                "velocity": 0.5039370078740157
              },
              {
                "duration": 0.08928575000000194,
                "durationTicks": 30,
                "midi": 52,
                "name": "E3",
                "ticks": 17760,
                "time": 52.857164000000004,
                "velocity": 0.5039370078740157
              },
              {
                "duration": 0.08928575000000194,
                "durationTicks": 30,
                "midi": 54,
                "name": "F#3",
                "ticks": 17790,
                "time": 52.946449750000006,
                "velocity": 0.5039370078740157
              },
              {
                "duration": 0.17857149999999677,
                "durationTicks": 60,
                "midi": 52,
                "name": "E3",
                "ticks": 17820,
                "time": 53.03573550000001,
                "velocity": 0.5039370078740157
              },
              {
                "duration": 0.17857150000000388,
                "durationTicks": 60,
                "midi": 50,
                "name": "D3",
                "ticks": 17880,
                "time": 53.214307000000005,
                "velocity": 0.5039370078740157
              },
              {
                "duration": 0.17857149999999677,
                "durationTicks": 60,
                "midi": 49,
                "name": "C#3",
                "ticks": 17940,
                "time": 53.39287850000001,
                "velocity": 0.5039370078740157
              },
              {
                "duration": 0.17857150000000388,
                "durationTicks": 60,
                "midi": 50,
                "name": "D3",
                "ticks": 18000,
                "time": 53.571450000000006,
                "velocity": 0.5039370078740157
              },
              {
                "duration": 0.17857149999999677,
                "durationTicks": 60,
                "midi": 47,
                "name": "B2",
                "ticks": 18060,
                "time": 53.75002150000001,
                "velocity": 0.5039370078740157
              },
              {
                "duration": 0.17857149999999677,
                "durationTicks": 60,
                "midi": 49,
                "name": "C#3",
                "ticks": 18120,
                "time": 53.928593000000006,
                "velocity": 0.5039370078740157
              },
              {
                "duration": 0.17857150000000388,
                "durationTicks": 60,
                "midi": 50,
                "name": "D3",
                "ticks": 18180,
                "time": 54.1071645,
                "velocity": 0.5039370078740157
              },
              {
                "duration": 0.17857149999999677,
                "durationTicks": 60,
                "midi": 52,
                "name": "E3",
                "ticks": 18240,
                "time": 54.28573600000001,
                "velocity": 0.5039370078740157
              },
              {
                "duration": 0.17857150000000388,
                "durationTicks": 60,
                "midi": 54,
                "name": "F#3",
                "ticks": 18300,
                "time": 54.464307500000004,
                "velocity": 0.5039370078740157
              },
              {
                "duration": 0.17857149999999677,
                "durationTicks": 60,
                "midi": 52,
                "name": "E3",
                "ticks": 18360,
                "time": 54.64287900000001,
                "velocity": 0.5039370078740157
              },
              {
                "duration": 0.17857150000000388,
                "durationTicks": 60,
                "midi": 49,
                "name": "C#3",
                "ticks": 18420,
                "time": 54.821450500000005,
                "velocity": 0.5039370078740157
              },
              {
                "duration": 0.17857149999999677,
                "durationTicks": 60,
                "midi": 50,
                "name": "D3",
                "ticks": 18480,
                "time": 55.00002200000001,
                "velocity": 0.5039370078740157
              },
              {
                "duration": 0.17857150000000388,
                "durationTicks": 60,
                "midi": 52,
                "name": "E3",
                "ticks": 18540,
                "time": 55.178593500000005,
                "velocity": 0.5039370078740157
              },
              {
                "duration": 0.17857149999999677,
                "durationTicks": 60,
                "midi": 50,
                "name": "D3",
                "ticks": 18600,
                "time": 55.35716500000001,
                "velocity": 0.5039370078740157
              },
              {
                "duration": 0.17857150000000388,
                "durationTicks": 60,
                "midi": 47,
                "name": "B2",
                "ticks": 18660,
                "time": 55.535736500000006,
                "velocity": 0.5039370078740157
              },
              {
                "duration": 0.17857149999999677,
                "durationTicks": 60,
                "midi": 49,
                "name": "C#3",
                "ticks": 18720,
                "time": 55.71430800000001,
                "velocity": 0.5039370078740157
              },
              {
                "duration": 0.17857150000000388,
                "durationTicks": 60,
                "midi": 50,
                "name": "D3",
                "ticks": 18780,
                "time": 55.89287950000001,
                "velocity": 0.5039370078740157
              },
              {
                "duration": 0.17857149999999677,
                "durationTicks": 60,
                "midi": 49,
                "name": "C#3",
                "ticks": 18840,
                "time": 56.07145100000001,
                "velocity": 0.5039370078740157
              },
              {
                "duration": 0.17857149999999677,
                "durationTicks": 60,
                "midi": 47,
                "name": "B2",
                "ticks": 18900,
                "time": 56.25002250000001,
                "velocity": 0.5039370078740157
              },
              {
                "duration": 0.17857150000000388,
                "durationTicks": 60,
                "midi": 46,
                "name": "A#2",
                "ticks": 18960,
                "time": 56.428594000000004,
                "velocity": 0.5039370078740157
              },
              {
                "duration": 0.17857149999999677,
                "durationTicks": 60,
                "midi": 49,
                "name": "C#3",
                "ticks": 19020,
                "time": 56.60716550000001,
                "velocity": 0.5039370078740157
              },
              {
                "duration": 0.17857150000000388,
                "durationTicks": 60,
                "midi": 47,
                "name": "B2",
                "ticks": 19080,
                "time": 56.785737000000005,
                "velocity": 0.5039370078740157
              },
              {
                "duration": 0.17857149999999677,
                "durationTicks": 60,
                "midi": 46,
                "name": "A#2",
                "ticks": 19140,
                "time": 56.96430850000001,
                "velocity": 0.5039370078740157
              },
              {
                "duration": 0.35714300000000065,
                "durationTicks": 120,
                "midi": 47,
                "name": "B2",
                "ticks": 19200,
                "time": 57.142880000000005,
                "velocity": 0.5039370078740157
              },
              {
                "duration": 0.17857150000000388,
                "durationTicks": 60,
                "midi": 59,
                "name": "B3",
                "ticks": 19320,
                "time": 57.500023000000006,
                "velocity": 0.5039370078740157
              },
              {
                "duration": 0.17857149999999677,
                "durationTicks": 60,
                "midi": 58,
                "name": "A#3",
                "ticks": 19380,
                "time": 57.67859450000001,
                "velocity": 0.5039370078740157
              },
              {
                "duration": 0.35714300000000065,
                "durationTicks": 120,
                "midi": 59,
                "name": "B3",
                "ticks": 19440,
                "time": 57.85716600000001,
                "velocity": 0.5039370078740157
              },
              {
                "duration": 0.35714300000000065,
                "durationTicks": 120,
                "midi": 55,
                "name": "G3",
                "ticks": 19560,
                "time": 58.21430900000001,
                "velocity": 0.5039370078740157
              },
              {
                "duration": 0.17857149999999677,
                "durationTicks": 60,
                "midi": 50,
                "name": "D3",
                "ticks": 19680,
                "time": 58.57145200000001,
                "velocity": 0.5039370078740157
              },
              {
                "duration": 0.17857150000000388,
                "durationTicks": 60,
                "midi": 54,
                "name": "F#3",
                "ticks": 19740,
                "time": 58.750023500000005,
                "velocity": 0.5039370078740157
              },
              {
                "duration": 0.17857149999999677,
                "durationTicks": 60,
                "midi": 52,
                "name": "E3",
                "ticks": 19800,
                "time": 58.92859500000001,
                "velocity": 0.5039370078740157
              },
              {
                "duration": 0.17857150000000388,
                "durationTicks": 60,
                "midi": 55,
                "name": "G3",
                "ticks": 19860,
                "time": 59.107166500000005,
                "velocity": 0.5039370078740157
              },
              {
                "duration": 0.35714300000000065,
                "durationTicks": 120,
                "midi": 54,
                "name": "F#3",
                "ticks": 19920,
                "time": 59.28573800000001,
                "velocity": 0.5039370078740157
              },
              {
                "duration": 0.35714300000000065,
                "durationTicks": 120,
                "midi": 42,
                "name": "F#2",
                "ticks": 20040,
                "time": 59.64288100000001,
                "velocity": 0.5039370078740157
              },
              {
                "duration": 2.857143999999998,
                "durationTicks": 960,
                "midi": 47,
                "name": "B2",
                "ticks": 20160,
                "time": 60.00002400000001,
                "velocity": 0.5039370078740157
              }
            ],
            "endOfTrackTicks": 21120
          }
        ]
    }
}